G04 Layer_Color=16711935*
%FSLAX25Y25*%
%MOIN*%
G70*
G01*
G75*
%ADD195C,0.00001*%
%ADD210C,0.00001*%
%ADD290C,0.00001*%
D195*
X-2603077Y-1834153D02*
G03*
X-2603077Y-1834153I-0J0D01*
G01*
D02*
G03*
X-2603077Y-1834153I0J0D01*
G01*
X-2603033Y-1833916D02*
G03*
X-2603033Y-1833916I-0J0D01*
G01*
D02*
G03*
X-2603033Y-1833916I0J0D01*
G01*
X-2603023Y-1834012D02*
G03*
X-2603023Y-1834012I-0J0D01*
G01*
D02*
G03*
X-2603023Y-1834012I0J0D01*
G01*
X-2603061Y-1834131D02*
G03*
X-2603062Y-1834131I-0J0D01*
G01*
D02*
G03*
X-2603061Y-1834131I0J0D01*
G01*
X-2603043Y-1834170D02*
G03*
X-2603044Y-1834170I-0J0D01*
G01*
D02*
G03*
X-2603043Y-1834170I0J0D01*
G01*
X-2603112Y-1834130D02*
G03*
X-2603113Y-1834130I-0J0D01*
G01*
D02*
G03*
X-2603112Y-1834130I0J0D01*
G01*
X-2603077Y-1834231D02*
G03*
X-2603078Y-1834231I-0J0D01*
G01*
D02*
G03*
X-2603077Y-1834231I0J0D01*
G01*
X-2603056Y-1834275D02*
G03*
X-2603056Y-1834275I-0J0D01*
G01*
D02*
G03*
X-2603056Y-1834275I0J0D01*
G01*
X-2603068Y-1834277D02*
G03*
X-2603069Y-1834277I-0J0D01*
G01*
D02*
G03*
X-2603068Y-1834277I0J0D01*
G01*
X-2603086Y-1834166D02*
G03*
X-2603087Y-1834166I-0J0D01*
G01*
D02*
G03*
X-2603086Y-1834166I0J0D01*
G01*
X-2603158Y-1834249D02*
G03*
X-2603158Y-1834249I-0J0D01*
G01*
D02*
G03*
X-2603158Y-1834249I0J0D01*
G01*
X-2603108Y-1834036D02*
G03*
X-2603109Y-1834036I-0J0D01*
G01*
D02*
G03*
X-2603108Y-1834036I0J0D01*
G01*
X-2603046Y-1834118D02*
G03*
X-2603046Y-1834118I-0J0D01*
G01*
D02*
G03*
X-2603046Y-1834118I0J0D01*
G01*
X-2603081Y-1834022D02*
G03*
X-2603081Y-1834022I-0J0D01*
G01*
D02*
G03*
X-2603081Y-1834022I0J0D01*
G01*
X-2603056Y-1834022D02*
G03*
X-2603056Y-1834022I-0J0D01*
G01*
D02*
G03*
X-2603056Y-1834022I0J0D01*
G01*
X-2603029Y-1834080D02*
G03*
X-2603030Y-1834080I-0J0D01*
G01*
D02*
G03*
X-2603029Y-1834080I0J0D01*
G01*
X-2603070Y-1833937D02*
G03*
X-2603070Y-1833937I-0J0D01*
G01*
D02*
G03*
X-2603070Y-1833937I0J0D01*
G01*
X-2603070Y-1833952D02*
G03*
X-2603070Y-1833952I-0J0D01*
G01*
D02*
G03*
X-2603070Y-1833952I0J0D01*
G01*
X-2603066Y-1833942D02*
G03*
X-2603067Y-1833942I-0J0D01*
G01*
D02*
G03*
X-2603066Y-1833942I0J0D01*
G01*
X-2603039Y-1834015D02*
G03*
X-2603040Y-1834015I-0J0D01*
G01*
D02*
G03*
X-2603039Y-1834015I0J0D01*
G01*
X-2603171Y-1833926D02*
G03*
X-2603172Y-1833926I-0J0D01*
G01*
D02*
G03*
X-2603171Y-1833926I0J0D01*
G01*
X-2603045Y-1833993D02*
G03*
X-2603045Y-1833993I-0J0D01*
G01*
D02*
G03*
X-2603045Y-1833993I0J0D01*
G01*
X-2603072Y-1833961D02*
G03*
X-2603072Y-1833961I-0J0D01*
G01*
D02*
G03*
X-2603072Y-1833961I0J0D01*
G01*
X-2603021Y-1833974D02*
G03*
X-2603022Y-1833974I-0J0D01*
G01*
D02*
G03*
X-2603021Y-1833974I0J0D01*
G01*
X-2603027Y-1833980D02*
G03*
X-2603027Y-1833980I-0J0D01*
G01*
D02*
G03*
X-2603027Y-1833980I0J0D01*
G01*
X-2603037Y-1833986D02*
G03*
X-2603037Y-1833986I-0J0D01*
G01*
D02*
G03*
X-2603037Y-1833986I0J0D01*
G01*
X-2603025Y-1833987D02*
G03*
X-2603026Y-1833987I-0J0D01*
G01*
D02*
G03*
X-2603025Y-1833987I0J0D01*
G01*
X-2603027Y-1833970D02*
G03*
X-2603027Y-1833970I-0J0D01*
G01*
D02*
G03*
X-2603027Y-1833970I0J0D01*
G01*
X-2603033Y-1834064D02*
G03*
X-2603033Y-1834064I-0J0D01*
G01*
D02*
G03*
X-2603033Y-1834064I0J0D01*
G01*
X-2603019Y-1833961D02*
G03*
X-2603020Y-1833961I-0J0D01*
G01*
D02*
G03*
X-2603019Y-1833961I0J0D01*
G01*
X-2603064Y-1833927D02*
G03*
X-2603065Y-1833927I-0J0D01*
G01*
D02*
G03*
X-2603064Y-1833927I0J0D01*
G01*
X-2603017Y-1833986D02*
G03*
X-2603018Y-1833986I-0J0D01*
G01*
D02*
G03*
X-2603017Y-1833986I0J0D01*
G01*
X-2603169Y-1834056D02*
G03*
X-2603169Y-1834056I-0J0D01*
G01*
D02*
G03*
X-2603169Y-1834056I0J0D01*
G01*
X-2603094Y-1833908D02*
G03*
X-2603095Y-1833908I-0J0D01*
G01*
D02*
G03*
X-2603094Y-1833908I0J0D01*
G01*
X-2603059Y-1833959D02*
G03*
X-2603060Y-1833959I-0J0D01*
G01*
D02*
G03*
X-2603059Y-1833959I0J0D01*
G01*
X-2603048Y-1833959D02*
G03*
X-2603048Y-1833959I-0J0D01*
G01*
D02*
G03*
X-2603048Y-1833959I0J0D01*
G01*
X-2603060Y-1834267D02*
G03*
X-2603061Y-1834267I-0J0D01*
G01*
D02*
G03*
X-2603060Y-1834267I0J0D01*
G01*
X-2603089Y-1833991D02*
G03*
X-2603089Y-1833991I-0J0D01*
G01*
D02*
G03*
X-2603089Y-1833991I0J0D01*
G01*
X-2603036Y-1833993D02*
G03*
X-2603036Y-1833993I-0J0D01*
G01*
D02*
G03*
X-2603036Y-1833993I0J0D01*
G01*
X-2603008Y-1833979D02*
G03*
X-2603008Y-1833979I-0J0D01*
G01*
D02*
G03*
X-2603008Y-1833979I0J0D01*
G01*
X-2603105Y-1833914D02*
G03*
X-2603105Y-1833914I-0J0D01*
G01*
D02*
G03*
X-2603105Y-1833914I0J0D01*
G01*
X-2603108Y-1834092D02*
G03*
X-2603109Y-1834092I-0J0D01*
G01*
D02*
G03*
X-2603108Y-1834092I0J0D01*
G01*
X-2603115Y-1834095D02*
G03*
X-2603116Y-1834095I-0J0D01*
G01*
D02*
G03*
X-2603115Y-1834095I0J0D01*
G01*
X-2603079Y-1834177D02*
G03*
X-2603080Y-1834177I-0J0D01*
G01*
D02*
G03*
X-2603079Y-1834177I0J0D01*
G01*
X-2603159Y-1834231D02*
G03*
X-2603160Y-1834231I-0J0D01*
G01*
D02*
G03*
X-2603159Y-1834231I0J0D01*
G01*
X-2603060Y-1833973D02*
G03*
X-2603060Y-1833973I-0J0D01*
G01*
D02*
G03*
X-2603060Y-1833973I0J0D01*
G01*
X-2603029Y-1833951D02*
G03*
X-2603029Y-1833951I-0J0D01*
G01*
D02*
G03*
X-2603029Y-1833951I0J0D01*
G01*
X-2603037Y-1833967D02*
G03*
X-2603037Y-1833967I-0J0D01*
G01*
D02*
G03*
X-2603037Y-1833967I0J0D01*
G01*
X-2603043Y-1833926D02*
G03*
X-2603043Y-1833926I-0J0D01*
G01*
D02*
G03*
X-2603043Y-1833926I0J0D01*
G01*
Y-1833931D02*
G03*
X-2603043Y-1833931I-0J0D01*
G01*
D02*
G03*
X-2603043Y-1833931I0J0D01*
G01*
X-2603079Y-1833929D02*
G03*
X-2603080Y-1833929I-0J0D01*
G01*
D02*
G03*
X-2603079Y-1833929I0J0D01*
G01*
X-2603091Y-1833919D02*
G03*
X-2603092Y-1833919I-0J0D01*
G01*
D02*
G03*
X-2603091Y-1833919I0J0D01*
G01*
X-2603096Y-1833919D02*
G03*
X-2603097Y-1833919I-0J0D01*
G01*
D02*
G03*
X-2603096Y-1833919I0J0D01*
G01*
X-2603032Y-1833973D02*
G03*
X-2603032Y-1833973I-0J0D01*
G01*
D02*
G03*
X-2603032Y-1833973I0J0D01*
G01*
X-2603056Y-1833953D02*
G03*
X-2603056Y-1833953I-0J0D01*
G01*
D02*
G03*
X-2603056Y-1833953I0J0D01*
G01*
X-2603068Y-1833981D02*
G03*
X-2603068Y-1833981I-0J0D01*
G01*
D02*
G03*
X-2603068Y-1833981I0J0D01*
G01*
X-2603044Y-1834223D02*
G03*
X-2603045Y-1834223I-0J0D01*
G01*
D02*
G03*
X-2603044Y-1834223I0J0D01*
G01*
X-2603078Y-1834272D02*
G03*
X-2603079Y-1834272I-0J0D01*
G01*
D02*
G03*
X-2603078Y-1834272I0J0D01*
G01*
Y-1834259D02*
G03*
X-2603079Y-1834259I-0J0D01*
G01*
D02*
G03*
X-2603078Y-1834259I0J0D01*
G01*
X-2603050Y-1834267D02*
G03*
X-2603051Y-1834267I-0J0D01*
G01*
D02*
G03*
X-2603050Y-1834267I0J0D01*
G01*
X-2603068Y-1834261D02*
G03*
X-2603068Y-1834261I-0J0D01*
G01*
D02*
G03*
X-2603068Y-1834261I0J0D01*
G01*
X-2603055Y-1834204D02*
G03*
X-2603056Y-1834204I-0J0D01*
G01*
D02*
G03*
X-2603055Y-1834204I0J0D01*
G01*
X-2603048Y-1834189D02*
G03*
X-2603048Y-1834189I-0J0D01*
G01*
D02*
G03*
X-2603048Y-1834189I0J0D01*
G01*
X-2603059Y-1834204D02*
G03*
X-2603060Y-1834204I-0J0D01*
G01*
D02*
G03*
X-2603059Y-1834204I0J0D01*
G01*
X-2603093Y-1834229D02*
G03*
X-2603094Y-1834229I-0J0D01*
G01*
D02*
G03*
X-2603093Y-1834229I0J0D01*
G01*
X-2603140Y-1834156D02*
G03*
X-2603141Y-1834156I-0J0D01*
G01*
D02*
G03*
X-2603140Y-1834156I0J0D01*
G01*
X-2603102Y-1834164D02*
G03*
X-2603103Y-1834164I-0J0D01*
G01*
D02*
G03*
X-2603102Y-1834164I0J0D01*
G01*
X-2603110Y-1834180D02*
G03*
X-2603110Y-1834180I-0J0D01*
G01*
D02*
G03*
X-2603110Y-1834180I0J0D01*
G01*
X-2603094Y-1834159D02*
G03*
X-2603094Y-1834159I-0J0D01*
G01*
D02*
G03*
X-2603094Y-1834159I0J0D01*
G01*
X-2603107Y-1833977D02*
G03*
X-2603108Y-1833977I-0J0D01*
G01*
D02*
G03*
X-2603107Y-1833977I0J0D01*
G01*
X-2603082Y-1833974D02*
G03*
X-2603083Y-1833974I-0J0D01*
G01*
D02*
G03*
X-2603082Y-1833974I0J0D01*
G01*
X-2603082Y-1833958D02*
G03*
X-2603083Y-1833958I-0J0D01*
G01*
D02*
G03*
X-2603082Y-1833958I0J0D01*
G01*
X-2603077Y-1834123D02*
G03*
X-2603077Y-1834123I-0J0D01*
G01*
D02*
G03*
X-2603077Y-1834123I0J0D01*
G01*
X-2603097Y-1833976D02*
G03*
X-2603098Y-1833976I-0J0D01*
G01*
D02*
G03*
X-2603097Y-1833976I0J0D01*
G01*
X-2603108Y-1833983D02*
G03*
X-2603109Y-1833983I-0J0D01*
G01*
D02*
G03*
X-2603108Y-1833983I0J0D01*
G01*
X-2603102Y-1834154D02*
G03*
X-2603102Y-1834154I-0J0D01*
G01*
D02*
G03*
X-2603102Y-1834154I0J0D01*
G01*
X-2603141Y-1834207D02*
G03*
X-2603141Y-1834207I-0J0D01*
G01*
D02*
G03*
X-2603141Y-1834207I0J0D01*
G01*
X-2603142Y-1834204D02*
G03*
X-2603143Y-1834204I-0J0D01*
G01*
D02*
G03*
X-2603142Y-1834204I0J0D01*
G01*
Y-1834198D02*
G03*
X-2603143Y-1834198I-0J0D01*
G01*
D02*
G03*
X-2603142Y-1834198I0J0D01*
G01*
X-2603057Y-1834210D02*
G03*
X-2603057Y-1834210I-0J0D01*
G01*
D02*
G03*
X-2603057Y-1834210I0J0D01*
G01*
X-2603026Y-1834179D02*
G03*
X-2603027Y-1834179I-0J0D01*
G01*
D02*
G03*
X-2603026Y-1834179I0J0D01*
G01*
X-2603044Y-1834191D02*
G03*
X-2603045Y-1834191I-0J0D01*
G01*
D02*
G03*
X-2603044Y-1834191I0J0D01*
G01*
X-2603101Y-1834181D02*
G03*
X-2603102Y-1834181I-0J0D01*
G01*
D02*
G03*
X-2603101Y-1834181I0J0D01*
G01*
X-2603094Y-1834169D02*
G03*
X-2603095Y-1834169I-0J0D01*
G01*
D02*
G03*
X-2603094Y-1834169I0J0D01*
G01*
X-2603069Y-1834255D02*
G03*
X-2603069Y-1834255I-0J0D01*
G01*
D02*
G03*
X-2603069Y-1834255I0J0D01*
G01*
X-2603087Y-1834262D02*
G03*
X-2603088Y-1834262I-0J0D01*
G01*
D02*
G03*
X-2603087Y-1834262I0J0D01*
G01*
X-2603082Y-1834270D02*
G03*
X-2603083Y-1834270I-0J0D01*
G01*
D02*
G03*
X-2603082Y-1834270I0J0D01*
G01*
X-2603102Y-1833942D02*
G03*
X-2603103Y-1833942I-0J0D01*
G01*
D02*
G03*
X-2603102Y-1833942I0J0D01*
G01*
X-2603099Y-1833946D02*
G03*
X-2603099Y-1833946I-0J0D01*
G01*
D02*
G03*
X-2603099Y-1833946I0J0D01*
G01*
X-2603105Y-1834062D02*
G03*
X-2603106Y-1834062I-0J0D01*
G01*
D02*
G03*
X-2603105Y-1834062I0J0D01*
G01*
X-2603014Y-1834039D02*
G03*
X-2603015Y-1834039I-0J0D01*
G01*
D02*
G03*
X-2603014Y-1834039I0J0D01*
G01*
X-2603068Y-1834158D02*
G03*
X-2603068Y-1834158I-0J0D01*
G01*
D02*
G03*
X-2603068Y-1834158I0J0D01*
G01*
X-2603033Y-1834137D02*
G03*
X-2603033Y-1834137I-0J0D01*
G01*
D02*
G03*
X-2603033Y-1834137I0J0D01*
G01*
X-2603005Y-1834121D02*
G03*
X-2603005Y-1834121I-0J0D01*
G01*
D02*
G03*
X-2603005Y-1834121I0J0D01*
G01*
X-2603105Y-1834195D02*
G03*
X-2603106Y-1834195I-0J0D01*
G01*
D02*
G03*
X-2603105Y-1834195I0J0D01*
G01*
X-2603030Y-1834269D02*
G03*
X-2603031Y-1834269I-0J0D01*
G01*
D02*
G03*
X-2603030Y-1834269I0J0D01*
G01*
X-2603108Y-1834042D02*
G03*
X-2603109Y-1834042I-0J0D01*
G01*
D02*
G03*
X-2603108Y-1834042I0J0D01*
G01*
X-2603111Y-1833963D02*
G03*
X-2603111Y-1833963I-0J0D01*
G01*
D02*
G03*
X-2603111Y-1833963I0J0D01*
G01*
X-2603041Y-1833989D02*
G03*
X-2603042Y-1833989I-0J0D01*
G01*
D02*
G03*
X-2603041Y-1833989I0J0D01*
G01*
X-2603023Y-1833995D02*
G03*
X-2603024Y-1833995I-0J0D01*
G01*
D02*
G03*
X-2603023Y-1833995I0J0D01*
G01*
X-2603101Y-1833996D02*
G03*
X-2603101Y-1833996I-0J0D01*
G01*
D02*
G03*
X-2603101Y-1833996I0J0D01*
G01*
X-2603045Y-1834261D02*
G03*
X-2603045Y-1834261I-0J0D01*
G01*
D02*
G03*
X-2603045Y-1834261I0J0D01*
G01*
X-2603060Y-1834080D02*
G03*
X-2603060Y-1834080I-0J0D01*
G01*
D02*
G03*
X-2603060Y-1834080I0J0D01*
G01*
X-2603036Y-1834118D02*
G03*
X-2603036Y-1834118I-0J0D01*
G01*
D02*
G03*
X-2603036Y-1834118I0J0D01*
G01*
X-2603050Y-1833999D02*
G03*
X-2603050Y-1833999I-0J0D01*
G01*
D02*
G03*
X-2603050Y-1833999I0J0D01*
G01*
X-2603128Y-1833998D02*
G03*
X-2603128Y-1833998I-0J0D01*
G01*
D02*
G03*
X-2603128Y-1833998I0J0D01*
G01*
X-2603101Y-1834108D02*
G03*
X-2603102Y-1834108I-0J0D01*
G01*
D02*
G03*
X-2603101Y-1834108I0J0D01*
G01*
X-2603043Y-1834089D02*
G03*
X-2603044Y-1834089I-0J0D01*
G01*
D02*
G03*
X-2603043Y-1834089I0J0D01*
G01*
D210*
X-2603202Y-1834221D02*
D03*
X-2603205Y-1834218D02*
D03*
X-2603207Y-1834090D02*
D03*
X-2603172Y-1834154D02*
D03*
X-2603126Y-1834132D02*
D03*
X-2603095Y-1834084D02*
D03*
X-2603218Y-1834127D02*
D03*
X-2603112Y-1833947D02*
D03*
X-2603015Y-1834072D02*
D03*
X-2603015Y-1834075D02*
D03*
X-2603014Y-1834080D02*
D03*
X-2603014Y-1834085D02*
D03*
X-2603051Y-1834095D02*
D03*
X-2603095Y-1834077D02*
D03*
X-2603060Y-1834117D02*
D03*
X-2603187Y-1834022D02*
D03*
X-2603188Y-1834046D02*
D03*
X-2603207Y-1834026D02*
D03*
X-2603063Y-1834062D02*
D03*
X-2603187Y-1834041D02*
D03*
X-2603093Y-1834029D02*
D03*
X-2603079Y-1834037D02*
D03*
X-2603200Y-1833994D02*
D03*
X-2603096Y-1834064D02*
D03*
X-2603096Y-1833986D02*
D03*
X-2603098Y-1834024D02*
D03*
X-2603101Y-1834057D02*
D03*
X-2603098Y-1833993D02*
D03*
X-2603100Y-1833933D02*
D03*
X-2603192Y-1833985D02*
D03*
X-2603139Y-1834292D02*
D03*
X-2603182Y-1834023D02*
D03*
X-2603200Y-1834021D02*
D03*
X-2603207Y-1834021D02*
D03*
X-2603096Y-1834081D02*
D03*
X-2603054Y-1834073D02*
D03*
X-2603059Y-1834061D02*
D03*
X-2603098Y-1834061D02*
D03*
X-2603062Y-1834072D02*
D03*
Y-1834075D02*
D03*
X-2603119Y-1834057D02*
D03*
Y-1834053D02*
D03*
X-2603216Y-1834086D02*
D03*
Y-1834097D02*
D03*
X-2603196Y-1834204D02*
D03*
X-2603103Y-1834061D02*
D03*
X-2603010Y-1834121D02*
D03*
X-2603114Y-1834029D02*
D03*
X-2603077Y-1834029D02*
D03*
X-2603096Y-1834021D02*
D03*
X-2603101Y-1834020D02*
D03*
X-2603103Y-1834020D02*
D03*
X-2603087Y-1834139D02*
D03*
X-2603106Y-1834132D02*
D03*
X-2603097Y-1834086D02*
D03*
X-2603095Y-1834089D02*
D03*
X-2603089Y-1834090D02*
D03*
X-2603095Y-1834094D02*
D03*
X-2603119Y-1834086D02*
D03*
X-2603113Y-1834110D02*
D03*
X-2603032Y-1834109D02*
D03*
X-2603051Y-1834089D02*
D03*
X-2603199Y-1834098D02*
D03*
X-2603199Y-1834106D02*
D03*
X-2603212Y-1834078D02*
D03*
D290*
X-2603214Y-1834006D02*
D03*
X-2603205Y-1833994D02*
D03*
X-2603215Y-1834175D02*
D03*
X-2603206Y-1834182D02*
D03*
X-2603200Y-1834239D02*
D03*
M02*
