G04 Layer_Physical_Order=2*
G04 Layer_Color=128*
%FSLAX25Y25*%
%MOIN*%
G70*
G01*
G75*
%ADD102C,0.04000*%
%ADD103C,0.14192*%
%ADD104C,0.04704*%
%ADD105C,0.18917*%
%ADD106C,0.05137*%
%ADD107C,0.11042*%
%ADD108C,0.11830*%
%ADD109C,0.02600*%
%ADD110C,0.02200*%
%ADD111C,0.02381*%
G36*
X143605Y307290D02*
X90161Y307087D01*
Y352264D01*
X143605D01*
Y307290D01*
D02*
G37*
G36*
X560338Y448967D02*
X559846Y448770D01*
X559452Y448376D01*
X418113D01*
Y578396D01*
X463980Y624262D01*
X559452D01*
X560338Y625148D01*
Y448967D01*
D02*
G37*
G36*
X564669Y720276D02*
X414176Y720276D01*
Y671457D01*
X184058Y671457D01*
Y720276D01*
X92424Y720276D01*
X92425Y1050098D01*
X564669Y1050099D01*
X564669Y720276D01*
D02*
G37*
D102*
X89669Y1050394D02*
X562208D01*
X561913Y1050098D02*
X562208Y1050394D01*
X561913Y306988D02*
Y1050098D01*
X554432Y306988D02*
X561913D01*
X554137Y306693D02*
X554432Y306988D01*
X553645Y306693D02*
X554137D01*
X553645Y286910D02*
Y306693D01*
X524216Y286910D02*
X553645D01*
X524216D02*
Y306890D01*
X524117Y306791D02*
X524216Y306890D01*
X455909Y306791D02*
X524117D01*
X455909Y286417D02*
Y306791D01*
X426086Y286417D02*
X455909D01*
X425987Y286516D02*
X426086Y286417D01*
X425987Y286516D02*
Y306890D01*
X396086D02*
X425987D01*
X396086Y286122D02*
Y306890D01*
X323015Y286122D02*
X396086D01*
X323015D02*
Y306890D01*
X291440D02*
X323015D01*
X291440Y286811D02*
Y306890D01*
X241736Y286811D02*
X291440D01*
X241736D02*
Y306594D01*
X241637Y306693D02*
X241736Y306594D01*
X241539D02*
X241637Y306693D01*
X177464Y306594D02*
X241539D01*
X177464Y287598D02*
Y306594D01*
X147346Y287598D02*
X177464D01*
X147346D02*
Y306693D01*
X89472D02*
X147346D01*
X89373Y306791D02*
X89472Y306693D01*
X89373Y306791D02*
Y1050098D01*
X89669Y1050394D01*
D103*
X384550Y308976D02*
D03*
X334550D02*
D03*
D104*
X386558Y345000D02*
D03*
X332542D02*
D03*
X341558D02*
D03*
X377542D02*
D03*
X345456Y325984D02*
D03*
X349472Y318976D02*
D03*
X353487Y325984D02*
D03*
X357503Y318976D02*
D03*
X361519Y325984D02*
D03*
X365535Y318976D02*
D03*
X369550Y325984D02*
D03*
X373566Y318976D02*
D03*
D105*
X531893Y1018898D02*
D03*
X118507D02*
D03*
X117917Y330807D02*
D03*
D106*
X157385Y324016D02*
D03*
X445771Y322835D02*
D03*
X261617D02*
D03*
X271460D02*
D03*
X251775D02*
D03*
X533960Y323031D02*
D03*
X543802D02*
D03*
D107*
X162385Y298516D02*
D03*
X440928Y297335D02*
D03*
X538960Y297532D02*
D03*
D108*
X266539Y297933D02*
D03*
D109*
X523822Y368012D02*
D03*
X523625Y381693D02*
D03*
X528546Y416536D02*
D03*
X400397Y737795D02*
D03*
X413684Y728543D02*
D03*
X511420Y396555D02*
D03*
X429432Y387500D02*
D03*
X429629Y398327D02*
D03*
X540653Y435433D02*
D03*
X491972Y437008D02*
D03*
X259255Y362992D02*
D03*
D110*
X534058Y388799D02*
D03*
X532365Y384154D02*
D03*
X507779Y385925D02*
D03*
X477365Y399705D02*
D03*
X389865Y389665D02*
D03*
X386519Y401523D02*
D03*
X399117Y533957D02*
D03*
X368409Y596063D02*
D03*
X376662Y585186D02*
D03*
X535043Y369193D02*
D03*
X338854Y397370D02*
D03*
X401972Y638484D02*
D03*
X297346Y589272D02*
D03*
X304743Y596177D02*
D03*
X348282Y575568D02*
D03*
X463437Y649851D02*
D03*
X313881Y597835D02*
D03*
X307976Y556201D02*
D03*
X311027Y555905D02*
D03*
X315209Y600175D02*
D03*
X237095Y539812D02*
D03*
X283454Y561859D02*
D03*
X445762Y689112D02*
D03*
X457877Y703000D02*
D03*
X270560Y402312D02*
D03*
X213375Y489812D02*
D03*
X398710Y573276D02*
D03*
X301495Y583906D02*
D03*
X452745Y367568D02*
D03*
X392720Y616831D02*
D03*
X403251Y611516D02*
D03*
X385239Y613681D02*
D03*
X404236Y626575D02*
D03*
X431598D02*
D03*
X404334Y608957D02*
D03*
X344984Y387697D02*
D03*
X481972Y424823D02*
D03*
X504826Y420374D02*
D03*
X357484Y353248D02*
D03*
X362572Y379990D02*
D03*
X364570Y371063D02*
D03*
X359944Y358661D02*
D03*
X365161Y345965D02*
D03*
X344688Y372638D02*
D03*
X186407Y478099D02*
D03*
X204223Y476008D02*
D03*
X206978Y473572D02*
D03*
X355023Y577756D02*
D03*
X352267Y575886D02*
D03*
X506972Y439488D02*
D03*
X368999Y560138D02*
D03*
Y547441D02*
D03*
X331598Y551968D02*
D03*
X398330Y543996D02*
D03*
X323970Y551230D02*
D03*
X400299Y537402D02*
D03*
X415850Y433760D02*
D03*
X433271Y423425D02*
D03*
X319491Y594685D02*
D03*
X472697Y686794D02*
D03*
X471952Y650591D02*
D03*
X467769Y646408D02*
D03*
X365357Y599606D02*
D03*
X390751Y608957D02*
D03*
X403350Y621358D02*
D03*
X416440Y629035D02*
D03*
X393507Y653248D02*
D03*
X446066Y626673D02*
D03*
X458960Y641043D02*
D03*
X449314Y628248D02*
D03*
X413291Y607185D02*
D03*
X429517Y606904D02*
D03*
X408369Y601772D02*
D03*
X419787Y607087D02*
D03*
X464964Y640699D02*
D03*
X222543Y526575D02*
D03*
X193113Y535973D02*
D03*
X189767Y538532D02*
D03*
X196854Y454528D02*
D03*
X194393Y456004D02*
D03*
X199413Y419783D02*
D03*
X379728Y569980D02*
D03*
X439767Y602067D02*
D03*
X426972Y439567D02*
D03*
X320771Y628248D02*
D03*
X324511Y628642D02*
D03*
X321854Y615354D02*
D03*
X319737Y613069D02*
D03*
X320152Y610433D02*
D03*
X314570Y607874D02*
D03*
X393212Y649114D02*
D03*
X333172Y639272D02*
D03*
X435043Y409842D02*
D03*
X434747Y418701D02*
D03*
X334157Y572146D02*
D03*
X444491Y376279D02*
D03*
X386125Y487992D02*
D03*
X318901Y555610D02*
D03*
X314767Y563386D02*
D03*
X435141Y399508D02*
D03*
X427857Y659547D02*
D03*
X397989Y549681D02*
D03*
X443015Y613189D02*
D03*
X309944Y568209D02*
D03*
X312700Y565650D02*
D03*
X386716Y525787D02*
D03*
X436420Y636811D02*
D03*
X377857Y392618D02*
D03*
X221209Y538558D02*
D03*
X416145Y631791D02*
D03*
X442115Y357874D02*
D03*
X452365Y351969D02*
D03*
X465751Y350787D02*
D03*
X476184Y361221D02*
D03*
D111*
X546460Y512894D02*
D03*
X475889Y595965D02*
D03*
X500102Y485827D02*
D03*
Y477756D02*
D03*
X479531Y486122D02*
D03*
X509058Y499902D02*
D03*
X479334Y493110D02*
D03*
X425692Y540551D02*
D03*
X431598Y536122D02*
D03*
X425791Y530512D02*
D03*
X431795Y525197D02*
D03*
X425791Y519783D02*
D03*
X425987Y509154D02*
D03*
X431204Y504528D02*
D03*
X426086Y499114D02*
D03*
X431598Y494488D02*
D03*
X426086Y488386D02*
D03*
X431893Y482874D02*
D03*
X425987Y475295D02*
D03*
X431499Y470374D02*
D03*
X426086Y465256D02*
D03*
X431598Y449803D02*
D03*
X534846Y522146D02*
D03*
X554039Y462402D02*
D03*
X553842Y471850D02*
D03*
X553546Y489961D02*
D03*
X553645Y500394D02*
D03*
Y479823D02*
D03*
X533566Y511614D02*
D03*
X538881Y461122D02*
D03*
X539078Y472835D02*
D03*
X533665Y467717D02*
D03*
Y456988D02*
D03*
X533566Y477756D02*
D03*
X539176Y452264D02*
D03*
X539472Y485335D02*
D03*
X539176Y496949D02*
D03*
X538783Y506988D02*
D03*
X533665Y501575D02*
D03*
Y490846D02*
D03*
X539373Y527658D02*
D03*
X484550Y551181D02*
D03*
X449905Y454646D02*
D03*
X444393Y470098D02*
D03*
X449806Y475217D02*
D03*
X444295Y480138D02*
D03*
X450200Y487717D02*
D03*
X449905Y499331D02*
D03*
X444393Y503957D02*
D03*
X449511Y509370D02*
D03*
X444295Y513996D02*
D03*
X449905Y519213D02*
D03*
X444098Y524626D02*
D03*
X450102Y530039D02*
D03*
X444098Y535354D02*
D03*
X451184Y554724D02*
D03*
X443999Y545394D02*
D03*
X449610Y463504D02*
D03*
X444393Y459370D02*
D03*
X459747Y521949D02*
D03*
X468606Y522244D02*
D03*
X480318Y522047D02*
D03*
X492818Y521654D02*
D03*
X504432Y521949D02*
D03*
X514472Y522342D02*
D03*
X524314Y521949D02*
D03*
X546066D02*
D03*
X464472Y527461D02*
D03*
X475200D02*
D03*
X485239Y527559D02*
D03*
X498330Y527461D02*
D03*
X509058D02*
D03*
X519098Y527559D02*
D03*
X529728Y527756D02*
D03*
X550495Y527854D02*
D03*
X545673Y537795D02*
D03*
X534747Y537598D02*
D03*
X523920Y537795D02*
D03*
X514078Y538189D02*
D03*
X504039Y537795D02*
D03*
X492424Y537500D02*
D03*
X479924Y537894D02*
D03*
X455712Y537795D02*
D03*
X464078Y543307D02*
D03*
X474806D02*
D03*
X484846Y543405D02*
D03*
X497936Y543307D02*
D03*
X508665D02*
D03*
X518704Y543405D02*
D03*
X529334Y543602D02*
D03*
X540062D02*
D03*
X550102Y543701D02*
D03*
X496755Y551476D02*
D03*
X472543Y552067D02*
D03*
X463684Y551772D02*
D03*
X468409Y557283D02*
D03*
X479137D02*
D03*
X489176Y557382D02*
D03*
X502267Y557283D02*
D03*
X508369Y551772D02*
D03*
X512995Y557283D02*
D03*
X518409Y552165D02*
D03*
X528251Y551772D02*
D03*
X523035Y557382D02*
D03*
X533665Y557579D02*
D03*
X539078Y551575D02*
D03*
X544393Y557579D02*
D03*
X554432Y557677D02*
D03*
X508369Y566339D02*
D03*
X468409Y571850D02*
D03*
X472543Y566634D02*
D03*
X484255Y566437D02*
D03*
X479137Y571850D02*
D03*
X489176Y571949D02*
D03*
X496755Y566043D02*
D03*
X502267Y571850D02*
D03*
X512995D02*
D03*
X518409Y566732D02*
D03*
X550003Y566339D02*
D03*
X554432Y572244D02*
D03*
X544393Y572146D02*
D03*
X539078Y566142D02*
D03*
X533665Y572146D02*
D03*
X523035Y571949D02*
D03*
X528251Y566339D02*
D03*
X554924Y587402D02*
D03*
X472739Y581201D02*
D03*
X484452Y581004D02*
D03*
X479334Y586417D02*
D03*
X489373Y586516D02*
D03*
X496952Y580610D02*
D03*
X508566Y580905D02*
D03*
X518606Y581299D02*
D03*
X523232Y586516D02*
D03*
X513192Y586417D02*
D03*
X502464D02*
D03*
X533861Y586713D02*
D03*
X528448Y580905D02*
D03*
X539275Y580709D02*
D03*
X544590Y586713D02*
D03*
X550200Y580905D02*
D03*
X465948Y596457D02*
D03*
X487602Y595768D02*
D03*
X500102Y595374D02*
D03*
X511716Y595669D02*
D03*
X521755Y596063D02*
D03*
X531598Y595669D02*
D03*
X542424Y595472D02*
D03*
X553350Y595669D02*
D03*
X482483Y601181D02*
D03*
X492523Y601279D02*
D03*
X505613Y601181D02*
D03*
X516342D02*
D03*
X526381Y601279D02*
D03*
X537011Y601476D02*
D03*
X490259Y510532D02*
D03*
X479531D02*
D03*
X509354Y477756D02*
D03*
X509058Y485827D02*
D03*
X488881Y477953D02*
D03*
X509354Y492913D02*
D03*
X489078Y486122D02*
D03*
X479531Y477953D02*
D03*
X479334Y500197D02*
D03*
X500299Y493110D02*
D03*
X489669Y500394D02*
D03*
Y493110D02*
D03*
X500299Y499902D02*
D03*
X475200Y608661D02*
D03*
X486913Y608465D02*
D03*
X481795Y613878D02*
D03*
X471066D02*
D03*
X491834Y613976D02*
D03*
X466342Y608366D02*
D03*
X499413Y608071D02*
D03*
X511027Y608366D02*
D03*
X521066Y608760D02*
D03*
X525692Y613976D02*
D03*
X515653Y613878D02*
D03*
X504924D02*
D03*
X536322Y614173D02*
D03*
X530909Y608366D02*
D03*
X541736Y608169D02*
D03*
X547050Y614173D02*
D03*
X552661Y608366D02*
D03*
X557090Y614272D02*
D03*
X489471Y729331D02*
D03*
X377844Y481149D02*
D03*
X300200Y533071D02*
D03*
X307076Y540401D02*
D03*
X277973Y586417D02*
D03*
X299905Y546161D02*
D03*
X365442Y523867D02*
D03*
X296263Y517717D02*
D03*
X291762Y397370D02*
D03*
X417818Y653689D02*
D03*
X450496Y703197D02*
D03*
X452759Y721800D02*
D03*
X329222Y517173D02*
D03*
X247726Y521405D02*
D03*
X249498Y463138D02*
D03*
X495082Y682823D02*
D03*
X497838Y662548D02*
D03*
X509551Y699162D02*
D03*
X509452Y692272D02*
D03*
X520968Y669142D02*
D03*
X271545Y473768D02*
D03*
X274891Y497685D02*
D03*
X274694Y449161D02*
D03*
X270265Y458905D02*
D03*
X222922Y467272D02*
D03*
X366586Y499002D02*
D03*
X361407Y455559D02*
D03*
X372923Y457527D02*
D03*
X343080Y459771D02*
D03*
X315541Y465598D02*
D03*
X270167Y470618D02*
D03*
X268395Y538335D02*
D03*
X274104Y532724D02*
D03*
X274005Y537842D02*
D03*
X268690Y542764D02*
D03*
X274005Y542862D02*
D03*
X307287Y529921D02*
D03*
X315738Y513531D02*
D03*
X299104D02*
D03*
X314753Y534693D02*
D03*
X268494Y546898D02*
D03*
X479333Y723622D02*
D03*
X492521Y718799D02*
D03*
X469787Y707429D02*
D03*
X475201Y677409D02*
D03*
X290442Y412842D02*
D03*
X290751Y524213D02*
D03*
X284832Y532921D02*
D03*
X290751Y540650D02*
D03*
X300200Y523917D02*
D03*
X290850Y532972D02*
D03*
X307470Y513433D02*
D03*
X314865Y525295D02*
D03*
X375974Y557134D02*
D03*
X424807Y712843D02*
D03*
X366539Y589764D02*
D03*
X472740Y695816D02*
D03*
X429728Y638335D02*
D03*
X366047Y615846D02*
D03*
X453940Y702705D02*
D03*
X267706Y521996D02*
D03*
X475299Y661367D02*
D03*
X425299Y681544D02*
D03*
X460436Y659891D02*
D03*
X424905Y668749D02*
D03*
X445476Y683316D02*
D03*
X446952Y673178D02*
D03*
X445663Y693148D02*
D03*
X250495Y440158D02*
D03*
X252070Y442028D02*
D03*
X249990Y443059D02*
D03*
X253336Y444338D02*
D03*
X250987Y446654D02*
D03*
X477956Y691583D02*
D03*
X473035Y692371D02*
D03*
X472200Y689370D02*
D03*
X450889Y647933D02*
D03*
X447444Y655166D02*
D03*
X417228Y638386D02*
D03*
X463684Y566339D02*
D03*
X471165Y602264D02*
D03*
X468606Y586417D02*
D03*
X463881Y580905D02*
D03*
X556991Y601476D02*
D03*
X547739D02*
D03*
X426086Y454528D02*
D03*
X431106Y458760D02*
D03*
X444393Y493228D02*
D03*
X432287Y514370D02*
D03*
X469885Y537894D02*
D03*
X251480Y437894D02*
D03*
M02*
