G04 Layer_Color=32896*
%FSLAX25Y25*%
%MOIN*%
G70*
G01*
G75*
%ADD90C,0.00050*%
%ADD221C,0.00000*%
%ADD222C,0.00010*%
D90*
X-2603025Y-1833923D02*
X-2603024D01*
X-2603025Y-1833923D02*
X-2603025Y-1833923D01*
X-2603025Y-1833923D02*
Y-1833922D01*
X-2603025Y-1833922D01*
X-2603024D01*
X-2603023Y-1833922D01*
Y-1833923D02*
Y-1833922D01*
X-2603024Y-1833923D02*
X-2603023Y-1833923D01*
X-2603025Y-1833925D02*
X-2603024D01*
X-2603025Y-1833925D02*
X-2603025Y-1833925D01*
X-2603025Y-1833925D02*
Y-1833924D01*
X-2603025Y-1833924D01*
X-2603024D01*
X-2603023Y-1833924D01*
Y-1833925D02*
Y-1833924D01*
X-2603024Y-1833925D02*
X-2603023Y-1833925D01*
X-2603024Y-1833927D02*
X-2603023Y-1833927D01*
X-2603025D02*
X-2603023D01*
X-2603025D02*
Y-1833926D01*
Y-1833927D02*
Y-1833926D01*
X-2603024Y-1833929D02*
Y-1833928D01*
X-2603024Y-1833928D01*
X-2603024D01*
X-2603023Y-1833928D01*
Y-1833929D02*
Y-1833928D01*
X-2603025Y-1833929D02*
X-2603023D01*
X-2603025Y-1833930D02*
X-2603023D01*
Y-1833930D01*
Y-1833931D02*
Y-1833930D01*
X-2603123Y-1834298D02*
Y-1834297D01*
X-2603125Y-1834296D02*
X-2603123Y-1834297D01*
X-2603125Y-1834296D02*
Y-1834296D01*
X-2603123D01*
X-2603122Y-1834298D02*
X-2603122Y-1834297D01*
X-2603123Y-1834298D02*
X-2603122D01*
X-2603123Y-1834297D02*
X-2603123Y-1834298D01*
X-2603123Y-1834297D02*
Y-1834297D01*
X-2603123Y-1834296D01*
X-2603122D01*
X-2603122Y-1834297D01*
Y-1834296D01*
X-2603123D02*
X-2603122D01*
X-2603120Y-1834297D02*
X-2603119D01*
X-2603121Y-1834297D02*
X-2603120Y-1834297D01*
X-2603121Y-1834297D02*
Y-1834296D01*
X-2603120Y-1834296D01*
X-2603119D01*
Y-1834298D02*
Y-1834296D01*
X-2603118Y-1834298D02*
Y-1834296D01*
X-2603119D02*
X-2603118D01*
X-2603119D02*
X-2603118D01*
X-2603180Y-1834226D02*
X-2603178D01*
X-2603180D02*
X-2603179Y-1834228D01*
Y-1834225D01*
X-2603182Y-1834226D02*
X-2603181Y-1834225D01*
X-2603181D01*
X-2603181Y-1834226D01*
Y-1834226D02*
Y-1834226D01*
X-2603181Y-1834227D02*
X-2603181Y-1834226D01*
X-2603181Y-1834227D02*
X-2603181D01*
X-2603182Y-1834226D02*
X-2603181Y-1834227D01*
X-2603182Y-1834228D02*
Y-1834226D01*
Y-1834228D02*
X-2603181D01*
X-2603184Y-1834226D02*
X-2603183D01*
X-2603182Y-1834226D01*
Y-1834227D02*
Y-1834226D01*
X-2603183Y-1834228D02*
X-2603182Y-1834227D01*
X-2603184Y-1834228D02*
X-2603183D01*
X-2603184D02*
Y-1834225D01*
X-2603185Y-1834228D02*
Y-1834225D01*
Y-1834228D02*
X-2603185D01*
X-2603186D02*
X-2603185D01*
X-2603151Y-1834258D02*
Y-1834257D01*
X-2603152Y-1834256D02*
X-2603151Y-1834257D01*
X-2603152Y-1834256D02*
X-2603152D01*
X-2603152Y-1834257D02*
X-2603152Y-1834256D01*
X-2603152Y-1834257D02*
Y-1834257D01*
Y-1834257D02*
X-2603152Y-1834258D01*
X-2603151D01*
X-2603150Y-1834257D01*
Y-1834257D01*
X-2603151Y-1834256D02*
X-2603150Y-1834257D01*
X-2603151Y-1834254D02*
X-2603150Y-1834255D01*
Y-1834255D02*
Y-1834255D01*
X-2603151Y-1834255D02*
X-2603150Y-1834255D01*
X-2603151Y-1834255D02*
X-2603151D01*
X-2603152Y-1834255D02*
X-2603151Y-1834255D01*
X-2603152Y-1834255D02*
Y-1834255D01*
X-2603151Y-1834254D01*
X-2603152D02*
X-2603151D01*
X-2603152Y-1834255D02*
Y-1834254D01*
X-2603151Y-1834253D02*
Y-1834252D01*
X-2603151Y-1834254D02*
X-2603151Y-1834253D01*
X-2603152Y-1834254D02*
X-2603151D01*
X-2603152Y-1834253D02*
X-2603152Y-1834254D01*
X-2603152Y-1834253D02*
Y-1834252D01*
X-2603150D01*
X-2603152Y-1834251D02*
X-2603150D01*
X-2603152Y-1834252D02*
Y-1834251D01*
Y-1834252D02*
Y-1834250D01*
X-2603155Y-1834173D02*
Y-1834172D01*
X-2603155Y-1834172D01*
X-2603154D01*
X-2603154Y-1834172D01*
Y-1834173D02*
Y-1834172D01*
X-2603154Y-1834174D02*
X-2603154Y-1834173D01*
X-2603155Y-1834174D02*
X-2603154D01*
X-2603155Y-1834173D02*
X-2603155Y-1834174D01*
X-2603157Y-1834173D02*
X-2603156D01*
X-2603156Y-1834172D01*
Y-1834172D01*
X-2603156Y-1834172D02*
X-2603156Y-1834172D01*
X-2603157Y-1834172D02*
X-2603156D01*
X-2603157Y-1834172D02*
X-2603157Y-1834172D01*
X-2603157Y-1834173D02*
Y-1834172D01*
Y-1834173D02*
X-2603157Y-1834173D01*
X-2603156Y-1834174D01*
X-2603159Y-1834172D02*
X-2603158D01*
X-2603158Y-1834173D01*
Y-1834173D02*
Y-1834173D01*
X-2603158Y-1834174D02*
X-2603158Y-1834173D01*
X-2603159Y-1834174D02*
X-2603158D01*
X-2603159D02*
Y-1834172D01*
X-2603161Y-1834174D02*
Y-1834172D01*
Y-1834174D02*
X-2603160D01*
X-2603161D02*
X-2603160D01*
X-2603132Y-1834162D02*
X-2603131Y-1834162D01*
X-2603132Y-1834162D02*
X-2603132D01*
X-2603133Y-1834162D02*
X-2603132Y-1834162D01*
X-2603133Y-1834162D02*
Y-1834161D01*
X-2603132Y-1834161D01*
X-2603132D01*
X-2603131Y-1834161D01*
Y-1834160D01*
X-2603133D02*
X-2603131D01*
X-2603130Y-1834162D02*
X-2603129Y-1834162D01*
X-2603130Y-1834162D02*
X-2603130D01*
X-2603131Y-1834162D02*
X-2603130Y-1834162D01*
X-2603131Y-1834162D02*
Y-1834161D01*
X-2603130Y-1834161D01*
X-2603130D01*
X-2603129Y-1834161D01*
Y-1834160D01*
X-2603131D02*
X-2603129D01*
X-2603128Y-1834162D02*
X-2603127D01*
X-2603129Y-1834161D02*
X-2603128Y-1834162D01*
X-2603129Y-1834161D02*
Y-1834161D01*
X-2603128Y-1834160D01*
X-2603127D01*
Y-1834162D02*
Y-1834160D01*
X-2603126Y-1834162D02*
Y-1834160D01*
X-2603127D02*
X-2603126D01*
X-2603127D02*
X-2603125D01*
X-2603141Y-1834228D02*
X-2603140D01*
X-2603141Y-1834227D02*
X-2603140Y-1834228D01*
X-2603141Y-1834229D02*
Y-1834227D01*
X-2603139Y-1834228D02*
X-2603138D01*
X-2603139Y-1834228D02*
X-2603139Y-1834228D01*
X-2603139Y-1834228D02*
Y-1834228D01*
Y-1834228D02*
X-2603139Y-1834229D01*
X-2603138D01*
X-2603138Y-1834228D01*
Y-1834228D01*
X-2603139Y-1834227D02*
X-2603138Y-1834228D01*
X-2603139Y-1834227D02*
X-2603139Y-1834227D01*
X-2603137Y-1834228D02*
X-2603136D01*
X-2603137Y-1834228D02*
X-2603137Y-1834228D01*
X-2603137Y-1834228D02*
Y-1834227D01*
X-2603137Y-1834227D01*
X-2603136D01*
Y-1834229D02*
Y-1834227D01*
X-2603135Y-1834229D02*
Y-1834227D01*
X-2603135D02*
X-2603135D01*
X-2603135D02*
X-2603134D01*
X-2603150Y-1834208D02*
X-2603149Y-1834208D01*
X-2603150Y-1834208D02*
X-2603150D01*
X-2603151Y-1834208D02*
X-2603150Y-1834208D01*
X-2603151Y-1834208D02*
Y-1834208D01*
X-2603150Y-1834207D01*
X-2603150D01*
X-2603149Y-1834208D01*
Y-1834207D01*
X-2603151D02*
X-2603149D01*
X-2603148Y-1834208D02*
X-2603147D01*
X-2603149Y-1834208D02*
X-2603148Y-1834208D01*
X-2603149Y-1834208D02*
Y-1834208D01*
Y-1834208D02*
X-2603148Y-1834208D01*
X-2603148D01*
X-2603147Y-1834208D01*
Y-1834208D01*
X-2603148Y-1834207D02*
X-2603147Y-1834208D01*
X-2603149Y-1834207D02*
X-2603148Y-1834207D01*
X-2603146Y-1834208D02*
X-2603145D01*
X-2603147Y-1834208D02*
X-2603146Y-1834208D01*
X-2603147Y-1834208D02*
Y-1834207D01*
X-2603146Y-1834207D01*
X-2603145D01*
Y-1834208D02*
Y-1834207D01*
X-2603144Y-1834208D02*
Y-1834207D01*
X-2603145D02*
X-2603144D01*
X-2603145D02*
X-2603143D01*
X-2603086Y-1834176D02*
X-2603086Y-1834176D01*
X-2603087Y-1834176D02*
X-2603086D01*
X-2603087Y-1834176D02*
X-2603087Y-1834176D01*
X-2603087Y-1834177D02*
Y-1834176D01*
Y-1834177D02*
X-2603086Y-1834178D01*
X-2603087D02*
X-2603086D01*
X-2603084D02*
Y-1834178D01*
X-2603085Y-1834176D02*
X-2603084Y-1834178D01*
X-2603085Y-1834176D02*
Y-1834176D01*
X-2603084D01*
X-2603083Y-1834177D02*
X-2603082D01*
X-2603083Y-1834177D02*
X-2603083Y-1834177D01*
X-2603083Y-1834177D02*
Y-1834176D01*
X-2603083Y-1834176D01*
X-2603082D01*
Y-1834178D02*
Y-1834176D01*
X-2603081Y-1834178D02*
Y-1834176D01*
X-2603081D02*
X-2603081D01*
X-2603081D02*
X-2603080D01*
X-2603034Y-1834132D02*
Y-1834130D01*
X-2603035Y-1834132D02*
X-2603034Y-1834132D01*
X-2603035Y-1834132D02*
X-2603035D01*
X-2603036Y-1834132D02*
X-2603035Y-1834132D01*
X-2603036Y-1834132D02*
Y-1834130D01*
X-2603035Y-1834130D01*
X-2603035D01*
X-2603034Y-1834130D01*
X-2603032Y-1834132D02*
Y-1834132D01*
X-2603034Y-1834130D02*
X-2603032Y-1834132D01*
X-2603034Y-1834130D02*
Y-1834130D01*
X-2603032D01*
X-2603031Y-1834131D02*
X-2603030D01*
X-2603032Y-1834131D02*
X-2603031Y-1834131D01*
X-2603032Y-1834131D02*
Y-1834130D01*
X-2603031Y-1834130D01*
X-2603030D01*
Y-1834132D02*
Y-1834130D01*
X-2603029Y-1834132D02*
Y-1834130D01*
X-2603030D02*
X-2603029D01*
X-2603030D02*
X-2603028D01*
X-2603026Y-1834213D02*
X-2603025D01*
X-2603025Y-1834212D01*
Y-1834212D01*
X-2603025Y-1834212D02*
X-2603025Y-1834212D01*
X-2603026Y-1834212D02*
X-2603025D01*
X-2603026Y-1834212D02*
X-2603026Y-1834212D01*
X-2603026Y-1834213D02*
Y-1834212D01*
Y-1834213D02*
X-2603025Y-1834213D01*
X-2603025Y-1834214D01*
X-2603028Y-1834212D02*
Y-1834212D01*
Y-1834212D02*
X-2603027Y-1834213D01*
Y-1834214D02*
Y-1834213D01*
X-2603028Y-1834214D02*
X-2603027D01*
X-2603030Y-1834212D02*
X-2603029D01*
X-2603029Y-1834213D01*
Y-1834213D02*
Y-1834213D01*
X-2603029Y-1834214D02*
X-2603029Y-1834213D01*
X-2603030Y-1834214D02*
X-2603029D01*
X-2603030D02*
Y-1834212D01*
X-2603031Y-1834214D02*
Y-1834212D01*
Y-1834214D02*
X-2603031D01*
X-2603032D02*
X-2603031D01*
X-2603041Y-1834194D02*
X-2603041D01*
X-2603041Y-1834194D02*
Y-1834193D01*
X-2603041Y-1834194D02*
X-2603041Y-1834194D01*
X-2603041Y-1834194D02*
X-2603041Y-1834194D01*
Y-1834195D02*
Y-1834194D01*
X-2603041Y-1834195D02*
X-2603041Y-1834195D01*
X-2603041Y-1834195D02*
X-2603041D01*
X-2603042Y-1834195D02*
X-2603041Y-1834195D01*
X-2603042Y-1834195D02*
Y-1834194D01*
X-2603041Y-1834194D01*
X-2603042Y-1834194D02*
X-2603041Y-1834194D01*
X-2603042Y-1834194D02*
Y-1834193D01*
X-2603041Y-1834193D01*
X-2603041D01*
X-2603041Y-1834193D01*
X-2603038Y-1834195D02*
Y-1834195D01*
X-2603040Y-1834193D02*
X-2603038Y-1834195D01*
X-2603040Y-1834193D02*
Y-1834193D01*
X-2603038D01*
X-2603037Y-1834194D02*
X-2603036D01*
X-2603038Y-1834194D02*
X-2603037Y-1834194D01*
X-2603038Y-1834194D02*
Y-1834193D01*
X-2603037Y-1834193D01*
X-2603036D01*
Y-1834195D02*
Y-1834193D01*
X-2603035Y-1834195D02*
Y-1834193D01*
X-2603036D02*
X-2603035D01*
X-2603036D02*
X-2603035D01*
X-2603125Y-1834283D02*
Y-1834282D01*
Y-1834283D02*
X-2603124Y-1834284D01*
X-2603124D01*
X-2603124Y-1834283D01*
Y-1834283D01*
X-2603124Y-1834282D02*
X-2603124Y-1834283D01*
X-2603125Y-1834282D02*
X-2603124D01*
X-2603126Y-1834283D02*
X-2603125Y-1834282D01*
X-2603126Y-1834284D02*
X-2603126Y-1834283D01*
X-2603124Y-1834281D02*
X-2603124Y-1834281D01*
Y-1834282D02*
Y-1834281D01*
X-2603124Y-1834282D02*
X-2603124Y-1834282D01*
X-2603125Y-1834282D02*
X-2603124D01*
X-2603125Y-1834282D02*
X-2603125Y-1834282D01*
X-2603125Y-1834282D02*
Y-1834281D01*
X-2603125Y-1834281D01*
X-2603126D02*
X-2603125D01*
X-2603126Y-1834282D02*
Y-1834281D01*
X-2603124Y-1834279D02*
Y-1834278D01*
X-2603125Y-1834280D02*
X-2603124Y-1834279D01*
X-2603126Y-1834280D02*
X-2603125D01*
X-2603126Y-1834279D02*
X-2603126Y-1834280D01*
X-2603126Y-1834279D02*
Y-1834278D01*
X-2603124D01*
X-2603126Y-1834277D02*
X-2603124D01*
X-2603126Y-1834278D02*
Y-1834277D01*
Y-1834278D02*
Y-1834277D01*
X-2603136Y-1834250D02*
X-2603136Y-1834249D01*
X-2603137Y-1834250D02*
X-2603136D01*
X-2603137Y-1834249D02*
X-2603137Y-1834250D01*
X-2603137Y-1834249D02*
Y-1834249D01*
X-2603137Y-1834249D01*
X-2603136D01*
X-2603137D02*
X-2603136D01*
X-2603137Y-1834249D02*
X-2603137Y-1834249D01*
X-2603137Y-1834249D02*
Y-1834248D01*
X-2603137Y-1834248D01*
X-2603136D01*
X-2603136Y-1834248D01*
X-2603135Y-1834249D02*
X-2603134D01*
X-2603135Y-1834249D02*
X-2603135Y-1834249D01*
X-2603135Y-1834249D02*
Y-1834249D01*
Y-1834249D02*
X-2603135Y-1834250D01*
X-2603134D01*
X-2603134Y-1834249D01*
Y-1834249D01*
X-2603134Y-1834248D02*
X-2603134Y-1834249D01*
X-2603135Y-1834248D02*
X-2603134Y-1834248D01*
X-2603133Y-1834249D02*
X-2603132D01*
X-2603133Y-1834249D02*
X-2603133Y-1834249D01*
X-2603133Y-1834249D02*
Y-1834248D01*
X-2603133Y-1834248D01*
X-2603132D01*
Y-1834250D02*
Y-1834248D01*
X-2603130Y-1834250D02*
Y-1834248D01*
X-2603131D02*
X-2603130D01*
X-2603131D02*
X-2603130D01*
X-2603031Y-1834236D02*
X-2603030Y-1834236D01*
X-2603029D01*
X-2603029Y-1834236D01*
Y-1834237D02*
Y-1834236D01*
X-2603029Y-1834237D02*
X-2603029Y-1834237D01*
X-2603030Y-1834237D02*
X-2603029D01*
X-2603031Y-1834237D02*
X-2603030Y-1834237D01*
X-2603031Y-1834238D02*
Y-1834237D01*
Y-1834238D02*
X-2603029D01*
X-2603032Y-1834236D02*
Y-1834236D01*
Y-1834236D02*
X-2603031Y-1834237D01*
Y-1834238D02*
Y-1834237D01*
X-2603032Y-1834238D02*
X-2603031D01*
X-2603035Y-1834237D02*
X-2603033D01*
X-2603033Y-1834237D01*
Y-1834237D02*
Y-1834237D01*
X-2603033Y-1834238D02*
X-2603033Y-1834237D01*
X-2603035Y-1834238D02*
X-2603033D01*
X-2603035D02*
Y-1834236D01*
X-2603036Y-1834238D02*
Y-1834236D01*
Y-1834238D02*
X-2603035D01*
X-2603036D02*
X-2603035D01*
X-2603143Y-1834167D02*
X-2603143Y-1834167D01*
X-2603143Y-1834169D02*
Y-1834167D01*
X-2603143Y-1834169D02*
X-2603143D01*
X-2603143D02*
X-2603143D01*
X-2603142Y-1834168D02*
X-2603141D01*
X-2603142Y-1834168D02*
X-2603142Y-1834168D01*
X-2603142Y-1834168D02*
Y-1834168D01*
Y-1834168D02*
X-2603142Y-1834169D01*
X-2603141D01*
X-2603141Y-1834168D01*
Y-1834168D01*
X-2603141Y-1834167D02*
X-2603141Y-1834168D01*
X-2603142Y-1834167D02*
X-2603141Y-1834167D01*
X-2603140Y-1834168D02*
X-2603139D01*
X-2603140Y-1834168D02*
X-2603140Y-1834168D01*
X-2603140Y-1834168D02*
Y-1834167D01*
X-2603140Y-1834167D01*
X-2603139D01*
Y-1834169D02*
Y-1834167D01*
X-2603137Y-1834169D02*
Y-1834167D01*
X-2603138D02*
X-2603137D01*
X-2603138D02*
X-2603137D01*
X-2603140Y-1834240D02*
Y-1834239D01*
X-2603141Y-1834238D02*
X-2603140Y-1834239D01*
X-2603141Y-1834238D02*
Y-1834238D01*
X-2603140D01*
X-2603139Y-1834239D02*
X-2603138D01*
X-2603139Y-1834239D02*
X-2603139Y-1834239D01*
X-2603139Y-1834239D02*
Y-1834239D01*
Y-1834239D02*
X-2603139Y-1834240D01*
X-2603138D01*
X-2603138Y-1834239D01*
Y-1834239D01*
X-2603139Y-1834238D02*
X-2603138Y-1834239D01*
X-2603139Y-1834238D02*
X-2603139Y-1834238D01*
X-2603137Y-1834239D02*
X-2603136D01*
X-2603137Y-1834239D02*
X-2603137Y-1834239D01*
X-2603137Y-1834239D02*
Y-1834238D01*
X-2603137Y-1834238D01*
X-2603136D01*
Y-1834240D02*
Y-1834238D01*
X-2603135Y-1834240D02*
Y-1834238D01*
X-2603135D02*
X-2603135D01*
X-2603135D02*
X-2603134D01*
X-2603141Y-1834216D02*
X-2603140D01*
X-2603140Y-1834216D02*
Y-1834216D01*
X-2603140Y-1834216D02*
X-2603140Y-1834216D01*
X-2603140Y-1834216D02*
X-2603140Y-1834217D01*
Y-1834217D02*
Y-1834217D01*
X-2603140Y-1834217D02*
X-2603140Y-1834217D01*
X-2603141Y-1834217D02*
X-2603140D01*
X-2603141Y-1834217D02*
X-2603141Y-1834217D01*
X-2603141Y-1834217D02*
Y-1834217D01*
X-2603141Y-1834216D01*
X-2603141Y-1834216D02*
X-2603141Y-1834216D01*
X-2603141Y-1834216D02*
Y-1834216D01*
X-2603141Y-1834216D01*
X-2603140D01*
X-2603140Y-1834216D01*
X-2603139Y-1834216D02*
X-2603138D01*
X-2603139Y-1834217D02*
X-2603139Y-1834216D01*
X-2603139Y-1834217D02*
Y-1834217D01*
Y-1834217D02*
X-2603139Y-1834217D01*
X-2603138D01*
X-2603138Y-1834217D01*
Y-1834216D01*
X-2603139Y-1834216D02*
X-2603138Y-1834216D01*
X-2603139Y-1834216D02*
X-2603139Y-1834216D01*
X-2603137Y-1834217D02*
X-2603136D01*
X-2603137Y-1834216D02*
X-2603137Y-1834217D01*
X-2603137Y-1834216D02*
Y-1834216D01*
X-2603137Y-1834216D01*
X-2603136D01*
Y-1834217D02*
Y-1834216D01*
X-2603135Y-1834217D02*
Y-1834216D01*
X-2603135D02*
X-2603135D01*
X-2603135D02*
X-2603134D01*
X-2603077Y-1834229D02*
X-2603076D01*
X-2603076Y-1834228D01*
Y-1834228D01*
X-2603076Y-1834228D02*
X-2603076Y-1834228D01*
X-2603077Y-1834228D02*
X-2603076D01*
X-2603077Y-1834228D02*
X-2603077Y-1834228D01*
X-2603077Y-1834229D02*
Y-1834228D01*
Y-1834229D02*
X-2603077Y-1834230D01*
X-2603076D01*
X-2603076Y-1834229D01*
X-2603075Y-1834229D02*
X-2603074D01*
X-2603075Y-1834229D02*
X-2603075Y-1834229D01*
X-2603075Y-1834229D02*
Y-1834229D01*
Y-1834229D02*
X-2603075Y-1834230D01*
X-2603074D01*
X-2603074Y-1834229D01*
Y-1834229D01*
X-2603074Y-1834228D02*
X-2603074Y-1834229D01*
X-2603075Y-1834228D02*
X-2603074Y-1834228D01*
X-2603073Y-1834229D02*
X-2603072D01*
X-2603073Y-1834229D02*
X-2603073Y-1834229D01*
X-2603073Y-1834229D02*
Y-1834228D01*
X-2603073Y-1834228D01*
X-2603072D01*
Y-1834230D02*
Y-1834228D01*
X-2603070Y-1834230D02*
Y-1834228D01*
X-2603071D02*
X-2603070D01*
X-2603071D02*
X-2603070D01*
X-2603050Y-1834171D02*
X-2603049Y-1834171D01*
X-2603050Y-1834171D02*
X-2603050D01*
X-2603051Y-1834171D02*
X-2603050Y-1834171D01*
X-2603051Y-1834171D02*
Y-1834170D01*
X-2603050Y-1834170D01*
X-2603050D01*
X-2603050D02*
X-2603050D01*
X-2603051Y-1834170D02*
X-2603050Y-1834170D01*
X-2603051Y-1834170D02*
Y-1834169D01*
X-2603050Y-1834169D01*
X-2603050D01*
X-2603049Y-1834169D01*
X-2603048Y-1834171D02*
Y-1834171D01*
X-2603049Y-1834169D02*
X-2603048Y-1834171D01*
X-2603049Y-1834169D02*
Y-1834169D01*
X-2603048D01*
X-2603046Y-1834170D02*
X-2603045D01*
X-2603047Y-1834170D02*
X-2603046Y-1834170D01*
X-2603047Y-1834170D02*
Y-1834169D01*
X-2603046Y-1834169D01*
X-2603045D01*
Y-1834171D02*
Y-1834169D01*
X-2603044Y-1834171D02*
Y-1834169D01*
X-2603045D02*
X-2603044D01*
X-2603045D02*
X-2603044D01*
X-2603049Y-1834243D02*
Y-1834243D01*
X-2603050Y-1834241D02*
X-2603049Y-1834243D01*
X-2603050Y-1834241D02*
Y-1834241D01*
X-2603049D01*
X-2603047Y-1834243D02*
Y-1834243D01*
X-2603048Y-1834241D02*
X-2603047Y-1834243D01*
X-2603048Y-1834241D02*
Y-1834241D01*
X-2603047D01*
X-2603046Y-1834242D02*
X-2603045D01*
X-2603046Y-1834242D02*
X-2603046Y-1834242D01*
X-2603046Y-1834242D02*
Y-1834241D01*
X-2603046Y-1834241D01*
X-2603045D01*
Y-1834243D02*
Y-1834241D01*
X-2603043Y-1834243D02*
Y-1834241D01*
X-2603044D02*
X-2603043D01*
X-2603044D02*
X-2603043D01*
X-2603083Y-1833923D02*
X-2603082D01*
X-2603084Y-1833923D02*
X-2603083Y-1833923D01*
X-2603084Y-1833923D02*
Y-1833922D01*
X-2603083Y-1833922D01*
X-2603082D01*
X-2603082Y-1833922D01*
Y-1833923D02*
Y-1833922D01*
X-2603082Y-1833923D02*
X-2603082Y-1833923D01*
X-2603083Y-1833925D02*
Y-1833924D01*
X-2603082Y-1833925D02*
X-2603082D01*
X-2603083Y-1833925D02*
X-2603082Y-1833925D01*
X-2603083D02*
X-2603083Y-1833925D01*
X-2603083Y-1833925D02*
X-2603083D01*
X-2603084Y-1833925D02*
X-2603083Y-1833925D01*
X-2603084Y-1833925D02*
Y-1833924D01*
X-2603083Y-1833924D01*
X-2603083D01*
X-2603083Y-1833924D01*
X-2603082Y-1833924D01*
X-2603082D01*
X-2603082Y-1833924D01*
Y-1833925D02*
Y-1833924D01*
X-2603082Y-1833925D02*
X-2603082Y-1833925D01*
X-2603083Y-1833927D02*
Y-1833926D01*
X-2603083Y-1833926D01*
X-2603082D01*
X-2603082Y-1833926D01*
Y-1833927D02*
Y-1833926D01*
X-2603084Y-1833927D02*
X-2603082D01*
X-2603084Y-1833929D02*
X-2603082D01*
Y-1833928D01*
Y-1833929D02*
Y-1833928D01*
X-2603116Y-1833941D02*
X-2603115Y-1833941D01*
X-2603117D02*
X-2603115D01*
X-2603117D02*
Y-1833941D01*
Y-1833941D02*
Y-1833941D01*
X-2603116Y-1833943D02*
Y-1833942D01*
X-2603116Y-1833944D02*
X-2603116D01*
X-2603116Y-1833943D02*
X-2603116Y-1833944D01*
X-2603117D02*
X-2603116Y-1833943D01*
X-2603117Y-1833944D02*
X-2603117D01*
X-2603117Y-1833943D02*
X-2603117Y-1833944D01*
X-2603117Y-1833943D02*
Y-1833942D01*
X-2603117Y-1833942D01*
X-2603117D01*
X-2603116Y-1833942D01*
X-2603116Y-1833942D01*
X-2603116D01*
X-2603115Y-1833942D01*
Y-1833943D02*
Y-1833942D01*
X-2603116Y-1833944D02*
X-2603115Y-1833943D01*
X-2603117Y-1833945D02*
Y-1833945D01*
X-2603116Y-1833944D01*
X-2603116D01*
X-2603115Y-1833945D01*
Y-1833945D02*
Y-1833945D01*
X-2603117Y-1833945D02*
X-2603115D01*
X-2603117Y-1833947D02*
X-2603115D01*
Y-1833946D01*
Y-1833948D02*
Y-1833946D01*
X-2603134Y-1833950D02*
X-2603134Y-1833950D01*
Y-1833949D01*
X-2603134Y-1833949D02*
X-2603134Y-1833949D01*
X-2603135Y-1833949D02*
X-2603134D01*
X-2603136Y-1833950D02*
X-2603135Y-1833949D01*
X-2603136Y-1833950D02*
Y-1833949D01*
X-2603135Y-1833952D02*
Y-1833951D01*
X-2603135Y-1833952D02*
X-2603134D01*
X-2603135Y-1833952D02*
X-2603135Y-1833952D01*
X-2603135D02*
X-2603135Y-1833952D01*
X-2603136Y-1833952D02*
X-2603135D01*
X-2603136Y-1833952D02*
X-2603136Y-1833952D01*
X-2603136Y-1833952D02*
Y-1833951D01*
X-2603136Y-1833951D01*
X-2603135D01*
X-2603135Y-1833951D01*
X-2603135Y-1833951D01*
X-2603134D01*
X-2603134Y-1833951D01*
Y-1833952D02*
Y-1833951D01*
X-2603134Y-1833952D02*
X-2603134Y-1833952D01*
X-2603135Y-1833954D02*
Y-1833953D01*
X-2603135Y-1833953D01*
X-2603134D01*
X-2603134Y-1833953D01*
Y-1833954D02*
Y-1833953D01*
X-2603136Y-1833954D02*
X-2603134D01*
X-2603136Y-1833956D02*
X-2603134D01*
Y-1833955D01*
Y-1833956D02*
Y-1833955D01*
X-2603116Y-1833956D02*
X-2603116Y-1833956D01*
X-2603117Y-1833956D02*
X-2603116D01*
X-2603117Y-1833956D02*
X-2603117Y-1833956D01*
X-2603117Y-1833956D02*
Y-1833955D01*
X-2603117Y-1833955D01*
X-2603116D01*
X-2603117D02*
X-2603116D01*
X-2603117Y-1833955D02*
X-2603117Y-1833955D01*
X-2603117Y-1833955D02*
Y-1833954D01*
X-2603117Y-1833954D01*
X-2603116D01*
X-2603116Y-1833954D01*
X-2603115Y-1833955D02*
X-2603114D01*
X-2603114Y-1833955D02*
Y-1833954D01*
X-2603114Y-1833955D02*
X-2603114Y-1833955D01*
X-2603114Y-1833955D02*
X-2603114Y-1833955D01*
Y-1833956D02*
Y-1833955D01*
X-2603114Y-1833956D02*
X-2603114Y-1833956D01*
X-2603115Y-1833956D02*
X-2603114D01*
X-2603115Y-1833956D02*
X-2603115Y-1833956D01*
X-2603115Y-1833956D02*
Y-1833955D01*
X-2603115Y-1833955D01*
X-2603115Y-1833955D02*
X-2603115Y-1833955D01*
X-2603115Y-1833955D02*
Y-1833954D01*
X-2603115Y-1833954D01*
X-2603114D01*
X-2603114Y-1833954D01*
X-2603113Y-1833955D02*
X-2603112D01*
X-2603113Y-1833955D02*
X-2603113Y-1833955D01*
X-2603113Y-1833955D02*
Y-1833954D01*
X-2603113Y-1833954D01*
X-2603112D01*
Y-1833956D02*
Y-1833954D01*
X-2603110Y-1833956D02*
Y-1833954D01*
X-2603111D02*
X-2603110D01*
X-2603111D02*
X-2603110D01*
X-2603137Y-1833966D02*
Y-1833965D01*
Y-1833966D02*
X-2603136Y-1833965D01*
X-2603138D02*
X-2603136D01*
X-2603137Y-1833968D02*
Y-1833967D01*
X-2603136Y-1833968D02*
X-2603136D01*
X-2603137Y-1833968D02*
X-2603136Y-1833968D01*
X-2603137D02*
X-2603137Y-1833968D01*
X-2603137Y-1833968D02*
X-2603137D01*
X-2603138Y-1833968D02*
X-2603137Y-1833968D01*
X-2603138Y-1833968D02*
Y-1833967D01*
X-2603137Y-1833967D01*
X-2603137D01*
X-2603137Y-1833967D01*
X-2603136Y-1833967D01*
X-2603136D01*
X-2603136Y-1833967D01*
Y-1833968D02*
Y-1833967D01*
X-2603136Y-1833968D02*
X-2603136Y-1833968D01*
X-2603137Y-1833970D02*
Y-1833969D01*
X-2603137Y-1833969D01*
X-2603136D01*
X-2603136Y-1833969D01*
Y-1833970D02*
Y-1833969D01*
X-2603138Y-1833970D02*
X-2603136D01*
X-2603138Y-1833971D02*
X-2603136D01*
Y-1833971D01*
Y-1833972D02*
Y-1833971D01*
X-2603134Y-1833918D02*
X-2603134Y-1833918D01*
X-2603134Y-1833918D02*
Y-1833917D01*
X-2603134Y-1833917D01*
X-2603133D01*
X-2603133Y-1833917D01*
Y-1833917D02*
Y-1833917D01*
X-2603133Y-1833918D02*
X-2603133Y-1833917D01*
X-2603133Y-1833918D02*
X-2603132D01*
Y-1833917D01*
X-2603133Y-1833920D02*
Y-1833919D01*
X-2603133Y-1833920D02*
X-2603132D01*
X-2603133Y-1833920D02*
X-2603133Y-1833920D01*
X-2603134D02*
X-2603133Y-1833920D01*
X-2603134Y-1833920D02*
X-2603134D01*
X-2603134Y-1833920D02*
X-2603134Y-1833920D01*
X-2603134Y-1833920D02*
Y-1833919D01*
X-2603134Y-1833919D01*
X-2603134D01*
X-2603133Y-1833919D01*
X-2603133Y-1833919D01*
X-2603132D01*
X-2603132Y-1833919D01*
Y-1833920D02*
Y-1833919D01*
X-2603132Y-1833920D02*
X-2603132Y-1833920D01*
X-2603134Y-1833922D02*
Y-1833921D01*
X-2603133Y-1833921D01*
X-2603132D01*
X-2603132Y-1833921D01*
Y-1833922D02*
Y-1833921D01*
X-2603134Y-1833922D02*
X-2603132D01*
X-2603134Y-1833923D02*
X-2603132D01*
Y-1833923D01*
Y-1833924D02*
Y-1833923D01*
X-2603113Y-1833930D02*
X-2603112D01*
X-2603113Y-1833930D02*
X-2603113Y-1833930D01*
X-2603113Y-1833930D02*
Y-1833930D01*
Y-1833930D02*
X-2603113Y-1833931D01*
X-2603112D01*
X-2603112Y-1833930D01*
Y-1833930D01*
X-2603112Y-1833929D02*
X-2603112Y-1833930D01*
X-2603113Y-1833929D02*
X-2603112Y-1833929D01*
X-2603111Y-1833930D02*
X-2603110D01*
X-2603110Y-1833929D02*
Y-1833929D01*
X-2603110Y-1833930D02*
X-2603110Y-1833929D01*
X-2603110Y-1833930D02*
X-2603110Y-1833930D01*
Y-1833930D02*
Y-1833930D01*
X-2603110Y-1833931D02*
X-2603110Y-1833930D01*
X-2603111Y-1833931D02*
X-2603110D01*
X-2603111Y-1833930D02*
X-2603111Y-1833931D01*
X-2603111Y-1833930D02*
Y-1833930D01*
X-2603111Y-1833930D01*
X-2603111Y-1833929D02*
X-2603111Y-1833930D01*
X-2603111Y-1833929D02*
Y-1833929D01*
X-2603111Y-1833929D01*
X-2603110D01*
X-2603110Y-1833929D01*
X-2603109Y-1833930D02*
X-2603108D01*
X-2603109Y-1833930D02*
X-2603109Y-1833930D01*
X-2603109Y-1833930D02*
Y-1833929D01*
X-2603109Y-1833929D01*
X-2603108D01*
Y-1833931D02*
Y-1833929D01*
X-2603106Y-1833931D02*
Y-1833929D01*
X-2603107D02*
X-2603106D01*
X-2603107D02*
X-2603106D01*
X-2603141Y-1833989D02*
X-2603141D01*
X-2603140Y-1833987D01*
X-2603139D01*
Y-1833989D02*
Y-1833987D01*
X-2603140Y-1833990D02*
Y-1833990D01*
X-2603140Y-1833991D02*
X-2603140D01*
X-2603140Y-1833990D02*
X-2603140Y-1833991D01*
X-2603141D02*
X-2603140Y-1833990D01*
X-2603141Y-1833991D02*
X-2603141D01*
X-2603141Y-1833990D02*
X-2603141Y-1833991D01*
X-2603141Y-1833990D02*
Y-1833990D01*
X-2603141Y-1833990D01*
X-2603141D01*
X-2603140Y-1833990D01*
X-2603140Y-1833990D01*
X-2603140D01*
X-2603139Y-1833990D01*
Y-1833990D02*
Y-1833990D01*
X-2603140Y-1833991D02*
X-2603139Y-1833990D01*
X-2603141Y-1833993D02*
Y-1833992D01*
X-2603140Y-1833991D01*
X-2603140D01*
X-2603139Y-1833992D01*
Y-1833993D02*
Y-1833992D01*
X-2603141Y-1833993D02*
X-2603139D01*
X-2603141Y-1833994D02*
X-2603139D01*
Y-1833994D01*
Y-1833995D02*
Y-1833994D01*
X-2603110Y-1833966D02*
Y-1833966D01*
X-2603110Y-1833967D02*
X-2603109D01*
X-2603110Y-1833966D02*
X-2603110Y-1833967D01*
X-2603110D02*
X-2603110Y-1833966D01*
X-2603111Y-1833967D02*
X-2603110D01*
X-2603111Y-1833966D02*
X-2603111Y-1833967D01*
X-2603111Y-1833966D02*
Y-1833966D01*
X-2603111Y-1833965D01*
X-2603110D01*
X-2603110Y-1833966D01*
X-2603110Y-1833965D01*
X-2603109D01*
X-2603109Y-1833966D01*
Y-1833966D02*
Y-1833966D01*
X-2603109Y-1833967D02*
X-2603109Y-1833966D01*
X-2603110Y-1833968D02*
Y-1833968D01*
X-2603110Y-1833969D02*
X-2603109D01*
X-2603110Y-1833968D02*
X-2603110Y-1833969D01*
X-2603110D02*
X-2603110Y-1833968D01*
X-2603111Y-1833969D02*
X-2603110D01*
X-2603111Y-1833968D02*
X-2603111Y-1833969D01*
X-2603111Y-1833968D02*
Y-1833968D01*
X-2603111Y-1833967D01*
X-2603110D01*
X-2603110Y-1833968D01*
X-2603110Y-1833967D01*
X-2603109D01*
X-2603109Y-1833968D01*
Y-1833968D02*
Y-1833968D01*
X-2603109Y-1833969D02*
X-2603109Y-1833968D01*
X-2603110Y-1833971D02*
Y-1833970D01*
X-2603110Y-1833969D01*
X-2603109D01*
X-2603109Y-1833970D01*
Y-1833971D02*
Y-1833970D01*
X-2603111Y-1833971D02*
X-2603109D01*
X-2603111Y-1833972D02*
X-2603109D01*
Y-1833971D01*
Y-1833973D02*
Y-1833971D01*
X-2603106Y-1833979D02*
Y-1833978D01*
Y-1833979D02*
X-2603106Y-1833979D01*
X-2603105D01*
X-2603105Y-1833979D01*
Y-1833978D01*
X-2603105Y-1833978D02*
X-2603105Y-1833978D01*
X-2603106Y-1833978D02*
X-2603105D01*
X-2603107Y-1833978D02*
X-2603106Y-1833978D01*
X-2603107Y-1833979D02*
Y-1833978D01*
Y-1833979D02*
X-2603106Y-1833979D01*
X-2603106Y-1833981D02*
Y-1833981D01*
X-2603106Y-1833982D02*
X-2603105D01*
X-2603106Y-1833981D02*
X-2603106Y-1833982D01*
X-2603106D02*
X-2603106Y-1833981D01*
X-2603106Y-1833982D02*
X-2603106D01*
X-2603107Y-1833981D02*
X-2603106Y-1833982D01*
X-2603107Y-1833981D02*
Y-1833981D01*
X-2603106Y-1833980D01*
X-2603106D01*
X-2603106Y-1833981D01*
X-2603106Y-1833980D01*
X-2603105D01*
X-2603105Y-1833981D01*
Y-1833981D02*
Y-1833981D01*
X-2603105Y-1833982D02*
X-2603105Y-1833981D01*
X-2603106Y-1833983D02*
Y-1833982D01*
X-2603106Y-1833982D01*
X-2603105D01*
X-2603105Y-1833982D01*
Y-1833983D02*
Y-1833982D01*
X-2603107Y-1833983D02*
X-2603105D01*
X-2603107Y-1833985D02*
X-2603105D01*
Y-1833984D01*
Y-1833986D02*
Y-1833984D01*
X-2603097Y-1833981D02*
Y-1833980D01*
X-2603097Y-1833981D02*
X-2603097Y-1833981D01*
X-2603098Y-1833981D02*
X-2603097D01*
X-2603098Y-1833981D02*
X-2603098Y-1833981D01*
X-2603098Y-1833981D02*
Y-1833980D01*
X-2603098Y-1833979D01*
X-2603097D01*
X-2603097Y-1833980D01*
X-2603096Y-1833980D02*
X-2603095D01*
X-2603095Y-1833980D01*
Y-1833980D01*
X-2603095Y-1833979D02*
X-2603095Y-1833980D01*
X-2603096Y-1833979D02*
X-2603095D01*
X-2603096Y-1833980D02*
X-2603096Y-1833979D01*
X-2603096Y-1833981D02*
Y-1833980D01*
Y-1833981D02*
X-2603096Y-1833981D01*
X-2603095D01*
X-2603095Y-1833981D01*
X-2603094Y-1833981D02*
X-2603093D01*
X-2603094Y-1833980D02*
X-2603094Y-1833981D01*
X-2603094Y-1833980D02*
Y-1833980D01*
X-2603094Y-1833979D01*
X-2603093D01*
Y-1833981D02*
Y-1833979D01*
X-2603091Y-1833981D02*
Y-1833979D01*
X-2603092D02*
X-2603091D01*
X-2603092D02*
X-2603091D01*
X-2603080Y-1833978D02*
X-2603080Y-1833978D01*
X-2603082D02*
X-2603080D01*
X-2603082D02*
Y-1833977D01*
Y-1833978D02*
Y-1833977D01*
X-2603081Y-1833980D02*
Y-1833979D01*
Y-1833980D02*
X-2603081Y-1833980D01*
X-2603080D01*
X-2603080Y-1833980D01*
Y-1833979D01*
X-2603080Y-1833979D02*
X-2603080Y-1833979D01*
X-2603082Y-1833979D02*
X-2603080D01*
X-2603082Y-1833979D02*
X-2603082Y-1833979D01*
X-2603082Y-1833980D02*
Y-1833979D01*
Y-1833980D02*
X-2603082Y-1833980D01*
X-2603081Y-1833982D02*
Y-1833981D01*
X-2603081Y-1833981D01*
X-2603080D01*
X-2603080Y-1833981D01*
Y-1833982D02*
Y-1833981D01*
X-2603082Y-1833982D02*
X-2603080D01*
X-2603082Y-1833983D02*
X-2603080D01*
Y-1833983D01*
Y-1833984D02*
Y-1833983D01*
X-2603081Y-1833938D02*
X-2603081Y-1833938D01*
X-2603081Y-1833938D02*
Y-1833937D01*
X-2603081Y-1833937D01*
X-2603080D01*
X-2603080Y-1833937D01*
Y-1833937D02*
Y-1833937D01*
Y-1833937D02*
Y-1833937D01*
X-2603080Y-1833937D01*
X-2603079D01*
X-2603079Y-1833937D01*
Y-1833938D02*
Y-1833937D01*
X-2603079Y-1833938D02*
X-2603079Y-1833938D01*
X-2603080Y-1833940D02*
Y-1833939D01*
Y-1833940D02*
X-2603080Y-1833940D01*
X-2603079D01*
X-2603079Y-1833940D01*
Y-1833939D01*
X-2603079Y-1833939D02*
X-2603079Y-1833939D01*
X-2603081Y-1833939D02*
X-2603079D01*
X-2603081Y-1833939D02*
X-2603081Y-1833939D01*
X-2603081Y-1833940D02*
Y-1833939D01*
Y-1833940D02*
X-2603081Y-1833940D01*
X-2603080Y-1833942D02*
Y-1833941D01*
X-2603080Y-1833941D01*
X-2603079D01*
X-2603079Y-1833941D01*
Y-1833942D02*
Y-1833941D01*
X-2603081Y-1833942D02*
X-2603079D01*
X-2603081Y-1833943D02*
X-2603079D01*
Y-1833943D01*
Y-1833944D02*
Y-1833943D01*
X-2603060Y-1833976D02*
Y-1833975D01*
Y-1833976D02*
X-2603059Y-1833975D01*
X-2603061D02*
X-2603059D01*
X-2603060Y-1833978D02*
Y-1833977D01*
Y-1833978D02*
X-2603060Y-1833978D01*
X-2603059D01*
X-2603059Y-1833978D01*
Y-1833977D01*
X-2603059Y-1833977D02*
X-2603059Y-1833977D01*
X-2603061Y-1833977D02*
X-2603059D01*
X-2603061Y-1833977D02*
X-2603061Y-1833977D01*
X-2603061Y-1833978D02*
Y-1833977D01*
Y-1833978D02*
X-2603061Y-1833978D01*
X-2603060Y-1833980D02*
Y-1833979D01*
X-2603060Y-1833979D01*
X-2603059D01*
X-2603059Y-1833979D01*
Y-1833980D02*
Y-1833979D01*
X-2603061Y-1833980D02*
X-2603059D01*
X-2603061Y-1833981D02*
X-2603059D01*
Y-1833981D01*
Y-1833982D02*
Y-1833981D01*
X-2603063Y-1833948D02*
Y-1833946D01*
X-2603063Y-1833946D02*
X-2603063Y-1833946D01*
X-2603064Y-1833946D02*
X-2603063D01*
X-2603064Y-1833946D02*
X-2603064Y-1833946D01*
X-2603064Y-1833947D02*
Y-1833946D01*
Y-1833947D02*
X-2603064Y-1833948D01*
X-2603063D01*
X-2603062Y-1833947D01*
X-2603062Y-1833946D01*
X-2603063Y-1833949D02*
Y-1833948D01*
Y-1833949D02*
X-2603062Y-1833949D01*
X-2603062D01*
X-2603062Y-1833949D01*
Y-1833949D01*
X-2603062Y-1833948D02*
X-2603062Y-1833949D01*
X-2603064Y-1833948D02*
X-2603062D01*
X-2603064Y-1833949D02*
X-2603064Y-1833948D01*
X-2603064Y-1833949D02*
Y-1833949D01*
Y-1833949D02*
X-2603064Y-1833949D01*
X-2603063Y-1833952D02*
Y-1833950D01*
X-2603063Y-1833950D01*
X-2603062D01*
X-2603062Y-1833950D01*
Y-1833952D02*
Y-1833950D01*
X-2603064Y-1833952D02*
X-2603062D01*
X-2603064Y-1833953D02*
X-2603062D01*
Y-1833952D01*
Y-1833953D02*
Y-1833952D01*
X-2603038Y-1833969D02*
X-2603037D01*
X-2603036Y-1833968D01*
X-2603036D01*
Y-1833969D02*
Y-1833968D01*
X-2603037Y-1833971D02*
Y-1833970D01*
Y-1833971D02*
X-2603036Y-1833971D01*
X-2603036D01*
X-2603036Y-1833971D01*
Y-1833970D01*
X-2603036Y-1833970D02*
X-2603036Y-1833970D01*
X-2603037Y-1833970D02*
X-2603036D01*
X-2603038Y-1833970D02*
X-2603037Y-1833970D01*
X-2603038Y-1833971D02*
Y-1833970D01*
Y-1833971D02*
X-2603037Y-1833971D01*
X-2603037Y-1833973D02*
Y-1833972D01*
X-2603037Y-1833972D01*
X-2603036D01*
X-2603036Y-1833972D01*
Y-1833973D02*
Y-1833972D01*
X-2603038Y-1833973D02*
X-2603036D01*
X-2603038Y-1833975D02*
X-2603036D01*
Y-1833974D01*
Y-1833975D02*
Y-1833974D01*
X-2603025Y-1833946D02*
Y-1833945D01*
X-2603025Y-1833946D02*
X-2603024D01*
X-2603025Y-1833946D02*
X-2603025Y-1833946D01*
X-2603025D02*
X-2603025Y-1833946D01*
X-2603026Y-1833946D02*
X-2603025D01*
X-2603026Y-1833946D02*
X-2603026Y-1833946D01*
X-2603026Y-1833946D02*
Y-1833945D01*
X-2603026Y-1833945D01*
X-2603025D01*
X-2603025Y-1833945D01*
X-2603025Y-1833945D01*
X-2603024D01*
X-2603024Y-1833945D01*
Y-1833946D02*
Y-1833945D01*
X-2603024Y-1833946D02*
X-2603024Y-1833946D01*
X-2603025Y-1833948D02*
Y-1833947D01*
Y-1833948D02*
X-2603025Y-1833948D01*
X-2603024D01*
X-2603024Y-1833948D01*
Y-1833947D01*
X-2603024Y-1833947D02*
X-2603024Y-1833947D01*
X-2603026Y-1833947D02*
X-2603024D01*
X-2603026Y-1833947D02*
X-2603026Y-1833947D01*
X-2603026Y-1833948D02*
Y-1833947D01*
Y-1833948D02*
X-2603026Y-1833948D01*
X-2603025Y-1833950D02*
Y-1833949D01*
X-2603025Y-1833949D01*
X-2603024D01*
X-2603024Y-1833949D01*
Y-1833950D02*
Y-1833949D01*
X-2603026Y-1833950D02*
X-2603024D01*
X-2603026Y-1833952D02*
X-2603024D01*
Y-1833951D01*
Y-1833952D02*
Y-1833951D01*
X-2603025Y-1833956D02*
Y-1833955D01*
Y-1833956D02*
X-2603025Y-1833957D01*
X-2603024D01*
X-2603024Y-1833956D01*
Y-1833956D01*
X-2603024Y-1833955D02*
X-2603024Y-1833956D01*
X-2603026Y-1833955D02*
X-2603024D01*
X-2603026Y-1833956D02*
X-2603026Y-1833955D01*
X-2603026Y-1833956D02*
Y-1833956D01*
Y-1833956D02*
X-2603026Y-1833957D01*
X-2603025Y-1833958D02*
Y-1833957D01*
Y-1833958D02*
X-2603025Y-1833959D01*
X-2603024D01*
X-2603024Y-1833958D01*
Y-1833958D01*
X-2603024Y-1833957D02*
X-2603024Y-1833958D01*
X-2603026Y-1833957D02*
X-2603024D01*
X-2603026Y-1833958D02*
X-2603026Y-1833957D01*
X-2603026Y-1833958D02*
Y-1833958D01*
Y-1833958D02*
X-2603026Y-1833959D01*
X-2603025Y-1833961D02*
Y-1833960D01*
X-2603025Y-1833959D01*
X-2603024D01*
X-2603024Y-1833960D01*
Y-1833961D02*
Y-1833960D01*
X-2603026Y-1833961D02*
X-2603024D01*
X-2603026Y-1833962D02*
X-2603024D01*
Y-1833961D01*
Y-1833963D02*
Y-1833961D01*
X-2603049Y-1833924D02*
X-2603048Y-1833923D01*
Y-1833923D01*
X-2603049Y-1833922D02*
X-2603048Y-1833923D01*
X-2603049Y-1833922D02*
X-2603049D01*
X-2603050Y-1833924D02*
X-2603049Y-1833922D01*
X-2603050Y-1833924D02*
Y-1833922D01*
X-2603050Y-1833925D02*
X-2603049D01*
X-2603050Y-1833925D02*
X-2603050Y-1833925D01*
X-2603050Y-1833925D02*
Y-1833924D01*
X-2603050Y-1833924D01*
X-2603049D01*
X-2603048Y-1833924D01*
Y-1833925D02*
Y-1833924D01*
X-2603049Y-1833925D02*
X-2603048Y-1833925D01*
X-2603049Y-1833927D02*
X-2603048Y-1833927D01*
X-2603050D02*
X-2603048D01*
X-2603050D02*
Y-1833927D01*
Y-1833927D02*
Y-1833927D01*
X-2603050Y-1833929D02*
Y-1833928D01*
X-2603049Y-1833928D01*
X-2603049D01*
X-2603048Y-1833928D01*
Y-1833929D02*
Y-1833928D01*
X-2603050Y-1833929D02*
X-2603048D01*
X-2603050Y-1833931D02*
X-2603048D01*
Y-1833930D01*
Y-1833931D02*
Y-1833930D01*
X-2603024Y-1833913D02*
X-2603023Y-1833912D01*
X-2603025D02*
X-2603023D01*
X-2603025D02*
Y-1833912D01*
Y-1833913D02*
Y-1833912D01*
X-2603025Y-1833915D02*
X-2603024D01*
X-2603025Y-1833915D02*
X-2603025Y-1833915D01*
X-2603025Y-1833915D02*
Y-1833914D01*
X-2603025Y-1833913D01*
X-2603024D01*
X-2603023Y-1833914D01*
Y-1833915D02*
Y-1833914D01*
X-2603024Y-1833915D02*
X-2603023Y-1833915D01*
X-2603024Y-1833916D02*
X-2603023Y-1833916D01*
X-2603025D02*
X-2603023D01*
X-2603025D02*
Y-1833916D01*
Y-1833916D02*
Y-1833916D01*
X-2603024Y-1833919D02*
Y-1833917D01*
X-2603024Y-1833917D01*
X-2603024D01*
X-2603023Y-1833917D01*
Y-1833919D02*
Y-1833917D01*
X-2603025Y-1833919D02*
X-2603023D01*
X-2603025Y-1833920D02*
X-2603023D01*
Y-1833919D01*
Y-1833920D02*
Y-1833919D01*
X-2603059Y-1834055D02*
X-2603059Y-1834055D01*
X-2603060Y-1834055D02*
X-2603059D01*
X-2603060Y-1834055D02*
X-2603060Y-1834055D01*
X-2603060Y-1834055D02*
Y-1834054D01*
X-2603060Y-1834054D01*
X-2603060D01*
X-2603060D02*
X-2603060D01*
X-2603060Y-1834053D02*
X-2603060Y-1834054D01*
X-2603060Y-1834053D02*
Y-1834053D01*
X-2603060Y-1834053D01*
X-2603059D01*
X-2603059Y-1834053D01*
X-2603058Y-1834054D02*
X-2603057D01*
X-2603058Y-1834054D02*
X-2603058Y-1834054D01*
X-2603058Y-1834054D02*
Y-1834053D01*
X-2603058Y-1834053D01*
X-2603057D01*
Y-1834055D02*
Y-1834053D01*
X-2603056Y-1834055D02*
Y-1834053D01*
X-2603056D02*
X-2603056D01*
X-2603056D02*
X-2603055D01*
X-2603044Y-1834071D02*
X-2603043D01*
X-2603044Y-1834070D02*
X-2603043Y-1834071D01*
X-2603044Y-1834072D02*
Y-1834070D01*
X-2603042Y-1834071D02*
X-2603041D01*
X-2603042Y-1834071D02*
X-2603042Y-1834071D01*
X-2603042Y-1834071D02*
Y-1834070D01*
X-2603042Y-1834070D01*
X-2603041D01*
Y-1834072D02*
Y-1834070D01*
X-2603039Y-1834072D02*
Y-1834070D01*
X-2603040D02*
X-2603039D01*
X-2603040D02*
X-2603039D01*
X-2603169Y-1834019D02*
X-2603168Y-1834019D01*
X-2603169Y-1834019D02*
X-2603169D01*
X-2603170Y-1834019D02*
X-2603169Y-1834019D01*
X-2603170Y-1834019D02*
Y-1834018D01*
X-2603169Y-1834018D01*
X-2603169D01*
X-2603168Y-1834018D01*
Y-1834017D01*
X-2603170D02*
X-2603168D01*
X-2603167Y-1834018D02*
X-2603166D01*
X-2603168Y-1834018D02*
X-2603167Y-1834018D01*
X-2603168Y-1834018D02*
Y-1834017D01*
X-2603167Y-1834017D01*
X-2603166D01*
Y-1834019D02*
Y-1834017D01*
X-2603165Y-1834019D02*
Y-1834017D01*
X-2603166D02*
X-2603165D01*
X-2603166D02*
X-2603164D01*
X-2603118Y-1834049D02*
X-2603117D01*
X-2603119Y-1834050D02*
X-2603118Y-1834049D01*
X-2603119Y-1834050D02*
Y-1834050D01*
Y-1834050D02*
X-2603118Y-1834051D01*
X-2603118D01*
X-2603117Y-1834050D01*
Y-1834049D01*
X-2603118Y-1834049D02*
X-2603117Y-1834049D01*
X-2603119Y-1834048D02*
X-2603118Y-1834049D01*
X-2603116Y-1834050D02*
X-2603115D01*
X-2603116Y-1834049D02*
X-2603116Y-1834050D01*
X-2603116Y-1834049D02*
Y-1834049D01*
X-2603116Y-1834048D01*
X-2603115D01*
Y-1834051D02*
Y-1834048D01*
X-2603114Y-1834051D02*
Y-1834048D01*
X-2603115D02*
X-2603114D01*
X-2603115D02*
X-2603113D01*
X-2603178Y-1833994D02*
X-2603177D01*
X-2603176Y-1833994D01*
Y-1833993D01*
X-2603177Y-1833993D02*
X-2603176Y-1833993D01*
X-2603177Y-1833993D02*
X-2603177D01*
X-2603178Y-1833993D02*
X-2603177Y-1833993D01*
X-2603178Y-1833995D02*
Y-1833993D01*
Y-1833995D02*
X-2603177Y-1833995D01*
X-2603177D01*
X-2603176Y-1833995D01*
X-2603175Y-1833994D02*
X-2603174D01*
X-2603176Y-1833994D02*
X-2603175Y-1833994D01*
X-2603176Y-1833994D02*
Y-1833993D01*
X-2603175Y-1833993D01*
X-2603174D01*
Y-1833995D02*
Y-1833993D01*
X-2603173Y-1833995D02*
Y-1833993D01*
X-2603174D02*
X-2603173D01*
X-2603174D02*
X-2603172D01*
X-2603188Y-1834029D02*
X-2603186D01*
X-2603188Y-1834029D02*
X-2603188Y-1834029D01*
X-2603188Y-1834029D02*
Y-1834028D01*
X-2603188Y-1834028D01*
X-2603186D01*
X-2603186Y-1834028D01*
Y-1834029D02*
Y-1834028D01*
X-2603186Y-1834029D02*
X-2603186Y-1834029D01*
X-2603186Y-1834031D02*
X-2603186Y-1834030D01*
X-2603188D02*
X-2603186D01*
X-2603188D02*
Y-1834030D01*
Y-1834031D02*
Y-1834030D01*
X-2603187Y-1834033D02*
Y-1834032D01*
X-2603187Y-1834031D01*
X-2603186D01*
X-2603186Y-1834032D01*
Y-1834033D02*
Y-1834032D01*
X-2603188Y-1834033D02*
X-2603186D01*
X-2603188Y-1834034D02*
X-2603186D01*
Y-1834033D01*
Y-1834035D02*
Y-1834033D01*
X-2603181Y-1834054D02*
X-2603180Y-1834054D01*
X-2603182D02*
X-2603180D01*
X-2603182D02*
Y-1834054D01*
Y-1834054D02*
Y-1834054D01*
X-2603181Y-1834056D02*
X-2603180Y-1834056D01*
X-2603182D02*
X-2603180D01*
X-2603182D02*
Y-1834055D01*
Y-1834056D02*
Y-1834055D01*
X-2603181Y-1834058D02*
Y-1834057D01*
X-2603181Y-1834057D01*
X-2603181D01*
X-2603180Y-1834057D01*
Y-1834058D02*
Y-1834057D01*
X-2603182Y-1834058D02*
X-2603180D01*
X-2603182Y-1834059D02*
X-2603180D01*
Y-1834059D01*
Y-1834060D02*
Y-1834059D01*
X-2603223Y-1834220D02*
X-2603223Y-1834220D01*
Y-1834219D01*
X-2603223Y-1834219D02*
X-2603223Y-1834219D01*
X-2603223Y-1834219D02*
X-2603223D01*
X-2603225Y-1834220D02*
X-2603223Y-1834219D01*
X-2603225Y-1834220D02*
Y-1834219D01*
X-2603223Y-1834222D02*
X-2603223Y-1834222D01*
X-2603225D02*
X-2603223D01*
X-2603225D02*
Y-1834221D01*
Y-1834222D02*
Y-1834221D01*
X-2603224Y-1834224D02*
Y-1834223D01*
X-2603224Y-1834223D01*
X-2603223D01*
X-2603223Y-1834223D01*
Y-1834224D02*
Y-1834223D01*
X-2603225Y-1834224D02*
X-2603223D01*
X-2603225Y-1834225D02*
X-2603223D01*
Y-1834225D01*
Y-1834226D02*
Y-1834225D01*
X-2603079Y-1834134D02*
X-2603079Y-1834134D01*
X-2603079Y-1834134D02*
Y-1834134D01*
X-2603079Y-1834133D01*
X-2603078D01*
X-2603078Y-1834134D01*
Y-1834134D02*
Y-1834134D01*
Y-1834134D02*
Y-1834134D01*
X-2603078Y-1834133D01*
X-2603077D01*
X-2603077Y-1834134D01*
Y-1834134D02*
Y-1834134D01*
X-2603077Y-1834134D02*
X-2603077Y-1834134D01*
X-2603077Y-1834136D02*
X-2603077Y-1834136D01*
X-2603079D02*
X-2603077D01*
X-2603079D02*
Y-1834135D01*
Y-1834136D02*
Y-1834135D01*
X-2603078Y-1834138D02*
Y-1834137D01*
X-2603078Y-1834137D01*
X-2603077D01*
X-2603077Y-1834137D01*
Y-1834138D02*
Y-1834137D01*
X-2603079Y-1834138D02*
X-2603077D01*
X-2603079Y-1834139D02*
X-2603077D01*
Y-1834139D01*
Y-1834140D02*
Y-1834139D01*
X-2603193Y-1834197D02*
Y-1834196D01*
Y-1834197D02*
X-2603192Y-1834196D01*
X-2603194D02*
X-2603192D01*
X-2603192Y-1834199D02*
X-2603192Y-1834199D01*
X-2603194D02*
X-2603192D01*
X-2603194D02*
Y-1834199D01*
Y-1834199D02*
Y-1834199D01*
X-2603193Y-1834201D02*
Y-1834200D01*
X-2603193Y-1834200D01*
X-2603192D01*
X-2603192Y-1834200D01*
Y-1834201D02*
Y-1834200D01*
X-2603194Y-1834201D02*
X-2603192D01*
X-2603194Y-1834203D02*
X-2603192D01*
Y-1834202D01*
Y-1834203D02*
Y-1834202D01*
X-2603031Y-1834099D02*
X-2603030D01*
X-2603029Y-1834097D01*
X-2603028D01*
Y-1834099D02*
Y-1834097D01*
X-2603029Y-1834100D02*
X-2603028Y-1834100D01*
X-2603031D02*
X-2603028D01*
X-2603031D02*
Y-1834100D01*
Y-1834100D02*
Y-1834100D01*
X-2603030Y-1834102D02*
Y-1834101D01*
X-2603029Y-1834101D01*
X-2603029D01*
X-2603028Y-1834101D01*
Y-1834102D02*
Y-1834101D01*
X-2603031Y-1834102D02*
X-2603028D01*
X-2603031Y-1834104D02*
X-2603028D01*
Y-1834103D01*
Y-1834104D02*
Y-1834103D01*
X-2603128Y-1833991D02*
Y-1833990D01*
X-2603128Y-1833991D02*
X-2603128D01*
X-2603128Y-1833991D02*
X-2603128Y-1833991D01*
X-2603129D02*
X-2603128Y-1833991D01*
X-2603129Y-1833991D02*
X-2603129D01*
X-2603129Y-1833991D02*
X-2603129Y-1833991D01*
X-2603129Y-1833991D02*
Y-1833990D01*
X-2603129Y-1833990D01*
X-2603129D01*
X-2603128Y-1833990D01*
X-2603128Y-1833990D01*
X-2603128D01*
X-2603127Y-1833990D01*
Y-1833991D02*
Y-1833990D01*
X-2603128Y-1833991D02*
X-2603127Y-1833991D01*
X-2603128Y-1833993D02*
X-2603127Y-1833992D01*
X-2603129D02*
X-2603127D01*
X-2603129D02*
Y-1833992D01*
Y-1833993D02*
Y-1833992D01*
X-2603129Y-1833995D02*
Y-1833994D01*
X-2603128Y-1833993D01*
X-2603128D01*
X-2603127Y-1833994D01*
Y-1833995D02*
Y-1833994D01*
X-2603129Y-1833995D02*
X-2603127D01*
X-2603129Y-1833996D02*
X-2603127D01*
Y-1833995D01*
Y-1833997D02*
Y-1833995D01*
X-2603073Y-1834024D02*
Y-1834023D01*
Y-1834024D02*
X-2603073Y-1834024D01*
X-2603072D01*
X-2603072Y-1834024D01*
Y-1834023D01*
X-2603072Y-1834023D02*
X-2603072Y-1834023D01*
X-2603073Y-1834023D02*
X-2603072D01*
X-2603074Y-1834023D02*
X-2603073Y-1834023D01*
X-2603074Y-1834024D02*
Y-1834023D01*
Y-1834024D02*
X-2603073Y-1834024D01*
X-2603072Y-1834026D02*
X-2603072Y-1834026D01*
X-2603074D02*
X-2603072D01*
X-2603074D02*
Y-1834025D01*
Y-1834026D02*
Y-1834025D01*
X-2603073Y-1834028D02*
Y-1834027D01*
X-2603073Y-1834027D01*
X-2603072D01*
X-2603072Y-1834027D01*
Y-1834028D02*
Y-1834027D01*
X-2603074Y-1834028D02*
X-2603072D01*
X-2603074Y-1834029D02*
X-2603072D01*
Y-1834029D01*
Y-1834030D02*
Y-1834029D01*
X-2603120Y-1834033D02*
X-2603120Y-1834032D01*
X-2603122D02*
X-2603120D01*
X-2603122D02*
Y-1834032D01*
Y-1834033D02*
Y-1834032D01*
X-2603120Y-1834035D02*
X-2603120Y-1834034D01*
Y-1834034D01*
X-2603120Y-1834033D02*
X-2603120Y-1834034D01*
X-2603121Y-1834033D02*
X-2603120D01*
X-2603122Y-1834035D02*
X-2603121Y-1834033D01*
X-2603122Y-1834035D02*
Y-1834033D01*
X-2603121Y-1834037D02*
Y-1834036D01*
X-2603121Y-1834035D01*
X-2603120D01*
X-2603120Y-1834036D01*
Y-1834037D02*
Y-1834036D01*
X-2603122Y-1834037D02*
X-2603120D01*
X-2603122Y-1834038D02*
X-2603120D01*
Y-1834037D01*
Y-1834039D02*
Y-1834037D01*
X-2603093Y-1834023D02*
Y-1834022D01*
X-2603093Y-1834022D02*
X-2603093Y-1834022D01*
X-2603093Y-1834022D02*
X-2603093D01*
X-2603094Y-1834022D02*
X-2603093Y-1834022D01*
X-2603094Y-1834023D02*
Y-1834022D01*
Y-1834023D02*
X-2603093Y-1834023D01*
X-2603093D01*
X-2603092Y-1834022D01*
X-2603092Y-1834022D01*
X-2603092Y-1834025D02*
X-2603092Y-1834024D01*
Y-1834024D01*
X-2603092Y-1834023D02*
X-2603092Y-1834024D01*
X-2603092Y-1834023D02*
X-2603092D01*
X-2603094Y-1834025D02*
X-2603092Y-1834023D01*
X-2603094Y-1834025D02*
Y-1834023D01*
X-2603093Y-1834027D02*
Y-1834026D01*
X-2603093Y-1834026D01*
X-2603092D01*
X-2603092Y-1834026D01*
Y-1834027D02*
Y-1834026D01*
X-2603094Y-1834027D02*
X-2603092D01*
X-2603094Y-1834028D02*
X-2603092D01*
Y-1834027D01*
Y-1834029D02*
Y-1834027D01*
X-2603108Y-1834049D02*
Y-1834048D01*
X-2603108Y-1834049D02*
X-2603107D01*
X-2603108Y-1834049D02*
X-2603108Y-1834049D01*
X-2603108D02*
X-2603108Y-1834049D01*
X-2603109Y-1834049D02*
X-2603108D01*
X-2603109Y-1834049D02*
X-2603109Y-1834049D01*
X-2603109Y-1834049D02*
Y-1834048D01*
X-2603109Y-1834048D01*
X-2603108D01*
X-2603108Y-1834048D01*
X-2603108Y-1834048D01*
X-2603107D01*
X-2603107Y-1834048D01*
Y-1834049D02*
Y-1834048D01*
X-2603107Y-1834049D02*
X-2603107Y-1834049D01*
X-2603107Y-1834052D02*
X-2603107Y-1834051D01*
Y-1834051D01*
X-2603107Y-1834050D02*
X-2603107Y-1834051D01*
X-2603108Y-1834050D02*
X-2603107D01*
X-2603109Y-1834052D02*
X-2603108Y-1834050D01*
X-2603109Y-1834052D02*
Y-1834050D01*
X-2603108Y-1834053D02*
Y-1834052D01*
X-2603108Y-1834052D01*
X-2603107D01*
X-2603107Y-1834052D01*
Y-1834053D02*
Y-1834052D01*
X-2603109Y-1834053D02*
X-2603107D01*
X-2603109Y-1834055D02*
X-2603107D01*
Y-1834054D01*
Y-1834056D02*
Y-1834054D01*
X-2603102Y-1834121D02*
X-2603102Y-1834121D01*
X-2603102Y-1834121D02*
Y-1834120D01*
X-2603102Y-1834120D01*
X-2603101D01*
X-2603101Y-1834120D01*
Y-1834121D02*
Y-1834120D01*
X-2603101Y-1834121D02*
X-2603101Y-1834121D01*
X-2603101Y-1834121D02*
X-2603100D01*
Y-1834120D01*
X-2603102Y-1834123D02*
X-2603102Y-1834123D01*
X-2603102Y-1834123D02*
Y-1834122D01*
X-2603102Y-1834122D01*
X-2603102D01*
X-2603101Y-1834122D01*
Y-1834122D02*
Y-1834122D01*
Y-1834122D02*
Y-1834122D01*
X-2603101Y-1834122D01*
X-2603101D01*
X-2603100Y-1834122D01*
Y-1834123D02*
Y-1834122D01*
X-2603101Y-1834123D02*
X-2603100Y-1834123D01*
X-2603102Y-1834125D02*
Y-1834124D01*
X-2603101Y-1834124D01*
X-2603101D01*
X-2603100Y-1834124D01*
Y-1834125D02*
Y-1834124D01*
X-2603102Y-1834125D02*
X-2603100D01*
X-2603102Y-1834126D02*
X-2603100D01*
Y-1834126D01*
Y-1834127D02*
Y-1834126D01*
X-2603056Y-1834037D02*
Y-1834036D01*
X-2603056Y-1834035D02*
X-2603056Y-1834036D01*
X-2603057Y-1834035D02*
X-2603056D01*
X-2603057Y-1834036D02*
X-2603057Y-1834035D01*
X-2603057Y-1834036D02*
Y-1834036D01*
Y-1834036D02*
X-2603057Y-1834037D01*
X-2603056D01*
X-2603055Y-1834036D01*
X-2603055Y-1834035D01*
X-2603057Y-1834038D02*
X-2603057Y-1834039D01*
X-2603057Y-1834038D02*
Y-1834038D01*
X-2603057Y-1834037D01*
X-2603056D01*
X-2603056Y-1834038D01*
Y-1834038D02*
Y-1834038D01*
Y-1834038D02*
Y-1834038D01*
X-2603056Y-1834037D01*
X-2603055D01*
X-2603055Y-1834038D01*
Y-1834038D02*
Y-1834038D01*
X-2603055Y-1834039D02*
X-2603055Y-1834038D01*
X-2603056Y-1834041D02*
Y-1834040D01*
X-2603056Y-1834039D01*
X-2603055D01*
X-2603055Y-1834040D01*
Y-1834041D02*
Y-1834040D01*
X-2603057Y-1834041D02*
X-2603055D01*
X-2603057Y-1834042D02*
X-2603055D01*
Y-1834041D01*
Y-1834043D02*
Y-1834041D01*
X-2603020Y-1834055D02*
Y-1834054D01*
Y-1834055D02*
X-2603020Y-1834056D01*
X-2603020D01*
X-2603019Y-1834055D01*
Y-1834055D01*
X-2603020Y-1834054D02*
X-2603019Y-1834055D01*
X-2603021Y-1834054D02*
X-2603020D01*
X-2603021Y-1834055D02*
X-2603021Y-1834054D01*
X-2603021Y-1834055D02*
Y-1834055D01*
Y-1834055D02*
X-2603021Y-1834056D01*
X-2603020Y-1834057D02*
Y-1834056D01*
Y-1834057D02*
X-2603019Y-1834056D01*
X-2603021D02*
X-2603019D01*
X-2603021Y-1834060D02*
Y-1834059D01*
X-2603020Y-1834058D01*
X-2603020D01*
X-2603019Y-1834059D01*
Y-1834060D02*
Y-1834059D01*
X-2603021Y-1834060D02*
X-2603019D01*
X-2603021Y-1834061D02*
X-2603019D01*
Y-1834060D01*
Y-1834061D02*
Y-1834060D01*
X-2603116Y-1834067D02*
X-2603116Y-1834066D01*
X-2603118D02*
X-2603116D01*
X-2603118D02*
Y-1834066D01*
Y-1834067D02*
Y-1834066D01*
Y-1834068D02*
X-2603117Y-1834069D01*
X-2603118Y-1834068D02*
Y-1834068D01*
X-2603117Y-1834067D01*
X-2603117D01*
X-2603116Y-1834068D01*
Y-1834068D02*
Y-1834068D01*
X-2603117Y-1834069D02*
X-2603116Y-1834068D01*
X-2603117Y-1834069D02*
X-2603116D01*
Y-1834067D01*
X-2603117Y-1834071D02*
Y-1834070D01*
X-2603117Y-1834069D01*
X-2603116D01*
X-2603116Y-1834070D01*
Y-1834071D02*
Y-1834070D01*
X-2603118Y-1834071D02*
X-2603116D01*
X-2603118Y-1834072D02*
X-2603116D01*
Y-1834071D01*
Y-1834073D02*
Y-1834071D01*
X-2603114Y-1834078D02*
X-2603114Y-1834078D01*
Y-1834077D01*
X-2603114Y-1834077D02*
X-2603114Y-1834077D01*
X-2603115Y-1834077D02*
X-2603114D01*
X-2603116Y-1834078D02*
X-2603115Y-1834077D01*
X-2603116Y-1834078D02*
Y-1834077D01*
Y-1834080D02*
X-2603115Y-1834080D01*
X-2603116Y-1834080D02*
Y-1834079D01*
X-2603115Y-1834079D01*
X-2603115D01*
X-2603115Y-1834079D01*
Y-1834080D02*
Y-1834079D01*
X-2603115Y-1834080D02*
X-2603115Y-1834080D01*
X-2603115Y-1834080D02*
X-2603114D01*
Y-1834079D01*
X-2603115Y-1834082D02*
Y-1834081D01*
X-2603115Y-1834081D01*
X-2603114D01*
X-2603114Y-1834081D01*
Y-1834082D02*
Y-1834081D01*
X-2603116Y-1834082D02*
X-2603114D01*
X-2603116Y-1834084D02*
X-2603114D01*
Y-1834083D01*
Y-1834084D02*
Y-1834083D01*
X-2603048Y-1834098D02*
X-2603048Y-1834098D01*
X-2603048Y-1834098D02*
Y-1834097D01*
X-2603048Y-1834097D01*
X-2603048D01*
X-2603047Y-1834097D01*
Y-1834098D02*
Y-1834097D01*
Y-1834098D02*
Y-1834097D01*
X-2603047Y-1834097D01*
X-2603047D01*
X-2603046Y-1834097D01*
Y-1834098D02*
Y-1834097D01*
X-2603047Y-1834098D02*
X-2603046Y-1834098D01*
X-2603048Y-1834100D02*
X-2603048Y-1834100D01*
X-2603048Y-1834100D02*
Y-1834099D01*
X-2603048Y-1834099D01*
X-2603047D01*
X-2603047Y-1834099D01*
Y-1834100D02*
Y-1834099D01*
X-2603047Y-1834100D02*
X-2603047Y-1834100D01*
X-2603047Y-1834100D02*
X-2603046D01*
Y-1834099D01*
X-2603048Y-1834102D02*
Y-1834101D01*
X-2603047Y-1834101D01*
X-2603047D01*
X-2603046Y-1834101D01*
Y-1834102D02*
Y-1834101D01*
X-2603048Y-1834102D02*
X-2603046D01*
X-2603048Y-1834104D02*
X-2603046D01*
Y-1834103D01*
Y-1834104D02*
Y-1834103D01*
X-2603131Y-1834193D02*
Y-1834192D01*
X-2603131Y-1834192D02*
X-2603131Y-1834192D01*
X-2603131Y-1834192D02*
X-2603131D01*
X-2603132Y-1834192D02*
X-2603131Y-1834192D01*
X-2603132Y-1834193D02*
Y-1834192D01*
Y-1834193D02*
X-2603131Y-1834193D01*
X-2603131D01*
X-2603130Y-1834193D01*
X-2603130Y-1834192D01*
X-2603131Y-1834195D02*
Y-1834194D01*
X-2603131Y-1834194D02*
X-2603131Y-1834194D01*
X-2603131Y-1834194D02*
X-2603131D01*
X-2603132Y-1834194D02*
X-2603131Y-1834194D01*
X-2603132Y-1834195D02*
Y-1834194D01*
Y-1834195D02*
X-2603131Y-1834195D01*
X-2603131D01*
X-2603130Y-1834195D01*
X-2603130Y-1834194D01*
X-2603131Y-1834197D02*
Y-1834196D01*
X-2603131Y-1834196D01*
X-2603130D01*
X-2603130Y-1834196D01*
Y-1834197D02*
Y-1834196D01*
X-2603132Y-1834197D02*
X-2603130D01*
X-2603132Y-1834199D02*
X-2603130D01*
Y-1834198D01*
Y-1834199D02*
Y-1834198D01*
X-2603078Y-1833954D02*
X-2603077Y-1833953D01*
Y-1833953D01*
X-2603078Y-1833953D02*
X-2603077Y-1833953D01*
X-2603078Y-1833953D02*
X-2603078D01*
X-2603079Y-1833954D02*
X-2603078Y-1833953D01*
X-2603079Y-1833954D02*
Y-1833953D01*
X-2603078Y-1833956D02*
Y-1833954D01*
Y-1833956D02*
X-2603078Y-1833956D01*
X-2603078D01*
X-2603077Y-1833956D01*
Y-1833955D01*
X-2603078Y-1833954D02*
X-2603077Y-1833955D01*
X-2603079Y-1833954D02*
X-2603078D01*
X-2603079Y-1833955D02*
X-2603079Y-1833954D01*
X-2603079Y-1833956D02*
Y-1833955D01*
Y-1833956D02*
X-2603079Y-1833956D01*
X-2603079Y-1833958D02*
Y-1833957D01*
X-2603078Y-1833957D01*
X-2603078D01*
X-2603077Y-1833957D01*
Y-1833958D02*
Y-1833957D01*
X-2603079Y-1833958D02*
X-2603077D01*
X-2603079Y-1833959D02*
X-2603077D01*
Y-1833958D01*
Y-1833960D02*
Y-1833958D01*
X-2603018Y-1834129D02*
X-2603018Y-1834129D01*
X-2603018Y-1834129D02*
Y-1834128D01*
X-2603018Y-1834128D01*
X-2603017D01*
X-2603017Y-1834128D01*
Y-1834129D02*
Y-1834128D01*
X-2603017Y-1834129D02*
X-2603017Y-1834129D01*
X-2603017Y-1834129D02*
X-2603016D01*
Y-1834128D01*
X-2603017Y-1834131D02*
Y-1834130D01*
Y-1834131D02*
X-2603017Y-1834131D01*
X-2603016D01*
X-2603016Y-1834131D01*
Y-1834130D01*
X-2603016Y-1834130D02*
X-2603016Y-1834130D01*
X-2603018Y-1834130D02*
X-2603016D01*
X-2603018Y-1834130D02*
X-2603018Y-1834130D01*
X-2603018Y-1834131D02*
Y-1834130D01*
Y-1834131D02*
X-2603018Y-1834131D01*
X-2603017Y-1834133D02*
Y-1834132D01*
X-2603017Y-1834132D01*
X-2603016D01*
X-2603016Y-1834132D01*
Y-1834133D02*
Y-1834132D01*
X-2603018Y-1834133D02*
X-2603016D01*
X-2603018Y-1834135D02*
X-2603016D01*
Y-1834134D01*
Y-1834135D02*
Y-1834134D01*
X-2603150Y-1834129D02*
X-2603149Y-1834129D01*
X-2603150Y-1834129D02*
Y-1834128D01*
X-2603149Y-1834128D01*
X-2603149D01*
X-2603148Y-1834128D01*
Y-1834129D02*
Y-1834128D01*
X-2603149Y-1834129D02*
X-2603148Y-1834129D01*
X-2603149Y-1834129D02*
X-2603148D01*
Y-1834128D01*
X-2603149Y-1834131D02*
X-2603148D01*
X-2603150Y-1834131D02*
X-2603149Y-1834131D01*
X-2603150Y-1834131D02*
Y-1834130D01*
X-2603149Y-1834130D01*
X-2603148D01*
X-2603148Y-1834130D01*
Y-1834131D02*
Y-1834130D01*
X-2603148Y-1834131D02*
X-2603148Y-1834131D01*
X-2603148Y-1834133D02*
X-2603148Y-1834133D01*
X-2603150D02*
X-2603148D01*
X-2603150D02*
Y-1834132D01*
Y-1834133D02*
Y-1834132D01*
X-2603149Y-1834135D02*
Y-1834134D01*
X-2603149Y-1834134D01*
X-2603148D01*
X-2603148Y-1834134D01*
Y-1834135D02*
Y-1834134D01*
X-2603150Y-1834135D02*
X-2603148D01*
X-2603150Y-1834136D02*
X-2603148D01*
Y-1834136D01*
Y-1834137D02*
Y-1834136D01*
X-2603226Y-1834128D02*
Y-1834127D01*
X-2603228Y-1834126D02*
X-2603226Y-1834127D01*
X-2603228Y-1834126D02*
Y-1834126D01*
X-2603226D01*
X-2603224Y-1834127D02*
Y-1834126D01*
X-2603225Y-1834128D02*
X-2603224Y-1834127D01*
X-2603225Y-1834128D02*
X-2603225D01*
X-2603226Y-1834127D02*
X-2603225Y-1834128D01*
X-2603226Y-1834127D02*
Y-1834126D01*
X-2603225Y-1834126D01*
X-2603225D01*
X-2603224Y-1834126D01*
X-2603223Y-1834126D02*
X-2603223Y-1834126D01*
X-2603223Y-1834128D02*
Y-1834126D01*
X-2603223Y-1834128D02*
X-2603223D01*
X-2603223D02*
X-2603223D01*
X-2603222Y-1834127D02*
X-2603221D01*
X-2603222Y-1834127D02*
X-2603222Y-1834127D01*
X-2603222Y-1834127D02*
Y-1834126D01*
X-2603222Y-1834126D01*
X-2603221D01*
Y-1834128D02*
Y-1834126D01*
X-2603219Y-1834128D02*
Y-1834126D01*
X-2603220D02*
X-2603219D01*
X-2603220D02*
X-2603219D01*
D221*
X-2603024Y-1833931D02*
D03*
Y-1833921D02*
D03*
X-2603117Y-1834297D02*
D03*
X-2603127D02*
D03*
X-2603186Y-1834227D02*
D03*
X-2603176D02*
D03*
X-2603151Y-1834250D02*
D03*
Y-1834260D02*
D03*
X-2603162Y-1834173D02*
D03*
X-2603152D02*
D03*
X-2603125Y-1834161D02*
D03*
X-2603135D02*
D03*
X-2603134Y-1834228D02*
D03*
X-2603144D02*
D03*
X-2603143Y-1834207D02*
D03*
X-2603153D02*
D03*
X-2603080Y-1834177D02*
D03*
X-2603090D02*
D03*
X-2603028Y-1834131D02*
D03*
X-2603038D02*
D03*
X-2603032Y-1834213D02*
D03*
X-2603022D02*
D03*
X-2603034Y-1834194D02*
D03*
X-2603044D02*
D03*
X-2603125Y-1834276D02*
D03*
Y-1834286D02*
D03*
X-2603129Y-1834249D02*
D03*
X-2603139D02*
D03*
X-2603037Y-1834237D02*
D03*
X-2603027D02*
D03*
X-2603136Y-1834167D02*
D03*
X-2603146D02*
D03*
X-2603134Y-1834238D02*
D03*
X-2603144D02*
D03*
X-2603134Y-1834216D02*
D03*
X-2603144D02*
D03*
X-2603069Y-1834229D02*
D03*
X-2603079D02*
D03*
X-2603043Y-1834170D02*
D03*
X-2603053D02*
D03*
X-2603042Y-1834242D02*
D03*
X-2603053D02*
D03*
X-2603083Y-1833929D02*
D03*
Y-1833920D02*
D03*
X-2603116Y-1833948D02*
D03*
Y-1833938D02*
D03*
X-2603135Y-1833957D02*
D03*
Y-1833946D02*
D03*
X-2603109Y-1833955D02*
D03*
X-2603119D02*
D03*
X-2603136Y-1833972D02*
D03*
Y-1833962D02*
D03*
X-2603133Y-1833924D02*
D03*
Y-1833914D02*
D03*
X-2603105Y-1833930D02*
D03*
X-2603115D02*
D03*
X-2603140Y-1833995D02*
D03*
Y-1833985D02*
D03*
X-2603110Y-1833973D02*
D03*
Y-1833963D02*
D03*
X-2603106Y-1833986D02*
D03*
Y-1833976D02*
D03*
X-2603090Y-1833980D02*
D03*
X-2603100D02*
D03*
X-2603081Y-1833984D02*
D03*
Y-1833974D02*
D03*
X-2603080Y-1833944D02*
D03*
Y-1833934D02*
D03*
X-2603060Y-1833982D02*
D03*
Y-1833972D02*
D03*
X-2603063Y-1833954D02*
D03*
Y-1833944D02*
D03*
X-2603037Y-1833976D02*
D03*
Y-1833966D02*
D03*
X-2603025Y-1833953D02*
D03*
Y-1833943D02*
D03*
X-2603025Y-1833963D02*
D03*
Y-1833953D02*
D03*
X-2603049Y-1833931D02*
D03*
Y-1833921D02*
D03*
X-2603024Y-1833921D02*
D03*
Y-1833911D02*
D03*
X-2603055Y-1834054D02*
D03*
X-2603065D02*
D03*
X-2603038Y-1834071D02*
D03*
X-2603049D02*
D03*
X-2603164Y-1834018D02*
D03*
X-2603174D02*
D03*
X-2603113Y-1834049D02*
D03*
X-2603123D02*
D03*
X-2603172Y-1833994D02*
D03*
X-2603182D02*
D03*
X-2603187Y-1834035D02*
D03*
Y-1834025D02*
D03*
X-2603181Y-1834060D02*
D03*
Y-1834050D02*
D03*
X-2603223Y-1834226D02*
D03*
Y-1834216D02*
D03*
X-2603078Y-1834141D02*
D03*
Y-1834130D02*
D03*
X-2603193Y-1834203D02*
D03*
Y-1834193D02*
D03*
X-2603029Y-1834105D02*
D03*
Y-1834095D02*
D03*
X-2603128Y-1833997D02*
D03*
Y-1833987D02*
D03*
X-2603073Y-1834030D02*
D03*
Y-1834020D02*
D03*
X-2603121Y-1834039D02*
D03*
Y-1834029D02*
D03*
X-2603093Y-1834029D02*
D03*
Y-1834019D02*
D03*
X-2603108Y-1834056D02*
D03*
Y-1834046D02*
D03*
X-2603101Y-1834127D02*
D03*
Y-1834118D02*
D03*
X-2603056Y-1834043D02*
D03*
Y-1834033D02*
D03*
X-2603020Y-1834062D02*
D03*
Y-1834052D02*
D03*
X-2603117Y-1834073D02*
D03*
Y-1834063D02*
D03*
X-2603115Y-1834085D02*
D03*
Y-1834075D02*
D03*
X-2603047Y-1834105D02*
D03*
Y-1834094D02*
D03*
X-2603131Y-1834200D02*
D03*
Y-1834190D02*
D03*
X-2603078Y-1833960D02*
D03*
Y-1833950D02*
D03*
X-2603017Y-1834136D02*
D03*
Y-1834126D02*
D03*
X-2603149Y-1834137D02*
D03*
Y-1834127D02*
D03*
X-2603218Y-1834127D02*
D03*
X-2603229D02*
D03*
D222*
X-2603024Y-1833926D02*
D03*
X-2603122Y-1834297D02*
D03*
X-2603181Y-1834227D02*
D03*
X-2603151Y-1834255D02*
D03*
X-2603157Y-1834173D02*
D03*
X-2603130Y-1834161D02*
D03*
X-2603139Y-1834228D02*
D03*
X-2603148Y-1834207D02*
D03*
X-2603085Y-1834177D02*
D03*
X-2603033Y-1834131D02*
D03*
X-2603027Y-1834213D02*
D03*
X-2603039Y-1834194D02*
D03*
X-2603125Y-1834281D02*
D03*
X-2603134Y-1834249D02*
D03*
X-2603032Y-1834237D02*
D03*
X-2603141Y-1834167D02*
D03*
X-2603139Y-1834238D02*
D03*
Y-1834216D02*
D03*
X-2603074Y-1834229D02*
D03*
X-2603048Y-1834170D02*
D03*
X-2603048Y-1834242D02*
D03*
X-2603083Y-1833924D02*
D03*
X-2603116Y-1833943D02*
D03*
X-2603135Y-1833952D02*
D03*
X-2603114Y-1833955D02*
D03*
X-2603136Y-1833967D02*
D03*
X-2603133Y-1833919D02*
D03*
X-2603110Y-1833930D02*
D03*
X-2603140Y-1833990D02*
D03*
X-2603110Y-1833968D02*
D03*
X-2603106Y-1833981D02*
D03*
X-2603095Y-1833980D02*
D03*
X-2603081Y-1833979D02*
D03*
X-2603080Y-1833939D02*
D03*
X-2603060Y-1833977D02*
D03*
X-2603063Y-1833949D02*
D03*
X-2603037Y-1833971D02*
D03*
X-2603025Y-1833948D02*
D03*
X-2603025Y-1833958D02*
D03*
X-2603049Y-1833926D02*
D03*
X-2603024Y-1833916D02*
D03*
X-2603060Y-1834054D02*
D03*
X-2603044Y-1834071D02*
D03*
X-2603169Y-1834018D02*
D03*
X-2603118Y-1834049D02*
D03*
X-2603177Y-1833994D02*
D03*
X-2603187Y-1834030D02*
D03*
X-2603181Y-1834055D02*
D03*
X-2603223Y-1834221D02*
D03*
X-2603078Y-1834135D02*
D03*
X-2603193Y-1834198D02*
D03*
X-2603029Y-1834100D02*
D03*
X-2603128Y-1833992D02*
D03*
X-2603073Y-1834025D02*
D03*
X-2603121Y-1834034D02*
D03*
X-2603093Y-1834024D02*
D03*
X-2603108Y-1834051D02*
D03*
X-2603101Y-1834122D02*
D03*
X-2603056Y-1834038D02*
D03*
X-2603020Y-1834057D02*
D03*
X-2603117Y-1834068D02*
D03*
X-2603115Y-1834080D02*
D03*
X-2603047Y-1834100D02*
D03*
X-2603131Y-1834195D02*
D03*
X-2603078Y-1833955D02*
D03*
X-2603017Y-1834131D02*
D03*
X-2603149Y-1834132D02*
D03*
X-2603223Y-1834127D02*
D03*
M02*
