G04 Layer_Color=8388736*
%FSLAX25Y25*%
%MOIN*%
G70*
G01*
G75*
%ADD188C,0.00003*%
%ADD189C,0.00003*%
%ADD190C,0.00004*%
%ADD191C,0.00009*%
%ADD192C,0.00000*%
%ADD193C,0.00000*%
%ADD194C,0.00001*%
%ADD195C,0.00001*%
%ADD196C,0.00010*%
%ADD197C,0.00008*%
%ADD198C,0.00006*%
%ADD199C,0.00005*%
%ADD200C,0.00005*%
%ADD201C,0.00018*%
%ADD202C,0.00002*%
%ADD203C,0.00003*%
%ADD204C,0.00002*%
%ADD205C,0.00002*%
%ADD206C,0.00002*%
%ADD207C,0.00002*%
%ADD208C,0.00001*%
%ADD209C,0.00003*%
%ADD210C,0.00001*%
%ADD211C,0.00001*%
%ADD212C,0.00001*%
%ADD213C,0.00002*%
%ADD214C,0.00001*%
%ADD215C,0.00001*%
%ADD216C,0.00001*%
%ADD217C,0.00003*%
%ADD218C,0.00002*%
%ADD219C,0.00001*%
%ADD220C,0.00002*%
G36*
X-2603223Y-1834219D02*
X-2603229D01*
Y-1834213D01*
X-2603223D01*
Y-1834219D01*
D02*
G37*
G36*
X-2602977Y-1834345D02*
X-2602983D01*
Y-1834339D01*
X-2602977D01*
Y-1834345D01*
D02*
G37*
G36*
X-2603220Y-1834145D02*
X-2603226D01*
Y-1834139D01*
X-2603220D01*
Y-1834145D01*
D02*
G37*
G36*
X-2603198Y-1833961D02*
X-2603204D01*
Y-1833955D01*
X-2603198D01*
Y-1833961D01*
D02*
G37*
G36*
X-2603220Y-1834108D02*
X-2603226D01*
Y-1834102D01*
X-2603220D01*
Y-1834108D01*
D02*
G37*
D188*
X-2602950Y-1834340D02*
G03*
X-2602950Y-1834344I0J-2D01*
G01*
D02*
G03*
X-2602950Y-1834340I0J2D01*
G01*
X-2602955Y-1834325D02*
G03*
X-2602955Y-1834329I0J-2D01*
G01*
D02*
G03*
X-2602955Y-1834325I0J2D01*
G01*
X-2602960Y-1834340D02*
G03*
X-2602960Y-1834344I0J-2D01*
G01*
D02*
G03*
X-2602960Y-1834340I0J2D01*
G01*
X-2602965Y-1834325D02*
G03*
X-2602965Y-1834329I0J-2D01*
G01*
D02*
G03*
X-2602965Y-1834325I0J2D01*
G01*
X-2602970Y-1834340D02*
G03*
X-2602970Y-1834344I0J-2D01*
G01*
D02*
G03*
X-2602970Y-1834340I0J2D01*
G01*
X-2602975Y-1834325D02*
G03*
X-2602975Y-1834329I0J-2D01*
G01*
D02*
G03*
X-2602975Y-1834325I0J2D01*
G01*
D189*
X-2603201Y-1833951D02*
G03*
X-2603201Y-1833948I0J1D01*
G01*
D02*
G03*
X-2603201Y-1833951I0J-1D01*
G01*
X-2603194Y-1833931D02*
G03*
X-2603194Y-1833928I0J1D01*
G01*
D02*
G03*
X-2603194Y-1833931I0J-1D01*
G01*
D190*
X-2603198Y-1833978D02*
G03*
X-2603198Y-1833974I0J2D01*
G01*
D02*
G03*
X-2603198Y-1833978I0J-2D01*
G01*
Y-1833914D02*
G03*
X-2603198Y-1833910I0J2D01*
G01*
D02*
G03*
X-2603198Y-1833914I0J-2D01*
G01*
D191*
X-2603199Y-1834355D02*
G03*
X-2603207Y-1834355I-4J0D01*
G01*
D02*
G03*
X-2603199Y-1834355I4J0D01*
G01*
D192*
X-2603092Y-1834024D02*
G03*
X-2603092Y-1834024I-0J0D01*
G01*
D02*
G03*
X-2603092Y-1834024I0J0D01*
G01*
X-2603093D02*
G03*
X-2603093Y-1834024I-0J0D01*
G01*
D02*
G03*
X-2603093Y-1834024I0J0D01*
G01*
D02*
G03*
X-2603093Y-1834024I-0J0D01*
G01*
D02*
G03*
X-2603093Y-1834024I0J0D01*
G01*
X-2603096Y-1834021D02*
G03*
X-2603096Y-1834021I-0J0D01*
G01*
D02*
G03*
X-2603096Y-1834021I0J0D01*
G01*
X-2603114Y-1834029D02*
G03*
X-2603114Y-1834029I-0J0D01*
G01*
D02*
G03*
X-2603114Y-1834029I0J0D01*
G01*
D193*
X-2603063Y-1834107D02*
G03*
X-2603063Y-1834107I-0J0D01*
G01*
D02*
G03*
X-2603063Y-1834107I0J0D01*
G01*
X-2603112Y-1833953D02*
G03*
X-2603113Y-1833953I-0J0D01*
G01*
D02*
G03*
X-2603112Y-1833953I0J0D01*
G01*
D02*
G03*
X-2603113Y-1833953I-0J0D01*
G01*
D02*
G03*
X-2603112Y-1833953I0J0D01*
G01*
D02*
G03*
X-2603113Y-1833953I-0J0D01*
G01*
D02*
G03*
X-2603112Y-1833953I0J0D01*
G01*
D194*
X-2603080Y-1833979D02*
G03*
X-2603081Y-1833979I-0J0D01*
G01*
D02*
G03*
X-2603080Y-1833979I0J0D01*
G01*
X-2603082Y-1833958D02*
G03*
X-2603083Y-1833958I-0J0D01*
G01*
D02*
G03*
X-2603082Y-1833958I0J0D01*
G01*
X-2603078Y-1833955D02*
G03*
X-2603079Y-1833955I-0J0D01*
G01*
D02*
G03*
X-2603078Y-1833955I0J0D01*
G01*
X-2603198Y-1834092D02*
G03*
X-2603199Y-1834092I-0J0D01*
G01*
D02*
G03*
X-2603198Y-1834092I0J0D01*
G01*
Y-1834098D02*
G03*
X-2603199Y-1834098I-0J0D01*
G01*
D02*
G03*
X-2603198Y-1834098I0J0D01*
G01*
X-2603199Y-1834098D02*
G03*
X-2603199Y-1834098I-0J0D01*
G01*
D02*
G03*
X-2603199Y-1834098I0J0D01*
G01*
X-2603198Y-1834092D02*
G03*
X-2603199Y-1834092I-0J0D01*
G01*
D02*
G03*
X-2603198Y-1834092I0J0D01*
G01*
Y-1834098D02*
G03*
X-2603199Y-1834098I-0J0D01*
G01*
D02*
G03*
X-2603198Y-1834098I0J0D01*
G01*
D195*
X-2603017Y-1834131D02*
G03*
X-2603017Y-1834131I-0J0D01*
G01*
D02*
G03*
X-2603017Y-1834131I0J0D01*
G01*
X-2603101Y-1834108D02*
G03*
X-2603102Y-1834108I-0J0D01*
G01*
D02*
G03*
X-2603101Y-1834108I0J0D01*
G01*
Y-1834122D02*
G03*
X-2603102Y-1834122I-0J0D01*
G01*
D02*
G03*
X-2603101Y-1834122I0J0D01*
G01*
X-2603093Y-1834024D02*
X-2603092D01*
X-2603096Y-1834021D02*
X-2603093Y-1834024D01*
X-2603121Y-1834034D02*
X-2603119D01*
X-2603114Y-1834029D01*
X-2603077Y-1834029D02*
X-2603076D01*
X-2603073Y-1834026D01*
D196*
X-2602916Y-1834306D02*
D03*
X-2603016D02*
D03*
D197*
X-2602878Y-1834260D02*
D03*
Y-1834280D02*
D03*
D198*
X-2603024Y-1833926D02*
D03*
X-2603122Y-1834297D02*
D03*
X-2603181Y-1834227D02*
D03*
X-2603151Y-1834255D02*
D03*
X-2603157Y-1834173D02*
D03*
X-2603130Y-1834161D02*
D03*
X-2603139Y-1834228D02*
D03*
X-2603148Y-1834207D02*
D03*
X-2603085Y-1834177D02*
D03*
X-2603033Y-1834131D02*
D03*
X-2603027Y-1834213D02*
D03*
X-2603039Y-1834194D02*
D03*
X-2603125Y-1834281D02*
D03*
X-2603134Y-1834249D02*
D03*
X-2603032Y-1834237D02*
D03*
X-2603141Y-1834167D02*
D03*
X-2603139Y-1834238D02*
D03*
Y-1834216D02*
D03*
X-2603048Y-1834170D02*
D03*
X-2603048Y-1834242D02*
D03*
X-2603083Y-1833924D02*
D03*
X-2603114Y-1833955D02*
D03*
X-2603133Y-1833919D02*
D03*
X-2603110Y-1833930D02*
D03*
X-2603140Y-1833990D02*
D03*
X-2603110Y-1833968D02*
D03*
X-2603081Y-1833979D02*
D03*
X-2603080Y-1833939D02*
D03*
X-2603060Y-1833977D02*
D03*
X-2603063Y-1833949D02*
D03*
X-2603037Y-1833971D02*
D03*
X-2603025Y-1833948D02*
D03*
X-2603025Y-1833958D02*
D03*
X-2603049Y-1833926D02*
D03*
X-2603024Y-1833916D02*
D03*
X-2603044Y-1834071D02*
D03*
X-2603169Y-1834018D02*
D03*
X-2603177Y-1833994D02*
D03*
X-2603187Y-1834030D02*
D03*
X-2603181Y-1834055D02*
D03*
X-2603223Y-1834221D02*
D03*
X-2603193Y-1834198D02*
D03*
X-2603029Y-1834100D02*
D03*
X-2603128Y-1833992D02*
D03*
X-2603073Y-1834025D02*
D03*
X-2603121Y-1834034D02*
D03*
X-2603108Y-1834051D02*
D03*
X-2603101Y-1834122D02*
D03*
X-2603056Y-1834038D02*
D03*
X-2603020Y-1834057D02*
D03*
X-2603117Y-1834068D02*
D03*
X-2603115Y-1834080D02*
D03*
X-2603047Y-1834100D02*
D03*
X-2603131Y-1834195D02*
D03*
X-2603078Y-1833955D02*
D03*
X-2603017Y-1834131D02*
D03*
X-2603149Y-1834132D02*
D03*
X-2603223Y-1834127D02*
D03*
X-2603194Y-1833954D02*
D03*
Y-1833946D02*
D03*
X-2603201Y-1833942D02*
D03*
X-2603194Y-1833938D02*
D03*
X-2603201Y-1833934D02*
D03*
X-2603175Y-1833962D02*
D03*
Y-1833926D02*
D03*
Y-1833917D02*
D03*
Y-1833971D02*
D03*
D199*
X-2603074Y-1834229D02*
D03*
X-2603116Y-1833943D02*
D03*
X-2603135Y-1833952D02*
D03*
X-2603136Y-1833967D02*
D03*
X-2603106Y-1833981D02*
D03*
X-2603060Y-1834054D02*
D03*
X-2603118Y-1834049D02*
D03*
X-2603078Y-1834135D02*
D03*
X-2603093Y-1834024D02*
D03*
D200*
X-2603095Y-1833980D02*
D03*
D201*
X-2603030Y-1833688D02*
D03*
Y-1834355D02*
D03*
X-2603203Y-1833688D02*
D03*
D202*
X-2603202Y-1834221D02*
D03*
X-2603205Y-1834218D02*
D03*
X-2603207Y-1834090D02*
D03*
X-2603172Y-1834154D02*
D03*
X-2603126Y-1834132D02*
D03*
X-2603095Y-1834084D02*
D03*
X-2603218Y-1834127D02*
D03*
X-2603112Y-1833947D02*
D03*
X-2603015Y-1834072D02*
D03*
X-2603015Y-1834075D02*
D03*
X-2603014Y-1834080D02*
D03*
X-2603014Y-1834085D02*
D03*
X-2603051Y-1834095D02*
D03*
X-2603095Y-1834077D02*
D03*
X-2603060Y-1834117D02*
D03*
X-2603187Y-1834022D02*
D03*
X-2603188Y-1834046D02*
D03*
X-2603207Y-1834026D02*
D03*
X-2603063Y-1834062D02*
D03*
X-2603187Y-1834041D02*
D03*
X-2603093Y-1834029D02*
D03*
X-2603079Y-1834037D02*
D03*
X-2603200Y-1833994D02*
D03*
X-2603096Y-1834064D02*
D03*
X-2603096Y-1833986D02*
D03*
X-2603098Y-1834024D02*
D03*
X-2603101Y-1834057D02*
D03*
X-2603098Y-1833993D02*
D03*
X-2603100Y-1833933D02*
D03*
X-2603192Y-1833985D02*
D03*
X-2603139Y-1834292D02*
D03*
X-2603182Y-1834023D02*
D03*
X-2603200Y-1834021D02*
D03*
X-2603207Y-1834021D02*
D03*
X-2603096Y-1834081D02*
D03*
X-2603054Y-1834073D02*
D03*
X-2603059Y-1834061D02*
D03*
X-2603098Y-1834061D02*
D03*
X-2603062Y-1834072D02*
D03*
Y-1834075D02*
D03*
X-2603119Y-1834057D02*
D03*
Y-1834053D02*
D03*
X-2603216Y-1834086D02*
D03*
Y-1834097D02*
D03*
X-2603196Y-1834204D02*
D03*
X-2603103Y-1834061D02*
D03*
X-2603010Y-1834121D02*
D03*
X-2603114Y-1834029D02*
D03*
X-2603077Y-1834029D02*
D03*
X-2603096Y-1834021D02*
D03*
X-2603101Y-1834020D02*
D03*
X-2603103Y-1834020D02*
D03*
X-2603087Y-1834139D02*
D03*
X-2603106Y-1834132D02*
D03*
X-2603097Y-1834086D02*
D03*
X-2603095Y-1834089D02*
D03*
X-2603089Y-1834090D02*
D03*
X-2603095Y-1834094D02*
D03*
X-2603119Y-1834086D02*
D03*
X-2603113Y-1834110D02*
D03*
X-2603032Y-1834109D02*
D03*
X-2603051Y-1834089D02*
D03*
X-2603199Y-1834098D02*
D03*
X-2603199Y-1834106D02*
D03*
X-2603212Y-1834078D02*
D03*
X-2603216Y-1834086D02*
D03*
Y-1834097D02*
D03*
D03*
X-2603216Y-1834097D02*
D03*
X-2603033Y-1833913D02*
D03*
Y-1833916D02*
D03*
X-2603023Y-1833903D02*
D03*
X-2603033Y-1833913D02*
D03*
X-2603023Y-1833895D02*
D03*
Y-1833903D02*
D03*
D203*
X-2603214Y-1834006D02*
D03*
X-2603205Y-1833994D02*
D03*
X-2603215Y-1834175D02*
D03*
X-2603206Y-1834182D02*
D03*
X-2603200Y-1834239D02*
D03*
D204*
X-2603092Y-1834058D02*
D03*
X-2603077Y-1834153D02*
D03*
X-2603182Y-1834250D02*
D03*
X-2603063Y-1834106D02*
D03*
X-2603140Y-1833957D02*
D03*
X-2603141Y-1833961D02*
D03*
X-2603033Y-1833916D02*
D03*
X-2603023Y-1834012D02*
D03*
X-2603062Y-1834131D02*
D03*
X-2603044Y-1834170D02*
D03*
X-2603033Y-1834248D02*
D03*
X-2603085Y-1834188D02*
D03*
X-2603105Y-1834213D02*
D03*
Y-1834204D02*
D03*
X-2603120Y-1834186D02*
D03*
X-2603069Y-1834266D02*
D03*
X-2603056Y-1834275D02*
D03*
X-2603068Y-1834281D02*
D03*
X-2603069Y-1834277D02*
D03*
X-2603086Y-1834166D02*
D03*
X-2603117Y-1834297D02*
D03*
X-2603134Y-1833994D02*
D03*
X-2603136Y-1833976D02*
D03*
X-2603124Y-1834012D02*
D03*
X-2603108Y-1834036D02*
D03*
X-2603116Y-1834138D02*
D03*
X-2603046Y-1834118D02*
D03*
X-2603154Y-1834126D02*
D03*
X-2603132Y-1834123D02*
D03*
X-2603189Y-1834051D02*
D03*
X-2603081Y-1834022D02*
D03*
X-2603230Y-1834024D02*
D03*
X-2603056Y-1834022D02*
D03*
X-2603029Y-1834080D02*
D03*
X-2603070Y-1833947D02*
D03*
X-2603070Y-1833937D02*
D03*
X-2603070Y-1833952D02*
D03*
X-2603220Y-1834046D02*
D03*
X-2603151Y-1833973D02*
D03*
X-2603045Y-1834147D02*
D03*
X-2603164Y-1834125D02*
D03*
X-2603138Y-1834103D02*
D03*
X-2603039Y-1834015D02*
D03*
X-2603118Y-1834076D02*
D03*
X-2603172Y-1833926D02*
D03*
X-2603085Y-1833911D02*
D03*
X-2603072Y-1833923D02*
D03*
X-2603120Y-1833996D02*
D03*
X-2603045Y-1833993D02*
D03*
X-2603072Y-1833961D02*
D03*
X-2603173Y-1834069D02*
D03*
X-2603149Y-1834077D02*
D03*
X-2603022Y-1833974D02*
D03*
X-2603027Y-1833980D02*
D03*
X-2603115Y-1834004D02*
D03*
X-2603139Y-1834038D02*
D03*
X-2603169Y-1833990D02*
D03*
X-2603066Y-1833911D02*
D03*
X-2603157Y-1834008D02*
D03*
X-2603171Y-1833940D02*
D03*
X-2603037Y-1833986D02*
D03*
X-2603112Y-1833985D02*
D03*
X-2603032Y-1834007D02*
D03*
X-2603026Y-1833987D02*
D03*
X-2603027Y-1833970D02*
D03*
X-2603033Y-1834064D02*
D03*
X-2603154Y-1834114D02*
D03*
X-2603019Y-1833961D02*
D03*
X-2603065Y-1833927D02*
D03*
X-2603018Y-1833986D02*
D03*
X-2603169Y-1834056D02*
D03*
X-2603169Y-1833962D02*
D03*
X-2603095Y-1833908D02*
D03*
X-2603114Y-1833991D02*
D03*
X-2603057Y-1833945D02*
D03*
X-2603167Y-1834140D02*
D03*
X-2603060Y-1834267D02*
D03*
X-2603014Y-1834162D02*
D03*
X-2603005Y-1834181D02*
D03*
X-2603140Y-1833947D02*
D03*
X-2603089Y-1833991D02*
D03*
X-2603081Y-1833998D02*
D03*
X-2603162Y-1834044D02*
D03*
X-2603122Y-1833985D02*
D03*
X-2603036Y-1833993D02*
D03*
X-2603008Y-1833979D02*
D03*
X-2603140Y-1833982D02*
D03*
X-2603113Y-1833977D02*
D03*
X-2603120Y-1833979D02*
D03*
X-2603130Y-1833936D02*
D03*
X-2603105Y-1833914D02*
D03*
X-2603109Y-1834092D02*
D03*
X-2603111Y-1834095D02*
D03*
X-2603116Y-1834095D02*
D03*
X-2603120Y-1834095D02*
D03*
X-2603080Y-1834177D02*
D03*
X-2603161Y-1834173D02*
D03*
X-2603160Y-1834231D02*
D03*
X-2603141Y-1834186D02*
D03*
X-2603134Y-1834186D02*
D03*
X-2603134Y-1834098D02*
D03*
X-2603063Y-1833953D02*
D03*
X-2603060Y-1833973D02*
D03*
X-2603029Y-1833951D02*
D03*
X-2603037Y-1833967D02*
D03*
X-2603043Y-1833926D02*
D03*
Y-1833931D02*
D03*
X-2603079Y-1833929D02*
D03*
X-2603091Y-1833919D02*
D03*
X-2603096Y-1833919D02*
D03*
X-2603047Y-1833973D02*
D03*
X-2603042Y-1833973D02*
D03*
X-2603032Y-1833973D02*
D03*
X-2603056Y-1833953D02*
D03*
X-2603068Y-1833981D02*
D03*
X-2603073Y-1833980D02*
D03*
X-2603138Y-1834220D02*
D03*
X-2603134Y-1834196D02*
D03*
X-2603134Y-1834245D02*
D03*
X-2603139Y-1834235D02*
D03*
X-2603042Y-1834195D02*
D03*
X-2603048Y-1834238D02*
D03*
X-2603023Y-1834217D02*
D03*
X-2603045Y-1834223D02*
D03*
X-2603034Y-1834233D02*
D03*
X-2603031Y-1834213D02*
D03*
X-2603078Y-1834272D02*
D03*
Y-1834259D02*
D03*
X-2603065Y-1834272D02*
D03*
X-2603052Y-1834272D02*
D03*
X-2603051Y-1834267D02*
D03*
X-2603068Y-1834261D02*
D03*
X-2603055Y-1834204D02*
D03*
X-2603048Y-1834189D02*
D03*
X-2603041D02*
D03*
X-2603060Y-1834204D02*
D03*
X-2603066Y-1834234D02*
D03*
X-2603094Y-1834229D02*
D03*
X-2603124Y-1834232D02*
D03*
X-2603124Y-1834237D02*
D03*
X-2603124Y-1834220D02*
D03*
X-2603124Y-1834215D02*
D03*
X-2603124Y-1834209D02*
D03*
X-2603139Y-1834223D02*
D03*
X-2603141Y-1834156D02*
D03*
X-2603135Y-1834161D02*
D03*
X-2603135Y-1834156D02*
D03*
X-2603140Y-1834151D02*
D03*
X-2603135Y-1834151D02*
D03*
X-2603102Y-1834164D02*
D03*
X-2603093Y-1834180D02*
D03*
X-2603110D02*
D03*
X-2603110Y-1834159D02*
D03*
X-2603094Y-1834159D02*
D03*
X-2603140Y-1834147D02*
D03*
X-2603085Y-1833940D02*
D03*
X-2603130Y-1834108D02*
D03*
X-2603043Y-1833922D02*
D03*
X-2603030Y-1833926D02*
D03*
X-2603088Y-1833928D02*
D03*
X-2603108Y-1833977D02*
D03*
X-2603129Y-1833953D02*
D03*
X-2603124Y-1833944D02*
D03*
X-2603083Y-1833958D02*
D03*
X-2603117Y-1834170D02*
D03*
X-2603124Y-1834161D02*
D03*
X-2603102Y-1834154D02*
D03*
X-2603119Y-1834154D02*
D03*
X-2603141Y-1834207D02*
D03*
X-2603143Y-1834204D02*
D03*
X-2603139D02*
D03*
X-2603143Y-1834191D02*
D03*
X-2603143Y-1834198D02*
D03*
X-2603137Y-1834191D02*
D03*
X-2603132Y-1834190D02*
D03*
X-2603061Y-1834210D02*
D03*
X-2603057D02*
D03*
X-2603052D02*
D03*
X-2603006Y-1834203D02*
D03*
X-2603027Y-1834179D02*
D03*
X-2603044Y-1834191D02*
D03*
X-2603109Y-1834170D02*
D03*
X-2603117Y-1834161D02*
D03*
X-2603102Y-1834181D02*
D03*
X-2603095Y-1834169D02*
D03*
X-2603074Y-1834260D02*
D03*
X-2603069Y-1834255D02*
D03*
X-2603087Y-1834262D02*
D03*
X-2603083Y-1834270D02*
D03*
X-2603095Y-1833950D02*
D03*
Y-1833942D02*
D03*
X-2603103D02*
D03*
X-2603099Y-1833946D02*
D03*
X-2603103Y-1833950D02*
D03*
X-2603033Y-1834137D02*
D03*
X-2603057Y-1834107D02*
D03*
X-2603053Y-1834104D02*
D03*
X-2603108Y-1834042D02*
D03*
X-2603156Y-1834026D02*
D03*
X-2603006Y-1834246D02*
D03*
X-2603041Y-1833989D02*
D03*
X-2603023Y-1833995D02*
D03*
X-2603030Y-1833992D02*
D03*
X-2603164Y-1833924D02*
D03*
X-2603103Y-1833977D02*
D03*
X-2603045Y-1834261D02*
D03*
X-2603148Y-1834202D02*
D03*
X-2603152D02*
D03*
X-2603163Y-1834159D02*
D03*
X-2603060Y-1834080D02*
D03*
X-2603051Y-1834074D02*
D03*
X-2603133Y-1833923D02*
D03*
X-2603128Y-1833926D02*
D03*
X-2603075Y-1833911D02*
D03*
X-2603036Y-1834078D02*
D03*
X-2603050Y-1833999D02*
D03*
X-2603128Y-1833998D02*
D03*
X-2603101Y-1834108D02*
D03*
X-2603043Y-1834089D02*
D03*
X-2603134Y-1834245D02*
D03*
Y-1834249D02*
D03*
X-2603191Y-1833887D02*
D03*
X-2603039D02*
D03*
X-2603191D02*
D03*
D205*
X-2603014Y-1834148D02*
D03*
X-2603113Y-1834130D02*
D03*
X-2603166Y-1834224D02*
D03*
X-2603165Y-1834219D02*
D03*
X-2603082Y-1834231D02*
D03*
X-2603086Y-1834231D02*
D03*
X-2603139Y-1834245D02*
D03*
X-2603152Y-1834141D02*
D03*
X-2603159Y-1834251D02*
D03*
X-2603156Y-1834250D02*
D03*
X-2603158Y-1834249D02*
D03*
X-2603156Y-1834255D02*
D03*
X-2603137Y-1834000D02*
D03*
X-2603085Y-1833944D02*
D03*
X-2603112Y-1833920D02*
D03*
X-2603104Y-1833933D02*
D03*
X-2603116Y-1833924D02*
D03*
X-2603060Y-1833959D02*
D03*
X-2603028Y-1833963D02*
D03*
X-2603130Y-1834067D02*
D03*
X-2603141Y-1834172D02*
D03*
X-2603082Y-1833974D02*
D03*
X-2603077Y-1834123D02*
D03*
X-2603132Y-1833954D02*
D03*
X-2603108Y-1833983D02*
D03*
X-2603133Y-1833967D02*
D03*
X-2603112Y-1833953D02*
D03*
X-2603094Y-1833959D02*
D03*
X-2603048Y-1834015D02*
D03*
X-2603140Y-1834128D02*
D03*
X-2603068Y-1834158D02*
D03*
X-2603021Y-1834034D02*
D03*
X-2603053Y-1834011D02*
D03*
X-2603034Y-1834091D02*
D03*
X-2603005Y-1834121D02*
D03*
X-2603020Y-1834259D02*
D03*
X-2603111Y-1833963D02*
D03*
X-2603101Y-1833996D02*
D03*
X-2603112Y-1833943D02*
D03*
X-2603036Y-1834118D02*
D03*
X-2603151Y-1834255D02*
D03*
X-2603156D02*
D03*
X-2603186Y-1834227D02*
D03*
X-2603200Y-1834105D02*
D03*
X-2603212D02*
D03*
D03*
X-2603223D02*
D03*
X-2603212Y-1834078D02*
D03*
Y-1834105D02*
D03*
D03*
Y-1834105D02*
D03*
X-2603192Y-1834119D02*
D03*
X-2603192Y-1834057D02*
D03*
X-2603066Y-1834234D02*
D03*
X-2603192Y-1834057D02*
D03*
X-2603192Y-1834119D02*
D03*
X-2603218Y-1834127D02*
D03*
X-2603223Y-1834172D02*
D03*
X-2603212Y-1834155D02*
D03*
D03*
Y-1834176D02*
D03*
D03*
X-2603048Y-1834170D02*
D03*
X-2603117Y-1834297D02*
D03*
X-2603080Y-1833943D02*
D03*
X-2603085Y-1834177D02*
D03*
X-2603157Y-1834173D02*
D03*
X-2603161D02*
D03*
X-2603160Y-1834231D02*
D03*
X-2603080Y-1833939D02*
D03*
Y-1833943D02*
D03*
X-2603131Y-1834195D02*
D03*
X-2603132D02*
D03*
D03*
X-2603134Y-1834196D02*
D03*
X-2603139Y-1834235D02*
D03*
Y-1834238D02*
D03*
X-2603039Y-1834194D02*
D03*
X-2603041D02*
D03*
D03*
X-2603042Y-1834195D02*
D03*
X-2603048Y-1834242D02*
D03*
X-2603048Y-1834242D02*
D03*
Y-1834238D02*
D03*
Y-1834242D02*
D03*
X-2603032Y-1834237D02*
D03*
X-2603131Y-1834161D02*
D03*
X-2603135D02*
D03*
X-2603141Y-1834167D02*
D03*
Y-1834172D02*
D03*
X-2603088Y-1833928D02*
D03*
X-2603129Y-1833953D02*
D03*
Y-1833953D02*
D03*
X-2603119Y-1834281D02*
D03*
X-2603125D02*
D03*
X-2603139Y-1834259D02*
D03*
Y-1834291D02*
D03*
Y-1834259D02*
D03*
X-2603156Y-1834243D02*
D03*
X-2603148Y-1834202D02*
D03*
X-2603156Y-1834243D02*
D03*
X-2603183D02*
D03*
X-2603210Y-1833956D02*
D03*
Y-1834038D02*
D03*
X-2603198Y-1833944D02*
D03*
X-2603210Y-1833956D02*
D03*
X-2603200Y-1834021D02*
D03*
X-2603206D02*
D03*
D03*
X-2603207Y-1834021D02*
D03*
X-2603133Y-1833920D02*
D03*
D03*
D03*
Y-1833923D02*
D03*
X-2603105Y-1833914D02*
D03*
X-2603120D02*
D03*
D03*
X-2603132Y-1833926D02*
D03*
D03*
X-2603159Y-1833952D02*
D03*
D03*
Y-1833993D02*
D03*
D03*
X-2603179Y-1834012D02*
D03*
D03*
X-2603195D02*
D03*
D03*
X-2603200Y-1834017D02*
D03*
D03*
Y-1834021D02*
D03*
X-2603193Y-1834198D02*
D03*
Y-1834201D02*
D03*
D03*
X-2603196Y-1834204D02*
D03*
X-2603063Y-1834139D02*
D03*
D03*
X-2603106Y-1834124D02*
D03*
X-2603123Y-1834106D02*
D03*
X-2603106Y-1834124D02*
D03*
Y-1834132D02*
D03*
X-2603123Y-1834046D02*
D03*
D03*
Y-1834106D02*
D03*
X-2603220Y-1834046D02*
D03*
X-2603226Y-1834040D02*
D03*
Y-1834030D02*
D03*
Y-1834040D02*
D03*
Y-1834030D02*
D03*
X-2603230Y-1834026D02*
D03*
Y-1834024D02*
D03*
Y-1834026D02*
D03*
X-2603199Y-1834105D02*
D03*
X-2603200Y-1834105D02*
D03*
X-2603199Y-1834105D02*
D03*
Y-1834106D02*
D03*
X-2603212Y-1834105D02*
D03*
D03*
X-2603183Y-1834243D02*
D03*
X-2603183Y-1834243D02*
D03*
X-2603204D02*
D03*
X-2603183D02*
D03*
X-2603204D02*
D03*
X-2603083Y-1833924D02*
D03*
D03*
D206*
X-2603205Y-1834230D02*
D03*
X-2603077Y-1834231D02*
D03*
X-2603159Y-1834254D02*
D03*
X-2603157Y-1834252D02*
D03*
X-2603080Y-1833944D02*
D03*
X-2603067Y-1833942D02*
D03*
X-2603048Y-1833959D02*
D03*
X-2603115Y-1833925D02*
D03*
X-2603086Y-1833947D02*
D03*
X-2603097Y-1833976D02*
D03*
X-2603106Y-1834062D02*
D03*
X-2603014Y-1834039D02*
D03*
X-2603106Y-1834195D02*
D03*
X-2603031Y-1834269D02*
D03*
X-2603049Y-1834092D02*
D03*
X-2603164Y-1834227D02*
D03*
X-2603072Y-1834229D02*
D03*
X-2603094D02*
D03*
X-2603072D02*
D03*
X-2603211Y-1834038D02*
D03*
X-2603202Y-1834129D02*
D03*
X-2603219Y-1834128D02*
D03*
D03*
Y-1834167D02*
D03*
D03*
X-2603202Y-1834129D02*
D03*
Y-1834145D02*
D03*
D03*
X-2603212Y-1834176D02*
D03*
D03*
Y-1834235D02*
D03*
X-2603044Y-1834170D02*
D03*
X-2603048D02*
D03*
D03*
X-2603121Y-1834297D02*
D03*
X-2603080Y-1833943D02*
D03*
Y-1833944D02*
D03*
Y-1833943D02*
D03*
X-2603080Y-1834177D02*
D03*
X-2603164Y-1834227D02*
D03*
X-2603036Y-1834237D02*
D03*
X-2603148Y-1834202D02*
D03*
Y-1834207D02*
D03*
X-2603084Y-1833924D02*
D03*
X-2603033Y-1834131D02*
D03*
Y-1834137D02*
D03*
X-2603148Y-1834202D02*
D03*
X-2603134Y-1833926D02*
D03*
D03*
X-2603033Y-1834137D02*
D03*
X-2603060D02*
D03*
D03*
X-2603087Y-1834139D02*
D03*
X-2603103Y-1834026D02*
D03*
Y-1834020D02*
D03*
Y-1834026D02*
D03*
X-2603212Y-1834235D02*
D03*
X-2603084Y-1833924D02*
D03*
X-2603082D02*
D03*
D207*
X-2603079Y-1834265D02*
D03*
X-2603057Y-1834141D02*
D03*
X-2603118Y-1833977D02*
D03*
X-2603107Y-1833933D02*
D03*
X-2603029Y-1833958D02*
D03*
X-2603186Y-1834227D02*
D03*
X-2603036Y-1834237D02*
D03*
X-2603070Y-1834271D02*
D03*
Y-1834259D02*
D03*
X-2603061Y-1834281D02*
D03*
X-2603119Y-1834281D02*
D03*
X-2603137Y-1834187D02*
D03*
X-2603191Y-1833886D02*
D03*
D208*
X-2603187Y-1834022D02*
D03*
Y-1834041D02*
D03*
X-2603107Y-1834110D02*
D03*
X-2603113D02*
D03*
X-2603094Y-1834018D02*
D03*
X-2603191D02*
D03*
X-2603099Y-1834066D02*
D03*
X-2603104Y-1834061D02*
D03*
X-2603223Y-1834216D02*
D03*
X-2603226Y-1834219D02*
D03*
X-2603111Y-1833948D02*
D03*
X-2603112Y-1833947D02*
D03*
X-2603107Y-1833933D02*
D03*
X-2603110D02*
D03*
X-2603097Y-1834086D02*
D03*
X-2603097Y-1834086D02*
D03*
X-2603056Y-1834037D02*
D03*
Y-1834066D02*
D03*
X-2603137Y-1833994D02*
D03*
X-2603145Y-1833986D02*
D03*
X-2603135Y-1833952D02*
D03*
X-2603135D02*
D03*
X-2603133Y-1833967D02*
D03*
X-2603137D02*
D03*
X-2603015Y-1834062D02*
D03*
X-2603021Y-1834057D02*
D03*
X-2603128Y-1833960D02*
D03*
Y-1833998D02*
D03*
X-2603223Y-1834221D02*
D03*
X-2603226Y-1834219D02*
D03*
X-2603181Y-1834053D02*
D03*
X-2603188Y-1834046D02*
D03*
X-2603184Y-1834047D02*
D03*
X-2603187D02*
D03*
X-2603112Y-1833933D02*
D03*
X-2603121D02*
D03*
D03*
X-2603138Y-1833950D02*
D03*
X-2603112Y-1833931D02*
D03*
Y-1833933D02*
D03*
X-2603113Y-1833945D02*
D03*
X-2603128Y-1833960D02*
D03*
X-2603113Y-1833945D02*
D03*
D03*
X-2603192Y-1834218D02*
D03*
X-2603205D02*
D03*
X-2603171Y-1834154D02*
D03*
X-2603172D02*
D03*
X-2603149Y-1834132D02*
D03*
X-2603171Y-1834154D02*
D03*
X-2603144Y-1834132D02*
D03*
X-2603149D02*
D03*
X-2603144Y-1834132D02*
D03*
X-2603144Y-1834132D02*
D03*
X-2603126Y-1834132D02*
D03*
X-2603144D02*
D03*
X-2603126Y-1834132D02*
D03*
X-2603126Y-1834132D02*
D03*
X-2603085Y-1834084D02*
D03*
X-2603095D02*
D03*
X-2603150Y-1834175D02*
D03*
X-2603192Y-1834218D02*
D03*
X-2603226Y-1834219D02*
D03*
Y-1834219D02*
D03*
X-2603100Y-1833933D02*
D03*
X-2603100D02*
D03*
D03*
X-2603108Y-1833941D02*
D03*
D03*
Y-1833943D02*
D03*
D03*
X-2603110Y-1833945D02*
D03*
D03*
X-2603113D02*
D03*
D03*
X-2603113Y-1833945D02*
D03*
X-2603138Y-1833964D02*
D03*
X-2603140Y-1833966D02*
D03*
X-2603138Y-1833956D02*
D03*
Y-1833964D02*
D03*
X-2603138Y-1833950D02*
D03*
Y-1833956D02*
D03*
X-2603138Y-1833956D02*
D03*
X-2603138Y-1833956D02*
D03*
X-2603084Y-1833944D02*
D03*
X-2603085Y-1833944D02*
D03*
X-2603084Y-1833944D02*
D03*
Y-1833954D02*
D03*
D03*
X-2603086Y-1833956D02*
D03*
X-2603145Y-1833947D02*
D03*
Y-1833986D02*
D03*
X-2603112Y-1833922D02*
D03*
X-2603119D02*
D03*
D03*
X-2603145Y-1833947D02*
D03*
X-2603110Y-1833922D02*
D03*
X-2603111D02*
D03*
D03*
X-2603111Y-1833922D02*
D03*
D03*
X-2603112D02*
D03*
D03*
X-2603112Y-1833922D02*
D03*
X-2603015Y-1834080D02*
D03*
X-2603020Y-1834085D02*
D03*
X-2603014Y-1834085D02*
D03*
X-2603015Y-1834086D02*
D03*
X-2603028Y-1834075D02*
D03*
X-2603036Y-1834083D02*
D03*
X-2603015Y-1834072D02*
D03*
X-2603016Y-1834072D02*
D03*
D03*
X-2603037D02*
D03*
D03*
X-2603046Y-1834081D02*
D03*
X-2603015Y-1834075D02*
D03*
X-2603028D02*
D03*
X-2603014Y-1834080D02*
D03*
X-2603015D02*
D03*
X-2603137Y-1833994D02*
D03*
X-2603137Y-1833994D02*
D03*
D03*
Y-1834000D02*
D03*
X-2603104Y-1833928D02*
D03*
Y-1833933D02*
D03*
Y-1833928D02*
D03*
X-2603110Y-1833922D02*
D03*
X-2603085Y-1833940D02*
D03*
X-2603091Y-1833946D02*
D03*
X-2603086Y-1833947D02*
D03*
X-2603089Y-1833950D02*
D03*
X-2603086Y-1833947D02*
D03*
Y-1833947D02*
D03*
X-2603140Y-1833966D02*
D03*
Y-1833982D02*
D03*
X-2603116Y-1833943D02*
D03*
D03*
X-2603132Y-1833954D02*
D03*
X-2603135Y-1833952D02*
D03*
X-2603097Y-1833976D02*
D03*
Y-1833978D02*
D03*
X-2603095Y-1833980D02*
D03*
X-2603097Y-1833978D02*
D03*
X-2603108Y-1833983D02*
D03*
X-2603108D02*
D03*
X-2603106Y-1833981D02*
D03*
X-2603108Y-1833983D02*
D03*
X-2603133Y-1833967D02*
D03*
X-2603133Y-1833967D02*
D03*
X-2603137Y-1833967D02*
D03*
X-2603137Y-1833967D02*
D03*
X-2603113Y-1833943D02*
D03*
X-2603115D02*
D03*
X-2603086Y-1833956D02*
D03*
Y-1833985D02*
D03*
X-2603089Y-1833983D02*
D03*
X-2603098Y-1833993D02*
D03*
X-2603089Y-1833950D02*
D03*
Y-1833983D02*
D03*
X-2603091Y-1833981D02*
D03*
X-2603096Y-1833986D02*
D03*
X-2603091Y-1833946D02*
D03*
Y-1833981D02*
D03*
X-2603150Y-1834146D02*
D03*
Y-1834175D02*
D03*
X-2603139Y-1834135D02*
D03*
X-2603150Y-1834146D02*
D03*
X-2603078Y-1834135D02*
D03*
X-2603139D02*
D03*
X-2603060Y-1834117D02*
D03*
X-2603078Y-1834135D02*
D03*
X-2603199Y-1834026D02*
D03*
X-2603207D02*
D03*
X-2603063Y-1834048D02*
D03*
Y-1834062D02*
D03*
X-2603187Y-1834041D02*
D03*
X-2603187Y-1834041D02*
D03*
X-2603187Y-1834022D02*
D03*
X-2603187Y-1834022D02*
D03*
X-2603079Y-1834037D02*
D03*
X-2603085D02*
D03*
D03*
X-2603093Y-1834029D02*
D03*
X-2603177Y-1833994D02*
D03*
X-2603200D02*
D03*
X-2603177D02*
D03*
D03*
X-2603096Y-1834021D02*
D03*
Y-1834064D02*
D03*
X-2603098Y-1834024D02*
D03*
X-2603098Y-1834024D02*
D03*
X-2603101Y-1834021D02*
D03*
Y-1834057D02*
D03*
X-2603098Y-1833993D02*
D03*
X-2603098D02*
D03*
X-2603064Y-1834007D02*
D03*
X-2603086Y-1833985D02*
D03*
X-2603064Y-1834007D02*
D03*
Y-1834016D02*
D03*
D03*
X-2603064Y-1834016D02*
D03*
D03*
Y-1834029D02*
D03*
X-2603056Y-1834066D02*
D03*
X-2603060Y-1834070D02*
D03*
X-2603056Y-1834037D02*
D03*
X-2603064Y-1834029D02*
D03*
X-2603101Y-1833986D02*
D03*
Y-1833996D02*
D03*
X-2603101Y-1833956D02*
D03*
X-2603103D02*
D03*
D03*
X-2603111Y-1833948D02*
D03*
X-2603115Y-1833943D02*
D03*
X-2603115Y-1833943D02*
D03*
D03*
X-2603116D02*
D03*
X-2603111Y-1833948D02*
D03*
X-2603111D02*
D03*
X-2603113Y-1833943D02*
D03*
X-2603113Y-1833943D02*
D03*
X-2603113Y-1833943D02*
D03*
X-2603113Y-1833943D02*
D03*
X-2603112Y-1833943D02*
D03*
X-2603113D02*
D03*
X-2603112Y-1833946D02*
D03*
X-2603112D02*
D03*
X-2603112Y-1833946D02*
D03*
X-2603112Y-1833946D02*
D03*
X-2603192Y-1833973D02*
D03*
Y-1833985D02*
D03*
Y-1833973D02*
D03*
X-2603198Y-1833967D02*
D03*
X-2603063Y-1834048D02*
D03*
X-2603094Y-1834018D02*
D03*
X-2603191D02*
D03*
X-2603199Y-1834026D02*
D03*
X-2603182Y-1834044D02*
D03*
X-2603184Y-1834047D02*
D03*
X-2603182Y-1834023D02*
D03*
Y-1834044D02*
D03*
X-2603096Y-1834081D02*
D03*
X-2603096Y-1834081D02*
D03*
D03*
X-2603096D02*
D03*
X-2603094Y-1834082D02*
D03*
X-2603096Y-1834081D02*
D03*
X-2603094Y-1834082D02*
D03*
X-2603094D02*
D03*
X-2603093Y-1834083D02*
D03*
X-2603094Y-1834082D02*
D03*
X-2603087Y-1834083D02*
D03*
X-2603093D02*
D03*
X-2603084Y-1834077D02*
D03*
X-2603095D02*
D03*
X-2603081Y-1834086D02*
D03*
X-2603082Y-1834086D02*
D03*
X-2603079Y-1834086D02*
D03*
X-2603081D02*
D03*
X-2603079Y-1834085D02*
D03*
X-2603079Y-1834086D02*
D03*
X-2603079Y-1834081D02*
D03*
X-2603079Y-1834081D02*
D03*
X-2603083Y-1834078D02*
D03*
X-2603087Y-1834083D02*
D03*
X-2603083Y-1834078D02*
D03*
Y-1834078D02*
D03*
X-2603077Y-1834085D02*
D03*
X-2603079D02*
D03*
X-2603077Y-1834086D02*
D03*
X-2603077Y-1834085D02*
D03*
X-2603075Y-1834086D02*
D03*
X-2603077D02*
D03*
X-2603075Y-1834085D02*
D03*
X-2603075Y-1834086D02*
D03*
X-2603077Y-1834081D02*
D03*
X-2603079D02*
D03*
X-2603077Y-1834081D02*
D03*
X-2603077Y-1834081D02*
D03*
X-2603075Y-1834081D02*
D03*
X-2603077D02*
D03*
X-2603075Y-1834081D02*
D03*
X-2603075Y-1834081D02*
D03*
X-2603073Y-1834085D02*
D03*
X-2603075D02*
D03*
X-2603073Y-1834086D02*
D03*
X-2603073Y-1834085D02*
D03*
X-2603071Y-1834086D02*
D03*
X-2603073D02*
D03*
X-2603071Y-1834085D02*
D03*
X-2603071Y-1834086D02*
D03*
X-2603073Y-1834081D02*
D03*
X-2603075D02*
D03*
X-2603073Y-1834081D02*
D03*
X-2603073Y-1834081D02*
D03*
X-2603071Y-1834081D02*
D03*
X-2603073D02*
D03*
X-2603071Y-1834081D02*
D03*
X-2603071Y-1834081D02*
D03*
X-2603068Y-1834085D02*
D03*
X-2603071D02*
D03*
X-2603068Y-1834086D02*
D03*
X-2603068Y-1834085D02*
D03*
X-2603067Y-1834086D02*
D03*
X-2603068D02*
D03*
X-2603068Y-1834081D02*
D03*
X-2603071D02*
D03*
X-2603068Y-1834081D02*
D03*
X-2603068Y-1834081D02*
D03*
X-2603065Y-1834075D02*
D03*
X-2603082D02*
D03*
X-2603065Y-1834078D02*
D03*
X-2603066Y-1834077D02*
D03*
X-2603065Y-1834078D02*
D03*
Y-1834081D02*
D03*
X-2603081Y-1834077D02*
D03*
X-2603083Y-1834078D02*
D03*
X-2603066Y-1834077D02*
D03*
X-2603081D02*
D03*
X-2603079Y-1834081D02*
D03*
X-2603082D02*
D03*
X-2603066D02*
D03*
X-2603068D02*
D03*
X-2603082D02*
D03*
X-2603085Y-1834084D02*
D03*
X-2603082Y-1834075D02*
D03*
X-2603084Y-1834077D02*
D03*
X-2603065Y-1834087D02*
D03*
X-2603067Y-1834086D02*
D03*
X-2603065Y-1834083D02*
D03*
X-2603066Y-1834081D02*
D03*
X-2603065Y-1834083D02*
D03*
Y-1834083D02*
D03*
X-2603062Y-1834085D02*
D03*
X-2603065Y-1834083D02*
D03*
X-2603064Y-1834081D02*
D03*
X-2603065Y-1834081D02*
D03*
X-2603063Y-1834081D02*
D03*
X-2603064D02*
D03*
X-2603063Y-1834082D02*
D03*
X-2603063Y-1834081D02*
D03*
X-2603063Y-1834082D02*
D03*
Y-1834082D02*
D03*
X-2603063Y-1834082D02*
D03*
X-2603063Y-1834082D02*
D03*
X-2603063Y-1834082D02*
D03*
Y-1834082D02*
D03*
X-2603061Y-1834084D02*
D03*
X-2603063Y-1834082D02*
D03*
X-2603062Y-1834081D02*
D03*
Y-1834081D02*
D03*
X-2603062Y-1834081D02*
D03*
X-2603062Y-1834081D02*
D03*
X-2603062Y-1834081D02*
D03*
Y-1834081D02*
D03*
X-2603061Y-1834083D02*
D03*
X-2603062Y-1834081D02*
D03*
X-2603057Y-1834087D02*
D03*
X-2603065D02*
D03*
X-2603058Y-1834085D02*
D03*
X-2603062D02*
D03*
X-2603058Y-1834084D02*
D03*
X-2603061D02*
D03*
X-2603059Y-1834083D02*
D03*
X-2603061D02*
D03*
X-2603057Y-1834083D02*
D03*
X-2603058Y-1834084D02*
D03*
X-2603060Y-1834080D02*
D03*
X-2603060D02*
D03*
D03*
X-2603061Y-1834081D02*
D03*
X-2603060Y-1834070D02*
D03*
Y-1834080D02*
D03*
X-2603062Y-1834081D02*
D03*
X-2603063Y-1834080D02*
D03*
Y-1834080D02*
D03*
Y-1834080D02*
D03*
Y-1834080D02*
D03*
X-2603063Y-1834079D02*
D03*
Y-1834077D02*
D03*
Y-1834079D02*
D03*
Y-1834077D02*
D03*
X-2603065Y-1834075D02*
D03*
X-2603058Y-1834081D02*
D03*
X-2603059Y-1834083D02*
D03*
X-2603101Y-1833986D02*
D03*
X-2603101Y-1833986D02*
D03*
X-2603101Y-1833956D02*
D03*
Y-1833986D02*
D03*
X-2603059Y-1834061D02*
D03*
Y-1834062D02*
D03*
D03*
X-2603061Y-1834064D02*
D03*
D03*
X-2603073D02*
D03*
D03*
X-2603074Y-1834064D02*
D03*
X-2603098Y-1834024D02*
D03*
Y-1834061D02*
D03*
X-2603074Y-1834064D02*
D03*
X-2603090D02*
D03*
D03*
X-2603092Y-1834066D02*
D03*
X-2603062Y-1834075D02*
D03*
X-2603064D02*
D03*
D03*
X-2603065Y-1834074D02*
D03*
D03*
X-2603097D02*
D03*
D03*
X-2603100Y-1834070D02*
D03*
D03*
X-2603106D02*
D03*
D03*
X-2603119Y-1834057D02*
D03*
X-2603092Y-1834066D02*
D03*
X-2603099D02*
D03*
X-2603098Y-1834061D02*
D03*
X-2603100Y-1834060D02*
D03*
D03*
X-2603102D02*
D03*
X-2603108Y-1834080D02*
D03*
X-2603115D02*
D03*
X-2603101Y-1834086D02*
D03*
X-2603108Y-1834080D02*
D03*
X-2603100Y-1834084D02*
D03*
X-2603117Y-1834068D02*
D03*
X-2603059Y-1834054D02*
D03*
Y-1834061D02*
D03*
X-2603015Y-1834062D02*
D03*
Y-1834072D02*
D03*
X-2603051Y-1834095D02*
D03*
Y-1834095D02*
D03*
X-2603047Y-1834100D02*
D03*
X-2603051Y-1834095D02*
D03*
X-2603101Y-1834020D02*
D03*
X-2603101Y-1834021D02*
D03*
X-2603108Y-1834051D02*
D03*
Y-1834053D02*
D03*
X-2603102Y-1834060D02*
D03*
X-2603108Y-1834053D02*
D03*
X-2603181Y-1834053D02*
D03*
Y-1834055D02*
D03*
X-2603119Y-1834057D02*
D03*
X-2603119D02*
D03*
D03*
X-2603121Y-1834056D02*
D03*
Y-1834052D02*
D03*
Y-1834056D02*
D03*
X-2603118Y-1834049D02*
D03*
X-2603121Y-1834052D02*
D03*
X-2603118Y-1834049D02*
D03*
X-2603118D02*
D03*
X-2603097Y-1834086D02*
D03*
X-2603101D02*
D03*
X-2603095Y-1834084D02*
D03*
X-2603100D02*
D03*
X-2603082Y-1834086D02*
D03*
X-2603082Y-1834086D02*
D03*
D03*
X-2603083Y-1834086D02*
D03*
D03*
X-2603097D02*
D03*
X-2603051Y-1834095D02*
D03*
X-2603082D02*
D03*
X-2603095Y-1834088D02*
D03*
X-2603095Y-1834089D02*
D03*
X-2603088Y-1834088D02*
D03*
X-2603095D02*
D03*
X-2603082Y-1834095D02*
D03*
X-2603088Y-1834088D02*
D03*
X-2603089Y-1834090D02*
D03*
X-2603090Y-1834092D02*
D03*
D03*
Y-1834093D02*
D03*
D03*
X-2603107Y-1834110D02*
D03*
X-2603046Y-1834081D02*
D03*
X-2603058D02*
D03*
X-2603046Y-1834083D02*
D03*
X-2603057D02*
D03*
X-2603057Y-1834085D02*
D03*
X-2603058Y-1834085D02*
D03*
X-2603057Y-1834086D02*
D03*
X-2603057Y-1834087D02*
D03*
X-2603044Y-1834086D02*
D03*
X-2603057D02*
D03*
X-2603044D02*
D03*
D03*
X-2603046Y-1834083D02*
D03*
X-2603046Y-1834083D02*
D03*
X-2603044Y-1834083D02*
D03*
X-2603046D02*
D03*
X-2603043Y-1834083D02*
D03*
X-2603044Y-1834083D02*
D03*
X-2603036Y-1834083D02*
D03*
X-2603043D02*
D03*
X-2603020Y-1834085D02*
D03*
X-2603057D02*
D03*
X-2603042Y-1834086D02*
D03*
X-2603044D02*
D03*
X-2603042D02*
D03*
D03*
X-2603015D02*
D03*
X-2603042D02*
D03*
X-2603110Y-1833930D02*
D03*
X-2603112Y-1833931D02*
D03*
X-2603112Y-1833947D02*
D03*
X-2603112Y-1833946D02*
D03*
X-2603112Y-1833947D02*
D03*
Y-1833947D02*
D03*
Y-1833946D02*
D03*
Y-1833947D02*
D03*
D209*
X-2603207Y-1834196D02*
D03*
Y-1834216D02*
D03*
D03*
X-2603208Y-1834216D02*
D03*
D03*
D03*
D03*
X-2603208Y-1834217D02*
D03*
X-2603198Y-1833988D02*
D03*
X-2603201Y-1833991D02*
D03*
D03*
X-2603201D02*
D03*
D03*
X-2603203Y-1833993D02*
D03*
D03*
Y-1833993D02*
D03*
D03*
X-2603204Y-1833994D02*
D03*
X-2603198Y-1833983D02*
D03*
Y-1833988D02*
D03*
X-2603204Y-1833994D02*
D03*
X-2603205D02*
D03*
X-2603215Y-1834130D02*
D03*
Y-1834175D02*
D03*
X-2603206Y-1834183D02*
D03*
Y-1834195D02*
D03*
D03*
X-2603207Y-1834196D02*
D03*
X-2603206Y-1834182D02*
D03*
X-2603206Y-1834183D02*
D03*
X-2603214Y-1834006D02*
D03*
Y-1834048D02*
D03*
X-2603197Y-1834064D02*
D03*
X-2603214Y-1834048D02*
D03*
X-2603197Y-1834064D02*
D03*
Y-1834089D02*
D03*
X-2603196Y-1834091D02*
D03*
X-2603197Y-1834089D02*
D03*
X-2603196Y-1834111D02*
D03*
X-2603215Y-1834130D02*
D03*
X-2603196Y-1834091D02*
D03*
Y-1834111D02*
D03*
X-2603209Y-1834217D02*
D03*
Y-1834232D02*
D03*
X-2603202Y-1834239D02*
D03*
X-2603209Y-1834232D02*
D03*
X-2603200Y-1834239D02*
D03*
X-2603202D02*
D03*
D210*
X-2603053Y-1834073D02*
D03*
X-2603054D02*
D03*
X-2603052Y-1834072D02*
D03*
X-2603053Y-1834073D02*
D03*
X-2603050Y-1834072D02*
D03*
X-2603052D02*
D03*
X-2603044Y-1834070D02*
D03*
Y-1834071D02*
D03*
D03*
X-2603049D02*
D03*
D03*
X-2603050Y-1834072D02*
D03*
X-2603062Y-1834072D02*
D03*
X-2603094D02*
D03*
D03*
X-2603098Y-1834067D02*
D03*
D03*
X-2603102D02*
D03*
D03*
X-2603102Y-1834067D02*
D03*
D03*
X-2603104D02*
D03*
D03*
X-2603117Y-1834054D02*
D03*
D03*
X-2603118D02*
D03*
X-2603223Y-1834127D02*
D03*
Y-1834142D02*
D03*
X-2603095Y-1834094D02*
D03*
X-2603103D02*
D03*
D03*
X-2603111Y-1834086D02*
D03*
D03*
X-2603119D02*
D03*
D211*
X-2603119Y-1834034D02*
D03*
X-2603121D02*
D03*
X-2603119D02*
D03*
X-2603076Y-1834029D02*
D03*
X-2603077D02*
D03*
X-2603073Y-1834026D02*
D03*
X-2603076Y-1834029D02*
D03*
D212*
X-2603187Y-1834041D02*
Y-1834022D01*
X-2603113Y-1834110D02*
X-2603107D01*
X-2603191Y-1834018D02*
X-2603094D01*
X-2603104Y-1834061D02*
X-2603099Y-1834066D01*
X-2603226Y-1834219D02*
X-2603223Y-1834216D01*
X-2603112Y-1833947D02*
X-2603111Y-1833948D01*
X-2603110Y-1833933D02*
X-2603107D01*
X-2603097Y-1834086D02*
X-2603097Y-1834086D01*
X-2603056Y-1834066D02*
Y-1834037D01*
X-2603145Y-1833986D02*
X-2603137Y-1833994D01*
X-2603135Y-1833952D02*
X-2603135D01*
X-2603137Y-1833967D02*
X-2603133D01*
X-2603021Y-1834057D02*
X-2603015Y-1834062D01*
X-2603128Y-1833998D02*
Y-1833960D01*
X-2603226Y-1834219D02*
X-2603223Y-1834221D01*
X-2603188Y-1834046D02*
X-2603181Y-1834053D01*
X-2603187Y-1834047D02*
X-2603184D01*
X-2603121Y-1833933D02*
X-2603112D01*
X-2603138Y-1833950D02*
X-2603121Y-1833933D01*
X-2603112D02*
Y-1833931D01*
X-2603128Y-1833960D02*
X-2603113Y-1833945D01*
X-2603205Y-1834218D02*
X-2603192D01*
X-2603172Y-1834154D02*
X-2603171D01*
X-2603149Y-1834132D01*
X-2603144D01*
X-2603144Y-1834132D01*
X-2603126D01*
X-2603126Y-1834132D01*
X-2603095Y-1834084D02*
X-2603085D01*
X-2603192Y-1834218D02*
X-2603150Y-1834175D01*
X-2603226Y-1834219D02*
Y-1834219D01*
X-2603100Y-1833933D02*
X-2603100D01*
X-2603108Y-1833941D02*
X-2603100Y-1833933D01*
X-2603108Y-1833943D02*
Y-1833941D01*
X-2603110Y-1833945D02*
X-2603108Y-1833943D01*
X-2603113Y-1833945D02*
X-2603110D01*
X-2603113Y-1833945D02*
X-2603113Y-1833945D01*
X-2603140Y-1833966D02*
X-2603138Y-1833964D01*
Y-1833956D01*
X-2603138Y-1833956D02*
Y-1833950D01*
Y-1833956D02*
X-2603138Y-1833956D01*
X-2603085Y-1833944D02*
X-2603084Y-1833944D01*
Y-1833954D02*
Y-1833944D01*
X-2603086Y-1833956D02*
X-2603084Y-1833954D01*
X-2603145Y-1833986D02*
Y-1833947D01*
X-2603119Y-1833922D02*
X-2603112D01*
X-2603145Y-1833947D02*
X-2603119Y-1833922D01*
X-2603111D02*
X-2603110D01*
X-2603111Y-1833922D02*
X-2603111Y-1833922D01*
X-2603112Y-1833922D02*
X-2603111D01*
X-2603112Y-1833922D02*
X-2603112Y-1833922D01*
X-2603020Y-1834085D02*
X-2603015Y-1834080D01*
X-2603015Y-1834086D02*
X-2603014Y-1834085D01*
X-2603036Y-1834083D02*
X-2603028Y-1834075D01*
X-2603016Y-1834072D02*
X-2603015Y-1834072D01*
X-2603037Y-1834072D02*
X-2603016D01*
X-2603046Y-1834081D02*
X-2603037Y-1834072D01*
X-2603028Y-1834075D02*
X-2603015D01*
X-2603015Y-1834080D02*
X-2603014D01*
X-2603137Y-1833994D02*
X-2603137Y-1833994D01*
X-2603137Y-1834000D02*
Y-1833994D01*
X-2603104Y-1833933D02*
Y-1833928D01*
X-2603110Y-1833922D02*
X-2603104Y-1833928D01*
X-2603091Y-1833946D02*
X-2603085Y-1833940D01*
X-2603089Y-1833950D02*
X-2603086Y-1833947D01*
Y-1833947D01*
X-2603140Y-1833982D02*
Y-1833966D01*
X-2603135Y-1833952D02*
X-2603132Y-1833954D01*
X-2603097Y-1833978D02*
Y-1833976D01*
Y-1833978D02*
X-2603095Y-1833980D01*
X-2603108Y-1833983D02*
X-2603108D01*
X-2603106Y-1833981D01*
X-2603133Y-1833967D02*
X-2603133Y-1833967D01*
X-2603137Y-1833967D02*
X-2603137Y-1833967D01*
X-2603115Y-1833943D02*
X-2603113D01*
X-2603086Y-1833985D02*
Y-1833956D01*
X-2603098Y-1833993D02*
X-2603089Y-1833983D01*
Y-1833950D01*
X-2603096Y-1833986D02*
X-2603091Y-1833981D01*
Y-1833946D01*
X-2603150Y-1834175D02*
Y-1834146D01*
X-2603139Y-1834135D01*
X-2603078D01*
X-2603060Y-1834117D01*
X-2603207Y-1834026D02*
X-2603199D01*
X-2603063Y-1834062D02*
Y-1834048D01*
X-2603187Y-1834041D02*
X-2603187Y-1834041D01*
Y-1834022D02*
X-2603187Y-1834022D01*
X-2603085Y-1834037D02*
X-2603079D01*
X-2603093Y-1834029D02*
X-2603085Y-1834037D01*
X-2603200Y-1833994D02*
X-2603177D01*
X-2603096Y-1834064D02*
Y-1834021D01*
X-2603098Y-1834024D02*
X-2603098Y-1834024D01*
X-2603101Y-1834057D02*
Y-1834021D01*
X-2603098Y-1833993D02*
X-2603098D01*
X-2603086Y-1833985D02*
X-2603064Y-1834007D01*
Y-1834016D02*
Y-1834007D01*
X-2603064Y-1834016D02*
X-2603064Y-1834016D01*
X-2603064Y-1834029D02*
Y-1834016D01*
X-2603060Y-1834070D02*
X-2603056Y-1834066D01*
X-2603064Y-1834029D02*
X-2603056Y-1834037D01*
X-2603101Y-1833996D02*
Y-1833986D01*
X-2603103Y-1833956D02*
X-2603101D01*
X-2603111Y-1833948D02*
X-2603103Y-1833956D01*
X-2603115Y-1833943D02*
X-2603115Y-1833943D01*
X-2603116Y-1833943D02*
X-2603115D01*
X-2603111Y-1833948D02*
X-2603111D01*
X-2603113Y-1833943D02*
X-2603113Y-1833943D01*
X-2603113Y-1833943D01*
X-2603112D01*
X-2603112Y-1833946D02*
X-2603112D01*
X-2603112Y-1833946D01*
X-2603192Y-1833985D02*
Y-1833973D01*
X-2603198Y-1833967D02*
X-2603192Y-1833973D01*
X-2603094Y-1834018D02*
X-2603063Y-1834048D01*
X-2603199Y-1834026D02*
X-2603191Y-1834018D01*
X-2603184Y-1834047D02*
X-2603182Y-1834044D01*
Y-1834023D01*
X-2603096Y-1834081D02*
X-2603096Y-1834081D01*
X-2603096Y-1834081D02*
X-2603096D01*
X-2603096Y-1834081D02*
X-2603094Y-1834082D01*
X-2603094D01*
X-2603093Y-1834083D01*
X-2603087D01*
X-2603095Y-1834077D02*
X-2603084D01*
X-2603082Y-1834086D02*
X-2603081Y-1834086D01*
X-2603079D01*
X-2603079Y-1834085D01*
X-2603079Y-1834081D02*
X-2603079Y-1834081D01*
X-2603087Y-1834083D02*
X-2603083Y-1834078D01*
Y-1834078D01*
X-2603079Y-1834085D02*
X-2603077D01*
X-2603077Y-1834086D01*
X-2603075D01*
X-2603075Y-1834085D01*
X-2603079Y-1834081D02*
X-2603077D01*
X-2603077Y-1834081D01*
X-2603075D01*
X-2603075Y-1834081D01*
Y-1834085D02*
X-2603073D01*
X-2603073Y-1834086D01*
X-2603071D01*
X-2603071Y-1834085D01*
X-2603075Y-1834081D02*
X-2603073D01*
X-2603073Y-1834081D01*
X-2603071D01*
X-2603071Y-1834081D01*
Y-1834085D02*
X-2603068D01*
X-2603068Y-1834086D01*
X-2603067D01*
X-2603071Y-1834081D02*
X-2603068D01*
X-2603068Y-1834081D01*
X-2603082Y-1834075D02*
X-2603065D01*
X-2603066Y-1834077D02*
X-2603065Y-1834078D01*
Y-1834081D02*
Y-1834078D01*
X-2603083Y-1834078D02*
X-2603081Y-1834077D01*
X-2603066D01*
X-2603082Y-1834081D02*
X-2603079D01*
X-2603068D02*
X-2603066D01*
X-2603085Y-1834084D02*
X-2603082Y-1834081D01*
X-2603084Y-1834077D02*
X-2603082Y-1834075D01*
X-2603067Y-1834086D02*
X-2603065Y-1834087D01*
X-2603066Y-1834081D02*
X-2603065Y-1834083D01*
Y-1834083D02*
Y-1834083D01*
Y-1834083D02*
X-2603062Y-1834085D01*
X-2603065Y-1834081D02*
X-2603064Y-1834081D01*
X-2603063D01*
X-2603063Y-1834082D01*
Y-1834082D02*
Y-1834082D01*
Y-1834082D02*
X-2603063Y-1834082D01*
Y-1834082D02*
Y-1834082D01*
Y-1834082D02*
X-2603061Y-1834084D01*
X-2603062Y-1834081D02*
Y-1834081D01*
Y-1834081D02*
X-2603062Y-1834081D01*
Y-1834081D02*
Y-1834081D01*
Y-1834081D02*
X-2603061Y-1834083D01*
X-2603065Y-1834087D02*
X-2603057D01*
X-2603062Y-1834085D02*
X-2603058D01*
X-2603061Y-1834084D02*
X-2603058D01*
X-2603061Y-1834083D02*
X-2603059D01*
X-2603058Y-1834084D02*
X-2603057Y-1834083D01*
X-2603060Y-1834080D02*
X-2603060D01*
X-2603061Y-1834081D02*
X-2603060Y-1834080D01*
X-2603060D02*
Y-1834070D01*
X-2603063Y-1834080D02*
X-2603062Y-1834081D01*
X-2603063Y-1834080D02*
Y-1834080D01*
X-2603063Y-1834079D02*
X-2603063Y-1834080D01*
X-2603063Y-1834079D02*
Y-1834077D01*
X-2603065Y-1834075D02*
X-2603063Y-1834077D01*
X-2603059Y-1834083D02*
X-2603058Y-1834081D01*
X-2603101Y-1833986D02*
X-2603101Y-1833986D01*
Y-1833956D01*
X-2603059Y-1834062D02*
Y-1834061D01*
X-2603061Y-1834064D02*
X-2603059Y-1834062D01*
X-2603073Y-1834064D02*
X-2603061D01*
X-2603074Y-1834064D02*
X-2603073Y-1834064D01*
X-2603098Y-1834061D02*
Y-1834024D01*
X-2603090Y-1834064D02*
X-2603074D01*
X-2603092Y-1834066D02*
X-2603090Y-1834064D01*
X-2603064Y-1834075D02*
X-2603062D01*
X-2603065Y-1834074D02*
X-2603064Y-1834075D01*
X-2603097Y-1834074D02*
X-2603065D01*
X-2603100Y-1834070D02*
X-2603097Y-1834074D01*
X-2603106Y-1834070D02*
X-2603100D01*
X-2603119Y-1834057D02*
X-2603106Y-1834070D01*
X-2603099Y-1834066D02*
X-2603092D01*
X-2603100Y-1834060D02*
X-2603098Y-1834061D01*
X-2603102Y-1834060D02*
X-2603100D01*
X-2603115Y-1834080D02*
X-2603108D01*
X-2603101Y-1834086D01*
X-2603117Y-1834068D02*
X-2603100Y-1834084D01*
X-2603059Y-1834061D02*
Y-1834054D01*
X-2603015Y-1834072D02*
Y-1834062D01*
X-2603051Y-1834095D02*
Y-1834095D01*
Y-1834095D02*
X-2603047Y-1834100D01*
X-2603101Y-1834021D02*
X-2603101Y-1834020D01*
X-2603108Y-1834053D02*
Y-1834051D01*
Y-1834053D02*
X-2603102Y-1834060D01*
X-2603181Y-1834055D02*
Y-1834053D01*
X-2603119Y-1834057D02*
X-2603119D01*
X-2603121Y-1834056D02*
X-2603119Y-1834057D01*
X-2603121Y-1834056D02*
Y-1834052D01*
X-2603118Y-1834049D01*
X-2603118D01*
X-2603101Y-1834086D02*
X-2603097D01*
X-2603100Y-1834084D02*
X-2603095D01*
X-2603082Y-1834086D02*
X-2603082Y-1834086D01*
X-2603083Y-1834086D02*
X-2603082Y-1834086D01*
X-2603097Y-1834086D02*
X-2603083D01*
X-2603082Y-1834095D02*
X-2603051D01*
X-2603095Y-1834089D02*
X-2603095Y-1834088D01*
X-2603088D01*
X-2603082Y-1834095D01*
X-2603090Y-1834092D02*
X-2603089Y-1834090D01*
X-2603090Y-1834093D02*
Y-1834092D01*
X-2603107Y-1834110D02*
X-2603090Y-1834093D01*
X-2603058Y-1834081D02*
X-2603046D01*
X-2603057Y-1834083D02*
X-2603046D01*
X-2603058Y-1834085D02*
X-2603057Y-1834085D01*
X-2603057Y-1834087D02*
X-2603057Y-1834086D01*
X-2603044D01*
X-2603046Y-1834083D02*
X-2603046Y-1834083D01*
X-2603044D01*
X-2603043Y-1834083D01*
X-2603036D01*
X-2603057Y-1834085D02*
X-2603020D01*
X-2603044Y-1834086D02*
X-2603042D01*
X-2603015D01*
X-2603112Y-1833931D02*
X-2603110Y-1833930D01*
X-2603112Y-1833946D02*
X-2603112Y-1833947D01*
Y-1833947D02*
Y-1833947D01*
Y-1833946D01*
D213*
X-2603156Y-1834255D02*
X-2603151D01*
X-2603186Y-1834227D02*
X-2603164D01*
X-2603094Y-1834229D02*
X-2603072D01*
X-2603212Y-1834105D02*
X-2603200D01*
X-2603223D02*
X-2603212D01*
Y-1834078D01*
Y-1834105D02*
Y-1834105D01*
X-2603192Y-1834057D02*
X-2603192Y-1834119D01*
X-2603072Y-1834229D02*
X-2603066Y-1834234D01*
X-2603211Y-1834038D02*
X-2603192Y-1834057D01*
X-2603202Y-1834129D02*
X-2603192Y-1834119D01*
X-2603219Y-1834128D02*
X-2603218Y-1834127D01*
X-2603219Y-1834167D02*
Y-1834128D01*
X-2603223Y-1834172D02*
X-2603219Y-1834167D01*
X-2603202Y-1834145D02*
Y-1834129D01*
X-2603212Y-1834155D02*
X-2603202Y-1834145D01*
X-2603212Y-1834176D02*
Y-1834155D01*
X-2603212Y-1834176D02*
X-2603212Y-1834176D01*
X-2603212Y-1834235D02*
Y-1834176D01*
X-2603048Y-1834170D02*
X-2603044D01*
X-2603048Y-1834170D02*
X-2603048Y-1834170D01*
X-2603121Y-1834297D02*
X-2603117D01*
X-2603080Y-1833944D02*
Y-1833943D01*
X-2603080Y-1833943D02*
X-2603080Y-1833943D01*
X-2603085Y-1834177D02*
X-2603080D01*
X-2603161Y-1834173D02*
X-2603157D01*
X-2603164Y-1834227D02*
X-2603160Y-1834231D01*
X-2603080Y-1833943D02*
Y-1833939D01*
X-2603132Y-1834195D02*
X-2603131D01*
X-2603134Y-1834196D02*
X-2603132Y-1834195D01*
X-2603139Y-1834238D02*
Y-1834235D01*
X-2603041Y-1834194D02*
X-2603039D01*
X-2603042Y-1834195D02*
X-2603041Y-1834194D01*
X-2603048Y-1834242D02*
X-2603048Y-1834242D01*
X-2603048Y-1834242D02*
Y-1834238D01*
X-2603036Y-1834237D02*
X-2603032D01*
X-2603135Y-1834161D02*
X-2603131D01*
X-2603141Y-1834172D02*
Y-1834167D01*
X-2603148Y-1834207D02*
Y-1834202D01*
X-2603088Y-1833928D02*
X-2603084Y-1833924D01*
X-2603129Y-1833953D02*
Y-1833953D01*
X-2603125Y-1834281D02*
X-2603119D01*
X-2603033Y-1834137D02*
Y-1834131D01*
X-2603139Y-1834291D02*
Y-1834259D01*
X-2603156Y-1834243D02*
X-2603139Y-1834259D01*
X-2603183Y-1834243D02*
X-2603156D01*
X-2603210Y-1834038D02*
Y-1833956D01*
X-2603198Y-1833944D01*
X-2603206Y-1834021D02*
X-2603200D01*
X-2603207Y-1834021D02*
X-2603206Y-1834021D01*
X-2603133Y-1833923D02*
Y-1833920D01*
X-2603120Y-1833914D02*
X-2603105D01*
X-2603132Y-1833926D02*
X-2603120Y-1833914D01*
X-2603134Y-1833926D02*
X-2603132D01*
X-2603159Y-1833952D02*
X-2603134Y-1833926D01*
X-2603159Y-1833993D02*
Y-1833952D01*
X-2603179Y-1834012D02*
X-2603159Y-1833993D01*
X-2603195Y-1834012D02*
X-2603179D01*
X-2603200Y-1834017D02*
X-2603195Y-1834012D01*
X-2603200Y-1834021D02*
Y-1834017D01*
X-2603193Y-1834201D02*
Y-1834198D01*
X-2603196Y-1834204D02*
X-2603193Y-1834201D01*
X-2603060Y-1834137D02*
X-2603033D01*
X-2603063Y-1834139D02*
X-2603060Y-1834137D01*
X-2603087Y-1834139D02*
X-2603063D01*
X-2603123Y-1834106D02*
X-2603106Y-1834124D01*
Y-1834132D02*
Y-1834124D01*
X-2603123Y-1834046D02*
X-2603103Y-1834026D01*
Y-1834020D01*
X-2603123Y-1834106D02*
Y-1834046D01*
X-2603226Y-1834040D02*
X-2603220Y-1834046D01*
X-2603226Y-1834040D02*
Y-1834030D01*
X-2603230Y-1834026D02*
X-2603226Y-1834030D01*
X-2603230Y-1834026D02*
Y-1834024D01*
X-2603200Y-1834105D02*
X-2603199Y-1834105D01*
Y-1834106D02*
Y-1834105D01*
X-2603183Y-1834243D02*
X-2603183Y-1834243D01*
X-2603212Y-1834235D02*
X-2603204Y-1834243D01*
X-2603183D01*
X-2603084Y-1833924D02*
X-2603083D01*
X-2603082D01*
D214*
X-2603139Y-1834219D02*
Y-1834216D01*
Y-1834219D02*
X-2603138Y-1834220D01*
X-2603031Y-1834213D02*
X-2603028D01*
X-2603139Y-1834227D02*
Y-1834223D01*
X-2603010Y-1834124D02*
Y-1834121D01*
X-2603017Y-1834131D02*
X-2603010Y-1834124D01*
X-2603101Y-1834122D02*
Y-1834108D01*
D215*
X-2603033Y-1834109D02*
X-2603029Y-1834105D01*
X-2603063Y-1834106D02*
Y-1834106D01*
X-2603063Y-1834106D02*
X-2603063Y-1834106D01*
X-2603063Y-1834106D02*
X-2603063Y-1834107D01*
X-2603110Y-1833968D02*
Y-1833964D01*
X-2603114Y-1833954D02*
X-2603112Y-1833953D01*
X-2603111Y-1833963D02*
X-2603110Y-1833964D01*
X-2603029Y-1834105D02*
Y-1834100D01*
D216*
X-2603037Y-1833971D02*
Y-1833967D01*
X-2603060Y-1833978D02*
Y-1833973D01*
X-2603207Y-1834090D02*
X-2603201D01*
X-2603063Y-1833953D02*
Y-1833949D01*
X-2603029Y-1833951D02*
X-2603025Y-1833948D01*
X-2603029Y-1833951D02*
X-2603029D01*
X-2603029Y-1833958D02*
X-2603025D01*
X-2603030Y-1833926D02*
X-2603025D01*
X-2603049D02*
X-2603043D01*
X-2603082Y-1833978D02*
Y-1833974D01*
Y-1833978D02*
X-2603081Y-1833979D01*
X-2603083Y-1833958D02*
X-2603079Y-1833955D01*
X-2603078D01*
X-2603033Y-1833916D02*
X-2603024D01*
X-2603201Y-1834090D02*
X-2603199Y-1834092D01*
X-2603199Y-1834098D02*
X-2603199Y-1834098D01*
Y-1834092D01*
D217*
X-2603207Y-1834216D02*
Y-1834196D01*
X-2603208Y-1834216D02*
X-2603207Y-1834216D01*
X-2603208Y-1834217D02*
X-2603208Y-1834216D01*
X-2603201Y-1833991D02*
X-2603198Y-1833988D01*
X-2603201Y-1833991D02*
X-2603201D01*
X-2603203Y-1833993D02*
X-2603201Y-1833991D01*
X-2603203Y-1833993D02*
Y-1833993D01*
X-2603204Y-1833994D02*
X-2603203Y-1833993D01*
X-2603198Y-1833988D02*
Y-1833983D01*
X-2603205Y-1833994D02*
X-2603204D01*
X-2603215Y-1834175D02*
Y-1834130D01*
X-2603206Y-1834195D02*
Y-1834183D01*
X-2603207Y-1834196D02*
X-2603206Y-1834195D01*
Y-1834183D02*
X-2603206Y-1834182D01*
X-2603214Y-1834048D02*
Y-1834006D01*
Y-1834048D02*
X-2603197Y-1834064D01*
Y-1834089D02*
Y-1834064D01*
Y-1834089D02*
X-2603196Y-1834091D01*
X-2603215Y-1834130D02*
X-2603196Y-1834111D01*
Y-1834091D01*
X-2603209Y-1834232D02*
Y-1834217D01*
Y-1834232D02*
X-2603202Y-1834239D01*
X-2603200D01*
D218*
X-2603134Y-1834249D02*
Y-1834245D01*
X-2603191Y-1833886D02*
X-2603191Y-1833887D01*
X-2603039D01*
D219*
X-2603054Y-1834073D02*
X-2603053D01*
X-2603052Y-1834072D01*
X-2603050D01*
X-2603044Y-1834071D02*
Y-1834070D01*
X-2603049Y-1834071D02*
X-2603044D01*
X-2603050Y-1834072D02*
X-2603049Y-1834071D01*
X-2603094Y-1834072D02*
X-2603062D01*
X-2603098Y-1834067D02*
X-2603094Y-1834072D01*
X-2603102Y-1834067D02*
X-2603098D01*
X-2603102Y-1834067D02*
X-2603102Y-1834067D01*
X-2603104Y-1834067D02*
X-2603102D01*
X-2603117Y-1834054D02*
X-2603104Y-1834067D01*
X-2603118Y-1834054D02*
X-2603117D01*
X-2603223Y-1834142D02*
Y-1834127D01*
X-2603103Y-1834094D02*
X-2603095D01*
X-2603111Y-1834086D02*
X-2603103Y-1834094D01*
X-2603119Y-1834086D02*
X-2603111D01*
D220*
X-2603216Y-1834097D02*
Y-1834086D01*
X-2603216Y-1834097D02*
X-2603216Y-1834097D01*
X-2603033Y-1833916D02*
Y-1833913D01*
X-2603023Y-1833903D01*
Y-1833895D01*
M02*
