G04 Layer_Physical_Order=4*
G04 Layer_Color=16711680*
%FSLAX25Y25*%
%MOIN*%
G70*
G01*
G75*
%ADD22C,0.05512*%
%ADD58C,0.04724*%
%ADD62C,0.00787*%
%ADD63C,0.00800*%
%ADD64C,0.01496*%
%ADD65C,0.01968*%
%ADD66C,0.02000*%
%ADD67C,0.01181*%
%ADD68C,0.03000*%
%ADD70C,0.01500*%
%ADD71C,0.02362*%
%ADD74C,0.01000*%
%ADD75C,0.01600*%
%ADD90C,0.00050*%
%ADD91C,0.08268*%
%ADD92R,0.05512X0.05512*%
%ADD93C,0.17716*%
%ADD94R,0.07087X0.09842*%
%ADD95O,0.07087X0.09842*%
%ADD96C,0.10630*%
%ADD97C,0.35433*%
%ADD98C,0.02362*%
%ADD99C,0.02800*%
%ADD100C,0.02000*%
%ADD101C,0.01968*%
%ADD113C,0.05118*%
G36*
X560405Y447736D02*
X422838D01*
X422247Y448327D01*
X423527Y449606D01*
Y570177D01*
X424511D01*
X476676Y622342D01*
X476676D01*
X476676Y622342D01*
X476922Y622736D01*
X560405D01*
Y447736D01*
D02*
G37*
D22*
X230416Y323032D02*
D03*
X260226Y561859D02*
D03*
X392115Y563434D02*
D03*
X278533Y499358D02*
D03*
X382385Y601279D02*
D03*
X397936Y625591D02*
D03*
X383369Y620669D02*
D03*
X397247Y601279D02*
D03*
X294295Y574902D02*
D03*
X403546Y646161D02*
D03*
X393409Y657185D02*
D03*
X429629Y643946D02*
D03*
X216525Y495619D02*
D03*
X185521Y472686D02*
D03*
X390653Y356299D02*
D03*
X395180Y367421D02*
D03*
X395672Y378445D02*
D03*
X338291Y389567D02*
D03*
X339373Y362500D02*
D03*
X498428Y729430D02*
D03*
X473133Y718800D02*
D03*
X513685Y692272D02*
D03*
X513586Y702705D02*
D03*
X494983Y686516D02*
D03*
X497838Y658512D02*
D03*
X477937Y696505D02*
D03*
X477071Y656642D02*
D03*
X447838Y668060D02*
D03*
X417326Y646260D02*
D03*
X445968Y706595D02*
D03*
X424807Y716682D02*
D03*
X443409Y681052D02*
D03*
X475102Y711367D02*
D03*
X361505Y452016D02*
D03*
X360816Y524063D02*
D03*
X270265Y477606D02*
D03*
Y455559D02*
D03*
X267706Y526524D02*
D03*
X377254Y457134D02*
D03*
X274694Y445323D02*
D03*
X284045Y412842D02*
D03*
X369773Y500047D02*
D03*
X381683Y481248D02*
D03*
X375974Y563236D02*
D03*
X324301Y517173D02*
D03*
X260915Y486661D02*
D03*
X270265Y466583D02*
D03*
X278926Y532823D02*
D03*
X252352Y521405D02*
D03*
X257666Y439123D02*
D03*
X227942Y467468D02*
D03*
X286761Y397370D02*
D03*
X498428Y718899D02*
D03*
X521165Y665304D02*
D03*
X479531Y680757D02*
D03*
X452070Y638779D02*
D03*
X386558Y345000D02*
D03*
X332542D02*
D03*
X341558D02*
D03*
X377542D02*
D03*
X345456Y325984D02*
D03*
X349472Y318976D02*
D03*
X353487Y325984D02*
D03*
X357503Y318976D02*
D03*
X361519Y325984D02*
D03*
X365535Y318976D02*
D03*
X369550Y325984D02*
D03*
D58*
X331092Y558611D02*
D03*
X452071Y655166D02*
D03*
X421362Y668552D02*
D03*
X423035Y684398D02*
D03*
X441539Y693158D02*
D03*
X334537Y465501D02*
D03*
X457877Y647342D02*
D03*
D62*
X534058Y388799D02*
X535043Y387815D01*
X532090Y384154D02*
X532365D01*
X504924Y411319D02*
X532090Y384154D01*
X420476Y444901D02*
X424511Y440865D01*
Y428543D02*
Y440865D01*
X420476Y582776D02*
X439767Y602067D01*
X420476Y444901D02*
Y582776D01*
X474806Y399705D02*
X477365D01*
X473232Y401279D02*
X474806Y399705D01*
X447838Y401279D02*
X473232D01*
X415850Y433268D02*
X447838Y401279D01*
X389865Y389665D02*
X389964Y389764D01*
X420755Y594079D02*
X465391Y638715D01*
X320098Y594079D02*
X420755D01*
X465391Y638715D02*
X465786D01*
X341243Y533957D02*
X399117D01*
X368409Y596063D02*
X415850D01*
X401972Y638484D02*
X403546Y640059D01*
Y646161D01*
X304432Y594882D02*
Y595866D01*
X304743Y596177D01*
X355023Y577756D02*
X362799Y569980D01*
X383369Y620669D02*
X384058Y621358D01*
X400102D01*
X343820Y608852D02*
X344318Y609350D01*
X341828Y608852D02*
X343820D01*
X341047Y608071D02*
X341828Y608852D01*
X319708Y608071D02*
X341047D01*
X307976Y555118D02*
Y556201D01*
X304419Y551561D02*
X307976Y555118D01*
X311027Y511221D02*
Y555905D01*
X447838Y668060D02*
Y672292D01*
X445476Y683316D02*
Y683316D01*
X443606Y681445D02*
X445476Y683316D01*
X446952Y673178D02*
X447838Y672292D01*
X397247Y601279D02*
Y605512D01*
X403251Y611516D01*
X422346Y626575D02*
X431598D01*
X404334Y608957D02*
X422346Y626575D01*
X316688Y600937D02*
X316688D01*
X319468Y607874D02*
X319490Y607853D01*
X397936Y625591D02*
X403251D01*
X404236Y626575D01*
X316047Y600295D02*
X316688Y600937D01*
X318310Y602559D02*
X339166D01*
X316688Y600937D02*
X318310Y602559D01*
X319490Y607853D02*
X319708Y608071D01*
X481972Y424823D02*
X500377D01*
X504826Y420374D01*
X357484Y318996D02*
Y353248D01*
Y318996D02*
X357503Y318976D01*
X359944Y332776D02*
X361519Y331201D01*
Y325984D02*
Y331201D01*
X362572Y379990D02*
X394127D01*
X395672Y378445D01*
X359944Y332776D02*
Y358661D01*
X364570Y371063D02*
X391539D01*
X395180Y367421D01*
X365161Y345965D02*
X373822Y354626D01*
X388980D01*
X390653Y356299D01*
X338291Y389567D02*
X343113D01*
X344984Y387697D01*
X344688Y367815D02*
Y372638D01*
X339373Y362500D02*
X344688Y367815D01*
X305796Y437252D02*
Y499682D01*
X304419Y501060D02*
X305796Y499682D01*
X304419Y501060D02*
Y551561D01*
X344688Y372638D02*
Y382087D01*
X344984Y387697D02*
Y398065D01*
X305796Y437252D02*
X344984Y398065D01*
X344688Y382087D02*
X347543Y384941D01*
Y400394D01*
X326531Y421405D02*
X347543Y400394D01*
X325372Y421405D02*
X326531D01*
X308566Y438211D02*
X325372Y421405D01*
X308566Y438211D02*
Y508760D01*
X311027Y511221D01*
X192720Y460735D02*
X196854Y456601D01*
X366539Y589764D02*
X383960Y572342D01*
Y563779D02*
Y572342D01*
X352267Y575886D02*
X367720Y560433D01*
X368704D01*
X368999Y547441D02*
X379137Y537303D01*
X323970Y551230D02*
X341047Y534154D01*
X341243Y533957D01*
X379137Y537303D02*
X379236Y537402D01*
X400299D01*
X415850Y433268D02*
Y433760D01*
X433271Y423425D02*
X445377Y411319D01*
X504924D01*
X469869Y680237D02*
X472536Y682904D01*
X467769Y646408D02*
X467917Y646260D01*
X467769Y647096D02*
X468015Y646850D01*
X467769Y646604D02*
X468015Y646850D01*
X467769Y646408D02*
Y646604D01*
X313881Y597835D02*
X314192Y597524D01*
X366177D01*
X319491Y594685D02*
X320098Y594079D01*
X367374Y598721D02*
X379826D01*
X382385Y601279D01*
X366177Y597524D02*
X367374Y598721D01*
X365357Y599606D02*
X365850Y600098D01*
X366932D01*
X372981Y606147D01*
X390161Y609350D02*
X390751Y608957D01*
X387213Y608916D02*
X387648Y609350D01*
X390161D01*
X404236Y623279D02*
X405334Y622180D01*
X404236Y623279D02*
Y626575D01*
X400102Y621358D02*
X403350D01*
X405334Y620193D02*
Y622180D01*
X401267Y612338D02*
X402429Y613500D01*
X398511Y613370D02*
Y613479D01*
X401288Y616256D01*
X401397D01*
X405334Y620193D01*
X393788Y608646D02*
X398511Y613370D01*
X390327Y601279D02*
X401267Y612220D01*
Y612338D01*
X382385Y601279D02*
X390327D01*
X372981Y606147D02*
X388591D01*
X389452Y605287D01*
X399889Y612908D02*
X401859Y614878D01*
X401968D01*
X406712Y619622D01*
Y620587D01*
X415161Y629035D01*
X416440D01*
X402429Y613500D02*
X403711D01*
X344318Y609350D02*
X363384D01*
X363819Y608916D01*
X387213D01*
X393409Y653346D02*
Y657185D01*
Y653346D02*
X393507Y653248D01*
X452070Y638779D02*
X456696D01*
X458960Y641043D01*
X449314Y626702D02*
Y628248D01*
X429517Y606904D02*
X449314Y626702D01*
X446066Y626279D02*
Y626673D01*
X408369Y601772D02*
X419393D01*
X442720Y625098D01*
X415850Y596063D02*
X446066Y626279D01*
X413291Y607185D02*
X413684Y606791D01*
X413980Y607087D02*
X419787D01*
X442720Y625098D02*
Y627658D01*
X446361Y631299D01*
X469869Y647212D02*
X469999Y647082D01*
X469869Y647212D02*
Y680237D01*
X446361Y631299D02*
X455810D01*
X454842Y633480D02*
X467769Y646408D01*
X464964Y640453D02*
Y640699D01*
X455810Y631299D02*
X464964Y640453D01*
X192720Y535580D02*
X193113Y535973D01*
X192720Y460735D02*
Y535580D01*
X189767Y522679D02*
Y538532D01*
X190259Y460138D02*
Y522187D01*
X189767Y522679D02*
X190259Y522187D01*
X196854Y454528D02*
Y456601D01*
X190259Y460138D02*
X194393Y456004D01*
X389373Y427658D02*
Y506791D01*
X362799Y569980D02*
X379728D01*
X426972Y439567D02*
X506893D01*
X506972Y439488D01*
X314570Y607874D02*
X319468D01*
X342424Y649114D02*
X393212D01*
X435141Y399508D02*
Y409350D01*
X465786Y638715D02*
X469999Y642928D01*
Y647082D01*
X331598Y551968D02*
X388783D01*
X396755Y543996D01*
X398330D01*
X383960Y563779D02*
X397989Y549750D01*
Y549681D02*
Y549750D01*
X389452Y605287D02*
X392385D01*
X399889Y612790D01*
Y612908D01*
X311716Y575087D02*
Y615846D01*
X324511Y628642D01*
X309944Y568209D02*
Y617421D01*
X320771Y628248D01*
X311716Y575087D02*
X312700Y574103D01*
Y565650D02*
Y574103D01*
X386716Y509449D02*
Y525787D01*
Y509449D02*
X389373Y506791D01*
X403711Y613500D02*
X418802Y628591D01*
Y630315D01*
X366047Y615846D02*
X383369Y633169D01*
X414028D01*
X416145Y631791D02*
X417326D01*
X417262Y633480D02*
X454842D01*
X417326Y631791D02*
X418802Y630315D01*
X414028Y633169D02*
X414339Y633480D01*
X415028D01*
X415323Y633776D01*
X416967D01*
X417262Y633480D01*
X472536Y682904D02*
Y686909D01*
X413684Y606791D02*
X413980Y607087D01*
X332779Y639468D02*
X342424Y649114D01*
X424511Y428543D02*
X434747Y418307D01*
X435141Y409350D02*
X435535Y409744D01*
X271460Y322835D02*
Y350787D01*
X259255Y362992D02*
X271460Y350787D01*
X259255Y362992D02*
Y362992D01*
X377857Y416142D02*
X389373Y427658D01*
X377857Y392618D02*
Y416142D01*
D63*
X321854Y614961D02*
X346361D01*
X445869Y703197D02*
X450496D01*
X444885D02*
X445869D01*
X302956Y593405D02*
X304432Y594882D01*
X302956Y585367D02*
Y593405D01*
X348048Y575568D02*
X348282D01*
X331092Y558611D02*
X348048Y575568D01*
X339559Y602559D02*
X344874Y607874D01*
X343246Y610297D02*
X344046Y611097D01*
X343944Y612949D02*
X344406Y612487D01*
X346361Y614961D02*
X347444Y613878D01*
X324643Y612949D02*
X343944D01*
X339166Y602559D02*
X339559D01*
X324643Y612949D02*
X324763Y613069D01*
X324874Y610236D02*
X343246D01*
X436913Y703197D02*
X445869Y703197D01*
X419397Y685681D02*
X436913Y703197D01*
X445869Y703197D02*
Y704674D01*
X444755Y691264D02*
X444755D01*
X237095Y539812D02*
X238178D01*
X260226Y561859D01*
X265208D01*
X457483Y703000D02*
X457877D01*
X449511Y695028D02*
X457483Y703000D01*
X444755Y691264D02*
X444845Y691173D01*
X417818Y670126D02*
X419586Y671894D01*
Y680168D01*
X419397Y680358D02*
Y685681D01*
Y680358D02*
X419586Y680168D01*
X413291Y649654D02*
Y688749D01*
X438665Y714123D02*
X445341D01*
X413291Y688749D02*
X438665Y714123D01*
X447186D02*
X448133D01*
X447081Y714018D02*
X447186Y714123D01*
X445445Y714018D02*
X447081D01*
X445341Y714123D02*
X445445Y714018D01*
X453940Y702705D02*
Y708316D01*
X448133Y714123D02*
X453940Y708316D01*
X417818Y653689D02*
Y670126D01*
X441539Y693158D02*
X441539Y693158D01*
X423133Y683709D02*
X425299Y681544D01*
X460436Y657529D02*
Y659891D01*
X424610Y668453D02*
X424905Y668749D01*
X420870Y668650D02*
X420968Y668749D01*
X442941Y692863D02*
X444566D01*
X259438Y518552D02*
Y548178D01*
X269871Y558611D01*
X442646Y693158D02*
X442941Y692863D01*
X441539Y693158D02*
X442646D01*
X444566Y692863D02*
X444861Y693158D01*
X444871Y693148D01*
X445663D01*
X445476Y689517D02*
X445690D01*
X445762Y689445D01*
X445476Y689517D02*
X445762Y689230D01*
Y689112D02*
Y689230D01*
Y689445D01*
X301495Y583906D02*
X302956Y585367D01*
X346349Y614973D02*
X346361Y614961D01*
X185766Y474851D02*
X186013Y475098D01*
X323024Y558611D02*
X323096Y558683D01*
X324745D01*
X324817Y558611D01*
X331092D01*
X269871D02*
X323024D01*
X466736Y689812D02*
X472740Y695816D01*
X471657Y650934D02*
X471768Y651045D01*
Y680178D01*
X474905Y683315D01*
Y690501D01*
X473035Y692371D02*
X474905Y690501D01*
X468485Y685655D02*
X472200Y689370D01*
X384544Y613478D02*
X384550Y613484D01*
X457096Y654141D02*
Y659609D01*
X455824Y660881D02*
X457096Y659609D01*
X447444Y655166D02*
X448134D01*
X448134Y655166D01*
X452071D01*
X460386Y649851D02*
X463437D01*
X466736Y653150D01*
Y689812D01*
X457877Y647342D02*
X460386Y649851D01*
X388822Y607874D02*
X390025Y606671D01*
X387787Y607531D02*
X388129Y607874D01*
X388822D01*
X390025Y606671D02*
X391812D01*
X393788Y608646D01*
X386064Y611691D02*
X391204Y616831D01*
X392720D01*
X386640Y610300D02*
X388840Y612500D01*
X391243D01*
X400102Y621358D01*
X344874Y607874D02*
X362903D01*
X363245Y607531D01*
X387787D01*
X344046Y611097D02*
X363595D01*
X364392Y610300D01*
X386640D01*
X344406Y612487D02*
X364171D01*
X364968Y611691D01*
X386064D01*
X347444Y613878D02*
X364747D01*
X365147Y613478D01*
X384544D01*
X417326Y641732D02*
Y645619D01*
X417228Y638386D02*
Y641634D01*
X417326Y641732D01*
X468485Y650568D02*
Y685655D01*
X458960Y641043D02*
X468485Y650568D01*
X216894Y476008D02*
X259438Y518552D01*
X204223Y476008D02*
X216894D01*
X283250Y561655D02*
X283454Y561859D01*
X265208D02*
X265412Y561655D01*
X283250D01*
X319737Y613069D02*
X324763D01*
X320152Y610433D02*
X324874D01*
X429728Y638335D02*
X430023Y638630D01*
Y676532D02*
X444755Y691264D01*
X450889Y647933D02*
X457096Y654141D01*
X455824Y660881D02*
Y679168D01*
X446481Y691173D02*
X449511Y694203D01*
X444845Y691173D02*
X446481D01*
X449511Y694203D02*
Y695028D01*
X422641Y683709D02*
X423133D01*
X186013Y475098D02*
Y478099D01*
X445762Y689230D02*
X455824Y679168D01*
X460436Y657529D02*
X462405Y655560D01*
X413291Y649654D02*
X417326Y645619D01*
X430023Y638630D02*
Y676532D01*
X445869Y704674D02*
X447076Y705880D01*
X420968Y668749D02*
X424905D01*
D64*
X489471Y729331D02*
X498328D01*
X495082Y682823D02*
X495082Y682824D01*
X497838Y658020D02*
X497838Y658020D01*
X510043Y699162D02*
X513586Y702705D01*
X509551Y699162D02*
X510043D01*
X509452Y692272D02*
X513685D01*
X520968Y669142D02*
X520968Y669142D01*
X492521Y718799D02*
X492523Y718800D01*
X496952D01*
X473134Y718799D02*
X479431D01*
X475299Y658414D02*
Y661367D01*
Y658414D02*
X477071Y656642D01*
X475201Y677409D02*
X478548Y680757D01*
X479531D01*
X452745Y367568D02*
X452844Y367666D01*
Y374162D01*
X444491Y376279D02*
X450726D01*
X452844Y374162D01*
X520968Y664812D02*
Y669142D01*
X497838Y658020D02*
Y662548D01*
X495082Y682824D02*
Y687154D01*
D65*
X380920Y665059D02*
X437661Y721800D01*
X439428Y362283D02*
X440147Y361564D01*
X439428Y362283D02*
Y387763D01*
X440147Y361564D02*
X451761D01*
X440147Y361269D02*
Y361564D01*
X337253Y465598D02*
X343080Y459771D01*
X361012Y523867D02*
X365442D01*
X360816Y524063D02*
X361012Y523867D01*
X477937Y692469D02*
X477956Y692450D01*
X324301Y517173D02*
X329222D01*
X247726Y521405D02*
X252352D01*
X245363Y467272D02*
X249498Y463138D01*
X477937Y692469D02*
Y696505D01*
X276565Y499358D02*
X278533D01*
X274891Y497685D02*
X276565Y499358D01*
X270265Y455559D02*
Y458905D01*
X367631Y500047D02*
X369773D01*
X366586Y499002D02*
X367631Y500047D01*
X361407Y452114D02*
X361505Y452016D01*
X361407Y452114D02*
Y455559D01*
X372923Y457527D02*
X376860D01*
X274399Y532724D02*
X278533D01*
X267706Y521996D02*
Y526523D01*
X260915Y486661D02*
Y492468D01*
X469787Y707429D02*
X473725Y711367D01*
X429074Y682760D02*
Y682857D01*
X284045Y412842D02*
X290442D01*
X260915Y492468D02*
X260915Y492468D01*
X424807Y715500D02*
X424807Y715500D01*
X424807Y712843D02*
Y715500D01*
X437661Y721800D02*
X452759D01*
X216525Y492962D02*
Y495619D01*
X213375Y489812D02*
X216525Y492962D01*
X451761Y361564D02*
X452647Y360678D01*
Y360481D02*
Y360678D01*
X440147Y361269D02*
X440147Y361269D01*
X473725Y711367D02*
X475102D01*
X476086D01*
X477956Y691583D02*
Y692450D01*
X251480Y437894D02*
X256143D01*
X257765Y439516D01*
X222922Y467272D02*
X245363D01*
X315541Y465598D02*
X337253D01*
D66*
X523625Y381594D02*
Y381693D01*
X523330Y381299D02*
X523625Y381594D01*
X523330Y381299D02*
X523625Y381004D01*
X535043Y369193D02*
Y387815D01*
X340554Y665059D02*
X380920D01*
X277973Y602478D02*
X340554Y665059D01*
X277973Y586417D02*
Y602478D01*
X493743Y435433D02*
X540653D01*
X491972Y437008D02*
X493645Y435335D01*
X413684Y728543D02*
X488683D01*
X489175Y729035D01*
X493645Y435335D02*
X493743Y435433D01*
D67*
X377844Y481149D02*
X380600D01*
X270363Y474949D02*
X271545Y473768D01*
X270167Y470618D02*
X270167Y470618D01*
X270167Y467272D02*
Y470618D01*
X398710Y570029D02*
Y573276D01*
X392115Y563434D02*
X398710Y570029D01*
X270363Y474949D02*
Y477606D01*
D68*
X523625Y368209D02*
Y381004D01*
Y368209D02*
X523822Y368012D01*
X543802Y323031D02*
Y401280D01*
X528546Y416536D02*
X543802Y401280D01*
X434951Y390854D02*
X502850D01*
X431598Y387500D02*
X434951Y390854D01*
X429432Y387500D02*
X431598D01*
X502850Y390854D02*
X507779Y385925D01*
X431539Y396417D02*
X439216D01*
X429629Y398327D02*
X431539Y396417D01*
X440328Y395374D02*
X473585D01*
X440294Y395339D02*
X440328Y395374D01*
X439216Y396417D02*
X440294Y395339D01*
X473585Y395374D02*
X473782Y395571D01*
X389964Y389764D02*
Y398079D01*
X386519Y401523D02*
X389964Y398079D01*
X291762Y397370D02*
X338854D01*
X344393Y356693D02*
X353487Y347598D01*
X316179Y356693D02*
X344393D01*
X270560Y402312D02*
X316179Y356693D01*
X353487Y325984D02*
Y347598D01*
X288041Y397370D02*
X291762D01*
X473782Y395571D02*
X511420D01*
D70*
X418212Y588583D02*
X420574D01*
X294295Y574902D02*
X297346Y577953D01*
Y589272D01*
X375974Y557134D02*
Y563236D01*
X294295Y574902D02*
X296854D01*
X386125Y487992D02*
Y493405D01*
X360830Y518701D02*
X386125Y493405D01*
X352464Y518701D02*
X360830D01*
X318901Y552264D02*
X352464Y518701D01*
X318901Y552264D02*
Y555610D01*
X375974Y557134D02*
X387259D01*
X413094Y583465D02*
X418212Y588583D01*
X398380Y546654D02*
X399266Y547539D01*
X387259Y557134D02*
X395648Y548744D01*
Y548711D02*
Y548744D01*
Y548711D02*
X397706Y546654D01*
X398380D01*
X399266Y547539D02*
X400200D01*
X413094Y560433D01*
Y583465D01*
X420574Y588583D02*
X443015Y611024D01*
Y613189D01*
X296854Y574902D02*
X308446Y563309D01*
X325320D02*
X334157Y572146D01*
X308446Y563309D02*
X325320D01*
D71*
X245889Y737693D02*
X400389D01*
X245889D02*
Y897193D01*
X241145Y732972D02*
X404389D01*
Y897193D01*
X241145Y732972D02*
Y901870D01*
X245889Y897193D02*
X404389D01*
X413636Y729193D02*
Y906693D01*
X236420D02*
X413636D01*
X241145Y901870D02*
X409036D01*
X274694Y445323D02*
Y449161D01*
X409036Y728248D02*
Y901870D01*
X236420Y728248D02*
Y906693D01*
Y728248D02*
X409036D01*
D74*
X454737Y331801D02*
Y362293D01*
X445771Y322835D02*
X454737Y331801D01*
X452745Y364285D02*
X454737Y362293D01*
X452745Y364285D02*
Y367568D01*
D75*
X251775Y316043D02*
Y322835D01*
X230416Y323032D02*
X251578D01*
X251775Y322835D01*
X220869Y528248D02*
X222543Y526575D01*
X222335D02*
X222543D01*
X194983Y499224D02*
X222335Y526575D01*
X194983Y461614D02*
Y499224D01*
X199413Y419783D02*
Y457185D01*
X194983Y461614D02*
X199413Y457185D01*
X251775Y316043D02*
X255318Y312500D01*
X297050D01*
X299019Y314469D01*
X392437Y311910D02*
Y312243D01*
Y311910D02*
X458271D01*
X343263Y311417D02*
X375838D01*
X299019Y314469D02*
X328889D01*
X221209Y528587D02*
Y538558D01*
X220869Y528248D02*
X221209Y528587D01*
X458271Y311910D02*
X465751Y319390D01*
Y350787D01*
X448021Y351969D02*
X452365D01*
X442115Y357874D02*
X448021Y351969D01*
X465751Y350787D02*
X476184Y361221D01*
X526480D01*
X337817Y316863D02*
X343263Y311417D01*
X328889Y314469D02*
X331284Y316863D01*
X337817D01*
X387653Y317028D02*
X392437Y312243D01*
X375838Y311417D02*
X381448Y317028D01*
X387653D01*
X526480Y361221D02*
X534452Y369193D01*
X535043D01*
D90*
X127365Y1018898D02*
G03*
X127365Y1018898I-8858J0D01*
G01*
X540751D02*
G03*
X540751Y1018898I-8858J0D01*
G01*
X531893D02*
X541145D01*
X118507D02*
X127759D01*
X109255D02*
X118507D01*
X522641D02*
X531893D01*
Y1028150D01*
Y1009646D02*
Y1018898D01*
X118507D02*
Y1028150D01*
Y1009646D02*
Y1018898D01*
D91*
X327542Y322480D02*
D03*
X391558D02*
D03*
D92*
X373566Y318976D02*
D03*
D93*
X531893Y1018898D02*
D03*
X118507D02*
D03*
X117917Y330807D02*
D03*
D94*
X157385Y324016D02*
D03*
X435928Y322835D02*
D03*
X251775D02*
D03*
X533960Y323031D02*
D03*
D95*
X167228Y324016D02*
D03*
X445771Y322835D02*
D03*
X261617D02*
D03*
X271460D02*
D03*
X281302D02*
D03*
X543802Y323031D02*
D03*
D96*
X266539Y297933D02*
D03*
D97*
X497346Y330610D02*
D03*
D98*
X430121Y621358D02*
D03*
X539472Y373799D02*
D03*
X546460Y512894D02*
D03*
X475889Y595965D02*
D03*
X500102Y485827D02*
D03*
Y477756D02*
D03*
X479531Y486122D02*
D03*
X509058Y499902D02*
D03*
X479334Y493110D02*
D03*
X425692Y540551D02*
D03*
X431598Y536122D02*
D03*
X425791Y530512D02*
D03*
X431795Y525197D02*
D03*
X425791Y519783D02*
D03*
X425987Y509154D02*
D03*
X431204Y504528D02*
D03*
X426086Y499114D02*
D03*
X431598Y494488D02*
D03*
X426086Y488386D02*
D03*
X431893Y482874D02*
D03*
X425987Y475295D02*
D03*
X431499Y470374D02*
D03*
X426086Y465256D02*
D03*
X431598Y449803D02*
D03*
X534846Y522146D02*
D03*
X554039Y462402D02*
D03*
X553842Y471850D02*
D03*
X553546Y489961D02*
D03*
X553645Y500394D02*
D03*
Y479823D02*
D03*
X533566Y511614D02*
D03*
X538881Y461122D02*
D03*
X539078Y472835D02*
D03*
X533665Y467717D02*
D03*
Y456988D02*
D03*
X533566Y477756D02*
D03*
X539176Y452264D02*
D03*
X539472Y485335D02*
D03*
X539176Y496949D02*
D03*
X538783Y506988D02*
D03*
X533665Y501575D02*
D03*
Y490846D02*
D03*
X539373Y527658D02*
D03*
X484550Y551181D02*
D03*
X449905Y454646D02*
D03*
X444393Y470098D02*
D03*
X449806Y475217D02*
D03*
X444295Y480138D02*
D03*
X450200Y487717D02*
D03*
X449905Y499331D02*
D03*
X444393Y503957D02*
D03*
X449511Y509370D02*
D03*
X444295Y513996D02*
D03*
X449905Y519213D02*
D03*
X444098Y524626D02*
D03*
X450102Y530039D02*
D03*
X444098Y535354D02*
D03*
X451184Y554724D02*
D03*
X443999Y545394D02*
D03*
X449610Y463504D02*
D03*
X444393Y459370D02*
D03*
X459747Y521949D02*
D03*
X468606Y522244D02*
D03*
X480318Y522047D02*
D03*
X492818Y521654D02*
D03*
X504432Y521949D02*
D03*
X514472Y522342D02*
D03*
X524314Y521949D02*
D03*
X546066D02*
D03*
X464472Y527461D02*
D03*
X475200D02*
D03*
X485239Y527559D02*
D03*
X498330Y527461D02*
D03*
X509058D02*
D03*
X519098Y527559D02*
D03*
X529728Y527756D02*
D03*
X550495Y527854D02*
D03*
X545673Y537795D02*
D03*
X534747Y537598D02*
D03*
X523920Y537795D02*
D03*
X514078Y538189D02*
D03*
X504039Y537795D02*
D03*
X492424Y537500D02*
D03*
X479924Y537894D02*
D03*
X455712Y537795D02*
D03*
X464078Y543307D02*
D03*
X474806D02*
D03*
X484846Y543405D02*
D03*
X497936Y543307D02*
D03*
X508665D02*
D03*
X518704Y543405D02*
D03*
X529334Y543602D02*
D03*
X540062D02*
D03*
X550102Y543701D02*
D03*
X496755Y551476D02*
D03*
X472543Y552067D02*
D03*
X463684Y551772D02*
D03*
X468409Y557283D02*
D03*
X479137D02*
D03*
X489176Y557382D02*
D03*
X502267Y557283D02*
D03*
X508369Y551772D02*
D03*
X512995Y557283D02*
D03*
X518409Y552165D02*
D03*
X528251Y551772D02*
D03*
X523035Y557382D02*
D03*
X533665Y557579D02*
D03*
X539078Y551575D02*
D03*
X544393Y557579D02*
D03*
X554432Y557677D02*
D03*
X508369Y566339D02*
D03*
X468409Y571850D02*
D03*
X472543Y566634D02*
D03*
X484255Y566437D02*
D03*
X479137Y571850D02*
D03*
X489176Y571949D02*
D03*
X496755Y566043D02*
D03*
X502267Y571850D02*
D03*
X512995D02*
D03*
X518409Y566732D02*
D03*
X550003Y566339D02*
D03*
X554432Y572244D02*
D03*
X544393Y572146D02*
D03*
X539078Y566142D02*
D03*
X533665Y572146D02*
D03*
X523035Y571949D02*
D03*
X528251Y566339D02*
D03*
X554924Y587402D02*
D03*
X472739Y581201D02*
D03*
X484452Y581004D02*
D03*
X479334Y586417D02*
D03*
X489373Y586516D02*
D03*
X496952Y580610D02*
D03*
X508566Y580905D02*
D03*
X518606Y581299D02*
D03*
X523232Y586516D02*
D03*
X513192Y586417D02*
D03*
X502464D02*
D03*
X533861Y586713D02*
D03*
X528448Y580905D02*
D03*
X539275Y580709D02*
D03*
X544590Y586713D02*
D03*
X550200Y580905D02*
D03*
X465948Y596457D02*
D03*
X487602Y595768D02*
D03*
X500102Y595374D02*
D03*
X511716Y595669D02*
D03*
X521755Y596063D02*
D03*
X531598Y595669D02*
D03*
X542424Y595472D02*
D03*
X553350Y595669D02*
D03*
X482483Y601181D02*
D03*
X492523Y601279D02*
D03*
X505613Y601181D02*
D03*
X516342D02*
D03*
X526381Y601279D02*
D03*
X537011Y601476D02*
D03*
X490259Y510532D02*
D03*
X479531D02*
D03*
X509354Y477756D02*
D03*
X509058Y485827D02*
D03*
X488881Y477953D02*
D03*
X509354Y492913D02*
D03*
X489078Y486122D02*
D03*
X479531Y477953D02*
D03*
X479334Y500197D02*
D03*
X500299Y493110D02*
D03*
X489669Y500394D02*
D03*
Y493110D02*
D03*
X500299Y499902D02*
D03*
X475200Y608661D02*
D03*
X486913Y608465D02*
D03*
X481795Y613878D02*
D03*
X471066D02*
D03*
X491834Y613976D02*
D03*
X466342Y608366D02*
D03*
X499413Y608071D02*
D03*
X511027Y608366D02*
D03*
X521066Y608760D02*
D03*
X525692Y613976D02*
D03*
X515653Y613878D02*
D03*
X504924D02*
D03*
X536322Y614173D02*
D03*
X530909Y608366D02*
D03*
X541736Y608169D02*
D03*
X547050Y614173D02*
D03*
X552661Y608366D02*
D03*
X557090Y614272D02*
D03*
X489471Y729331D02*
D03*
X377844Y481149D02*
D03*
X357582Y438091D02*
D03*
X393901Y531004D02*
D03*
X300200Y533071D02*
D03*
X307076Y540401D02*
D03*
X390259Y625591D02*
D03*
X300987Y607776D02*
D03*
X277973Y586417D02*
D03*
X299905Y546161D02*
D03*
X187503Y500394D02*
D03*
X417217Y674347D02*
D03*
X534255Y667765D02*
D03*
X365442Y523867D02*
D03*
X324202Y506544D02*
D03*
X303631Y481052D02*
D03*
Y489812D02*
D03*
X288572Y507627D02*
D03*
X327857Y429528D02*
D03*
X398625Y461713D02*
D03*
X367917Y411713D02*
D03*
X341131Y412645D02*
D03*
X186322Y397835D02*
D03*
X296263Y517717D02*
D03*
X291762Y397370D02*
D03*
X423822Y641977D02*
D03*
X251676Y609547D02*
D03*
X369885Y658858D02*
D03*
X292804Y555757D02*
D03*
X344098Y575000D02*
D03*
X333271Y577658D02*
D03*
X358172Y380118D02*
D03*
X333566Y646358D02*
D03*
X417228Y583366D02*
D03*
X487700Y688926D02*
D03*
X487602Y698768D02*
D03*
X487582Y684202D02*
D03*
X331991Y662303D02*
D03*
X364458Y546899D02*
D03*
X257877Y579035D02*
D03*
X314078Y662205D02*
D03*
X537503Y713583D02*
D03*
X308468Y326279D02*
D03*
X386519Y666339D02*
D03*
X485830Y674654D02*
D03*
X380810Y362598D02*
D03*
X219787Y489468D02*
D03*
X552956Y692028D02*
D03*
X274806Y367717D02*
D03*
X462306Y624803D02*
D03*
X350495Y662205D02*
D03*
X452759Y612894D02*
D03*
X162897Y366929D02*
D03*
X225987Y559547D02*
D03*
X297543Y636417D02*
D03*
X205023Y318012D02*
D03*
X482877Y353839D02*
D03*
X412503Y353543D02*
D03*
X534649Y693799D02*
D03*
X283665Y351772D02*
D03*
X205613Y396949D02*
D03*
X519393Y689024D02*
D03*
X522838Y713091D02*
D03*
X167720Y401968D02*
D03*
X395771Y427362D02*
D03*
X214472Y431595D02*
D03*
X358665Y545571D02*
D03*
X509058Y712598D02*
D03*
X242818Y401378D02*
D03*
X500791Y690402D02*
D03*
X411814Y542717D02*
D03*
X348612Y427212D02*
D03*
X393704Y526378D02*
D03*
X416834Y683563D02*
D03*
X475987Y629626D02*
D03*
X472050Y636417D02*
D03*
X435922Y651130D02*
D03*
X262011Y382480D02*
D03*
X549905Y656643D02*
D03*
X417818Y653689D02*
D03*
X444787Y658808D02*
D03*
X439866Y659004D02*
D03*
X437799Y656937D02*
D03*
X427956Y700343D02*
D03*
X450496Y703197D02*
D03*
X452759Y721800D02*
D03*
X296742Y601917D02*
D03*
X294751Y599434D02*
D03*
X289944Y599463D02*
D03*
X285325Y599457D02*
D03*
X329222Y517173D02*
D03*
X247726Y521405D02*
D03*
X249498Y463138D02*
D03*
X267706Y507823D02*
D03*
X275186Y507921D02*
D03*
X495082Y682823D02*
D03*
X497838Y662548D02*
D03*
X509551Y699162D02*
D03*
X509452Y692272D02*
D03*
X520968Y669142D02*
D03*
X479431Y718799D02*
D03*
X479432Y713879D02*
D03*
X478448Y706543D02*
D03*
X466539Y717815D02*
D03*
X461618Y717272D02*
D03*
X510929Y662646D02*
D03*
X515751Y662548D02*
D03*
X501775Y683020D02*
D03*
X490063Y655363D02*
D03*
X484747Y655462D02*
D03*
X271545Y473768D02*
D03*
X274891Y497685D02*
D03*
X274694Y449161D02*
D03*
X270265Y458905D02*
D03*
X222922Y467272D02*
D03*
X366586Y499002D02*
D03*
X361407Y455559D02*
D03*
X386406Y477016D02*
D03*
X372923Y457527D02*
D03*
X364360Y471504D02*
D03*
X375384Y461562D02*
D03*
X234846Y418504D02*
D03*
X428153Y367323D02*
D03*
X407483Y417323D02*
D03*
X344478Y422095D02*
D03*
X356781Y422291D02*
D03*
X352168Y412992D02*
D03*
X358356Y427016D02*
D03*
X361014Y504772D02*
D03*
X368494D02*
D03*
X343080Y459771D02*
D03*
X315541Y465598D02*
D03*
X284834Y462018D02*
D03*
X284734Y457035D02*
D03*
X285029Y473866D02*
D03*
X284734Y479378D02*
D03*
X284931Y484595D02*
D03*
X270167Y470618D02*
D03*
X268395Y538335D02*
D03*
X274104Y532724D02*
D03*
X274005Y537842D02*
D03*
X268690Y542764D02*
D03*
X274005Y542862D02*
D03*
X307287Y529921D02*
D03*
X315738Y513531D02*
D03*
X299104D02*
D03*
X314753Y534693D02*
D03*
X268494Y546898D02*
D03*
X479333Y723622D02*
D03*
X492521Y718799D02*
D03*
X469787Y707429D02*
D03*
X429074Y682857D02*
D03*
X433861Y691878D02*
D03*
X475201Y677409D02*
D03*
X290442Y412842D02*
D03*
X290751Y524213D02*
D03*
X284832Y532921D02*
D03*
X290751Y540650D02*
D03*
X268100Y486957D02*
D03*
X266427Y490401D02*
D03*
X270364D02*
D03*
X266525Y503295D02*
D03*
X266427Y496405D02*
D03*
X272234Y503295D02*
D03*
X277155Y504476D02*
D03*
X348021Y484398D02*
D03*
X352253D02*
D03*
X356978D02*
D03*
X393212Y501181D02*
D03*
X364655Y503394D02*
D03*
X300200Y523917D02*
D03*
X290850Y532972D02*
D03*
X307470Y513433D02*
D03*
X314865Y525295D02*
D03*
X335226Y434299D02*
D03*
X369196Y418504D02*
D03*
X462503Y685776D02*
D03*
Y693847D02*
D03*
X455023D02*
D03*
X458763Y689812D02*
D03*
X454925Y685678D02*
D03*
X375974Y557134D02*
D03*
X271643Y507035D02*
D03*
X309649Y652067D02*
D03*
X396558Y447244D02*
D03*
X531401Y649705D02*
D03*
X550594Y636417D02*
D03*
X413094Y331004D02*
D03*
X256401Y639370D02*
D03*
X260915Y492468D02*
D03*
X256486Y492468D02*
D03*
X244393Y535532D02*
D03*
X424807Y712843D02*
D03*
X429324Y709487D02*
D03*
X549806Y715256D02*
D03*
X517818Y640256D02*
D03*
X272149Y600000D02*
D03*
X246460Y566634D02*
D03*
X395574Y438583D02*
D03*
X375679Y445815D02*
D03*
X366539Y589764D02*
D03*
X353448Y652362D02*
D03*
X472740Y695816D02*
D03*
X454925Y658709D02*
D03*
X445988Y651130D02*
D03*
X429728Y638335D02*
D03*
X366047Y615846D02*
D03*
X422247Y662008D02*
D03*
X217228Y515993D02*
D03*
X450058Y659036D02*
D03*
X338439Y578225D02*
D03*
X463684Y566339D02*
D03*
X471165Y602264D02*
D03*
X468606Y586417D02*
D03*
X463881Y580905D02*
D03*
X556991Y601476D02*
D03*
X547739D02*
D03*
X426086Y454528D02*
D03*
X431106Y458760D02*
D03*
X444393Y493228D02*
D03*
X432287Y514370D02*
D03*
X469885Y537894D02*
D03*
X226564Y444338D02*
D03*
X142523Y422047D02*
D03*
X462897Y347539D02*
D03*
X417414Y679269D02*
D03*
X226283Y383957D02*
D03*
X408665Y403150D02*
D03*
X370279Y435433D02*
D03*
X380220Y522244D02*
D03*
X353940Y488878D02*
D03*
X349301Y488906D02*
D03*
D99*
X523822Y368012D02*
D03*
X523625Y381693D02*
D03*
X528546Y416536D02*
D03*
X400397Y737795D02*
D03*
X413684Y728543D02*
D03*
X511420Y396555D02*
D03*
X429432Y387500D02*
D03*
X429629Y398327D02*
D03*
X540653Y435433D02*
D03*
X491972Y437008D02*
D03*
X259255Y362992D02*
D03*
D100*
X534058Y388799D02*
D03*
X532365Y384154D02*
D03*
X507779Y385925D02*
D03*
X477365Y399705D02*
D03*
X439428Y387763D02*
D03*
X389865Y389665D02*
D03*
X386519Y401523D02*
D03*
X399117Y533957D02*
D03*
X368409Y596063D02*
D03*
X376662Y585186D02*
D03*
X535043Y369193D02*
D03*
X338854Y397370D02*
D03*
X401972Y638484D02*
D03*
X297346Y589272D02*
D03*
X304743Y596177D02*
D03*
X348282Y575568D02*
D03*
X463437Y649851D02*
D03*
X313881Y597835D02*
D03*
X307976Y556201D02*
D03*
X311027Y555905D02*
D03*
X315209Y600175D02*
D03*
X237095Y539812D02*
D03*
X283454Y561859D02*
D03*
X445762Y689112D02*
D03*
X457877Y703000D02*
D03*
X270560Y402312D02*
D03*
X213375Y489812D02*
D03*
X398710Y573276D02*
D03*
X301495Y583906D02*
D03*
X452745Y367568D02*
D03*
X452647Y360481D02*
D03*
X392720Y616831D02*
D03*
X403251Y611516D02*
D03*
X385239Y613681D02*
D03*
X404236Y626575D02*
D03*
X431598D02*
D03*
X404334Y608957D02*
D03*
X344984Y387697D02*
D03*
X481972Y424823D02*
D03*
X504826Y420374D02*
D03*
X357484Y353248D02*
D03*
X362572Y379990D02*
D03*
X364570Y371063D02*
D03*
X359944Y358661D02*
D03*
X365161Y345965D02*
D03*
X344688Y372638D02*
D03*
X186407Y478099D02*
D03*
X204223Y476008D02*
D03*
X206978Y473572D02*
D03*
X355023Y577756D02*
D03*
X352267Y575886D02*
D03*
X506972Y439488D02*
D03*
X368999Y560138D02*
D03*
Y547441D02*
D03*
X331598Y551968D02*
D03*
X398330Y543996D02*
D03*
X323970Y551230D02*
D03*
X400299Y537402D02*
D03*
X415850Y433760D02*
D03*
X433271Y423425D02*
D03*
X319491Y594685D02*
D03*
X472697Y686794D02*
D03*
X471952Y650591D02*
D03*
X467769Y646408D02*
D03*
X365357Y599606D02*
D03*
X390751Y608957D02*
D03*
X403350Y621358D02*
D03*
X416440Y629035D02*
D03*
X393507Y653248D02*
D03*
X446066Y626673D02*
D03*
X458960Y641043D02*
D03*
X449314Y628248D02*
D03*
X413291Y607185D02*
D03*
X429517Y606904D02*
D03*
X408369Y601772D02*
D03*
X419787Y607087D02*
D03*
X464964Y640699D02*
D03*
X222543Y526575D02*
D03*
X193113Y535973D02*
D03*
X189767Y538532D02*
D03*
X196854Y454528D02*
D03*
X194393Y456004D02*
D03*
X199413Y419783D02*
D03*
X379728Y569980D02*
D03*
X439767Y602067D02*
D03*
X426972Y439567D02*
D03*
X320771Y628248D02*
D03*
X324511Y628642D02*
D03*
X321854Y615354D02*
D03*
X319737Y613069D02*
D03*
X320152Y610433D02*
D03*
X314570Y607874D02*
D03*
X393212Y649114D02*
D03*
X333172Y639272D02*
D03*
X435043Y409842D02*
D03*
X434747Y418701D02*
D03*
X334157Y572146D02*
D03*
X444491Y376279D02*
D03*
X386125Y487992D02*
D03*
X318901Y555610D02*
D03*
X314767Y563386D02*
D03*
X435141Y399508D02*
D03*
X427857Y659547D02*
D03*
X397989Y549681D02*
D03*
X443015Y613189D02*
D03*
X309944Y568209D02*
D03*
X312700Y565650D02*
D03*
X386716Y525787D02*
D03*
X436420Y636811D02*
D03*
X377857Y392618D02*
D03*
X221209Y538558D02*
D03*
X416145Y631791D02*
D03*
X442115Y357874D02*
D03*
X452365Y351969D02*
D03*
X465751Y350787D02*
D03*
X476184Y361221D02*
D03*
D101*
X342818Y537697D02*
D03*
X389078Y518898D02*
D03*
X296446Y564122D02*
D03*
X243001Y470519D02*
D03*
X243690Y475146D02*
D03*
X203631Y464221D02*
D03*
X331584Y462744D02*
D03*
X327450Y462842D02*
D03*
X322726Y462941D02*
D03*
X269970Y448669D02*
D03*
X257174Y552706D02*
D03*
X491244Y693847D02*
D03*
X446263Y715993D02*
D03*
X453940Y702705D02*
D03*
X441342Y711957D02*
D03*
X498232Y676623D02*
D03*
X497346Y636122D02*
D03*
X544098Y681398D02*
D03*
X239275Y585039D02*
D03*
X443114Y710481D02*
D03*
X267706Y521996D02*
D03*
X475299Y661367D02*
D03*
X425299Y681544D02*
D03*
X460436Y659891D02*
D03*
X424905Y668749D02*
D03*
X445476Y683316D02*
D03*
X463783Y676918D02*
D03*
X395377Y645276D02*
D03*
X238094Y344587D02*
D03*
X269098Y629626D02*
D03*
X268789Y566190D02*
D03*
X285732Y646161D02*
D03*
X500692Y650689D02*
D03*
X356007Y605413D02*
D03*
X403926Y573276D02*
D03*
X303533Y499162D02*
D03*
X385928Y434055D02*
D03*
X378533Y425047D02*
D03*
X446952Y673178D02*
D03*
X445663Y693148D02*
D03*
X373119Y576131D02*
D03*
X262982Y471996D02*
D03*
Y467665D02*
D03*
X254320Y471996D02*
D03*
Y467665D02*
D03*
X258651D02*
D03*
Y471996D02*
D03*
X346249Y464122D02*
D03*
Y468453D02*
D03*
X350580Y464122D02*
D03*
Y468453D02*
D03*
X354911Y464122D02*
D03*
Y468453D02*
D03*
X250495Y440158D02*
D03*
X252070Y442028D02*
D03*
X249990Y443059D02*
D03*
X253336Y444338D02*
D03*
X250987Y446654D02*
D03*
X302661Y561614D02*
D03*
X477956Y691583D02*
D03*
X473035Y692371D02*
D03*
X472200Y689370D02*
D03*
X450889Y647933D02*
D03*
X447444Y655166D02*
D03*
X417228Y638386D02*
D03*
X140554Y379823D02*
D03*
X251480Y437894D02*
D03*
X521165Y354724D02*
D03*
D113*
X462405Y656299D02*
D03*
M02*
