G04 Layer_Physical_Order=3*
G04 Layer_Color=32768*
%FSLAX25Y25*%
%MOIN*%
G70*
G01*
G75*
%ADD102C,0.04000*%
%ADD103C,0.14192*%
%ADD104C,0.04704*%
%ADD105C,0.18917*%
%ADD106C,0.05137*%
%ADD107C,0.11042*%
%ADD108C,0.11830*%
%ADD109C,0.02600*%
%ADD110C,0.02200*%
%ADD111C,0.02381*%
%ADD112C,0.07381*%
G36*
X560633Y720866D02*
X414373Y720866D01*
Y670964D01*
X184255Y670965D01*
Y720866D01*
X88389Y720866D01*
X88389Y1052264D01*
X560633Y1052264D01*
X560633Y720866D01*
D02*
G37*
G36*
X144393Y352264D02*
Y307776D01*
X143212Y308957D01*
X89275D01*
X89865Y352854D01*
X143802D01*
X144393Y352264D01*
D02*
G37*
G36*
X637700Y1212992D02*
X868409D01*
Y1017028D01*
X869098Y1016339D01*
X634058D01*
Y1212992D01*
X634649Y1216043D01*
X637700Y1212992D01*
D02*
G37*
G36*
X620386Y832829D02*
X853653D01*
Y786471D01*
X853502Y786319D01*
X620324D01*
Y833259D01*
X620582Y833518D01*
X620386Y832829D01*
D02*
G37*
D102*
X89669Y1050394D02*
X562208D01*
X561913Y1050098D02*
X562208Y1050394D01*
X561913Y306988D02*
Y1050098D01*
X554432Y306988D02*
X561913D01*
X554137Y306693D02*
X554432Y306988D01*
X553645Y306693D02*
X554137D01*
X553645Y286910D02*
Y306693D01*
X524216Y286910D02*
X553645D01*
X524216D02*
Y306890D01*
X524117Y306791D02*
X524216Y306890D01*
X455909Y306791D02*
X524117D01*
X455909Y286417D02*
Y306791D01*
X426086Y286417D02*
X455909D01*
X425987Y286516D02*
X426086Y286417D01*
X425987Y286516D02*
Y306890D01*
X396086D02*
X425987D01*
X396086Y286122D02*
Y306890D01*
X323015Y286122D02*
X396086D01*
X323015D02*
Y306890D01*
X291440D02*
X323015D01*
X291440Y286811D02*
Y306890D01*
X241736Y286811D02*
X291440D01*
X241736D02*
Y306594D01*
X241637Y306693D02*
X241736Y306594D01*
X241539D02*
X241637Y306693D01*
X177464Y306594D02*
X241539D01*
X177464Y287598D02*
Y306594D01*
X147346Y287598D02*
X177464D01*
X147346D02*
Y306693D01*
X89472D02*
X147346D01*
X89373Y306791D02*
X89472Y306693D01*
X89373Y306791D02*
Y1050098D01*
X89669Y1050394D01*
D103*
X384550Y308976D02*
D03*
X334550D02*
D03*
D104*
X386558Y345000D02*
D03*
X332542D02*
D03*
X341558D02*
D03*
X377542D02*
D03*
X345456Y325984D02*
D03*
X349472Y318976D02*
D03*
X353487Y325984D02*
D03*
X357503Y318976D02*
D03*
X361519Y325984D02*
D03*
X365535Y318976D02*
D03*
X369550Y325984D02*
D03*
X373566Y318976D02*
D03*
D105*
X531893Y1018898D02*
D03*
X118507D02*
D03*
X117917Y330807D02*
D03*
X497346Y330610D02*
D03*
D106*
X157385Y324016D02*
D03*
X167228D02*
D03*
X435928Y322835D02*
D03*
X445771D02*
D03*
X261617D02*
D03*
X271460D02*
D03*
X281302D02*
D03*
X251775D02*
D03*
X533960Y323031D02*
D03*
X543802D02*
D03*
D107*
X162385Y298516D02*
D03*
X440928Y297335D02*
D03*
X538960Y297532D02*
D03*
D108*
X266539Y297933D02*
D03*
D109*
X523822Y368012D02*
D03*
X523625Y381693D02*
D03*
X528546Y416536D02*
D03*
X400397Y737795D02*
D03*
X413684Y728543D02*
D03*
X511420Y396555D02*
D03*
X429432Y387500D02*
D03*
X429629Y398327D02*
D03*
X540653Y435433D02*
D03*
X491972Y437008D02*
D03*
X259255Y362992D02*
D03*
D110*
X534058Y388799D02*
D03*
X532365Y384154D02*
D03*
X507779Y385925D02*
D03*
X477365Y399705D02*
D03*
X439428Y387763D02*
D03*
X389865Y389665D02*
D03*
X386519Y401523D02*
D03*
X399117Y533957D02*
D03*
X368409Y596063D02*
D03*
X376662Y585186D02*
D03*
X535043Y369193D02*
D03*
X338854Y397370D02*
D03*
X401972Y638484D02*
D03*
X297346Y589272D02*
D03*
X304743Y596177D02*
D03*
X348282Y575568D02*
D03*
X463437Y649851D02*
D03*
X313881Y597835D02*
D03*
X307976Y556201D02*
D03*
X311027Y555905D02*
D03*
X315209Y600175D02*
D03*
X237095Y539812D02*
D03*
X283454Y561859D02*
D03*
X445762Y689112D02*
D03*
X457877Y703000D02*
D03*
X270560Y402312D02*
D03*
X213375Y489812D02*
D03*
X398710Y573276D02*
D03*
X301495Y583906D02*
D03*
X452745Y367568D02*
D03*
X452647Y360481D02*
D03*
X392720Y616831D02*
D03*
X403251Y611516D02*
D03*
X385239Y613681D02*
D03*
X404236Y626575D02*
D03*
X431598D02*
D03*
X404334Y608957D02*
D03*
X344984Y387697D02*
D03*
X481972Y424823D02*
D03*
X504826Y420374D02*
D03*
X357484Y353248D02*
D03*
X362572Y379990D02*
D03*
X364570Y371063D02*
D03*
X359944Y358661D02*
D03*
X365161Y345965D02*
D03*
X344688Y372638D02*
D03*
X186407Y478099D02*
D03*
X204223Y476008D02*
D03*
X206978Y473572D02*
D03*
X355023Y577756D02*
D03*
X352267Y575886D02*
D03*
X506972Y439488D02*
D03*
X368999Y560138D02*
D03*
Y547441D02*
D03*
X331598Y551968D02*
D03*
X398330Y543996D02*
D03*
X323970Y551230D02*
D03*
X400299Y537402D02*
D03*
X415850Y433760D02*
D03*
X433271Y423425D02*
D03*
X319491Y594685D02*
D03*
X472697Y686794D02*
D03*
X471952Y650591D02*
D03*
X467769Y646408D02*
D03*
X365357Y599606D02*
D03*
X390751Y608957D02*
D03*
X403350Y621358D02*
D03*
X416440Y629035D02*
D03*
X393507Y653248D02*
D03*
X446066Y626673D02*
D03*
X458960Y641043D02*
D03*
X449314Y628248D02*
D03*
X413291Y607185D02*
D03*
X429517Y606904D02*
D03*
X408369Y601772D02*
D03*
X419787Y607087D02*
D03*
X464964Y640699D02*
D03*
X222543Y526575D02*
D03*
X193113Y535973D02*
D03*
X189767Y538532D02*
D03*
X196854Y454528D02*
D03*
X194393Y456004D02*
D03*
X199413Y419783D02*
D03*
X379728Y569980D02*
D03*
X439767Y602067D02*
D03*
X426972Y439567D02*
D03*
X320771Y628248D02*
D03*
X324511Y628642D02*
D03*
X321854Y615354D02*
D03*
X319737Y613069D02*
D03*
X320152Y610433D02*
D03*
X314570Y607874D02*
D03*
X393212Y649114D02*
D03*
X333172Y639272D02*
D03*
X435043Y409842D02*
D03*
X434747Y418701D02*
D03*
X334157Y572146D02*
D03*
X444491Y376279D02*
D03*
X386125Y487992D02*
D03*
X318901Y555610D02*
D03*
X314767Y563386D02*
D03*
X435141Y399508D02*
D03*
X427857Y659547D02*
D03*
X397989Y549681D02*
D03*
X443015Y613189D02*
D03*
X309944Y568209D02*
D03*
X312700Y565650D02*
D03*
X386716Y525787D02*
D03*
X436420Y636811D02*
D03*
X377857Y392618D02*
D03*
X221209Y538558D02*
D03*
X416145Y631791D02*
D03*
X442115Y357874D02*
D03*
X452365Y351969D02*
D03*
X465751Y350787D02*
D03*
X476184Y361221D02*
D03*
D111*
X430121Y621358D02*
D03*
X539472Y373799D02*
D03*
X546460Y512894D02*
D03*
X475889Y595965D02*
D03*
X500102Y485827D02*
D03*
Y477756D02*
D03*
X479531Y486122D02*
D03*
X509058Y499902D02*
D03*
X479334Y493110D02*
D03*
X425692Y540551D02*
D03*
X431598Y536122D02*
D03*
X425791Y530512D02*
D03*
X431795Y525197D02*
D03*
X425791Y519783D02*
D03*
X425987Y509154D02*
D03*
X431204Y504528D02*
D03*
X426086Y499114D02*
D03*
X431598Y494488D02*
D03*
X426086Y488386D02*
D03*
X431893Y482874D02*
D03*
X425987Y475295D02*
D03*
X431499Y470374D02*
D03*
X426086Y465256D02*
D03*
X431598Y449803D02*
D03*
X534846Y522146D02*
D03*
X554039Y462402D02*
D03*
X553842Y471850D02*
D03*
X553546Y489961D02*
D03*
X553645Y500394D02*
D03*
Y479823D02*
D03*
X533566Y511614D02*
D03*
X538881Y461122D02*
D03*
X539078Y472835D02*
D03*
X533665Y467717D02*
D03*
Y456988D02*
D03*
X533566Y477756D02*
D03*
X539176Y452264D02*
D03*
X539472Y485335D02*
D03*
X539176Y496949D02*
D03*
X538783Y506988D02*
D03*
X533665Y501575D02*
D03*
Y490846D02*
D03*
X539373Y527658D02*
D03*
X484550Y551181D02*
D03*
X449905Y454646D02*
D03*
X444393Y470098D02*
D03*
X449806Y475217D02*
D03*
X444295Y480138D02*
D03*
X450200Y487717D02*
D03*
X449905Y499331D02*
D03*
X444393Y503957D02*
D03*
X449511Y509370D02*
D03*
X444295Y513996D02*
D03*
X449905Y519213D02*
D03*
X444098Y524626D02*
D03*
X450102Y530039D02*
D03*
X444098Y535354D02*
D03*
X451184Y554724D02*
D03*
X443999Y545394D02*
D03*
X449610Y463504D02*
D03*
X444393Y459370D02*
D03*
X459747Y521949D02*
D03*
X468606Y522244D02*
D03*
X480318Y522047D02*
D03*
X492818Y521654D02*
D03*
X504432Y521949D02*
D03*
X514472Y522342D02*
D03*
X524314Y521949D02*
D03*
X546066D02*
D03*
X464472Y527461D02*
D03*
X475200D02*
D03*
X485239Y527559D02*
D03*
X498330Y527461D02*
D03*
X509058D02*
D03*
X519098Y527559D02*
D03*
X529728Y527756D02*
D03*
X550495Y527854D02*
D03*
X545673Y537795D02*
D03*
X534747Y537598D02*
D03*
X523920Y537795D02*
D03*
X514078Y538189D02*
D03*
X504039Y537795D02*
D03*
X492424Y537500D02*
D03*
X479924Y537894D02*
D03*
X455712Y537795D02*
D03*
X464078Y543307D02*
D03*
X474806D02*
D03*
X484846Y543405D02*
D03*
X497936Y543307D02*
D03*
X508665D02*
D03*
X518704Y543405D02*
D03*
X529334Y543602D02*
D03*
X540062D02*
D03*
X550102Y543701D02*
D03*
X496755Y551476D02*
D03*
X472543Y552067D02*
D03*
X463684Y551772D02*
D03*
X468409Y557283D02*
D03*
X479137D02*
D03*
X489176Y557382D02*
D03*
X502267Y557283D02*
D03*
X508369Y551772D02*
D03*
X512995Y557283D02*
D03*
X518409Y552165D02*
D03*
X528251Y551772D02*
D03*
X523035Y557382D02*
D03*
X533665Y557579D02*
D03*
X539078Y551575D02*
D03*
X544393Y557579D02*
D03*
X554432Y557677D02*
D03*
X508369Y566339D02*
D03*
X468409Y571850D02*
D03*
X472543Y566634D02*
D03*
X484255Y566437D02*
D03*
X479137Y571850D02*
D03*
X489176Y571949D02*
D03*
X496755Y566043D02*
D03*
X502267Y571850D02*
D03*
X512995D02*
D03*
X518409Y566732D02*
D03*
X550003Y566339D02*
D03*
X554432Y572244D02*
D03*
X544393Y572146D02*
D03*
X539078Y566142D02*
D03*
X533665Y572146D02*
D03*
X523035Y571949D02*
D03*
X528251Y566339D02*
D03*
X554924Y587402D02*
D03*
X472739Y581201D02*
D03*
X484452Y581004D02*
D03*
X479334Y586417D02*
D03*
X489373Y586516D02*
D03*
X496952Y580610D02*
D03*
X508566Y580905D02*
D03*
X518606Y581299D02*
D03*
X523232Y586516D02*
D03*
X513192Y586417D02*
D03*
X502464D02*
D03*
X533861Y586713D02*
D03*
X528448Y580905D02*
D03*
X539275Y580709D02*
D03*
X544590Y586713D02*
D03*
X550200Y580905D02*
D03*
X465948Y596457D02*
D03*
X487602Y595768D02*
D03*
X500102Y595374D02*
D03*
X511716Y595669D02*
D03*
X521755Y596063D02*
D03*
X531598Y595669D02*
D03*
X542424Y595472D02*
D03*
X553350Y595669D02*
D03*
X482483Y601181D02*
D03*
X492523Y601279D02*
D03*
X505613Y601181D02*
D03*
X516342D02*
D03*
X526381Y601279D02*
D03*
X537011Y601476D02*
D03*
X490259Y510532D02*
D03*
X479531D02*
D03*
X509354Y477756D02*
D03*
X509058Y485827D02*
D03*
X488881Y477953D02*
D03*
X509354Y492913D02*
D03*
X489078Y486122D02*
D03*
X479531Y477953D02*
D03*
X479334Y500197D02*
D03*
X500299Y493110D02*
D03*
X489669Y500394D02*
D03*
Y493110D02*
D03*
X500299Y499902D02*
D03*
X475200Y608661D02*
D03*
X486913Y608465D02*
D03*
X481795Y613878D02*
D03*
X471066D02*
D03*
X491834Y613976D02*
D03*
X466342Y608366D02*
D03*
X499413Y608071D02*
D03*
X511027Y608366D02*
D03*
X521066Y608760D02*
D03*
X525692Y613976D02*
D03*
X515653Y613878D02*
D03*
X504924D02*
D03*
X536322Y614173D02*
D03*
X530909Y608366D02*
D03*
X541736Y608169D02*
D03*
X547050Y614173D02*
D03*
X552661Y608366D02*
D03*
X557090Y614272D02*
D03*
X489471Y729331D02*
D03*
X377844Y481149D02*
D03*
X357582Y438091D02*
D03*
X393901Y531004D02*
D03*
X300200Y533071D02*
D03*
X307076Y540401D02*
D03*
X390259Y625591D02*
D03*
X300987Y607776D02*
D03*
X277973Y586417D02*
D03*
X299905Y546161D02*
D03*
X187503Y500394D02*
D03*
X417217Y674347D02*
D03*
X534255Y667765D02*
D03*
X365442Y523867D02*
D03*
X324202Y506544D02*
D03*
X303631Y481052D02*
D03*
Y489812D02*
D03*
X288572Y507627D02*
D03*
X327857Y429528D02*
D03*
X398625Y461713D02*
D03*
X367917Y411713D02*
D03*
X341131Y412645D02*
D03*
X186322Y397835D02*
D03*
X296263Y517717D02*
D03*
X291762Y397370D02*
D03*
X423822Y641977D02*
D03*
X251676Y609547D02*
D03*
X369885Y658858D02*
D03*
X292804Y555757D02*
D03*
X344098Y575000D02*
D03*
X333271Y577658D02*
D03*
X358172Y380118D02*
D03*
X333566Y646358D02*
D03*
X417228Y583366D02*
D03*
X487700Y688926D02*
D03*
X487602Y698768D02*
D03*
X487582Y684202D02*
D03*
X331991Y662303D02*
D03*
X364458Y546899D02*
D03*
X257877Y579035D02*
D03*
X314078Y662205D02*
D03*
X537503Y713583D02*
D03*
X308468Y326279D02*
D03*
X386519Y666339D02*
D03*
X485830Y674654D02*
D03*
X380810Y362598D02*
D03*
X219787Y489468D02*
D03*
X552956Y692028D02*
D03*
X274806Y367717D02*
D03*
X462306Y624803D02*
D03*
X350495Y662205D02*
D03*
X452759Y612894D02*
D03*
X162897Y366929D02*
D03*
X225987Y559547D02*
D03*
X297543Y636417D02*
D03*
X205023Y318012D02*
D03*
X482877Y353839D02*
D03*
X412503Y353543D02*
D03*
X534649Y693799D02*
D03*
X283665Y351772D02*
D03*
X205613Y396949D02*
D03*
X519393Y689024D02*
D03*
X522838Y713091D02*
D03*
X167720Y401968D02*
D03*
X395771Y427362D02*
D03*
X214472Y431595D02*
D03*
X358665Y545571D02*
D03*
X509058Y712598D02*
D03*
X242818Y401378D02*
D03*
X500791Y690402D02*
D03*
X411814Y542717D02*
D03*
X348612Y427212D02*
D03*
X393704Y526378D02*
D03*
X416834Y683563D02*
D03*
X475987Y629626D02*
D03*
X472050Y636417D02*
D03*
X435922Y651130D02*
D03*
X262011Y382480D02*
D03*
X549905Y656643D02*
D03*
X417818Y653689D02*
D03*
X444787Y658808D02*
D03*
X439866Y659004D02*
D03*
X437799Y656937D02*
D03*
X427956Y700343D02*
D03*
X450496Y703197D02*
D03*
X452759Y721800D02*
D03*
X296742Y601917D02*
D03*
X294751Y599434D02*
D03*
X289944Y599463D02*
D03*
X285325Y599457D02*
D03*
X329222Y517173D02*
D03*
X247726Y521405D02*
D03*
X249498Y463138D02*
D03*
X267706Y507823D02*
D03*
X275186Y507921D02*
D03*
X495082Y682823D02*
D03*
X497838Y662548D02*
D03*
X509551Y699162D02*
D03*
X509452Y692272D02*
D03*
X520968Y669142D02*
D03*
X479431Y718799D02*
D03*
X479432Y713879D02*
D03*
X478448Y706543D02*
D03*
X466539Y717815D02*
D03*
X461618Y717272D02*
D03*
X510929Y662646D02*
D03*
X515751Y662548D02*
D03*
X501775Y683020D02*
D03*
X490063Y655363D02*
D03*
X484747Y655462D02*
D03*
X271545Y473768D02*
D03*
X274891Y497685D02*
D03*
X274694Y449161D02*
D03*
X270265Y458905D02*
D03*
X222922Y467272D02*
D03*
X366586Y499002D02*
D03*
X361407Y455559D02*
D03*
X386406Y477016D02*
D03*
X372923Y457527D02*
D03*
X364360Y471504D02*
D03*
X375384Y461562D02*
D03*
X234846Y418504D02*
D03*
X428153Y367323D02*
D03*
X407483Y417323D02*
D03*
X344478Y422095D02*
D03*
X356781Y422291D02*
D03*
X352168Y412992D02*
D03*
X358356Y427016D02*
D03*
X361014Y504772D02*
D03*
X368494D02*
D03*
X343080Y459771D02*
D03*
X315541Y465598D02*
D03*
X284834Y462018D02*
D03*
X284734Y457035D02*
D03*
X285029Y473866D02*
D03*
X284734Y479378D02*
D03*
X284931Y484595D02*
D03*
X270167Y470618D02*
D03*
X268395Y538335D02*
D03*
X274104Y532724D02*
D03*
X274005Y537842D02*
D03*
X268690Y542764D02*
D03*
X274005Y542862D02*
D03*
X307287Y529921D02*
D03*
X315738Y513531D02*
D03*
X299104D02*
D03*
X314753Y534693D02*
D03*
X268494Y546898D02*
D03*
X479333Y723622D02*
D03*
X492521Y718799D02*
D03*
X469787Y707429D02*
D03*
X429074Y682857D02*
D03*
X433861Y691878D02*
D03*
X475201Y677409D02*
D03*
X290442Y412842D02*
D03*
X290751Y524213D02*
D03*
X284832Y532921D02*
D03*
X290751Y540650D02*
D03*
X268100Y486957D02*
D03*
X266427Y490401D02*
D03*
X270364D02*
D03*
X266525Y503295D02*
D03*
X266427Y496405D02*
D03*
X272234Y503295D02*
D03*
X277155Y504476D02*
D03*
X348021Y484398D02*
D03*
X352253D02*
D03*
X356978D02*
D03*
X393212Y501181D02*
D03*
X364655Y503394D02*
D03*
X300200Y523917D02*
D03*
X290850Y532972D02*
D03*
X307470Y513433D02*
D03*
X314865Y525295D02*
D03*
X335226Y434299D02*
D03*
X369196Y418504D02*
D03*
X462503Y685776D02*
D03*
Y693847D02*
D03*
X455023D02*
D03*
X458763Y689812D02*
D03*
X454925Y685678D02*
D03*
X375974Y557134D02*
D03*
X271643Y507035D02*
D03*
X309649Y652067D02*
D03*
X396558Y447244D02*
D03*
X531401Y649705D02*
D03*
X550594Y636417D02*
D03*
X413094Y331004D02*
D03*
X256401Y639370D02*
D03*
X260915Y492468D02*
D03*
X256486Y492468D02*
D03*
X244393Y535532D02*
D03*
X424807Y712843D02*
D03*
X429324Y709487D02*
D03*
X549806Y715256D02*
D03*
X517818Y640256D02*
D03*
X272149Y600000D02*
D03*
X246460Y566634D02*
D03*
X395574Y438583D02*
D03*
X375679Y445815D02*
D03*
X366539Y589764D02*
D03*
X353448Y652362D02*
D03*
X472740Y695816D02*
D03*
X454925Y658709D02*
D03*
X445988Y651130D02*
D03*
X429728Y638335D02*
D03*
X366047Y615846D02*
D03*
X422247Y662008D02*
D03*
X217228Y515993D02*
D03*
X450058Y659036D02*
D03*
X338439Y578225D02*
D03*
X342818Y537697D02*
D03*
X389078Y518898D02*
D03*
X296446Y564122D02*
D03*
X243001Y470519D02*
D03*
X243690Y475146D02*
D03*
X203631Y464221D02*
D03*
X331584Y462744D02*
D03*
X327450Y462842D02*
D03*
X322726Y462941D02*
D03*
X269970Y448669D02*
D03*
X257174Y552706D02*
D03*
X491244Y693847D02*
D03*
X446263Y715993D02*
D03*
X453940Y702705D02*
D03*
X441342Y711957D02*
D03*
X498232Y676623D02*
D03*
X497346Y636122D02*
D03*
X544098Y681398D02*
D03*
X239275Y585039D02*
D03*
X443114Y710481D02*
D03*
X267706Y521996D02*
D03*
X475299Y661367D02*
D03*
X425299Y681544D02*
D03*
X460436Y659891D02*
D03*
X424905Y668749D02*
D03*
X445476Y683316D02*
D03*
X463783Y676918D02*
D03*
X395377Y645276D02*
D03*
X238094Y344587D02*
D03*
X269098Y629626D02*
D03*
X268789Y566190D02*
D03*
X285732Y646161D02*
D03*
X500692Y650689D02*
D03*
X356007Y605413D02*
D03*
X403926Y573276D02*
D03*
X303533Y499162D02*
D03*
X385928Y434055D02*
D03*
X378533Y425047D02*
D03*
X446952Y673178D02*
D03*
X445663Y693148D02*
D03*
X373119Y576131D02*
D03*
X262982Y471996D02*
D03*
Y467665D02*
D03*
X254320Y471996D02*
D03*
Y467665D02*
D03*
X258651D02*
D03*
Y471996D02*
D03*
X346249Y464122D02*
D03*
Y468453D02*
D03*
X350580Y464122D02*
D03*
Y468453D02*
D03*
X354911Y464122D02*
D03*
Y468453D02*
D03*
X302661Y561614D02*
D03*
X477956Y691583D02*
D03*
X473035Y692371D02*
D03*
X472200Y689370D02*
D03*
X450889Y647933D02*
D03*
X447444Y655166D02*
D03*
X417228Y638386D02*
D03*
X463684Y566339D02*
D03*
X471165Y602264D02*
D03*
X468606Y586417D02*
D03*
X463881Y580905D02*
D03*
X556991Y601476D02*
D03*
X547739D02*
D03*
X426086Y454528D02*
D03*
X431106Y458760D02*
D03*
X444393Y493228D02*
D03*
X432287Y514370D02*
D03*
X469885Y537894D02*
D03*
X226564Y444338D02*
D03*
X140554Y379823D02*
D03*
X142523Y422047D02*
D03*
X462897Y347539D02*
D03*
X417414Y679269D02*
D03*
X226283Y383957D02*
D03*
X408665Y403150D02*
D03*
X370279Y435433D02*
D03*
X380220Y522244D02*
D03*
X521165Y354724D02*
D03*
X353940Y488878D02*
D03*
X349301Y488906D02*
D03*
D112*
X327542Y322480D02*
D03*
X391558D02*
D03*
M02*
