G04 Layer_Physical_Order=1*
G04 Layer_Color=255*
%FSLAX25Y25*%
%MOIN*%
G70*
G01*
G75*
%ADD10R,0.01181X0.03347*%
%ADD11R,0.01181X0.03150*%
%ADD12R,0.03150X0.01181*%
%ADD13R,0.03347X0.01181*%
%ADD14R,0.03150X0.01000*%
%ADD15R,0.01000X0.03150*%
G04:AMPARAMS|DCode=16|XSize=11.81mil|YSize=43.31mil|CornerRadius=2.95mil|HoleSize=0mil|Usage=FLASHONLY|Rotation=90.000|XOffset=0mil|YOffset=0mil|HoleType=Round|Shape=RoundedRectangle|*
%AMROUNDEDRECTD16*
21,1,0.01181,0.03740,0,0,90.0*
21,1,0.00591,0.04331,0,0,90.0*
1,1,0.00591,0.01870,0.00295*
1,1,0.00591,0.01870,-0.00295*
1,1,0.00591,-0.01870,-0.00295*
1,1,0.00591,-0.01870,0.00295*
%
%ADD16ROUNDEDRECTD16*%
%ADD17R,0.04331X0.01181*%
%ADD18R,0.05512X0.55118*%
G04:AMPARAMS|DCode=19|XSize=41.34mil|YSize=53.15mil|CornerRadius=6.2mil|HoleSize=0mil|Usage=FLASHONLY|Rotation=90.000|XOffset=0mil|YOffset=0mil|HoleType=Round|Shape=RoundedRectangle|*
%AMROUNDEDRECTD19*
21,1,0.04134,0.04075,0,0,90.0*
21,1,0.02894,0.05315,0,0,90.0*
1,1,0.01240,0.02037,0.01447*
1,1,0.01240,0.02037,-0.01447*
1,1,0.01240,-0.02037,-0.01447*
1,1,0.01240,-0.02037,0.01447*
%
%ADD19ROUNDEDRECTD19*%
G04:AMPARAMS|DCode=20|XSize=35.43mil|YSize=35.43mil|CornerRadius=8.86mil|HoleSize=0mil|Usage=FLASHONLY|Rotation=0.000|XOffset=0mil|YOffset=0mil|HoleType=Round|Shape=RoundedRectangle|*
%AMROUNDEDRECTD20*
21,1,0.03543,0.01772,0,0,0.0*
21,1,0.01772,0.03543,0,0,0.0*
1,1,0.01772,0.00886,-0.00886*
1,1,0.01772,-0.00886,-0.00886*
1,1,0.01772,-0.00886,0.00886*
1,1,0.01772,0.00886,0.00886*
%
%ADD20ROUNDEDRECTD20*%
G04:AMPARAMS|DCode=21|XSize=35.43mil|YSize=35.43mil|CornerRadius=8.86mil|HoleSize=0mil|Usage=FLASHONLY|Rotation=90.000|XOffset=0mil|YOffset=0mil|HoleType=Round|Shape=RoundedRectangle|*
%AMROUNDEDRECTD21*
21,1,0.03543,0.01772,0,0,90.0*
21,1,0.01772,0.03543,0,0,90.0*
1,1,0.01772,0.00886,0.00886*
1,1,0.01772,0.00886,-0.00886*
1,1,0.01772,-0.00886,-0.00886*
1,1,0.01772,-0.00886,0.00886*
%
%ADD21ROUNDEDRECTD21*%
%ADD22C,0.05512*%
G04:AMPARAMS|DCode=23|XSize=259.84mil|YSize=100.39mil|CornerRadius=25.1mil|HoleSize=0mil|Usage=FLASHONLY|Rotation=0.000|XOffset=0mil|YOffset=0mil|HoleType=Round|Shape=RoundedRectangle|*
%AMROUNDEDRECTD23*
21,1,0.25984,0.05020,0,0,0.0*
21,1,0.20965,0.10039,0,0,0.0*
1,1,0.05020,0.10482,-0.02510*
1,1,0.05020,-0.10482,-0.02510*
1,1,0.05020,-0.10482,0.02510*
1,1,0.05020,0.10482,0.02510*
%
%ADD23ROUNDEDRECTD23*%
G04:AMPARAMS|DCode=24|XSize=72.83mil|YSize=53.15mil|CornerRadius=7.97mil|HoleSize=0mil|Usage=FLASHONLY|Rotation=90.000|XOffset=0mil|YOffset=0mil|HoleType=Round|Shape=RoundedRectangle|*
%AMROUNDEDRECTD24*
21,1,0.07283,0.03720,0,0,90.0*
21,1,0.05689,0.05315,0,0,90.0*
1,1,0.01595,0.01860,0.02845*
1,1,0.01595,0.01860,-0.02845*
1,1,0.01595,-0.01860,-0.02845*
1,1,0.01595,-0.01860,0.02845*
%
%ADD24ROUNDEDRECTD24*%
G04:AMPARAMS|DCode=25|XSize=72.83mil|YSize=53.15mil|CornerRadius=7.97mil|HoleSize=0mil|Usage=FLASHONLY|Rotation=180.000|XOffset=0mil|YOffset=0mil|HoleType=Round|Shape=RoundedRectangle|*
%AMROUNDEDRECTD25*
21,1,0.07283,0.03720,0,0,180.0*
21,1,0.05689,0.05315,0,0,180.0*
1,1,0.01595,-0.02845,0.01860*
1,1,0.01595,0.02845,0.01860*
1,1,0.01595,0.02845,-0.01860*
1,1,0.01595,-0.02845,-0.01860*
%
%ADD25ROUNDEDRECTD25*%
G04:AMPARAMS|DCode=26|XSize=122.05mil|YSize=110.24mil|CornerRadius=27.56mil|HoleSize=0mil|Usage=FLASHONLY|Rotation=0.000|XOffset=0mil|YOffset=0mil|HoleType=Round|Shape=RoundedRectangle|*
%AMROUNDEDRECTD26*
21,1,0.12205,0.05512,0,0,0.0*
21,1,0.06693,0.11024,0,0,0.0*
1,1,0.05512,0.03347,-0.02756*
1,1,0.05512,-0.03347,-0.02756*
1,1,0.05512,-0.03347,0.02756*
1,1,0.05512,0.03347,0.02756*
%
%ADD26ROUNDEDRECTD26*%
%ADD27R,0.03347X0.06299*%
G04:AMPARAMS|DCode=28|XSize=25.59mil|YSize=90.55mil|CornerRadius=6.4mil|HoleSize=0mil|Usage=FLASHONLY|Rotation=0.000|XOffset=0mil|YOffset=0mil|HoleType=Round|Shape=RoundedRectangle|*
%AMROUNDEDRECTD28*
21,1,0.02559,0.07776,0,0,0.0*
21,1,0.01279,0.09055,0,0,0.0*
1,1,0.01279,0.00640,-0.03888*
1,1,0.01279,-0.00640,-0.03888*
1,1,0.01279,-0.00640,0.03888*
1,1,0.01279,0.00640,0.03888*
%
%ADD28ROUNDEDRECTD28*%
G04:AMPARAMS|DCode=29|XSize=25.59mil|YSize=90.55mil|CornerRadius=6.4mil|HoleSize=0mil|Usage=FLASHONLY|Rotation=90.000|XOffset=0mil|YOffset=0mil|HoleType=Round|Shape=RoundedRectangle|*
%AMROUNDEDRECTD29*
21,1,0.02559,0.07776,0,0,90.0*
21,1,0.01279,0.09055,0,0,90.0*
1,1,0.01279,0.03888,0.00640*
1,1,0.01279,0.03888,-0.00640*
1,1,0.01279,-0.03888,-0.00640*
1,1,0.01279,-0.03888,0.00640*
%
%ADD29ROUNDEDRECTD29*%
G04:AMPARAMS|DCode=30|XSize=66.93mil|YSize=49.21mil|CornerRadius=12.3mil|HoleSize=0mil|Usage=FLASHONLY|Rotation=180.000|XOffset=0mil|YOffset=0mil|HoleType=Round|Shape=RoundedRectangle|*
%AMROUNDEDRECTD30*
21,1,0.06693,0.02461,0,0,180.0*
21,1,0.04232,0.04921,0,0,180.0*
1,1,0.02461,-0.02116,0.01230*
1,1,0.02461,0.02116,0.01230*
1,1,0.02461,0.02116,-0.01230*
1,1,0.02461,-0.02116,-0.01230*
%
%ADD30ROUNDEDRECTD30*%
G04:AMPARAMS|DCode=31|XSize=94.49mil|YSize=122.05mil|CornerRadius=23.62mil|HoleSize=0mil|Usage=FLASHONLY|Rotation=90.000|XOffset=0mil|YOffset=0mil|HoleType=Round|Shape=RoundedRectangle|*
%AMROUNDEDRECTD31*
21,1,0.09449,0.07480,0,0,90.0*
21,1,0.04724,0.12205,0,0,90.0*
1,1,0.04724,0.03740,0.02362*
1,1,0.04724,0.03740,-0.02362*
1,1,0.04724,-0.03740,-0.02362*
1,1,0.04724,-0.03740,0.02362*
%
%ADD31ROUNDEDRECTD31*%
G04:AMPARAMS|DCode=32|XSize=23.62mil|YSize=57.09mil|CornerRadius=5.91mil|HoleSize=0mil|Usage=FLASHONLY|Rotation=180.000|XOffset=0mil|YOffset=0mil|HoleType=Round|Shape=RoundedRectangle|*
%AMROUNDEDRECTD32*
21,1,0.02362,0.04528,0,0,180.0*
21,1,0.01181,0.05709,0,0,180.0*
1,1,0.01181,-0.00591,0.02264*
1,1,0.01181,0.00591,0.02264*
1,1,0.01181,0.00591,-0.02264*
1,1,0.01181,-0.00591,-0.02264*
%
%ADD32ROUNDEDRECTD32*%
G04:AMPARAMS|DCode=33|XSize=236.22mil|YSize=78.74mil|CornerRadius=19.68mil|HoleSize=0mil|Usage=FLASHONLY|Rotation=270.000|XOffset=0mil|YOffset=0mil|HoleType=Round|Shape=RoundedRectangle|*
%AMROUNDEDRECTD33*
21,1,0.23622,0.03937,0,0,270.0*
21,1,0.19685,0.07874,0,0,270.0*
1,1,0.03937,-0.01968,-0.09842*
1,1,0.03937,-0.01968,0.09842*
1,1,0.03937,0.01968,0.09842*
1,1,0.03937,0.01968,-0.09842*
%
%ADD33ROUNDEDRECTD33*%
G04:AMPARAMS|DCode=34|XSize=106.3mil|YSize=66.93mil|CornerRadius=16.73mil|HoleSize=0mil|Usage=FLASHONLY|Rotation=90.000|XOffset=0mil|YOffset=0mil|HoleType=Round|Shape=RoundedRectangle|*
%AMROUNDEDRECTD34*
21,1,0.10630,0.03347,0,0,90.0*
21,1,0.07283,0.06693,0,0,90.0*
1,1,0.03346,0.01673,0.03642*
1,1,0.03346,0.01673,-0.03642*
1,1,0.03346,-0.01673,-0.03642*
1,1,0.03346,-0.01673,0.03642*
%
%ADD34ROUNDEDRECTD34*%
%ADD35R,0.14173X0.14173*%
%ADD36O,0.03150X0.00984*%
%ADD37O,0.00984X0.03150*%
G04:AMPARAMS|DCode=38|XSize=43.31mil|YSize=74.8mil|CornerRadius=10.83mil|HoleSize=0mil|Usage=FLASHONLY|Rotation=0.000|XOffset=0mil|YOffset=0mil|HoleType=Round|Shape=RoundedRectangle|*
%AMROUNDEDRECTD38*
21,1,0.04331,0.05315,0,0,0.0*
21,1,0.02165,0.07480,0,0,0.0*
1,1,0.02165,0.01083,-0.02657*
1,1,0.02165,-0.01083,-0.02657*
1,1,0.02165,-0.01083,0.02657*
1,1,0.02165,0.01083,0.02657*
%
%ADD38ROUNDEDRECTD38*%
G04:AMPARAMS|DCode=39|XSize=51.18mil|YSize=41.34mil|CornerRadius=10.34mil|HoleSize=0mil|Usage=FLASHONLY|Rotation=180.000|XOffset=0mil|YOffset=0mil|HoleType=Round|Shape=RoundedRectangle|*
%AMROUNDEDRECTD39*
21,1,0.05118,0.02067,0,0,180.0*
21,1,0.03051,0.04134,0,0,180.0*
1,1,0.02067,-0.01526,0.01034*
1,1,0.02067,0.01526,0.01034*
1,1,0.02067,0.01526,-0.01034*
1,1,0.02067,-0.01526,-0.01034*
%
%ADD39ROUNDEDRECTD39*%
G04:AMPARAMS|DCode=40|XSize=25.59mil|YSize=49.21mil|CornerRadius=6.4mil|HoleSize=0mil|Usage=FLASHONLY|Rotation=90.000|XOffset=0mil|YOffset=0mil|HoleType=Round|Shape=RoundedRectangle|*
%AMROUNDEDRECTD40*
21,1,0.02559,0.03642,0,0,90.0*
21,1,0.01279,0.04921,0,0,90.0*
1,1,0.01279,0.01821,0.00640*
1,1,0.01279,0.01821,-0.00640*
1,1,0.01279,-0.01821,-0.00640*
1,1,0.01279,-0.01821,0.00640*
%
%ADD40ROUNDEDRECTD40*%
G04:AMPARAMS|DCode=41|XSize=41.34mil|YSize=53.15mil|CornerRadius=6.2mil|HoleSize=0mil|Usage=FLASHONLY|Rotation=180.000|XOffset=0mil|YOffset=0mil|HoleType=Round|Shape=RoundedRectangle|*
%AMROUNDEDRECTD41*
21,1,0.04134,0.04075,0,0,180.0*
21,1,0.02894,0.05315,0,0,180.0*
1,1,0.01240,-0.01447,0.02037*
1,1,0.01240,0.01447,0.02037*
1,1,0.01240,0.01447,-0.02037*
1,1,0.01240,-0.01447,-0.02037*
%
%ADD41ROUNDEDRECTD41*%
G04:AMPARAMS|DCode=42|XSize=82.68mil|YSize=29.53mil|CornerRadius=7.38mil|HoleSize=0mil|Usage=FLASHONLY|Rotation=0.000|XOffset=0mil|YOffset=0mil|HoleType=Round|Shape=RoundedRectangle|*
%AMROUNDEDRECTD42*
21,1,0.08268,0.01476,0,0,0.0*
21,1,0.06791,0.02953,0,0,0.0*
1,1,0.01476,0.03396,-0.00738*
1,1,0.01476,-0.03396,-0.00738*
1,1,0.01476,-0.03396,0.00738*
1,1,0.01476,0.03396,0.00738*
%
%ADD42ROUNDEDRECTD42*%
G04:AMPARAMS|DCode=43|XSize=55.12mil|YSize=55.12mil|CornerRadius=8.27mil|HoleSize=0mil|Usage=FLASHONLY|Rotation=180.000|XOffset=0mil|YOffset=0mil|HoleType=Round|Shape=RoundedRectangle|*
%AMROUNDEDRECTD43*
21,1,0.05512,0.03858,0,0,180.0*
21,1,0.03858,0.05512,0,0,180.0*
1,1,0.01654,-0.01929,0.01929*
1,1,0.01654,0.01929,0.01929*
1,1,0.01654,0.01929,-0.01929*
1,1,0.01654,-0.01929,-0.01929*
%
%ADD43ROUNDEDRECTD43*%
G04:AMPARAMS|DCode=44|XSize=17.72mil|YSize=30.51mil|CornerRadius=4.43mil|HoleSize=0mil|Usage=FLASHONLY|Rotation=90.000|XOffset=0mil|YOffset=0mil|HoleType=Round|Shape=RoundedRectangle|*
%AMROUNDEDRECTD44*
21,1,0.01772,0.02165,0,0,90.0*
21,1,0.00886,0.03051,0,0,90.0*
1,1,0.00886,0.01083,0.00443*
1,1,0.00886,0.01083,-0.00443*
1,1,0.00886,-0.01083,-0.00443*
1,1,0.00886,-0.01083,0.00443*
%
%ADD44ROUNDEDRECTD44*%
G04:AMPARAMS|DCode=45|XSize=17.72mil|YSize=45.28mil|CornerRadius=1.95mil|HoleSize=0mil|Usage=FLASHONLY|Rotation=90.000|XOffset=0mil|YOffset=0mil|HoleType=Round|Shape=RoundedRectangle|*
%AMROUNDEDRECTD45*
21,1,0.01772,0.04138,0,0,90.0*
21,1,0.01382,0.04528,0,0,90.0*
1,1,0.00390,0.02069,0.00691*
1,1,0.00390,0.02069,-0.00691*
1,1,0.00390,-0.02069,-0.00691*
1,1,0.00390,-0.02069,0.00691*
%
%ADD45ROUNDEDRECTD45*%
%ADD46O,0.09842X0.02756*%
%ADD47R,0.02362X0.02362*%
%ADD48R,0.41339X0.32677*%
%ADD49R,0.03740X0.12598*%
%ADD50C,0.06299*%
G04:AMPARAMS|DCode=51|XSize=66.93mil|YSize=49.21mil|CornerRadius=12.3mil|HoleSize=0mil|Usage=FLASHONLY|Rotation=90.000|XOffset=0mil|YOffset=0mil|HoleType=Round|Shape=RoundedRectangle|*
%AMROUNDEDRECTD51*
21,1,0.06693,0.02461,0,0,90.0*
21,1,0.04232,0.04921,0,0,90.0*
1,1,0.02461,0.01230,0.02116*
1,1,0.02461,0.01230,-0.02116*
1,1,0.02461,-0.01230,-0.02116*
1,1,0.02461,-0.01230,0.02116*
%
%ADD51ROUNDEDRECTD51*%
G04:AMPARAMS|DCode=52|XSize=106.3mil|YSize=66.93mil|CornerRadius=16.73mil|HoleSize=0mil|Usage=FLASHONLY|Rotation=180.000|XOffset=0mil|YOffset=0mil|HoleType=Round|Shape=RoundedRectangle|*
%AMROUNDEDRECTD52*
21,1,0.10630,0.03347,0,0,180.0*
21,1,0.07283,0.06693,0,0,180.0*
1,1,0.03346,-0.03642,0.01673*
1,1,0.03346,0.03642,0.01673*
1,1,0.03346,0.03642,-0.01673*
1,1,0.03346,-0.03642,-0.01673*
%
%ADD52ROUNDEDRECTD52*%
%ADD53R,0.05512X0.04331*%
%ADD54O,0.08661X0.02362*%
%ADD55R,0.04331X0.05512*%
G04:AMPARAMS|DCode=56|XSize=11.81mil|YSize=15.75mil|CornerRadius=1.95mil|HoleSize=0mil|Usage=FLASHONLY|Rotation=90.000|XOffset=0mil|YOffset=0mil|HoleType=Round|Shape=RoundedRectangle|*
%AMROUNDEDRECTD56*
21,1,0.01181,0.01185,0,0,90.0*
21,1,0.00791,0.01575,0,0,90.0*
1,1,0.00390,0.00592,0.00396*
1,1,0.00390,0.00592,-0.00396*
1,1,0.00390,-0.00592,-0.00396*
1,1,0.00390,-0.00592,0.00396*
%
%ADD56ROUNDEDRECTD56*%
G04:AMPARAMS|DCode=57|XSize=11.81mil|YSize=31.5mil|CornerRadius=1.95mil|HoleSize=0mil|Usage=FLASHONLY|Rotation=180.000|XOffset=0mil|YOffset=0mil|HoleType=Round|Shape=RoundedRectangle|*
%AMROUNDEDRECTD57*
21,1,0.01181,0.02760,0,0,180.0*
21,1,0.00791,0.03150,0,0,180.0*
1,1,0.00390,-0.00396,0.01380*
1,1,0.00390,0.00396,0.01380*
1,1,0.00390,0.00396,-0.01380*
1,1,0.00390,-0.00396,-0.01380*
%
%ADD57ROUNDEDRECTD57*%
%ADD58C,0.04724*%
G04:AMPARAMS|DCode=59|XSize=9.84mil|YSize=49.21mil|CornerRadius=1.97mil|HoleSize=0mil|Usage=FLASHONLY|Rotation=180.000|XOffset=0mil|YOffset=0mil|HoleType=Round|Shape=RoundedRectangle|*
%AMROUNDEDRECTD59*
21,1,0.00984,0.04528,0,0,180.0*
21,1,0.00591,0.04921,0,0,180.0*
1,1,0.00394,-0.00295,0.02264*
1,1,0.00394,0.00295,0.02264*
1,1,0.00394,0.00295,-0.02264*
1,1,0.00394,-0.00295,-0.02264*
%
%ADD59ROUNDEDRECTD59*%
G04:AMPARAMS|DCode=60|XSize=9.84mil|YSize=49.21mil|CornerRadius=1.97mil|HoleSize=0mil|Usage=FLASHONLY|Rotation=90.000|XOffset=0mil|YOffset=0mil|HoleType=Round|Shape=RoundedRectangle|*
%AMROUNDEDRECTD60*
21,1,0.00984,0.04528,0,0,90.0*
21,1,0.00591,0.04921,0,0,90.0*
1,1,0.00394,0.02264,0.00295*
1,1,0.00394,0.02264,-0.00295*
1,1,0.00394,-0.02264,-0.00295*
1,1,0.00394,-0.02264,0.00295*
%
%ADD60ROUNDEDRECTD60*%
%ADD61R,0.09055X0.09055*%
%ADD62C,0.00787*%
%ADD63C,0.00800*%
%ADD64C,0.01496*%
%ADD65C,0.01968*%
%ADD66C,0.02000*%
%ADD67C,0.01181*%
%ADD68C,0.03000*%
%ADD69C,0.01200*%
%ADD70C,0.01500*%
%ADD71C,0.02362*%
%ADD72C,0.01575*%
%ADD73C,0.01102*%
%ADD74C,0.01000*%
%ADD75C,0.01600*%
%ADD76C,0.02500*%
%ADD77C,0.10000*%
%ADD78R,0.25394X0.05512*%
%ADD79R,0.06857X0.05020*%
%ADD80R,0.07874X0.06791*%
%ADD81R,0.03150X0.12795*%
%ADD82R,0.07874X0.08071*%
%ADD83R,0.14173X0.04134*%
%ADD84R,0.07874X0.16732*%
%ADD85R,0.03543X0.14173*%
%ADD86R,0.30817X0.05512*%
%ADD87R,0.07874X0.09350*%
%ADD88R,0.12795X0.04134*%
%ADD89R,0.12796X0.04528*%
%ADD90C,0.00050*%
%ADD91C,0.08268*%
%ADD92R,0.05512X0.05512*%
%ADD93C,0.17716*%
%ADD94R,0.07087X0.09842*%
%ADD95O,0.07087X0.09842*%
%ADD96C,0.10630*%
%ADD97C,0.35433*%
%ADD98C,0.02362*%
%ADD99C,0.02800*%
%ADD100C,0.02000*%
%ADD101C,0.01968*%
G36*
X264356Y460323D02*
Y459160D01*
X264345Y459102D01*
X264356Y459044D01*
Y456838D01*
X264448Y456378D01*
X264709Y455987D01*
X265100Y455726D01*
X265561Y455634D01*
X266742D01*
X267202Y455726D01*
X267593Y455987D01*
X267854Y456378D01*
X267946Y456838D01*
Y457383D01*
X268200Y457433D01*
X268419Y457579D01*
X268988Y457628D01*
X269574Y457236D01*
X270265Y457099D01*
X270956Y457236D01*
X271542Y457628D01*
X271710Y457880D01*
X271810Y457883D01*
X272303Y457412D01*
Y456149D01*
X272418Y455573D01*
X272744Y455085D01*
X272888Y454989D01*
Y454259D01*
X272744Y454163D01*
X272514Y453818D01*
X269304D01*
X269293Y453871D01*
X268967Y454360D01*
X268479Y454686D01*
X267903Y454801D01*
X266131D01*
X265555Y454686D01*
X265067Y454360D01*
X265052Y454338D01*
X264554Y454289D01*
X262757Y456086D01*
Y456232D01*
X262854Y456378D01*
X262946Y456838D01*
Y460677D01*
X264003Y460677D01*
X264356Y460323D01*
D02*
G37*
G36*
X560141Y620374D02*
Y447244D01*
X526127D01*
X526086Y447342D01*
Y508366D01*
X513899D01*
X513389Y508366D01*
X513291Y508268D01*
X513625Y507933D01*
X513625Y507866D01*
Y504606D01*
X492365D01*
Y487283D01*
X491578D01*
Y504606D01*
X470318D01*
Y494905D01*
X469856Y494714D01*
X469295Y495276D01*
Y508957D01*
X459550D01*
X458861Y509646D01*
X457188Y507972D01*
Y442618D01*
X418901D01*
X418507Y443012D01*
Y564862D01*
X419196D01*
X476676Y622342D01*
X558173D01*
X560141Y620374D01*
D02*
G37*
G36*
X242214Y506124D02*
X243789D01*
X244560Y506225D01*
X245278Y506523D01*
X245895Y506996D01*
X246368Y507613D01*
X246666Y508331D01*
X246767Y509102D01*
Y515018D01*
X247229Y515209D01*
X252057Y510382D01*
X252057Y484687D01*
X251742Y484428D01*
X251545D01*
Y480559D01*
X251151D01*
Y480165D01*
X248955D01*
Y478295D01*
X248995Y478091D01*
X248678Y477705D01*
X246348Y477705D01*
X230320Y493733D01*
X230553Y494206D01*
X231289Y494109D01*
X234242D01*
Y500638D01*
X234635D01*
Y501031D01*
X241754D01*
Y503394D01*
X241626Y504370D01*
X241249Y505280D01*
X240985Y505624D01*
X241231Y506124D01*
X241427D01*
Y518945D01*
X242214D01*
Y506124D01*
D02*
G37*
G36*
X339261Y457429D02*
X341285Y457429D01*
Y453295D01*
X341377Y452834D01*
X341638Y452444D01*
X342029Y452182D01*
X342490Y452091D01*
X343671D01*
X344131Y452182D01*
X344522Y452444D01*
X344783Y452834D01*
X344875Y453295D01*
Y457075D01*
X345229Y457429D01*
X349301Y457428D01*
X349301Y452311D01*
X351171Y450441D01*
X354025Y447586D01*
X355698D01*
Y442272D01*
X345364D01*
X343395Y444240D01*
X334242D01*
X332568Y442567D01*
X328139Y438138D01*
X244576Y438138D01*
X240147Y442567D01*
X240147Y456642D01*
X244182Y460677D01*
X249003Y460677D01*
X249356Y460323D01*
Y456838D01*
X249448Y456378D01*
X249709Y455987D01*
X250100Y455726D01*
X250560Y455634D01*
X251742D01*
X252202Y455726D01*
X252593Y455987D01*
X252854Y456378D01*
X252946Y456838D01*
Y460677D01*
X259003Y460677D01*
X259356Y460323D01*
Y456838D01*
X259448Y456378D01*
X259545Y456232D01*
Y455421D01*
X259545Y455421D01*
X259668Y454807D01*
X260016Y454286D01*
X263224Y451077D01*
X263224Y451077D01*
X263745Y450729D01*
X264360Y450607D01*
X264968D01*
X265067Y450459D01*
X265555Y450133D01*
X266131Y450019D01*
X267903D01*
X268479Y450133D01*
X268514Y450157D01*
X268834Y449804D01*
X268486Y449284D01*
X268389Y448792D01*
X267705Y448108D01*
X266131D01*
X265555Y447993D01*
X265067Y447667D01*
X264740Y447179D01*
X264626Y446602D01*
Y444831D01*
X264740Y444255D01*
X265067Y443766D01*
X265555Y443440D01*
X266131Y443326D01*
X267903D01*
X268479Y443440D01*
X268967Y443766D01*
X269293Y444255D01*
X269408Y444831D01*
Y446405D01*
X270091Y447087D01*
X270584Y447186D01*
X271105Y447534D01*
X271453Y448055D01*
X271576Y448669D01*
X271453Y449284D01*
X271105Y449804D01*
X270653Y450107D01*
X270662Y450384D01*
X270736Y450607D01*
X272514D01*
X272744Y450262D01*
X272888Y450166D01*
Y449161D01*
X273025Y448470D01*
X273417Y447884D01*
X274003Y447492D01*
X274694Y447355D01*
X275386Y447492D01*
X275972Y447884D01*
X276363Y448470D01*
X276501Y449161D01*
Y450166D01*
X276644Y450262D01*
X276971Y450751D01*
X277085Y451327D01*
Y453098D01*
X276971Y453674D01*
X276644Y454163D01*
X276501Y454259D01*
Y454989D01*
X276645Y455085D01*
X276971Y455573D01*
X277085Y456149D01*
Y457921D01*
X276971Y458497D01*
X276645Y458986D01*
X276206Y459278D01*
X276180Y459545D01*
X276206Y459812D01*
X276644Y460104D01*
X276971Y460593D01*
X276987Y460677D01*
X279094Y460677D01*
X279110Y460593D01*
X279437Y460104D01*
X279875Y459812D01*
X279902Y459545D01*
X279875Y459278D01*
X279437Y458986D01*
X279111Y458497D01*
X278996Y457921D01*
Y456149D01*
X279111Y455573D01*
X279437Y455085D01*
X279925Y454759D01*
X280501Y454644D01*
X282273D01*
X282849Y454759D01*
X283337Y455085D01*
X283568Y455430D01*
X283948D01*
X284042Y455366D01*
X284734Y455229D01*
X285425Y455366D01*
X286011Y455758D01*
X286403Y456344D01*
X286540Y457035D01*
X286403Y457727D01*
X286011Y458313D01*
X285425Y458704D01*
X284734Y458842D01*
X284042Y458704D01*
X283948Y458641D01*
X283568D01*
X283337Y458986D01*
X282899Y459278D01*
X282872Y459545D01*
X282899Y459812D01*
X283337Y460104D01*
X283567Y460449D01*
X283993D01*
X284143Y460349D01*
X284834Y460212D01*
X285525Y460349D01*
X286016Y460677D01*
X336013Y460677D01*
X339261Y457429D01*
D02*
G37*
G36*
X298710Y403492D02*
X304222Y403492D01*
X313966Y393747D01*
X313966Y382429D01*
X310718Y382429D01*
X302647D01*
X302549Y382527D01*
X298710Y384890D01*
X298710Y392437D01*
X290490D01*
Y397783D01*
Y403492D01*
X291572Y403492D01*
X298710Y403492D01*
D02*
G37*
G36*
X332672Y403577D02*
X333258Y402984D01*
X333258Y364811D01*
X310915Y342468D01*
X298907D01*
X298907Y374457D01*
X302549Y378098D01*
X303730D01*
X315719Y378098D01*
X319675Y381505D01*
X319674Y403535D01*
X320028Y403888D01*
X328828Y403888D01*
X332512D01*
X332672Y403577D01*
D02*
G37*
G36*
X344284Y436555D02*
X344089Y436264D01*
X343951Y435569D01*
Y434102D01*
X348612D01*
Y433709D01*
X349005D01*
Y430032D01*
X351456D01*
X352151Y430170D01*
X352741Y430564D01*
X353134Y431153D01*
X353229Y431628D01*
X353739D01*
X353833Y431153D01*
X354227Y430564D01*
X354816Y430170D01*
X355511Y430032D01*
X357962D01*
Y433709D01*
X358356D01*
Y434102D01*
X363017D01*
Y435398D01*
X363118Y435522D01*
X363349Y435700D01*
X363489Y435756D01*
X364064Y435642D01*
X364950D01*
X364950Y414220D01*
X364852D01*
X364092Y413460D01*
X363668Y413744D01*
X363869Y414229D01*
X363946Y414812D01*
X360619D01*
Y411485D01*
X361202Y411562D01*
X361687Y411763D01*
X361971Y411339D01*
X361309Y410677D01*
X334424D01*
X334140Y411177D01*
X334285Y411907D01*
Y412744D01*
X329911D01*
X325537D01*
Y411907D01*
X325682Y411177D01*
X325398Y410677D01*
X317115D01*
X315541Y412252D01*
Y414319D01*
X315541Y417091D01*
X316041Y417342D01*
X316520Y417143D01*
X317214Y417052D01*
X318494D01*
Y423374D01*
X318887D01*
Y423768D01*
X323241D01*
Y427016D01*
X323149Y427709D01*
X322882Y428356D01*
X322456Y428911D01*
X321901Y429337D01*
X321254Y429605D01*
X320561Y429696D01*
X319475D01*
X319127Y430196D01*
X319219Y430657D01*
Y431149D01*
X316426D01*
Y431543D01*
X316033D01*
Y434335D01*
X315541D01*
X315155Y434259D01*
X314702Y434606D01*
X314681Y435113D01*
X316623Y437055D01*
X333331Y437055D01*
X333906Y436671D01*
X334636Y436526D01*
X336407D01*
X337137Y436671D01*
X337712Y437055D01*
X344016Y437055D01*
X344284Y436555D01*
D02*
G37*
G36*
X307018Y432815D02*
X306941Y432429D01*
Y431937D01*
X309733D01*
Y431149D01*
X306941D01*
Y430657D01*
X307032Y430196D01*
X306685Y429696D01*
X305403D01*
X304709Y429605D01*
X304063Y429337D01*
X303508Y428911D01*
X303082Y428356D01*
X302814Y427709D01*
X302723Y427016D01*
Y423768D01*
X307076D01*
Y423374D01*
X307470D01*
Y417052D01*
X308315D01*
X308522Y416552D01*
X303533Y411563D01*
X300879Y411563D01*
X300525Y411916D01*
Y412350D01*
X296151D01*
X291777D01*
Y411514D01*
X291619Y411315D01*
X278590Y410915D01*
X271840Y417665D01*
X271840Y420413D01*
X272340Y420660D01*
X272588Y420469D01*
X273438Y420117D01*
X274350Y419997D01*
X284438D01*
Y426031D01*
Y432065D01*
X275038D01*
X274831Y432565D01*
X275580Y433315D01*
X306635Y433315D01*
X307018Y432815D01*
D02*
G37*
G36*
X319183Y550146D02*
X319182Y513630D01*
Y510972D01*
X315541Y507331D01*
X299596D01*
X282864Y524063D01*
X276368Y530559D01*
X269224D01*
X269072Y531059D01*
X269547Y531376D01*
X269960Y531995D01*
X270105Y532724D01*
Y533216D01*
X267312D01*
Y533610D01*
X266919D01*
Y536403D01*
X266427D01*
X265697Y536258D01*
X265155Y535895D01*
X264859Y535982D01*
X264655Y536110D01*
Y550736D01*
X267017Y553098D01*
X316230Y553098D01*
X319183Y550146D01*
D02*
G37*
G36*
X279585Y511664D02*
Y501689D01*
X276723Y498828D01*
X276225Y498877D01*
X276168Y498962D01*
X275582Y499354D01*
X274891Y499491D01*
X274200Y499354D01*
X273614Y498962D01*
X273222Y498376D01*
X273085Y497685D01*
X273222Y496993D01*
X273285Y496899D01*
Y496519D01*
X272941Y496289D01*
X272614Y495801D01*
X272500Y495225D01*
Y493453D01*
X272529Y493307D01*
Y488531D01*
X271151Y487153D01*
X268395Y484398D01*
X259340D01*
Y484496D01*
X257372Y484398D01*
X256873Y484402D01*
X256742Y484428D01*
X256544D01*
Y480559D01*
X255757D01*
Y484428D01*
X255560D01*
X254946Y484306D01*
X254425Y483958D01*
X254230Y483666D01*
X253730Y483817D01*
Y493462D01*
X254230Y493613D01*
X254251Y493581D01*
X254870Y493168D01*
X255600Y493022D01*
X256092D01*
Y495815D01*
X256879D01*
Y493022D01*
X257371D01*
X258101Y493168D01*
X258700Y493568D01*
X259299Y493168D01*
X260029Y493022D01*
X260521D01*
Y495815D01*
X260915D01*
Y496209D01*
X263707D01*
Y496701D01*
X263562Y497431D01*
X263149Y498049D01*
X263131Y498228D01*
X265049Y500145D01*
Y508014D01*
X265435Y508331D01*
X265669Y508285D01*
X267312D01*
Y511367D01*
X268100D01*
Y508285D01*
X269743D01*
X270370Y508409D01*
X270900Y508764D01*
X271201Y509214D01*
X271204Y509216D01*
X271555Y509252D01*
X271751Y509224D01*
X271992Y508862D01*
X272523Y508508D01*
X273149Y508383D01*
X274793D01*
Y511466D01*
X275580D01*
Y508383D01*
X277224D01*
X277850Y508508D01*
X278380Y508862D01*
X278735Y509393D01*
X278860Y510019D01*
Y511596D01*
X279360Y511839D01*
X279585Y511664D01*
D02*
G37*
G36*
X335029Y502679D02*
X336604D01*
X337375Y502781D01*
X338093Y503078D01*
X338710Y503551D01*
X339183Y504168D01*
X339480Y504886D01*
X339582Y505657D01*
Y510490D01*
X340044Y510682D01*
X344281Y506445D01*
X344281Y481158D01*
X343894Y480840D01*
X343671Y480885D01*
X343474D01*
Y477016D01*
X343080D01*
Y476622D01*
X340884D01*
Y474752D01*
X340925Y474548D01*
X340607Y474161D01*
X338179Y474161D01*
X323165Y489175D01*
X323398Y489649D01*
X323907Y489582D01*
X326860D01*
Y496110D01*
X327253D01*
Y496504D01*
X334372D01*
Y498866D01*
X334244Y499842D01*
X333867Y500752D01*
X333267Y501534D01*
X332486Y502133D01*
X332254Y502229D01*
X332384Y502716D01*
X332667Y502679D01*
X334242D01*
Y515500D01*
X335029D01*
Y502679D01*
D02*
G37*
%LPC*%
G36*
X250758Y484428D02*
X250560D01*
X249946Y484306D01*
X249425Y483958D01*
X249077Y483437D01*
X248955Y482823D01*
Y480953D01*
X250758D01*
Y484428D01*
D02*
G37*
G36*
X241754Y500244D02*
X235029D01*
Y494109D01*
X237982D01*
X238958Y494238D01*
X239868Y494615D01*
X240649Y495214D01*
X241249Y495996D01*
X241626Y496905D01*
X241754Y497882D01*
Y500244D01*
D02*
G37*
G36*
X359832Y418926D02*
X359249Y418850D01*
X358339Y418473D01*
X357558Y417873D01*
X356958Y417092D01*
X356581Y416182D01*
X356505Y415599D01*
X359832D01*
Y418926D01*
D02*
G37*
G36*
X332027Y416626D02*
X330305D01*
Y413531D01*
X334285D01*
Y414368D01*
X334113Y415232D01*
X333624Y415965D01*
X332891Y416454D01*
X332027Y416626D01*
D02*
G37*
G36*
X360619Y418926D02*
Y415599D01*
X363946D01*
X363869Y416182D01*
X363492Y417092D01*
X362893Y417873D01*
X362112Y418473D01*
X361202Y418850D01*
X360619Y418926D01*
D02*
G37*
G36*
X323241Y422980D02*
X319281D01*
Y417052D01*
X320561D01*
X321254Y417143D01*
X321901Y417411D01*
X322456Y417837D01*
X322882Y418392D01*
X323149Y419038D01*
X323241Y419732D01*
Y422980D01*
D02*
G37*
G36*
X359832Y414812D02*
X356505D01*
X356581Y414229D01*
X356958Y413319D01*
X357558Y412538D01*
X358339Y411939D01*
X359249Y411562D01*
X359832Y411485D01*
Y414812D01*
D02*
G37*
G36*
X329517Y416626D02*
X327795D01*
X326931Y416454D01*
X326198Y415965D01*
X325709Y415232D01*
X325537Y414368D01*
Y413531D01*
X329517D01*
Y416626D01*
D02*
G37*
G36*
X348218Y433315D02*
X343951D01*
Y431848D01*
X344089Y431153D01*
X344483Y430564D01*
X345072Y430170D01*
X345767Y430032D01*
X348218D01*
Y433315D01*
D02*
G37*
G36*
X317312Y434335D02*
X316820D01*
Y431937D01*
X319219D01*
Y432429D01*
X319074Y433158D01*
X318660Y433777D01*
X318042Y434190D01*
X317312Y434335D01*
D02*
G37*
G36*
X363017Y433315D02*
X358749D01*
Y430032D01*
X361200D01*
X361895Y430170D01*
X362485Y430564D01*
X362878Y431153D01*
X363017Y431848D01*
Y433315D01*
D02*
G37*
G36*
X306683Y422980D02*
X302723D01*
Y419732D01*
X302814Y419038D01*
X303082Y418392D01*
X303508Y417837D01*
X304063Y417411D01*
X304709Y417143D01*
X305403Y417052D01*
X306683D01*
Y422980D01*
D02*
G37*
G36*
X295758Y416232D02*
X294035D01*
X293171Y416060D01*
X292438Y415571D01*
X291949Y414838D01*
X291777Y413974D01*
Y413138D01*
X295758D01*
Y416232D01*
D02*
G37*
G36*
X298267D02*
X296545D01*
Y413138D01*
X300525D01*
Y413974D01*
X300353Y414838D01*
X299864Y415571D01*
X299131Y416060D01*
X298267Y416232D01*
D02*
G37*
G36*
X295314Y432065D02*
X285226D01*
Y426425D01*
X298839D01*
Y428541D01*
X298719Y429453D01*
X298366Y430303D01*
X297806Y431033D01*
X297077Y431593D01*
X296227Y431945D01*
X295314Y432065D01*
D02*
G37*
G36*
X298839Y425638D02*
X285226D01*
Y419997D01*
X295314D01*
X296227Y420117D01*
X297077Y420469D01*
X297806Y421030D01*
X298366Y421759D01*
X298719Y422609D01*
X298839Y423522D01*
Y425638D01*
D02*
G37*
G36*
X278926Y546700D02*
X275600D01*
X275676Y546118D01*
X276053Y545208D01*
X276653Y544427D01*
X277434Y543827D01*
X278344Y543450D01*
X278926Y543374D01*
Y546700D01*
D02*
G37*
G36*
Y550815D02*
X278344Y550738D01*
X277434Y550361D01*
X276653Y549762D01*
X276053Y548980D01*
X275676Y548071D01*
X275600Y547488D01*
X278926D01*
Y550815D01*
D02*
G37*
G36*
X279714Y550815D02*
Y547488D01*
X283041D01*
X282964Y548071D01*
X282587Y548980D01*
X281988Y549762D01*
X281206Y550361D01*
X280297Y550738D01*
X279714Y550815D01*
D02*
G37*
G36*
X268198Y536403D02*
X267706D01*
Y534004D01*
X270105D01*
Y534496D01*
X269960Y535226D01*
X269547Y535844D01*
X268928Y536258D01*
X268198Y536403D01*
D02*
G37*
G36*
X283041Y546700D02*
X279714D01*
Y543374D01*
X280297Y543450D01*
X281206Y543827D01*
X281988Y544427D01*
X282587Y545208D01*
X282964Y546118D01*
X283041Y546700D01*
D02*
G37*
G36*
X263707Y495421D02*
X261308D01*
Y493022D01*
X261801D01*
X262530Y493168D01*
X263149Y493581D01*
X263562Y494200D01*
X263707Y494929D01*
Y495421D01*
D02*
G37*
G36*
X342686Y480885D02*
X342490D01*
X341875Y480763D01*
X341354Y480415D01*
X341006Y479894D01*
X340884Y479279D01*
Y477409D01*
X342686D01*
Y480885D01*
D02*
G37*
G36*
X334372Y495716D02*
X327647D01*
Y489582D01*
X330600D01*
X331576Y489710D01*
X332486Y490087D01*
X333267Y490687D01*
X333867Y491468D01*
X334244Y492378D01*
X334372Y493354D01*
Y495716D01*
D02*
G37*
%LPD*%
D10*
X525397Y385236D02*
D03*
Y373524D02*
D03*
D11*
X527464Y385236D02*
D03*
D12*
X530121Y382382D02*
D03*
D13*
Y380315D02*
D03*
Y378248D02*
D03*
D14*
Y376181D02*
D03*
D15*
X527464Y373524D02*
D03*
D16*
X519491Y382382D02*
D03*
D17*
Y380315D02*
D03*
Y378248D02*
D03*
Y376181D02*
D03*
D18*
X519983Y475787D02*
D03*
X463783D02*
D03*
D19*
X361223Y508367D02*
D03*
Y516044D02*
D03*
X275186Y511466D02*
D03*
Y519143D02*
D03*
X267706Y511367D02*
D03*
Y519044D02*
D03*
X368296Y508512D02*
D03*
Y516189D02*
D03*
D20*
X537110Y437992D02*
D03*
X530417D02*
D03*
X318999Y573524D02*
D03*
X325692D02*
D03*
X440653Y392322D02*
D03*
X447345D02*
D03*
X484551Y698670D02*
D03*
X477858D02*
D03*
X488291Y693847D02*
D03*
X481598D02*
D03*
X234438Y436957D02*
D03*
X241131D02*
D03*
X316426Y431543D02*
D03*
X309733D02*
D03*
X281387Y479378D02*
D03*
X274694D02*
D03*
X281387Y462055D02*
D03*
X274694D02*
D03*
X382076Y477015D02*
D03*
X375383D02*
D03*
X375384Y464811D02*
D03*
X382077D02*
D03*
X281682Y489516D02*
D03*
X274989D02*
D03*
X373415Y490303D02*
D03*
X366722D02*
D03*
X344885Y570965D02*
D03*
X351578D02*
D03*
X331795Y643110D02*
D03*
X325102D02*
D03*
X432090Y700245D02*
D03*
X438783D02*
D03*
X432413Y681652D02*
D03*
X439106D02*
D03*
X421067Y674359D02*
D03*
X427760D02*
D03*
X421067Y679280D02*
D03*
X427760D02*
D03*
X432386Y676820D02*
D03*
X439079D02*
D03*
X467129Y662950D02*
D03*
X460436D02*
D03*
X467129Y668847D02*
D03*
X460436D02*
D03*
X475299Y673867D02*
D03*
X481992D02*
D03*
X463783Y673965D02*
D03*
X470476D02*
D03*
X484551Y684202D02*
D03*
X477858D02*
D03*
X484649Y688827D02*
D03*
X477956D02*
D03*
X501775Y679673D02*
D03*
X495082D02*
D03*
X434551Y656937D02*
D03*
X427858D02*
D03*
X478448Y703099D02*
D03*
X471755D02*
D03*
X281584Y494339D02*
D03*
X274891D02*
D03*
X274891Y484594D02*
D03*
X281584D02*
D03*
X373279Y495737D02*
D03*
X366586D02*
D03*
X375383Y471110D02*
D03*
X382076D02*
D03*
X281387Y452212D02*
D03*
X274694D02*
D03*
X274694Y457035D02*
D03*
X281387D02*
D03*
X267312Y533610D02*
D03*
X260619D02*
D03*
X418114Y700343D02*
D03*
X424807D02*
D03*
X449807Y673178D02*
D03*
X456500D02*
D03*
X485239Y421555D02*
D03*
X491932D02*
D03*
X489471Y713977D02*
D03*
X482778D02*
D03*
X404826Y638484D02*
D03*
X411519D02*
D03*
X402562Y654429D02*
D03*
X409255D02*
D03*
X280403Y595815D02*
D03*
Y589122D02*
D03*
X457189Y707331D02*
D03*
Y714024D02*
D03*
X427858Y668749D02*
D03*
Y662056D02*
D03*
X314458Y389615D02*
D03*
X321150D02*
D03*
X204910Y522784D02*
D03*
X211603D02*
D03*
X234438Y415599D02*
D03*
X241131D02*
D03*
X234438Y420619D02*
D03*
X241131D02*
D03*
X234438Y425835D02*
D03*
X241131D02*
D03*
X234438Y431249D02*
D03*
X241131D02*
D03*
X448822Y721702D02*
D03*
X442130D02*
D03*
X509157Y705315D02*
D03*
X502464D02*
D03*
X213670Y476032D02*
D03*
X206978D02*
D03*
X207076Y481249D02*
D03*
X213769D02*
D03*
X443099Y371111D02*
D03*
X449792D02*
D03*
X206682Y547686D02*
D03*
X213375D02*
D03*
X224609Y535925D02*
D03*
X231302D02*
D03*
X204910Y527706D02*
D03*
X211603D02*
D03*
X489274Y725985D02*
D03*
X482581D02*
D03*
X489471Y733367D02*
D03*
X482778D02*
D03*
X493015Y433071D02*
D03*
X486322D02*
D03*
X505417Y365158D02*
D03*
X498724D02*
D03*
X500791Y433760D02*
D03*
X507483D02*
D03*
X498625Y375197D02*
D03*
X491932D02*
D03*
X476086Y357382D02*
D03*
X469393D02*
D03*
X342818Y643209D02*
D03*
X336125D02*
D03*
X329924Y574606D02*
D03*
X336617D02*
D03*
X384551Y541929D02*
D03*
X391244D02*
D03*
D21*
X369688Y606595D02*
D03*
Y613287D02*
D03*
X300987Y611221D02*
D03*
Y617914D02*
D03*
X443114Y700540D02*
D03*
X438487Y705166D02*
D03*
X443114Y707233D02*
D03*
X438487Y711859D02*
D03*
X490357Y673473D02*
D03*
Y680166D02*
D03*
X515653Y665796D02*
D03*
Y672489D02*
D03*
X452647Y391879D02*
D03*
Y385186D02*
D03*
X375777Y456248D02*
D03*
Y449555D02*
D03*
X267017Y452410D02*
D03*
Y445717D02*
D03*
X375791Y632087D02*
D03*
Y638779D02*
D03*
X369491Y632087D02*
D03*
Y638779D02*
D03*
X381499Y636024D02*
D03*
Y642717D02*
D03*
X369491Y650492D02*
D03*
Y643799D02*
D03*
X398527Y645177D02*
D03*
Y638484D02*
D03*
X381007Y659941D02*
D03*
Y653248D02*
D03*
X422247Y651673D02*
D03*
Y658366D02*
D03*
X431992Y710382D02*
D03*
Y717075D02*
D03*
X452365Y714123D02*
D03*
Y707430D02*
D03*
X392818Y627559D02*
D03*
Y620866D02*
D03*
X219380Y473964D02*
D03*
Y467271D02*
D03*
X335521Y446011D02*
D03*
Y439318D02*
D03*
X314064Y377410D02*
D03*
Y384103D02*
D03*
X281388Y473767D02*
D03*
Y467074D02*
D03*
X311801Y472488D02*
D03*
Y465795D02*
D03*
X364360Y468157D02*
D03*
Y461464D02*
D03*
X244084Y466582D02*
D03*
Y459889D02*
D03*
X256486Y495815D02*
D03*
Y502508D02*
D03*
X260915Y495815D02*
D03*
Y502508D02*
D03*
X349314Y491831D02*
D03*
Y498524D02*
D03*
X353743Y491831D02*
D03*
Y498524D02*
D03*
X275384Y595716D02*
D03*
Y589023D02*
D03*
X285325Y595815D02*
D03*
Y589121D02*
D03*
X289944Y595815D02*
D03*
Y589122D02*
D03*
X299558Y595815D02*
D03*
Y589122D02*
D03*
X326381Y569095D02*
D03*
Y562402D02*
D03*
X348035Y566339D02*
D03*
Y559646D02*
D03*
X423724Y695028D02*
D03*
Y688335D02*
D03*
X461913Y714122D02*
D03*
Y707429D02*
D03*
X466539Y714122D02*
D03*
Y707429D02*
D03*
X450495Y662056D02*
D03*
Y668749D02*
D03*
X439768Y662056D02*
D03*
Y668749D02*
D03*
X444293Y662155D02*
D03*
Y668848D02*
D03*
X455219Y662056D02*
D03*
Y668749D02*
D03*
X490062Y659005D02*
D03*
Y665698D02*
D03*
X484747Y659005D02*
D03*
Y665698D02*
D03*
X505810Y666190D02*
D03*
Y672883D02*
D03*
X511027Y665698D02*
D03*
Y672391D02*
D03*
X496165Y704969D02*
D03*
Y698276D02*
D03*
X434452Y662056D02*
D03*
Y668749D02*
D03*
X274694Y467075D02*
D03*
Y473768D02*
D03*
X369675Y449555D02*
D03*
Y456248D02*
D03*
X381190Y456149D02*
D03*
Y449457D02*
D03*
X520968Y679083D02*
D03*
Y672390D02*
D03*
X506303Y699162D02*
D03*
Y692469D02*
D03*
X418015Y706150D02*
D03*
Y712843D02*
D03*
X381499Y392422D02*
D03*
Y385729D02*
D03*
X206978Y464319D02*
D03*
Y471012D02*
D03*
X213769Y464221D02*
D03*
Y470914D02*
D03*
X449398Y365206D02*
D03*
Y358513D02*
D03*
X223527Y522540D02*
D03*
Y515847D02*
D03*
X230009Y522784D02*
D03*
Y529477D02*
D03*
X294773Y589123D02*
D03*
Y595816D02*
D03*
X364950Y445127D02*
D03*
Y438434D02*
D03*
X403926Y582922D02*
D03*
Y576229D02*
D03*
X194084Y481249D02*
D03*
X200777D02*
D03*
X444773Y365107D02*
D03*
X438080D02*
D03*
X359930Y489910D02*
D03*
Y496603D02*
D03*
X398808Y576229D02*
D03*
Y582922D02*
D03*
X373119Y579871D02*
D03*
Y586564D02*
D03*
X387306Y624902D02*
D03*
Y631595D02*
D03*
X496263Y387402D02*
D03*
Y380709D02*
D03*
X502070Y420276D02*
D03*
Y426968D02*
D03*
X507483Y427067D02*
D03*
Y420374D02*
D03*
X491932Y358465D02*
D03*
Y365158D02*
D03*
X431400Y395866D02*
D03*
Y389174D02*
D03*
X411618Y553149D02*
D03*
Y546456D02*
D03*
X436027Y621850D02*
D03*
Y615157D02*
D03*
X436027Y626476D02*
D03*
Y633169D02*
D03*
X384550Y553839D02*
D03*
Y547146D02*
D03*
X387011Y636221D02*
D03*
Y642913D02*
D03*
X471952Y639961D02*
D03*
Y646654D02*
D03*
X351564Y539811D02*
D03*
Y533118D02*
D03*
X210029Y502804D02*
D03*
Y509497D02*
D03*
X420673Y638433D02*
D03*
Y645126D02*
D03*
D22*
X442228Y351378D02*
D03*
X446249Y400442D02*
D03*
X395377Y471063D02*
D03*
X415554Y601181D02*
D03*
X360225Y415206D02*
D03*
X446263Y643110D02*
D03*
X403251Y693946D02*
D03*
X444294Y381791D02*
D03*
X385240Y377559D02*
D03*
X267214Y405658D02*
D03*
X472543Y727067D02*
D03*
X375974Y549359D02*
D03*
X311899Y451130D02*
D03*
X279320Y547094D02*
D03*
X286762Y397370D02*
D03*
X386558Y345000D02*
D03*
X332542D02*
D03*
X341558D02*
D03*
X377542D02*
D03*
X345456Y325984D02*
D03*
X349472Y318976D02*
D03*
X353487Y325984D02*
D03*
X357503Y318976D02*
D03*
X361519Y325984D02*
D03*
X365535Y318976D02*
D03*
X369550Y325984D02*
D03*
D23*
X284832Y426031D02*
D03*
Y441582D02*
D03*
D24*
X245561Y453000D02*
D03*
X234340D02*
D03*
X245561Y444240D02*
D03*
X234340D02*
D03*
D25*
X358356Y444929D02*
D03*
Y433708D02*
D03*
X348612Y444929D02*
D03*
Y433708D02*
D03*
D26*
X234635Y474653D02*
D03*
Y500638D02*
D03*
X327253Y496110D02*
D03*
Y470126D02*
D03*
D27*
X307666Y375147D02*
D03*
Y388532D02*
D03*
D28*
X472444Y665894D02*
D03*
X479728D02*
D03*
D29*
X497838Y665697D02*
D03*
Y672981D02*
D03*
D30*
X296151Y412744D02*
D03*
Y401130D02*
D03*
X329911Y413138D02*
D03*
Y401523D02*
D03*
D31*
X258651Y469831D02*
D03*
X350580Y466287D02*
D03*
D32*
X266151Y480559D02*
D03*
X261151D02*
D03*
X256151D02*
D03*
X251151D02*
D03*
X266151Y459102D02*
D03*
X261151D02*
D03*
X256151D02*
D03*
X251151D02*
D03*
X343080Y455559D02*
D03*
X348080D02*
D03*
X353080D02*
D03*
X358080D02*
D03*
X343080Y477016D02*
D03*
X348080D02*
D03*
X353080D02*
D03*
X358080D02*
D03*
D33*
X258749Y518945D02*
D03*
X241820D02*
D03*
X351564Y515500D02*
D03*
X334635D02*
D03*
D34*
X307076Y398571D02*
D03*
X318887D02*
D03*
Y423374D02*
D03*
X307076D02*
D03*
D35*
X458862Y690205D02*
D03*
D36*
X449019Y683316D02*
D03*
Y685284D02*
D03*
Y687253D02*
D03*
Y689221D02*
D03*
Y691189D02*
D03*
Y693158D02*
D03*
Y695126D02*
D03*
Y697095D02*
D03*
X468704D02*
D03*
Y695126D02*
D03*
Y693158D02*
D03*
Y691189D02*
D03*
Y689221D02*
D03*
Y687253D02*
D03*
Y685284D02*
D03*
Y683316D02*
D03*
D37*
X451972Y700048D02*
D03*
X453940D02*
D03*
X455909D02*
D03*
X457877D02*
D03*
X459846D02*
D03*
X461814D02*
D03*
X463783D02*
D03*
X465752D02*
D03*
Y680363D02*
D03*
X463783D02*
D03*
X461814D02*
D03*
X459846D02*
D03*
X457877D02*
D03*
X455909D02*
D03*
X453940D02*
D03*
X451972D02*
D03*
D38*
X332090Y564961D02*
D03*
X341932D02*
D03*
D39*
X438389Y695520D02*
D03*
X429334D02*
D03*
Y688237D02*
D03*
X438389D02*
D03*
D40*
X197824Y500737D02*
D03*
Y493257D02*
D03*
X206682Y496997D02*
D03*
D41*
X278237Y397391D02*
D03*
X270560D02*
D03*
D42*
X424820Y631471D02*
D03*
Y621471D02*
D03*
Y626471D02*
D03*
Y616471D02*
D03*
Y611471D02*
D03*
X409466Y631471D02*
D03*
Y626471D02*
D03*
Y616471D02*
D03*
Y621471D02*
D03*
Y611471D02*
D03*
D43*
X391623Y591387D02*
D03*
Y576426D02*
D03*
D44*
X385914Y583217D02*
D03*
X379222Y581249D02*
D03*
Y585186D02*
D03*
D45*
X217115Y533414D02*
D03*
Y535973D02*
D03*
Y538532D02*
D03*
Y541091D02*
D03*
X200383Y533414D02*
D03*
Y535973D02*
D03*
Y538532D02*
D03*
Y541091D02*
D03*
D46*
X351775Y392618D02*
D03*
Y387618D02*
D03*
Y382618D02*
D03*
Y377618D02*
D03*
Y372618D02*
D03*
Y367618D02*
D03*
Y362618D02*
D03*
X371066Y392618D02*
D03*
Y387618D02*
D03*
Y382618D02*
D03*
Y377618D02*
D03*
Y372618D02*
D03*
Y367618D02*
D03*
Y362618D02*
D03*
D47*
X408468Y737598D02*
D03*
X404531D02*
D03*
D48*
X491972Y487284D02*
D03*
D49*
X506972Y450079D02*
D03*
X501972D02*
D03*
X496972D02*
D03*
X491972D02*
D03*
X486972D02*
D03*
X481972D02*
D03*
X476972D02*
D03*
D50*
X551775Y390158D02*
D03*
D51*
X416736Y375295D02*
D03*
X405121D02*
D03*
X416834Y411122D02*
D03*
X405220D02*
D03*
D52*
X422739Y399114D02*
D03*
Y387303D02*
D03*
X397936D02*
D03*
Y399114D02*
D03*
D53*
X548232Y379823D02*
D03*
Y373917D02*
D03*
D54*
X482076Y365284D02*
D03*
Y370284D02*
D03*
Y375284D02*
D03*
Y380284D02*
D03*
X463178Y365284D02*
D03*
Y370284D02*
D03*
Y375284D02*
D03*
Y380284D02*
D03*
D55*
X390751Y514272D02*
D03*
X384846D02*
D03*
X539865Y366339D02*
D03*
X545771D02*
D03*
D56*
X407582Y551378D02*
D03*
Y547441D02*
D03*
X400889D02*
D03*
Y549409D02*
D03*
Y551378D02*
D03*
D57*
X382779Y522244D02*
D03*
X384747D02*
D03*
X386716D02*
D03*
X388684D02*
D03*
X382779Y534842D02*
D03*
X384747D02*
D03*
X386716D02*
D03*
X388684D02*
D03*
D58*
X338783Y382185D02*
D03*
X339570Y370866D02*
D03*
D59*
X316427Y582429D02*
D03*
X318395D02*
D03*
X320364D02*
D03*
X322332D02*
D03*
X324301D02*
D03*
X326269D02*
D03*
X328238D02*
D03*
X330206D02*
D03*
X332175D02*
D03*
X334143D02*
D03*
X336112D02*
D03*
X338080D02*
D03*
X340049D02*
D03*
X342017D02*
D03*
X343986D02*
D03*
X345954D02*
D03*
X347923D02*
D03*
X349891D02*
D03*
X351860D02*
D03*
X353828D02*
D03*
Y634594D02*
D03*
X351860D02*
D03*
X349891D02*
D03*
X347923D02*
D03*
X345954D02*
D03*
X343986D02*
D03*
X342017D02*
D03*
X340049D02*
D03*
X338080D02*
D03*
X336112D02*
D03*
X334143D02*
D03*
X332175D02*
D03*
X330206D02*
D03*
X328238D02*
D03*
X326269D02*
D03*
X324301D02*
D03*
X322332D02*
D03*
X320364D02*
D03*
X318395D02*
D03*
X316427D02*
D03*
D60*
X361210Y589811D02*
D03*
Y591779D02*
D03*
Y593748D02*
D03*
Y595716D02*
D03*
Y597685D02*
D03*
Y599653D02*
D03*
Y601622D02*
D03*
Y603590D02*
D03*
Y605559D02*
D03*
Y607527D02*
D03*
Y609496D02*
D03*
Y611464D02*
D03*
Y613433D02*
D03*
Y615401D02*
D03*
Y617370D02*
D03*
Y619338D02*
D03*
Y621307D02*
D03*
Y623275D02*
D03*
Y625244D02*
D03*
Y627212D02*
D03*
X309045D02*
D03*
Y625244D02*
D03*
Y623275D02*
D03*
Y621307D02*
D03*
Y619338D02*
D03*
Y617370D02*
D03*
Y615401D02*
D03*
Y613433D02*
D03*
Y611464D02*
D03*
Y609496D02*
D03*
Y607527D02*
D03*
Y605559D02*
D03*
Y603590D02*
D03*
Y601622D02*
D03*
Y599653D02*
D03*
Y597685D02*
D03*
Y595716D02*
D03*
Y593748D02*
D03*
Y591779D02*
D03*
Y589811D02*
D03*
D61*
X546066Y426279D02*
D03*
X528350D02*
D03*
X529039Y407480D02*
D03*
X546755D02*
D03*
D62*
X436027Y622047D02*
X436126Y621948D01*
X424820Y626471D02*
X436021D01*
X318866Y615469D02*
X321854D01*
X458862Y691583D02*
X465752Y698473D01*
X461814Y685284D02*
X463783D01*
X450988Y697095D02*
X457877Y690205D01*
X458862D01*
X470869Y354035D02*
X487502D01*
X430332Y621049D02*
X430641Y621358D01*
X430332Y621049D02*
X436126Y615256D01*
X410239Y549409D02*
X412700Y546949D01*
X390160Y624902D02*
X392818Y627559D01*
X387011Y625197D02*
X387405Y625591D01*
X388684Y518898D02*
X390751Y516831D01*
X388684Y518898D02*
Y522244D01*
X343986Y571865D02*
Y582429D01*
X329924Y574606D02*
X334143Y578825D01*
X345672Y558169D02*
X348527Y561023D01*
X357779Y379429D02*
X363605Y385256D01*
X413980Y601181D02*
X415456Y602658D01*
X430121Y621358D02*
X430641D01*
X491972Y401142D02*
X492562D01*
X519491Y376181D02*
Y377067D01*
X527464Y373622D02*
Y385236D01*
Y373524D02*
Y373622D01*
X537897Y366339D02*
X539865D01*
X526302Y388799D02*
X534058D01*
X525397Y387894D02*
X526302Y388799D01*
X525397Y385236D02*
Y387894D01*
X532365Y384154D02*
X532720Y383799D01*
X530712Y382382D02*
X532129Y383799D01*
X530121Y378799D02*
Y380315D01*
Y378248D02*
Y378799D01*
X491972Y487284D02*
X492031Y487343D01*
X410633Y444291D02*
X415357Y439567D01*
X364078Y433610D02*
X364950Y434482D01*
Y438434D01*
X498625Y375197D02*
Y378051D01*
X477365Y395669D02*
X485633Y387402D01*
X477365Y395669D02*
Y399705D01*
X474019Y447126D02*
X476972Y450079D01*
X474019Y395374D02*
Y447126D01*
Y395374D02*
X488389Y381004D01*
X435141Y386288D02*
Y399508D01*
Y386288D02*
X436913Y384516D01*
Y366274D02*
Y384516D01*
Y366274D02*
X438080Y365107D01*
X403645Y519783D02*
Y534184D01*
X402464Y535365D02*
X403645Y534184D01*
X402464Y535365D02*
Y542028D01*
X406893Y536625D02*
Y546752D01*
X405515Y535247D02*
X406893Y536625D01*
X405515Y519390D02*
Y535247D01*
X381795Y538780D02*
Y552658D01*
Y538780D02*
X382779Y537795D01*
X399117Y533957D02*
X399314D01*
X399806Y520177D02*
Y533465D01*
X401873Y520295D02*
Y533465D01*
X401102Y534236D02*
X401873Y533465D01*
X401102Y534236D02*
Y534779D01*
X400299Y535582D02*
X401102Y534779D01*
X400299Y535582D02*
Y537402D01*
X398527Y518898D02*
X399806Y520177D01*
X400594Y519016D02*
X401873Y520295D01*
X400594Y483169D02*
Y519016D01*
X402464Y518602D02*
X403645Y519783D01*
X402464Y483720D02*
Y518602D01*
X404137Y518012D02*
X405515Y519390D01*
X404137Y483996D02*
Y518012D01*
X398527Y483169D02*
Y518898D01*
X330613Y558169D02*
X345672D01*
X326381Y562402D02*
X330613Y558169D01*
X368999Y547441D02*
Y560138D01*
X385914Y585678D02*
X391623Y591387D01*
X350841Y586564D02*
X373119D01*
X365845Y596063D02*
X368409D01*
X376662Y585186D02*
X379222D01*
X374497D02*
X376662D01*
X406401Y443209D02*
Y477362D01*
X400594Y483169D02*
X406401Y477362D01*
X404531Y436108D02*
Y477165D01*
X398527Y483169D02*
X404531Y477165D01*
X399314Y533957D02*
X399806Y533465D01*
X400495Y543996D02*
X402464Y542028D01*
X406893Y546752D02*
X407582Y547441D01*
X411618Y546456D02*
X411814Y546260D01*
Y542717D02*
Y546260D01*
X405909Y549409D02*
X410239D01*
X403940Y547441D02*
X405909Y549409D01*
X408763Y443653D02*
X428990Y423425D01*
X410633Y444291D02*
Y477500D01*
X408763Y443653D02*
Y477421D01*
X390751Y514272D02*
Y516831D01*
X384846Y514272D02*
Y517126D01*
X386716Y518996D01*
Y522244D01*
X407582Y551378D02*
Y551772D01*
X405515Y553839D02*
X407582Y551772D01*
X384550Y553839D02*
X405515D01*
X384550Y579393D02*
X384981Y579823D01*
X382779Y534842D02*
Y537795D01*
X383566Y524803D02*
X384354D01*
Y522638D02*
Y524803D01*
X381795Y552658D02*
X382976Y553839D01*
X384550D01*
X382779Y532579D02*
Y534842D01*
X356007Y605413D02*
X358121Y607527D01*
X361210D01*
X387405Y625591D02*
X390259D01*
X387011Y625197D02*
X387306Y624902D01*
X370227Y619338D02*
X381302Y630413D01*
X300987Y607776D02*
X300987Y607776D01*
Y611221D01*
X379924Y658858D02*
X381007Y659941D01*
X369885Y658858D02*
X379924D01*
X369491Y650492D02*
X369885Y650886D01*
Y658858D01*
X331795Y643110D02*
X333566Y644882D01*
Y646358D01*
X487502Y354035D02*
X491932Y358465D01*
X469393Y355511D02*
X470869Y354035D01*
X469393Y355511D02*
Y357382D01*
X371066Y362618D02*
X371086Y362598D01*
X380810D01*
X355968Y377618D02*
X357779Y379429D01*
X351775Y367618D02*
X356991D01*
X357779Y368406D01*
Y379429D01*
X197481Y500394D02*
X197824Y500737D01*
X187503Y500394D02*
X197481D01*
X304743Y596177D02*
X306042D01*
X332175Y579624D02*
Y582429D01*
X331105Y578554D02*
X332175Y579624D01*
X331105Y578346D02*
Y578554D01*
X330613Y577854D02*
X331105Y578346D01*
X328448Y577854D02*
X330613D01*
X326873Y576279D02*
X328448Y577854D01*
X321755Y576279D02*
X326873D01*
X318999Y573524D02*
X321755Y576279D01*
X334143Y578825D02*
Y582429D01*
X328842Y573524D02*
X329924Y574606D01*
X325692Y573524D02*
X328842D01*
X341736Y571976D02*
X341932Y572173D01*
X341736Y566142D02*
Y571976D01*
X341932Y572173D02*
Y575897D01*
X348021Y575568D02*
X348282D01*
X347923Y575666D02*
X348021Y575568D01*
X343986Y571865D02*
X344885Y570965D01*
X402464Y483720D02*
X408763Y477421D01*
X336027Y643110D02*
X336112Y643195D01*
X331795Y643110D02*
X336027D01*
X368755Y607527D02*
X369688Y606595D01*
X361210Y607527D02*
X368755D01*
X300987Y611221D02*
X303199Y613433D01*
X309045D01*
X387306Y624902D02*
X390160D01*
X399609Y631595D02*
X399708Y631496D01*
X387306Y631595D02*
X399609D01*
X365798Y615401D02*
X366047Y615650D01*
X361065Y599508D02*
X361210Y599653D01*
X310125Y564729D02*
X310263Y564591D01*
X311027Y555905D02*
Y559055D01*
X310814Y559268D02*
X311027Y559055D01*
X310830Y561664D02*
Y562795D01*
X310814Y561649D02*
X310830Y561664D01*
X309045Y589811D02*
X310436Y588419D01*
X311669Y591779D02*
X313094Y590354D01*
X309045Y591779D02*
X311669D01*
X313731Y597685D02*
X313881Y597835D01*
X310814Y559268D02*
Y561649D01*
X306482Y595737D02*
X306764D01*
X306042Y596177D02*
X306482Y595737D01*
X314853Y599819D02*
X315209Y600175D01*
X309210Y599819D02*
X314853D01*
X313826Y601622D02*
X314363Y602159D01*
X309045Y601622D02*
X313826D01*
X314363Y602159D02*
X317222D01*
X443114Y700540D02*
X443114D01*
X438487Y705166D02*
X443114Y700540D01*
X443114Y691879D02*
Y700540D01*
Y691879D02*
X445762Y689230D01*
Y689112D02*
Y689230D01*
X497346Y673473D02*
X497838Y672981D01*
X490357Y673473D02*
X497346D01*
X463783Y676918D02*
Y680363D01*
Y676130D02*
Y676918D01*
X461814Y680363D02*
Y685284D01*
Y676327D02*
Y680363D01*
X418015Y715500D02*
X419689Y717174D01*
X418015Y712843D02*
Y715500D01*
X452365Y707430D02*
X452673D01*
X439964Y717174D02*
X446067Y711071D01*
Y696111D02*
Y711071D01*
X463783Y703394D02*
X466539Y706150D01*
X463783Y700048D02*
Y703394D01*
X461814Y700048D02*
Y707233D01*
X440259Y680855D02*
X442720Y683316D01*
X448232Y680363D02*
X451972D01*
X449019Y697095D02*
X450988D01*
X466539Y706150D02*
Y707429D01*
X471755Y700146D02*
Y701918D01*
X468704Y697095D02*
X471755Y700146D01*
X458862Y690205D02*
Y691583D01*
X465752Y698473D02*
Y700048D01*
X477858Y684202D02*
X477937Y684280D01*
X477661Y684005D02*
X477858Y684202D01*
X469984Y683316D02*
X473626Y679673D01*
X468704Y683316D02*
X469984D01*
X463783Y680363D02*
Y685284D01*
X444689Y668946D02*
Y669930D01*
X449807Y673178D02*
X451381D01*
X455909Y677705D02*
Y680363D01*
X449019Y689221D02*
X457877D01*
X463783Y695126D02*
X468704D01*
X463783Y685284D02*
X468704D01*
X442720Y683316D02*
X445476D01*
X449019D01*
X446067Y696111D02*
X447051Y695126D01*
X449019D01*
X463783Y673965D02*
Y676130D01*
X373119Y586564D02*
X374497Y585186D01*
X385914Y583217D02*
Y585678D01*
X391623Y576426D02*
X398316D01*
X457877Y677725D02*
Y680363D01*
X461814Y676327D02*
X463291Y674851D01*
X446952Y673178D02*
X449807D01*
X456500D02*
Y676347D01*
X457877Y677725D01*
X451381Y673178D02*
X455909Y677705D01*
X441145Y673276D02*
X448232Y680363D01*
X452673Y707430D02*
X457103Y703000D01*
X457877D01*
Y700048D02*
Y703000D01*
X385239Y613681D02*
X401086D01*
X403251Y611516D01*
X409466Y616471D02*
X414044D01*
X415456Y615059D01*
X309045Y597685D02*
X313731D01*
X309045Y599653D02*
X309210Y599819D01*
X349891Y585614D02*
X350841Y586564D01*
X349891Y582429D02*
Y585614D01*
X347923Y575666D02*
Y582429D01*
X339964Y582344D02*
X340049Y582429D01*
X285325Y589121D02*
X285325Y589122D01*
X399708Y631496D02*
X409440D01*
X409466Y631471D01*
X436021Y626471D02*
X436027Y626476D01*
X392818Y616929D02*
Y620866D01*
X392720Y616831D02*
X392818Y616929D01*
X463178Y363597D02*
Y365284D01*
Y363597D02*
X469393Y357382D01*
X309045Y605559D02*
X309092Y605512D01*
X312615Y606081D02*
X312889Y605807D01*
X309045Y607527D02*
X311980D01*
X312326Y607874D01*
X309092Y605512D02*
X313184D01*
X312889Y605807D02*
X313184Y605512D01*
X314904Y607913D02*
X314943Y607874D01*
X312889Y605807D02*
X312950Y605868D01*
X317222Y602159D02*
X319491Y604429D01*
Y609772D01*
X318079Y611875D02*
X319273Y613069D01*
X482076Y370284D02*
Y375284D01*
X452647Y385186D02*
X452874Y385413D01*
X498597Y365284D02*
X498724Y365158D01*
X384747Y534842D02*
Y541733D01*
X384551Y541929D02*
X384747Y541733D01*
X384551Y541929D02*
Y547145D01*
X384550Y547146D02*
X384551Y547145D01*
X386716Y534842D02*
Y537894D01*
X390752Y541929D01*
X391244D01*
X491845Y375284D02*
X491932Y375197D01*
X482076Y375284D02*
X488389D01*
X491845D01*
X547208Y378799D02*
X548232Y379823D01*
Y368799D02*
Y373917D01*
X545771Y366339D02*
X548232Y368799D01*
X548113Y373799D02*
X548232Y373917D01*
X498625Y375197D02*
X505417Y368406D01*
Y365158D02*
Y368406D01*
X481972Y424823D02*
Y450079D01*
X486913Y450020D02*
X486972Y450079D01*
X481972Y424823D02*
X485239Y421555D01*
X502070Y420276D02*
X502169Y420374D01*
X504826D01*
X507483D01*
X367621Y367618D02*
X371066D01*
X349472Y318976D02*
Y330276D01*
X366322Y372618D02*
X371066D01*
X345456Y325984D02*
Y332362D01*
X365712Y377618D02*
X371066D01*
X362109Y374016D02*
X365712Y377618D01*
X365200Y382618D02*
X371066D01*
X371125Y377559D02*
X385240D01*
X371066Y377618D02*
X371125Y377559D01*
X359944Y377362D02*
X362572Y379990D01*
X365200Y382618D01*
X357484Y353248D02*
X362109Y357874D01*
X359944Y358661D02*
Y377362D01*
X345456Y332362D02*
X363783Y350689D01*
X362109Y357874D02*
Y374016D01*
X363783Y350689D02*
Y370079D01*
X366544Y364980D02*
X367621D01*
X365161Y363597D02*
X366544Y364980D01*
X349472Y330276D02*
X365161Y345965D01*
Y363597D01*
X345062Y387618D02*
X351775D01*
X344984Y387697D02*
X345062Y387618D01*
X344295Y387697D02*
X344984D01*
X338783Y382185D02*
X344295Y387697D01*
X339570Y370866D02*
X341322Y372618D01*
X342129Y566339D02*
X348035D01*
X361210Y589811D02*
X366492D01*
X366539Y589764D01*
X388684Y534842D02*
X389570D01*
X395377Y540650D01*
X384354Y522638D02*
X384747Y522244D01*
X353828Y578951D02*
Y582429D01*
Y578951D02*
X355023Y577756D01*
X351860Y576293D02*
Y582429D01*
Y576293D02*
X352267Y575886D01*
X352464Y575689D01*
X506972Y439488D02*
Y450079D01*
X323035Y565748D02*
X326381Y562402D01*
X323035Y565748D02*
Y570571D01*
X325200Y572736D01*
X366243Y615846D02*
X366536Y616140D01*
X361210Y615401D02*
X365798D01*
X204564Y528051D02*
X204910Y527705D01*
X400889Y547441D02*
X403940D01*
X398330Y543996D02*
X400495D01*
X488389Y375284D02*
Y381004D01*
X485633Y387402D02*
X496263D01*
X404137Y483996D02*
X410633Y477500D01*
X406401Y443209D02*
X415850Y433760D01*
X428990Y423425D02*
X433271D01*
X309045Y593748D02*
X318554D01*
X319491Y594685D01*
X471952Y646654D02*
Y650591D01*
X450889Y647441D02*
Y647933D01*
X467769Y646408D02*
X471952Y650591D01*
X361210Y597685D02*
X364224D01*
X365845Y596063D01*
X446066Y642618D02*
X446066Y642618D01*
X361210Y599653D02*
X365311D01*
X365357Y599606D01*
X390751Y608957D02*
X404334D01*
X403462Y621471D02*
X409466D01*
X403350Y621358D02*
X403462Y621471D01*
X419171Y633931D02*
X425324D01*
X429728Y638335D01*
X338080Y634594D02*
Y637191D01*
X342818Y641929D01*
Y643209D01*
X336112Y634594D02*
Y643195D01*
X381105Y392618D02*
X381302Y392421D01*
X351775Y382618D02*
X357031D01*
X361420Y387008D01*
Y392618D01*
X351775D02*
X361420D01*
X371066D01*
X351775Y377618D02*
X355968D01*
X363605Y385256D02*
X380830D01*
X381302Y385728D01*
X436027Y622047D02*
Y626476D01*
X366047Y615650D02*
Y615846D01*
X366243D01*
X361210Y619338D02*
X370227D01*
X381302Y630413D02*
Y634842D01*
X381007Y641831D02*
X381302Y641535D01*
X369491Y638779D02*
Y643799D01*
X375692Y650000D01*
Y652349D01*
X379839Y656496D01*
X385338D01*
X412090Y683248D01*
X361210Y621307D02*
X365601D01*
X375791Y638779D02*
X379445D01*
X379839Y639173D01*
X397838D01*
X398527Y638484D01*
X387011Y631890D02*
X387306Y631595D01*
X387011Y631890D02*
Y636221D01*
X361210Y623275D02*
X364519D01*
X369491Y628248D01*
Y632087D01*
X365601Y621307D02*
X375299Y631004D01*
X409255Y654429D02*
X417079D01*
X417818Y653689D01*
X401381Y653248D02*
X402562Y654429D01*
X446066Y626673D02*
Y642618D01*
X449314Y631398D02*
X458960Y641043D01*
X449314Y628248D02*
Y631398D01*
X412700Y607185D02*
X413291D01*
X415456Y602658D02*
Y615059D01*
X361210Y601622D02*
X361360Y601772D01*
X408369D01*
X409271Y603756D02*
X412700Y607185D01*
X361210Y603590D02*
X361376Y603756D01*
X409271D01*
X429404Y606791D02*
X429517Y606904D01*
X419787Y607087D02*
X429109D01*
X464964Y640699D02*
Y648324D01*
X463437Y649851D02*
X464964Y648324D01*
X472050Y636417D02*
Y639862D01*
X471952Y639961D02*
X472050Y639862D01*
X407582Y551378D02*
X408468Y552264D01*
X283454Y561859D02*
X283910D01*
X301495Y579444D01*
Y583906D01*
X380023Y528346D02*
X383566Y524803D01*
X379728Y569980D02*
X380023Y569685D01*
Y528346D02*
Y569685D01*
X509452Y690599D02*
X520968Y679083D01*
X509452Y690599D02*
Y692272D01*
X310436Y571063D02*
Y588419D01*
X323970Y551230D02*
Y557529D01*
X405318Y648228D02*
X425594D01*
X404432Y649114D02*
X405318Y648228D01*
X393212Y649114D02*
X404432D01*
X387011Y642913D02*
X393212Y649114D01*
X395476Y645177D02*
X398527D01*
X395377Y645276D02*
X395476Y645177D01*
X436027Y633169D02*
X439669Y629528D01*
X415357Y439567D02*
X426972D01*
X361210Y609496D02*
X365897D01*
X369688Y613287D01*
X303499Y615401D02*
X309045D01*
X300987Y617914D02*
X303499Y615401D01*
X325102Y643110D02*
X328743Y639468D01*
X332582D01*
X334143Y634594D02*
Y637907D01*
X324301Y628852D02*
Y634594D01*
X322332Y629809D02*
Y634594D01*
X320771Y628248D02*
X322332Y629809D01*
X324301Y628852D02*
X324511Y628642D01*
X316702Y613304D02*
X318866Y615469D01*
X319273Y613069D02*
X319737D01*
X309045Y603590D02*
X316194D01*
X319491Y609772D02*
X320152Y610433D01*
X316194Y603590D02*
X318079Y605476D01*
X316554Y607052D02*
Y607564D01*
X316702Y607711D01*
X312950Y605868D02*
X315371D01*
X316554Y607052D01*
X312326Y607874D02*
X314570D01*
X314943D01*
X318079Y605476D02*
Y611875D01*
X316702Y607711D02*
Y613304D01*
X309045Y615401D02*
X315109D01*
X325003Y625295D01*
X329826D01*
X334143Y629612D01*
X352811Y609496D02*
X361210D01*
X334143Y628163D02*
X352811Y609496D01*
X334143Y628163D02*
Y629612D01*
Y634594D01*
X345954Y582429D02*
Y602640D01*
X352811Y609496D01*
X280403Y595815D02*
Y601168D01*
X297149Y617914D01*
X300987D01*
X435043Y409842D02*
Y418405D01*
X434747Y418701D02*
X435043Y418405D01*
X345954Y582429D02*
X346263Y582120D01*
Y574705D02*
Y582120D01*
Y574705D02*
X350003Y570965D01*
X351578D01*
X404531Y436108D02*
X436662Y403976D01*
X436829D01*
X446249Y394556D01*
Y394390D02*
Y394556D01*
X157385Y324016D02*
Y328051D01*
X428843Y673276D02*
X441145D01*
X335436Y568110D02*
X339964Y572638D01*
X338080Y578360D02*
Y582429D01*
X341932Y575897D02*
X342017Y575982D01*
Y582429D01*
X338080Y578360D02*
X338215Y578225D01*
X338439D01*
X340604Y577328D02*
Y579122D01*
X339964Y579763D02*
X340604Y579122D01*
X339964Y579763D02*
Y582344D01*
Y572638D02*
Y576688D01*
X340604Y577328D01*
X400618Y549681D02*
X400889Y549409D01*
X397989Y549681D02*
X400618D01*
X395377Y549875D02*
X397167Y551665D01*
X400602D01*
X395377Y540650D02*
Y549875D01*
X400602Y551665D02*
X400889Y551378D01*
X380220Y522244D02*
X382779D01*
X313094Y570669D02*
Y590354D01*
X310436Y571063D02*
X323970Y557529D01*
X309944Y568209D02*
X310125Y568028D01*
Y564729D02*
Y568028D01*
X310830Y562795D02*
X312700Y564665D01*
Y565650D01*
X307976Y556201D02*
Y562303D01*
X310263Y564591D01*
X382779Y532579D02*
X386716Y528642D01*
X386716Y522244D02*
X386716Y522244D01*
X386716Y522244D02*
Y525787D01*
Y528642D02*
X386716Y528642D01*
X386716Y525787D02*
Y528642D01*
X436420Y636811D02*
Y637402D01*
X436027Y633169D02*
X436420Y633563D01*
Y636811D01*
X425594Y648228D02*
X436420Y637402D01*
X377857Y392618D02*
X381105D01*
X371066D02*
X377857D01*
X409787Y631791D02*
X416145D01*
X418129Y632890D02*
X419171Y633931D01*
X418129Y630724D02*
Y632890D01*
X409466Y631471D02*
X409787Y631791D01*
X416440Y629035D02*
X418129Y630724D01*
X157385Y328051D02*
X192228Y362894D01*
Y477916D01*
X398527Y638484D02*
X401972D01*
X404826D01*
X381007Y653248D02*
X393507D01*
X401381D01*
X519491Y377067D02*
Y378248D01*
X313094Y570669D02*
X332188Y551575D01*
X532129Y383799D02*
X532720D01*
X530121Y378799D02*
X547208D01*
X495968Y380709D02*
X498625Y378051D01*
X446066Y642618D02*
X450889Y647441D01*
X325987Y569193D02*
X327070Y568110D01*
X335436D01*
X341322Y372618D02*
X351775D01*
X468704Y687253D02*
X477681D01*
X419689Y717174D02*
X439964D01*
X482076Y365284D02*
X498597D01*
X363783Y370079D02*
X366322Y372618D01*
X411519Y638484D02*
X421165D01*
X367621Y364980D02*
Y367618D01*
X381007Y641831D02*
Y653248D01*
X473626Y679673D02*
X490457D01*
X429109Y607087D02*
X429404Y606791D01*
X341736Y566142D02*
X342621Y565256D01*
X332582Y639468D02*
X334143Y637907D01*
X439669Y601280D02*
Y629528D01*
X486913Y433071D02*
Y450020D01*
X194393Y428445D02*
Y456004D01*
X196854Y429921D02*
Y454528D01*
X259255Y362992D02*
X259846D01*
X194393Y428445D02*
X259846Y362992D01*
X261617Y322835D02*
X261913Y323130D01*
Y364862D01*
X196854Y429921D02*
X261913Y364862D01*
X408468Y552264D02*
X412306D01*
X412848Y552805D01*
X483173Y486752D02*
X491972Y477953D01*
X508074Y385433D02*
Y386516D01*
D63*
X403251Y611516D02*
X410732D01*
X473133Y729332D02*
X475200Y727265D01*
X481302D01*
X203336Y498769D02*
Y502804D01*
X197824Y493257D02*
X203336Y498769D01*
X445762Y689230D02*
Y689309D01*
X206978Y476032D02*
X206978Y476032D01*
X186407Y478099D02*
X192411D01*
X186013Y477706D02*
X186407Y478099D01*
X194084Y481249D02*
X194822Y480511D01*
X438389Y693670D02*
Y695225D01*
X444937Y687121D02*
X448888D01*
X438389Y693670D02*
X444937Y687121D01*
X448888D02*
X449019Y687253D01*
X445762Y689309D02*
X447643Y691189D01*
X477526Y693945D02*
X481106D01*
X475982Y692401D02*
X477526Y693945D01*
X475982Y692365D02*
Y692401D01*
X446300Y685284D02*
X449019D01*
X446294Y685290D02*
X446300Y685284D01*
X444658Y685290D02*
X446294D01*
X444652Y685284D02*
X444658Y685290D01*
X440858Y685284D02*
X444652D01*
X440753Y685179D02*
X440858Y685284D01*
X436025Y685179D02*
X440753D01*
X435921Y685284D02*
X436025Y685179D01*
X431598Y685284D02*
X435921D01*
X430122Y686760D02*
X431598Y685284D01*
X194084Y481249D02*
X194084Y481249D01*
X213670Y476032D02*
X213769Y475934D01*
Y470914D02*
Y475934D01*
X213670Y481150D02*
X213769Y481249D01*
X213670Y476032D02*
Y481150D01*
X200777Y481249D02*
X207076D01*
X266229Y546800D02*
X266328Y546702D01*
X469002Y693158D02*
X469396Y693552D01*
X468704Y693158D02*
X469002D01*
X474512Y697587D02*
X477760D01*
X453940Y700048D02*
Y702705D01*
X427563Y674359D02*
X427760D01*
X450496Y701524D02*
Y703197D01*
Y701524D02*
X451972Y700048D01*
X470181Y673965D02*
X470476D01*
X415161Y691583D02*
X418015Y694438D01*
X425299Y681544D02*
X427563Y679280D01*
X460436Y659596D02*
Y659891D01*
Y662950D01*
X450102Y667272D02*
Y668749D01*
X424905Y668749D02*
X427858D01*
X206978Y470816D02*
Y471012D01*
X382077Y464811D02*
Y471110D01*
X382275Y471308D01*
X403251Y693946D02*
X405614Y691583D01*
X415161D01*
X447643Y691189D02*
X449019D01*
X445663Y693148D02*
X448046D01*
X206682Y496997D02*
X213375Y490304D01*
Y489812D02*
Y490304D01*
Y481643D02*
X213769Y481249D01*
X213375Y481643D02*
Y489812D01*
X409466Y621471D02*
X409564Y621569D01*
X410732Y611516D02*
X410777Y611471D01*
X409466D02*
X410777D01*
X392720Y616831D02*
X393080Y616471D01*
X409466D01*
X404236Y626575D02*
X409362D01*
X409466Y626471D01*
X206682Y496997D02*
Y499458D01*
X210029Y502804D01*
X192228Y477916D02*
X192411Y478099D01*
X203336Y502804D02*
X210029Y509497D01*
X417818Y653689D02*
X419835Y651673D01*
X472740Y695816D02*
X474512Y697587D01*
X469396Y693552D02*
X470476D01*
X472740Y695816D01*
X468704Y691189D02*
X470574D01*
X471756Y692371D01*
X473035D01*
X469050Y689370D02*
X472200D01*
X472987D02*
X475982Y692365D01*
X472200Y689370D02*
X472987D01*
X419835Y651673D02*
X422247D01*
X447444Y655166D02*
Y664615D01*
X450102Y667272D01*
X412090Y683248D02*
X415161Y686319D01*
Y691583D01*
X192411Y478099D02*
X194822Y480511D01*
X206978Y471012D02*
Y476032D01*
X204222Y476032D02*
X206978D01*
X468803Y689123D02*
X469050Y689370D01*
X481106Y693945D02*
X481401Y693650D01*
X382275Y471308D02*
X395377D01*
X418015Y694438D02*
Y705855D01*
D64*
X482656Y726070D02*
X482975Y725788D01*
X483566Y724410D02*
Y725985D01*
X482581Y726136D02*
X482656Y726070D01*
X482876Y713879D02*
Y723524D01*
X479432Y713879D02*
X482876D01*
X479333Y723622D02*
X482778D01*
X482581Y726136D02*
Y729752D01*
Y733367D01*
X443001Y374261D02*
X444491Y375751D01*
X351564Y515500D02*
Y533118D01*
X460088Y370284D02*
X463178D01*
X490457Y679673D02*
X495082D01*
X258749Y518945D02*
X260619Y520815D01*
Y533610D01*
X453237Y368257D02*
X458060D01*
X460088Y370284D01*
X206978Y464319D02*
X213671D01*
X234242Y453000D02*
X234340D01*
X224990D02*
X234242D01*
X213769Y464221D02*
X224990Y453000D01*
X489767Y718799D02*
X492521D01*
X489767D02*
Y723425D01*
X452646Y391879D02*
X452647Y391879D01*
X443001Y371603D02*
Y374261D01*
X213671Y464319D02*
X213769Y464221D01*
X233257Y535973D02*
X237095Y539812D01*
X217115Y535973D02*
X217115Y535973D01*
X217115Y533217D02*
Y533414D01*
X211603Y527705D02*
X217115Y533217D01*
X211603Y522784D02*
Y527705D01*
X200383Y541091D02*
Y544044D01*
X204025Y547686D02*
X206682D01*
X200383Y544044D02*
X204025Y547686D01*
X217115Y541091D02*
Y544339D01*
X213769Y547686D02*
X217115Y544339D01*
X213375Y547686D02*
X213769D01*
X495082Y679673D02*
Y682823D01*
X497838Y662548D02*
Y665697D01*
X506303Y699162D02*
X509551D01*
X506500Y692272D02*
X509452D01*
X520968Y669142D02*
Y672390D01*
X475299Y673079D02*
Y673867D01*
X470476Y673965D02*
X475201D01*
X467129Y665899D02*
X472440D01*
X467129Y662950D02*
Y665899D01*
Y668847D01*
X481992Y673867D02*
X484747Y671112D01*
Y665698D02*
Y665894D01*
Y671112D01*
X506303Y692469D02*
X506500Y692272D01*
X472444Y665894D02*
X475299Y663040D01*
Y661367D02*
Y663040D01*
X475201Y673965D02*
Y677409D01*
X479431Y718799D02*
X482876D01*
X482975Y725788D02*
X483073Y725887D01*
X482876Y723524D02*
X483566Y724213D01*
X373279Y495737D02*
X379340D01*
X379418Y495816D01*
X351564Y515500D02*
X351564Y515500D01*
X501087Y704969D02*
X501381Y704674D01*
X496165Y704969D02*
X501087D01*
X452745Y367765D02*
X453237Y368257D01*
X452745Y367568D02*
Y367765D01*
X482581Y725985D02*
Y726136D01*
X481302Y727265D02*
X482581Y726136D01*
X463178Y370284D02*
X463375D01*
X454944Y385413D02*
X459944Y380413D01*
X193310Y535973D02*
X200383D01*
X446249Y392567D02*
Y394390D01*
X509256Y704921D02*
X509551Y704626D01*
Y699162D02*
Y704626D01*
X492521Y716242D02*
X502464Y706299D01*
X492521Y716242D02*
Y718799D01*
X230108Y530560D02*
X230515Y530967D01*
X217115Y535973D02*
X223625D01*
X230467D02*
X230515Y535925D01*
Y530967D02*
Y535925D01*
X444491Y375751D02*
Y376279D01*
Y380413D01*
X189570Y538532D02*
X189767D01*
X200383D01*
X446249Y394556D02*
Y400442D01*
X495574Y699162D02*
X506303D01*
X446249Y392567D02*
X446938Y391879D01*
X452646D01*
X494295Y672489D02*
X505417D01*
X505810Y672587D02*
X520771D01*
X479728Y665894D02*
X484747D01*
X505810D01*
X459807Y662950D02*
Y680225D01*
X463375Y375284D02*
Y380284D01*
X444491Y380413D02*
X445560Y381482D01*
Y383218D01*
X230467Y535973D02*
X233257D01*
X489767Y713831D02*
Y718799D01*
X501381Y704674D02*
X502563Y705855D01*
X489471Y723622D02*
Y729331D01*
D65*
X484453Y698768D02*
X487602D01*
X510732Y665796D02*
X510929Y665599D01*
X484629Y684280D02*
Y689221D01*
X461618Y714122D02*
Y717272D01*
X441342Y711859D02*
X441736D01*
X438094D02*
X441342D01*
X429057Y682707D02*
X432386D01*
X463257Y365402D02*
X463375Y365284D01*
X458355Y365402D02*
X463257D01*
X422051Y658365D02*
X422247Y658169D01*
X424919Y621372D02*
X425200Y621654D01*
X353730Y490167D02*
Y492717D01*
X299609Y595815D02*
Y599049D01*
X294751Y595815D02*
Y599434D01*
Y595815D02*
X299558D01*
X217228Y515993D02*
X227548D01*
X353940Y489954D02*
X354623Y489272D01*
X352441Y488878D02*
X353730Y490167D01*
X349132Y490369D02*
X350624Y488878D01*
X335423Y432921D02*
Y438335D01*
X360718Y433610D02*
X366131D01*
X358356Y426622D02*
Y432035D01*
X329714Y413138D02*
Y421208D01*
X234242Y444338D02*
X238474D01*
X234242D02*
Y453000D01*
X234438Y415599D02*
Y420619D01*
X234242Y436268D02*
Y444338D01*
X425495Y621358D02*
X430121D01*
X439428Y391061D02*
X440245Y391878D01*
X439428Y387763D02*
Y391061D01*
X277844Y548571D02*
Y585926D01*
X384981Y579823D02*
X385914Y580757D01*
X296742Y601917D02*
X299609Y599049D01*
X234438Y420619D02*
Y425835D01*
Y431249D01*
Y436957D01*
X266151Y480559D02*
X268592D01*
X251151Y459102D02*
Y461484D01*
X455009Y362056D02*
X458355Y365402D01*
X454222Y362056D02*
X455009D01*
X417217Y674347D02*
X421055D01*
X421067Y674359D01*
X440245Y391879D02*
X440245Y391878D01*
X449694Y358513D02*
X450679D01*
X230009Y518454D02*
Y522784D01*
X227548Y515993D02*
X230009Y518454D01*
X204910Y517174D02*
X206092Y515993D01*
X204910Y517174D02*
Y522784D01*
X200383Y532233D02*
Y533414D01*
Y532233D02*
X204910Y527706D01*
X204910Y527705D02*
X204910Y527706D01*
X204910Y522784D02*
Y527705D01*
X365442Y520816D02*
Y523867D01*
X348612Y433708D02*
X358356D01*
X371742Y456347D02*
X372923Y457527D01*
X371643Y456248D02*
X371742Y456347D01*
X369675Y456248D02*
X371643D01*
X369478D02*
X369675D01*
X369773Y456347D02*
X371742D01*
X369675Y456248D02*
X369773Y456347D01*
X363966Y450736D02*
X369478Y456248D01*
X256486Y495815D02*
Y499161D01*
X260915Y495815D02*
X265836D01*
X256486D02*
X260915D01*
Y498767D01*
Y495815D02*
Y495815D01*
X234340Y453000D02*
X238375D01*
X226564Y444338D02*
X234242D01*
X234438Y486169D02*
X237785Y489516D01*
X327057Y482331D02*
X329419Y484693D01*
X420673Y645126D02*
X423822Y641977D01*
X484649Y688926D02*
X487700D01*
X477937Y689221D02*
X477956Y689241D01*
X484551Y684202D02*
X487582D01*
X491243Y693847D02*
X491244Y693847D01*
X488291Y693847D02*
X491243D01*
X446263Y715993D02*
X448133Y714123D01*
X452365D01*
X441736Y711859D02*
X443114Y710481D01*
X316426Y431543D02*
X317706D01*
X318887Y430362D01*
Y423374D02*
Y430362D01*
X454925Y658709D02*
Y662056D01*
X444688Y659202D02*
Y662056D01*
X439768Y659102D02*
X439866Y659004D01*
X439768Y659102D02*
Y662056D01*
X424807Y700343D02*
X427956D01*
X456263Y714123D02*
Y721761D01*
X456302Y721800D01*
X452759D02*
X456302D01*
X427563Y674556D02*
Y679280D01*
X289944Y595815D02*
Y599463D01*
X285325Y595815D02*
Y599457D01*
X329222Y517173D02*
X333946D01*
X244084Y521405D02*
X247726D01*
X277253Y519240D02*
X278828D01*
X227116Y486169D02*
X234438D01*
X219380Y478433D02*
X227116Y486169D01*
X219380Y473964D02*
Y478433D01*
X249498Y463138D02*
X251151Y461484D01*
X267706Y507823D02*
Y511070D01*
X275186Y507921D02*
Y511168D01*
X289944Y595815D02*
X294751D01*
X285325D02*
X289944D01*
X285325Y595815D02*
X285325Y595815D01*
X469787Y707429D02*
X471755Y705462D01*
X466539Y707429D02*
X469787D01*
X478448Y703099D02*
Y706543D01*
X443114Y707233D02*
Y710481D01*
X466539Y714122D02*
Y717173D01*
X429057Y682707D02*
Y682840D01*
X439079Y676820D02*
Y681624D01*
X510929Y662646D02*
Y665599D01*
X515751Y662548D02*
Y665698D01*
X501775Y679673D02*
Y683020D01*
X490062Y655757D02*
Y659005D01*
X484747Y655462D02*
Y659005D01*
X274891Y494339D02*
Y497685D01*
X270265Y458905D02*
Y461858D01*
X219478Y467272D02*
X222922D01*
X274694Y473768D02*
Y479377D01*
X261151Y455421D02*
X264360Y452212D01*
X261151Y455421D02*
Y459102D01*
X274695Y467074D02*
X281388D01*
X358080Y455559D02*
X361407D01*
X368296Y516189D02*
X371741D01*
X386406Y477016D02*
X386407Y477015D01*
X382076D02*
X386407D01*
X361540Y477016D02*
X366586Y482061D01*
X358080Y477016D02*
X361540D01*
X361505Y461464D02*
X364360D01*
X358080Y458039D02*
X361505Y461464D01*
X358080Y455559D02*
Y458039D01*
X353080Y453256D02*
Y455559D01*
X343002Y477016D02*
X343080D01*
X361014Y504772D02*
Y508019D01*
X368494Y504772D02*
Y508019D01*
X343080Y455559D02*
Y459771D01*
X311997Y465598D02*
X315541D01*
X311801Y472488D02*
Y474555D01*
X319576Y482331D01*
X327057D01*
X268592Y480559D02*
X272627Y484594D01*
X274891D01*
X281781Y462055D02*
X284798D01*
X284834Y462018D01*
X281781Y457035D02*
X284734D01*
X282076Y473866D02*
X285029D01*
X281781Y479378D02*
X284734D01*
X281978Y484595D02*
X284931D01*
X439078Y668749D02*
X439768D01*
X432386Y676820D02*
Y681624D01*
X423724Y688335D02*
X428941D01*
X267706Y519044D02*
Y521996D01*
X429057Y682840D02*
X429074Y682857D01*
X323907Y413138D02*
X329714D01*
X318887Y423374D02*
X324301D01*
X319084Y413630D02*
Y419043D01*
X330994Y413039D02*
X336407D01*
X342411Y433807D02*
X347824D01*
X348612Y427212D02*
Y432626D01*
X371741Y516189D02*
X379418Y508512D01*
X378238Y491189D02*
X379418Y492370D01*
X359930Y496603D02*
X365720D01*
X366586Y495737D01*
Y499002D01*
X448920Y721800D02*
X452759D01*
X448822Y721702D02*
X448920Y721800D01*
X398808Y582922D02*
X403926D01*
X403926Y582922D01*
X373119Y579871D02*
X377844D01*
X379222Y581249D01*
X260915Y492468D02*
Y495715D01*
X256486Y492468D02*
Y495715D01*
X278828Y519240D02*
X281190Y516878D01*
Y490007D02*
X281682Y489516D01*
X277844Y548571D02*
X279320Y547094D01*
X390146Y582922D02*
X398808D01*
X418704Y712843D02*
X424807D01*
X431097Y709487D02*
X431992Y710382D01*
X424820Y621471D02*
X424919Y621372D01*
X403926Y573277D02*
Y576229D01*
Y573277D02*
X403926Y573276D01*
X373119Y576131D02*
Y579871D01*
X203631Y464221D02*
X206880D01*
X206978Y464319D01*
X446263Y715993D02*
Y717568D01*
X442130Y721702D02*
X446263Y717568D01*
X379418Y492370D02*
Y495816D01*
Y508512D01*
X434551Y656937D02*
X437799D01*
X434452Y662056D02*
X434551Y656937D01*
X450679Y358513D02*
X452647Y360481D01*
X454222Y362056D01*
X429324Y709487D02*
X431097D01*
X461913Y707429D02*
X466539D01*
X471755Y701918D02*
Y703099D01*
Y705462D01*
X439768Y668749D02*
X443803D01*
X272149Y598951D02*
X275384Y595716D01*
X272149Y598951D02*
Y600000D01*
X299558Y595815D02*
X299609D01*
X353080Y453256D02*
X355600Y450736D01*
X363966D01*
X316820Y431937D02*
X322234D01*
X385914Y580757D02*
X387981D01*
X390146Y582922D01*
X477956Y689241D02*
Y691583D01*
X454925Y658709D02*
X454925Y658709D01*
X450058Y662012D02*
X450102Y662056D01*
X425200Y621654D02*
X425495Y621358D01*
X450058Y659036D02*
Y662012D01*
X421056Y679269D02*
X421067Y679280D01*
X417414Y679269D02*
X421056D01*
X354623Y489272D02*
X359292D01*
X359930Y489910D01*
X350624Y488878D02*
X352441D01*
X353730Y490167D02*
X353940Y489957D01*
X349117Y490354D02*
X349132Y490369D01*
X349117Y490354D02*
X349301Y490171D01*
Y488906D02*
Y490171D01*
X353940Y488878D02*
Y489954D01*
Y489957D01*
X353911Y489984D02*
X353940Y489954D01*
X206092Y515993D02*
X217228D01*
X422247Y658169D02*
Y658366D01*
Y662008D01*
X457189Y707429D02*
X461913D01*
X274891Y485185D02*
Y494339D01*
X360816Y516189D02*
X365442Y520816D01*
X373415Y491189D02*
X378238D01*
X477937Y684280D02*
Y689221D01*
X438783Y695422D02*
Y700540D01*
X281190Y490007D02*
Y516878D01*
X264360Y452212D02*
X274694D01*
X427858Y668749D02*
X439768D01*
X450200Y668847D02*
X453842D01*
X457189Y672193D01*
X371742Y456347D02*
X380698D01*
X366586Y482061D02*
Y495737D01*
X275269Y589122D02*
X277973Y586417D01*
X275269Y589122D02*
X280403D01*
D66*
X474734Y737598D02*
X482581Y729752D01*
X527464Y373622D02*
X527661D01*
X526086D02*
X527464D01*
Y373425D02*
X527513Y373474D01*
X449694Y346344D02*
Y358513D01*
X527661Y373622D02*
X527838Y373799D01*
X535043Y369193D02*
X537897Y366339D01*
X408566Y737598D02*
X474734D01*
X489471Y729331D02*
X489471Y729331D01*
X545476Y426870D02*
Y430413D01*
X516834Y438386D02*
X529236D01*
X512208Y433760D02*
X516834Y438386D01*
X210029Y509497D02*
X228729D01*
X489471Y729331D02*
Y733367D01*
X285325Y589122D02*
X289944D01*
X435928Y322835D02*
Y332579D01*
X449694Y346344D01*
X507483Y433760D02*
X512208D01*
X228729Y509497D02*
X234846Y515613D01*
Y531952D01*
X243296Y540402D01*
X314865Y546457D02*
X349019D01*
X376775Y574213D01*
X384550D01*
Y553839D02*
Y574213D01*
Y579393D01*
X527838Y373799D02*
X539472D01*
X548113D01*
X243296Y540402D02*
X269084D01*
X422739Y387303D02*
X430023D01*
X431991Y389272D01*
X537208Y438681D02*
X545476Y430413D01*
D67*
X429875Y695570D02*
X437208Y688237D01*
X429500Y695294D02*
X429875Y695570D01*
X429137Y695028D02*
X429500Y695294D01*
X375679Y449161D02*
X376072Y449555D01*
X377844Y481149D02*
X378680Y480313D01*
X270167Y470618D02*
X273710Y467075D01*
X261151Y479634D02*
X270167Y470618D01*
X437208Y688237D02*
X437356Y688089D01*
X437208Y688237D02*
X438389D01*
X436618D02*
X437208D01*
X269969Y448669D02*
X269970D01*
X267017Y445717D02*
X269969Y448669D01*
X375777Y449555D02*
X381092D01*
X429334Y695520D02*
X429875Y695570D01*
X432090Y697981D01*
Y700245D01*
X423724Y695028D02*
X429137D01*
X261151Y479634D02*
Y480559D01*
X273710Y467075D02*
X274694D01*
X271545Y473768D02*
X274694D01*
X364360Y468157D02*
Y471504D01*
X375384Y461562D02*
Y464811D01*
X375383Y471209D02*
Y477015D01*
X375383Y477016D02*
X375383Y477015D01*
X365344Y477016D02*
X375383D01*
X360816Y472488D02*
X365344Y477016D01*
X356190Y472488D02*
X360816D01*
X353080Y475598D02*
X356190Y472488D01*
X353080Y475598D02*
Y477016D01*
X444689Y674162D02*
X447346Y676819D01*
X452070D01*
X453940Y678689D01*
Y680363D01*
X398808Y573375D02*
Y576229D01*
X398710Y573276D02*
X398808Y573375D01*
X444689Y669930D02*
Y674162D01*
X375679Y445815D02*
Y449161D01*
X375383Y477015D02*
X378680Y480313D01*
D68*
X523822Y367421D02*
Y368012D01*
Y367421D02*
X533960Y357284D01*
X491972Y437008D02*
Y450079D01*
X492562Y401142D02*
X507779Y385925D01*
X533960Y323031D02*
Y357284D01*
X508074Y385433D02*
X516440Y377067D01*
X551578Y390354D02*
Y397342D01*
X550791Y396555D02*
X551578Y397342D01*
X511420Y396555D02*
X550791D01*
X558566Y442323D02*
Y442618D01*
Y442323D02*
X558665Y442224D01*
X390259Y388976D02*
X391932Y387303D01*
X397936D01*
X338854Y397370D02*
X397641D01*
X394590Y399114D02*
X397936D01*
X491972Y450079D02*
Y477953D01*
X510436Y460335D02*
X512405Y458366D01*
X498428Y460335D02*
X510436D01*
X496972Y458878D02*
X498428Y460335D01*
X516381Y443012D02*
X558665D01*
X512405Y446988D02*
X516381Y443012D01*
X512405Y446988D02*
Y458366D01*
X329911Y401523D02*
X386519D01*
X308566Y352854D02*
Y357480D01*
Y352854D02*
X348133Y313287D01*
X363487D01*
X365535Y315335D01*
Y318976D01*
X373566D01*
X363546Y331988D02*
X369550Y325984D01*
X358271Y331988D02*
X363546D01*
X353487Y327205D02*
X358271Y331988D01*
X353487Y325984D02*
Y327205D01*
X307371Y374851D02*
X307666Y375147D01*
X303533Y374851D02*
X307371D01*
X286762Y397370D02*
X291762D01*
X278237Y397391D02*
X286741D01*
X286762Y397370D01*
X270560Y397391D02*
Y402312D01*
X267214Y405658D02*
X270560Y402312D01*
X422739Y399114D02*
X428842D01*
X397936Y382480D02*
Y387303D01*
Y382480D02*
X405121Y375295D01*
X416736D02*
Y381299D01*
X422739Y387303D01*
X416834Y405020D02*
Y411122D01*
Y405020D02*
X422739Y399114D01*
X551578Y390354D02*
X551775Y390158D01*
X496972Y450079D02*
Y458878D01*
X397936Y399114D02*
Y402264D01*
X547444Y401476D02*
X551578Y397342D01*
X547444Y401476D02*
Y406299D01*
X558665Y417520D02*
Y442224D01*
X507483Y427067D02*
X522739D01*
X528546Y411811D02*
Y416536D01*
Y421260D01*
X397936Y402264D02*
X406007Y410335D01*
X428842Y399114D02*
X431991Y395965D01*
X547444Y406299D02*
X558665Y417520D01*
X501972Y427067D02*
X507483D01*
X501972D02*
Y450079D01*
X491972Y401142D02*
Y433071D01*
Y437008D01*
X516440Y377067D02*
X519491D01*
D69*
X520082Y381693D02*
X523625D01*
X519491Y381102D02*
X520082Y381693D01*
X519163Y380925D02*
X519163D01*
X518212Y380413D02*
X519163Y380925D01*
X519163D02*
X519491Y381102D01*
D70*
X492031Y504134D02*
X512110D01*
X437087Y393641D02*
X437481Y394035D01*
X437087Y386794D02*
Y393641D01*
X440999Y386024D02*
X447739D01*
X440398Y385423D02*
X440999Y386024D01*
X438458Y385423D02*
X440398D01*
X437087Y386794D02*
X438458Y385423D01*
X336112Y575112D02*
X336617Y574606D01*
X299557Y589123D02*
X299558Y589122D01*
X366425Y539811D02*
X375974Y549359D01*
X449694Y371603D02*
X449694Y371603D01*
X442115Y359300D02*
X444773Y361958D01*
Y365107D01*
X449595D02*
X449694Y365206D01*
X351564Y539811D02*
X366425D01*
X375974Y549359D02*
X375974Y549359D01*
Y557134D01*
X452874Y385413D02*
X454944D01*
X334157Y572146D02*
X336617Y574606D01*
X401676Y436221D02*
Y472933D01*
X386519Y488091D02*
X401676Y472933D01*
X318901Y555610D02*
Y559252D01*
X314767Y563386D02*
X318901Y559252D01*
X449314Y371589D02*
Y384449D01*
X401676Y436221D02*
X436049Y401848D01*
X436110D01*
X437481Y400477D01*
Y394035D02*
Y400477D01*
X447739Y386024D02*
X449314Y384449D01*
X427858Y659547D02*
X427858Y656937D01*
X427858Y661662D02*
X427858Y659547D01*
X442326Y613878D02*
X443015Y613189D01*
X427858Y654429D02*
Y656937D01*
Y654429D02*
X442326Y639961D01*
Y613878D02*
Y639961D01*
X449314Y371589D02*
X449694Y371210D01*
X449792Y371111D01*
X449694Y371210D02*
Y371603D01*
X442115Y357874D02*
Y359300D01*
Y353136D02*
Y357874D01*
X294773Y589123D02*
X299557D01*
X441033Y352053D02*
X442115Y353136D01*
X444773Y365107D02*
X449595D01*
X449694Y365206D02*
Y371210D01*
X470180Y504134D02*
X492031D01*
D71*
X241131Y420619D02*
Y425835D01*
Y431249D02*
Y436957D01*
X266151Y459102D02*
X267509D01*
X274694Y449161D02*
Y452212D01*
X270265Y461858D02*
X270462Y462055D01*
X274694D01*
X274694Y452212D02*
Y457035D01*
X274694Y452212D02*
X274694Y452212D01*
X245561Y441387D02*
Y444240D01*
X241131Y436957D02*
X245561Y441387D01*
X241131Y415599D02*
Y420619D01*
Y425835D02*
Y431249D01*
X244084Y454476D02*
Y459889D01*
Y454476D02*
X245561Y453000D01*
X404531Y737598D02*
X408468D01*
X348612Y444929D02*
X358356D01*
X365049D01*
X369675Y449555D01*
X267509Y459102D02*
X270265Y461858D01*
D72*
X285325Y589121D02*
Y590196D01*
X280403Y595118D02*
X285325Y590196D01*
X280403Y595118D02*
Y595815D01*
X522739Y427067D02*
X528546Y421260D01*
D73*
X465752Y678394D02*
X470181Y673965D01*
X465752Y678394D02*
Y679477D01*
D74*
X452647Y391879D02*
X453139Y392371D01*
X336112Y575112D02*
Y582429D01*
X518212Y380413D02*
Y382480D01*
D75*
X478319Y380284D02*
X482076D01*
X476086Y378051D02*
X478319Y380284D01*
X223527Y522540D02*
Y525000D01*
X222346Y526181D02*
X223527Y525000D01*
X199413Y419783D02*
X251775Y367421D01*
Y322835D02*
Y367421D01*
X217459Y538386D02*
X217631Y538558D01*
X221209D01*
X452365Y351969D02*
X464570D01*
X465751Y350787D01*
X217115Y538729D02*
X217459Y538386D01*
X476086Y357382D02*
Y378051D01*
D76*
X400389Y737595D02*
X403834D01*
D77*
X492031Y487343D02*
Y504134D01*
D78*
X247135Y469535D02*
D03*
D79*
X351581Y540451D02*
D03*
D80*
X268592Y533955D02*
D03*
D81*
X256190Y479378D02*
D03*
D82*
X258749Y505756D02*
D03*
D83*
X268888Y519142D02*
D03*
X361899Y516189D02*
D03*
D84*
X334635Y505461D02*
D03*
D85*
X348119Y476523D02*
D03*
D86*
X336648Y464712D02*
D03*
D87*
X351564Y504230D02*
D03*
D88*
X271446Y509299D02*
D03*
D89*
X364556Y505953D02*
D03*
D90*
X127365Y1018898D02*
G03*
X127365Y1018898I-8858J0D01*
G01*
X540751D02*
G03*
X540751Y1018898I-8858J0D01*
G01*
X531893D02*
X541145D01*
X118507D02*
X127759D01*
X109255D02*
X118507D01*
X522641D02*
X531893D01*
Y1028150D01*
Y1009646D02*
Y1018898D01*
X118507D02*
Y1028150D01*
Y1009646D02*
Y1018898D01*
D91*
X327542Y322480D02*
D03*
X391558D02*
D03*
D92*
X373566Y318976D02*
D03*
D93*
X531893Y1018898D02*
D03*
X118507D02*
D03*
X117917Y330807D02*
D03*
D94*
X157385Y324016D02*
D03*
X435928Y322835D02*
D03*
X251775D02*
D03*
X533960Y323031D02*
D03*
D95*
X167228Y324016D02*
D03*
X445771Y322835D02*
D03*
X261617D02*
D03*
X271460D02*
D03*
X281302D02*
D03*
X543802Y323031D02*
D03*
D96*
X266539Y297933D02*
D03*
D97*
X497346Y330610D02*
D03*
D98*
X430121Y621358D02*
D03*
X539472Y373799D02*
D03*
X546460Y512894D02*
D03*
X475889Y595965D02*
D03*
X500102Y485827D02*
D03*
Y477756D02*
D03*
X479531Y486122D02*
D03*
X509058Y499902D02*
D03*
X479334Y493110D02*
D03*
X425692Y540551D02*
D03*
X431598Y536122D02*
D03*
X425791Y530512D02*
D03*
X431795Y525197D02*
D03*
X425791Y519783D02*
D03*
X425987Y509154D02*
D03*
X431204Y504528D02*
D03*
X426086Y499114D02*
D03*
X431598Y494488D02*
D03*
X426086Y488386D02*
D03*
X431893Y482874D02*
D03*
X425987Y475295D02*
D03*
X431499Y470374D02*
D03*
X426086Y465256D02*
D03*
X431598Y449803D02*
D03*
X534846Y522146D02*
D03*
X554039Y462402D02*
D03*
X553842Y471850D02*
D03*
X553546Y489961D02*
D03*
X553645Y500394D02*
D03*
Y479823D02*
D03*
X533566Y511614D02*
D03*
X538881Y461122D02*
D03*
X539078Y472835D02*
D03*
X533665Y467717D02*
D03*
Y456988D02*
D03*
X533566Y477756D02*
D03*
X539176Y452264D02*
D03*
X539472Y485335D02*
D03*
X539176Y496949D02*
D03*
X538783Y506988D02*
D03*
X533665Y501575D02*
D03*
Y490846D02*
D03*
X539373Y527658D02*
D03*
X484550Y551181D02*
D03*
X449905Y454646D02*
D03*
X444393Y470098D02*
D03*
X449806Y475217D02*
D03*
X444295Y480138D02*
D03*
X450200Y487717D02*
D03*
X449905Y499331D02*
D03*
X444393Y503957D02*
D03*
X449511Y509370D02*
D03*
X444295Y513996D02*
D03*
X449905Y519213D02*
D03*
X444098Y524626D02*
D03*
X450102Y530039D02*
D03*
X444098Y535354D02*
D03*
X451184Y554724D02*
D03*
X443999Y545394D02*
D03*
X449610Y463504D02*
D03*
X444393Y459370D02*
D03*
X459747Y521949D02*
D03*
X468606Y522244D02*
D03*
X480318Y522047D02*
D03*
X492818Y521654D02*
D03*
X504432Y521949D02*
D03*
X514472Y522342D02*
D03*
X524314Y521949D02*
D03*
X546066D02*
D03*
X464472Y527461D02*
D03*
X475200D02*
D03*
X485239Y527559D02*
D03*
X498330Y527461D02*
D03*
X509058D02*
D03*
X519098Y527559D02*
D03*
X529728Y527756D02*
D03*
X550495Y527854D02*
D03*
X545673Y537795D02*
D03*
X534747Y537598D02*
D03*
X523920Y537795D02*
D03*
X514078Y538189D02*
D03*
X504039Y537795D02*
D03*
X492424Y537500D02*
D03*
X479924Y537894D02*
D03*
X455712Y537795D02*
D03*
X464078Y543307D02*
D03*
X474806D02*
D03*
X484846Y543405D02*
D03*
X497936Y543307D02*
D03*
X508665D02*
D03*
X518704Y543405D02*
D03*
X529334Y543602D02*
D03*
X540062D02*
D03*
X550102Y543701D02*
D03*
X496755Y551476D02*
D03*
X472543Y552067D02*
D03*
X463684Y551772D02*
D03*
X468409Y557283D02*
D03*
X479137D02*
D03*
X489176Y557382D02*
D03*
X502267Y557283D02*
D03*
X508369Y551772D02*
D03*
X512995Y557283D02*
D03*
X518409Y552165D02*
D03*
X528251Y551772D02*
D03*
X523035Y557382D02*
D03*
X533665Y557579D02*
D03*
X539078Y551575D02*
D03*
X544393Y557579D02*
D03*
X554432Y557677D02*
D03*
X508369Y566339D02*
D03*
X468409Y571850D02*
D03*
X472543Y566634D02*
D03*
X484255Y566437D02*
D03*
X479137Y571850D02*
D03*
X489176Y571949D02*
D03*
X496755Y566043D02*
D03*
X502267Y571850D02*
D03*
X512995D02*
D03*
X518409Y566732D02*
D03*
X550003Y566339D02*
D03*
X554432Y572244D02*
D03*
X544393Y572146D02*
D03*
X539078Y566142D02*
D03*
X533665Y572146D02*
D03*
X523035Y571949D02*
D03*
X528251Y566339D02*
D03*
X554924Y587402D02*
D03*
X472739Y581201D02*
D03*
X484452Y581004D02*
D03*
X479334Y586417D02*
D03*
X489373Y586516D02*
D03*
X496952Y580610D02*
D03*
X508566Y580905D02*
D03*
X518606Y581299D02*
D03*
X523232Y586516D02*
D03*
X513192Y586417D02*
D03*
X502464D02*
D03*
X533861Y586713D02*
D03*
X528448Y580905D02*
D03*
X539275Y580709D02*
D03*
X544590Y586713D02*
D03*
X550200Y580905D02*
D03*
X465948Y596457D02*
D03*
X487602Y595768D02*
D03*
X500102Y595374D02*
D03*
X511716Y595669D02*
D03*
X521755Y596063D02*
D03*
X531598Y595669D02*
D03*
X542424Y595472D02*
D03*
X553350Y595669D02*
D03*
X482483Y601181D02*
D03*
X492523Y601279D02*
D03*
X505613Y601181D02*
D03*
X516342D02*
D03*
X526381Y601279D02*
D03*
X537011Y601476D02*
D03*
X490259Y510532D02*
D03*
X479531D02*
D03*
X509354Y477756D02*
D03*
X509058Y485827D02*
D03*
X488881Y477953D02*
D03*
X509354Y492913D02*
D03*
X489078Y486122D02*
D03*
X479531Y477953D02*
D03*
X479334Y500197D02*
D03*
X500299Y493110D02*
D03*
X489669Y500394D02*
D03*
Y493110D02*
D03*
X500299Y499902D02*
D03*
X475200Y608661D02*
D03*
X486913Y608465D02*
D03*
X481795Y613878D02*
D03*
X471066D02*
D03*
X491834Y613976D02*
D03*
X466342Y608366D02*
D03*
X499413Y608071D02*
D03*
X511027Y608366D02*
D03*
X521066Y608760D02*
D03*
X525692Y613976D02*
D03*
X515653Y613878D02*
D03*
X504924D02*
D03*
X536322Y614173D02*
D03*
X530909Y608366D02*
D03*
X541736Y608169D02*
D03*
X547050Y614173D02*
D03*
X552661Y608366D02*
D03*
X557090Y614272D02*
D03*
X489471Y729331D02*
D03*
X377844Y481149D02*
D03*
X357582Y438091D02*
D03*
X393901Y531004D02*
D03*
X300200Y533071D02*
D03*
X307076Y540401D02*
D03*
X390259Y625591D02*
D03*
X300987Y607776D02*
D03*
X277973Y586417D02*
D03*
X299905Y546161D02*
D03*
X187503Y500394D02*
D03*
X417217Y674347D02*
D03*
X534255Y667765D02*
D03*
X365442Y523867D02*
D03*
X324202Y506544D02*
D03*
X303631Y481052D02*
D03*
Y489812D02*
D03*
X288572Y507627D02*
D03*
X327857Y429528D02*
D03*
X398625Y461713D02*
D03*
X367917Y411713D02*
D03*
X341131Y412645D02*
D03*
X186322Y397835D02*
D03*
X296263Y517717D02*
D03*
X291762Y397370D02*
D03*
X423822Y641977D02*
D03*
X251676Y609547D02*
D03*
X369885Y658858D02*
D03*
X292804Y555757D02*
D03*
X344098Y575000D02*
D03*
X333271Y577658D02*
D03*
X358172Y380118D02*
D03*
X333566Y646358D02*
D03*
X417228Y583366D02*
D03*
X487700Y688926D02*
D03*
X487602Y698768D02*
D03*
X487582Y684202D02*
D03*
X331991Y662303D02*
D03*
X364458Y546899D02*
D03*
X257877Y579035D02*
D03*
X314078Y662205D02*
D03*
X537503Y713583D02*
D03*
X308468Y326279D02*
D03*
X386519Y666339D02*
D03*
X485830Y674654D02*
D03*
X380810Y362598D02*
D03*
X219787Y489468D02*
D03*
X552956Y692028D02*
D03*
X274806Y367717D02*
D03*
X462306Y624803D02*
D03*
X350495Y662205D02*
D03*
X452759Y612894D02*
D03*
X162897Y366929D02*
D03*
X225987Y559547D02*
D03*
X297543Y636417D02*
D03*
X205023Y318012D02*
D03*
X482877Y353839D02*
D03*
X412503Y353543D02*
D03*
X534649Y693799D02*
D03*
X283665Y351772D02*
D03*
X205613Y396949D02*
D03*
X519393Y689024D02*
D03*
X522838Y713091D02*
D03*
X167720Y401968D02*
D03*
X395771Y427362D02*
D03*
X214472Y431595D02*
D03*
X358665Y545571D02*
D03*
X509058Y712598D02*
D03*
X242818Y401378D02*
D03*
X500791Y690402D02*
D03*
X411814Y542717D02*
D03*
X348612Y427212D02*
D03*
X393704Y526378D02*
D03*
X416834Y683563D02*
D03*
X475987Y629626D02*
D03*
X472050Y636417D02*
D03*
X435922Y651130D02*
D03*
X262011Y382480D02*
D03*
X549905Y656643D02*
D03*
X417818Y653689D02*
D03*
X444787Y658808D02*
D03*
X439866Y659004D02*
D03*
X437799Y656937D02*
D03*
X427956Y700343D02*
D03*
X450496Y703197D02*
D03*
X452759Y721800D02*
D03*
X296742Y601917D02*
D03*
X294751Y599434D02*
D03*
X289944Y599463D02*
D03*
X285325Y599457D02*
D03*
X329222Y517173D02*
D03*
X247726Y521405D02*
D03*
X249498Y463138D02*
D03*
X267706Y507823D02*
D03*
X275186Y507921D02*
D03*
X495082Y682823D02*
D03*
X497838Y662548D02*
D03*
X509551Y699162D02*
D03*
X509452Y692272D02*
D03*
X520968Y669142D02*
D03*
X479431Y718799D02*
D03*
X479432Y713879D02*
D03*
X478448Y706543D02*
D03*
X466539Y717815D02*
D03*
X461618Y717272D02*
D03*
X510929Y662646D02*
D03*
X515751Y662548D02*
D03*
X501775Y683020D02*
D03*
X490063Y655363D02*
D03*
X484747Y655462D02*
D03*
X271545Y473768D02*
D03*
X274891Y497685D02*
D03*
X274694Y449161D02*
D03*
X270265Y458905D02*
D03*
X222922Y467272D02*
D03*
X366586Y499002D02*
D03*
X361407Y455559D02*
D03*
X386406Y477016D02*
D03*
X372923Y457527D02*
D03*
X364360Y471504D02*
D03*
X375384Y461562D02*
D03*
X234846Y418504D02*
D03*
X428153Y367323D02*
D03*
X407483Y417323D02*
D03*
X344478Y422095D02*
D03*
X356781Y422291D02*
D03*
X352168Y412992D02*
D03*
X358356Y427016D02*
D03*
X361014Y504772D02*
D03*
X368494D02*
D03*
X343080Y459771D02*
D03*
X315541Y465598D02*
D03*
X284834Y462018D02*
D03*
X284734Y457035D02*
D03*
X285029Y473866D02*
D03*
X284734Y479378D02*
D03*
X284931Y484595D02*
D03*
X270167Y470618D02*
D03*
X268395Y538335D02*
D03*
X274104Y532724D02*
D03*
X274005Y537842D02*
D03*
X268690Y542764D02*
D03*
X274005Y542862D02*
D03*
X307287Y529921D02*
D03*
X315738Y513531D02*
D03*
X299104D02*
D03*
X314753Y534693D02*
D03*
X268494Y546898D02*
D03*
X479333Y723622D02*
D03*
X492521Y718799D02*
D03*
X469787Y707429D02*
D03*
X429074Y682857D02*
D03*
X433861Y691878D02*
D03*
X475201Y677409D02*
D03*
X290442Y412842D02*
D03*
X290751Y524213D02*
D03*
X284832Y532921D02*
D03*
X290751Y540650D02*
D03*
X268100Y486957D02*
D03*
X266427Y490401D02*
D03*
X270364D02*
D03*
X266525Y503295D02*
D03*
X266427Y496405D02*
D03*
X272234Y503295D02*
D03*
X277155Y504476D02*
D03*
X348021Y484398D02*
D03*
X352253D02*
D03*
X356978D02*
D03*
X393212Y501181D02*
D03*
X364655Y503394D02*
D03*
X300200Y523917D02*
D03*
X290850Y532972D02*
D03*
X307470Y513433D02*
D03*
X314865Y525295D02*
D03*
X335226Y434299D02*
D03*
X369196Y418504D02*
D03*
X462503Y685776D02*
D03*
Y693847D02*
D03*
X455023D02*
D03*
X458763Y689812D02*
D03*
X454925Y685678D02*
D03*
X375974Y557134D02*
D03*
X271643Y507035D02*
D03*
X309649Y652067D02*
D03*
X396558Y447244D02*
D03*
X531401Y649705D02*
D03*
X550594Y636417D02*
D03*
X413094Y331004D02*
D03*
X256401Y639370D02*
D03*
X260915Y492468D02*
D03*
X256486Y492468D02*
D03*
X244393Y535532D02*
D03*
X424807Y712843D02*
D03*
X429324Y709487D02*
D03*
X549806Y715256D02*
D03*
X517818Y640256D02*
D03*
X272149Y600000D02*
D03*
X246460Y566634D02*
D03*
X395574Y438583D02*
D03*
X375679Y445815D02*
D03*
X366539Y589764D02*
D03*
X353448Y652362D02*
D03*
X472740Y695816D02*
D03*
X454925Y658709D02*
D03*
X445988Y651130D02*
D03*
X429728Y638335D02*
D03*
X366047Y615846D02*
D03*
X422247Y662008D02*
D03*
X217228Y515993D02*
D03*
X450058Y659036D02*
D03*
X338439Y578225D02*
D03*
X463684Y566339D02*
D03*
X471165Y602264D02*
D03*
X468606Y586417D02*
D03*
X463881Y580905D02*
D03*
X556991Y601476D02*
D03*
X547739D02*
D03*
X426086Y454528D02*
D03*
X431106Y458760D02*
D03*
X444393Y493228D02*
D03*
X432287Y514370D02*
D03*
X469885Y537894D02*
D03*
X226564Y444338D02*
D03*
X142523Y422047D02*
D03*
X462897Y347539D02*
D03*
X417414Y679269D02*
D03*
X226283Y383957D02*
D03*
X408665Y403150D02*
D03*
X370279Y435433D02*
D03*
X380220Y522244D02*
D03*
X353940Y488878D02*
D03*
X349301Y488906D02*
D03*
D99*
X523822Y368012D02*
D03*
X523625Y381693D02*
D03*
X528546Y416536D02*
D03*
X400397Y737795D02*
D03*
X413684Y728543D02*
D03*
X511420Y396555D02*
D03*
X429432Y387500D02*
D03*
X429629Y398327D02*
D03*
X540653Y435433D02*
D03*
X491972Y437008D02*
D03*
X259255Y362992D02*
D03*
D100*
X534058Y388799D02*
D03*
X532365Y384154D02*
D03*
X507779Y385925D02*
D03*
X477365Y399705D02*
D03*
X439428Y387763D02*
D03*
X389865Y389665D02*
D03*
X386519Y401523D02*
D03*
X399117Y533957D02*
D03*
X368409Y596063D02*
D03*
X376662Y585186D02*
D03*
X535043Y369193D02*
D03*
X338854Y397370D02*
D03*
X401972Y638484D02*
D03*
X297346Y589272D02*
D03*
X304743Y596177D02*
D03*
X348282Y575568D02*
D03*
X463437Y649851D02*
D03*
X313881Y597835D02*
D03*
X307976Y556201D02*
D03*
X311027Y555905D02*
D03*
X315209Y600175D02*
D03*
X237095Y539812D02*
D03*
X283454Y561859D02*
D03*
X445762Y689112D02*
D03*
X457877Y703000D02*
D03*
X270560Y402312D02*
D03*
X213375Y489812D02*
D03*
X398710Y573276D02*
D03*
X301495Y583906D02*
D03*
X452745Y367568D02*
D03*
X452647Y360481D02*
D03*
X392720Y616831D02*
D03*
X403251Y611516D02*
D03*
X385239Y613681D02*
D03*
X404236Y626575D02*
D03*
X431598D02*
D03*
X404334Y608957D02*
D03*
X344984Y387697D02*
D03*
X481972Y424823D02*
D03*
X504826Y420374D02*
D03*
X357484Y353248D02*
D03*
X362572Y379990D02*
D03*
X364570Y371063D02*
D03*
X359944Y358661D02*
D03*
X365161Y345965D02*
D03*
X344688Y372638D02*
D03*
X186407Y478099D02*
D03*
X204223Y476008D02*
D03*
X206978Y473572D02*
D03*
X355023Y577756D02*
D03*
X352267Y575886D02*
D03*
X506972Y439488D02*
D03*
X368999Y560138D02*
D03*
Y547441D02*
D03*
X331598Y551968D02*
D03*
X398330Y543996D02*
D03*
X323970Y551230D02*
D03*
X400299Y537402D02*
D03*
X415850Y433760D02*
D03*
X433271Y423425D02*
D03*
X319491Y594685D02*
D03*
X472697Y686794D02*
D03*
X471952Y650591D02*
D03*
X467769Y646408D02*
D03*
X365357Y599606D02*
D03*
X390751Y608957D02*
D03*
X403350Y621358D02*
D03*
X416440Y629035D02*
D03*
X393507Y653248D02*
D03*
X446066Y626673D02*
D03*
X458960Y641043D02*
D03*
X449314Y628248D02*
D03*
X413291Y607185D02*
D03*
X429517Y606904D02*
D03*
X408369Y601772D02*
D03*
X419787Y607087D02*
D03*
X464964Y640699D02*
D03*
X222543Y526575D02*
D03*
X193113Y535973D02*
D03*
X189767Y538532D02*
D03*
X196854Y454528D02*
D03*
X194393Y456004D02*
D03*
X199413Y419783D02*
D03*
X379728Y569980D02*
D03*
X439767Y602067D02*
D03*
X426972Y439567D02*
D03*
X320771Y628248D02*
D03*
X324511Y628642D02*
D03*
X321854Y615354D02*
D03*
X319737Y613069D02*
D03*
X320152Y610433D02*
D03*
X314570Y607874D02*
D03*
X393212Y649114D02*
D03*
X333172Y639272D02*
D03*
X435043Y409842D02*
D03*
X434747Y418701D02*
D03*
X334157Y572146D02*
D03*
X444491Y376279D02*
D03*
X386125Y487992D02*
D03*
X318901Y555610D02*
D03*
X314767Y563386D02*
D03*
X435141Y399508D02*
D03*
X427857Y659547D02*
D03*
X397989Y549681D02*
D03*
X443015Y613189D02*
D03*
X309944Y568209D02*
D03*
X312700Y565650D02*
D03*
X386716Y525787D02*
D03*
X436420Y636811D02*
D03*
X377857Y392618D02*
D03*
X221209Y538558D02*
D03*
X416145Y631791D02*
D03*
X442115Y357874D02*
D03*
X452365Y351969D02*
D03*
X465751Y350787D02*
D03*
X476184Y361221D02*
D03*
D101*
X342818Y537697D02*
D03*
X389078Y518898D02*
D03*
X296446Y564122D02*
D03*
X243001Y470519D02*
D03*
X243690Y475146D02*
D03*
X203631Y464221D02*
D03*
X331584Y462744D02*
D03*
X327450Y462842D02*
D03*
X322726Y462941D02*
D03*
X269970Y448669D02*
D03*
X257174Y552706D02*
D03*
X491244Y693847D02*
D03*
X446263Y715993D02*
D03*
X453940Y702705D02*
D03*
X441342Y711957D02*
D03*
X498232Y676623D02*
D03*
X497346Y636122D02*
D03*
X544098Y681398D02*
D03*
X239275Y585039D02*
D03*
X443114Y710481D02*
D03*
X267706Y521996D02*
D03*
X475299Y661367D02*
D03*
X425299Y681544D02*
D03*
X460436Y659891D02*
D03*
X424905Y668749D02*
D03*
X445476Y683316D02*
D03*
X463783Y676918D02*
D03*
X395377Y645276D02*
D03*
X238094Y344587D02*
D03*
X269098Y629626D02*
D03*
X268789Y566190D02*
D03*
X285732Y646161D02*
D03*
X500692Y650689D02*
D03*
X356007Y605413D02*
D03*
X403926Y573276D02*
D03*
X303533Y499162D02*
D03*
X385928Y434055D02*
D03*
X378533Y425047D02*
D03*
X446952Y673178D02*
D03*
X445663Y693148D02*
D03*
X373119Y576131D02*
D03*
X262982Y471996D02*
D03*
Y467665D02*
D03*
X254320Y471996D02*
D03*
Y467665D02*
D03*
X258651D02*
D03*
Y471996D02*
D03*
X346249Y464122D02*
D03*
Y468453D02*
D03*
X350580Y464122D02*
D03*
Y468453D02*
D03*
X354911Y464122D02*
D03*
Y468453D02*
D03*
X250495Y440158D02*
D03*
X252070Y442028D02*
D03*
X249990Y443059D02*
D03*
X253336Y444338D02*
D03*
X250987Y446654D02*
D03*
X302661Y561614D02*
D03*
X477956Y691583D02*
D03*
X473035Y692371D02*
D03*
X472200Y689370D02*
D03*
X450889Y647933D02*
D03*
X447444Y655166D02*
D03*
X417228Y638386D02*
D03*
X140554Y379823D02*
D03*
X251480Y437894D02*
D03*
X521165Y354724D02*
D03*
M02*
