M48
;Layer_Color=9474304
;FILE_FORMAT=2:5
INCH,LZ
;TYPE=PLATED
T1F00S00C0.01000
T2F00S00C0.01181
T3F00S00C0.01400
T4F00S00C0.03504
T5F00S00C0.03937
T6F00S00C0.06181
T7F00S00C0.10630
T8F00S00C0.17717
;TYPE=NON_PLATED
T9F00S00C0.09843
T10F00S00C0.12992
%
T01
X0442115Y0357874
X0452647Y0360481
X0452745Y0367568
X0452365Y0351969
X0465751Y0350787
X0476184Y0361221
X0444491Y0376279
X0535043Y0369193
X036457Y0371063
X0359944Y0358661
X0357484Y0353248
X0365161Y0345965
X0344688Y0372638
X0199413Y0419783
X0196854Y0454528
X0194393Y0456004
X0204223Y0476008
X0206978Y0473572
X0213375Y0489812
X0186407Y0478099
X0222543Y0526575
X0386716Y0525787
X0386125Y0487992
X041585Y043376
X0386519Y0401523
X0389865Y0389665
X0377857Y0392618
X0362572Y037999
X0344984Y0387697
X0338854Y039737
X027056Y0402312
X0435141Y0399508
X0435043Y0409842
X0434747Y0418701
X0433271Y0423425
X0426972Y0439567
X0439428Y0387763
X0477365Y0399705
X0481972Y0424823
X0504826Y0420374
X0506972Y0439488
X0507779Y0385925
X0532365Y0384154
X0534058Y0388799
X0439767Y0602067
X0443015Y0613189
X0446066Y0626673
X0449314Y0628248
X0431598Y0626575
X043642Y0636811
X045896Y0641043
X0464964Y0640699
X0467769Y0646408
X0463437Y0649851
X0471952Y0650591
X0472697Y0686794
X0445762Y0689112
X0427857Y0659547
X0429517Y0606904
X0419787Y0607087
X0413291Y0607185
X0408369Y0601772
X0404334Y0608957
X0403251Y0611516
X040335Y0621358
X0404236Y0626575
X0401972Y0638484
X0393212Y0649114
X0393507Y0653248
X039272Y0616831
X0390751Y0608957
X0385239Y0613681
X0365357Y0599606
X0368409Y0596063
X0376662Y0585186
X0379728Y056998
X0368999Y0560138
Y0547441
X0397989Y0549681
X039833Y0543996
X0400299Y0537402
X0399117Y0533957
X039871Y0573276
X0355023Y0577756
X0352267Y0575886
X0348282Y0575568
X0334157Y0572146
X0331598Y0551968
X032397Y055123
X0318901Y055561
X0311027Y0555905
X0307976Y0556201
X0314767Y0563386
X03127Y056565
X0309944Y0568209
X0301495Y0583906
X0297346Y0589272
X0304743Y0596177
X0313881Y0597835
X0315209Y0600175
X031457Y0607874
X0320152Y0610433
X0319737Y0613069
X0321854Y0615354
X0320771Y0628248
X0324511Y0628642
X0333172Y0639272
X0319491Y0594685
X0283454Y0561859
X041644Y0629035
X0416145Y0631791
X0237095Y0539812
X0221209Y0538558
X0193113Y0535973
X0189767Y0538532
X0457877Y0703
T02
X0428153Y0367323
X0462897Y0347539
X0482877Y0353839
X0521165Y0354724
X0539472Y0373799
X0412503Y0353543
X0413094Y0331004
X038081Y0362598
X0283665Y0351772
X0274806Y0367717
X0308468Y0326279
X0238094Y0344587
X0205023Y0318012
X0162897Y0366929
X0140554Y0379823
X0142523Y0422047
X016772Y0401968
X0186322Y0397835
X0205613Y0396949
X0226283Y0383957
X0242818Y0401378
X0234846Y0418504
X0214472Y0431595
X0226564Y0444338
X024999Y0443059
X025207Y0442028
X0250495Y0440158
X025148Y0437894
X0253336Y0444338
X0250987Y0446654
X0249498Y0463138
X025432Y0467665
Y0471996
X0258651
X0262982
Y0467665
X0258651
X0243001Y0470519
X024369Y0475146
X0222922Y0467272
X0203631Y0464221
X0219787Y0489468
X0217228Y0515993
X0247726Y0521405
X0267706Y0521996
Y0507823
X0266525Y0503295
X0266427Y0496405
Y0490401
X02681Y0486957
X0260915Y0492468
X0256486Y0492468
X0187503Y0500394
X0262011Y038248
X0291762Y039737
X0290442Y0412842
X0284734Y0457035
X0284834Y0462018
X0285029Y0473866
X0284734Y0479378
X0284931Y0484595
X0270364Y0490401
X0274891Y0497685
X0272234Y0503295
X0271643Y0507035
X0275186Y0507921
X0277155Y0504476
X0288572Y0507627
X0299104Y0513531
X0296263Y0517717
X03002Y0523917
Y0533071
X029085Y0532972
X0284832Y0532921
X0274104Y0532724
X0290751Y0524213
X0307287Y0529921
X0314865Y0525295
X0315738Y0513531
X030747Y0513433
X0303533Y0499162
X0303631Y0489812
Y0481052
X0315541Y0465598
X0322726Y0462941
X032745Y0462842
X0331584Y0462744
X034308Y0459771
X0346249Y0464122
Y0468453
X035058
Y0464122
X0354911
Y0468453
X036436Y0471504
X0361407Y0455559
X0372923Y0457527
X0375384Y0461562
X0375679Y0445815
X0370279Y0435433
X0357582Y0438091
X0358356Y0427016
X0356781Y0422291
X0344478Y0422095
X0348612Y0427212
X0352168Y0412992
X0341131Y0412645
X0335226Y0434299
X0327857Y0429528
X0369196Y0418504
X0367917Y0411713
X0378533Y0425047
X0385928Y0434055
X0395574Y0438583
X0396558Y0447244
X0398625Y0461713
X0386406Y0477016
X0377844Y0481149
X0356978Y0484398
X0352253
X0348021
X0349301Y0488906
X035394Y0488878
X0366586Y0499002
X0364655Y0503394
X0361014Y0504772
X0368494
X0365442Y0523867
X038022Y0522244
X0389078Y0518898
X0393704Y0526378
X0393901Y0531004
X0393212Y0501181
X0324202Y0506544
X0329222Y0517173
X0271545Y0473768
X0270167Y0470618
X0270265Y0458905
X026997Y0448669
X0274694Y0449161
X0395771Y0427362
X0407483Y0417323
X0408665Y040315
X0358172Y0380118
X0426086Y0454528
X0431106Y045876
X0431598Y0449803
X0431499Y0470374
X0425987Y0475295
X0426086Y0465256
Y0488386
Y0499114
X0425987Y0509154
X0431204Y0504528
X0431598Y0494488
X0431893Y0482874
X0444295Y0480138
X0444393Y0470098
X0449806Y0475217
X044961Y0463504
X0449905Y0454646
X0444393Y045937
Y0493228
Y0503957
X0449905Y0499331
X0449511Y050937
X0444295Y0513996
X0449905Y0519213
X0450102Y0530039
X0444098Y0524626
X0431795Y0525197
X0425791Y0530512
Y0519783
X0432287Y051437
X0459747Y0521949
X0468606Y0522244
X0464472Y0527461
X04752
X0485239Y0527559
X0480318Y0522047
X0479531Y0510532
X0479334Y0500197
Y049311
X0479531Y0486122
Y0477953
X0488881
X0489078Y0486122
X0489669Y049311
Y0500394
X0490259Y0510532
X0492818Y0521654
X049833Y0527461
X0509058
X0504432Y0521949
X0514472Y0522342
X0519098Y0527559
X0524314Y0521949
X0534846Y0522146
X0539373Y0527658
X0529728Y0527756
X0533566Y0511614
X0538783Y0506988
X0539176Y0496949
X0533665Y0501575
Y0490846
X0539472Y0485335
X0539078Y0472835
X0533566Y0477756
X0533665Y0467717
Y0456988
X0538881Y0461122
X0539176Y0452264
X0554039Y0462402
X0553842Y047185
X0553645Y0479823
X0553546Y0489961
X0553645Y0500394
X054646Y0512894
X0546066Y0521949
X0550495Y0527854
X0509058Y0499902
X0509354Y0492913
X0509058Y0485827
X0509354Y0477756
X0500102
Y0485827
X0500299Y049311
Y0499902
X04502Y0487717
X0444098Y0535354
X0443999Y0545394
X0451184Y0554724
X0463684Y0551772
X0464078Y0543307
X0474806
X0484846Y0543405
X048455Y0551181
X0489176Y0557382
X0479137Y0557283
X0468409
X0472543Y0552067
Y0566634
X0463684Y0566339
X0468409Y057185
X0479137
X0489176Y0571949
X0484255Y0566437
X0496755Y0566043
X0502267Y057185
X0512995
X0508369Y0566339
X0518409Y0566732
X0523035Y0571949
X0528251Y0566339
X0539078Y0566142
X0550003Y0566339
X0554432Y0572244
X0544393Y0572146
X0533665
X0528448Y0580905
X0518606Y0581299
X0523232Y0586516
X0513192Y0586417
X0508566Y0580905
X0502464Y0586417
X0500102Y0595374
X0505613Y0601181
X0516342
X0511716Y0595669
X0521755Y0596063
X0526381Y0601279
X0531598Y0595669
X0542424Y0595472
X054459Y0586713
X0533861
X0539275Y0580709
X05502Y0580905
X0554924Y0587402
X055335Y0595669
X0556991Y0601476
X0547739
X0537011
X0541736Y0608169
X0530909Y0608366
X0521066Y060876
X0525692Y0613976
X0515653Y0613878
X0511027Y0608366
X0504924Y0613878
X0499413Y0608071
X0486913Y0608465
X0491834Y0613976
X0481795Y0613878
X0471066
X04752Y0608661
X0466342Y0608366
X0471165Y0602264
X0465948Y0596457
X0475889Y0595965
X0482483Y0601181
X0492523Y0601279
X0487602Y0595768
X0489373Y0586516
X0479334Y0586417
X0484452Y0581004
X0472739Y0581201
X0463881Y0580905
X0468606Y0586417
X0496952Y058061
X0502267Y0557283
X0512995
X0508369Y0551772
X0508665Y0543307
X0504039Y0537795
X0514078Y0538189
X0518704Y0543405
X0518409Y0552165
X0523035Y0557382
X0528251Y0551772
X0529334Y0543602
X0540062
X0539078Y0551575
X0544393Y0557579
X0554432Y0557677
X0550102Y0543701
X0545673Y0537795
X0534747Y0537598
X052392Y0537795
X0533665Y0557579
X0496755Y0551476
X0497936Y0543307
X0492424Y05375
X0479924Y0537894
X0469885Y0537894
X0455712Y0537795
X0431598Y0536122
X0425692Y0540551
X0430121Y0621358
X0429728Y0638335
X0435922Y065113
X0437799Y0656937
X0439866Y0659004
X0444787Y0658808
X0450058Y0659036
X0454925Y0658709
X0460436Y0659891
X0475299Y0661367
X0484747Y0655462
X0490063Y0655363
X0497838Y0662548
X0510929Y0662646
X0515751Y0662548
X0520968Y0669142
X0534255Y0667765
X0531401Y0649705
X0517818Y0640256
X0497346Y0636122
X0500692Y0650689
X0498232Y0676623
X0495082Y0682823
X0501775Y068302
X0487582Y0684202
X04877Y0688926
X04722Y068937
X0462503Y0685776
X0454925Y0685678
X0445476Y0683316
X0446952Y0673178
X0447444Y0655166
X0445988Y065113
X0450889Y0647933
X047205Y0636417
X0475987Y0629626
X0462306Y0624803
X0452759Y0612894
X0463783Y0676918
X0475201Y0677409
X048583Y0674654
X0519393Y0689024
X0544098Y0681398
X0549905Y0656643
X0550594Y0636417
X054705Y0614173
X055709Y0614272
X0552661Y0608366
X0536322Y0614173
X0429074Y0682857
X0425299Y0681544
X0417414Y0679269
X0416834Y0683563
X0417217Y0674347
X0424905Y0668749
X0422247Y0662008
X0417818Y0653689
X0417228Y0638386
X0423822Y0641977
X0395377Y0645276
X0390259Y0625591
X0366047Y0615846
X0356007Y0605413
X0366539Y0589764
X0373119Y0576131
X0375974Y0557134
X0364458Y0546899
X0358665Y0545571
X0342818Y0537697
X0314753Y0534693
X0307076Y0540401
X0299905Y0546161
X0290751Y054065
X0292804Y0555757
X0296446Y0564122
X0302661Y0561614
X0294751Y0599434
X0296742Y0601917
X0289944Y0599463
X0285325Y0599457
X0272149Y06
X0277973Y0586417
X0300987Y0607776
X0297543Y0636417
X0285732Y0646161
X0309649Y0652067
X0314078Y0662205
X0331991Y0662303
X0333566Y0646358
X0353448Y0652362
X0350495Y0662205
X0369885Y0658858
X0386519Y0666339
X0403926Y0573276
X0417228Y0583366
X0411814Y0542717
X0344098Y0575
X0338439Y0578225
X0333271Y0577658
X0274005Y0542862
Y0537842
X0269098Y0629626
X0256401Y063937
X0251676Y0609547
X0257877Y0579035
X0268789Y056619
X0268494Y0546898
X026869Y0542764
X0268395Y0538335
X0257174Y0552706
X024646Y0566634
X0239275Y0585039
X0225987Y0559547
X0244393Y0535532
X0424807Y0712843
X0429324Y0709487
X0427956Y0700343
X0433861Y0691878
X0445663Y0693148
X0455023Y0693847
X0462503
X0458763Y0689812
X0473035Y0692371
X047274Y0695816
X0477956Y0691583
X0478448Y0706543
X0479432Y0713879
X0479431Y0718799
X0479333Y0723622
X0489471Y0729331
X0492521Y0718799
X0509058Y0712598
X0509551Y0699162
X0509452Y0692272
X0500791Y0690402
X0491244Y0693847
X0487602Y0698768
X0469787Y0707429
X0466539Y0717815
X0461618Y0717272
X0452759Y07218
X0446263Y0715993
X0443114Y0710481
X0441342Y0711957
X0450496Y0703197
X045394Y0702705
X0522838Y0713091
X0537503Y0713583
X0549806Y0715256
X0552956Y0692028
X0534649Y0693799
T03
X0523822Y0368012
X0259255Y0362992
X0429432Y03875
X0429629Y0398327
X051142Y0396555
X0523625Y0381693
X0528546Y0416536
X0540653Y0435433
X0491972Y0437008
X0413684Y0728543
X0400397Y0737795
T04
X0349472Y0318976
X0357503
X0365535
X0373566
X036955Y0325984
X0361519
X0353487
X0345456
X0341558Y0345
X0332542
X0377542
X0386558
T05
X0435928Y0322835
X0445771
X053396Y0323031
X0543802
X0281302Y0322835
X027146
X0261617
X0251775
X0167228Y0324016
X0157385
T06
X0327542Y032248
X0391558
T07
X0266539Y0297933
T08
X0497346Y033061
X0117917Y0330807
X0118507Y1018898
X0531893
T09
X0440928Y0297335
X053896Y0297532
X0162385Y0298516
T10
X033455Y0308976
X038455
M30
