G04 Layer_Color=65535*
%FSLAX25Y25*%
%MOIN*%
G70*
G01*
G75*
%ADD62C,0.00787*%
%ADD63C,0.00800*%
%ADD65C,0.01968*%
%ADD67C,0.01181*%
%ADD71C,0.02362*%
%ADD72C,0.01575*%
%ADD74C,0.01000*%
%ADD114C,0.00984*%
%ADD115C,0.00394*%
%ADD116C,0.00598*%
%ADD117C,0.00600*%
%ADD118C,0.00500*%
%ADD119C,0.00400*%
%ADD120C,0.00591*%
D62*
X358566Y511615D02*
Y512796D01*
X363881Y511615D02*
Y512796D01*
X533263Y439764D02*
X534263D01*
X533263Y436221D02*
X534263D01*
X371460Y609441D02*
Y610441D01*
X367917Y609441D02*
Y610441D01*
X302759Y614067D02*
Y615067D01*
X299216Y614067D02*
Y615067D01*
X327050Y349488D02*
X392050D01*
X327050Y287480D02*
X392050D01*
X327050Y328169D02*
Y349488D01*
Y287480D02*
Y316791D01*
X392050Y287480D02*
Y316791D01*
Y328169D02*
Y349488D01*
X517424Y668643D02*
Y669643D01*
X513881Y668643D02*
Y669643D01*
X488586Y676320D02*
Y677320D01*
X492129Y676320D02*
Y677320D01*
X444885Y703386D02*
Y704386D01*
X441342Y703386D02*
Y704386D01*
X436716Y708013D02*
Y709013D01*
X440259Y708013D02*
Y709013D01*
X450875Y388032D02*
Y389032D01*
X454418Y388032D02*
Y389032D01*
X321846Y571752D02*
X322846D01*
X321846Y575295D02*
X322846D01*
X443499Y390551D02*
X444499D01*
X443499Y394094D02*
X444499D01*
X374005Y452402D02*
Y453402D01*
X377548Y452402D02*
Y453402D01*
X265245Y448563D02*
Y449563D01*
X268789Y448563D02*
Y449563D01*
X377562Y634933D02*
Y635933D01*
X374019Y634933D02*
Y635933D01*
X371263Y634933D02*
Y635933D01*
X367720Y634933D02*
Y635933D01*
X383271Y638870D02*
Y639870D01*
X379728Y638870D02*
Y639870D01*
X367720Y646646D02*
Y647646D01*
X371263Y646646D02*
Y647646D01*
X396755Y641331D02*
Y642331D01*
X400299Y641331D02*
Y642331D01*
X379236Y656095D02*
Y657094D01*
X382779Y656095D02*
Y657094D01*
X424019Y654520D02*
Y655520D01*
X420476Y654520D02*
Y655520D01*
X433764Y713229D02*
Y714228D01*
X430220Y713229D02*
Y714228D01*
X480705Y700442D02*
X481705D01*
X480705Y696899D02*
X481705D01*
X484445Y695619D02*
X485445D01*
X484445Y692076D02*
X485445D01*
X450594Y710276D02*
Y711276D01*
X454137Y710276D02*
Y711276D01*
X391046Y623713D02*
Y624713D01*
X394589Y623713D02*
Y624713D01*
X237284Y435185D02*
X238284D01*
X237284Y438729D02*
X238284D01*
X298316Y429870D02*
Y437744D01*
X271348Y429870D02*
Y437744D01*
X217608Y470118D02*
Y471118D01*
X221151Y470118D02*
Y471118D01*
X312580Y433315D02*
X313580D01*
X312580Y429771D02*
X313580D01*
X333750Y442165D02*
Y443165D01*
X337293Y442165D02*
Y443165D01*
X315836Y380256D02*
Y381256D01*
X312292Y380256D02*
Y381256D01*
X272529Y514714D02*
Y515895D01*
X277844Y514714D02*
Y515895D01*
X265049Y514615D02*
Y515796D01*
X270364Y514615D02*
Y515796D01*
X238375Y456542D02*
X241525D01*
X238375Y449457D02*
X241525D01*
X238375Y447783D02*
X241525D01*
X238375Y440697D02*
X241525D01*
X279616Y469921D02*
Y470921D01*
X283159Y469921D02*
Y470921D01*
X277540Y481149D02*
X278540D01*
X277540Y477606D02*
X278540D01*
X277540Y463826D02*
X278540D01*
X277540Y460283D02*
X278540D01*
X310029Y468641D02*
Y469641D01*
X313573Y468641D02*
Y469641D01*
X365639Y511760D02*
Y512941D01*
X370954Y511760D02*
Y512941D01*
X354813Y437744D02*
Y440894D01*
X361899Y437744D02*
Y440894D01*
X345069Y437744D02*
Y440894D01*
X352155Y437744D02*
Y440894D01*
X378229Y478787D02*
X379229D01*
X378229Y475244D02*
X379229D01*
X378230Y463039D02*
X379230D01*
X378230Y466583D02*
X379230D01*
X362588Y464311D02*
Y465310D01*
X366132Y464311D02*
Y465310D01*
X242313Y462736D02*
Y463736D01*
X245856Y462736D02*
Y463736D01*
X258257Y498662D02*
Y499661D01*
X254714Y498662D02*
Y499661D01*
X262686Y498661D02*
Y499661D01*
X259143Y498661D02*
Y499661D01*
X277836Y491287D02*
X278836D01*
X277836Y487744D02*
X278836D01*
X351085Y494677D02*
Y495678D01*
X347542Y494677D02*
Y495678D01*
X355515Y494677D02*
Y495678D01*
X351971Y494677D02*
Y495678D01*
X369568Y492075D02*
X370568D01*
X369568Y488532D02*
X370568D01*
X273612Y591870D02*
Y592870D01*
X277155Y591870D02*
Y592870D01*
X283553Y591968D02*
Y592968D01*
X287096Y591968D02*
Y592968D01*
X288173Y591969D02*
Y592969D01*
X291716Y591969D02*
Y592969D01*
X347732Y569193D02*
X348732D01*
X347732Y572737D02*
X348732D01*
X297786Y591969D02*
Y592969D01*
X301329Y591969D02*
Y592969D01*
X327948Y644882D02*
X328948D01*
X327948Y641339D02*
X328948D01*
X324609Y565248D02*
Y566248D01*
X328152Y565248D02*
Y566248D01*
X346263Y562492D02*
Y563492D01*
X349806Y562492D02*
Y563492D01*
X421953Y691181D02*
Y692181D01*
X425496Y691181D02*
Y692181D01*
X434937Y698473D02*
X435937D01*
X434937Y702017D02*
X435937D01*
X460142Y710276D02*
Y711276D01*
X463685Y710276D02*
Y711276D01*
X464768Y710276D02*
Y711276D01*
X468311Y710276D02*
Y711276D01*
X435260Y679880D02*
X436260D01*
X435260Y683424D02*
X436260D01*
X423913Y672587D02*
X424913D01*
X423913Y676131D02*
X424913D01*
X423913Y677509D02*
X424913D01*
X423913Y681052D02*
X424913D01*
X435232Y675048D02*
X436232D01*
X435232Y678591D02*
X436232D01*
X452267Y664903D02*
Y665903D01*
X448723Y664903D02*
Y665903D01*
X441539Y664902D02*
Y665903D01*
X437996Y664902D02*
Y665903D01*
X446065Y665001D02*
Y666001D01*
X442522Y665001D02*
Y666001D01*
X456991Y664903D02*
Y665903D01*
X453448Y664903D02*
Y665903D01*
X463282Y664722D02*
X464282D01*
X463282Y661178D02*
X464282D01*
X463283Y670618D02*
X464283D01*
X463283Y667075D02*
X464283D01*
X478146Y672095D02*
X479146D01*
X478146Y675639D02*
X479146D01*
X466630Y672193D02*
X467629D01*
X466630Y675737D02*
X467629D01*
X480704Y685973D02*
X481705D01*
X480704Y682430D02*
X481705D01*
X480802Y690599D02*
X481802D01*
X480802Y687055D02*
X481802D01*
X491834Y661851D02*
Y662851D01*
X488291Y661851D02*
Y662851D01*
X486519Y661851D02*
Y662851D01*
X482976Y661851D02*
Y662851D01*
X507582Y669036D02*
Y670036D01*
X504039Y669036D02*
Y670036D01*
X497928Y681445D02*
X498928D01*
X497928Y677902D02*
X498928D01*
X512799Y668544D02*
Y669544D01*
X509255Y668544D02*
Y669544D01*
X494394Y701122D02*
Y702122D01*
X497937Y701122D02*
Y702122D01*
X430704Y658708D02*
X431704D01*
X430704Y655165D02*
X431704D01*
X436224Y664902D02*
Y665902D01*
X432681Y664902D02*
Y665902D01*
X474602Y704870D02*
X475602D01*
X474602Y701327D02*
X475602D01*
X222234Y472291D02*
X226958D01*
X222234Y503000D02*
X226958D01*
X242312Y472291D02*
X247037D01*
X242312Y503000D02*
X247037D01*
X222234Y472291D02*
Y503000D01*
X247037Y472291D02*
Y503000D01*
X311210Y376131D02*
Y387548D01*
X304123Y376131D02*
Y387548D01*
Y379871D02*
X311210D01*
X304123Y376131D02*
X304911D01*
X304123Y387548D02*
X304911D01*
X310422D02*
X311210D01*
X310422Y376131D02*
X311210D01*
X339655Y467764D02*
Y498472D01*
X314852Y467764D02*
Y498472D01*
X334930D02*
X339655D01*
X334930Y467764D02*
X339655D01*
X314852Y498472D02*
X319576D01*
X314852Y467764D02*
X319576D01*
X474708Y661170D02*
X477464D01*
X474708Y670619D02*
X477464D01*
X502563Y667961D02*
Y670717D01*
X493114Y667961D02*
Y670717D01*
X277737Y496110D02*
X278737D01*
X277737Y492567D02*
X278737D01*
X276466Y469921D02*
Y470921D01*
X272923Y469921D02*
Y470921D01*
X277738Y482823D02*
X278738D01*
X277738Y486366D02*
X278738D01*
X369432Y497509D02*
X370432D01*
X369432Y493966D02*
X370432D01*
X378230Y469338D02*
X379230D01*
X378230Y472882D02*
X379230D01*
X299498Y404870D02*
Y409004D01*
X292805Y404870D02*
Y409004D01*
X333257Y405264D02*
Y409398D01*
X326564Y405264D02*
Y409398D01*
X277541Y453984D02*
X278541D01*
X277541Y450441D02*
X278541D01*
X277541Y455264D02*
X278541D01*
X277541Y458807D02*
X278541D01*
X371446Y452401D02*
Y453401D01*
X367903Y452401D02*
Y453401D01*
X379419Y452303D02*
Y453303D01*
X382962Y452303D02*
Y453303D01*
X263466Y535382D02*
X264466D01*
X263466Y531838D02*
X264466D01*
X420960Y698571D02*
X421960D01*
X420960Y702115D02*
X421960D01*
X452653Y671406D02*
X453653D01*
X452653Y674949D02*
X453653D01*
X519196Y675237D02*
Y676237D01*
X522740Y675237D02*
Y676237D01*
X504531Y695316D02*
Y696315D01*
X508074Y695316D02*
Y696315D01*
X488086Y419783D02*
X489086D01*
X488086Y423327D02*
X489086D01*
X485625Y715749D02*
X486625D01*
X485625Y712206D02*
X486625D01*
X419787Y708997D02*
Y709997D01*
X416244Y708997D02*
Y709997D01*
X407673Y636713D02*
X408673D01*
X407673Y640256D02*
X408673D01*
X405409Y652658D02*
X406409D01*
X405409Y656201D02*
X406409D01*
X268494Y463531D02*
Y476130D01*
X248809Y463531D02*
Y476130D01*
X268494D01*
X248809Y463531D02*
X268494D01*
X340738Y459988D02*
X360423D01*
X340738Y472586D02*
X360423D01*
X340738Y459988D02*
Y472586D01*
X360423Y459988D02*
Y472586D01*
X246348Y530756D02*
X254222D01*
X246348Y507134D02*
X254222D01*
X339163Y527311D02*
X347037D01*
X339163Y503689D02*
X347037D01*
X325186Y396799D02*
Y425145D01*
X324005D02*
X325186D01*
X324005Y396799D02*
X325186D01*
X300777D02*
X301958D01*
X300777Y425145D02*
X301958D01*
X300777Y396799D02*
Y425145D01*
X311801Y396799D02*
X314163D01*
X311801Y425145D02*
X314163D01*
X278434Y591878D02*
Y592862D01*
X282371Y591878D02*
Y592862D01*
X459157Y710284D02*
Y711268D01*
X455220Y710284D02*
Y711268D01*
X425890Y664812D02*
Y665796D01*
X429827Y664812D02*
Y665796D01*
X467917Y679969D02*
X469098D01*
Y681150D01*
Y699260D02*
Y700442D01*
X467917D02*
X469098D01*
X448626D02*
X449807D01*
X448626Y699260D02*
Y700442D01*
Y679969D02*
Y681150D01*
Y679969D02*
X449807D01*
X335436Y561811D02*
X338586D01*
X335436Y568110D02*
X338586D01*
X427366Y691091D02*
Y692666D01*
X432681Y696997D02*
X435043D01*
X432681Y686761D02*
X435043D01*
X440358Y691091D02*
Y692666D01*
X379727Y388575D02*
Y389575D01*
X383271Y388575D02*
Y389575D01*
X317304Y387843D02*
X318304D01*
X317304Y391386D02*
X318304D01*
X208749Y467166D02*
Y468166D01*
X205206Y467166D02*
Y468166D01*
X215541Y467067D02*
Y468067D01*
X211998Y467067D02*
Y468067D01*
X447627Y361359D02*
Y362359D01*
X451170Y361359D02*
Y362359D01*
X221755Y518693D02*
Y519693D01*
X225298Y518693D02*
Y519693D01*
X207757Y521012D02*
X208757D01*
X207757Y524556D02*
X208757D01*
X231781Y525630D02*
Y526630D01*
X228238Y525630D02*
Y526630D01*
X296545Y591969D02*
Y592969D01*
X293001Y591969D02*
Y592969D01*
X237284Y413827D02*
X238284D01*
X237284Y417371D02*
X238284D01*
X237284Y418847D02*
X238284D01*
X237284Y422390D02*
X238284D01*
X237284Y424063D02*
X238284D01*
X237284Y427607D02*
X238284D01*
X237284Y429477D02*
X238284D01*
X237284Y433020D02*
X238284D01*
X363178Y441281D02*
Y442281D01*
X366721Y441281D02*
Y442281D01*
X444976Y723474D02*
X445976D01*
X444976Y719930D02*
X445976D01*
X402154Y579076D02*
Y580076D01*
X405698Y579076D02*
Y580076D01*
X505311Y707087D02*
X506311D01*
X505311Y703544D02*
X506311D01*
X200285Y503139D02*
X205206D01*
Y499851D02*
Y503139D01*
X200285Y490855D02*
X205206D01*
Y494143D01*
X273808Y394733D02*
X274989D01*
X273808Y400048D02*
X274989D01*
X197037Y479280D02*
X198021D01*
X197037Y483217D02*
X198021D01*
X440836Y367076D02*
X441820D01*
X440836Y363139D02*
X441820D01*
X423147Y608223D02*
Y608990D01*
X411139Y608223D02*
Y608990D01*
Y633951D02*
Y634719D01*
X423147Y633951D02*
Y634719D01*
X422379Y608223D02*
X423147D01*
X411139D02*
X411907D01*
X411139Y634719D02*
X411907D01*
X422379D02*
X423147D01*
X390344Y595422D02*
X392706D01*
X384438Y579871D02*
Y581150D01*
X381682Y579871D02*
X384438D01*
Y585284D02*
Y586564D01*
X381682D02*
X384438D01*
X209824Y477804D02*
X210824D01*
X209824Y474261D02*
X210824D01*
X209922Y479477D02*
X210922D01*
X209922Y483020D02*
X210922D01*
X445946Y369339D02*
X446946D01*
X445946Y372883D02*
X446946D01*
X209529Y545914D02*
X210529D01*
X209529Y549458D02*
X210529D01*
X227456Y534154D02*
X228456D01*
X227456Y537697D02*
X228456D01*
X207757Y525934D02*
X208757D01*
X207757Y529477D02*
X208757D01*
X361702Y492757D02*
Y493757D01*
X358159Y492757D02*
Y493757D01*
X400580Y579076D02*
Y580076D01*
X397037Y579076D02*
Y580076D01*
X374891Y582717D02*
Y583717D01*
X371348Y582717D02*
Y583717D01*
X204222Y531150D02*
X213277D01*
X204222Y543355D02*
X213277D01*
Y531150D02*
Y543355D01*
X204222Y531150D02*
Y543355D01*
X485427Y727757D02*
X486427D01*
X485427Y724214D02*
X486427D01*
X485624Y735139D02*
X486624D01*
X485624Y731596D02*
X486624D01*
X358271Y360295D02*
Y394941D01*
X364570Y360295D02*
Y394941D01*
X358271D02*
X364570D01*
X358271Y360295D02*
X364570D01*
X389078Y627748D02*
Y628748D01*
X385534Y627748D02*
Y628748D01*
X512444Y460512D02*
Y469370D01*
X471499Y460512D02*
X512444D01*
X471499D02*
Y469370D01*
X408861Y371949D02*
X412995D01*
X408861Y378642D02*
X412995D01*
X489169Y434842D02*
X490169D01*
X489169Y431299D02*
X490169D01*
X494491Y383555D02*
Y384555D01*
X498035Y383555D02*
Y384555D01*
X501570Y366929D02*
X502570D01*
X501570Y363386D02*
X502570D01*
X503637Y431988D02*
X504637D01*
X503637Y435532D02*
X504637D01*
X503842Y423122D02*
Y424122D01*
X500299Y423122D02*
Y424122D01*
X408960Y407776D02*
X413094D01*
X408960Y414468D02*
X413094D01*
X424511Y392028D02*
Y394390D01*
X396165Y392028D02*
Y394390D01*
Y405413D02*
X424511D01*
Y404232D02*
Y405413D01*
X396165Y404232D02*
Y405413D01*
Y381004D02*
Y382185D01*
X424511Y381004D02*
Y382185D01*
X396165Y381004D02*
X424511D01*
X505712Y423220D02*
Y424221D01*
X509255Y423220D02*
Y424221D01*
X493704Y361311D02*
Y362311D01*
X490160Y361311D02*
Y362311D01*
X494779Y376969D02*
X495779D01*
X494779Y373425D02*
X495779D01*
X429629Y392020D02*
Y393020D01*
X433172Y392020D02*
Y393020D01*
X472240Y359154D02*
X473240D01*
X472240Y355611D02*
X473240D01*
X469084Y362942D02*
X476170D01*
X469084Y382627D02*
X476170D01*
Y362942D02*
Y382627D01*
X469084Y362942D02*
Y382627D01*
X338972Y644980D02*
X339972D01*
X338972Y641437D02*
X339972D01*
X409846Y549303D02*
Y550303D01*
X413389Y549303D02*
Y550303D01*
X434256Y618004D02*
Y619004D01*
X437799Y618004D02*
Y619004D01*
X332771Y572835D02*
X333771D01*
X332771Y576378D02*
X333771D01*
X387397Y540158D02*
X388397D01*
X387397Y543701D02*
X388397D01*
X437798Y629323D02*
Y630323D01*
X434255Y629323D02*
Y630323D01*
X382779Y549992D02*
Y550992D01*
X386322Y549992D02*
Y550992D01*
X405220Y546063D02*
Y552756D01*
X403251Y546063D02*
Y552756D01*
Y546063D02*
X405220D01*
X403251Y552756D02*
X405220D01*
X388783Y639067D02*
Y640067D01*
X385239Y639067D02*
Y640067D01*
X473724Y642807D02*
Y643807D01*
X470180Y642807D02*
Y643807D01*
X381598Y525394D02*
X389865D01*
X381598Y531693D02*
X389865D01*
X381598Y525394D02*
Y531693D01*
X389865Y525394D02*
Y531693D01*
X349793Y535964D02*
Y536964D01*
X353336Y535964D02*
Y536964D01*
X211800Y505650D02*
Y506650D01*
X208257Y505650D02*
Y506650D01*
X313080Y586464D02*
X357175D01*
X313080Y630559D02*
X357175D01*
X313080Y586464D02*
Y630559D01*
X357175Y586464D02*
Y630559D01*
X422445Y641280D02*
Y642280D01*
X418901Y641280D02*
Y642280D01*
X552169Y420177D02*
Y432382D01*
X521066Y430610D02*
X522838Y432382D01*
X521066Y421949D02*
X522838Y420177D01*
X521066Y421949D02*
Y430610D01*
X541932Y432382D02*
X552169D01*
X541932Y420177D02*
X552169D01*
X522838D02*
X532483D01*
X522838Y432382D02*
X532483D01*
X522936Y401378D02*
Y413583D01*
X552267Y401378D02*
X554039Y403150D01*
X552267Y413583D02*
X554039Y411811D01*
Y403150D02*
Y411811D01*
X522936Y401378D02*
X533173D01*
X522936Y413583D02*
X533173D01*
X542621D02*
X552267D01*
X542621Y401378D02*
X552267D01*
X189456Y335184D02*
X185521D01*
Y329280D01*
X189456D01*
X185521Y332232D02*
X187489D01*
X191424Y334200D02*
X192408Y335184D01*
X194376D01*
X195360Y334200D01*
Y330264D01*
X194376Y329280D01*
X192408D01*
X191424Y330264D01*
Y334200D01*
X201264Y335184D02*
X197328D01*
Y332232D01*
X199296Y333216D01*
X200280D01*
X201264Y332232D01*
Y330264D01*
X200280Y329280D01*
X198312D01*
X197328Y330264D01*
X203232Y334200D02*
X204216Y335184D01*
X206183D01*
X207167Y334200D01*
Y330264D01*
X206183Y329280D01*
X204216D01*
X203232Y330264D01*
Y334200D01*
X209135D02*
X210119Y335184D01*
X212087D01*
X213071Y334200D01*
Y330264D01*
X212087Y329280D01*
X210119D01*
X209135Y330264D01*
Y334200D01*
X215039Y329280D02*
X217007D01*
X216023D01*
Y335184D01*
X215039Y334200D01*
X196348Y368749D02*
Y374652D01*
X200283Y368749D01*
Y374652D01*
X203235Y372685D02*
X205203D01*
X206187Y371701D01*
Y368749D01*
X203235D01*
X202251Y369733D01*
X203235Y370717D01*
X206187D01*
X208155Y368749D02*
Y372685D01*
X211107D01*
X212090Y371701D01*
Y368749D01*
X215042D02*
X217010D01*
X217994Y369733D01*
Y371701D01*
X217010Y372685D01*
X215042D01*
X214058Y371701D01*
Y369733D01*
X215042Y368749D01*
X219962D02*
X222914D01*
X223898Y369733D01*
X222914Y370717D01*
X220946D01*
X219962Y371701D01*
X220946Y372685D01*
X223898D01*
X226850Y368749D02*
X228817D01*
X229801Y369733D01*
Y371701D01*
X228817Y372685D01*
X226850D01*
X225866Y371701D01*
Y369733D01*
X226850Y368749D01*
X231769D02*
Y372685D01*
X234721D01*
X235705Y371701D01*
Y368749D01*
X237673D02*
X239641D01*
X238657D01*
Y372685D01*
X237673D01*
X246528D02*
X243576D01*
X242592Y371701D01*
Y369733D01*
X243576Y368749D01*
X246528D01*
X248496D02*
X251448D01*
X252432Y369733D01*
X251448Y370717D01*
X249480D01*
X248496Y371701D01*
X249480Y372685D01*
X252432D01*
X184537Y355363D02*
Y361267D01*
X187488D01*
X188472Y360283D01*
Y358315D01*
X187488Y357331D01*
X184537D01*
X186504D02*
X188472Y355363D01*
X194376Y361267D02*
X190440D01*
Y358315D01*
X192408D01*
X190440D01*
Y355363D01*
X196344Y361267D02*
X198312D01*
X197328D01*
Y355363D01*
X196344D01*
X198312D01*
X201263Y361267D02*
Y355363D01*
X204215D01*
X205199Y356347D01*
Y360283D01*
X204215Y361267D01*
X201263D01*
X207167Y354379D02*
X211103D01*
X213071Y355363D02*
Y361267D01*
X216022D01*
X217006Y360283D01*
Y358315D01*
X216022Y357331D01*
X213071D01*
X222910Y361267D02*
X218974D01*
Y358315D01*
X220942Y359299D01*
X221926D01*
X222910Y358315D01*
Y356347D01*
X221926Y355363D01*
X219958D01*
X218974Y356347D01*
X230781Y361267D02*
Y355363D01*
X233733D01*
X234717Y356347D01*
Y357331D01*
Y358315D01*
X233733Y359299D01*
X230781D01*
X237669Y355363D02*
X239637D01*
X240621Y356347D01*
Y358315D01*
X239637Y359299D01*
X237669D01*
X236685Y358315D01*
Y356347D01*
X237669Y355363D01*
X243572Y359299D02*
X245540D01*
X246524Y358315D01*
Y355363D01*
X243572D01*
X242589Y356347D01*
X243572Y357331D01*
X246524D01*
X248492Y359299D02*
Y355363D01*
Y357331D01*
X249476Y358315D01*
X250460Y359299D01*
X251444D01*
X258331Y361267D02*
Y355363D01*
X255380D01*
X254396Y356347D01*
Y358315D01*
X255380Y359299D01*
X258331D01*
X185225Y342765D02*
Y348668D01*
X188177D01*
X189161Y347684D01*
Y345716D01*
X188177Y344732D01*
X185225D01*
X187193D02*
X189161Y342765D01*
X194081D02*
X192113D01*
X191129Y343748D01*
Y345716D01*
X192113Y346700D01*
X194081D01*
X195065Y345716D01*
Y344732D01*
X191129D01*
X197033Y346700D02*
X199001Y342765D01*
X200968Y346700D01*
X208840Y347684D02*
X209824Y348668D01*
X211792D01*
X212776Y347684D01*
Y343748D01*
X211792Y342765D01*
X209824D01*
X208840Y343748D01*
Y347684D01*
X214743Y342765D02*
Y343748D01*
X215727D01*
Y342765D01*
X214743D01*
X219663Y347684D02*
X220647Y348668D01*
X222615D01*
X223599Y347684D01*
Y346700D01*
X222615Y345716D01*
X221631D01*
X222615D01*
X223599Y344732D01*
Y343748D01*
X222615Y342765D01*
X220647D01*
X219663Y343748D01*
D63*
X162194Y451426D02*
Y533611D01*
X110619D02*
X141328D01*
X110619Y451328D02*
Y533611D01*
Y451328D02*
X161997D01*
X141328Y533611D02*
X162194D01*
X404191Y741606D02*
Y744605D01*
X406190Y741606D01*
Y744605D01*
X407190D02*
X409189D01*
X408190D01*
Y741606D01*
X410189D02*
X411189D01*
X410689D01*
Y744605D01*
X410189Y744105D01*
D65*
X408777Y607593D02*
G03*
X408777Y607593I-591J0D01*
G01*
D67*
X243494Y505559D02*
G03*
X243494Y505559I-591J0D01*
G01*
X336112Y501031D02*
G03*
X336112Y501031I-591J0D01*
G01*
X301958Y394437D02*
G03*
X301958Y394437I-394J0D01*
G01*
X332680Y570669D02*
G03*
X332680Y570669I-591J0D01*
G01*
X443277Y695422D02*
G03*
X443277Y695422I-557J0D01*
G01*
X394196Y404626D02*
G03*
X394196Y404626I-394J0D01*
G01*
D71*
X318198Y590401D02*
G03*
X318198Y590401I-1181J0D01*
G01*
D72*
X473021Y379477D02*
G03*
X473021Y379477I-787J0D01*
G01*
D74*
X192647Y371111D02*
G03*
X192647Y371111I-5355J0D01*
G01*
X530220Y373721D02*
Y374606D01*
X530023Y384252D02*
Y385236D01*
X519491Y373524D02*
Y374803D01*
X529039Y385236D02*
X530023D01*
X529039Y373721D02*
X530220D01*
X521066Y385236D02*
X523822D01*
X519491Y373524D02*
X523428D01*
X519491Y383661D02*
X521066Y385236D01*
X459846Y517717D02*
X523920D01*
X459846Y503937D02*
Y517717D01*
X523920Y504528D02*
Y517717D01*
X440161Y504528D02*
X459846D01*
X523920D02*
X543901D01*
X543999Y446949D02*
Y504528D01*
X440062Y446949D02*
Y504528D01*
X526283Y446949D02*
X543999D01*
X440062Y446949D02*
X458468D01*
X459846Y447047D02*
Y504528D01*
X523920Y447146D02*
Y504528D01*
X458468Y446949D02*
X526283Y446949D01*
X150692Y314173D02*
X173921D01*
X174117Y310630D02*
Y314173D01*
X150495Y310630D02*
Y314173D01*
X177070Y310630D02*
Y337402D01*
X147543D02*
X177070D01*
X147543Y310630D02*
X177070D01*
X157385Y335138D02*
X158885Y337138D01*
X155885D02*
X157385Y335138D01*
X147542Y310630D02*
Y337402D01*
X429236Y312992D02*
X452464D01*
X452661Y309449D02*
Y312992D01*
X429039Y309449D02*
Y312992D01*
X455613Y309449D02*
Y336221D01*
X426086D02*
X455613D01*
X426086Y309449D02*
X455613D01*
X435928Y333957D02*
X437428Y335957D01*
X434428D02*
X435928Y333957D01*
X426086Y309449D02*
Y336221D01*
X291145Y309449D02*
Y336221D01*
X241932D02*
X291145D01*
X241932Y309449D02*
X291145D01*
X284539D02*
Y313236D01*
X248625Y313335D02*
X284452D01*
X251775Y334154D02*
X253275Y336154D01*
X250275D02*
X251775Y334154D01*
X241932Y309449D02*
Y336221D01*
X248538Y309449D02*
Y313236D01*
X527267Y313189D02*
X550495D01*
X550692Y309646D02*
Y313189D01*
X527070Y309646D02*
Y313189D01*
X553645Y309646D02*
Y336417D01*
X524117D02*
X553645D01*
X524117Y309646D02*
X553645D01*
X533960Y334154D02*
X535460Y336154D01*
X532460D02*
X533960Y334154D01*
X524117Y309646D02*
Y336417D01*
X121854Y379035D02*
Y415059D01*
Y379035D02*
X126184Y383366D01*
X118113Y382776D02*
X121854Y379035D01*
X427956Y559246D02*
Y553248D01*
Y556247D01*
X431955D01*
Y559246D01*
Y553248D01*
X437953Y558246D02*
X436953Y559246D01*
X434954D01*
X433954Y558246D01*
Y557247D01*
X434954Y556247D01*
X436953D01*
X437953Y555247D01*
Y554248D01*
X436953Y553248D01*
X434954D01*
X433954Y554248D01*
D114*
X248297Y459102D02*
G03*
X248297Y459102I-492J0D01*
G01*
X340226Y455559D02*
G03*
X340226Y455559I-492J0D01*
G01*
X448744Y678347D02*
G03*
X448744Y678347I-492J0D01*
G01*
X200875Y544143D02*
G03*
X200875Y544143I-492J0D01*
G01*
X352267Y396161D02*
G03*
X352267Y396161I-492J0D01*
G01*
X473428Y450079D02*
G03*
X473428Y450079I-492J0D01*
G01*
X463670Y383631D02*
G03*
X463670Y383631I-492J0D01*
G01*
X401381Y554134D02*
G03*
X401381Y554134I-492J0D01*
G01*
X380515Y522244D02*
G03*
X380515Y522244I-492J0D01*
G01*
X314261Y582429D02*
G03*
X314261Y582429I-492J0D01*
G01*
D115*
X325186Y396799D02*
Y425145D01*
Y396799D02*
Y425145D01*
X300777Y396799D02*
Y425145D01*
Y396799D02*
Y425145D01*
X396165Y405413D02*
X424511D01*
X396165D02*
X424511D01*
X396165Y381004D02*
X424511D01*
X396165D02*
X424511D01*
X350954Y484613D02*
X351282Y484941D01*
Y485597D01*
X350954Y485925D01*
X349642D01*
X349314Y485597D01*
Y484941D01*
X349642Y484613D01*
X349314Y482973D02*
X351282D01*
X350298Y483957D01*
Y482645D01*
X351282Y480678D02*
X350954Y481333D01*
X350298Y481989D01*
X349642D01*
X349314Y481662D01*
Y481006D01*
X349642Y480678D01*
X349970D01*
X350298Y481006D01*
Y481989D01*
X355088Y484810D02*
X355416Y485138D01*
Y485794D01*
X355088Y486122D01*
X353776D01*
X353448Y485794D01*
Y485138D01*
X353776Y484810D01*
X353448Y483170D02*
X355416D01*
X354432Y484154D01*
Y482842D01*
X355416Y482186D02*
Y480874D01*
X355088D01*
X353776Y482186D01*
X353448D01*
D116*
X517686Y392713D02*
Y390213D01*
X518186Y389714D01*
X519186D01*
X519686Y390213D01*
Y392713D01*
X520685Y392213D02*
X521185Y392713D01*
X522185D01*
X522685Y392213D01*
Y391713D01*
X522185Y391213D01*
X522685Y390713D01*
Y390213D01*
X522185Y389714D01*
X521185D01*
X520685Y390213D01*
Y390713D01*
X521185Y391213D01*
X520685Y391713D01*
Y392213D01*
X521185Y391213D02*
X522185D01*
D117*
X359906Y521291D02*
X359406Y520791D01*
Y519791D01*
X359906Y519291D01*
X361905D01*
X362405Y519791D01*
Y520791D01*
X361905Y521291D01*
X359406Y524290D02*
Y522290D01*
X360905D01*
X360405Y523290D01*
Y523790D01*
X360905Y524290D01*
X361905D01*
X362405Y523790D01*
Y522790D01*
X361905Y522290D01*
X359906Y525289D02*
X359406Y525789D01*
Y526789D01*
X359906Y527289D01*
X361905D01*
X362405Y526789D01*
Y525789D01*
X361905Y525289D01*
X359906D01*
X541176Y442263D02*
X540676Y442763D01*
X539676D01*
X539176Y442263D01*
Y440264D01*
X539676Y439764D01*
X540676D01*
X541176Y440264D01*
X542175Y439764D02*
X543175D01*
X542675D01*
Y442763D01*
X542175Y442263D01*
X544675D02*
X545175Y442763D01*
X546174D01*
X546674Y442263D01*
Y440264D01*
X546174Y439764D01*
X545175D01*
X544675Y440264D01*
Y442263D01*
X549673Y442763D02*
X548673Y442263D01*
X547674Y441263D01*
Y440264D01*
X548174Y439764D01*
X549173D01*
X549673Y440264D01*
Y440764D01*
X549173Y441263D01*
X547674D01*
X498428Y514613D02*
Y512114D01*
X498928Y511614D01*
X499928D01*
X500428Y512114D01*
Y514613D01*
X501427Y512114D02*
X501927Y511614D01*
X502927D01*
X503427Y512114D01*
Y514113D01*
X502927Y514613D01*
X501927D01*
X501427Y514113D01*
Y513614D01*
X501927Y513114D01*
X503427D01*
X556355Y381201D02*
Y383200D01*
Y382201D01*
X559354D01*
Y384200D02*
X556355D01*
Y385699D01*
X556854Y386199D01*
X557854D01*
X558354Y385699D01*
Y384200D01*
X559354Y387199D02*
Y388198D01*
Y387699D01*
X556355D01*
X556854Y387199D01*
X408960Y366437D02*
Y369436D01*
X410459D01*
X410959Y368936D01*
Y367936D01*
X410459Y367437D01*
X408960D01*
X409960D02*
X410959Y366437D01*
X413458D02*
Y369436D01*
X411959Y367936D01*
X413958D01*
X414958Y366937D02*
X415458Y366437D01*
X416457D01*
X416957Y366937D01*
Y368936D01*
X416457Y369436D01*
X415458D01*
X414958Y368936D01*
Y368436D01*
X415458Y367936D01*
X416957D01*
X485633Y426279D02*
Y429279D01*
X487133D01*
X487632Y428779D01*
Y427779D01*
X487133Y427279D01*
X485633D01*
X486633D02*
X487632Y426279D01*
X490132D02*
Y429279D01*
X488632Y427779D01*
X490631D01*
X493631Y429279D02*
X491631D01*
Y427779D01*
X492631Y428279D01*
X493131D01*
X493631Y427779D01*
Y426779D01*
X493131Y426279D01*
X492131D01*
X491631Y426779D01*
X490751Y389862D02*
Y392861D01*
X492251D01*
X492751Y392361D01*
Y391362D01*
X492251Y390862D01*
X490751D01*
X491751D02*
X492751Y389862D01*
X495250D02*
Y392861D01*
X493750Y391362D01*
X495750D01*
X498249Y389862D02*
Y392861D01*
X496749Y391362D01*
X498749D01*
X498625Y358858D02*
Y361857D01*
X500125D01*
X500625Y361357D01*
Y360358D01*
X500125Y359858D01*
X498625D01*
X499625D02*
X500625Y358858D01*
X503124D02*
Y361857D01*
X501624Y360358D01*
X503624D01*
X506623Y358858D02*
X504623D01*
X506623Y360858D01*
Y361357D01*
X506123Y361857D01*
X505123D01*
X504623Y361357D01*
X507877Y429429D02*
Y432428D01*
X509377D01*
X509877Y431928D01*
Y430929D01*
X509377Y430429D01*
X507877D01*
X508877D02*
X509877Y429429D01*
X512376D02*
Y432428D01*
X510876Y430929D01*
X512876D01*
X513875Y429429D02*
X514875D01*
X514375D01*
Y432428D01*
X513875Y431928D01*
X503546Y412008D02*
X500548D01*
Y413507D01*
X501047Y414007D01*
X502047D01*
X502547Y413507D01*
Y412008D01*
Y413008D02*
X503546Y414007D01*
Y417006D02*
Y415007D01*
X501547Y417006D01*
X501047D01*
X500548Y416506D01*
Y415507D01*
X501047Y415007D01*
X403168Y417461D02*
Y420460D01*
X404668D01*
X405167Y419960D01*
Y418960D01*
X404668Y418461D01*
X403168D01*
X404168D02*
X405167Y417461D01*
X406167D02*
X407167D01*
X406667D01*
Y420460D01*
X406167Y419960D01*
X526182Y341697D02*
X525182D01*
X525682D01*
Y339198D01*
X525182Y338698D01*
X524682D01*
X524182Y339198D01*
X529181Y341697D02*
X528181Y341197D01*
X527181Y340197D01*
Y339198D01*
X527681Y338698D01*
X528681D01*
X529181Y339198D01*
Y339698D01*
X528681Y340197D01*
X527181D01*
X550692Y436759D02*
Y433760D01*
X552192D01*
X552692Y434260D01*
Y436259D01*
X552192Y436759D01*
X550692D01*
X555690D02*
X554691Y436259D01*
X553691Y435259D01*
Y434260D01*
X554191Y433760D01*
X555191D01*
X555690Y434260D01*
Y434760D01*
X555191Y435259D01*
X553691D01*
X553546Y401227D02*
Y398228D01*
X555046D01*
X555546Y398728D01*
Y400728D01*
X555046Y401227D01*
X553546D01*
X558545D02*
X556545D01*
Y399728D01*
X557545Y400228D01*
X558045D01*
X558545Y399728D01*
Y398728D01*
X558045Y398228D01*
X557045D01*
X556545Y398728D01*
X395802Y413129D02*
X395302Y413629D01*
X394302D01*
X393802Y413129D01*
Y411130D01*
X394302Y410630D01*
X395302D01*
X395802Y411130D01*
X396801Y410630D02*
Y413629D01*
X397801Y412629D01*
X398801Y413629D01*
Y410630D01*
X401800D02*
X399800D01*
X401800Y412629D01*
Y413129D01*
X401300Y413629D01*
X400300D01*
X399800Y413129D01*
X507150Y408692D02*
X506650Y408192D01*
Y407193D01*
X507150Y406693D01*
X509149D01*
X509649Y407193D01*
Y408192D01*
X509149Y408692D01*
X509649Y409692D02*
Y410692D01*
Y410192D01*
X506650D01*
X507150Y409692D01*
Y412191D02*
X506650Y412691D01*
Y413691D01*
X507150Y414190D01*
X509149D01*
X509649Y413691D01*
Y412691D01*
X509149Y412191D01*
X507150D01*
Y415190D02*
X506650Y415690D01*
Y416690D01*
X507150Y417190D01*
X507650D01*
X508149Y416690D01*
X508649Y417190D01*
X509149D01*
X509649Y416690D01*
Y415690D01*
X509149Y415190D01*
X508649D01*
X508149Y415690D01*
X507650Y415190D01*
X507150D01*
X508149Y415690D02*
Y416690D01*
X490388Y355255D02*
X489888Y355755D01*
X488889D01*
X488389Y355255D01*
Y353256D01*
X488889Y352756D01*
X489888D01*
X490388Y353256D01*
X491388Y352756D02*
X492388D01*
X491888D01*
Y355755D01*
X491388Y355255D01*
X493887D02*
X494387Y355755D01*
X495387D01*
X495887Y355255D01*
Y353256D01*
X495387Y352756D01*
X494387D01*
X493887Y353256D01*
Y355255D01*
X496886Y355755D02*
X498886D01*
Y355255D01*
X496886Y353256D01*
Y352756D01*
X492849Y371791D02*
X492349Y372290D01*
X491350D01*
X490850Y371791D01*
Y369791D01*
X491350Y369291D01*
X492349D01*
X492849Y369791D01*
X493849Y369291D02*
X494848D01*
X494348D01*
Y372290D01*
X493849Y371791D01*
X496348D02*
X496848Y372290D01*
X497847D01*
X498347Y371791D01*
Y369791D01*
X497847Y369291D01*
X496848D01*
X496348Y369791D01*
Y371791D01*
X501346Y372290D02*
X499347D01*
Y370791D01*
X500347Y371291D01*
X500846D01*
X501346Y370791D01*
Y369791D01*
X500846Y369291D01*
X499847D01*
X499347Y369791D01*
X539699Y361456D02*
X539200Y361956D01*
X538200D01*
X537700Y361456D01*
Y359456D01*
X538200Y358957D01*
X539200D01*
X539699Y359456D01*
X540699Y358957D02*
X541699D01*
X541199D01*
Y361956D01*
X540699Y361456D01*
X543198D02*
X543698Y361956D01*
X544698D01*
X545198Y361456D01*
Y359456D01*
X544698Y358957D01*
X543698D01*
X543198Y359456D01*
Y361456D01*
X547697Y358957D02*
Y361956D01*
X546197Y360456D01*
X548197D01*
X553705Y369716D02*
X553205Y369216D01*
Y368216D01*
X553705Y367717D01*
X555704D01*
X556204Y368216D01*
Y369216D01*
X555704Y369716D01*
X556204Y370716D02*
Y371715D01*
Y371215D01*
X553205D01*
X553705Y370716D01*
Y373215D02*
X553205Y373715D01*
Y374714D01*
X553705Y375214D01*
X555704D01*
X556204Y374714D01*
Y373715D01*
X555704Y373215D01*
X553705D01*
Y376214D02*
X553205Y376714D01*
Y377713D01*
X553705Y378213D01*
X554205D01*
X554704Y377713D01*
Y377214D01*
Y377713D01*
X555204Y378213D01*
X555704D01*
X556204Y377713D01*
Y376714D01*
X555704Y376214D01*
X431657Y376409D02*
X431157Y375909D01*
Y374910D01*
X431657Y374410D01*
X433657D01*
X434156Y374910D01*
Y375909D01*
X433657Y376409D01*
X434156Y377409D02*
Y378409D01*
Y377909D01*
X431157D01*
X431657Y377409D01*
Y379908D02*
X431157Y380408D01*
Y381407D01*
X431657Y381907D01*
X433657D01*
X434156Y381407D01*
Y380408D01*
X433657Y379908D01*
X431657D01*
X434156Y384906D02*
Y382907D01*
X432157Y384906D01*
X431657D01*
X431157Y384406D01*
Y383407D01*
X431657Y382907D01*
X470506Y353680D02*
X470007Y354180D01*
X469007D01*
X468507Y353680D01*
Y351681D01*
X469007Y351181D01*
X470007D01*
X470506Y351681D01*
X471506Y351181D02*
X472506D01*
X472006D01*
Y354180D01*
X471506Y353680D01*
X474005D02*
X474505Y354180D01*
X475505D01*
X476005Y353680D01*
Y351681D01*
X475505Y351181D01*
X474505D01*
X474005Y351681D01*
Y353680D01*
X477004Y351181D02*
X478004D01*
X477504D01*
Y354180D01*
X477004Y353680D01*
X514827Y654606D02*
X514327Y654107D01*
Y653107D01*
X514827Y652607D01*
X516826D01*
X517326Y653107D01*
Y654107D01*
X516826Y654606D01*
Y655606D02*
X517326Y656106D01*
Y657106D01*
X516826Y657606D01*
X514827D01*
X514327Y657106D01*
Y656106D01*
X514827Y655606D01*
X515327D01*
X515827Y656106D01*
Y657606D01*
X514327Y660605D02*
X514827Y659605D01*
X515827Y658605D01*
X516826D01*
X517326Y659105D01*
Y660105D01*
X516826Y660605D01*
X516326D01*
X515827Y660105D01*
Y658605D01*
X163121Y343550D02*
X162122D01*
X162622D01*
Y341051D01*
X162122Y340551D01*
X161622D01*
X161122Y341051D01*
X164121Y343050D02*
X164621Y343550D01*
X165621D01*
X166120Y343050D01*
Y342550D01*
X165621Y342051D01*
X165121D01*
X165621D01*
X166120Y341551D01*
Y341051D01*
X165621Y340551D01*
X164621D01*
X164121Y341051D01*
X451072Y394733D02*
Y397732D01*
X452571D01*
X453071Y397232D01*
Y396233D01*
X452571Y395733D01*
X451072D01*
X452072D02*
X453071Y394733D01*
X455571D02*
Y397732D01*
X454071Y396233D01*
X456070D01*
X457070Y397232D02*
X457570Y397732D01*
X458569D01*
X459069Y397232D01*
Y395233D01*
X458569Y394733D01*
X457570D01*
X457070Y395233D01*
Y397232D01*
X308105Y574645D02*
X307605Y575145D01*
X306606D01*
X306106Y574645D01*
Y572646D01*
X306606Y572146D01*
X307605D01*
X308105Y572646D01*
X309105Y572146D02*
X310105D01*
X309605D01*
Y575145D01*
X309105Y574645D01*
X311604D02*
X312104Y575145D01*
X313104D01*
X313603Y574645D01*
Y572646D01*
X313104Y572146D01*
X312104D01*
X311604Y572646D01*
Y574645D01*
X314603D02*
X315103Y575145D01*
X316103D01*
X316602Y574645D01*
Y572646D01*
X316103Y572146D01*
X315103D01*
X314603Y572646D01*
Y574645D01*
X438026Y397480D02*
X437526Y397979D01*
X436527D01*
X436027Y397480D01*
Y395480D01*
X436527Y394980D01*
X437526D01*
X438026Y395480D01*
X439026D02*
X439526Y394980D01*
X440525D01*
X441025Y395480D01*
Y397480D01*
X440525Y397979D01*
X439526D01*
X439026Y397480D01*
Y396980D01*
X439526Y396480D01*
X441025D01*
X442025Y395480D02*
X442525Y394980D01*
X443524D01*
X444024Y395480D01*
Y397480D01*
X443524Y397979D01*
X442525D01*
X442025Y397480D01*
Y396980D01*
X442525Y396480D01*
X444024D01*
X375443Y438465D02*
X374943Y437965D01*
Y436965D01*
X375443Y436465D01*
X377442D01*
X377942Y436965D01*
Y437965D01*
X377442Y438465D01*
X374943Y441464D02*
Y439464D01*
X376443D01*
X375943Y440464D01*
Y440964D01*
X376443Y441464D01*
X377442D01*
X377942Y440964D01*
Y439964D01*
X377442Y439464D01*
X377942Y443963D02*
X374943D01*
X376443Y442463D01*
Y444463D01*
X264911Y436890D02*
X264411Y436390D01*
Y435390D01*
X264911Y434891D01*
X266911D01*
X267411Y435390D01*
Y436390D01*
X266911Y436890D01*
X264911Y437890D02*
X264411Y438389D01*
Y439389D01*
X264911Y439889D01*
X265411D01*
X265911Y439389D01*
Y438889D01*
Y439389D01*
X266411Y439889D01*
X266911D01*
X267411Y439389D01*
Y438389D01*
X266911Y437890D01*
X264411Y442888D02*
X264911Y441888D01*
X265911Y440889D01*
X266911D01*
X267411Y441389D01*
Y442388D01*
X266911Y442888D01*
X266411D01*
X265911Y442388D01*
Y440889D01*
X377661Y642028D02*
X374662D01*
Y643527D01*
X375162Y644027D01*
X376161D01*
X376661Y643527D01*
Y642028D01*
Y643027D02*
X377661Y644027D01*
Y645027D02*
Y646026D01*
Y645526D01*
X374662D01*
X375162Y645027D01*
X377661Y649525D02*
Y647526D01*
X375661Y649525D01*
X375162D01*
X374662Y649025D01*
Y648026D01*
X375162Y647526D01*
X359550Y637894D02*
Y640893D01*
X361050D01*
X361550Y640393D01*
Y639393D01*
X361050Y638893D01*
X359550D01*
X360550D02*
X361550Y637894D01*
X362549D02*
X363549D01*
X363049D01*
Y640893D01*
X362549Y640393D01*
X365049D02*
X365548Y640893D01*
X366548D01*
X367048Y640393D01*
Y639893D01*
X366548Y639393D01*
X366048D01*
X366548D01*
X367048Y638893D01*
Y638393D01*
X366548Y637894D01*
X365548D01*
X365049Y638393D01*
X382779Y644882D02*
X379780D01*
Y646381D01*
X380280Y646881D01*
X381279D01*
X381779Y646381D01*
Y644882D01*
Y645882D02*
X382779Y646881D01*
Y647881D02*
Y648881D01*
Y648381D01*
X379780D01*
X380280Y647881D01*
X382779Y650380D02*
Y651380D01*
Y650880D01*
X379780D01*
X380280Y650380D01*
X361550Y653483D02*
X361050Y653983D01*
X360050D01*
X359550Y653483D01*
Y651484D01*
X360050Y650984D01*
X361050D01*
X361550Y651484D01*
X362549Y650984D02*
X363549D01*
X363049D01*
Y653983D01*
X362549Y653483D01*
X366548Y650984D02*
Y653983D01*
X365049Y652484D01*
X367048D01*
X397307Y650227D02*
X396808Y649728D01*
Y648728D01*
X397307Y648228D01*
X399307D01*
X399807Y648728D01*
Y649728D01*
X399307Y650227D01*
X399807Y651227D02*
Y652227D01*
Y651727D01*
X396808D01*
X397307Y651227D01*
X396808Y655726D02*
Y653726D01*
X398307D01*
X397807Y654726D01*
Y655226D01*
X398307Y655726D01*
X399307D01*
X399807Y655226D01*
Y654226D01*
X399307Y653726D01*
X379984Y665385D02*
X379485Y664885D01*
Y663886D01*
X379984Y663386D01*
X381984D01*
X382484Y663886D01*
Y664885D01*
X381984Y665385D01*
X382484Y666385D02*
Y667384D01*
Y666885D01*
X379485D01*
X379984Y666385D01*
Y668884D02*
X379485Y669384D01*
Y670384D01*
X379984Y670883D01*
X380484D01*
X380984Y670384D01*
Y669884D01*
Y670384D01*
X381484Y670883D01*
X381984D01*
X382484Y670384D01*
Y669384D01*
X381984Y668884D01*
X413912Y659487D02*
X413412Y659987D01*
X412413D01*
X411913Y659487D01*
Y657488D01*
X412413Y656988D01*
X413412D01*
X413912Y657488D01*
X414912Y659987D02*
X416911D01*
Y659487D01*
X414912Y657488D01*
Y656988D01*
X419910D02*
X417911D01*
X419910Y658988D01*
Y659487D01*
X419410Y659987D01*
X418410D01*
X417911Y659487D01*
X430870Y721733D02*
X430370Y721233D01*
Y720233D01*
X430870Y719733D01*
X432869D01*
X433369Y720233D01*
Y721233D01*
X432869Y721733D01*
X430370Y724731D02*
X430870Y723732D01*
X431870Y722732D01*
X432869D01*
X433369Y723232D01*
Y724232D01*
X432869Y724731D01*
X432370D01*
X431870Y724232D01*
Y722732D01*
X433369Y727231D02*
X430370D01*
X431870Y725731D01*
Y727731D01*
X484188Y703779D02*
X483688Y704279D01*
X482688D01*
X482188Y703779D01*
Y701779D01*
X482688Y701279D01*
X483688D01*
X484188Y701779D01*
X485187Y703779D02*
X485687Y704279D01*
X486687D01*
X487187Y703779D01*
Y703279D01*
X486687Y702779D01*
X487187Y702279D01*
Y701779D01*
X486687Y701279D01*
X485687D01*
X485187Y701779D01*
Y702279D01*
X485687Y702779D01*
X485187Y703279D01*
Y703779D01*
X485687Y702779D02*
X486687D01*
X489686Y701279D02*
Y704279D01*
X488186Y702779D01*
X490186D01*
X496294Y695806D02*
X495794Y696306D01*
X494794D01*
X494295Y695806D01*
Y693807D01*
X494794Y693307D01*
X495794D01*
X496294Y693807D01*
X497294Y695806D02*
X497793Y696306D01*
X498793D01*
X499293Y695806D01*
Y695306D01*
X498793Y694807D01*
X499293Y694307D01*
Y693807D01*
X498793Y693307D01*
X497793D01*
X497294Y693807D01*
Y694307D01*
X497793Y694807D01*
X497294Y695306D01*
Y695806D01*
X497793Y694807D02*
X498793D01*
X500293Y695806D02*
X500792Y696306D01*
X501792D01*
X502292Y695806D01*
Y695306D01*
X501792Y694807D01*
X501292D01*
X501792D01*
X502292Y694307D01*
Y693807D01*
X501792Y693307D01*
X500792D01*
X500293Y693807D01*
X449148Y718886D02*
X448648Y719386D01*
X447649D01*
X447149Y718886D01*
Y716887D01*
X447649Y716387D01*
X448648D01*
X449148Y716887D01*
X450148Y719386D02*
X452147D01*
Y718886D01*
X450148Y716887D01*
Y716387D01*
X453147Y716887D02*
X453647Y716387D01*
X454646D01*
X455146Y716887D01*
Y718886D01*
X454646Y719386D01*
X453647D01*
X453147Y718886D01*
Y718386D01*
X453647Y717886D01*
X455146D01*
X437071Y716319D02*
X436571Y715819D01*
Y714820D01*
X437071Y714320D01*
X439070D01*
X439570Y714820D01*
Y715819D01*
X439070Y716319D01*
X436571Y719318D02*
X437071Y718318D01*
X438071Y717319D01*
X439070D01*
X439570Y717819D01*
Y718818D01*
X439070Y719318D01*
X438570D01*
X438071Y718818D01*
Y717319D01*
X437071Y720318D02*
X436571Y720818D01*
Y721817D01*
X437071Y722317D01*
X437571D01*
X438071Y721817D01*
Y721317D01*
Y721817D01*
X438570Y722317D01*
X439070D01*
X439570Y721817D01*
Y720818D01*
X439070Y720318D01*
X391992Y632610D02*
X391492Y632110D01*
Y631110D01*
X391992Y630610D01*
X393991D01*
X394491Y631110D01*
Y632110D01*
X393991Y632610D01*
X394491Y635609D02*
Y633609D01*
X392492Y635609D01*
X391992D01*
X391492Y635109D01*
Y634109D01*
X391992Y633609D01*
Y636608D02*
X391492Y637108D01*
Y638108D01*
X391992Y638608D01*
X392492D01*
X392992Y638108D01*
Y637608D01*
Y638108D01*
X393492Y638608D01*
X393991D01*
X394491Y638108D01*
Y637108D01*
X393991Y636608D01*
X266676Y429082D02*
X269675D01*
Y431082D01*
Y432082D02*
Y433081D01*
Y432581D01*
X266676D01*
X267176Y432082D01*
X219705Y464161D02*
X219205Y464661D01*
X218206D01*
X217706Y464161D01*
Y462162D01*
X218206Y461662D01*
X219205D01*
X219705Y462162D01*
X222704Y461662D02*
X220705D01*
X222704Y463662D01*
Y464161D01*
X222204Y464661D01*
X221205D01*
X220705Y464161D01*
X223704Y464661D02*
X225703D01*
Y464161D01*
X223704Y462162D01*
Y461662D01*
X312225Y437093D02*
X311725Y437593D01*
X310726D01*
X310226Y437093D01*
Y435094D01*
X310726Y434594D01*
X311725D01*
X312225Y435094D01*
X315224Y434594D02*
X313225D01*
X315224Y436594D01*
Y437093D01*
X314724Y437593D01*
X313725D01*
X313225Y437093D01*
X316224D02*
X316724Y437593D01*
X317723D01*
X318223Y437093D01*
Y436594D01*
X317723Y436094D01*
X318223Y435594D01*
Y435094D01*
X317723Y434594D01*
X316724D01*
X316224Y435094D01*
Y435594D01*
X316724Y436094D01*
X316224Y436594D01*
Y437093D01*
X316724Y436094D02*
X317723D01*
X334301Y425866D02*
X333801Y425366D01*
Y424367D01*
X334301Y423867D01*
X336300D01*
X336800Y424367D01*
Y425366D01*
X336300Y425866D01*
X336800Y428865D02*
Y426866D01*
X334801Y428865D01*
X334301D01*
X333801Y428366D01*
Y427366D01*
X334301Y426866D01*
X336300Y429865D02*
X336800Y430365D01*
Y431364D01*
X336300Y431864D01*
X334301D01*
X333801Y431364D01*
Y430365D01*
X334301Y429865D01*
X334801D01*
X335301Y430365D01*
Y431864D01*
X319902Y381386D02*
X319402Y381886D01*
X318403D01*
X317903Y381386D01*
Y379386D01*
X318403Y378887D01*
X319402D01*
X319902Y379386D01*
X320902Y381386D02*
X321402Y381886D01*
X322401D01*
X322901Y381386D01*
Y380886D01*
X322401Y380386D01*
X321901D01*
X322401D01*
X322901Y379886D01*
Y379386D01*
X322401Y378887D01*
X321402D01*
X320902Y379386D01*
X323901Y378887D02*
X324900D01*
X324401D01*
Y381886D01*
X323901Y381386D01*
X279281Y513957D02*
X278782Y513457D01*
Y512457D01*
X279281Y511958D01*
X281281D01*
X281781Y512457D01*
Y513457D01*
X281281Y513957D01*
X279281Y514957D02*
X278782Y515456D01*
Y516456D01*
X279281Y516956D01*
X279781D01*
X280281Y516456D01*
Y515956D01*
Y516456D01*
X280781Y516956D01*
X281281D01*
X281781Y516456D01*
Y515456D01*
X281281Y514957D01*
X281781Y519955D02*
Y517956D01*
X279781Y519955D01*
X279281D01*
X278782Y519455D01*
Y518455D01*
X279281Y517956D01*
X272953Y524988D02*
X272453Y525488D01*
X271454D01*
X270954Y524988D01*
Y522989D01*
X271454Y522489D01*
X272453D01*
X272953Y522989D01*
X273953Y524988D02*
X274453Y525488D01*
X275452D01*
X275952Y524988D01*
Y524488D01*
X275452Y523988D01*
X274953D01*
X275452D01*
X275952Y523489D01*
Y522989D01*
X275452Y522489D01*
X274453D01*
X273953Y522989D01*
X276952Y524988D02*
X277452Y525488D01*
X278451D01*
X278951Y524988D01*
Y524488D01*
X278451Y523988D01*
X277952D01*
X278451D01*
X278951Y523489D01*
Y522989D01*
X278451Y522489D01*
X277452D01*
X276952Y522989D01*
X221772Y453827D02*
X221272Y454327D01*
X220273D01*
X219773Y453827D01*
Y451827D01*
X220273Y451328D01*
X221272D01*
X221772Y451827D01*
X222772Y453827D02*
X223272Y454327D01*
X224271D01*
X224771Y453827D01*
Y453327D01*
X224271Y452827D01*
X223772D01*
X224271D01*
X224771Y452327D01*
Y451827D01*
X224271Y451328D01*
X223272D01*
X222772Y451827D01*
X227270Y451328D02*
Y454327D01*
X225771Y452827D01*
X227770D01*
X219227Y444920D02*
X218727Y445420D01*
X217727D01*
X217228Y444920D01*
Y442921D01*
X217727Y442421D01*
X218727D01*
X219227Y442921D01*
X220227Y444920D02*
X220726Y445420D01*
X221726D01*
X222226Y444920D01*
Y444421D01*
X221726Y443921D01*
X221226D01*
X221726D01*
X222226Y443421D01*
Y442921D01*
X221726Y442421D01*
X220726D01*
X220227Y442921D01*
X225225Y445420D02*
X223226D01*
Y443921D01*
X224225Y444421D01*
X224725D01*
X225225Y443921D01*
Y442921D01*
X224725Y442421D01*
X223726D01*
X223226Y442921D01*
X291683Y468288D02*
X291183Y467788D01*
Y466788D01*
X291683Y466288D01*
X293682D01*
X294182Y466788D01*
Y467788D01*
X293682Y468288D01*
X291683Y469287D02*
X291183Y469787D01*
Y470787D01*
X291683Y471287D01*
X292183D01*
X292683Y470787D01*
Y470287D01*
Y470787D01*
X293182Y471287D01*
X293682D01*
X294182Y470787D01*
Y469787D01*
X293682Y469287D01*
X291683Y472286D02*
X291183Y472786D01*
Y473786D01*
X291683Y474286D01*
X292183D01*
X292683Y473786D01*
X293182Y474286D01*
X293682D01*
X294182Y473786D01*
Y472786D01*
X293682Y472286D01*
X293182D01*
X292683Y472786D01*
X292183Y472286D01*
X291683D01*
X292683Y472786D02*
Y473786D01*
X288898Y480499D02*
X288399Y480999D01*
X287399D01*
X286899Y480499D01*
Y478500D01*
X287399Y478000D01*
X288399D01*
X288898Y478500D01*
X289898Y480499D02*
X290398Y480999D01*
X291398D01*
X291897Y480499D01*
Y479999D01*
X291398Y479499D01*
X290898D01*
X291398D01*
X291897Y479000D01*
Y478500D01*
X291398Y478000D01*
X290398D01*
X289898Y478500D01*
X292897D02*
X293397Y478000D01*
X294397D01*
X294897Y478500D01*
Y480499D01*
X294397Y480999D01*
X293397D01*
X292897Y480499D01*
Y479999D01*
X293397Y479499D01*
X294897D01*
X289292Y463473D02*
X288792Y463972D01*
X287792D01*
X287292Y463473D01*
Y461473D01*
X287792Y460973D01*
X288792D01*
X289292Y461473D01*
X290292Y463473D02*
X290791Y463972D01*
X291791D01*
X292291Y463473D01*
Y462973D01*
X291791Y462473D01*
X291291D01*
X291791D01*
X292291Y461973D01*
Y461473D01*
X291791Y460973D01*
X290791D01*
X290292Y461473D01*
X293290Y463972D02*
X295290D01*
Y463473D01*
X293290Y461473D01*
Y460973D01*
X305955Y467696D02*
X305455Y467196D01*
Y466196D01*
X305955Y465697D01*
X307954D01*
X308454Y466196D01*
Y467196D01*
X307954Y467696D01*
X308454Y470195D02*
X305455D01*
X306955Y468696D01*
Y470695D01*
X305955Y471695D02*
X305455Y472195D01*
Y473194D01*
X305955Y473694D01*
X306455D01*
X306955Y473194D01*
X307454Y473694D01*
X307954D01*
X308454Y473194D01*
Y472195D01*
X307954Y471695D01*
X307454D01*
X306955Y472195D01*
X306455Y471695D01*
X305955D01*
X306955Y472195D02*
Y473194D01*
X367878Y521783D02*
X367378Y521283D01*
Y520283D01*
X367878Y519783D01*
X369877D01*
X370377Y520283D01*
Y521283D01*
X369877Y521783D01*
X367378Y524782D02*
Y522783D01*
X368878D01*
X368378Y523782D01*
Y524282D01*
X368878Y524782D01*
X369877D01*
X370377Y524282D01*
Y523282D01*
X369877Y522783D01*
X370377Y525781D02*
Y526781D01*
Y526281D01*
X367378D01*
X367878Y525781D01*
X361073Y423209D02*
X360573Y422709D01*
Y421709D01*
X361073Y421209D01*
X363072D01*
X363572Y421709D01*
Y422709D01*
X363072Y423209D01*
X360573Y426208D02*
Y424208D01*
X362072D01*
X361573Y425208D01*
Y425708D01*
X362072Y426208D01*
X363072D01*
X363572Y425708D01*
Y424708D01*
X363072Y424208D01*
X363572Y429207D02*
Y427208D01*
X361573Y429207D01*
X361073D01*
X360573Y428707D01*
Y427707D01*
X361073Y427208D01*
X347786Y417499D02*
X347286Y416999D01*
Y416000D01*
X347786Y415500D01*
X349785D01*
X350285Y416000D01*
Y416999D01*
X349785Y417499D01*
X347286Y420498D02*
Y418499D01*
X348785D01*
X348286Y419499D01*
Y419998D01*
X348785Y420498D01*
X349785D01*
X350285Y419998D01*
Y418999D01*
X349785Y418499D01*
X347786Y421498D02*
X347286Y421998D01*
Y422997D01*
X347786Y423497D01*
X348286D01*
X348785Y422997D01*
Y422498D01*
Y422997D01*
X349285Y423497D01*
X349785D01*
X350285Y422997D01*
Y421998D01*
X349785Y421498D01*
X382908Y482519D02*
X382408Y483019D01*
X381409D01*
X380909Y482519D01*
Y480519D01*
X381409Y480020D01*
X382408D01*
X382908Y480519D01*
X385907Y483019D02*
X383908D01*
Y481519D01*
X384907Y482019D01*
X385407D01*
X385907Y481519D01*
Y480519D01*
X385407Y480020D01*
X384408D01*
X383908Y480519D01*
X386907Y483019D02*
X388906D01*
Y482519D01*
X386907Y480519D01*
Y480020D01*
X386845Y465688D02*
X386345Y466188D01*
X385346D01*
X384846Y465688D01*
Y463689D01*
X385346Y463189D01*
X386345D01*
X386845Y463689D01*
X389844Y466188D02*
X387845D01*
Y464688D01*
X388844Y465188D01*
X389344D01*
X389844Y464688D01*
Y463689D01*
X389344Y463189D01*
X388345D01*
X387845Y463689D01*
X392843Y466188D02*
X391843Y465688D01*
X390844Y464688D01*
Y463689D01*
X391344Y463189D01*
X392343D01*
X392843Y463689D01*
Y464189D01*
X392343Y464688D01*
X390844D01*
X363055Y475031D02*
X362555Y474531D01*
Y473531D01*
X363055Y473032D01*
X365054D01*
X365554Y473531D01*
Y474531D01*
X365054Y475031D01*
X362555Y478030D02*
Y476030D01*
X364055D01*
X363555Y477030D01*
Y477530D01*
X364055Y478030D01*
X365054D01*
X365554Y477530D01*
Y476530D01*
X365054Y476030D01*
X362555Y481029D02*
Y479030D01*
X364055D01*
X363555Y480029D01*
Y480529D01*
X364055Y481029D01*
X365054D01*
X365554Y480529D01*
Y479529D01*
X365054Y479030D01*
X237943Y460019D02*
X237443Y459519D01*
Y458519D01*
X237943Y458019D01*
X239943D01*
X240442Y458519D01*
Y459519D01*
X239943Y460019D01*
X240442Y463018D02*
Y461019D01*
X238443Y463018D01*
X237943D01*
X237443Y462518D01*
Y461518D01*
X237943Y461019D01*
X240442Y465517D02*
X237443D01*
X238943Y464018D01*
Y466017D01*
X255016Y487011D02*
X254683Y486678D01*
Y486011D01*
X255016Y485678D01*
X256349D01*
X256682Y486011D01*
Y486678D01*
X256349Y487011D01*
X256682Y489010D02*
Y487677D01*
X255349Y489010D01*
X255016D01*
X254683Y488677D01*
Y488011D01*
X255016Y487677D01*
X254683Y491010D02*
Y489677D01*
X255682D01*
X255349Y490343D01*
Y490676D01*
X255682Y491010D01*
X256349D01*
X256682Y490676D01*
Y490010D01*
X256349Y489677D01*
X260331Y487208D02*
X259998Y486874D01*
Y486208D01*
X260331Y485875D01*
X261664D01*
X261997Y486208D01*
Y486874D01*
X261664Y487208D01*
X261997Y489207D02*
Y487874D01*
X260664Y489207D01*
X260331D01*
X259998Y488874D01*
Y488207D01*
X260331Y487874D01*
X259998Y491206D02*
X260331Y490540D01*
X260998Y489874D01*
X261664D01*
X261997Y490207D01*
Y490873D01*
X261664Y491206D01*
X261331D01*
X260998Y490873D01*
Y489874D01*
X286339Y490441D02*
X285839Y490941D01*
X284840D01*
X284340Y490441D01*
Y488442D01*
X284840Y487942D01*
X285839D01*
X286339Y488442D01*
X287339Y490441D02*
X287839Y490941D01*
X288838D01*
X289338Y490441D01*
Y489941D01*
X288838Y489441D01*
X288338D01*
X288838D01*
X289338Y488941D01*
Y488442D01*
X288838Y487942D01*
X287839D01*
X287339Y488442D01*
X290338Y490441D02*
X290838Y490941D01*
X291837D01*
X292337Y490441D01*
Y488442D01*
X291837Y487942D01*
X290838D01*
X290338Y488442D01*
Y490441D01*
X368243Y487145D02*
X367743Y487645D01*
X366743D01*
X366243Y487145D01*
Y485146D01*
X366743Y484646D01*
X367743D01*
X368243Y485146D01*
X370742Y484646D02*
Y487645D01*
X369242Y486145D01*
X371242D01*
X372241Y485146D02*
X372741Y484646D01*
X373741D01*
X374241Y485146D01*
Y487145D01*
X373741Y487645D01*
X372741D01*
X372241Y487145D01*
Y486645D01*
X372741Y486145D01*
X374241D01*
X273783Y583003D02*
X273284Y582504D01*
Y581504D01*
X273783Y581004D01*
X275783D01*
X276283Y581504D01*
Y582504D01*
X275783Y583003D01*
Y584003D02*
X276283Y584503D01*
Y585502D01*
X275783Y586002D01*
X273783D01*
X273284Y585502D01*
Y584503D01*
X273783Y584003D01*
X274283D01*
X274783Y584503D01*
Y586002D01*
X284301Y580984D02*
X283801Y580485D01*
Y579485D01*
X284301Y578985D01*
X286300D01*
X286800Y579485D01*
Y580485D01*
X286300Y580984D01*
X286800Y581984D02*
Y582984D01*
Y582484D01*
X283801D01*
X284301Y581984D01*
Y584483D02*
X283801Y584983D01*
Y585983D01*
X284301Y586483D01*
X286300D01*
X286800Y585983D01*
Y584983D01*
X286300Y584483D01*
X284301D01*
X288927Y582067D02*
X288427Y581567D01*
Y580568D01*
X288927Y580068D01*
X290927D01*
X291426Y580568D01*
Y581567D01*
X290927Y582067D01*
X291426Y583067D02*
Y584066D01*
Y583567D01*
X288427D01*
X288927Y583067D01*
X291426Y585566D02*
Y586566D01*
Y586066D01*
X288427D01*
X288927Y585566D01*
X356235Y572184D02*
X355735Y572684D01*
X354735D01*
X354236Y572184D01*
Y570185D01*
X354735Y569685D01*
X355735D01*
X356235Y570185D01*
X357235Y569685D02*
X358234D01*
X357734D01*
Y572684D01*
X357235Y572184D01*
X359734Y572684D02*
X361733D01*
Y572184D01*
X359734Y570185D01*
Y569685D01*
X298179Y580886D02*
X297679Y580386D01*
Y579387D01*
X298179Y578887D01*
X300178D01*
X300678Y579387D01*
Y580386D01*
X300178Y580886D01*
X300678Y581886D02*
Y582885D01*
Y582385D01*
X297679D01*
X298179Y581886D01*
Y584385D02*
X297679Y584885D01*
Y585884D01*
X298179Y586384D01*
X298679D01*
X299179Y585884D01*
X299679Y586384D01*
X300178D01*
X300678Y585884D01*
Y584885D01*
X300178Y584385D01*
X299679D01*
X299179Y584885D01*
X298679Y584385D01*
X298179D01*
X299179Y584885D02*
Y585884D01*
X325723Y648464D02*
X325223Y648964D01*
X324223D01*
X323724Y648464D01*
Y646464D01*
X324223Y645965D01*
X325223D01*
X325723Y646464D01*
X328722Y645965D02*
X326723D01*
X328722Y647964D01*
Y648464D01*
X328222Y648964D01*
X327222D01*
X326723Y648464D01*
X329722D02*
X330222Y648964D01*
X331221D01*
X331721Y648464D01*
Y646464D01*
X331221Y645965D01*
X330222D01*
X329722Y646464D01*
Y648464D01*
X325161Y554658D02*
X324661Y554158D01*
Y553158D01*
X325161Y552659D01*
X327161D01*
X327660Y553158D01*
Y554158D01*
X327161Y554658D01*
X327660Y557657D02*
Y555657D01*
X325661Y557657D01*
X325161D01*
X324661Y557157D01*
Y556157D01*
X325161Y555657D01*
X327660Y558657D02*
Y559656D01*
Y559156D01*
X324661D01*
X325161Y558657D01*
X346323Y550622D02*
X345823Y550122D01*
Y549123D01*
X346323Y548623D01*
X348322D01*
X348822Y549123D01*
Y550122D01*
X348322Y550622D01*
X348822Y553621D02*
Y551622D01*
X346823Y553621D01*
X346323D01*
X345823Y553121D01*
Y552122D01*
X346323Y551622D01*
X348822Y556620D02*
Y554621D01*
X346823Y556620D01*
X346323D01*
X345823Y556120D01*
Y555121D01*
X346323Y554621D01*
X415093Y692606D02*
X414594Y693106D01*
X413594D01*
X413094Y692606D01*
Y690607D01*
X413594Y690107D01*
X414594D01*
X415093Y690607D01*
X418092Y693106D02*
X416093D01*
Y691606D01*
X417093Y692106D01*
X417593D01*
X418092Y691606D01*
Y690607D01*
X417593Y690107D01*
X416593D01*
X416093Y690607D01*
X419092Y692606D02*
X419592Y693106D01*
X420592D01*
X421092Y692606D01*
Y692106D01*
X420592Y691606D01*
X421092Y691107D01*
Y690607D01*
X420592Y690107D01*
X419592D01*
X419092Y690607D01*
Y691107D01*
X419592Y691606D01*
X419092Y692106D01*
Y692606D01*
X419592Y691606D02*
X420592D01*
X429463Y705421D02*
X428963Y705921D01*
X427964D01*
X427464Y705421D01*
Y703421D01*
X427964Y702921D01*
X428963D01*
X429463Y703421D01*
X432462Y705921D02*
X430463D01*
Y704421D01*
X431462Y704921D01*
X431962D01*
X432462Y704421D01*
Y703421D01*
X431962Y702921D01*
X430963D01*
X430463Y703421D01*
X433462D02*
X433962Y702921D01*
X434961D01*
X435461Y703421D01*
Y705421D01*
X434961Y705921D01*
X433962D01*
X433462Y705421D01*
Y704921D01*
X433962Y704421D01*
X435461D01*
X460693Y721142D02*
X460193Y720642D01*
Y719642D01*
X460693Y719143D01*
X462692D01*
X463192Y719642D01*
Y720642D01*
X462692Y721142D01*
X460193Y724141D02*
X460693Y723141D01*
X461693Y722142D01*
X462692D01*
X463192Y722641D01*
Y723641D01*
X462692Y724141D01*
X462192D01*
X461693Y723641D01*
Y722142D01*
X463192Y725141D02*
Y726140D01*
Y725640D01*
X460193D01*
X460693Y725141D01*
X469748Y711594D02*
X469249Y711095D01*
Y710095D01*
X469748Y709595D01*
X471748D01*
X472248Y710095D01*
Y711095D01*
X471748Y711594D01*
X469249Y714593D02*
X469748Y713594D01*
X470748Y712594D01*
X471748D01*
X472248Y713094D01*
Y714093D01*
X471748Y714593D01*
X471248D01*
X470748Y714093D01*
Y712594D01*
X472248Y717592D02*
Y715593D01*
X470248Y717592D01*
X469748D01*
X469249Y717093D01*
Y716093D01*
X469748Y715593D01*
X441395Y685474D02*
X441062Y685807D01*
X440395D01*
X440062Y685474D01*
Y684141D01*
X440395Y683808D01*
X441062D01*
X441395Y684141D01*
X443395Y685807D02*
X442728Y685474D01*
X442062Y684808D01*
Y684141D01*
X442395Y683808D01*
X443061D01*
X443395Y684141D01*
Y684474D01*
X443061Y684808D01*
X442062D01*
X444061Y685807D02*
X445394D01*
Y685474D01*
X444061Y684141D01*
Y683808D01*
X409483Y674890D02*
X408983Y675389D01*
X407984D01*
X407484Y674890D01*
Y672890D01*
X407984Y672390D01*
X408983D01*
X409483Y672890D01*
X412482Y675389D02*
X411482Y674890D01*
X410483Y673890D01*
Y672890D01*
X410983Y672390D01*
X411982D01*
X412482Y672890D01*
Y673390D01*
X411982Y673890D01*
X410483D01*
X413482Y674890D02*
X413982Y675389D01*
X414981D01*
X415481Y674890D01*
Y674390D01*
X414981Y673890D01*
X415481Y673390D01*
Y672890D01*
X414981Y672390D01*
X413982D01*
X413482Y672890D01*
Y673390D01*
X413982Y673890D01*
X413482Y674390D01*
Y674890D01*
X413982Y673890D02*
X414981D01*
X408893Y680500D02*
X408393Y681000D01*
X407393D01*
X406893Y680500D01*
Y678500D01*
X407393Y678000D01*
X408393D01*
X408893Y678500D01*
X411892Y681000D02*
X410892Y680500D01*
X409892Y679500D01*
Y678500D01*
X410392Y678000D01*
X411392D01*
X411892Y678500D01*
Y679000D01*
X411392Y679500D01*
X409892D01*
X412891Y678500D02*
X413391Y678000D01*
X414391D01*
X414891Y678500D01*
Y680500D01*
X414391Y681000D01*
X413391D01*
X412891Y680500D01*
Y680000D01*
X413391Y679500D01*
X414891D01*
X438420Y673857D02*
X437920Y674357D01*
X436920D01*
X436420Y673857D01*
Y671858D01*
X436920Y671358D01*
X437920D01*
X438420Y671858D01*
X439420Y674357D02*
X441419D01*
Y673857D01*
X439420Y671858D01*
Y671358D01*
X442419Y673857D02*
X442918Y674357D01*
X443918D01*
X444418Y673857D01*
Y671858D01*
X443918Y671358D01*
X442918D01*
X442419Y671858D01*
Y673857D01*
X449374Y651310D02*
X448874Y650810D01*
Y649811D01*
X449374Y649311D01*
X451373D01*
X451873Y649811D01*
Y650810D01*
X451373Y651310D01*
X448874Y652310D02*
Y654309D01*
X449374D01*
X451373Y652310D01*
X451873D01*
X449374Y655309D02*
X448874Y655809D01*
Y656809D01*
X449374Y657308D01*
X449874D01*
X450374Y656809D01*
Y656309D01*
Y656809D01*
X450874Y657308D01*
X451373D01*
X451873Y656809D01*
Y655809D01*
X451373Y655309D01*
X438547Y649637D02*
X438048Y649137D01*
Y648138D01*
X438547Y647638D01*
X440547D01*
X441046Y648138D01*
Y649137D01*
X440547Y649637D01*
X438048Y650637D02*
Y652636D01*
X438547D01*
X440547Y650637D01*
X441046D01*
Y655135D02*
X438048D01*
X439547Y653636D01*
Y655635D01*
X442878Y650818D02*
X442378Y650318D01*
Y649319D01*
X442878Y648819D01*
X444877D01*
X445377Y649319D01*
Y650318D01*
X444877Y650818D01*
X442378Y651818D02*
Y653817D01*
X442878D01*
X444877Y651818D01*
X445377D01*
X442378Y656816D02*
Y654817D01*
X443878D01*
X443378Y655817D01*
Y656317D01*
X443878Y656816D01*
X444877D01*
X445377Y656317D01*
Y655317D01*
X444877Y654817D01*
X455280Y651015D02*
X454780Y650515D01*
Y649516D01*
X455280Y649016D01*
X457279D01*
X457779Y649516D01*
Y650515D01*
X457279Y651015D01*
X454780Y652015D02*
Y654014D01*
X455280D01*
X457279Y652015D01*
X457779D01*
X454780Y657013D02*
X455280Y656013D01*
X456279Y655014D01*
X457279D01*
X457779Y655514D01*
Y656513D01*
X457279Y657013D01*
X456779D01*
X456279Y656513D01*
Y655014D01*
X461747Y658011D02*
X461247Y658511D01*
X460247D01*
X459747Y658011D01*
Y656012D01*
X460247Y655512D01*
X461247D01*
X461747Y656012D01*
X462746Y658511D02*
X464746D01*
Y658011D01*
X462746Y656012D01*
Y655512D01*
X465745Y658511D02*
X467745D01*
Y658011D01*
X465745Y656012D01*
Y655512D01*
X461943Y653976D02*
X461444Y654475D01*
X460444D01*
X459944Y653976D01*
Y651976D01*
X460444Y651476D01*
X461444D01*
X461943Y651976D01*
X462943Y654475D02*
X464943D01*
Y653976D01*
X462943Y651976D01*
Y651476D01*
X465942Y653976D02*
X466442Y654475D01*
X467442D01*
X467942Y653976D01*
Y653476D01*
X467442Y652976D01*
X467942Y652476D01*
Y651976D01*
X467442Y651476D01*
X466442D01*
X465942Y651976D01*
Y652476D01*
X466442Y652976D01*
X465942Y653476D01*
Y653976D01*
X466442Y652976D02*
X467442D01*
X481235Y678827D02*
X480735Y679326D01*
X479736D01*
X479236Y678827D01*
Y676827D01*
X479736Y676327D01*
X480735D01*
X481235Y676827D01*
X482235Y678827D02*
X482735Y679326D01*
X483734D01*
X484234Y678827D01*
Y678327D01*
X483734Y677827D01*
X484234Y677327D01*
Y676827D01*
X483734Y676327D01*
X482735D01*
X482235Y676827D01*
Y677327D01*
X482735Y677827D01*
X482235Y678327D01*
Y678827D01*
X482735Y677827D02*
X483734D01*
X485234Y676327D02*
X486234D01*
X485734D01*
Y679326D01*
X485234Y678827D01*
X468462Y678289D02*
X468129Y678622D01*
X467462D01*
X467129Y678289D01*
Y676956D01*
X467462Y676623D01*
X468129D01*
X468462Y676956D01*
X469129Y678289D02*
X469462Y678622D01*
X470128D01*
X470461Y678289D01*
Y677956D01*
X470128Y677623D01*
X470461Y677289D01*
Y676956D01*
X470128Y676623D01*
X469462D01*
X469129Y676956D01*
Y677289D01*
X469462Y677623D01*
X469129Y677956D01*
Y678289D01*
X469462Y677623D02*
X470128D01*
X472461Y676623D02*
X471128D01*
X472461Y677956D01*
Y678289D01*
X472128Y678622D01*
X471461D01*
X471128Y678289D01*
X490979Y687193D02*
X490479Y687692D01*
X489480D01*
X488980Y687193D01*
Y685193D01*
X489480Y684693D01*
X490479D01*
X490979Y685193D01*
X491979Y687193D02*
X492479Y687692D01*
X493478D01*
X493978Y687193D01*
Y686693D01*
X493478Y686193D01*
X493978Y685693D01*
Y685193D01*
X493478Y684693D01*
X492479D01*
X491979Y685193D01*
Y685693D01*
X492479Y686193D01*
X491979Y686693D01*
Y687193D01*
X492479Y686193D02*
X493478D01*
X496977Y687692D02*
X494978D01*
Y686193D01*
X495978Y686693D01*
X496478D01*
X496977Y686193D01*
Y685193D01*
X496478Y684693D01*
X495478D01*
X494978Y685193D01*
X491668Y691327D02*
X491168Y691826D01*
X490169D01*
X489669Y691327D01*
Y689327D01*
X490169Y688827D01*
X491168D01*
X491668Y689327D01*
X492668Y691327D02*
X493168Y691826D01*
X494167D01*
X494667Y691327D01*
Y690827D01*
X494167Y690327D01*
X494667Y689827D01*
Y689327D01*
X494167Y688827D01*
X493168D01*
X492668Y689327D01*
Y689827D01*
X493168Y690327D01*
X492668Y690827D01*
Y691327D01*
X493168Y690327D02*
X494167D01*
X497666Y691826D02*
X496667Y691327D01*
X495667Y690327D01*
Y689327D01*
X496167Y688827D01*
X497166D01*
X497666Y689327D01*
Y689827D01*
X497166Y690327D01*
X495667D01*
X489236Y647472D02*
X488736Y646972D01*
Y645972D01*
X489236Y645472D01*
X491236D01*
X491736Y645972D01*
Y646972D01*
X491236Y647472D01*
X489236Y648471D02*
X488736Y648971D01*
Y649971D01*
X489236Y650471D01*
X489736D01*
X490236Y649971D01*
X490736Y650471D01*
X491236D01*
X491736Y649971D01*
Y648971D01*
X491236Y648471D01*
X490736D01*
X490236Y648971D01*
X489736Y648471D01*
X489236D01*
X490236Y648971D02*
Y649971D01*
X488736Y651471D02*
Y653470D01*
X489236D01*
X491236Y651471D01*
X491736D01*
X484709Y647275D02*
X484209Y646775D01*
Y645775D01*
X484709Y645276D01*
X486708D01*
X487208Y645775D01*
Y646775D01*
X486708Y647275D01*
X484709Y648275D02*
X484209Y648774D01*
Y649774D01*
X484709Y650274D01*
X485209D01*
X485708Y649774D01*
X486208Y650274D01*
X486708D01*
X487208Y649774D01*
Y648774D01*
X486708Y648275D01*
X486208D01*
X485708Y648774D01*
X485209Y648275D01*
X484709D01*
X485708Y648774D02*
Y649774D01*
X486708Y651274D02*
X487208Y651774D01*
Y652773D01*
X486708Y653273D01*
X484709D01*
X484209Y652773D01*
Y651774D01*
X484709Y651274D01*
X485209D01*
X485708Y651774D01*
Y653273D01*
X504197Y657314D02*
X503697Y656814D01*
Y655815D01*
X504197Y655315D01*
X506196D01*
X506696Y655815D01*
Y656814D01*
X506196Y657314D01*
Y658314D02*
X506696Y658814D01*
Y659813D01*
X506196Y660313D01*
X504197D01*
X503697Y659813D01*
Y658814D01*
X504197Y658314D01*
X504697D01*
X505197Y658814D01*
Y660313D01*
X504197Y661313D02*
X503697Y661813D01*
Y662813D01*
X504197Y663312D01*
X506196D01*
X506696Y662813D01*
Y661813D01*
X506196Y661313D01*
X504197D01*
X486353Y671051D02*
X485853Y671551D01*
X484853D01*
X484354Y671051D01*
Y669052D01*
X484853Y668552D01*
X485853D01*
X486353Y669052D01*
X487353D02*
X487852Y668552D01*
X488852D01*
X489352Y669052D01*
Y671051D01*
X488852Y671551D01*
X487852D01*
X487353Y671051D01*
Y670551D01*
X487852Y670051D01*
X489352D01*
X490352Y668552D02*
X491351D01*
X490851D01*
Y671551D01*
X490352Y671051D01*
X507121Y680747D02*
X506621Y681247D01*
X505621D01*
X505121Y680747D01*
Y678748D01*
X505621Y678248D01*
X506621D01*
X507121Y678748D01*
X508120D02*
X508620Y678248D01*
X509620D01*
X510120Y678748D01*
Y680747D01*
X509620Y681247D01*
X508620D01*
X508120Y680747D01*
Y680247D01*
X508620Y679748D01*
X510120D01*
X513119Y678248D02*
X511119D01*
X513119Y680247D01*
Y680747D01*
X512619Y681247D01*
X511619D01*
X511119Y680747D01*
X510004Y654902D02*
X509504Y654402D01*
Y653402D01*
X510004Y652902D01*
X512003D01*
X512503Y653402D01*
Y654402D01*
X512003Y654902D01*
Y655901D02*
X512503Y656401D01*
Y657401D01*
X512003Y657901D01*
X510004D01*
X509504Y657401D01*
Y656401D01*
X510004Y655901D01*
X510504D01*
X511004Y656401D01*
Y657901D01*
X510004Y658900D02*
X509504Y659400D01*
Y660400D01*
X510004Y660900D01*
X510504D01*
X511004Y660400D01*
Y659900D01*
Y660400D01*
X511504Y660900D01*
X512003D01*
X512503Y660400D01*
Y659400D01*
X512003Y658900D01*
X494522Y710176D02*
X494022Y710676D01*
X493023D01*
X492523Y710176D01*
Y708177D01*
X493023Y707677D01*
X494022D01*
X494522Y708177D01*
X495522D02*
X496022Y707677D01*
X497021D01*
X497521Y708177D01*
Y710176D01*
X497021Y710676D01*
X496022D01*
X495522Y710176D01*
Y709677D01*
X496022Y709177D01*
X497521D01*
X500020Y707677D02*
Y710676D01*
X498521Y709177D01*
X500520D01*
X428282Y653779D02*
X427782Y654279D01*
X426783D01*
X426283Y653779D01*
Y651779D01*
X426783Y651279D01*
X427782D01*
X428282Y651779D01*
X431281Y654279D02*
X430281Y653779D01*
X429282Y652779D01*
Y651779D01*
X429782Y651279D01*
X430781D01*
X431281Y651779D01*
Y652279D01*
X430781Y652779D01*
X429282D01*
X434280Y654279D02*
X432281D01*
Y652779D01*
X433281Y653279D01*
X433780D01*
X434280Y652779D01*
Y651779D01*
X433780Y651279D01*
X432781D01*
X432281Y651779D01*
X482121Y709291D02*
X481621Y709790D01*
X480621D01*
X480121Y709291D01*
Y707291D01*
X480621Y706791D01*
X481621D01*
X482121Y707291D01*
X483120Y709291D02*
X483620Y709790D01*
X484620D01*
X485120Y709291D01*
Y708791D01*
X484620Y708291D01*
X485120Y707791D01*
Y707291D01*
X484620Y706791D01*
X483620D01*
X483120Y707291D01*
Y707791D01*
X483620Y708291D01*
X483120Y708791D01*
Y709291D01*
X483620Y708291D02*
X484620D01*
X486119Y709291D02*
X486619Y709790D01*
X487619D01*
X488119Y709291D01*
Y707291D01*
X487619Y706791D01*
X486619D01*
X486119Y707291D01*
Y709291D01*
X217561Y492764D02*
X220561D01*
Y494263D01*
X220061Y494763D01*
X218061D01*
X217561Y494263D01*
Y492764D01*
X220561Y497762D02*
Y495763D01*
X218561Y497762D01*
X218061D01*
X217561Y497262D01*
Y496263D01*
X218061Y495763D01*
X296460Y382527D02*
Y379528D01*
X297959D01*
X298459Y380027D01*
Y382027D01*
X297959Y382527D01*
X296460D01*
X299459Y382027D02*
X299959Y382527D01*
X300958D01*
X301458Y382027D01*
Y381527D01*
X300958Y381027D01*
X300459D01*
X300958D01*
X301458Y380527D01*
Y380027D01*
X300958Y379528D01*
X299959D01*
X299459Y380027D01*
X310573Y487548D02*
X313572D01*
Y489048D01*
X313072Y489547D01*
X311073D01*
X310573Y489048D01*
Y487548D01*
X313572Y492047D02*
X310573D01*
X312072Y490547D01*
Y492547D01*
X474118Y660429D02*
Y657430D01*
X476117D01*
X478616D02*
Y660429D01*
X477117Y658929D01*
X479116D01*
X494629Y660515D02*
Y657516D01*
X496628D01*
X499627Y660515D02*
X497628D01*
Y659015D01*
X498628Y659515D01*
X499127D01*
X499627Y659015D01*
Y658016D01*
X499127Y657516D01*
X498128D01*
X497628Y658016D01*
X284537Y492863D02*
Y495862D01*
X286036D01*
X286536Y495362D01*
Y494363D01*
X286036Y493863D01*
X284537D01*
X285536D02*
X286536Y492863D01*
X287536D02*
X288535D01*
X288035D01*
Y495862D01*
X287536Y495362D01*
X290035Y495862D02*
X292034D01*
Y495362D01*
X290035Y493363D01*
Y492863D01*
X290147Y465895D02*
X287148D01*
Y467394D01*
X287648Y467894D01*
X288647D01*
X289147Y467394D01*
Y465895D01*
Y466894D02*
X290147Y467894D01*
Y468894D02*
Y469893D01*
Y469393D01*
X287148D01*
X287648Y468894D01*
X289647Y471393D02*
X290147Y471893D01*
Y472892D01*
X289647Y473392D01*
X287648D01*
X287148Y472892D01*
Y471893D01*
X287648Y471393D01*
X288147D01*
X288647Y471893D01*
Y473392D01*
X286800Y483020D02*
Y486020D01*
X288300D01*
X288800Y485520D01*
Y484520D01*
X288300Y484020D01*
X286800D01*
X287800D02*
X288800Y483020D01*
X291799D02*
X289799D01*
X291799Y485020D01*
Y485520D01*
X291299Y486020D01*
X290299D01*
X289799Y485520D01*
X292798Y483020D02*
X293798D01*
X293298D01*
Y486020D01*
X292798Y485520D01*
X367917Y498721D02*
Y501720D01*
X369416D01*
X369916Y501220D01*
Y500220D01*
X369416Y499720D01*
X367917D01*
X368916D02*
X369916Y498721D01*
X372915D02*
X370916D01*
X372915Y500720D01*
Y501220D01*
X372415Y501720D01*
X371415D01*
X370916Y501220D01*
X375414Y498721D02*
Y501720D01*
X373915Y500220D01*
X375914D01*
X384832Y469832D02*
Y472831D01*
X386331D01*
X386831Y472331D01*
Y471331D01*
X386331Y470831D01*
X384832D01*
X385831D02*
X386831Y469832D01*
X389830D02*
X387831D01*
X389830Y471831D01*
Y472331D01*
X389330Y472831D01*
X388331D01*
X387831Y472331D01*
X392829Y472831D02*
X390830D01*
Y471331D01*
X391830Y471831D01*
X392329D01*
X392829Y471331D01*
Y470331D01*
X392329Y469832D01*
X391330D01*
X390830Y470331D01*
X290737Y404083D02*
X287738D01*
Y405583D01*
X288238Y406083D01*
X289238D01*
X289738Y405583D01*
Y404083D01*
Y405083D02*
X290737Y406083D01*
Y407083D02*
Y408082D01*
Y407582D01*
X287738D01*
X288238Y407083D01*
X290737Y411081D02*
X287738D01*
X289238Y409582D01*
Y411581D01*
X338277Y403689D02*
X335278D01*
Y405188D01*
X335778Y405688D01*
X336777D01*
X337277Y405188D01*
Y403689D01*
Y404689D02*
X338277Y405688D01*
Y406688D02*
Y407688D01*
Y407188D01*
X335278D01*
X335778Y406688D01*
Y409187D02*
X335278Y409687D01*
Y410686D01*
X335778Y411186D01*
X336278D01*
X336777Y410686D01*
X337277Y411186D01*
X337777D01*
X338277Y410686D01*
Y409687D01*
X337777Y409187D01*
X337277D01*
X336777Y409687D01*
X336278Y409187D01*
X335778D01*
X336777Y409687D02*
Y410686D01*
X285226Y450244D02*
Y453243D01*
X286725D01*
X287225Y452743D01*
Y451744D01*
X286725Y451244D01*
X285226D01*
X286226D02*
X287225Y450244D01*
X288225D02*
X289225D01*
X288725D01*
Y453243D01*
X288225Y452743D01*
X292723Y453243D02*
X291724Y452743D01*
X290724Y451744D01*
Y450744D01*
X291224Y450244D01*
X292224D01*
X292723Y450744D01*
Y451244D01*
X292224Y451744D01*
X290724D01*
X287293Y455362D02*
Y458361D01*
X288792D01*
X289292Y457861D01*
Y456862D01*
X288792Y456362D01*
X287293D01*
X288292D02*
X289292Y455362D01*
X292291D02*
X290292D01*
X292291Y457361D01*
Y457861D01*
X291791Y458361D01*
X290792D01*
X290292Y457861D01*
X293291D02*
X293791Y458361D01*
X294790D01*
X295290Y457861D01*
Y455862D01*
X294790Y455362D01*
X293791D01*
X293291Y455862D01*
Y457861D01*
X371348Y439123D02*
X368349D01*
Y440622D01*
X368848Y441122D01*
X369848D01*
X370348Y440622D01*
Y439123D01*
Y440123D02*
X371348Y441122D01*
Y444121D02*
Y442122D01*
X369348Y444121D01*
X368848D01*
X368349Y443621D01*
Y442622D01*
X368848Y442122D01*
Y445121D02*
X368349Y445621D01*
Y446620D01*
X368848Y447120D01*
X369348D01*
X369848Y446620D01*
Y446121D01*
Y446620D01*
X370348Y447120D01*
X370848D01*
X371348Y446620D01*
Y445621D01*
X370848Y445121D01*
X382863Y439123D02*
X379864D01*
Y440622D01*
X380364Y441122D01*
X381364D01*
X381864Y440622D01*
Y439123D01*
Y440123D02*
X382863Y441122D01*
Y444121D02*
Y442122D01*
X380864Y444121D01*
X380364D01*
X379864Y443621D01*
Y442622D01*
X380364Y442122D01*
X379864Y447120D02*
X380364Y446121D01*
X381364Y445121D01*
X382364D01*
X382863Y445621D01*
Y446620D01*
X382364Y447120D01*
X381864D01*
X381364Y446620D01*
Y445121D01*
X259242Y537055D02*
Y540054D01*
X260741D01*
X261241Y539554D01*
Y538554D01*
X260741Y538055D01*
X259242D01*
X260241D02*
X261241Y537055D01*
X262241D02*
X263240D01*
X262740D01*
Y540054D01*
X262241Y539554D01*
X266739Y540054D02*
X264740D01*
Y538554D01*
X265739Y539054D01*
X266239D01*
X266739Y538554D01*
Y537555D01*
X266239Y537055D01*
X265240D01*
X264740Y537555D01*
X356401Y535236D02*
Y538235D01*
X357900D01*
X358400Y537735D01*
Y536736D01*
X357900Y536236D01*
X356401D01*
X357400D02*
X358400Y535236D01*
X361399D02*
X359400D01*
X361399Y537236D01*
Y537735D01*
X360899Y538235D01*
X359900D01*
X359400Y537735D01*
X364398Y535236D02*
X362399D01*
X364398Y537236D01*
Y537735D01*
X363898Y538235D01*
X362899D01*
X362399Y537735D01*
X448724Y703296D02*
X445725D01*
Y704795D01*
X446225Y705295D01*
X447225D01*
X447724Y704795D01*
Y703296D01*
Y704295D02*
X448724Y705295D01*
Y708294D02*
Y706295D01*
X446725Y708294D01*
X446225D01*
X445725Y707794D01*
Y706795D01*
X446225Y706295D01*
Y709294D02*
X445725Y709794D01*
Y710793D01*
X446225Y711293D01*
X446725D01*
X447225Y710793D01*
X447724Y711293D01*
X448224D01*
X448724Y710793D01*
Y709794D01*
X448224Y709294D01*
X447724D01*
X447225Y709794D01*
X446725Y709294D01*
X446225D01*
X447225Y709794D02*
Y710793D01*
X407877Y698867D02*
Y701866D01*
X409377D01*
X409877Y701366D01*
Y700366D01*
X409377Y699867D01*
X407877D01*
X408877D02*
X409877Y698867D01*
X410876Y701366D02*
X411376Y701866D01*
X412376D01*
X412876Y701366D01*
Y700866D01*
X412376Y700366D01*
X411876D01*
X412376D01*
X412876Y699867D01*
Y699367D01*
X412376Y698867D01*
X411376D01*
X410876Y699367D01*
X413875Y701366D02*
X414375Y701866D01*
X415375D01*
X415875Y701366D01*
Y699367D01*
X415375Y698867D01*
X414375D01*
X413875Y699367D01*
Y701366D01*
X522247Y659399D02*
X519248D01*
Y660898D01*
X519748Y661398D01*
X520748D01*
X521248Y660898D01*
Y659399D01*
Y660398D02*
X522247Y661398D01*
X519748Y662397D02*
X519248Y662897D01*
Y663897D01*
X519748Y664397D01*
X520248D01*
X520748Y663897D01*
Y663397D01*
Y663897D01*
X521248Y664397D01*
X521747D01*
X522247Y663897D01*
Y662897D01*
X521747Y662397D01*
X519248Y667396D02*
X519748Y666396D01*
X520748Y665396D01*
X521747D01*
X522247Y665896D01*
Y666896D01*
X521747Y667396D01*
X521248D01*
X520748Y666896D01*
Y665396D01*
X509157Y693945D02*
Y696944D01*
X510657D01*
X511156Y696445D01*
Y695445D01*
X510657Y694945D01*
X509157D01*
X510157D02*
X511156Y693945D01*
X512156Y696445D02*
X512656Y696944D01*
X513656D01*
X514155Y696445D01*
Y695945D01*
X513656Y695445D01*
X513156D01*
X513656D01*
X514155Y694945D01*
Y694445D01*
X513656Y693945D01*
X512656D01*
X512156Y694445D01*
X515155Y696944D02*
X517155D01*
Y696445D01*
X515155Y694445D01*
Y693945D01*
X481499Y414961D02*
Y417960D01*
X482999D01*
X483499Y417460D01*
Y416460D01*
X482999Y415960D01*
X481499D01*
X482499D02*
X483499Y414961D01*
X484498Y417460D02*
X484998Y417960D01*
X485998D01*
X486498Y417460D01*
Y416960D01*
X485998Y416460D01*
X485498D01*
X485998D01*
X486498Y415960D01*
Y415460D01*
X485998Y414961D01*
X484998D01*
X484498Y415460D01*
X487497Y417460D02*
X487997Y417960D01*
X488997D01*
X489497Y417460D01*
Y416960D01*
X488997Y416460D01*
X489497Y415960D01*
Y415460D01*
X488997Y414961D01*
X487997D01*
X487497Y415460D01*
Y415960D01*
X487997Y416460D01*
X487497Y416960D01*
Y417460D01*
X487997Y416460D02*
X488997D01*
X492621Y712598D02*
Y715597D01*
X494121D01*
X494621Y715098D01*
Y714098D01*
X494121Y713598D01*
X492621D01*
X493621D02*
X494621Y712598D01*
X495620Y715098D02*
X496120Y715597D01*
X497120D01*
X497620Y715098D01*
Y714598D01*
X497120Y714098D01*
X496620D01*
X497120D01*
X497620Y713598D01*
Y713098D01*
X497120Y712598D01*
X496120D01*
X495620Y713098D01*
X498619D02*
X499119Y712598D01*
X500119D01*
X500619Y713098D01*
Y715098D01*
X500119Y715597D01*
X499119D01*
X498619Y715098D01*
Y714598D01*
X499119Y714098D01*
X500619D01*
X419196Y715993D02*
X416197D01*
Y717492D01*
X416697Y717992D01*
X417697D01*
X418196Y717492D01*
Y715993D01*
Y716993D02*
X419196Y717992D01*
Y720991D02*
Y718992D01*
X417197Y720991D01*
X416697D01*
X416197Y720492D01*
Y719492D01*
X416697Y718992D01*
X418696Y721991D02*
X419196Y722491D01*
Y723490D01*
X418696Y723990D01*
X416697D01*
X416197Y723490D01*
Y722491D01*
X416697Y721991D01*
X417197D01*
X417697Y722491D01*
Y723990D01*
X403842Y641535D02*
Y644534D01*
X405341D01*
X405841Y644035D01*
Y643035D01*
X405341Y642535D01*
X403842D01*
X404841D02*
X405841Y641535D01*
X406841Y644035D02*
X407341Y644534D01*
X408340D01*
X408840Y644035D01*
Y643535D01*
X408340Y643035D01*
X407840D01*
X408340D01*
X408840Y642535D01*
Y642035D01*
X408340Y641535D01*
X407341D01*
X406841Y642035D01*
X409840Y644035D02*
X410340Y644534D01*
X411339D01*
X411839Y644035D01*
Y643535D01*
X411339Y643035D01*
X410840D01*
X411339D01*
X411839Y642535D01*
Y642035D01*
X411339Y641535D01*
X410340D01*
X409840Y642035D01*
X401184Y657382D02*
Y660381D01*
X402684D01*
X403184Y659881D01*
Y658881D01*
X402684Y658382D01*
X401184D01*
X402184D02*
X403184Y657382D01*
X404183Y659881D02*
X404683Y660381D01*
X405683D01*
X406183Y659881D01*
Y659381D01*
X405683Y658881D01*
X405183D01*
X405683D01*
X406183Y658382D01*
Y657882D01*
X405683Y657382D01*
X404683D01*
X404183Y657882D01*
X407182Y657382D02*
X408182D01*
X407682D01*
Y660381D01*
X407182Y659881D01*
X251958Y453735D02*
Y451236D01*
X252458Y450736D01*
X253458D01*
X253958Y451236D01*
Y453735D01*
X256957D02*
X254957D01*
Y452236D01*
X255957Y452735D01*
X256457D01*
X256957Y452236D01*
Y451236D01*
X256457Y450736D01*
X255457D01*
X254957Y451236D01*
X335278Y459891D02*
X337777D01*
X338277Y460390D01*
Y461390D01*
X337777Y461890D01*
X335278D01*
Y464889D02*
X335777Y463889D01*
X336777Y462890D01*
X337777D01*
X338277Y463389D01*
Y464389D01*
X337777Y464889D01*
X337277D01*
X336777Y464389D01*
Y462890D01*
X248822Y535971D02*
Y532972D01*
X250821D01*
X253820D02*
X251821D01*
X253820Y534972D01*
Y535472D01*
X253321Y535971D01*
X252321D01*
X251821Y535472D01*
X326124Y519832D02*
X329123D01*
Y521831D01*
X326624Y522831D02*
X326124Y523330D01*
Y524330D01*
X326624Y524830D01*
X327124D01*
X327624Y524330D01*
Y523830D01*
Y524330D01*
X328123Y524830D01*
X328623D01*
X329123Y524330D01*
Y523330D01*
X328623Y522831D01*
X327579Y395066D02*
X327080Y395566D01*
X326080D01*
X325580Y395066D01*
Y393067D01*
X326080Y392567D01*
X327080D01*
X327579Y393067D01*
X328579Y392567D02*
Y395566D01*
X329579Y394566D01*
X330578Y395566D01*
Y392567D01*
X331578D02*
X332578D01*
X332078D01*
Y395566D01*
X331578Y395066D01*
X279583Y579558D02*
Y577559D01*
X281082D01*
Y578559D01*
Y577559D01*
X282582D01*
X279583Y580558D02*
X282582D01*
Y582058D01*
X282082Y582557D01*
X281582D01*
X281082Y582058D01*
Y580558D01*
Y582058D01*
X280583Y582557D01*
X280083D01*
X279583Y582058D01*
Y580558D01*
X280083Y583557D02*
X279583Y584057D01*
Y585057D01*
X280083Y585557D01*
X280583D01*
X281082Y585057D01*
Y584557D01*
Y585057D01*
X281582Y585557D01*
X282082D01*
X282582Y585057D01*
Y584057D01*
X282082Y583557D01*
X456158Y718780D02*
Y716780D01*
X457657D01*
Y717780D01*
Y716780D01*
X459157D01*
X456158Y719779D02*
X459157D01*
Y721279D01*
X458657Y721779D01*
X458157D01*
X457657Y721279D01*
Y719779D01*
Y721279D01*
X457157Y721779D01*
X456658D01*
X456158Y721279D01*
Y719779D01*
X459157Y724278D02*
X456158D01*
X457657Y722778D01*
Y724778D01*
X417947Y666779D02*
X415948D01*
Y665279D01*
X416948D01*
X415948D01*
Y663779D01*
X418947Y666779D02*
Y663779D01*
X420447D01*
X420946Y664279D01*
Y664779D01*
X420447Y665279D01*
X418947D01*
X420447D01*
X420946Y665779D01*
Y666279D01*
X420447Y666779D01*
X418947D01*
X423946D02*
X421946D01*
Y665279D01*
X422946Y665779D01*
X423446D01*
X423946Y665279D01*
Y664279D01*
X423446Y663779D01*
X422446D01*
X421946Y664279D01*
X471512Y680020D02*
X474011D01*
X474511Y680519D01*
Y681519D01*
X474011Y682019D01*
X471512D01*
Y683019D02*
Y685018D01*
X472012D01*
X474011Y683019D01*
X474511D01*
X335337Y560677D02*
X337337Y557678D01*
Y560677D02*
X335337Y557678D01*
X338336D02*
X339336D01*
X338836D01*
Y560677D01*
X338336Y560177D01*
X422346Y685921D02*
X424345Y682922D01*
Y685921D02*
X422346Y682922D01*
X427344D02*
X425345D01*
X427344Y684922D01*
Y685421D01*
X426844Y685921D01*
X425845D01*
X425345Y685421D01*
X381924Y397676D02*
X381424Y398176D01*
X380424D01*
X379924Y397676D01*
Y395677D01*
X380424Y395177D01*
X381424D01*
X381924Y395677D01*
X382924Y395177D02*
X383923D01*
X383423D01*
Y398176D01*
X382924Y397676D01*
X326398Y388866D02*
X325898Y389366D01*
X324899D01*
X324399Y388866D01*
Y386867D01*
X324899Y386367D01*
X325898D01*
X326398Y386867D01*
X329397Y386367D02*
X327398D01*
X329397Y388366D01*
Y388866D01*
X328897Y389366D01*
X327898D01*
X327398Y388866D01*
X205827Y461406D02*
X205327Y461905D01*
X204328D01*
X203828Y461406D01*
Y459406D01*
X204328Y458906D01*
X205327D01*
X205827Y459406D01*
X206827Y461406D02*
X207327Y461905D01*
X208326D01*
X208826Y461406D01*
Y460906D01*
X208326Y460406D01*
X207827D01*
X208326D01*
X208826Y459906D01*
Y459406D01*
X208326Y458906D01*
X207327D01*
X206827Y459406D01*
X213406Y461406D02*
X212906Y461905D01*
X211906D01*
X211407Y461406D01*
Y459406D01*
X211906Y458906D01*
X212906D01*
X213406Y459406D01*
X215905Y458906D02*
Y461905D01*
X214406Y460406D01*
X216405D01*
X454070Y358306D02*
X453570Y358806D01*
X452570D01*
X452070Y358306D01*
Y356307D01*
X452570Y355807D01*
X453570D01*
X454070Y356307D01*
X457068Y358806D02*
X455069D01*
Y357307D01*
X456069Y357806D01*
X456569D01*
X457068Y357307D01*
Y356307D01*
X456569Y355807D01*
X455569D01*
X455069Y356307D01*
X222504Y510169D02*
X222004Y509669D01*
Y508669D01*
X222504Y508169D01*
X224503D01*
X225003Y508669D01*
Y509669D01*
X224503Y510169D01*
X222004Y513168D02*
X222504Y512168D01*
X223504Y511168D01*
X224503D01*
X225003Y511668D01*
Y512668D01*
X224503Y513168D01*
X224004D01*
X223504Y512668D01*
Y511168D01*
X208302Y519428D02*
X207802Y519928D01*
X206802D01*
X206302Y519428D01*
Y517429D01*
X206802Y516929D01*
X207802D01*
X208302Y517429D01*
X209301Y519928D02*
X211301D01*
Y519428D01*
X209301Y517429D01*
Y516929D01*
X228803Y516369D02*
X228303Y515870D01*
Y514870D01*
X228803Y514370D01*
X230803D01*
X231302Y514870D01*
Y515870D01*
X230803Y516369D01*
X228803Y517369D02*
X228303Y517869D01*
Y518869D01*
X228803Y519369D01*
X229303D01*
X229803Y518869D01*
X230303Y519369D01*
X230803D01*
X231302Y518869D01*
Y517869D01*
X230803Y517369D01*
X230303D01*
X229803Y517869D01*
X229303Y517369D01*
X228803D01*
X229803Y517869D02*
Y518869D01*
X293750Y580984D02*
X293250Y580485D01*
Y579485D01*
X293750Y578985D01*
X295749D01*
X296249Y579485D01*
Y580485D01*
X295749Y580984D01*
X296249Y581984D02*
Y582984D01*
Y582484D01*
X293250D01*
X293750Y581984D01*
X295749Y584483D02*
X296249Y584983D01*
Y585983D01*
X295749Y586483D01*
X293750D01*
X293250Y585983D01*
Y584983D01*
X293750Y584483D01*
X294250D01*
X294750Y584983D01*
Y586483D01*
X247166Y416622D02*
X246666Y417122D01*
X245666D01*
X245166Y416622D01*
Y414623D01*
X245666Y414123D01*
X246666D01*
X247166Y414623D01*
X249665Y414123D02*
Y417122D01*
X248165Y415622D01*
X250165D01*
X251165Y414123D02*
X252164D01*
X251664D01*
Y417122D01*
X251165Y416622D01*
X246772Y421642D02*
X246272Y422142D01*
X245273D01*
X244773Y421642D01*
Y419642D01*
X245273Y419143D01*
X246272D01*
X246772Y419642D01*
X249271Y419143D02*
Y422142D01*
X247772Y420642D01*
X249771D01*
X252770Y419143D02*
X250771D01*
X252770Y421142D01*
Y421642D01*
X252270Y422142D01*
X251271D01*
X250771Y421642D01*
X247067Y426858D02*
X246568Y427358D01*
X245568D01*
X245068Y426858D01*
Y424859D01*
X245568Y424359D01*
X246568D01*
X247067Y424859D01*
X249567Y424359D02*
Y427358D01*
X248067Y425859D01*
X250066D01*
X251066Y426858D02*
X251566Y427358D01*
X252566D01*
X253065Y426858D01*
Y426358D01*
X252566Y425859D01*
X252066D01*
X252566D01*
X253065Y425359D01*
Y424859D01*
X252566Y424359D01*
X251566D01*
X251066Y424859D01*
X246674Y432173D02*
X246174Y432673D01*
X245174D01*
X244674Y432173D01*
Y430174D01*
X245174Y429674D01*
X246174D01*
X246674Y430174D01*
X249173Y429674D02*
Y432673D01*
X247673Y431174D01*
X249673D01*
X252172Y429674D02*
Y432673D01*
X250672Y431174D01*
X252672D01*
X366388Y430000D02*
X365888Y429500D01*
Y428501D01*
X366388Y428001D01*
X368387D01*
X368887Y428501D01*
Y429500D01*
X368387Y430000D01*
X368887Y432499D02*
X365888D01*
X367387Y431000D01*
Y432999D01*
X365888Y435998D02*
Y433999D01*
X367387D01*
X366888Y434999D01*
Y435498D01*
X367387Y435998D01*
X368387D01*
X368887Y435498D01*
Y434499D01*
X368387Y433999D01*
X443932Y727154D02*
X443432Y727653D01*
X442432D01*
X441932Y727154D01*
Y725154D01*
X442432Y724654D01*
X443432D01*
X443932Y725154D01*
X446931Y727653D02*
X445931Y727154D01*
X444931Y726154D01*
Y725154D01*
X445431Y724654D01*
X446431D01*
X446931Y725154D01*
Y725654D01*
X446431Y726154D01*
X444931D01*
X447930Y727154D02*
X448430Y727653D01*
X449430D01*
X449930Y727154D01*
Y725154D01*
X449430Y724654D01*
X448430D01*
X447930Y725154D01*
Y727154D01*
X403297Y564744D02*
X402797Y564244D01*
Y563245D01*
X403297Y562745D01*
X405297D01*
X405796Y563245D01*
Y564244D01*
X405297Y564744D01*
X403297Y565744D02*
X402797Y566244D01*
Y567243D01*
X403297Y567743D01*
X403797D01*
X404297Y567243D01*
X404797Y567743D01*
X405297D01*
X405796Y567243D01*
Y566244D01*
X405297Y565744D01*
X404797D01*
X404297Y566244D01*
X403797Y565744D01*
X403297D01*
X404297Y566244D02*
Y567243D01*
X403297Y568743D02*
X402797Y569243D01*
Y570243D01*
X403297Y570742D01*
X403797D01*
X404297Y570243D01*
X404797Y570742D01*
X405297D01*
X405796Y570243D01*
Y569243D01*
X405297Y568743D01*
X404797D01*
X404297Y569243D01*
X403797Y568743D01*
X403297D01*
X404297Y569243D02*
Y570243D01*
X514109Y706436D02*
X513609Y706936D01*
X512609D01*
X512110Y706436D01*
Y704437D01*
X512609Y703937D01*
X513609D01*
X514109Y704437D01*
X515108D02*
X515608Y703937D01*
X516608D01*
X517108Y704437D01*
Y706436D01*
X516608Y706936D01*
X515608D01*
X515108Y706436D01*
Y705936D01*
X515608Y705437D01*
X517108D01*
X520107Y706936D02*
X518108D01*
Y705437D01*
X519107Y705936D01*
X519607D01*
X520107Y705437D01*
Y704437D01*
X519607Y703937D01*
X518607D01*
X518108Y704437D01*
X210226Y499504D02*
Y496505D01*
X211725D01*
X212225Y497005D01*
Y499004D01*
X211725Y499504D01*
X210226D01*
X213225Y496505D02*
X214224D01*
X213724D01*
Y499504D01*
X213225Y499004D01*
X263012Y398519D02*
X261013D01*
Y397020D01*
X262013D01*
X261013D01*
Y395520D01*
X264012Y398519D02*
Y395520D01*
X265511D01*
X266011Y396020D01*
Y396520D01*
X265511Y397020D01*
X264012D01*
X265511D01*
X266011Y397520D01*
Y398020D01*
X265511Y398519D01*
X264012D01*
X267011Y395520D02*
X268011D01*
X267511D01*
Y398519D01*
X267011Y398020D01*
X198642Y487791D02*
X196643D01*
Y486292D01*
X197643D01*
X196643D01*
Y484792D01*
X199642Y487791D02*
Y484792D01*
X201141D01*
X201641Y485292D01*
Y485792D01*
X201141Y486292D01*
X199642D01*
X201141D01*
X201641Y486792D01*
Y487291D01*
X201141Y487791D01*
X199642D01*
X204640Y484792D02*
X202641D01*
X204640Y486792D01*
Y487291D01*
X204140Y487791D01*
X203141D01*
X202641Y487291D01*
X439390Y361905D02*
X437391D01*
Y360406D01*
X438390D01*
X437391D01*
Y358906D01*
X440390Y361905D02*
Y358906D01*
X441889D01*
X442389Y359406D01*
Y359906D01*
X441889Y360406D01*
X440390D01*
X441889D01*
X442389Y360906D01*
Y361405D01*
X441889Y361905D01*
X440390D01*
X445388D02*
X444389Y361405D01*
X443389Y360406D01*
Y359406D01*
X443889Y358906D01*
X444888D01*
X445388Y359406D01*
Y359906D01*
X444888Y360406D01*
X443389D01*
X264991Y341680D02*
X263992D01*
X264492D01*
Y339181D01*
X263992Y338681D01*
X263492D01*
X262992Y339181D01*
X267990Y338681D02*
X265991D01*
X267990Y340681D01*
Y341180D01*
X267491Y341680D01*
X266491D01*
X265991Y341180D01*
X440585Y341090D02*
X439585D01*
X440085D01*
Y338590D01*
X439585Y338091D01*
X439086D01*
X438586Y338590D01*
X443084Y338091D02*
Y341090D01*
X441585Y339590D01*
X443584D01*
X421589Y638924D02*
X420589D01*
X421089D01*
Y636425D01*
X420589Y635925D01*
X420090D01*
X419590Y636425D01*
X424588Y638924D02*
X422589D01*
Y637425D01*
X423589Y637924D01*
X424088D01*
X424588Y637425D01*
Y636425D01*
X424088Y635925D01*
X423089D01*
X422589Y636425D01*
X386308Y572634D02*
Y569635D01*
X388307D01*
X391307Y572634D02*
X389307D01*
Y569635D01*
X391307D01*
X389307Y571134D02*
X390307D01*
X392306Y572634D02*
Y569635D01*
X393806D01*
X394306Y570134D01*
Y572134D01*
X393806Y572634D01*
X392306D01*
X395305Y569635D02*
X396305D01*
X395805D01*
Y572634D01*
X395305Y572134D01*
X383485Y588343D02*
Y590343D01*
X382985Y590842D01*
X381985D01*
X381485Y590343D01*
Y588343D01*
X381985Y587843D01*
X382985D01*
X382485Y588843D02*
X383485Y587843D01*
X382985D02*
X383485Y588343D01*
X384484Y587843D02*
X385484D01*
X384984D01*
Y590842D01*
X384484Y590343D01*
X213586Y505512D02*
Y508511D01*
X215085D01*
X215585Y508011D01*
Y507011D01*
X215085Y506511D01*
X213586D01*
X214585D02*
X215585Y505512D01*
X216585Y508011D02*
X217085Y508511D01*
X218084D01*
X218584Y508011D01*
Y507511D01*
X218084Y507011D01*
X217585D01*
X218084D01*
X218584Y506511D01*
Y506012D01*
X218084Y505512D01*
X217085D01*
X216585Y506012D01*
X199989Y472095D02*
Y475094D01*
X201489D01*
X201989Y474594D01*
Y473595D01*
X201489Y473095D01*
X199989D01*
X200989D02*
X201989Y472095D01*
X204488D02*
Y475094D01*
X202988Y473595D01*
X204988D01*
X207962Y484891D02*
Y487890D01*
X209461D01*
X209961Y487390D01*
Y486390D01*
X209461Y485890D01*
X207962D01*
X208961D02*
X209961Y484891D01*
X212960Y487890D02*
X210961D01*
Y486390D01*
X211960Y486890D01*
X212460D01*
X212960Y486390D01*
Y485390D01*
X212460Y484891D01*
X211461D01*
X210961Y485390D01*
X446938Y373965D02*
Y376964D01*
X448438D01*
X448938Y376465D01*
Y375465D01*
X448438Y374965D01*
X446938D01*
X447938D02*
X448938Y373965D01*
X451936Y376964D02*
X450937Y376465D01*
X449937Y375465D01*
Y374465D01*
X450437Y373965D01*
X451437D01*
X451936Y374465D01*
Y374965D01*
X451437Y375465D01*
X449937D01*
X208060Y550737D02*
Y553736D01*
X209560D01*
X210059Y553236D01*
Y552237D01*
X209560Y551737D01*
X208060D01*
X209060D02*
X210059Y550737D01*
X211059Y553736D02*
X213058D01*
Y553236D01*
X211059Y551237D01*
Y550737D01*
X226198Y538830D02*
Y541829D01*
X227698D01*
X228198Y541329D01*
Y540329D01*
X227698Y539830D01*
X226198D01*
X227198D02*
X228198Y538830D01*
X229197Y541329D02*
X229697Y541829D01*
X230697D01*
X231197Y541329D01*
Y540829D01*
X230697Y540329D01*
X231197Y539830D01*
Y539330D01*
X230697Y538830D01*
X229697D01*
X229197Y539330D01*
Y539830D01*
X229697Y540329D01*
X229197Y540829D01*
Y541329D01*
X229697Y540329D02*
X230697D01*
X214865Y526083D02*
Y529082D01*
X216365D01*
X216865Y528582D01*
Y527582D01*
X216365Y527082D01*
X214865D01*
X215865D02*
X216865Y526083D01*
X217864Y526582D02*
X218364Y526083D01*
X219364D01*
X219864Y526582D01*
Y528582D01*
X219364Y529082D01*
X218364D01*
X217864Y528582D01*
Y528082D01*
X218364Y527582D01*
X219864D01*
X356893Y499114D02*
Y502113D01*
X358393D01*
X358892Y501613D01*
Y500614D01*
X358393Y500114D01*
X356893D01*
X357893D02*
X358892Y499114D01*
X361891D02*
X359892D01*
X361891Y501114D01*
Y501613D01*
X361391Y502113D01*
X360392D01*
X359892Y501613D01*
X362891Y502113D02*
X364890D01*
Y501613D01*
X362891Y499614D01*
Y499114D01*
X400186Y563434D02*
X397187D01*
Y564933D01*
X397687Y565433D01*
X398687D01*
X399186Y564933D01*
Y563434D01*
Y564434D02*
X400186Y565433D01*
X397687Y566433D02*
X397187Y566933D01*
Y567932D01*
X397687Y568432D01*
X398187D01*
X398687Y567932D01*
Y567433D01*
Y567932D01*
X399186Y568432D01*
X399686D01*
X400186Y567932D01*
Y566933D01*
X399686Y566433D01*
X400186Y570931D02*
X397187D01*
X398687Y569432D01*
Y571431D01*
X374596Y589123D02*
X371597D01*
Y590622D01*
X372096Y591122D01*
X373096D01*
X373596Y590622D01*
Y589123D01*
Y590123D02*
X374596Y591122D01*
X372096Y592122D02*
X371597Y592622D01*
Y593621D01*
X372096Y594121D01*
X372596D01*
X373096Y593621D01*
Y593122D01*
Y593621D01*
X373596Y594121D01*
X374096D01*
X374596Y593621D01*
Y592622D01*
X374096Y592122D01*
X371597Y597120D02*
Y595121D01*
X373096D01*
X372596Y596121D01*
Y596620D01*
X373096Y597120D01*
X374096D01*
X374596Y596620D01*
Y595621D01*
X374096Y595121D01*
X334747Y377015D02*
X336747D01*
X335747D01*
Y374016D01*
X337746D02*
Y377015D01*
X339246D01*
X339746Y376515D01*
Y375515D01*
X339246Y375015D01*
X337746D01*
X340745Y376515D02*
X341245Y377015D01*
X342245D01*
X342745Y376515D01*
Y376015D01*
X342245Y375515D01*
X341745D01*
X342245D01*
X342745Y375015D01*
Y374516D01*
X342245Y374016D01*
X341245D01*
X340745Y374516D01*
X335535Y388137D02*
X337534D01*
X336534D01*
Y385138D01*
X338534D02*
Y388137D01*
X340033D01*
X340533Y387637D01*
Y386637D01*
X340033Y386138D01*
X338534D01*
X343532Y388137D02*
X342532Y387637D01*
X341533Y386637D01*
Y385638D01*
X342033Y385138D01*
X343032D01*
X343532Y385638D01*
Y386138D01*
X343032Y386637D01*
X341533D01*
X254025Y406984D02*
X256024D01*
X255024D01*
Y403985D01*
X257024D02*
Y406984D01*
X258523D01*
X259023Y406484D01*
Y405485D01*
X258523Y404985D01*
X257024D01*
X260023Y406984D02*
X262022D01*
Y406484D01*
X260023Y404485D01*
Y403985D01*
X390948Y378491D02*
X392947D01*
X391948D01*
Y375492D01*
X393947D02*
Y378491D01*
X395447D01*
X395946Y377991D01*
Y376992D01*
X395447Y376492D01*
X393947D01*
X396946Y377991D02*
X397446Y378491D01*
X398446D01*
X398945Y377991D01*
Y377491D01*
X398446Y376992D01*
X398945Y376492D01*
Y375992D01*
X398446Y375492D01*
X397446D01*
X396946Y375992D01*
Y376492D01*
X397446Y376992D01*
X396946Y377491D01*
Y377991D01*
X397446Y376992D02*
X398446D01*
X448330Y382723D02*
X450329D01*
X449330D01*
Y379724D01*
X451329D02*
Y382723D01*
X452829D01*
X453328Y382224D01*
Y381224D01*
X452829Y380724D01*
X451329D01*
X454328Y379724D02*
X455328D01*
X454828D01*
Y382723D01*
X454328Y382224D01*
X458827Y382723D02*
X456827D01*
Y381224D01*
X457827Y381724D01*
X458327D01*
X458827Y381224D01*
Y380224D01*
X458327Y379724D01*
X457327D01*
X456827Y380224D01*
X394098Y702653D02*
X396097D01*
X395097D01*
Y699654D01*
X397097D02*
Y702653D01*
X398596D01*
X399096Y702154D01*
Y701154D01*
X398596Y700654D01*
X397097D01*
X402095Y699654D02*
X400096D01*
X402095Y701654D01*
Y702154D01*
X401595Y702653D01*
X400596D01*
X400096Y702154D01*
X403095D02*
X403595Y702653D01*
X404594D01*
X405094Y702154D01*
Y701654D01*
X404594Y701154D01*
X404095D01*
X404594D01*
X405094Y700654D01*
Y700154D01*
X404594Y699654D01*
X403595D01*
X403095Y700154D01*
X437405Y638727D02*
X439404D01*
X438405D01*
Y635728D01*
X440404D02*
Y638727D01*
X441903D01*
X442403Y638228D01*
Y637228D01*
X441903Y636728D01*
X440404D01*
X445402Y635728D02*
X443403D01*
X445402Y637728D01*
Y638228D01*
X444903Y638727D01*
X443903D01*
X443403Y638228D01*
X446402Y636228D02*
X446902Y635728D01*
X447901D01*
X448401Y636228D01*
Y638228D01*
X447901Y638727D01*
X446902D01*
X446402Y638228D01*
Y637728D01*
X446902Y637228D01*
X448401D01*
X365751Y417369D02*
X367751D01*
X366751D01*
Y414370D01*
X368750D02*
Y417369D01*
X370250D01*
X370750Y416869D01*
Y415870D01*
X370250Y415370D01*
X368750D01*
X371749Y416869D02*
X372249Y417369D01*
X373249D01*
X373749Y416869D01*
Y416369D01*
X373249Y415870D01*
X372749D01*
X373249D01*
X373749Y415370D01*
Y414870D01*
X373249Y414370D01*
X372249D01*
X371749Y414870D01*
X374748Y417369D02*
X376748D01*
Y416869D01*
X374748Y414870D01*
Y414370D01*
X410422Y594816D02*
X412422D01*
X411422D01*
Y591817D01*
X413421D02*
Y594816D01*
X414921D01*
X415421Y594316D01*
Y593316D01*
X414921Y592817D01*
X413421D01*
X418420Y594816D02*
X416420D01*
Y593316D01*
X417420Y593816D01*
X417920D01*
X418420Y593316D01*
Y592317D01*
X417920Y591817D01*
X416920D01*
X416420Y592317D01*
X419419Y594316D02*
X419919Y594816D01*
X420919D01*
X421419Y594316D01*
Y592317D01*
X420919Y591817D01*
X419919D01*
X419419Y592317D01*
Y594316D01*
X391145Y480018D02*
X393144D01*
X392145D01*
Y477019D01*
X394144D02*
Y480018D01*
X395643D01*
X396143Y479518D01*
Y478518D01*
X395643Y478019D01*
X394144D01*
X397143Y480018D02*
X399142D01*
Y479518D01*
X397143Y477519D01*
Y477019D01*
X400142Y477519D02*
X400642Y477019D01*
X401642D01*
X402141Y477519D01*
Y479518D01*
X401642Y480018D01*
X400642D01*
X400142Y479518D01*
Y479018D01*
X400642Y478518D01*
X402141D01*
X440541Y409445D02*
X442540D01*
X441540D01*
Y406446D01*
X443539D02*
Y409445D01*
X445039D01*
X445539Y408945D01*
Y407945D01*
X445039Y407445D01*
X443539D01*
X446538Y406446D02*
X447538D01*
X447038D01*
Y409445D01*
X446538Y408945D01*
X449038D02*
X449538Y409445D01*
X450537D01*
X451037Y408945D01*
Y406946D01*
X450537Y406446D01*
X449538D01*
X449038Y406946D01*
Y408945D01*
X453536Y406446D02*
Y409445D01*
X452037Y407945D01*
X454036D01*
X422936Y352310D02*
X424936D01*
X423936D01*
Y349311D01*
X425935D02*
Y352310D01*
X427435D01*
X427935Y351810D01*
Y350811D01*
X427435Y350311D01*
X425935D01*
X428934Y349311D02*
X429934D01*
X429434D01*
Y352310D01*
X428934Y351810D01*
X431434D02*
X431933Y352310D01*
X432933D01*
X433433Y351810D01*
Y349811D01*
X432933Y349311D01*
X431933D01*
X431434Y349811D01*
Y351810D01*
X436432Y352310D02*
X435432Y351810D01*
X434433Y350811D01*
Y349811D01*
X434933Y349311D01*
X435932D01*
X436432Y349811D01*
Y350311D01*
X435932Y350811D01*
X434433D01*
X216539Y550145D02*
Y547646D01*
X217038Y547146D01*
X218038D01*
X218538Y547646D01*
Y550145D01*
X219538Y549645D02*
X220038Y550145D01*
X221037D01*
X221537Y549645D01*
Y549145D01*
X221037Y548645D01*
X220537D01*
X221037D01*
X221537Y548145D01*
Y547646D01*
X221037Y547146D01*
X220038D01*
X219538Y547646D01*
X399936Y349751D02*
X398936D01*
X399436D01*
Y347252D01*
X398936Y346752D01*
X398436D01*
X397936Y347252D01*
X400935Y346752D02*
X401935D01*
X401435D01*
Y349751D01*
X400935Y349251D01*
X494325Y727007D02*
X493825Y727507D01*
X492826D01*
X492326Y727007D01*
Y725008D01*
X492826Y724508D01*
X493825D01*
X494325Y725008D01*
X495325D02*
X495825Y724508D01*
X496825D01*
X497324Y725008D01*
Y727007D01*
X496825Y727507D01*
X495825D01*
X495325Y727007D01*
Y726507D01*
X495825Y726007D01*
X497324D01*
X498324Y727007D02*
X498824Y727507D01*
X499824D01*
X500323Y727007D01*
Y726507D01*
X499824Y726007D01*
X500323Y725508D01*
Y725008D01*
X499824Y724508D01*
X498824D01*
X498324Y725008D01*
Y725508D01*
X498824Y726007D01*
X498324Y726507D01*
Y727007D01*
X498824Y726007D02*
X499824D01*
X485369Y739507D02*
X484869Y740007D01*
X483869D01*
X483369Y739507D01*
Y737508D01*
X483869Y737008D01*
X484869D01*
X485369Y737508D01*
X486368D02*
X486868Y737008D01*
X487868D01*
X488368Y737508D01*
Y739507D01*
X487868Y740007D01*
X486868D01*
X486368Y739507D01*
Y739007D01*
X486868Y738507D01*
X488368D01*
X489367Y740007D02*
X491367D01*
Y739507D01*
X489367Y737508D01*
Y737008D01*
X337042Y648562D02*
X336542Y649062D01*
X335543D01*
X335043Y648562D01*
Y646563D01*
X335543Y646063D01*
X336542D01*
X337042Y646563D01*
X338042Y646063D02*
X339042D01*
X338542D01*
Y649062D01*
X338042Y648562D01*
X340541D02*
X341041Y649062D01*
X342041D01*
X342540Y648562D01*
Y646563D01*
X342041Y646063D01*
X341041D01*
X340541Y646563D01*
Y648562D01*
X343540Y646563D02*
X344040Y646063D01*
X345040D01*
X345539Y646563D01*
Y648562D01*
X345040Y649062D01*
X344040D01*
X343540Y648562D01*
Y648063D01*
X344040Y647563D01*
X345539D01*
X409581Y539802D02*
X409081Y540302D01*
X408082D01*
X407582Y539802D01*
Y537803D01*
X408082Y537303D01*
X409081D01*
X409581Y537803D01*
X410581Y537303D02*
X411581D01*
X411081D01*
Y540302D01*
X410581Y539802D01*
X413080Y537303D02*
X414080D01*
X413580D01*
Y540302D01*
X413080Y539802D01*
X415579D02*
X416079Y540302D01*
X417079D01*
X417579Y539802D01*
Y537803D01*
X417079Y537303D01*
X416079D01*
X415579Y537803D01*
Y539802D01*
X441963Y620708D02*
X441463Y621208D01*
X440464D01*
X439964Y620708D01*
Y618709D01*
X440464Y618209D01*
X441463D01*
X441963Y618709D01*
X442963Y618209D02*
X443962D01*
X443463D01*
Y621208D01*
X442963Y620708D01*
X445462Y618209D02*
X446462D01*
X445962D01*
Y621208D01*
X445462Y620708D01*
X447961Y618209D02*
X448961D01*
X448461D01*
Y621208D01*
X447961Y620708D01*
X395900Y541869D02*
X395400Y542369D01*
X394401D01*
X393901Y541869D01*
Y539870D01*
X394401Y539370D01*
X395400D01*
X395900Y539870D01*
X396900Y539370D02*
X397900D01*
X397400D01*
Y542369D01*
X396900Y541869D01*
X399399Y539370D02*
X400399D01*
X399899D01*
Y542369D01*
X399399Y541869D01*
X401898D02*
X402398Y542369D01*
X403398D01*
X403898Y541869D01*
Y541369D01*
X403398Y540870D01*
X402898D01*
X403398D01*
X403898Y540370D01*
Y539870D01*
X403398Y539370D01*
X402398D01*
X401898Y539870D01*
X384975Y509291D02*
X384475Y509790D01*
X383475D01*
X382976Y509291D01*
Y507291D01*
X383475Y506791D01*
X384475D01*
X384975Y507291D01*
X385975Y506791D02*
X386974D01*
X386474D01*
Y509790D01*
X385975Y509291D01*
X388474Y506791D02*
X389474D01*
X388974D01*
Y509790D01*
X388474Y509291D01*
X392473Y506791D02*
Y509790D01*
X390973Y508291D01*
X392972D01*
X439767Y628445D02*
Y631444D01*
X441266D01*
X441766Y630944D01*
Y629944D01*
X441266Y629445D01*
X439767D01*
X440767D02*
X441766Y628445D01*
X444266D02*
Y631444D01*
X442766Y629944D01*
X444765D01*
X445765Y630944D02*
X446265Y631444D01*
X447264D01*
X447764Y630944D01*
Y630444D01*
X447264Y629944D01*
X446765D01*
X447264D01*
X447764Y629445D01*
Y628945D01*
X447264Y628445D01*
X446265D01*
X445765Y628945D01*
X382992Y557580D02*
Y560579D01*
X384491D01*
X384991Y560079D01*
Y559079D01*
X384491Y558579D01*
X382992D01*
X383991D02*
X384991Y557580D01*
X387490D02*
Y560579D01*
X385991Y559079D01*
X387990D01*
X390989Y560579D02*
X389989Y560079D01*
X388990Y559079D01*
Y558079D01*
X389490Y557580D01*
X390489D01*
X390989Y558079D01*
Y558579D01*
X390489Y559079D01*
X388990D01*
X372838Y536267D02*
Y533768D01*
X373338Y533268D01*
X374337D01*
X374837Y533768D01*
Y536267D01*
X375837Y533268D02*
X376836D01*
X376337D01*
Y536267D01*
X375837Y535767D01*
X378336D02*
X378836Y536267D01*
X379836D01*
X380335Y535767D01*
Y533768D01*
X379836Y533268D01*
X378836D01*
X378336Y533768D01*
Y535767D01*
X400195Y559913D02*
Y557414D01*
X400695Y556914D01*
X401694D01*
X402194Y557414D01*
Y559913D01*
X403194Y556914D02*
X404194D01*
X403694D01*
Y559913D01*
X403194Y559413D01*
X405693Y556914D02*
X406693D01*
X406193D01*
Y559913D01*
X405693Y559413D01*
X345290Y402702D02*
Y400203D01*
X345790Y399703D01*
X346789D01*
X347289Y400203D01*
Y402702D01*
X348289Y399703D02*
X349289D01*
X348789D01*
Y402702D01*
X348289Y402203D01*
X466525Y388382D02*
Y385883D01*
X467025Y385383D01*
X468024D01*
X468524Y385883D01*
Y388382D01*
X471523Y385383D02*
X469524D01*
X471523Y387382D01*
Y387882D01*
X471023Y388382D01*
X470024D01*
X469524Y387882D01*
X379984Y627590D02*
X379485Y627090D01*
Y626090D01*
X379984Y625591D01*
X381984D01*
X382484Y626090D01*
Y627090D01*
X381984Y627590D01*
X382484Y628590D02*
Y629589D01*
Y629089D01*
X379485D01*
X379984Y628590D01*
X382484Y633088D02*
Y631089D01*
X380484Y633088D01*
X379984D01*
X379485Y632588D01*
Y631589D01*
X379984Y631089D01*
X478487Y644753D02*
X478987Y645253D01*
Y646252D01*
X478487Y646752D01*
X476487D01*
X475987Y646252D01*
Y645253D01*
X476487Y644753D01*
X475987Y643753D02*
Y642753D01*
Y643253D01*
X478987D01*
X478487Y643753D01*
X478987Y639254D02*
X478487Y640254D01*
X477487Y641254D01*
X476487D01*
X475987Y640754D01*
Y639754D01*
X476487Y639254D01*
X476987D01*
X477487Y639754D01*
Y641254D01*
X388291Y646260D02*
X385292D01*
Y647759D01*
X385791Y648259D01*
X386791D01*
X387291Y647759D01*
Y646260D01*
Y647260D02*
X388291Y648259D01*
Y649259D02*
Y650259D01*
Y649759D01*
X385292D01*
X385791Y649259D01*
Y651758D02*
X385292Y652258D01*
Y653258D01*
X385791Y653757D01*
X387791D01*
X388291Y653258D01*
Y652258D01*
X387791Y651758D01*
X385791D01*
X374739Y613720D02*
X374239Y614220D01*
X373239D01*
X372739Y613720D01*
Y611720D01*
X373239Y611221D01*
X374239D01*
X374739Y611720D01*
X375738Y611221D02*
X376738D01*
X376238D01*
Y614220D01*
X375738Y613720D01*
X378238Y611221D02*
X379237D01*
X378737D01*
Y614220D01*
X378238Y613720D01*
X382736Y614220D02*
X380737D01*
Y612720D01*
X381736Y613220D01*
X382236D01*
X382736Y612720D01*
Y611720D01*
X382236Y611221D01*
X381237D01*
X380737Y611720D01*
X296195Y623169D02*
X295696Y623668D01*
X294696D01*
X294196Y623169D01*
Y621169D01*
X294696Y620669D01*
X295696D01*
X296195Y621169D01*
X297195Y620669D02*
X298195D01*
X297695D01*
Y623668D01*
X297195Y623169D01*
X299694Y620669D02*
X300694D01*
X300194D01*
Y623668D01*
X299694Y623169D01*
X304193Y623668D02*
X303193Y623169D01*
X302193Y622169D01*
Y621169D01*
X302693Y620669D01*
X303693D01*
X304193Y621169D01*
Y621669D01*
X303693Y622169D01*
X302193D01*
X307188Y643156D02*
Y640657D01*
X307688Y640158D01*
X308688D01*
X309188Y640657D01*
Y643156D01*
X311687Y640158D02*
Y643156D01*
X310187Y641657D01*
X312187D01*
X425555Y641862D02*
X425055Y641362D01*
Y640362D01*
X425555Y639862D01*
X427555D01*
X428054Y640362D01*
Y641362D01*
X427555Y641862D01*
X425055Y642861D02*
Y644861D01*
X425555D01*
X427555Y642861D01*
X428054D01*
Y645860D02*
Y646860D01*
Y646360D01*
X425055D01*
X425555Y645860D01*
X187323Y370854D02*
X186823Y371354D01*
X185824D01*
X185324Y370854D01*
Y368855D01*
X185824Y368355D01*
X186823D01*
X187323Y368855D01*
X136459Y484497D02*
X139458D01*
Y486496D01*
X137458Y487996D02*
Y488995D01*
X137958Y489495D01*
X139458D01*
Y487996D01*
X138958Y487496D01*
X138458Y487996D01*
Y489495D01*
X136459Y490495D02*
X139458D01*
Y491994D01*
X138958Y492494D01*
X138458D01*
X137958D01*
X137458Y491994D01*
Y490495D01*
X139458Y494993D02*
Y493994D01*
X138958Y493494D01*
X137958D01*
X137458Y493994D01*
Y494993D01*
X137958Y495493D01*
X138458D01*
Y493494D01*
X139458Y496493D02*
Y497493D01*
Y496993D01*
X136459D01*
Y496493D01*
D118*
X246491Y436357D02*
X245991Y436857D01*
X244991D01*
X244491Y436357D01*
Y434358D01*
X244991Y433858D01*
X245991D01*
X246491Y434358D01*
X248990Y433858D02*
Y436857D01*
X247490Y435358D01*
X249490D01*
X250489Y436357D02*
X250989Y436857D01*
X251989D01*
X252489Y436357D01*
Y434358D01*
X251989Y433858D01*
X250989D01*
X250489Y434358D01*
Y436357D01*
X335588Y571154D02*
X335255Y571488D01*
X334588D01*
X334255Y571154D01*
Y569821D01*
X334588Y569488D01*
X335255D01*
X335588Y569821D01*
X336255Y569488D02*
X336921D01*
X336588D01*
Y571488D01*
X336255Y571154D01*
X337921Y569488D02*
X338587D01*
X338254D01*
Y571488D01*
X337921Y571154D01*
X340920Y569488D02*
X339587D01*
X340920Y570821D01*
Y571154D01*
X340586Y571488D01*
X339920D01*
X339587Y571154D01*
D119*
X431385Y672790D02*
X431118Y673056D01*
X430585D01*
X430318Y672790D01*
Y671723D01*
X430585Y671457D01*
X431118D01*
X431385Y671723D01*
X432984Y673056D02*
X432451Y672790D01*
X431918Y672256D01*
Y671723D01*
X432184Y671457D01*
X432717D01*
X432984Y671723D01*
Y671990D01*
X432717Y672256D01*
X431918D01*
X434583Y673056D02*
X434050Y672790D01*
X433517Y672256D01*
Y671723D01*
X433784Y671457D01*
X434317D01*
X434583Y671723D01*
Y671990D01*
X434317Y672256D01*
X433517D01*
D120*
X274596Y403886D02*
X276170D01*
X275383D01*
Y401524D01*
X276957D02*
Y403886D01*
X278138D01*
X278531Y403492D01*
Y402705D01*
X278138Y402312D01*
X276957D01*
X280893Y403886D02*
X279318D01*
Y402705D01*
X280106Y403099D01*
X280499D01*
X280893Y402705D01*
Y401918D01*
X280499Y401524D01*
X279712D01*
X279318Y401918D01*
X281680Y403492D02*
X282073Y403886D01*
X282861D01*
X283254Y403492D01*
Y403099D01*
X282861Y402705D01*
X283254Y402312D01*
Y401918D01*
X282861Y401524D01*
X282073D01*
X281680Y401918D01*
Y402312D01*
X282073Y402705D01*
X281680Y403099D01*
Y403492D01*
X282073Y402705D02*
X282861D01*
X283652Y541878D02*
Y543452D01*
Y542665D01*
X286013D01*
Y544239D02*
X283652D01*
Y545420D01*
X284045Y545814D01*
X284833D01*
X285226Y545420D01*
Y544239D01*
X283652Y548175D02*
X284045Y547388D01*
X284833Y546601D01*
X285620D01*
X286013Y546994D01*
Y547781D01*
X285620Y548175D01*
X285226D01*
X284833Y547781D01*
Y546601D01*
X286013Y550536D02*
Y548962D01*
X284439Y550536D01*
X284045D01*
X283652Y550143D01*
Y549356D01*
X284045Y548962D01*
X307273Y458413D02*
X308847D01*
X308060D01*
Y456051D01*
X309634D02*
Y458413D01*
X310815D01*
X311209Y458019D01*
Y457232D01*
X310815Y456838D01*
X309634D01*
X311996Y458413D02*
X313570D01*
Y458019D01*
X311996Y456445D01*
Y456051D01*
X314357D02*
X315144D01*
X314751D01*
Y458413D01*
X314357Y458019D01*
X362995Y551771D02*
X364570D01*
X363783D01*
Y549409D01*
X365357D02*
Y551771D01*
X366537D01*
X366931Y551377D01*
Y550590D01*
X366537Y550197D01*
X365357D01*
X367718Y551771D02*
X369292D01*
Y551377D01*
X367718Y549803D01*
Y549409D01*
X371260D02*
Y551771D01*
X370080Y550590D01*
X371654D01*
X455220Y733609D02*
X457219D01*
X456219D01*
Y730610D01*
X458219D02*
Y733609D01*
X459718D01*
X460218Y733109D01*
Y732110D01*
X459718Y731610D01*
X458219D01*
X461218Y730610D02*
X462218D01*
X461718D01*
Y733609D01*
X461218Y733109D01*
X463717D02*
X464217Y733609D01*
X465216D01*
X465716Y733109D01*
Y731110D01*
X465216Y730610D01*
X464217D01*
X463717Y731110D01*
Y733109D01*
X466716D02*
X467216Y733609D01*
X468216D01*
X468715Y733109D01*
Y732610D01*
X468216Y732110D01*
X467716D01*
X468216D01*
X468715Y731610D01*
Y731110D01*
X468216Y730610D01*
X467216D01*
X466716Y731110D01*
X129302Y358858D02*
X130876D01*
X131401Y359383D01*
X130876Y359908D01*
X131401Y360433D01*
X130876Y360957D01*
X129302D01*
Y362532D02*
Y363581D01*
X129826Y364106D01*
X131401D01*
Y362532D01*
X130876Y362007D01*
X130351Y362532D01*
Y364106D01*
X129302Y365156D02*
X131401Y366205D01*
X129302Y367254D01*
X131401Y369878D02*
Y368829D01*
X130876Y368304D01*
X129826D01*
X129302Y368829D01*
Y369878D01*
X129826Y370403D01*
X130351D01*
Y368304D01*
X131401Y374601D02*
Y376175D01*
X130876Y376700D01*
X130351Y376175D01*
Y375126D01*
X129826Y374601D01*
X129302Y375126D01*
Y376700D01*
X131401Y378275D02*
Y379324D01*
X130876Y379849D01*
X129826D01*
X129302Y379324D01*
Y378275D01*
X129826Y377750D01*
X130876D01*
X131401Y378275D01*
Y380898D02*
Y381948D01*
Y381423D01*
X128252D01*
Y380898D01*
Y385621D02*
X131401D01*
Y384047D01*
X130876Y383522D01*
X129826D01*
X129302Y384047D01*
Y385621D01*
X131401Y388245D02*
Y387196D01*
X130876Y386671D01*
X129826D01*
X129302Y387196D01*
Y388245D01*
X129826Y388770D01*
X130351D01*
Y386671D01*
X129302Y389819D02*
X131401D01*
X130351D01*
X129826Y390344D01*
X129302Y390869D01*
Y391394D01*
X131401Y392968D02*
Y394018D01*
Y393493D01*
X129302D01*
Y392968D01*
X131401Y395592D02*
X129302D01*
Y397166D01*
X129826Y397691D01*
X131401D01*
X132450Y399790D02*
Y400315D01*
X131926Y400840D01*
X129302D01*
Y399265D01*
X129826Y398740D01*
X130876D01*
X131401Y399265D01*
Y400840D01*
X128252Y407137D02*
X131401D01*
Y405562D01*
X130876Y405038D01*
X129826D01*
X129302Y405562D01*
Y407137D01*
X131401Y408186D02*
Y409236D01*
Y408711D01*
X129302D01*
Y408186D01*
Y410810D02*
X131401D01*
X130351D01*
X129826Y411335D01*
X129302Y411860D01*
Y412384D01*
X131401Y415533D02*
Y414483D01*
X130876Y413959D01*
X129826D01*
X129302Y414483D01*
Y415533D01*
X129826Y416058D01*
X130351D01*
Y413959D01*
X129302Y419206D02*
Y417632D01*
X129826Y417107D01*
X130876D01*
X131401Y417632D01*
Y419206D01*
X128777Y420781D02*
X129302D01*
Y420256D01*
Y421305D01*
Y420781D01*
X130876D01*
X131401Y421305D01*
Y422880D02*
Y423929D01*
Y423404D01*
X129302D01*
Y422880D01*
X131401Y426028D02*
Y427078D01*
X130876Y427602D01*
X129826D01*
X129302Y427078D01*
Y426028D01*
X129826Y425503D01*
X130876D01*
X131401Y426028D01*
Y428652D02*
X129302D01*
Y430226D01*
X129826Y430751D01*
X131401D01*
M02*
