G04 Layer_Color=8388736*
%FSLAX25Y25*%
%MOIN*%
G70*
G01*
G75*
%ADD22C,0.05512*%
%ADD50C,0.06299*%
%ADD58C,0.04724*%
%ADD98C,0.02362*%
%ADD124R,0.01575X0.03740*%
%ADD125R,0.01575X0.03543*%
%ADD126R,0.03543X0.01575*%
%ADD127R,0.03740X0.01575*%
%ADD128R,0.03543X0.01394*%
%ADD129R,0.01394X0.03543*%
G04:AMPARAMS|DCode=130|XSize=15.75mil|YSize=47.24mil|CornerRadius=4.92mil|HoleSize=0mil|Usage=FLASHONLY|Rotation=90.000|XOffset=0mil|YOffset=0mil|HoleType=Round|Shape=RoundedRectangle|*
%AMROUNDEDRECTD130*
21,1,0.01575,0.03740,0,0,90.0*
21,1,0.00591,0.04724,0,0,90.0*
1,1,0.00984,0.01870,0.00295*
1,1,0.00984,0.01870,-0.00295*
1,1,0.00984,-0.01870,-0.00295*
1,1,0.00984,-0.01870,0.00295*
%
%ADD130ROUNDEDRECTD130*%
%ADD131R,0.04724X0.01575*%
%ADD132R,0.05905X0.55512*%
G04:AMPARAMS|DCode=133|XSize=45.28mil|YSize=57.09mil|CornerRadius=8.17mil|HoleSize=0mil|Usage=FLASHONLY|Rotation=90.000|XOffset=0mil|YOffset=0mil|HoleType=Round|Shape=RoundedRectangle|*
%AMROUNDEDRECTD133*
21,1,0.04528,0.04075,0,0,90.0*
21,1,0.02894,0.05709,0,0,90.0*
1,1,0.01634,0.02037,0.01447*
1,1,0.01634,0.02037,-0.01447*
1,1,0.01634,-0.02037,-0.01447*
1,1,0.01634,-0.02037,0.01447*
%
%ADD133ROUNDEDRECTD133*%
G04:AMPARAMS|DCode=134|XSize=39.37mil|YSize=39.37mil|CornerRadius=10.83mil|HoleSize=0mil|Usage=FLASHONLY|Rotation=0.000|XOffset=0mil|YOffset=0mil|HoleType=Round|Shape=RoundedRectangle|*
%AMROUNDEDRECTD134*
21,1,0.03937,0.01772,0,0,0.0*
21,1,0.01772,0.03937,0,0,0.0*
1,1,0.02165,0.00886,-0.00886*
1,1,0.02165,-0.00886,-0.00886*
1,1,0.02165,-0.00886,0.00886*
1,1,0.02165,0.00886,0.00886*
%
%ADD134ROUNDEDRECTD134*%
G04:AMPARAMS|DCode=135|XSize=39.37mil|YSize=39.37mil|CornerRadius=10.83mil|HoleSize=0mil|Usage=FLASHONLY|Rotation=90.000|XOffset=0mil|YOffset=0mil|HoleType=Round|Shape=RoundedRectangle|*
%AMROUNDEDRECTD135*
21,1,0.03937,0.01772,0,0,90.0*
21,1,0.01772,0.03937,0,0,90.0*
1,1,0.02165,0.00886,0.00886*
1,1,0.02165,0.00886,-0.00886*
1,1,0.02165,-0.00886,-0.00886*
1,1,0.02165,-0.00886,0.00886*
%
%ADD135ROUNDEDRECTD135*%
G04:AMPARAMS|DCode=136|XSize=263.78mil|YSize=104.33mil|CornerRadius=27.07mil|HoleSize=0mil|Usage=FLASHONLY|Rotation=0.000|XOffset=0mil|YOffset=0mil|HoleType=Round|Shape=RoundedRectangle|*
%AMROUNDEDRECTD136*
21,1,0.26378,0.05020,0,0,0.0*
21,1,0.20965,0.10433,0,0,0.0*
1,1,0.05413,0.10482,-0.02510*
1,1,0.05413,-0.10482,-0.02510*
1,1,0.05413,-0.10482,0.02510*
1,1,0.05413,0.10482,0.02510*
%
%ADD136ROUNDEDRECTD136*%
G04:AMPARAMS|DCode=137|XSize=76.77mil|YSize=57.09mil|CornerRadius=9.94mil|HoleSize=0mil|Usage=FLASHONLY|Rotation=90.000|XOffset=0mil|YOffset=0mil|HoleType=Round|Shape=RoundedRectangle|*
%AMROUNDEDRECTD137*
21,1,0.07677,0.03720,0,0,90.0*
21,1,0.05689,0.05709,0,0,90.0*
1,1,0.01988,0.01860,0.02845*
1,1,0.01988,0.01860,-0.02845*
1,1,0.01988,-0.01860,-0.02845*
1,1,0.01988,-0.01860,0.02845*
%
%ADD137ROUNDEDRECTD137*%
G04:AMPARAMS|DCode=138|XSize=76.77mil|YSize=57.09mil|CornerRadius=9.94mil|HoleSize=0mil|Usage=FLASHONLY|Rotation=180.000|XOffset=0mil|YOffset=0mil|HoleType=Round|Shape=RoundedRectangle|*
%AMROUNDEDRECTD138*
21,1,0.07677,0.03720,0,0,180.0*
21,1,0.05689,0.05709,0,0,180.0*
1,1,0.01988,-0.02845,0.01860*
1,1,0.01988,0.02845,0.01860*
1,1,0.01988,0.02845,-0.01860*
1,1,0.01988,-0.02845,-0.01860*
%
%ADD138ROUNDEDRECTD138*%
G04:AMPARAMS|DCode=139|XSize=125.98mil|YSize=114.17mil|CornerRadius=29.53mil|HoleSize=0mil|Usage=FLASHONLY|Rotation=0.000|XOffset=0mil|YOffset=0mil|HoleType=Round|Shape=RoundedRectangle|*
%AMROUNDEDRECTD139*
21,1,0.12598,0.05512,0,0,0.0*
21,1,0.06693,0.11417,0,0,0.0*
1,1,0.05905,0.03347,-0.02756*
1,1,0.05905,-0.03347,-0.02756*
1,1,0.05905,-0.03347,0.02756*
1,1,0.05905,0.03347,0.02756*
%
%ADD139ROUNDEDRECTD139*%
%ADD140R,0.03740X0.06693*%
G04:AMPARAMS|DCode=141|XSize=29.53mil|YSize=94.49mil|CornerRadius=8.37mil|HoleSize=0mil|Usage=FLASHONLY|Rotation=0.000|XOffset=0mil|YOffset=0mil|HoleType=Round|Shape=RoundedRectangle|*
%AMROUNDEDRECTD141*
21,1,0.02953,0.07776,0,0,0.0*
21,1,0.01279,0.09449,0,0,0.0*
1,1,0.01673,0.00640,-0.03888*
1,1,0.01673,-0.00640,-0.03888*
1,1,0.01673,-0.00640,0.03888*
1,1,0.01673,0.00640,0.03888*
%
%ADD141ROUNDEDRECTD141*%
G04:AMPARAMS|DCode=142|XSize=29.53mil|YSize=94.49mil|CornerRadius=8.37mil|HoleSize=0mil|Usage=FLASHONLY|Rotation=90.000|XOffset=0mil|YOffset=0mil|HoleType=Round|Shape=RoundedRectangle|*
%AMROUNDEDRECTD142*
21,1,0.02953,0.07776,0,0,90.0*
21,1,0.01279,0.09449,0,0,90.0*
1,1,0.01673,0.03888,0.00640*
1,1,0.01673,0.03888,-0.00640*
1,1,0.01673,-0.03888,-0.00640*
1,1,0.01673,-0.03888,0.00640*
%
%ADD142ROUNDEDRECTD142*%
G04:AMPARAMS|DCode=143|XSize=70.87mil|YSize=53.15mil|CornerRadius=14.27mil|HoleSize=0mil|Usage=FLASHONLY|Rotation=180.000|XOffset=0mil|YOffset=0mil|HoleType=Round|Shape=RoundedRectangle|*
%AMROUNDEDRECTD143*
21,1,0.07087,0.02461,0,0,180.0*
21,1,0.04232,0.05315,0,0,180.0*
1,1,0.02854,-0.02116,0.01230*
1,1,0.02854,0.02116,0.01230*
1,1,0.02854,0.02116,-0.01230*
1,1,0.02854,-0.02116,-0.01230*
%
%ADD143ROUNDEDRECTD143*%
G04:AMPARAMS|DCode=144|XSize=98.42mil|YSize=125.98mil|CornerRadius=25.59mil|HoleSize=0mil|Usage=FLASHONLY|Rotation=90.000|XOffset=0mil|YOffset=0mil|HoleType=Round|Shape=RoundedRectangle|*
%AMROUNDEDRECTD144*
21,1,0.09842,0.07480,0,0,90.0*
21,1,0.04724,0.12598,0,0,90.0*
1,1,0.05118,0.03740,0.02362*
1,1,0.05118,0.03740,-0.02362*
1,1,0.05118,-0.03740,-0.02362*
1,1,0.05118,-0.03740,0.02362*
%
%ADD144ROUNDEDRECTD144*%
G04:AMPARAMS|DCode=145|XSize=27.56mil|YSize=61.02mil|CornerRadius=7.87mil|HoleSize=0mil|Usage=FLASHONLY|Rotation=180.000|XOffset=0mil|YOffset=0mil|HoleType=Round|Shape=RoundedRectangle|*
%AMROUNDEDRECTD145*
21,1,0.02756,0.04528,0,0,180.0*
21,1,0.01181,0.06102,0,0,180.0*
1,1,0.01575,-0.00591,0.02264*
1,1,0.01575,0.00591,0.02264*
1,1,0.01575,0.00591,-0.02264*
1,1,0.01575,-0.00591,-0.02264*
%
%ADD145ROUNDEDRECTD145*%
G04:AMPARAMS|DCode=146|XSize=240.16mil|YSize=82.68mil|CornerRadius=21.65mil|HoleSize=0mil|Usage=FLASHONLY|Rotation=270.000|XOffset=0mil|YOffset=0mil|HoleType=Round|Shape=RoundedRectangle|*
%AMROUNDEDRECTD146*
21,1,0.24016,0.03937,0,0,270.0*
21,1,0.19685,0.08268,0,0,270.0*
1,1,0.04331,-0.01968,-0.09842*
1,1,0.04331,-0.01968,0.09842*
1,1,0.04331,0.01968,0.09842*
1,1,0.04331,0.01968,-0.09842*
%
%ADD146ROUNDEDRECTD146*%
G04:AMPARAMS|DCode=147|XSize=110.24mil|YSize=70.87mil|CornerRadius=18.7mil|HoleSize=0mil|Usage=FLASHONLY|Rotation=90.000|XOffset=0mil|YOffset=0mil|HoleType=Round|Shape=RoundedRectangle|*
%AMROUNDEDRECTD147*
21,1,0.11024,0.03347,0,0,90.0*
21,1,0.07283,0.07087,0,0,90.0*
1,1,0.03740,0.01673,0.03642*
1,1,0.03740,0.01673,-0.03642*
1,1,0.03740,-0.01673,-0.03642*
1,1,0.03740,-0.01673,0.03642*
%
%ADD147ROUNDEDRECTD147*%
%ADD148R,0.18110X0.18110*%
%ADD149O,0.04134X0.01968*%
%ADD150O,0.01968X0.04134*%
G04:AMPARAMS|DCode=151|XSize=47.24mil|YSize=78.74mil|CornerRadius=12.79mil|HoleSize=0mil|Usage=FLASHONLY|Rotation=0.000|XOffset=0mil|YOffset=0mil|HoleType=Round|Shape=RoundedRectangle|*
%AMROUNDEDRECTD151*
21,1,0.04724,0.05315,0,0,0.0*
21,1,0.02165,0.07874,0,0,0.0*
1,1,0.02559,0.01083,-0.02657*
1,1,0.02559,-0.01083,-0.02657*
1,1,0.02559,-0.01083,0.02657*
1,1,0.02559,0.01083,0.02657*
%
%ADD151ROUNDEDRECTD151*%
G04:AMPARAMS|DCode=152|XSize=55.12mil|YSize=45.28mil|CornerRadius=12.3mil|HoleSize=0mil|Usage=FLASHONLY|Rotation=180.000|XOffset=0mil|YOffset=0mil|HoleType=Round|Shape=RoundedRectangle|*
%AMROUNDEDRECTD152*
21,1,0.05512,0.02067,0,0,180.0*
21,1,0.03051,0.04528,0,0,180.0*
1,1,0.02461,-0.01526,0.01034*
1,1,0.02461,0.01526,0.01034*
1,1,0.02461,0.01526,-0.01034*
1,1,0.02461,-0.01526,-0.01034*
%
%ADD152ROUNDEDRECTD152*%
G04:AMPARAMS|DCode=153|XSize=29.53mil|YSize=53.15mil|CornerRadius=8.37mil|HoleSize=0mil|Usage=FLASHONLY|Rotation=90.000|XOffset=0mil|YOffset=0mil|HoleType=Round|Shape=RoundedRectangle|*
%AMROUNDEDRECTD153*
21,1,0.02953,0.03642,0,0,90.0*
21,1,0.01279,0.05315,0,0,90.0*
1,1,0.01673,0.01821,0.00640*
1,1,0.01673,0.01821,-0.00640*
1,1,0.01673,-0.01821,-0.00640*
1,1,0.01673,-0.01821,0.00640*
%
%ADD153ROUNDEDRECTD153*%
G04:AMPARAMS|DCode=154|XSize=45.28mil|YSize=57.09mil|CornerRadius=8.17mil|HoleSize=0mil|Usage=FLASHONLY|Rotation=180.000|XOffset=0mil|YOffset=0mil|HoleType=Round|Shape=RoundedRectangle|*
%AMROUNDEDRECTD154*
21,1,0.04528,0.04075,0,0,180.0*
21,1,0.02894,0.05709,0,0,180.0*
1,1,0.01634,-0.01447,0.02037*
1,1,0.01634,0.01447,0.02037*
1,1,0.01634,0.01447,-0.02037*
1,1,0.01634,-0.01447,-0.02037*
%
%ADD154ROUNDEDRECTD154*%
G04:AMPARAMS|DCode=155|XSize=86.61mil|YSize=33.47mil|CornerRadius=9.35mil|HoleSize=0mil|Usage=FLASHONLY|Rotation=0.000|XOffset=0mil|YOffset=0mil|HoleType=Round|Shape=RoundedRectangle|*
%AMROUNDEDRECTD155*
21,1,0.08661,0.01476,0,0,0.0*
21,1,0.06791,0.03347,0,0,0.0*
1,1,0.01870,0.03396,-0.00738*
1,1,0.01870,-0.03396,-0.00738*
1,1,0.01870,-0.03396,0.00738*
1,1,0.01870,0.03396,0.00738*
%
%ADD155ROUNDEDRECTD155*%
G04:AMPARAMS|DCode=156|XSize=59.05mil|YSize=59.05mil|CornerRadius=10.24mil|HoleSize=0mil|Usage=FLASHONLY|Rotation=180.000|XOffset=0mil|YOffset=0mil|HoleType=Round|Shape=RoundedRectangle|*
%AMROUNDEDRECTD156*
21,1,0.05905,0.03858,0,0,180.0*
21,1,0.03858,0.05905,0,0,180.0*
1,1,0.02047,-0.01929,0.01929*
1,1,0.02047,0.01929,0.01929*
1,1,0.02047,0.01929,-0.01929*
1,1,0.02047,-0.01929,-0.01929*
%
%ADD156ROUNDEDRECTD156*%
G04:AMPARAMS|DCode=157|XSize=21.65mil|YSize=34.45mil|CornerRadius=6.4mil|HoleSize=0mil|Usage=FLASHONLY|Rotation=90.000|XOffset=0mil|YOffset=0mil|HoleType=Round|Shape=RoundedRectangle|*
%AMROUNDEDRECTD157*
21,1,0.02165,0.02165,0,0,90.0*
21,1,0.00886,0.03445,0,0,90.0*
1,1,0.01279,0.01083,0.00443*
1,1,0.01279,0.01083,-0.00443*
1,1,0.01279,-0.01083,-0.00443*
1,1,0.01279,-0.01083,0.00443*
%
%ADD157ROUNDEDRECTD157*%
G04:AMPARAMS|DCode=158|XSize=21.65mil|YSize=49.21mil|CornerRadius=3.92mil|HoleSize=0mil|Usage=FLASHONLY|Rotation=90.000|XOffset=0mil|YOffset=0mil|HoleType=Round|Shape=RoundedRectangle|*
%AMROUNDEDRECTD158*
21,1,0.02165,0.04138,0,0,90.0*
21,1,0.01382,0.04921,0,0,90.0*
1,1,0.00783,0.02069,0.00691*
1,1,0.00783,0.02069,-0.00691*
1,1,0.00783,-0.02069,-0.00691*
1,1,0.00783,-0.02069,0.00691*
%
%ADD158ROUNDEDRECTD158*%
%ADD159O,0.10236X0.03150*%
%ADD160R,0.41732X0.33071*%
%ADD161R,0.04134X0.12992*%
G04:AMPARAMS|DCode=162|XSize=70.87mil|YSize=53.15mil|CornerRadius=14.27mil|HoleSize=0mil|Usage=FLASHONLY|Rotation=90.000|XOffset=0mil|YOffset=0mil|HoleType=Round|Shape=RoundedRectangle|*
%AMROUNDEDRECTD162*
21,1,0.07087,0.02461,0,0,90.0*
21,1,0.04232,0.05315,0,0,90.0*
1,1,0.02854,0.01230,0.02116*
1,1,0.02854,0.01230,-0.02116*
1,1,0.02854,-0.01230,-0.02116*
1,1,0.02854,-0.01230,0.02116*
%
%ADD162ROUNDEDRECTD162*%
G04:AMPARAMS|DCode=163|XSize=110.24mil|YSize=70.87mil|CornerRadius=18.7mil|HoleSize=0mil|Usage=FLASHONLY|Rotation=180.000|XOffset=0mil|YOffset=0mil|HoleType=Round|Shape=RoundedRectangle|*
%AMROUNDEDRECTD163*
21,1,0.11024,0.03347,0,0,180.0*
21,1,0.07283,0.07087,0,0,180.0*
1,1,0.03740,-0.03642,0.01673*
1,1,0.03740,0.03642,0.01673*
1,1,0.03740,0.03642,-0.01673*
1,1,0.03740,-0.03642,-0.01673*
%
%ADD163ROUNDEDRECTD163*%
%ADD164R,0.05905X0.04724*%
%ADD165O,0.09055X0.02756*%
%ADD166R,0.04724X0.05905*%
G04:AMPARAMS|DCode=167|XSize=15.75mil|YSize=19.68mil|CornerRadius=3.92mil|HoleSize=0mil|Usage=FLASHONLY|Rotation=90.000|XOffset=0mil|YOffset=0mil|HoleType=Round|Shape=RoundedRectangle|*
%AMROUNDEDRECTD167*
21,1,0.01575,0.01185,0,0,90.0*
21,1,0.00791,0.01968,0,0,90.0*
1,1,0.00783,0.00592,0.00396*
1,1,0.00783,0.00592,-0.00396*
1,1,0.00783,-0.00592,-0.00396*
1,1,0.00783,-0.00592,0.00396*
%
%ADD167ROUNDEDRECTD167*%
G04:AMPARAMS|DCode=168|XSize=15.75mil|YSize=35.43mil|CornerRadius=3.92mil|HoleSize=0mil|Usage=FLASHONLY|Rotation=180.000|XOffset=0mil|YOffset=0mil|HoleType=Round|Shape=RoundedRectangle|*
%AMROUNDEDRECTD168*
21,1,0.01575,0.02760,0,0,180.0*
21,1,0.00791,0.03543,0,0,180.0*
1,1,0.00783,-0.00396,0.01380*
1,1,0.00783,0.00396,0.01380*
1,1,0.00783,0.00396,-0.01380*
1,1,0.00783,-0.00396,-0.01380*
%
%ADD168ROUNDEDRECTD168*%
G04:AMPARAMS|DCode=169|XSize=13.78mil|YSize=53.15mil|CornerRadius=3.94mil|HoleSize=0mil|Usage=FLASHONLY|Rotation=180.000|XOffset=0mil|YOffset=0mil|HoleType=Round|Shape=RoundedRectangle|*
%AMROUNDEDRECTD169*
21,1,0.01378,0.04528,0,0,180.0*
21,1,0.00591,0.05315,0,0,180.0*
1,1,0.00787,-0.00295,0.02264*
1,1,0.00787,0.00295,0.02264*
1,1,0.00787,0.00295,-0.02264*
1,1,0.00787,-0.00295,-0.02264*
%
%ADD169ROUNDEDRECTD169*%
G04:AMPARAMS|DCode=170|XSize=13.78mil|YSize=53.15mil|CornerRadius=3.94mil|HoleSize=0mil|Usage=FLASHONLY|Rotation=90.000|XOffset=0mil|YOffset=0mil|HoleType=Round|Shape=RoundedRectangle|*
%AMROUNDEDRECTD170*
21,1,0.01378,0.04528,0,0,90.0*
21,1,0.00591,0.05315,0,0,90.0*
1,1,0.00787,0.02264,0.00295*
1,1,0.00787,0.02264,-0.00295*
1,1,0.00787,-0.02264,-0.00295*
1,1,0.00787,-0.02264,0.00295*
%
%ADD170ROUNDEDRECTD170*%
%ADD171R,0.09449X0.09449*%
%ADD172C,0.08661*%
%ADD173C,0.06312*%
%ADD174R,0.06312X0.06312*%
%ADD175C,0.18110*%
%ADD176R,0.07480X0.10236*%
%ADD177O,0.07480X0.10236*%
%ADD178C,0.00394*%
%ADD179C,0.11024*%
%ADD180C,0.35827*%
%ADD181C,0.03194*%
%ADD182C,0.02394*%
%ADD183C,0.02756*%
D22*
X442228Y351378D02*
D03*
X446249Y400442D02*
D03*
X395377Y471063D02*
D03*
X415554Y601181D02*
D03*
X360225Y415206D02*
D03*
X446263Y643110D02*
D03*
X403251Y693946D02*
D03*
X444294Y381791D02*
D03*
X385240Y377559D02*
D03*
X267214Y405658D02*
D03*
X472543Y727067D02*
D03*
X375974Y549359D02*
D03*
X311899Y451130D02*
D03*
X279320Y547094D02*
D03*
X286762Y397370D02*
D03*
D50*
X551775Y390158D02*
D03*
D58*
X338783Y382185D02*
D03*
X339570Y370866D02*
D03*
D98*
X262982Y471996D02*
D03*
Y467665D02*
D03*
X254320Y471996D02*
D03*
Y467665D02*
D03*
X258651D02*
D03*
Y471996D02*
D03*
X346249Y464122D02*
D03*
Y468453D02*
D03*
X350580Y464122D02*
D03*
Y468453D02*
D03*
X354911Y464122D02*
D03*
Y468453D02*
D03*
D124*
X525397Y385236D02*
D03*
Y373524D02*
D03*
D125*
X527464Y385236D02*
D03*
D126*
X530121Y382382D02*
D03*
D127*
Y380315D02*
D03*
Y378248D02*
D03*
D128*
Y376181D02*
D03*
D129*
X527464Y373524D02*
D03*
D130*
X519491Y382382D02*
D03*
D131*
Y380315D02*
D03*
Y378248D02*
D03*
Y376181D02*
D03*
D132*
X519983Y475787D02*
D03*
X463783D02*
D03*
D133*
X361223Y508367D02*
D03*
Y516044D02*
D03*
X275186Y511466D02*
D03*
Y519143D02*
D03*
X267706Y511367D02*
D03*
Y519044D02*
D03*
X368296Y508512D02*
D03*
Y516189D02*
D03*
D134*
X537110Y437992D02*
D03*
X530417D02*
D03*
X318999Y573524D02*
D03*
X325692D02*
D03*
X440653Y392322D02*
D03*
X447345D02*
D03*
X484551Y698670D02*
D03*
X477858D02*
D03*
X488291Y693847D02*
D03*
X481598D02*
D03*
X234438Y436957D02*
D03*
X241131D02*
D03*
X316426Y431543D02*
D03*
X309733D02*
D03*
X281387Y479378D02*
D03*
X274694D02*
D03*
X281387Y462055D02*
D03*
X274694D02*
D03*
X382076Y477015D02*
D03*
X375383D02*
D03*
X375384Y464811D02*
D03*
X382077D02*
D03*
X281682Y489516D02*
D03*
X274989D02*
D03*
X373415Y490303D02*
D03*
X366722D02*
D03*
X344885Y570965D02*
D03*
X351578D02*
D03*
X331795Y643110D02*
D03*
X325102D02*
D03*
X432090Y700245D02*
D03*
X438783D02*
D03*
X432413Y681652D02*
D03*
X439106D02*
D03*
X421067Y674359D02*
D03*
X427760D02*
D03*
X421067Y679280D02*
D03*
X427760D02*
D03*
X432386Y676820D02*
D03*
X439079D02*
D03*
X467129Y662950D02*
D03*
X460436D02*
D03*
X467129Y668847D02*
D03*
X460436D02*
D03*
X475299Y673867D02*
D03*
X481992D02*
D03*
X463783Y673965D02*
D03*
X470476D02*
D03*
X484551Y684202D02*
D03*
X477858D02*
D03*
X484649Y688827D02*
D03*
X477956D02*
D03*
X501775Y679673D02*
D03*
X495082D02*
D03*
X434551Y656937D02*
D03*
X427858D02*
D03*
X478448Y703099D02*
D03*
X471755D02*
D03*
X281584Y494339D02*
D03*
X274891D02*
D03*
X274891Y484594D02*
D03*
X281584D02*
D03*
X373279Y495737D02*
D03*
X366586D02*
D03*
X375383Y471110D02*
D03*
X382076D02*
D03*
X281387Y452212D02*
D03*
X274694D02*
D03*
X274694Y457035D02*
D03*
X281387D02*
D03*
X267312Y533610D02*
D03*
X260619D02*
D03*
X418114Y700343D02*
D03*
X424807D02*
D03*
X449807Y673178D02*
D03*
X456500D02*
D03*
X485239Y421555D02*
D03*
X491932D02*
D03*
X489471Y713977D02*
D03*
X482778D02*
D03*
X404826Y638484D02*
D03*
X411519D02*
D03*
X402562Y654429D02*
D03*
X409255D02*
D03*
X280403Y595815D02*
D03*
Y589122D02*
D03*
X457189Y707331D02*
D03*
Y714024D02*
D03*
X427858Y668749D02*
D03*
Y662056D02*
D03*
X314458Y389615D02*
D03*
X321150D02*
D03*
X204910Y522784D02*
D03*
X211603D02*
D03*
X234438Y415599D02*
D03*
X241131D02*
D03*
X234438Y420619D02*
D03*
X241131D02*
D03*
X234438Y425835D02*
D03*
X241131D02*
D03*
X234438Y431249D02*
D03*
X241131D02*
D03*
X448822Y721702D02*
D03*
X442130D02*
D03*
X509157Y705315D02*
D03*
X502464D02*
D03*
X213670Y476032D02*
D03*
X206978D02*
D03*
X207076Y481249D02*
D03*
X213769D02*
D03*
X443099Y371111D02*
D03*
X449792D02*
D03*
X206682Y547686D02*
D03*
X213375D02*
D03*
X224609Y535925D02*
D03*
X231302D02*
D03*
X204910Y527706D02*
D03*
X211603D02*
D03*
X489274Y725985D02*
D03*
X482581D02*
D03*
X489471Y733367D02*
D03*
X482778D02*
D03*
X493015Y433071D02*
D03*
X486322D02*
D03*
X505417Y365158D02*
D03*
X498724D02*
D03*
X500791Y433760D02*
D03*
X507483D02*
D03*
X498625Y375197D02*
D03*
X491932D02*
D03*
X476086Y357382D02*
D03*
X469393D02*
D03*
X342818Y643209D02*
D03*
X336125D02*
D03*
X329924Y574606D02*
D03*
X336617D02*
D03*
X384551Y541929D02*
D03*
X391244D02*
D03*
D135*
X369688Y606595D02*
D03*
Y613287D02*
D03*
X300987Y611221D02*
D03*
Y617914D02*
D03*
X443114Y700540D02*
D03*
X438487Y705166D02*
D03*
X443114Y707233D02*
D03*
X438487Y711859D02*
D03*
X490357Y673473D02*
D03*
Y680166D02*
D03*
X515653Y665796D02*
D03*
Y672489D02*
D03*
X452647Y391879D02*
D03*
Y385186D02*
D03*
X375777Y456248D02*
D03*
Y449555D02*
D03*
X267017Y452410D02*
D03*
Y445717D02*
D03*
X375791Y632087D02*
D03*
Y638779D02*
D03*
X369491Y632087D02*
D03*
Y638779D02*
D03*
X381499Y636024D02*
D03*
Y642717D02*
D03*
X369491Y650492D02*
D03*
Y643799D02*
D03*
X398527Y645177D02*
D03*
Y638484D02*
D03*
X381007Y659941D02*
D03*
Y653248D02*
D03*
X422247Y651673D02*
D03*
Y658366D02*
D03*
X431992Y710382D02*
D03*
Y717075D02*
D03*
X452365Y714123D02*
D03*
Y707430D02*
D03*
X392818Y627559D02*
D03*
Y620866D02*
D03*
X219380Y473964D02*
D03*
Y467271D02*
D03*
X335521Y446011D02*
D03*
Y439318D02*
D03*
X314064Y377410D02*
D03*
Y384103D02*
D03*
X281388Y473767D02*
D03*
Y467074D02*
D03*
X311801Y472488D02*
D03*
Y465795D02*
D03*
X364360Y468157D02*
D03*
Y461464D02*
D03*
X244084Y466582D02*
D03*
Y459889D02*
D03*
X256486Y495815D02*
D03*
Y502508D02*
D03*
X260915Y495815D02*
D03*
Y502508D02*
D03*
X349314Y491831D02*
D03*
Y498524D02*
D03*
X353743Y491831D02*
D03*
Y498524D02*
D03*
X275384Y595716D02*
D03*
Y589023D02*
D03*
X285325Y595815D02*
D03*
Y589121D02*
D03*
X289944Y595815D02*
D03*
Y589122D02*
D03*
X299558Y595815D02*
D03*
Y589122D02*
D03*
X326381Y569095D02*
D03*
Y562402D02*
D03*
X348035Y566339D02*
D03*
Y559646D02*
D03*
X423724Y695028D02*
D03*
Y688335D02*
D03*
X461913Y714122D02*
D03*
Y707429D02*
D03*
X466539Y714122D02*
D03*
Y707429D02*
D03*
X450495Y662056D02*
D03*
Y668749D02*
D03*
X439768Y662056D02*
D03*
Y668749D02*
D03*
X444293Y662155D02*
D03*
Y668848D02*
D03*
X455219Y662056D02*
D03*
Y668749D02*
D03*
X490062Y659005D02*
D03*
Y665698D02*
D03*
X484747Y659005D02*
D03*
Y665698D02*
D03*
X505810Y666190D02*
D03*
Y672883D02*
D03*
X511027Y665698D02*
D03*
Y672391D02*
D03*
X496165Y704969D02*
D03*
Y698276D02*
D03*
X434452Y662056D02*
D03*
Y668749D02*
D03*
X274694Y467075D02*
D03*
Y473768D02*
D03*
X369675Y449555D02*
D03*
Y456248D02*
D03*
X381190Y456149D02*
D03*
Y449457D02*
D03*
X520968Y679083D02*
D03*
Y672390D02*
D03*
X506303Y699162D02*
D03*
Y692469D02*
D03*
X418015Y706150D02*
D03*
Y712843D02*
D03*
X381499Y392422D02*
D03*
Y385729D02*
D03*
X206978Y464319D02*
D03*
Y471012D02*
D03*
X213769Y464221D02*
D03*
Y470914D02*
D03*
X449398Y365206D02*
D03*
Y358513D02*
D03*
X223527Y522540D02*
D03*
Y515847D02*
D03*
X230009Y522784D02*
D03*
Y529477D02*
D03*
X294773Y589123D02*
D03*
Y595816D02*
D03*
X364950Y445127D02*
D03*
Y438434D02*
D03*
X403926Y582922D02*
D03*
Y576229D02*
D03*
X194084Y481249D02*
D03*
X200777D02*
D03*
X444773Y365107D02*
D03*
X438080D02*
D03*
X359930Y489910D02*
D03*
Y496603D02*
D03*
X398808Y576229D02*
D03*
Y582922D02*
D03*
X373119Y579871D02*
D03*
Y586564D02*
D03*
X387306Y624902D02*
D03*
Y631595D02*
D03*
X496263Y387402D02*
D03*
Y380709D02*
D03*
X502070Y420276D02*
D03*
Y426968D02*
D03*
X507483Y427067D02*
D03*
Y420374D02*
D03*
X491932Y358465D02*
D03*
Y365158D02*
D03*
X431400Y395866D02*
D03*
Y389174D02*
D03*
X411618Y553149D02*
D03*
Y546456D02*
D03*
X436027Y621850D02*
D03*
Y615157D02*
D03*
X436027Y626476D02*
D03*
Y633169D02*
D03*
X384550Y553839D02*
D03*
Y547146D02*
D03*
X387011Y636221D02*
D03*
Y642913D02*
D03*
X471952Y639961D02*
D03*
Y646654D02*
D03*
X351564Y539811D02*
D03*
Y533118D02*
D03*
X210029Y502804D02*
D03*
Y509497D02*
D03*
X420673Y638433D02*
D03*
Y645126D02*
D03*
D136*
X284832Y426031D02*
D03*
Y441582D02*
D03*
D137*
X245561Y453000D02*
D03*
X234340D02*
D03*
X245561Y444240D02*
D03*
X234340D02*
D03*
D138*
X358356Y444929D02*
D03*
Y433708D02*
D03*
X348612Y444929D02*
D03*
Y433708D02*
D03*
D139*
X234635Y474653D02*
D03*
Y500638D02*
D03*
X327253Y496110D02*
D03*
Y470126D02*
D03*
D140*
X307666Y375147D02*
D03*
Y388532D02*
D03*
D141*
X472444Y665894D02*
D03*
X479728D02*
D03*
D142*
X497838Y665697D02*
D03*
Y672981D02*
D03*
D143*
X296151Y412744D02*
D03*
Y401130D02*
D03*
X329911Y413138D02*
D03*
Y401523D02*
D03*
D144*
X258651Y469831D02*
D03*
X350580Y466287D02*
D03*
D145*
X266151Y480559D02*
D03*
X261151D02*
D03*
X256151D02*
D03*
X251151D02*
D03*
X266151Y459102D02*
D03*
X261151D02*
D03*
X256151D02*
D03*
X251151D02*
D03*
X343080Y455559D02*
D03*
X348080D02*
D03*
X353080D02*
D03*
X358080D02*
D03*
X343080Y477016D02*
D03*
X348080D02*
D03*
X353080D02*
D03*
X358080D02*
D03*
D146*
X258749Y518945D02*
D03*
X241820D02*
D03*
X351564Y515500D02*
D03*
X334635D02*
D03*
D147*
X307076Y398571D02*
D03*
X318887D02*
D03*
Y423374D02*
D03*
X307076D02*
D03*
D148*
X458862Y690205D02*
D03*
D149*
X449019Y683316D02*
D03*
Y685284D02*
D03*
Y687253D02*
D03*
Y689221D02*
D03*
Y691189D02*
D03*
Y693158D02*
D03*
Y695126D02*
D03*
Y697095D02*
D03*
X468704D02*
D03*
Y695126D02*
D03*
Y693158D02*
D03*
Y691189D02*
D03*
Y689221D02*
D03*
Y687253D02*
D03*
Y685284D02*
D03*
Y683316D02*
D03*
D150*
X451972Y700048D02*
D03*
X453940D02*
D03*
X455909D02*
D03*
X457877D02*
D03*
X459846D02*
D03*
X461814D02*
D03*
X463783D02*
D03*
X465752D02*
D03*
Y680363D02*
D03*
X463783D02*
D03*
X461814D02*
D03*
X459846D02*
D03*
X457877D02*
D03*
X455909D02*
D03*
X453940D02*
D03*
X451972D02*
D03*
D151*
X332090Y564961D02*
D03*
X341932D02*
D03*
D152*
X438389Y695520D02*
D03*
X429334D02*
D03*
Y688237D02*
D03*
X438389D02*
D03*
D153*
X197824Y500737D02*
D03*
Y493257D02*
D03*
X206682Y496997D02*
D03*
D154*
X278237Y397391D02*
D03*
X270560D02*
D03*
D155*
X424820Y631471D02*
D03*
Y621471D02*
D03*
Y626471D02*
D03*
Y616471D02*
D03*
Y611471D02*
D03*
X409466Y631471D02*
D03*
Y626471D02*
D03*
Y616471D02*
D03*
Y621471D02*
D03*
Y611471D02*
D03*
D156*
X391623Y591387D02*
D03*
Y576426D02*
D03*
D157*
X385914Y583217D02*
D03*
X379222Y581249D02*
D03*
Y585186D02*
D03*
D158*
X217115Y533414D02*
D03*
Y535973D02*
D03*
Y538532D02*
D03*
Y541091D02*
D03*
X200383Y533414D02*
D03*
Y535973D02*
D03*
Y538532D02*
D03*
Y541091D02*
D03*
D159*
X351775Y392618D02*
D03*
Y387618D02*
D03*
Y382618D02*
D03*
Y377618D02*
D03*
Y372618D02*
D03*
Y367618D02*
D03*
Y362618D02*
D03*
X371066Y392618D02*
D03*
Y387618D02*
D03*
Y382618D02*
D03*
Y377618D02*
D03*
Y372618D02*
D03*
Y367618D02*
D03*
Y362618D02*
D03*
D160*
X491972Y487284D02*
D03*
D161*
X506972Y450079D02*
D03*
X501972D02*
D03*
X496972D02*
D03*
X491972D02*
D03*
X486972D02*
D03*
X481972D02*
D03*
X476972D02*
D03*
D162*
X416736Y375295D02*
D03*
X405121D02*
D03*
X416834Y411122D02*
D03*
X405220D02*
D03*
D163*
X422739Y399114D02*
D03*
Y387303D02*
D03*
X397936D02*
D03*
Y399114D02*
D03*
D164*
X548232Y379823D02*
D03*
Y373917D02*
D03*
D165*
X482076Y365284D02*
D03*
Y370284D02*
D03*
Y375284D02*
D03*
Y380284D02*
D03*
X463178Y365284D02*
D03*
Y370284D02*
D03*
Y375284D02*
D03*
Y380284D02*
D03*
D166*
X390751Y514272D02*
D03*
X384846D02*
D03*
X539865Y366339D02*
D03*
X545771D02*
D03*
D167*
X407582Y551378D02*
D03*
Y547441D02*
D03*
X400889D02*
D03*
Y549409D02*
D03*
Y551378D02*
D03*
D168*
X382779Y522244D02*
D03*
X384747D02*
D03*
X386716D02*
D03*
X388684D02*
D03*
X382779Y534842D02*
D03*
X384747D02*
D03*
X386716D02*
D03*
X388684D02*
D03*
D169*
X316427Y582429D02*
D03*
X318395D02*
D03*
X320364D02*
D03*
X322332D02*
D03*
X324301D02*
D03*
X326269D02*
D03*
X328238D02*
D03*
X330206D02*
D03*
X332175D02*
D03*
X334143D02*
D03*
X336112D02*
D03*
X338080D02*
D03*
X340049D02*
D03*
X342017D02*
D03*
X343986D02*
D03*
X345954D02*
D03*
X347923D02*
D03*
X349891D02*
D03*
X351860D02*
D03*
X353828D02*
D03*
Y634594D02*
D03*
X351860D02*
D03*
X349891D02*
D03*
X347923D02*
D03*
X345954D02*
D03*
X343986D02*
D03*
X342017D02*
D03*
X340049D02*
D03*
X338080D02*
D03*
X336112D02*
D03*
X334143D02*
D03*
X332175D02*
D03*
X330206D02*
D03*
X328238D02*
D03*
X326269D02*
D03*
X324301D02*
D03*
X322332D02*
D03*
X320364D02*
D03*
X318395D02*
D03*
X316427D02*
D03*
D170*
X361210Y589811D02*
D03*
Y591779D02*
D03*
Y593748D02*
D03*
Y595716D02*
D03*
Y597685D02*
D03*
Y599653D02*
D03*
Y601622D02*
D03*
Y603590D02*
D03*
Y605559D02*
D03*
Y607527D02*
D03*
Y609496D02*
D03*
Y611464D02*
D03*
Y613433D02*
D03*
Y615401D02*
D03*
Y617370D02*
D03*
Y619338D02*
D03*
Y621307D02*
D03*
Y623275D02*
D03*
Y625244D02*
D03*
Y627212D02*
D03*
X309045D02*
D03*
Y625244D02*
D03*
Y623275D02*
D03*
Y621307D02*
D03*
Y619338D02*
D03*
Y617370D02*
D03*
Y615401D02*
D03*
Y613433D02*
D03*
Y611464D02*
D03*
Y609496D02*
D03*
Y607527D02*
D03*
Y605559D02*
D03*
Y603590D02*
D03*
Y601622D02*
D03*
Y599653D02*
D03*
Y597685D02*
D03*
Y595716D02*
D03*
Y593748D02*
D03*
Y591779D02*
D03*
Y589811D02*
D03*
D171*
X546066Y426279D02*
D03*
X528350D02*
D03*
X529039Y407480D02*
D03*
X546755D02*
D03*
D172*
X327542Y322480D02*
D03*
X391558D02*
D03*
D173*
X386558Y345000D02*
D03*
X332542D02*
D03*
X341558D02*
D03*
X377542D02*
D03*
X345456Y325984D02*
D03*
X349472Y318976D02*
D03*
X353487Y325984D02*
D03*
X357503Y318976D02*
D03*
X361519Y325984D02*
D03*
X365535Y318976D02*
D03*
X369550Y325984D02*
D03*
D174*
X373566Y318976D02*
D03*
D175*
X531893Y1018898D02*
D03*
X118507D02*
D03*
X117917Y330807D02*
D03*
D176*
X157385Y324016D02*
D03*
X435928Y322835D02*
D03*
X251775D02*
D03*
X533960Y323031D02*
D03*
D177*
X167228Y324016D02*
D03*
X445771Y322835D02*
D03*
X261617D02*
D03*
X271460D02*
D03*
X281302D02*
D03*
X543802Y323031D02*
D03*
D178*
X162385Y298516D02*
D03*
X440928Y297335D02*
D03*
X538960Y297532D02*
D03*
D179*
X266539Y297933D02*
D03*
D180*
X497346Y330610D02*
D03*
D181*
X523822Y368012D02*
D03*
X523625Y381693D02*
D03*
X528546Y416536D02*
D03*
X400397Y737795D02*
D03*
X413684Y728543D02*
D03*
X511420Y396555D02*
D03*
X429432Y387500D02*
D03*
X429629Y398327D02*
D03*
X540653Y435433D02*
D03*
X491972Y437008D02*
D03*
X259255Y362992D02*
D03*
D182*
X534058Y388799D02*
D03*
X532365Y384154D02*
D03*
X507779Y385925D02*
D03*
X477365Y399705D02*
D03*
X439428Y387763D02*
D03*
X389865Y389665D02*
D03*
X386519Y401523D02*
D03*
X399117Y533957D02*
D03*
X368409Y596063D02*
D03*
X376662Y585186D02*
D03*
X535043Y369193D02*
D03*
X338854Y397370D02*
D03*
X401972Y638484D02*
D03*
X297346Y589272D02*
D03*
X304743Y596177D02*
D03*
X348282Y575568D02*
D03*
X463437Y649851D02*
D03*
X313881Y597835D02*
D03*
X307976Y556201D02*
D03*
X311027Y555905D02*
D03*
X315209Y600175D02*
D03*
X237095Y539812D02*
D03*
X283454Y561859D02*
D03*
X445762Y689112D02*
D03*
X270560Y402312D02*
D03*
X213375Y489812D02*
D03*
X398710Y573276D02*
D03*
X301495Y583906D02*
D03*
X452745Y367568D02*
D03*
X452647Y360481D02*
D03*
X392720Y616831D02*
D03*
X403251Y611516D02*
D03*
X385239Y613681D02*
D03*
X404236Y626575D02*
D03*
X431598D02*
D03*
X404334Y608957D02*
D03*
X344984Y387697D02*
D03*
X481972Y424823D02*
D03*
X504826Y420374D02*
D03*
X357484Y353248D02*
D03*
X362572Y379990D02*
D03*
X364570Y371063D02*
D03*
X359944Y358661D02*
D03*
X365161Y345965D02*
D03*
X344688Y372638D02*
D03*
X186407Y478099D02*
D03*
X204223Y476008D02*
D03*
X206978Y473572D02*
D03*
X355023Y577756D02*
D03*
X352267Y575886D02*
D03*
X506972Y439488D02*
D03*
X368999Y560138D02*
D03*
Y547441D02*
D03*
X331598Y551968D02*
D03*
X398330Y543996D02*
D03*
X323970Y551230D02*
D03*
X400299Y537402D02*
D03*
X415850Y433760D02*
D03*
X433271Y423425D02*
D03*
X319491Y594685D02*
D03*
X472697Y686794D02*
D03*
X471952Y650591D02*
D03*
X467769Y646408D02*
D03*
X365357Y599606D02*
D03*
X390751Y608957D02*
D03*
X403350Y621358D02*
D03*
X416440Y629035D02*
D03*
X393507Y653248D02*
D03*
X446066Y626673D02*
D03*
X458960Y641043D02*
D03*
X449314Y628248D02*
D03*
X413291Y607185D02*
D03*
X429517Y606904D02*
D03*
X408369Y601772D02*
D03*
X419787Y607087D02*
D03*
X464964Y640699D02*
D03*
X222543Y526575D02*
D03*
X193113Y535973D02*
D03*
X189767Y538532D02*
D03*
X196854Y454528D02*
D03*
X194393Y456004D02*
D03*
X199413Y419783D02*
D03*
X379728Y569980D02*
D03*
X439767Y602067D02*
D03*
X426972Y439567D02*
D03*
X320771Y628248D02*
D03*
X324511Y628642D02*
D03*
X321854Y615354D02*
D03*
X319737Y613069D02*
D03*
X320152Y610433D02*
D03*
X314570Y607874D02*
D03*
X393212Y649114D02*
D03*
X333172Y639272D02*
D03*
X435043Y409842D02*
D03*
X434747Y418701D02*
D03*
X334157Y572146D02*
D03*
X444491Y376279D02*
D03*
X386125Y487992D02*
D03*
X318901Y555610D02*
D03*
X314767Y563386D02*
D03*
X435141Y399508D02*
D03*
X427857Y659547D02*
D03*
X397989Y549681D02*
D03*
X443015Y613189D02*
D03*
X309944Y568209D02*
D03*
X312700Y565650D02*
D03*
X386716Y525787D02*
D03*
X436420Y636811D02*
D03*
X377857Y392618D02*
D03*
X221209Y538558D02*
D03*
X416145Y631791D02*
D03*
X442115Y357874D02*
D03*
X452365Y351969D02*
D03*
X465751Y350787D02*
D03*
X476184Y361221D02*
D03*
D183*
X462503Y685776D02*
D03*
Y693847D02*
D03*
X455023D02*
D03*
X458763Y689812D02*
D03*
X454925Y685678D02*
D03*
M02*
