G04 Layer_Color=255*
%FSLAX25Y25*%
%MOIN*%
G70*
G01*
G75*
%ADD22C,0.05512*%
%ADD58C,0.04724*%
%ADD91C,0.08268*%
%ADD92R,0.05512X0.05512*%
%ADD93C,0.17716*%
%ADD94R,0.07087X0.09842*%
%ADD95O,0.07087X0.09842*%
%ADD96C,0.10630*%
%ADD97C,0.35433*%
%ADD113C,0.05118*%
D22*
X230416Y323032D02*
D03*
X260226Y561859D02*
D03*
X392115Y563434D02*
D03*
X278533Y499358D02*
D03*
X382385Y601279D02*
D03*
X397936Y625591D02*
D03*
X383369Y620669D02*
D03*
X397247Y601279D02*
D03*
X294295Y574902D02*
D03*
X403546Y646161D02*
D03*
X393409Y657185D02*
D03*
X429629Y643946D02*
D03*
X216525Y495619D02*
D03*
X185521Y472686D02*
D03*
X390653Y356299D02*
D03*
X395180Y367421D02*
D03*
X395672Y378445D02*
D03*
X338291Y389567D02*
D03*
X339373Y362500D02*
D03*
X498428Y729430D02*
D03*
X473133Y718800D02*
D03*
X513685Y692272D02*
D03*
X513586Y702705D02*
D03*
X494983Y686516D02*
D03*
X497838Y658512D02*
D03*
X477937Y696505D02*
D03*
X477071Y656642D02*
D03*
X447838Y668060D02*
D03*
X417326Y646260D02*
D03*
X445968Y706595D02*
D03*
X424807Y716682D02*
D03*
X443409Y681052D02*
D03*
X475102Y711367D02*
D03*
X361505Y452016D02*
D03*
X360816Y524063D02*
D03*
X270265Y477606D02*
D03*
Y455559D02*
D03*
X267706Y526524D02*
D03*
X377254Y457134D02*
D03*
X274694Y445323D02*
D03*
X284045Y412842D02*
D03*
X369773Y500047D02*
D03*
X381683Y481248D02*
D03*
X375974Y563236D02*
D03*
X324301Y517173D02*
D03*
X260915Y486661D02*
D03*
X270265Y466583D02*
D03*
X278926Y532823D02*
D03*
X252352Y521405D02*
D03*
X257666Y439123D02*
D03*
X227942Y467468D02*
D03*
X286761Y397370D02*
D03*
X498428Y718899D02*
D03*
X521165Y665304D02*
D03*
X479531Y680757D02*
D03*
X452070Y638779D02*
D03*
X386558Y345000D02*
D03*
X332542D02*
D03*
X341558D02*
D03*
X377542D02*
D03*
X345456Y325984D02*
D03*
X349472Y318976D02*
D03*
X353487Y325984D02*
D03*
X357503Y318976D02*
D03*
X361519Y325984D02*
D03*
X365535Y318976D02*
D03*
X369550Y325984D02*
D03*
D58*
X331092Y558611D02*
D03*
X452071Y655166D02*
D03*
X421362Y668552D02*
D03*
X423035Y684398D02*
D03*
X441539Y693158D02*
D03*
X334537Y465501D02*
D03*
X457877Y647342D02*
D03*
D91*
X327542Y322480D02*
D03*
X391558D02*
D03*
D92*
X373566Y318976D02*
D03*
D93*
X531893Y1018898D02*
D03*
X118507D02*
D03*
X117917Y330807D02*
D03*
D94*
X157385Y324016D02*
D03*
X435928Y322835D02*
D03*
X251775D02*
D03*
X533960Y323031D02*
D03*
D95*
X167228Y324016D02*
D03*
X445771Y322835D02*
D03*
X261617D02*
D03*
X271460D02*
D03*
X281302D02*
D03*
X543802Y323031D02*
D03*
D96*
X266539Y297933D02*
D03*
D97*
X497346Y330610D02*
D03*
D113*
X462405Y656299D02*
D03*
M02*
