G04 Layer_Color=8388736*
%FSLAX25Y25*%
%MOIN*%
G70*
G01*
G75*
%ADD188C,0.00003*%
%ADD189C,0.00003*%
%ADD193C,0.00000*%
%ADD198C,0.00006*%
%ADD200C,0.00005*%
%ADD205C,0.00002*%
%ADD206C,0.00002*%
%ADD213C,0.00002*%
%ADD215C,0.00001*%
%ADD236C,0.00006*%
%ADD260C,0.00001*%
%ADD264C,0.00001*%
%ADD265C,0.00002*%
%ADD268C,0.00003*%
%ADD271C,0.00003*%
%ADD272C,0.00001*%
%ADD273C,0.00002*%
%ADD274C,0.00009*%
%ADD275C,0.00001*%
%ADD276C,0.00002*%
%ADD277C,0.00010*%
%ADD278C,0.00002*%
%ADD279C,0.00002*%
%ADD280C,0.00003*%
%ADD281C,0.00002*%
%ADD282C,0.00002*%
%ADD283C,0.00018*%
%ADD284C,0.00002*%
%ADD285C,0.00003*%
%ADD286C,0.00002*%
G36*
X-2602877Y-1834213D02*
X-2602890D01*
Y-1834203D01*
X-2602877D01*
Y-1834213D01*
D02*
G37*
G36*
X-2602955Y-1834214D02*
X-2602963D01*
Y-1834211D01*
X-2602955D01*
Y-1834214D01*
D02*
G37*
G36*
X-2602977D02*
X-2602985D01*
Y-1834211D01*
X-2602977D01*
Y-1834214D01*
D02*
G37*
G36*
Y-1834209D02*
X-2602985D01*
Y-1834206D01*
X-2602977D01*
Y-1834209D01*
D02*
G37*
G36*
X-2603127Y-1834209D02*
X-2603126D01*
Y-1834210D01*
X-2603127D01*
Y-1834211D01*
X-2603128D01*
Y-1834210D01*
X-2603129D01*
Y-1834209D01*
X-2603128D01*
Y-1834208D01*
X-2603127D01*
Y-1834209D01*
D02*
G37*
G36*
X-2603133D02*
X-2603132D01*
Y-1834210D01*
X-2603133D01*
Y-1834211D01*
X-2603135D01*
Y-1834210D01*
X-2603136D01*
Y-1834209D01*
X-2603135D01*
Y-1834208D01*
X-2603133D01*
Y-1834209D01*
D02*
G37*
G36*
X-2603194Y-1834212D02*
X-2603193D01*
Y-1834214D01*
X-2603194D01*
Y-1834215D01*
X-2603196D01*
Y-1834214D01*
X-2603197D01*
Y-1834212D01*
X-2603196D01*
Y-1834211D01*
X-2603194D01*
Y-1834212D01*
D02*
G37*
G36*
X-2603142Y-1834211D02*
X-2603142D01*
Y-1834216D01*
X-2603142D01*
Y-1834216D01*
X-2603143D01*
Y-1834216D01*
X-2603144D01*
Y-1834211D01*
X-2603143D01*
Y-1834211D01*
X-2603142D01*
Y-1834211D01*
D02*
G37*
G36*
X-2603147D02*
X-2603147D01*
Y-1834216D01*
X-2603147D01*
Y-1834216D01*
X-2603148D01*
Y-1834216D01*
X-2603149D01*
Y-1834211D01*
X-2603148D01*
Y-1834211D01*
X-2603147D01*
Y-1834211D01*
D02*
G37*
G36*
X-2603152D02*
X-2603152D01*
Y-1834216D01*
X-2603152D01*
Y-1834216D01*
X-2603153D01*
Y-1834216D01*
X-2603154D01*
Y-1834211D01*
X-2603153D01*
Y-1834211D01*
X-2603152D01*
Y-1834211D01*
D02*
G37*
G36*
X-2603201Y-1834212D02*
X-2603200D01*
Y-1834214D01*
X-2603201D01*
Y-1834215D01*
X-2603203D01*
Y-1834214D01*
X-2603204D01*
Y-1834212D01*
X-2603203D01*
Y-1834211D01*
X-2603201D01*
Y-1834212D01*
D02*
G37*
G36*
X-2603207D02*
X-2603206D01*
Y-1834214D01*
X-2603207D01*
Y-1834215D01*
X-2603209D01*
Y-1834214D01*
X-2603210D01*
Y-1834212D01*
X-2603209D01*
Y-1834211D01*
X-2603207D01*
Y-1834212D01*
D02*
G37*
G36*
X-2603214D02*
X-2603213D01*
Y-1834214D01*
X-2603214D01*
Y-1834215D01*
X-2603216D01*
Y-1834214D01*
X-2603217D01*
Y-1834212D01*
X-2603216D01*
Y-1834211D01*
X-2603214D01*
Y-1834212D01*
D02*
G37*
G36*
X-2603078Y-1834195D02*
X-2603075D01*
Y-1834201D01*
X-2603078D01*
Y-1834204D01*
X-2603085D01*
Y-1834201D01*
X-2603088D01*
Y-1834195D01*
X-2603085D01*
Y-1834192D01*
X-2603078D01*
Y-1834195D01*
D02*
G37*
G36*
X-2602955Y-1834204D02*
X-2602963D01*
Y-1834201D01*
X-2602955D01*
Y-1834204D01*
D02*
G37*
G36*
X-2602977D02*
X-2602985D01*
Y-1834201D01*
X-2602977D01*
Y-1834204D01*
D02*
G37*
G36*
X-2603054Y-1834199D02*
X-2603053D01*
Y-1834201D01*
X-2603054D01*
Y-1834202D01*
X-2603056D01*
Y-1834201D01*
X-2603057D01*
Y-1834199D01*
X-2603056D01*
Y-1834198D01*
X-2603054D01*
Y-1834199D01*
D02*
G37*
G36*
X-2603059D02*
X-2603058D01*
Y-1834201D01*
X-2603059D01*
Y-1834202D01*
X-2603061D01*
Y-1834201D01*
X-2603062D01*
Y-1834199D01*
X-2603061D01*
Y-1834198D01*
X-2603059D01*
Y-1834199D01*
D02*
G37*
G36*
X-2603209Y-1834200D02*
X-2603209D01*
Y-1834201D01*
X-2603209D01*
Y-1834202D01*
X-2603213D01*
Y-1834201D01*
X-2603214D01*
Y-1834200D01*
X-2603213D01*
Y-1834199D01*
X-2603209D01*
Y-1834200D01*
D02*
G37*
G36*
X-2603035Y-1834203D02*
X-2603034D01*
Y-1834205D01*
X-2603035D01*
Y-1834206D01*
X-2603036D01*
Y-1834205D01*
X-2603038D01*
Y-1834203D01*
X-2603036D01*
Y-1834202D01*
X-2603035D01*
Y-1834203D01*
D02*
G37*
G36*
X-2603133Y-1834204D02*
X-2603132D01*
Y-1834205D01*
X-2603133D01*
Y-1834207D01*
X-2603135D01*
Y-1834205D01*
X-2603136D01*
Y-1834204D01*
X-2603135D01*
Y-1834203D01*
X-2603133D01*
Y-1834204D01*
D02*
G37*
G36*
X-2602937Y-1834208D02*
X-2602943D01*
Y-1834203D01*
X-2602937D01*
Y-1834208D01*
D02*
G37*
G36*
X-2602955Y-1834209D02*
X-2602963D01*
Y-1834206D01*
X-2602955D01*
Y-1834209D01*
D02*
G37*
G36*
X-2603041Y-1834203D02*
X-2603040D01*
Y-1834205D01*
X-2603041D01*
Y-1834206D01*
X-2603043D01*
Y-1834205D01*
X-2603044D01*
Y-1834203D01*
X-2603043D01*
Y-1834202D01*
X-2603041D01*
Y-1834203D01*
D02*
G37*
G36*
X-2603048Y-1834203D02*
X-2603047D01*
Y-1834205D01*
X-2603048D01*
Y-1834206D01*
X-2603050D01*
Y-1834205D01*
X-2603051D01*
Y-1834203D01*
X-2603050D01*
Y-1834202D01*
X-2603048D01*
Y-1834203D01*
D02*
G37*
G36*
X-2603126Y-1834204D02*
X-2603125D01*
Y-1834205D01*
X-2603126D01*
Y-1834207D01*
X-2603128D01*
Y-1834205D01*
X-2603129D01*
Y-1834204D01*
X-2603128D01*
Y-1834203D01*
X-2603126D01*
Y-1834204D01*
D02*
G37*
G36*
X-2603133Y-1834219D02*
X-2603132D01*
Y-1834221D01*
X-2603133D01*
Y-1834222D01*
X-2603135D01*
Y-1834221D01*
X-2603136D01*
Y-1834219D01*
X-2603135D01*
Y-1834218D01*
X-2603133D01*
Y-1834219D01*
D02*
G37*
G36*
X-2603096Y-1834221D02*
X-2603095D01*
Y-1834222D01*
X-2603096D01*
Y-1834224D01*
X-2603098D01*
Y-1834222D01*
X-2603099D01*
Y-1834221D01*
X-2603098D01*
Y-1834220D01*
X-2603096D01*
Y-1834221D01*
D02*
G37*
G36*
X-2603026Y-1834222D02*
X-2603025D01*
Y-1834224D01*
X-2603026D01*
Y-1834225D01*
X-2603028D01*
Y-1834224D01*
X-2603029D01*
Y-1834222D01*
X-2603028D01*
Y-1834221D01*
X-2603026D01*
Y-1834222D01*
D02*
G37*
G36*
X-2603065Y-1834215D02*
X-2603065D01*
Y-1834219D01*
X-2603065D01*
Y-1834220D01*
X-2603066D01*
Y-1834219D01*
X-2603067D01*
Y-1834215D01*
X-2603066D01*
Y-1834214D01*
X-2603065D01*
Y-1834215D01*
D02*
G37*
G36*
X-2603189Y-1834219D02*
X-2603188D01*
Y-1834221D01*
X-2603189D01*
Y-1834222D01*
X-2603190D01*
Y-1834221D01*
X-2603192D01*
Y-1834219D01*
X-2603190D01*
Y-1834218D01*
X-2603189D01*
Y-1834219D01*
D02*
G37*
G36*
X-2603127Y-1834219D02*
X-2603126D01*
Y-1834221D01*
X-2603127D01*
Y-1834222D01*
X-2603128D01*
Y-1834221D01*
X-2603130D01*
Y-1834219D01*
X-2603128D01*
Y-1834218D01*
X-2603127D01*
Y-1834219D01*
D02*
G37*
G36*
X-2603033Y-1834222D02*
X-2603032D01*
Y-1834224D01*
X-2603033D01*
Y-1834225D01*
X-2603035D01*
Y-1834224D01*
X-2603036D01*
Y-1834222D01*
X-2603035D01*
Y-1834221D01*
X-2603033D01*
Y-1834222D01*
D02*
G37*
G36*
X-2603194Y-1834222D02*
X-2603193D01*
Y-1834224D01*
X-2603194D01*
Y-1834225D01*
X-2603196D01*
Y-1834224D01*
X-2603197D01*
Y-1834222D01*
X-2603196D01*
Y-1834221D01*
X-2603194D01*
Y-1834222D01*
D02*
G37*
G36*
X-2603044Y-1834225D02*
X-2603043D01*
Y-1834227D01*
X-2603044D01*
Y-1834228D01*
X-2603045D01*
Y-1834227D01*
X-2603047D01*
Y-1834225D01*
X-2603045D01*
Y-1834224D01*
X-2603044D01*
Y-1834225D01*
D02*
G37*
G36*
X-2603189Y-1834226D02*
X-2603188D01*
Y-1834228D01*
X-2603189D01*
Y-1834229D01*
X-2603190D01*
Y-1834228D01*
X-2603192D01*
Y-1834226D01*
X-2603190D01*
Y-1834225D01*
X-2603189D01*
Y-1834226D01*
D02*
G37*
G36*
X-2602943Y-1834225D02*
X-2602949D01*
Y-1834220D01*
X-2602943D01*
Y-1834225D01*
D02*
G37*
G36*
X-2603201Y-1834222D02*
X-2603200D01*
Y-1834224D01*
X-2603201D01*
Y-1834225D01*
X-2603203D01*
Y-1834224D01*
X-2603204D01*
Y-1834222D01*
X-2603203D01*
Y-1834221D01*
X-2603201D01*
Y-1834222D01*
D02*
G37*
G36*
X-2603171Y-1834217D02*
X-2603168D01*
Y-1834222D01*
X-2603171D01*
Y-1834225D01*
X-2603178D01*
Y-1834222D01*
X-2603181D01*
Y-1834217D01*
X-2603178D01*
Y-1834214D01*
X-2603171D01*
Y-1834217D01*
D02*
G37*
G36*
X-2602955Y-1834219D02*
X-2602963D01*
Y-1834216D01*
X-2602955D01*
Y-1834219D01*
D02*
G37*
G36*
X-2602977D02*
X-2602985D01*
Y-1834216D01*
X-2602977D01*
Y-1834219D01*
D02*
G37*
G36*
X-2603026Y-1834216D02*
X-2603025D01*
Y-1834218D01*
X-2603026D01*
Y-1834219D01*
X-2603028D01*
Y-1834218D01*
X-2603029D01*
Y-1834216D01*
X-2603028D01*
Y-1834215D01*
X-2603026D01*
Y-1834216D01*
D02*
G37*
G36*
X-2603157Y-1834211D02*
X-2603156D01*
Y-1834216D01*
X-2603157D01*
Y-1834216D01*
X-2603159D01*
Y-1834216D01*
X-2603159D01*
Y-1834211D01*
X-2603159D01*
Y-1834211D01*
X-2603157D01*
Y-1834211D01*
D02*
G37*
G36*
X-2603127Y-1834214D02*
X-2603126D01*
Y-1834216D01*
X-2603127D01*
Y-1834217D01*
X-2603128D01*
Y-1834216D01*
X-2603130D01*
Y-1834214D01*
X-2603128D01*
Y-1834213D01*
X-2603127D01*
Y-1834214D01*
D02*
G37*
G36*
X-2603133D02*
X-2603132D01*
Y-1834216D01*
X-2603133D01*
Y-1834217D01*
X-2603135D01*
Y-1834216D01*
X-2603136D01*
Y-1834214D01*
X-2603135D01*
Y-1834213D01*
X-2603133D01*
Y-1834214D01*
D02*
G37*
G36*
X-2603033Y-1834216D02*
X-2603032D01*
Y-1834218D01*
X-2603033D01*
Y-1834219D01*
X-2603035D01*
Y-1834218D01*
X-2603036D01*
Y-1834216D01*
X-2603035D01*
Y-1834215D01*
X-2603033D01*
Y-1834216D01*
D02*
G37*
G36*
X-2603050Y-1834215D02*
X-2603050D01*
Y-1834219D01*
X-2603050D01*
Y-1834220D01*
X-2603052D01*
Y-1834219D01*
X-2603052D01*
Y-1834215D01*
X-2603052D01*
Y-1834214D01*
X-2603050D01*
Y-1834215D01*
D02*
G37*
G36*
X-2603055D02*
X-2603055D01*
Y-1834219D01*
X-2603055D01*
Y-1834220D01*
X-2603057D01*
Y-1834219D01*
X-2603057D01*
Y-1834215D01*
X-2603057D01*
Y-1834214D01*
X-2603055D01*
Y-1834215D01*
D02*
G37*
G36*
X-2603060D02*
X-2603060D01*
Y-1834219D01*
X-2603060D01*
Y-1834220D01*
X-2603061D01*
Y-1834219D01*
X-2603062D01*
Y-1834215D01*
X-2603061D01*
Y-1834214D01*
X-2603060D01*
Y-1834215D01*
D02*
G37*
G36*
X-2603222Y-1834219D02*
X-2603229D01*
Y-1834213D01*
X-2603222D01*
Y-1834219D01*
D02*
G37*
G36*
X-2603194Y-1834217D02*
X-2603193D01*
Y-1834219D01*
X-2603194D01*
Y-1834220D01*
X-2603196D01*
Y-1834219D01*
X-2603197D01*
Y-1834217D01*
X-2603196D01*
Y-1834216D01*
X-2603194D01*
Y-1834217D01*
D02*
G37*
G36*
X-2603201D02*
X-2603200D01*
Y-1834219D01*
X-2603201D01*
Y-1834220D01*
X-2603203D01*
Y-1834219D01*
X-2603204D01*
Y-1834217D01*
X-2603203D01*
Y-1834216D01*
X-2603201D01*
Y-1834217D01*
D02*
G37*
G36*
X-2603057Y-1834160D02*
X-2603056D01*
Y-1834162D01*
X-2603057D01*
Y-1834163D01*
X-2603058D01*
Y-1834162D01*
X-2603059D01*
Y-1834160D01*
X-2603058D01*
Y-1834159D01*
X-2603057D01*
Y-1834160D01*
D02*
G37*
G36*
X-2603178Y-1834164D02*
X-2603177D01*
Y-1834166D01*
X-2603178D01*
Y-1834167D01*
X-2603180D01*
Y-1834166D01*
X-2603181D01*
Y-1834164D01*
X-2603180D01*
Y-1834163D01*
X-2603178D01*
Y-1834164D01*
D02*
G37*
G36*
X-2603197Y-1834166D02*
X-2603195D01*
Y-1834167D01*
X-2603197D01*
Y-1834168D01*
X-2603198D01*
Y-1834167D01*
X-2603199D01*
Y-1834166D01*
X-2603198D01*
Y-1834164D01*
X-2603197D01*
Y-1834166D01*
D02*
G37*
G36*
X-2603207Y-1834160D02*
X-2603206D01*
Y-1834161D01*
X-2603207D01*
Y-1834162D01*
X-2603211D01*
Y-1834161D01*
X-2603211D01*
Y-1834160D01*
X-2603211D01*
Y-1834160D01*
X-2603207D01*
Y-1834160D01*
D02*
G37*
G36*
X-2603141Y-1834160D02*
X-2603140D01*
Y-1834161D01*
X-2603141D01*
Y-1834162D01*
X-2603143D01*
Y-1834161D01*
X-2603144D01*
Y-1834160D01*
X-2603143D01*
Y-1834159D01*
X-2603141D01*
Y-1834160D01*
D02*
G37*
G36*
X-2603148D02*
X-2603146D01*
Y-1834161D01*
X-2603148D01*
Y-1834162D01*
X-2603149D01*
Y-1834161D01*
X-2603150D01*
Y-1834160D01*
X-2603149D01*
Y-1834159D01*
X-2603148D01*
Y-1834160D01*
D02*
G37*
G36*
X-2603203Y-1834166D02*
X-2603202D01*
Y-1834167D01*
X-2603203D01*
Y-1834168D01*
X-2603205D01*
Y-1834167D01*
X-2603206D01*
Y-1834166D01*
X-2603205D01*
Y-1834164D01*
X-2603203D01*
Y-1834166D01*
D02*
G37*
G36*
X-2603132Y-1834174D02*
X-2603131D01*
Y-1834176D01*
X-2603132D01*
Y-1834177D01*
X-2603136D01*
Y-1834176D01*
X-2603137D01*
Y-1834174D01*
X-2603136D01*
Y-1834173D01*
X-2603132D01*
Y-1834174D01*
D02*
G37*
G36*
X-2603139Y-1834174D02*
X-2603139D01*
Y-1834176D01*
X-2603139D01*
Y-1834177D01*
X-2603143D01*
Y-1834176D01*
X-2603144D01*
Y-1834174D01*
X-2603143D01*
Y-1834173D01*
X-2603139D01*
Y-1834174D01*
D02*
G37*
G36*
X-2603039Y-1834176D02*
X-2603038D01*
Y-1834179D01*
X-2603039D01*
Y-1834180D01*
X-2603043D01*
Y-1834179D01*
X-2603044D01*
Y-1834176D01*
X-2603043D01*
Y-1834176D01*
X-2603039D01*
Y-1834176D01*
D02*
G37*
G36*
X-2603178Y-1834170D02*
X-2603177D01*
Y-1834172D01*
X-2603178D01*
Y-1834173D01*
X-2603180D01*
Y-1834172D01*
X-2603181D01*
Y-1834170D01*
X-2603180D01*
Y-1834169D01*
X-2603178D01*
Y-1834170D01*
D02*
G37*
G36*
X-2603197D02*
X-2603195D01*
Y-1834172D01*
X-2603197D01*
Y-1834173D01*
X-2603198D01*
Y-1834172D01*
X-2603199D01*
Y-1834170D01*
X-2603198D01*
Y-1834169D01*
X-2603197D01*
Y-1834170D01*
D02*
G37*
G36*
X-2603203D02*
X-2603202D01*
Y-1834172D01*
X-2603203D01*
Y-1834173D01*
X-2603205D01*
Y-1834172D01*
X-2603206D01*
Y-1834170D01*
X-2603205D01*
Y-1834169D01*
X-2603203D01*
Y-1834170D01*
D02*
G37*
G36*
X-2603190Y-1834152D02*
X-2603189D01*
Y-1834154D01*
X-2603190D01*
Y-1834154D01*
X-2603194D01*
Y-1834154D01*
X-2603194D01*
Y-1834152D01*
X-2603194D01*
Y-1834152D01*
X-2603190D01*
Y-1834152D01*
D02*
G37*
G36*
X-2603207D02*
X-2603206D01*
Y-1834154D01*
X-2603207D01*
Y-1834154D01*
X-2603211D01*
Y-1834154D01*
X-2603211D01*
Y-1834152D01*
X-2603211D01*
Y-1834152D01*
X-2603207D01*
Y-1834152D01*
D02*
G37*
G36*
X-2603057Y-1834153D02*
X-2603056D01*
Y-1834155D01*
X-2603057D01*
Y-1834156D01*
X-2603058D01*
Y-1834155D01*
X-2603059D01*
Y-1834153D01*
X-2603058D01*
Y-1834152D01*
X-2603057D01*
Y-1834153D01*
D02*
G37*
G36*
X-2603220Y-1834145D02*
X-2603226D01*
Y-1834139D01*
X-2603220D01*
Y-1834145D01*
D02*
G37*
G36*
X-2603195Y-1834146D02*
X-2603194D01*
Y-1834147D01*
X-2603195D01*
Y-1834148D01*
X-2603197D01*
Y-1834147D01*
X-2603198D01*
Y-1834146D01*
X-2603197D01*
Y-1834144D01*
X-2603195D01*
Y-1834146D01*
D02*
G37*
G36*
X-2603201D02*
X-2603200D01*
Y-1834147D01*
X-2603201D01*
Y-1834148D01*
X-2603203D01*
Y-1834147D01*
X-2603204D01*
Y-1834146D01*
X-2603203D01*
Y-1834144D01*
X-2603201D01*
Y-1834146D01*
D02*
G37*
G36*
X-2603190Y-1834155D02*
X-2603189D01*
Y-1834156D01*
X-2603190D01*
Y-1834157D01*
X-2603194D01*
Y-1834156D01*
X-2603194D01*
Y-1834155D01*
X-2603194D01*
Y-1834154D01*
X-2603190D01*
Y-1834155D01*
D02*
G37*
G36*
X-2603178Y-1834157D02*
X-2603177D01*
Y-1834159D01*
X-2603178D01*
Y-1834160D01*
X-2603180D01*
Y-1834159D01*
X-2603181D01*
Y-1834157D01*
X-2603180D01*
Y-1834156D01*
X-2603178D01*
Y-1834157D01*
D02*
G37*
G36*
X-2603185D02*
X-2603184D01*
Y-1834159D01*
X-2603185D01*
Y-1834160D01*
X-2603186D01*
Y-1834159D01*
X-2603188D01*
Y-1834157D01*
X-2603186D01*
Y-1834156D01*
X-2603185D01*
Y-1834157D01*
D02*
G37*
G36*
X-2603190Y-1834160D02*
X-2603189D01*
Y-1834161D01*
X-2603190D01*
Y-1834162D01*
X-2603194D01*
Y-1834161D01*
X-2603194D01*
Y-1834160D01*
X-2603194D01*
Y-1834160D01*
X-2603190D01*
Y-1834160D01*
D02*
G37*
G36*
X-2603207Y-1834155D02*
X-2603206D01*
Y-1834156D01*
X-2603207D01*
Y-1834157D01*
X-2603211D01*
Y-1834156D01*
X-2603211D01*
Y-1834155D01*
X-2603211D01*
Y-1834154D01*
X-2603207D01*
Y-1834155D01*
D02*
G37*
G36*
X-2603190Y-1834157D02*
X-2603189D01*
Y-1834159D01*
X-2603190D01*
Y-1834159D01*
X-2603194D01*
Y-1834159D01*
X-2603194D01*
Y-1834157D01*
X-2603194D01*
Y-1834157D01*
X-2603190D01*
Y-1834157D01*
D02*
G37*
G36*
X-2603207D02*
X-2603206D01*
Y-1834159D01*
X-2603207D01*
Y-1834159D01*
X-2603211D01*
Y-1834159D01*
X-2603211D01*
Y-1834157D01*
X-2603211D01*
Y-1834157D01*
X-2603207D01*
Y-1834157D01*
D02*
G37*
G36*
X-2603201Y-1834196D02*
X-2603200D01*
Y-1834198D01*
X-2603201D01*
Y-1834199D01*
X-2603204D01*
Y-1834198D01*
X-2603205D01*
Y-1834196D01*
X-2603204D01*
Y-1834196D01*
X-2603201D01*
Y-1834196D01*
D02*
G37*
G36*
X-2603171Y-1834191D02*
X-2603168D01*
Y-1834196D01*
X-2603171D01*
Y-1834199D01*
X-2603178D01*
Y-1834196D01*
X-2603181D01*
Y-1834191D01*
X-2603178D01*
Y-1834188D01*
X-2603171D01*
Y-1834191D01*
D02*
G37*
G36*
X-2603048Y-1834197D02*
X-2603047D01*
Y-1834198D01*
X-2603048D01*
Y-1834199D01*
X-2603050D01*
Y-1834198D01*
X-2603051D01*
Y-1834197D01*
X-2603050D01*
Y-1834196D01*
X-2603048D01*
Y-1834197D01*
D02*
G37*
G36*
X-2603209Y-1834193D02*
X-2603209D01*
Y-1834194D01*
X-2603209D01*
Y-1834195D01*
X-2603213D01*
Y-1834194D01*
X-2603214D01*
Y-1834193D01*
X-2603213D01*
Y-1834192D01*
X-2603209D01*
Y-1834193D01*
D02*
G37*
G36*
X-2603054Y-1834193D02*
X-2603053D01*
Y-1834195D01*
X-2603054D01*
Y-1834196D01*
X-2603056D01*
Y-1834195D01*
X-2603057D01*
Y-1834193D01*
X-2603056D01*
Y-1834192D01*
X-2603054D01*
Y-1834193D01*
D02*
G37*
G36*
X-2603059D02*
X-2603058D01*
Y-1834195D01*
X-2603059D01*
Y-1834196D01*
X-2603061D01*
Y-1834195D01*
X-2603062D01*
Y-1834193D01*
X-2603061D01*
Y-1834192D01*
X-2603059D01*
Y-1834193D01*
D02*
G37*
G36*
X-2603147Y-1834197D02*
X-2603146D01*
Y-1834199D01*
X-2603147D01*
Y-1834200D01*
X-2603149D01*
Y-1834199D01*
X-2603150D01*
Y-1834197D01*
X-2603149D01*
Y-1834196D01*
X-2603147D01*
Y-1834197D01*
D02*
G37*
G36*
X-2602937Y-1834202D02*
X-2602943D01*
Y-1834197D01*
X-2602937D01*
Y-1834202D01*
D02*
G37*
G36*
X-2603127Y-1834199D02*
X-2603126D01*
Y-1834201D01*
X-2603127D01*
Y-1834202D01*
X-2603128D01*
Y-1834201D01*
X-2603129D01*
Y-1834199D01*
X-2603128D01*
Y-1834198D01*
X-2603127D01*
Y-1834199D01*
D02*
G37*
G36*
X-2603133D02*
X-2603132D01*
Y-1834201D01*
X-2603133D01*
Y-1834202D01*
X-2603135D01*
Y-1834201D01*
X-2603136D01*
Y-1834199D01*
X-2603135D01*
Y-1834198D01*
X-2603133D01*
Y-1834199D01*
D02*
G37*
G36*
X-2603152Y-1834197D02*
X-2603151D01*
Y-1834199D01*
X-2603152D01*
Y-1834200D01*
X-2603153D01*
Y-1834199D01*
X-2603155D01*
Y-1834197D01*
X-2603153D01*
Y-1834196D01*
X-2603152D01*
Y-1834197D01*
D02*
G37*
G36*
X-2603035Y-1834197D02*
X-2603034D01*
Y-1834199D01*
X-2603035D01*
Y-1834200D01*
X-2603037D01*
Y-1834199D01*
X-2603038D01*
Y-1834197D01*
X-2603037D01*
Y-1834196D01*
X-2603035D01*
Y-1834197D01*
D02*
G37*
G36*
X-2603041D02*
X-2603041D01*
Y-1834199D01*
X-2603041D01*
Y-1834200D01*
X-2603043D01*
Y-1834199D01*
X-2603044D01*
Y-1834197D01*
X-2603043D01*
Y-1834196D01*
X-2603041D01*
Y-1834197D01*
D02*
G37*
G36*
X-2603198Y-1834184D02*
X-2603197D01*
Y-1834185D01*
X-2603198D01*
Y-1834187D01*
X-2603200D01*
Y-1834185D01*
X-2603201D01*
Y-1834184D01*
X-2603200D01*
Y-1834183D01*
X-2603198D01*
Y-1834184D01*
D02*
G37*
G36*
X-2603148Y-1834165D02*
X-2603146D01*
Y-1834185D01*
X-2603148D01*
Y-1834187D01*
X-2603152D01*
Y-1834185D01*
X-2603154D01*
Y-1834165D01*
X-2603152D01*
Y-1834163D01*
X-2603148D01*
Y-1834165D01*
D02*
G37*
G36*
X-2603165D02*
X-2603163D01*
Y-1834185D01*
X-2603165D01*
Y-1834187D01*
X-2603169D01*
Y-1834185D01*
X-2603171D01*
Y-1834165D01*
X-2603169D01*
Y-1834163D01*
X-2603165D01*
Y-1834165D01*
D02*
G37*
G36*
X-2603219Y-1834180D02*
X-2603218D01*
Y-1834181D01*
X-2603219D01*
Y-1834182D01*
X-2603221D01*
Y-1834181D01*
X-2603222D01*
Y-1834180D01*
X-2603221D01*
Y-1834179D01*
X-2603219D01*
Y-1834180D01*
D02*
G37*
G36*
X-2603132Y-1834181D02*
X-2603131D01*
Y-1834184D01*
X-2603132D01*
Y-1834185D01*
X-2603136D01*
Y-1834184D01*
X-2603137D01*
Y-1834181D01*
X-2603136D01*
Y-1834180D01*
X-2603132D01*
Y-1834181D01*
D02*
G37*
G36*
X-2603139Y-1834181D02*
X-2603139D01*
Y-1834184D01*
X-2603139D01*
Y-1834185D01*
X-2603143D01*
Y-1834184D01*
X-2603144D01*
Y-1834181D01*
X-2603143D01*
Y-1834180D01*
X-2603139D01*
Y-1834181D01*
D02*
G37*
G36*
X-2603039Y-1834184D02*
X-2603038D01*
Y-1834187D01*
X-2603039D01*
Y-1834188D01*
X-2603043D01*
Y-1834187D01*
X-2603044D01*
Y-1834184D01*
X-2603043D01*
Y-1834183D01*
X-2603039D01*
Y-1834184D01*
D02*
G37*
G36*
X-2603198Y-1834190D02*
X-2603197D01*
Y-1834192D01*
X-2603198D01*
Y-1834193D01*
X-2603200D01*
Y-1834192D01*
X-2603201D01*
Y-1834190D01*
X-2603200D01*
Y-1834189D01*
X-2603198D01*
Y-1834190D01*
D02*
G37*
G36*
X-2603147Y-1834191D02*
X-2603146D01*
Y-1834192D01*
X-2603147D01*
Y-1834193D01*
X-2603149D01*
Y-1834192D01*
X-2603150D01*
Y-1834191D01*
X-2603149D01*
Y-1834190D01*
X-2603147D01*
Y-1834191D01*
D02*
G37*
G36*
X-2603152D02*
X-2603151D01*
Y-1834192D01*
X-2603152D01*
Y-1834193D01*
X-2603153D01*
Y-1834192D01*
X-2603155D01*
Y-1834191D01*
X-2603153D01*
Y-1834190D01*
X-2603152D01*
Y-1834191D01*
D02*
G37*
G36*
X-2603219Y-1834186D02*
X-2603218D01*
Y-1834188D01*
X-2603219D01*
Y-1834189D01*
X-2603221D01*
Y-1834188D01*
X-2603222D01*
Y-1834186D01*
X-2603221D01*
Y-1834185D01*
X-2603219D01*
Y-1834186D01*
D02*
G37*
G36*
X-2603056Y-1834169D02*
X-2603053D01*
Y-1834188D01*
X-2603056D01*
Y-1834191D01*
X-2603059D01*
Y-1834188D01*
X-2603062D01*
Y-1834169D01*
X-2603059D01*
Y-1834167D01*
X-2603056D01*
Y-1834169D01*
D02*
G37*
G36*
X-2603072D02*
X-2603070D01*
Y-1834188D01*
X-2603072D01*
Y-1834191D01*
X-2603076D01*
Y-1834188D01*
X-2603078D01*
Y-1834169D01*
X-2603076D01*
Y-1834167D01*
X-2603072D01*
Y-1834169D01*
D02*
G37*
G36*
X-2603167Y-1834267D02*
X-2603166D01*
Y-1834269D01*
X-2603167D01*
Y-1834270D01*
X-2603169D01*
Y-1834269D01*
X-2603170D01*
Y-1834267D01*
X-2603169D01*
Y-1834266D01*
X-2603167D01*
Y-1834267D01*
D02*
G37*
G36*
X-2603174D02*
X-2603173D01*
Y-1834269D01*
X-2603174D01*
Y-1834270D01*
X-2603175D01*
Y-1834269D01*
X-2603176D01*
Y-1834267D01*
X-2603175D01*
Y-1834266D01*
X-2603174D01*
Y-1834267D01*
D02*
G37*
G36*
X-2603114Y-1834266D02*
X-2603111D01*
Y-1834271D01*
X-2603114D01*
Y-1834273D01*
X-2603135D01*
Y-1834271D01*
X-2603137D01*
Y-1834266D01*
X-2603135D01*
Y-1834263D01*
X-2603114D01*
Y-1834266D01*
D02*
G37*
G36*
X-2603167Y-1834262D02*
X-2603166D01*
Y-1834264D01*
X-2603167D01*
Y-1834265D01*
X-2603169D01*
Y-1834264D01*
X-2603170D01*
Y-1834262D01*
X-2603169D01*
Y-1834261D01*
X-2603167D01*
Y-1834262D01*
D02*
G37*
G36*
X-2603174D02*
X-2603173D01*
Y-1834264D01*
X-2603174D01*
Y-1834265D01*
X-2603175D01*
Y-1834264D01*
X-2603176D01*
Y-1834262D01*
X-2603175D01*
Y-1834261D01*
X-2603174D01*
Y-1834262D01*
D02*
G37*
G36*
X-2602902Y-1834265D02*
X-2602916D01*
Y-1834255D01*
X-2602902D01*
Y-1834265D01*
D02*
G37*
G36*
X-2603167Y-1834273D02*
X-2603166D01*
Y-1834274D01*
X-2603167D01*
Y-1834275D01*
X-2603169D01*
Y-1834274D01*
X-2603170D01*
Y-1834273D01*
X-2603169D01*
Y-1834271D01*
X-2603167D01*
Y-1834273D01*
D02*
G37*
G36*
Y-1834278D02*
X-2603166D01*
Y-1834279D01*
X-2603167D01*
Y-1834280D01*
X-2603169D01*
Y-1834279D01*
X-2603170D01*
Y-1834278D01*
X-2603169D01*
Y-1834277D01*
X-2603167D01*
Y-1834278D01*
D02*
G37*
G36*
X-2603174D02*
X-2603173D01*
Y-1834279D01*
X-2603174D01*
Y-1834280D01*
X-2603175D01*
Y-1834279D01*
X-2603176D01*
Y-1834278D01*
X-2603175D01*
Y-1834277D01*
X-2603174D01*
Y-1834278D01*
D02*
G37*
G36*
X-2603077Y-1834280D02*
X-2603076D01*
Y-1834282D01*
X-2603077D01*
Y-1834284D01*
X-2603081D01*
Y-1834282D01*
X-2603083D01*
Y-1834280D01*
X-2603081D01*
Y-1834278D01*
X-2603077D01*
Y-1834280D01*
D02*
G37*
G36*
X-2603174Y-1834273D02*
X-2603173D01*
Y-1834274D01*
X-2603174D01*
Y-1834275D01*
X-2603175D01*
Y-1834274D01*
X-2603176D01*
Y-1834273D01*
X-2603175D01*
Y-1834271D01*
X-2603174D01*
Y-1834273D01*
D02*
G37*
G36*
X-2603089Y-1834267D02*
X-2603087D01*
Y-1834274D01*
X-2603089D01*
Y-1834276D01*
X-2603092D01*
Y-1834274D01*
X-2603094D01*
Y-1834267D01*
X-2603092D01*
Y-1834265D01*
X-2603089D01*
Y-1834267D01*
D02*
G37*
G36*
X-2603100D02*
X-2603098D01*
Y-1834274D01*
X-2603100D01*
Y-1834276D01*
X-2603104D01*
Y-1834274D01*
X-2603106D01*
Y-1834267D01*
X-2603104D01*
Y-1834265D01*
X-2603100D01*
Y-1834267D01*
D02*
G37*
G36*
X-2603174Y-1834256D02*
X-2603173D01*
Y-1834258D01*
X-2603174D01*
Y-1834259D01*
X-2603175D01*
Y-1834258D01*
X-2603176D01*
Y-1834256D01*
X-2603175D01*
Y-1834255D01*
X-2603174D01*
Y-1834256D01*
D02*
G37*
G36*
X-2602949Y-1834258D02*
X-2602947D01*
Y-1834260D01*
X-2602949D01*
Y-1834261D01*
X-2602950D01*
Y-1834260D01*
X-2602951D01*
Y-1834258D01*
X-2602950D01*
Y-1834257D01*
X-2602949D01*
Y-1834258D01*
D02*
G37*
G36*
X-2602958Y-1834257D02*
X-2602956D01*
Y-1834260D01*
X-2602958D01*
Y-1834262D01*
X-2602965D01*
Y-1834260D01*
X-2602967D01*
Y-1834257D01*
X-2602965D01*
Y-1834255D01*
X-2602958D01*
Y-1834257D01*
D02*
G37*
G36*
X-2603043Y-1834255D02*
X-2603042D01*
Y-1834257D01*
X-2603043D01*
Y-1834258D01*
X-2603045D01*
Y-1834257D01*
X-2603046D01*
Y-1834255D01*
X-2603045D01*
Y-1834254D01*
X-2603043D01*
Y-1834255D01*
D02*
G37*
G36*
X-2603114Y-1834250D02*
X-2603111D01*
Y-1834255D01*
X-2603114D01*
Y-1834258D01*
X-2603135D01*
Y-1834255D01*
X-2603137D01*
Y-1834250D01*
X-2603135D01*
Y-1834247D01*
X-2603114D01*
Y-1834250D01*
D02*
G37*
G36*
X-2603167Y-1834256D02*
X-2603166D01*
Y-1834258D01*
X-2603167D01*
Y-1834259D01*
X-2603169D01*
Y-1834258D01*
X-2603170D01*
Y-1834256D01*
X-2603169D01*
Y-1834255D01*
X-2603167D01*
Y-1834256D01*
D02*
G37*
G36*
X-2602983Y-1834257D02*
X-2602981D01*
Y-1834260D01*
X-2602983D01*
Y-1834262D01*
X-2602990D01*
Y-1834260D01*
X-2602992D01*
Y-1834257D01*
X-2602990D01*
Y-1834255D01*
X-2602983D01*
Y-1834257D01*
D02*
G37*
G36*
X-2603058Y-1834258D02*
X-2603057D01*
Y-1834262D01*
X-2603058D01*
Y-1834263D01*
X-2603063D01*
Y-1834262D01*
X-2603064D01*
Y-1834258D01*
X-2603063D01*
Y-1834258D01*
X-2603058D01*
Y-1834258D01*
D02*
G37*
G36*
X-2603092Y-1834262D02*
X-2603091D01*
Y-1834263D01*
X-2603092D01*
Y-1834265D01*
X-2603094D01*
Y-1834263D01*
X-2603095D01*
Y-1834262D01*
X-2603094D01*
Y-1834261D01*
X-2603092D01*
Y-1834262D01*
D02*
G37*
G36*
X-2603098D02*
X-2603097D01*
Y-1834263D01*
X-2603098D01*
Y-1834265D01*
X-2603100D01*
Y-1834263D01*
X-2603101D01*
Y-1834262D01*
X-2603100D01*
Y-1834261D01*
X-2603098D01*
Y-1834262D01*
D02*
G37*
G36*
X-2602923Y-1834256D02*
X-2602921D01*
Y-1834260D01*
X-2602923D01*
Y-1834262D01*
X-2602925D01*
Y-1834260D01*
X-2602927D01*
Y-1834256D01*
X-2602925D01*
Y-1834255D01*
X-2602923D01*
Y-1834256D01*
D02*
G37*
G36*
X-2602934D02*
X-2602933D01*
Y-1834260D01*
X-2602934D01*
Y-1834262D01*
X-2602937D01*
Y-1834260D01*
X-2602938D01*
Y-1834256D01*
X-2602937D01*
Y-1834255D01*
X-2602934D01*
Y-1834256D01*
D02*
G37*
G36*
X-2603048Y-1834258D02*
X-2603047D01*
Y-1834262D01*
X-2603048D01*
Y-1834263D01*
X-2603053D01*
Y-1834262D01*
X-2603054D01*
Y-1834258D01*
X-2603053D01*
Y-1834258D01*
X-2603048D01*
Y-1834258D01*
D02*
G37*
G36*
X-2602941Y-1834354D02*
X-2602940D01*
Y-1834356D01*
X-2602941D01*
Y-1834357D01*
X-2602943D01*
Y-1834356D01*
X-2602944D01*
Y-1834354D01*
X-2602943D01*
Y-1834353D01*
X-2602941D01*
Y-1834354D01*
D02*
G37*
G36*
X-2602985Y-1834356D02*
X-2602984D01*
Y-1834358D01*
X-2602985D01*
Y-1834359D01*
X-2602987D01*
Y-1834358D01*
X-2602988D01*
Y-1834356D01*
X-2602987D01*
Y-1834355D01*
X-2602985D01*
Y-1834356D01*
D02*
G37*
G36*
X-2602882Y-1834359D02*
X-2602889D01*
Y-1834355D01*
X-2602882D01*
Y-1834359D01*
D02*
G37*
G36*
X-2602977Y-1834345D02*
X-2602984D01*
Y-1834339D01*
X-2602977D01*
Y-1834345D01*
D02*
G37*
G36*
X-2602999Y-1834346D02*
X-2602997D01*
Y-1834348D01*
X-2602999D01*
Y-1834349D01*
X-2603000D01*
Y-1834348D01*
X-2603001D01*
Y-1834346D01*
X-2603000D01*
Y-1834345D01*
X-2602999D01*
Y-1834346D01*
D02*
G37*
G36*
Y-1834353D02*
X-2602997D01*
Y-1834355D01*
X-2602999D01*
Y-1834356D01*
X-2603000D01*
Y-1834355D01*
X-2603001D01*
Y-1834353D01*
X-2603000D01*
Y-1834352D01*
X-2602999D01*
Y-1834353D01*
D02*
G37*
G36*
X-2602925Y-1834356D02*
X-2602924D01*
Y-1834358D01*
X-2602925D01*
Y-1834359D01*
X-2602927D01*
Y-1834358D01*
X-2602928D01*
Y-1834356D01*
X-2602927D01*
Y-1834355D01*
X-2602925D01*
Y-1834356D01*
D02*
G37*
G36*
X-2602985Y-1834363D02*
X-2602984D01*
Y-1834365D01*
X-2602985D01*
Y-1834366D01*
X-2602987D01*
Y-1834365D01*
X-2602988D01*
Y-1834363D01*
X-2602987D01*
Y-1834362D01*
X-2602985D01*
Y-1834363D01*
D02*
G37*
G36*
X-2602925Y-1834363D02*
X-2602924D01*
Y-1834365D01*
X-2602925D01*
Y-1834366D01*
X-2602927D01*
Y-1834365D01*
X-2602928D01*
Y-1834363D01*
X-2602927D01*
Y-1834362D01*
X-2602925D01*
Y-1834363D01*
D02*
G37*
G36*
X-2602882Y-1834370D02*
X-2602889D01*
Y-1834365D01*
X-2602882D01*
Y-1834370D01*
D02*
G37*
G36*
X-2602960Y-1834361D02*
X-2602959D01*
Y-1834362D01*
X-2602960D01*
Y-1834364D01*
X-2602962D01*
Y-1834362D01*
X-2602963D01*
Y-1834361D01*
X-2602962D01*
Y-1834360D01*
X-2602960D01*
Y-1834361D01*
D02*
G37*
G36*
X-2602967D02*
X-2602966D01*
Y-1834362D01*
X-2602967D01*
Y-1834364D01*
X-2602968D01*
Y-1834362D01*
X-2602970D01*
Y-1834361D01*
X-2602968D01*
Y-1834360D01*
X-2602967D01*
Y-1834361D01*
D02*
G37*
G36*
X-2602941Y-1834361D02*
X-2602940D01*
Y-1834362D01*
X-2602941D01*
Y-1834364D01*
X-2602943D01*
Y-1834362D01*
X-2602944D01*
Y-1834361D01*
X-2602943D01*
Y-1834360D01*
X-2602941D01*
Y-1834361D01*
D02*
G37*
G36*
X-2603129Y-1834295D02*
X-2603128D01*
Y-1834299D01*
X-2603129D01*
Y-1834299D01*
X-2603132D01*
Y-1834299D01*
X-2603133D01*
Y-1834295D01*
X-2603132D01*
Y-1834294D01*
X-2603129D01*
Y-1834295D01*
D02*
G37*
G36*
X-2603137D02*
X-2603136D01*
Y-1834299D01*
X-2603137D01*
Y-1834299D01*
X-2603140D01*
Y-1834299D01*
X-2603141D01*
Y-1834295D01*
X-2603140D01*
Y-1834294D01*
X-2603137D01*
Y-1834295D01*
D02*
G37*
G36*
X-2603089Y-1834292D02*
X-2603087D01*
Y-1834299D01*
X-2603089D01*
Y-1834301D01*
X-2603092D01*
Y-1834299D01*
X-2603094D01*
Y-1834292D01*
X-2603092D01*
Y-1834290D01*
X-2603089D01*
Y-1834292D01*
D02*
G37*
G36*
X-2603111Y-1834280D02*
X-2603109D01*
Y-1834282D01*
X-2603111D01*
Y-1834284D01*
X-2603115D01*
Y-1834282D01*
X-2603116D01*
Y-1834280D01*
X-2603115D01*
Y-1834279D01*
X-2603111D01*
Y-1834280D01*
D02*
G37*
G36*
X-2603077Y-1834291D02*
X-2603076D01*
Y-1834294D01*
X-2603077D01*
Y-1834295D01*
X-2603081D01*
Y-1834294D01*
X-2603083D01*
Y-1834291D01*
X-2603081D01*
Y-1834290D01*
X-2603077D01*
Y-1834291D01*
D02*
G37*
G36*
X-2603111Y-1834292D02*
X-2603109D01*
Y-1834294D01*
X-2603111D01*
Y-1834296D01*
X-2603115D01*
Y-1834294D01*
X-2603116D01*
Y-1834292D01*
X-2603115D01*
Y-1834290D01*
X-2603111D01*
Y-1834292D01*
D02*
G37*
G36*
X-2603100Y-1834292D02*
X-2603098D01*
Y-1834299D01*
X-2603100D01*
Y-1834301D01*
X-2603104D01*
Y-1834299D01*
X-2603106D01*
Y-1834292D01*
X-2603104D01*
Y-1834290D01*
X-2603100D01*
Y-1834292D01*
D02*
G37*
G36*
X-2603094Y-1834309D02*
X-2603093D01*
Y-1834311D01*
X-2603094D01*
Y-1834312D01*
X-2603096D01*
Y-1834311D01*
X-2603097D01*
Y-1834309D01*
X-2603096D01*
Y-1834308D01*
X-2603094D01*
Y-1834309D01*
D02*
G37*
G36*
Y-1834316D02*
X-2603093D01*
Y-1834318D01*
X-2603094D01*
Y-1834319D01*
X-2603096D01*
Y-1834318D01*
X-2603097D01*
Y-1834316D01*
X-2603096D01*
Y-1834315D01*
X-2603094D01*
Y-1834316D01*
D02*
G37*
G36*
X-2603099Y-1834322D02*
X-2603103D01*
Y-1834316D01*
X-2603099D01*
Y-1834322D01*
D02*
G37*
G36*
X-2603087Y-1834304D02*
X-2603086D01*
Y-1834305D01*
X-2603087D01*
Y-1834306D01*
X-2603089D01*
Y-1834305D01*
X-2603090D01*
Y-1834304D01*
X-2603089D01*
Y-1834303D01*
X-2603087D01*
Y-1834304D01*
D02*
G37*
G36*
X-2603094D02*
X-2603093D01*
Y-1834305D01*
X-2603094D01*
Y-1834306D01*
X-2603095D01*
Y-1834305D01*
X-2603097D01*
Y-1834304D01*
X-2603095D01*
Y-1834303D01*
X-2603094D01*
Y-1834304D01*
D02*
G37*
G36*
X-2603099Y-1834309D02*
X-2603103D01*
Y-1834302D01*
X-2603099D01*
Y-1834309D01*
D02*
G37*
G36*
X-2602958Y-1834231D02*
X-2602957D01*
Y-1834235D01*
X-2602958D01*
Y-1834237D01*
X-2602961D01*
Y-1834235D01*
X-2602962D01*
Y-1834231D01*
X-2602961D01*
Y-1834230D01*
X-2602958D01*
Y-1834231D01*
D02*
G37*
G36*
X-2602970D02*
X-2602968D01*
Y-1834235D01*
X-2602970D01*
Y-1834237D01*
X-2602972D01*
Y-1834235D01*
X-2602974D01*
Y-1834231D01*
X-2602972D01*
Y-1834230D01*
X-2602970D01*
Y-1834231D01*
D02*
G37*
G36*
X-2602902Y-1834237D02*
X-2602916D01*
Y-1834228D01*
X-2602902D01*
Y-1834237D01*
D02*
G37*
G36*
X-2603133Y-1834231D02*
X-2603132D01*
Y-1834233D01*
X-2603133D01*
Y-1834234D01*
X-2603135D01*
Y-1834233D01*
X-2603136D01*
Y-1834231D01*
X-2603135D01*
Y-1834230D01*
X-2603133D01*
Y-1834231D01*
D02*
G37*
G36*
X-2603044Y-1834232D02*
X-2603043D01*
Y-1834233D01*
X-2603044D01*
Y-1834235D01*
X-2603045D01*
Y-1834233D01*
X-2603047D01*
Y-1834232D01*
X-2603045D01*
Y-1834231D01*
X-2603044D01*
Y-1834232D01*
D02*
G37*
G36*
X-2603164Y-1834233D02*
X-2603163D01*
Y-1834235D01*
X-2603164D01*
Y-1834236D01*
X-2603166D01*
Y-1834235D01*
X-2603167D01*
Y-1834233D01*
X-2603166D01*
Y-1834232D01*
X-2603164D01*
Y-1834233D01*
D02*
G37*
G36*
X-2603142Y-1834233D02*
X-2603142D01*
Y-1834237D01*
X-2603142D01*
Y-1834238D01*
X-2603143D01*
Y-1834237D01*
X-2603144D01*
Y-1834233D01*
X-2603143D01*
Y-1834232D01*
X-2603142D01*
Y-1834233D01*
D02*
G37*
G36*
X-2603127Y-1834236D02*
X-2603126D01*
Y-1834238D01*
X-2603127D01*
Y-1834239D01*
X-2603128D01*
Y-1834238D01*
X-2603130D01*
Y-1834236D01*
X-2603128D01*
Y-1834235D01*
X-2603127D01*
Y-1834236D01*
D02*
G37*
G36*
X-2603133D02*
X-2603132D01*
Y-1834238D01*
X-2603133D01*
Y-1834239D01*
X-2603135D01*
Y-1834238D01*
X-2603136D01*
Y-1834236D01*
X-2603135D01*
Y-1834235D01*
X-2603133D01*
Y-1834236D01*
D02*
G37*
G36*
X-2603032Y-1834237D02*
X-2603031D01*
Y-1834239D01*
X-2603032D01*
Y-1834240D01*
X-2603034D01*
Y-1834239D01*
X-2603035D01*
Y-1834237D01*
X-2603034D01*
Y-1834236D01*
X-2603032D01*
Y-1834237D01*
D02*
G37*
G36*
X-2603147Y-1834233D02*
X-2603147D01*
Y-1834237D01*
X-2603147D01*
Y-1834238D01*
X-2603148D01*
Y-1834237D01*
X-2603149D01*
Y-1834233D01*
X-2603148D01*
Y-1834232D01*
X-2603147D01*
Y-1834233D01*
D02*
G37*
G36*
X-2603152D02*
X-2603152D01*
Y-1834237D01*
X-2603152D01*
Y-1834238D01*
X-2603153D01*
Y-1834237D01*
X-2603154D01*
Y-1834233D01*
X-2603153D01*
Y-1834232D01*
X-2603152D01*
Y-1834233D01*
D02*
G37*
G36*
X-2603157D02*
X-2603156D01*
Y-1834237D01*
X-2603157D01*
Y-1834238D01*
X-2603159D01*
Y-1834237D01*
X-2603159D01*
Y-1834233D01*
X-2603159D01*
Y-1834232D01*
X-2603157D01*
Y-1834233D01*
D02*
G37*
G36*
X-2603164Y-1834227D02*
X-2603163D01*
Y-1834228D01*
X-2603164D01*
Y-1834229D01*
X-2603166D01*
Y-1834228D01*
X-2603167D01*
Y-1834227D01*
X-2603166D01*
Y-1834225D01*
X-2603164D01*
Y-1834227D01*
D02*
G37*
G36*
X-2603078Y-1834221D02*
X-2603075D01*
Y-1834227D01*
X-2603078D01*
Y-1834230D01*
X-2603085D01*
Y-1834227D01*
X-2603088D01*
Y-1834221D01*
X-2603085D01*
Y-1834218D01*
X-2603078D01*
Y-1834221D01*
D02*
G37*
G36*
X-2603096Y-1834227D02*
X-2603095D01*
Y-1834229D01*
X-2603096D01*
Y-1834230D01*
X-2603098D01*
Y-1834229D01*
X-2603099D01*
Y-1834227D01*
X-2603098D01*
Y-1834226D01*
X-2603096D01*
Y-1834227D01*
D02*
G37*
G36*
X-2603133Y-1834226D02*
X-2603132D01*
Y-1834228D01*
X-2603133D01*
Y-1834229D01*
X-2603135D01*
Y-1834228D01*
X-2603136D01*
Y-1834226D01*
X-2603135D01*
Y-1834225D01*
X-2603133D01*
Y-1834226D01*
D02*
G37*
G36*
X-2603127D02*
X-2603126D01*
Y-1834228D01*
X-2603127D01*
Y-1834229D01*
X-2603128D01*
Y-1834228D01*
X-2603130D01*
Y-1834226D01*
X-2603128D01*
Y-1834225D01*
X-2603127D01*
Y-1834226D01*
D02*
G37*
G36*
X-2603147Y-1834222D02*
X-2603144D01*
Y-1834227D01*
X-2603147D01*
Y-1834229D01*
X-2603154D01*
Y-1834227D01*
X-2603157D01*
Y-1834222D01*
X-2603154D01*
Y-1834219D01*
X-2603147D01*
Y-1834222D01*
D02*
G37*
G36*
X-2602943Y-1834231D02*
X-2602949D01*
Y-1834226D01*
X-2602943D01*
Y-1834231D01*
D02*
G37*
G36*
X-2603194Y-1834229D02*
X-2603193D01*
Y-1834231D01*
X-2603194D01*
Y-1834232D01*
X-2603196D01*
Y-1834231D01*
X-2603197D01*
Y-1834229D01*
X-2603196D01*
Y-1834228D01*
X-2603194D01*
Y-1834229D01*
D02*
G37*
G36*
X-2603055Y-1834225D02*
X-2603052D01*
Y-1834230D01*
X-2603055D01*
Y-1834233D01*
X-2603062D01*
Y-1834230D01*
X-2603065D01*
Y-1834225D01*
X-2603062D01*
Y-1834223D01*
X-2603055D01*
Y-1834225D01*
D02*
G37*
G36*
X-2603127Y-1834231D02*
X-2603126D01*
Y-1834233D01*
X-2603127D01*
Y-1834234D01*
X-2603128D01*
Y-1834233D01*
X-2603130D01*
Y-1834231D01*
X-2603128D01*
Y-1834230D01*
X-2603127D01*
Y-1834231D01*
D02*
G37*
G36*
X-2603026Y-1834228D02*
X-2603025D01*
Y-1834230D01*
X-2603026D01*
Y-1834231D01*
X-2603028D01*
Y-1834230D01*
X-2603029D01*
Y-1834228D01*
X-2603028D01*
Y-1834227D01*
X-2603026D01*
Y-1834228D01*
D02*
G37*
G36*
X-2603033D02*
X-2603032D01*
Y-1834230D01*
X-2603033D01*
Y-1834231D01*
X-2603035D01*
Y-1834230D01*
X-2603036D01*
Y-1834228D01*
X-2603035D01*
Y-1834227D01*
X-2603033D01*
Y-1834228D01*
D02*
G37*
G36*
X-2603201Y-1834229D02*
X-2603200D01*
Y-1834231D01*
X-2603201D01*
Y-1834232D01*
X-2603203D01*
Y-1834231D01*
X-2603204D01*
Y-1834229D01*
X-2603203D01*
Y-1834228D01*
X-2603201D01*
Y-1834229D01*
D02*
G37*
G36*
X-2602983Y-1834245D02*
X-2602981D01*
Y-1834248D01*
X-2602983D01*
Y-1834250D01*
X-2602990D01*
Y-1834248D01*
X-2602992D01*
Y-1834245D01*
X-2602990D01*
Y-1834243D01*
X-2602983D01*
Y-1834245D01*
D02*
G37*
G36*
X-2603073Y-1834247D02*
X-2603072D01*
Y-1834249D01*
X-2603073D01*
Y-1834250D01*
X-2603074D01*
Y-1834249D01*
X-2603075D01*
Y-1834247D01*
X-2603074D01*
Y-1834246D01*
X-2603073D01*
Y-1834247D01*
D02*
G37*
G36*
X-2603141Y-1834248D02*
X-2603140D01*
Y-1834249D01*
X-2603141D01*
Y-1834250D01*
X-2603143D01*
Y-1834249D01*
X-2603144D01*
Y-1834248D01*
X-2603143D01*
Y-1834246D01*
X-2603141D01*
Y-1834248D01*
D02*
G37*
G36*
X-2603038Y-1834244D02*
X-2603037D01*
Y-1834245D01*
X-2603038D01*
Y-1834246D01*
X-2603040D01*
Y-1834245D01*
X-2603041D01*
Y-1834244D01*
X-2603040D01*
Y-1834242D01*
X-2603038D01*
Y-1834244D01*
D02*
G37*
G36*
X-2603027Y-1834244D02*
X-2603026D01*
Y-1834245D01*
X-2603027D01*
Y-1834247D01*
X-2603029D01*
Y-1834245D01*
X-2603030D01*
Y-1834244D01*
X-2603029D01*
Y-1834243D01*
X-2603027D01*
Y-1834244D01*
D02*
G37*
G36*
X-2602958Y-1834245D02*
X-2602956D01*
Y-1834248D01*
X-2602958D01*
Y-1834250D01*
X-2602965D01*
Y-1834248D01*
X-2602967D01*
Y-1834245D01*
X-2602965D01*
Y-1834243D01*
X-2602958D01*
Y-1834245D01*
D02*
G37*
G36*
X-2603043Y-1834248D02*
X-2603042D01*
Y-1834250D01*
X-2603043D01*
Y-1834251D01*
X-2603045D01*
Y-1834250D01*
X-2603046D01*
Y-1834248D01*
X-2603045D01*
Y-1834247D01*
X-2603043D01*
Y-1834248D01*
D02*
G37*
G36*
X-2603173Y-1834247D02*
X-2603172D01*
Y-1834253D01*
X-2603173D01*
Y-1834254D01*
X-2603176D01*
Y-1834253D01*
X-2603177D01*
Y-1834247D01*
X-2603176D01*
Y-1834246D01*
X-2603173D01*
Y-1834247D01*
D02*
G37*
G36*
X-2602949Y-1834252D02*
X-2602947D01*
Y-1834254D01*
X-2602949D01*
Y-1834255D01*
X-2602950D01*
Y-1834254D01*
X-2602951D01*
Y-1834252D01*
X-2602950D01*
Y-1834251D01*
X-2602949D01*
Y-1834252D01*
D02*
G37*
G36*
X-2603073Y-1834254D02*
X-2603072D01*
Y-1834256D01*
X-2603073D01*
Y-1834257D01*
X-2603074D01*
Y-1834256D01*
X-2603075D01*
Y-1834254D01*
X-2603074D01*
Y-1834253D01*
X-2603073D01*
Y-1834254D01*
D02*
G37*
G36*
X-2603048Y-1834247D02*
X-2603047D01*
Y-1834251D01*
X-2603048D01*
Y-1834252D01*
X-2603053D01*
Y-1834251D01*
X-2603054D01*
Y-1834247D01*
X-2603053D01*
Y-1834246D01*
X-2603048D01*
Y-1834247D01*
D02*
G37*
G36*
X-2603058D02*
X-2603057D01*
Y-1834251D01*
X-2603058D01*
Y-1834252D01*
X-2603063D01*
Y-1834251D01*
X-2603064D01*
Y-1834247D01*
X-2603063D01*
Y-1834246D01*
X-2603058D01*
Y-1834247D01*
D02*
G37*
G36*
X-2603162Y-1834247D02*
X-2603161D01*
Y-1834253D01*
X-2603162D01*
Y-1834254D01*
X-2603165D01*
Y-1834253D01*
X-2603166D01*
Y-1834247D01*
X-2603165D01*
Y-1834246D01*
X-2603162D01*
Y-1834247D01*
D02*
G37*
G36*
X-2603050Y-1834236D02*
X-2603050D01*
Y-1834241D01*
X-2603050D01*
Y-1834242D01*
X-2603052D01*
Y-1834241D01*
X-2603052D01*
Y-1834236D01*
X-2603052D01*
Y-1834236D01*
X-2603050D01*
Y-1834236D01*
D02*
G37*
G36*
X-2603055D02*
X-2603055D01*
Y-1834241D01*
X-2603055D01*
Y-1834242D01*
X-2603057D01*
Y-1834241D01*
X-2603057D01*
Y-1834236D01*
X-2603057D01*
Y-1834236D01*
X-2603055D01*
Y-1834236D01*
D02*
G37*
G36*
X-2603060D02*
X-2603060D01*
Y-1834241D01*
X-2603060D01*
Y-1834242D01*
X-2603061D01*
Y-1834241D01*
X-2603062D01*
Y-1834236D01*
X-2603061D01*
Y-1834236D01*
X-2603060D01*
Y-1834236D01*
D02*
G37*
G36*
X-2603038Y-1834237D02*
X-2603037D01*
Y-1834239D01*
X-2603038D01*
Y-1834240D01*
X-2603040D01*
Y-1834239D01*
X-2603041D01*
Y-1834237D01*
X-2603040D01*
Y-1834236D01*
X-2603038D01*
Y-1834237D01*
D02*
G37*
G36*
X-2603027Y-1834237D02*
X-2603026D01*
Y-1834239D01*
X-2603027D01*
Y-1834240D01*
X-2603029D01*
Y-1834239D01*
X-2603030D01*
Y-1834237D01*
X-2603029D01*
Y-1834236D01*
X-2603027D01*
Y-1834237D01*
D02*
G37*
G36*
X-2602877Y-1834240D02*
X-2602890D01*
Y-1834230D01*
X-2602877D01*
Y-1834240D01*
D02*
G37*
G36*
X-2603065Y-1834236D02*
X-2603065D01*
Y-1834241D01*
X-2603065D01*
Y-1834242D01*
X-2603066D01*
Y-1834241D01*
X-2603067D01*
Y-1834236D01*
X-2603066D01*
Y-1834236D01*
X-2603065D01*
Y-1834236D01*
D02*
G37*
G36*
X-2603162Y-1834238D02*
X-2603161D01*
Y-1834244D01*
X-2603162D01*
Y-1834245D01*
X-2603165D01*
Y-1834244D01*
X-2603166D01*
Y-1834238D01*
X-2603165D01*
Y-1834237D01*
X-2603162D01*
Y-1834238D01*
D02*
G37*
G36*
X-2603173D02*
X-2603172D01*
Y-1834244D01*
X-2603173D01*
Y-1834245D01*
X-2603176D01*
Y-1834244D01*
X-2603177D01*
Y-1834238D01*
X-2603176D01*
Y-1834237D01*
X-2603173D01*
Y-1834238D01*
D02*
G37*
G36*
X-2603032Y-1834244D02*
X-2603031D01*
Y-1834245D01*
X-2603032D01*
Y-1834246D01*
X-2603034D01*
Y-1834245D01*
X-2603035D01*
Y-1834244D01*
X-2603034D01*
Y-1834242D01*
X-2603032D01*
Y-1834244D01*
D02*
G37*
G36*
X-2603141Y-1834241D02*
X-2603140D01*
Y-1834242D01*
X-2603141D01*
Y-1834244D01*
X-2603143D01*
Y-1834242D01*
X-2603144D01*
Y-1834241D01*
X-2603143D01*
Y-1834240D01*
X-2603141D01*
Y-1834241D01*
D02*
G37*
G36*
X-2603127Y-1834241D02*
X-2603126D01*
Y-1834243D01*
X-2603127D01*
Y-1834244D01*
X-2603128D01*
Y-1834243D01*
X-2603130D01*
Y-1834241D01*
X-2603128D01*
Y-1834240D01*
X-2603127D01*
Y-1834241D01*
D02*
G37*
G36*
X-2603133D02*
X-2603132D01*
Y-1834243D01*
X-2603133D01*
Y-1834244D01*
X-2603135D01*
Y-1834243D01*
X-2603136D01*
Y-1834241D01*
X-2603135D01*
Y-1834240D01*
X-2603133D01*
Y-1834241D01*
D02*
G37*
G36*
X-2603212Y-1834139D02*
X-2603211D01*
Y-1834141D01*
X-2603212D01*
Y-1834142D01*
X-2603214D01*
Y-1834141D01*
X-2603215D01*
Y-1834139D01*
X-2603214D01*
Y-1834138D01*
X-2603212D01*
Y-1834139D01*
D02*
G37*
G36*
X-2603056Y-1833962D02*
X-2603055D01*
Y-1833964D01*
X-2603056D01*
Y-1833964D01*
X-2603064D01*
Y-1833964D01*
X-2603065D01*
Y-1833962D01*
X-2603064D01*
Y-1833961D01*
X-2603056D01*
Y-1833962D01*
D02*
G37*
G36*
X-2603067Y-1833961D02*
X-2603065D01*
Y-1833963D01*
X-2603067D01*
Y-1833964D01*
X-2603068D01*
Y-1833963D01*
X-2603069D01*
Y-1833961D01*
X-2603068D01*
Y-1833961D01*
X-2603067D01*
Y-1833961D01*
D02*
G37*
G36*
X-2603101Y-1833962D02*
X-2603099D01*
Y-1833964D01*
X-2603101D01*
Y-1833965D01*
X-2603102D01*
Y-1833964D01*
X-2603103D01*
Y-1833962D01*
X-2603102D01*
Y-1833961D01*
X-2603101D01*
Y-1833962D01*
D02*
G37*
G36*
X-2603093Y-1833961D02*
X-2603092D01*
Y-1833963D01*
X-2603093D01*
Y-1833964D01*
X-2603095D01*
Y-1833963D01*
X-2603096D01*
Y-1833961D01*
X-2603095D01*
Y-1833960D01*
X-2603093D01*
Y-1833961D01*
D02*
G37*
G36*
X-2603075Y-1833961D02*
X-2603074D01*
Y-1833963D01*
X-2603075D01*
Y-1833964D01*
X-2603077D01*
Y-1833963D01*
X-2603078D01*
Y-1833961D01*
X-2603077D01*
Y-1833960D01*
X-2603075D01*
Y-1833961D01*
D02*
G37*
G36*
X-2603082D02*
X-2603081D01*
Y-1833963D01*
X-2603082D01*
Y-1833964D01*
X-2603083D01*
Y-1833963D01*
X-2603085D01*
Y-1833961D01*
X-2603083D01*
Y-1833960D01*
X-2603082D01*
Y-1833961D01*
D02*
G37*
G36*
X-2603107Y-1833962D02*
X-2603106D01*
Y-1833964D01*
X-2603107D01*
Y-1833965D01*
X-2603109D01*
Y-1833964D01*
X-2603110D01*
Y-1833962D01*
X-2603109D01*
Y-1833961D01*
X-2603107D01*
Y-1833962D01*
D02*
G37*
G36*
X-2603046Y-1833963D02*
X-2603045D01*
Y-1833964D01*
X-2603046D01*
Y-1833965D01*
X-2603048D01*
Y-1833964D01*
X-2603049D01*
Y-1833963D01*
X-2603048D01*
Y-1833961D01*
X-2603046D01*
Y-1833963D01*
D02*
G37*
G36*
X-2603113Y-1833966D02*
X-2603112D01*
Y-1833968D01*
X-2603113D01*
Y-1833969D01*
X-2603114D01*
Y-1833968D01*
X-2603115D01*
Y-1833966D01*
X-2603114D01*
Y-1833965D01*
X-2603113D01*
Y-1833966D01*
D02*
G37*
G36*
X-2603090D02*
X-2603089D01*
Y-1833968D01*
X-2603090D01*
Y-1833969D01*
X-2603092D01*
Y-1833968D01*
X-2603093D01*
Y-1833966D01*
X-2603092D01*
Y-1833965D01*
X-2603090D01*
Y-1833966D01*
D02*
G37*
G36*
X-2603051Y-1833962D02*
X-2603050D01*
Y-1833964D01*
X-2603051D01*
Y-1833965D01*
X-2603053D01*
Y-1833964D01*
X-2603054D01*
Y-1833962D01*
X-2603053D01*
Y-1833961D01*
X-2603051D01*
Y-1833962D01*
D02*
G37*
G36*
X-2603041Y-1833962D02*
X-2603040D01*
Y-1833964D01*
X-2603041D01*
Y-1833965D01*
X-2603043D01*
Y-1833964D01*
X-2603044D01*
Y-1833962D01*
X-2603043D01*
Y-1833961D01*
X-2603041D01*
Y-1833962D01*
D02*
G37*
G36*
X-2603036Y-1833963D02*
X-2603035D01*
Y-1833964D01*
X-2603036D01*
Y-1833965D01*
X-2603038D01*
Y-1833964D01*
X-2603039D01*
Y-1833963D01*
X-2603038D01*
Y-1833961D01*
X-2603036D01*
Y-1833963D01*
D02*
G37*
G36*
X-2603129Y-1833956D02*
X-2603128D01*
Y-1833957D01*
X-2603129D01*
Y-1833959D01*
X-2603131D01*
Y-1833957D01*
X-2603132D01*
Y-1833956D01*
X-2603131D01*
Y-1833955D01*
X-2603129D01*
Y-1833956D01*
D02*
G37*
G36*
X-2603136D02*
X-2603135D01*
Y-1833957D01*
X-2603136D01*
Y-1833959D01*
X-2603138D01*
Y-1833957D01*
X-2603139D01*
Y-1833956D01*
X-2603138D01*
Y-1833955D01*
X-2603136D01*
Y-1833956D01*
D02*
G37*
G36*
X-2603036Y-1833956D02*
X-2603035D01*
Y-1833958D01*
X-2603036D01*
Y-1833959D01*
X-2603038D01*
Y-1833958D01*
X-2603039D01*
Y-1833956D01*
X-2603038D01*
Y-1833955D01*
X-2603036D01*
Y-1833956D01*
D02*
G37*
G36*
X-2603067Y-1833955D02*
X-2603065D01*
Y-1833957D01*
X-2603067D01*
Y-1833958D01*
X-2603068D01*
Y-1833957D01*
X-2603069D01*
Y-1833955D01*
X-2603068D01*
Y-1833954D01*
X-2603067D01*
Y-1833955D01*
D02*
G37*
G36*
X-2603055Y-1833955D02*
X-2603054D01*
Y-1833957D01*
X-2603055D01*
Y-1833958D01*
X-2603057D01*
Y-1833957D01*
X-2603058D01*
Y-1833955D01*
X-2603057D01*
Y-1833954D01*
X-2603055D01*
Y-1833955D01*
D02*
G37*
G36*
X-2603062D02*
X-2603061D01*
Y-1833957D01*
X-2603062D01*
Y-1833958D01*
X-2603064D01*
Y-1833957D01*
X-2603065D01*
Y-1833955D01*
X-2603064D01*
Y-1833954D01*
X-2603062D01*
Y-1833955D01*
D02*
G37*
G36*
X-2603032Y-1833957D02*
X-2603030D01*
Y-1833959D01*
X-2603032D01*
Y-1833960D01*
X-2603033D01*
Y-1833959D01*
X-2603034D01*
Y-1833957D01*
X-2603033D01*
Y-1833956D01*
X-2603032D01*
Y-1833957D01*
D02*
G37*
G36*
X-2603129Y-1833961D02*
X-2603128D01*
Y-1833962D01*
X-2603129D01*
Y-1833964D01*
X-2603131D01*
Y-1833962D01*
X-2603132D01*
Y-1833961D01*
X-2603131D01*
Y-1833960D01*
X-2603129D01*
Y-1833961D01*
D02*
G37*
G36*
X-2603136D02*
X-2603135D01*
Y-1833962D01*
X-2603136D01*
Y-1833964D01*
X-2603138D01*
Y-1833962D01*
X-2603139D01*
Y-1833961D01*
X-2603138D01*
Y-1833960D01*
X-2603136D01*
Y-1833961D01*
D02*
G37*
G36*
X-2603086Y-1833961D02*
X-2603085D01*
Y-1833963D01*
X-2603086D01*
Y-1833964D01*
X-2603088D01*
Y-1833963D01*
X-2603089D01*
Y-1833961D01*
X-2603088D01*
Y-1833960D01*
X-2603086D01*
Y-1833961D01*
D02*
G37*
G36*
X-2603198Y-1833961D02*
X-2603204D01*
Y-1833955D01*
X-2603198D01*
Y-1833961D01*
D02*
G37*
G36*
X-2603118Y-1833958D02*
X-2603117D01*
Y-1833960D01*
X-2603118D01*
Y-1833961D01*
X-2603120D01*
Y-1833960D01*
X-2603121D01*
Y-1833958D01*
X-2603120D01*
Y-1833957D01*
X-2603118D01*
Y-1833958D01*
D02*
G37*
G36*
X-2603125D02*
X-2603123D01*
Y-1833960D01*
X-2603125D01*
Y-1833961D01*
X-2603126D01*
Y-1833960D01*
X-2603127D01*
Y-1833958D01*
X-2603126D01*
Y-1833957D01*
X-2603125D01*
Y-1833958D01*
D02*
G37*
G36*
X-2603113Y-1833973D02*
X-2603112D01*
Y-1833975D01*
X-2603113D01*
Y-1833976D01*
X-2603114D01*
Y-1833975D01*
X-2603115D01*
Y-1833973D01*
X-2603114D01*
Y-1833972D01*
X-2603113D01*
Y-1833973D01*
D02*
G37*
G36*
X-2603102Y-1833973D02*
X-2603101D01*
Y-1833975D01*
X-2603102D01*
Y-1833976D01*
X-2603103D01*
Y-1833975D01*
X-2603105D01*
Y-1833973D01*
X-2603103D01*
Y-1833972D01*
X-2603102D01*
Y-1833973D01*
D02*
G37*
G36*
X-2603106D02*
X-2603105D01*
Y-1833975D01*
X-2603106D01*
Y-1833976D01*
X-2603108D01*
Y-1833975D01*
X-2603109D01*
Y-1833973D01*
X-2603108D01*
Y-1833972D01*
X-2603106D01*
Y-1833973D01*
D02*
G37*
G36*
X-2603085Y-1833966D02*
X-2603084D01*
Y-1833974D01*
X-2603085D01*
Y-1833975D01*
X-2603086D01*
Y-1833974D01*
X-2603087D01*
Y-1833966D01*
X-2603086D01*
Y-1833965D01*
X-2603085D01*
Y-1833966D01*
D02*
G37*
G36*
X-2603090Y-1833972D02*
X-2603089D01*
Y-1833974D01*
X-2603090D01*
Y-1833975D01*
X-2603092D01*
Y-1833974D01*
X-2603093D01*
Y-1833972D01*
X-2603092D01*
Y-1833971D01*
X-2603090D01*
Y-1833972D01*
D02*
G37*
G36*
X-2603097D02*
X-2603095D01*
Y-1833974D01*
X-2603097D01*
Y-1833975D01*
X-2603098D01*
Y-1833974D01*
X-2603099D01*
Y-1833972D01*
X-2603098D01*
Y-1833971D01*
X-2603097D01*
Y-1833972D01*
D02*
G37*
G36*
X-2603117Y-1833973D02*
X-2603116D01*
Y-1833975D01*
X-2603117D01*
Y-1833976D01*
X-2603119D01*
Y-1833975D01*
X-2603120D01*
Y-1833973D01*
X-2603119D01*
Y-1833972D01*
X-2603117D01*
Y-1833973D01*
D02*
G37*
G36*
X-2603072Y-1833976D02*
X-2603071D01*
Y-1833978D01*
X-2603072D01*
Y-1833979D01*
X-2603074D01*
Y-1833978D01*
X-2603075D01*
Y-1833976D01*
X-2603074D01*
Y-1833975D01*
X-2603072D01*
Y-1833976D01*
D02*
G37*
G36*
X-2603122Y-1833978D02*
X-2603121D01*
Y-1833980D01*
X-2603122D01*
Y-1833981D01*
X-2603124D01*
Y-1833980D01*
X-2603125D01*
Y-1833978D01*
X-2603124D01*
Y-1833977D01*
X-2603122D01*
Y-1833978D01*
D02*
G37*
G36*
X-2603129D02*
X-2603128D01*
Y-1833980D01*
X-2603129D01*
Y-1833981D01*
X-2603131D01*
Y-1833980D01*
X-2603132D01*
Y-1833978D01*
X-2603131D01*
Y-1833977D01*
X-2603129D01*
Y-1833978D01*
D02*
G37*
G36*
X-2603123Y-1833973D02*
X-2603121D01*
Y-1833975D01*
X-2603123D01*
Y-1833976D01*
X-2603124D01*
Y-1833975D01*
X-2603125D01*
Y-1833973D01*
X-2603124D01*
Y-1833972D01*
X-2603123D01*
Y-1833973D01*
D02*
G37*
G36*
X-2603129D02*
X-2603128D01*
Y-1833975D01*
X-2603129D01*
Y-1833976D01*
X-2603131D01*
Y-1833975D01*
X-2603132D01*
Y-1833973D01*
X-2603131D01*
Y-1833972D01*
X-2603129D01*
Y-1833973D01*
D02*
G37*
G36*
X-2603067Y-1833976D02*
X-2603066D01*
Y-1833978D01*
X-2603067D01*
Y-1833979D01*
X-2603069D01*
Y-1833978D01*
X-2603070D01*
Y-1833976D01*
X-2603069D01*
Y-1833975D01*
X-2603067D01*
Y-1833976D01*
D02*
G37*
G36*
X-2603117Y-1833966D02*
X-2603116D01*
Y-1833968D01*
X-2603117D01*
Y-1833969D01*
X-2603119D01*
Y-1833968D01*
X-2603120D01*
Y-1833966D01*
X-2603119D01*
Y-1833965D01*
X-2603117D01*
Y-1833966D01*
D02*
G37*
G36*
X-2603123D02*
X-2603121D01*
Y-1833968D01*
X-2603123D01*
Y-1833969D01*
X-2603124D01*
Y-1833968D01*
X-2603125D01*
Y-1833966D01*
X-2603124D01*
Y-1833965D01*
X-2603123D01*
Y-1833966D01*
D02*
G37*
G36*
X-2603129D02*
X-2603128D01*
Y-1833968D01*
X-2603129D01*
Y-1833969D01*
X-2603131D01*
Y-1833968D01*
X-2603132D01*
Y-1833966D01*
X-2603131D01*
Y-1833965D01*
X-2603129D01*
Y-1833966D01*
D02*
G37*
G36*
X-2603097Y-1833966D02*
X-2603095D01*
Y-1833968D01*
X-2603097D01*
Y-1833969D01*
X-2603098D01*
Y-1833968D01*
X-2603099D01*
Y-1833966D01*
X-2603098D01*
Y-1833965D01*
X-2603097D01*
Y-1833966D01*
D02*
G37*
G36*
X-2603102Y-1833966D02*
X-2603101D01*
Y-1833968D01*
X-2603102D01*
Y-1833969D01*
X-2603103D01*
Y-1833968D01*
X-2603105D01*
Y-1833966D01*
X-2603103D01*
Y-1833965D01*
X-2603102D01*
Y-1833966D01*
D02*
G37*
G36*
X-2603106D02*
X-2603105D01*
Y-1833968D01*
X-2603106D01*
Y-1833969D01*
X-2603108D01*
Y-1833968D01*
X-2603109D01*
Y-1833966D01*
X-2603108D01*
Y-1833965D01*
X-2603106D01*
Y-1833966D01*
D02*
G37*
G36*
X-2603051Y-1833969D02*
X-2603050D01*
Y-1833971D01*
X-2603051D01*
Y-1833972D01*
X-2603053D01*
Y-1833971D01*
X-2603054D01*
Y-1833969D01*
X-2603053D01*
Y-1833968D01*
X-2603051D01*
Y-1833969D01*
D02*
G37*
G36*
X-2603067Y-1833969D02*
X-2603066D01*
Y-1833971D01*
X-2603067D01*
Y-1833972D01*
X-2603069D01*
Y-1833971D01*
X-2603070D01*
Y-1833969D01*
X-2603069D01*
Y-1833968D01*
X-2603067D01*
Y-1833969D01*
D02*
G37*
G36*
X-2603072D02*
X-2603071D01*
Y-1833971D01*
X-2603072D01*
Y-1833972D01*
X-2603074D01*
Y-1833971D01*
X-2603075D01*
Y-1833969D01*
X-2603074D01*
Y-1833968D01*
X-2603072D01*
Y-1833969D01*
D02*
G37*
G36*
X-2603078Y-1833966D02*
X-2603077D01*
Y-1833974D01*
X-2603078D01*
Y-1833975D01*
X-2603079D01*
Y-1833974D01*
X-2603080D01*
Y-1833966D01*
X-2603079D01*
Y-1833965D01*
X-2603078D01*
Y-1833966D01*
D02*
G37*
G36*
X-2603056Y-1833970D02*
X-2603055D01*
Y-1833971D01*
X-2603056D01*
Y-1833972D01*
X-2603064D01*
Y-1833971D01*
X-2603065D01*
Y-1833970D01*
X-2603064D01*
Y-1833969D01*
X-2603056D01*
Y-1833970D01*
D02*
G37*
G36*
X-2603041Y-1833969D02*
X-2603040D01*
Y-1833971D01*
X-2603041D01*
Y-1833972D01*
X-2603043D01*
Y-1833971D01*
X-2603044D01*
Y-1833969D01*
X-2603043D01*
Y-1833968D01*
X-2603041D01*
Y-1833969D01*
D02*
G37*
G36*
X-2603046Y-1833969D02*
X-2603045D01*
Y-1833971D01*
X-2603046D01*
Y-1833972D01*
X-2603048D01*
Y-1833971D01*
X-2603049D01*
Y-1833969D01*
X-2603048D01*
Y-1833968D01*
X-2603046D01*
Y-1833969D01*
D02*
G37*
G36*
X-2603095Y-1833928D02*
X-2603094D01*
Y-1833929D01*
X-2603095D01*
Y-1833930D01*
X-2603097D01*
Y-1833929D01*
X-2603098D01*
Y-1833928D01*
X-2603097D01*
Y-1833927D01*
X-2603095D01*
Y-1833928D01*
D02*
G37*
G36*
X-2603100Y-1833928D02*
X-2603099D01*
Y-1833929D01*
X-2603100D01*
Y-1833931D01*
X-2603102D01*
Y-1833929D01*
X-2603103D01*
Y-1833928D01*
X-2603102D01*
Y-1833927D01*
X-2603100D01*
Y-1833928D01*
D02*
G37*
G36*
X-2603114Y-1833928D02*
X-2603113D01*
Y-1833930D01*
X-2603114D01*
Y-1833931D01*
X-2603116D01*
Y-1833930D01*
X-2603117D01*
Y-1833928D01*
X-2603116D01*
Y-1833927D01*
X-2603114D01*
Y-1833928D01*
D02*
G37*
G36*
X-2603125Y-1833925D02*
X-2603124D01*
Y-1833926D01*
X-2603125D01*
Y-1833928D01*
X-2603127D01*
Y-1833926D01*
X-2603128D01*
Y-1833925D01*
X-2603127D01*
Y-1833924D01*
X-2603125D01*
Y-1833925D01*
D02*
G37*
G36*
X-2603105Y-1833928D02*
X-2603103D01*
Y-1833929D01*
X-2603105D01*
Y-1833930D01*
X-2603106D01*
Y-1833929D01*
X-2603107D01*
Y-1833928D01*
X-2603106D01*
Y-1833927D01*
X-2603105D01*
Y-1833928D01*
D02*
G37*
G36*
X-2603090D02*
X-2603089D01*
Y-1833929D01*
X-2603090D01*
Y-1833930D01*
X-2603092D01*
Y-1833929D01*
X-2603093D01*
Y-1833928D01*
X-2603092D01*
Y-1833927D01*
X-2603090D01*
Y-1833928D01*
D02*
G37*
G36*
X-2603139Y-1833929D02*
X-2603138D01*
Y-1833931D01*
X-2603139D01*
Y-1833932D01*
X-2603141D01*
Y-1833931D01*
X-2603142D01*
Y-1833929D01*
X-2603141D01*
Y-1833928D01*
X-2603139D01*
Y-1833929D01*
D02*
G37*
G36*
X-2603078Y-1833932D02*
X-2603077D01*
Y-1833934D01*
X-2603078D01*
Y-1833935D01*
X-2603080D01*
Y-1833934D01*
X-2603081D01*
Y-1833932D01*
X-2603080D01*
Y-1833931D01*
X-2603078D01*
Y-1833932D01*
D02*
G37*
G36*
X-2603085D02*
X-2603084D01*
Y-1833934D01*
X-2603085D01*
Y-1833935D01*
X-2603087D01*
Y-1833934D01*
X-2603088D01*
Y-1833932D01*
X-2603087D01*
Y-1833931D01*
X-2603085D01*
Y-1833932D01*
D02*
G37*
G36*
X-2603114Y-1833935D02*
X-2603113D01*
Y-1833936D01*
X-2603114D01*
Y-1833937D01*
X-2603116D01*
Y-1833936D01*
X-2603117D01*
Y-1833935D01*
X-2603116D01*
Y-1833933D01*
X-2603114D01*
Y-1833935D01*
D02*
G37*
G36*
X-2603119Y-1833930D02*
X-2603117D01*
Y-1833932D01*
X-2603119D01*
Y-1833933D01*
X-2603120D01*
Y-1833932D01*
X-2603121D01*
Y-1833930D01*
X-2603120D01*
Y-1833929D01*
X-2603119D01*
Y-1833930D01*
D02*
G37*
G36*
X-2603032Y-1833930D02*
X-2603031D01*
Y-1833932D01*
X-2603032D01*
Y-1833933D01*
X-2603034D01*
Y-1833932D01*
X-2603035D01*
Y-1833930D01*
X-2603034D01*
Y-1833929D01*
X-2603032D01*
Y-1833930D01*
D02*
G37*
G36*
X-2603039D02*
X-2603038D01*
Y-1833932D01*
X-2603039D01*
Y-1833933D01*
X-2603041D01*
Y-1833932D01*
X-2603042D01*
Y-1833930D01*
X-2603041D01*
Y-1833929D01*
X-2603039D01*
Y-1833930D01*
D02*
G37*
G36*
X-2603115Y-1833913D02*
X-2603114D01*
Y-1833915D01*
X-2603115D01*
Y-1833916D01*
X-2603117D01*
Y-1833915D01*
X-2603118D01*
Y-1833913D01*
X-2603117D01*
Y-1833912D01*
X-2603115D01*
Y-1833913D01*
D02*
G37*
G36*
X-2603125Y-1833918D02*
X-2603124D01*
Y-1833920D01*
X-2603125D01*
Y-1833921D01*
X-2603127D01*
Y-1833920D01*
X-2603128D01*
Y-1833918D01*
X-2603127D01*
Y-1833917D01*
X-2603125D01*
Y-1833918D01*
D02*
G37*
G36*
X-2603032Y-1833918D02*
X-2603031D01*
Y-1833920D01*
X-2603032D01*
Y-1833921D01*
X-2603034D01*
Y-1833920D01*
X-2603035D01*
Y-1833918D01*
X-2603034D01*
Y-1833917D01*
X-2603032D01*
Y-1833918D01*
D02*
G37*
G36*
X-2603032Y-1833911D02*
X-2603031D01*
Y-1833913D01*
X-2603032D01*
Y-1833914D01*
X-2603034D01*
Y-1833913D01*
X-2603035D01*
Y-1833911D01*
X-2603034D01*
Y-1833910D01*
X-2603032D01*
Y-1833911D01*
D02*
G37*
G36*
X-2603039D02*
X-2603038D01*
Y-1833913D01*
X-2603039D01*
Y-1833914D01*
X-2603041D01*
Y-1833913D01*
X-2603042D01*
Y-1833911D01*
X-2603041D01*
Y-1833910D01*
X-2603039D01*
Y-1833911D01*
D02*
G37*
G36*
X-2603108Y-1833913D02*
X-2603107D01*
Y-1833915D01*
X-2603108D01*
Y-1833916D01*
X-2603110D01*
Y-1833915D01*
X-2603111D01*
Y-1833913D01*
X-2603110D01*
Y-1833912D01*
X-2603108D01*
Y-1833913D01*
D02*
G37*
G36*
X-2603039Y-1833918D02*
X-2603038D01*
Y-1833920D01*
X-2603039D01*
Y-1833921D01*
X-2603041D01*
Y-1833920D01*
X-2603042D01*
Y-1833918D01*
X-2603041D01*
Y-1833917D01*
X-2603039D01*
Y-1833918D01*
D02*
G37*
G36*
X-2603100Y-1833921D02*
X-2603099D01*
Y-1833923D01*
X-2603100D01*
Y-1833924D01*
X-2603102D01*
Y-1833923D01*
X-2603103D01*
Y-1833921D01*
X-2603102D01*
Y-1833920D01*
X-2603100D01*
Y-1833921D01*
D02*
G37*
G36*
X-2603139Y-1833922D02*
X-2603138D01*
Y-1833924D01*
X-2603139D01*
Y-1833925D01*
X-2603141D01*
Y-1833924D01*
X-2603142D01*
Y-1833922D01*
X-2603141D01*
Y-1833921D01*
X-2603139D01*
Y-1833922D01*
D02*
G37*
G36*
X-2603119Y-1833923D02*
X-2603117D01*
Y-1833925D01*
X-2603119D01*
Y-1833926D01*
X-2603120D01*
Y-1833925D01*
X-2603121D01*
Y-1833923D01*
X-2603120D01*
Y-1833922D01*
X-2603119D01*
Y-1833923D01*
D02*
G37*
G36*
X-2603090Y-1833921D02*
X-2603089D01*
Y-1833923D01*
X-2603090D01*
Y-1833924D01*
X-2603092D01*
Y-1833923D01*
X-2603093D01*
Y-1833921D01*
X-2603092D01*
Y-1833920D01*
X-2603090D01*
Y-1833921D01*
D02*
G37*
G36*
X-2603095D02*
X-2603094D01*
Y-1833923D01*
X-2603095D01*
Y-1833924D01*
X-2603097D01*
Y-1833923D01*
X-2603098D01*
Y-1833921D01*
X-2603097D01*
Y-1833920D01*
X-2603095D01*
Y-1833921D01*
D02*
G37*
G36*
X-2603105D02*
X-2603103D01*
Y-1833923D01*
X-2603105D01*
Y-1833924D01*
X-2603106D01*
Y-1833923D01*
X-2603107D01*
Y-1833921D01*
X-2603106D01*
Y-1833920D01*
X-2603105D01*
Y-1833921D01*
D02*
G37*
G36*
X-2603133Y-1833947D02*
X-2603132D01*
Y-1833948D01*
X-2603133D01*
Y-1833949D01*
X-2603135D01*
Y-1833948D01*
X-2603136D01*
Y-1833947D01*
X-2603135D01*
Y-1833946D01*
X-2603133D01*
Y-1833947D01*
D02*
G37*
G36*
X-2603118Y-1833947D02*
X-2603117D01*
Y-1833949D01*
X-2603118D01*
Y-1833950D01*
X-2603121D01*
Y-1833949D01*
X-2603122D01*
Y-1833947D01*
X-2603121D01*
Y-1833945D01*
X-2603118D01*
Y-1833947D01*
D02*
G37*
G36*
X-2603127D02*
X-2603126D01*
Y-1833949D01*
X-2603127D01*
Y-1833950D01*
X-2603130D01*
Y-1833949D01*
X-2603131D01*
Y-1833947D01*
X-2603130D01*
Y-1833945D01*
X-2603127D01*
Y-1833947D01*
D02*
G37*
G36*
X-2603042Y-1833944D02*
X-2603041D01*
Y-1833946D01*
X-2603042D01*
Y-1833947D01*
X-2603043D01*
Y-1833946D01*
X-2603045D01*
Y-1833944D01*
X-2603043D01*
Y-1833943D01*
X-2603042D01*
Y-1833944D01*
D02*
G37*
G36*
X-2603072Y-1833946D02*
X-2603071D01*
Y-1833948D01*
X-2603072D01*
Y-1833949D01*
X-2603074D01*
Y-1833948D01*
X-2603075D01*
Y-1833946D01*
X-2603074D01*
Y-1833945D01*
X-2603072D01*
Y-1833946D01*
D02*
G37*
G36*
X-2603079D02*
X-2603078D01*
Y-1833948D01*
X-2603079D01*
Y-1833949D01*
X-2603081D01*
Y-1833948D01*
X-2603082D01*
Y-1833946D01*
X-2603081D01*
Y-1833945D01*
X-2603079D01*
Y-1833946D01*
D02*
G37*
G36*
X-2603032Y-1833950D02*
X-2603030D01*
Y-1833952D01*
X-2603032D01*
Y-1833953D01*
X-2603033D01*
Y-1833952D01*
X-2603034D01*
Y-1833950D01*
X-2603033D01*
Y-1833949D01*
X-2603032D01*
Y-1833950D01*
D02*
G37*
G36*
X-2603090Y-1833955D02*
X-2603108D01*
Y-1833937D01*
X-2603090D01*
Y-1833955D01*
D02*
G37*
G36*
X-2603118Y-1833953D02*
X-2603117D01*
Y-1833955D01*
X-2603118D01*
Y-1833956D01*
X-2603120D01*
Y-1833955D01*
X-2603121D01*
Y-1833953D01*
X-2603120D01*
Y-1833952D01*
X-2603118D01*
Y-1833953D01*
D02*
G37*
G36*
X-2603124D02*
X-2603123D01*
Y-1833955D01*
X-2603124D01*
Y-1833956D01*
X-2603126D01*
Y-1833955D01*
X-2603127D01*
Y-1833953D01*
X-2603126D01*
Y-1833952D01*
X-2603124D01*
Y-1833953D01*
D02*
G37*
G36*
X-2603072Y-1833951D02*
X-2603071D01*
Y-1833953D01*
X-2603072D01*
Y-1833954D01*
X-2603074D01*
Y-1833953D01*
X-2603075D01*
Y-1833951D01*
X-2603074D01*
Y-1833950D01*
X-2603072D01*
Y-1833951D01*
D02*
G37*
G36*
X-2603079D02*
X-2603078D01*
Y-1833953D01*
X-2603079D01*
Y-1833954D01*
X-2603081D01*
Y-1833953D01*
X-2603082D01*
Y-1833951D01*
X-2603081D01*
Y-1833950D01*
X-2603079D01*
Y-1833951D01*
D02*
G37*
G36*
X-2603042Y-1833951D02*
X-2603041D01*
Y-1833953D01*
X-2603042D01*
Y-1833954D01*
X-2603043D01*
Y-1833953D01*
X-2603045D01*
Y-1833951D01*
X-2603043D01*
Y-1833950D01*
X-2603042D01*
Y-1833951D01*
D02*
G37*
G36*
X-2603125Y-1833935D02*
X-2603124D01*
Y-1833937D01*
X-2603125D01*
Y-1833938D01*
X-2603127D01*
Y-1833937D01*
X-2603128D01*
Y-1833935D01*
X-2603127D01*
Y-1833934D01*
X-2603125D01*
Y-1833935D01*
D02*
G37*
G36*
X-2603072Y-1833936D02*
X-2603071D01*
Y-1833938D01*
X-2603072D01*
Y-1833939D01*
X-2603074D01*
Y-1833938D01*
X-2603075D01*
Y-1833936D01*
X-2603074D01*
Y-1833935D01*
X-2603072D01*
Y-1833936D01*
D02*
G37*
G36*
X-2603079D02*
X-2603078D01*
Y-1833938D01*
X-2603079D01*
Y-1833939D01*
X-2603081D01*
Y-1833938D01*
X-2603082D01*
Y-1833936D01*
X-2603081D01*
Y-1833935D01*
X-2603079D01*
Y-1833936D01*
D02*
G37*
G36*
X-2603132Y-1833935D02*
X-2603131D01*
Y-1833936D01*
X-2603132D01*
Y-1833937D01*
X-2603134D01*
Y-1833936D01*
X-2603135D01*
Y-1833935D01*
X-2603134D01*
Y-1833934D01*
X-2603132D01*
Y-1833935D01*
D02*
G37*
G36*
X-2603139D02*
X-2603138D01*
Y-1833936D01*
X-2603139D01*
Y-1833937D01*
X-2603141D01*
Y-1833936D01*
X-2603142D01*
Y-1833935D01*
X-2603141D01*
Y-1833934D01*
X-2603139D01*
Y-1833935D01*
D02*
G37*
G36*
X-2603118Y-1833935D02*
X-2603117D01*
Y-1833937D01*
X-2603118D01*
Y-1833938D01*
X-2603120D01*
Y-1833937D01*
X-2603121D01*
Y-1833935D01*
X-2603120D01*
Y-1833934D01*
X-2603118D01*
Y-1833935D01*
D02*
G37*
G36*
X-2603028Y-1833940D02*
X-2603027D01*
Y-1833941D01*
X-2603028D01*
Y-1833942D01*
X-2603030D01*
Y-1833941D01*
X-2603031D01*
Y-1833940D01*
X-2603030D01*
Y-1833938D01*
X-2603028D01*
Y-1833940D01*
D02*
G37*
G36*
X-2603133Y-1833940D02*
X-2603132D01*
Y-1833942D01*
X-2603133D01*
Y-1833943D01*
X-2603135D01*
Y-1833942D01*
X-2603136D01*
Y-1833940D01*
X-2603135D01*
Y-1833939D01*
X-2603133D01*
Y-1833940D01*
D02*
G37*
G36*
X-2603069Y-1833941D02*
X-2603068D01*
Y-1833943D01*
X-2603069D01*
Y-1833944D01*
X-2603070D01*
Y-1833943D01*
X-2603072D01*
Y-1833941D01*
X-2603070D01*
Y-1833940D01*
X-2603069D01*
Y-1833941D01*
D02*
G37*
G36*
X-2603075D02*
X-2603074D01*
Y-1833943D01*
X-2603075D01*
Y-1833944D01*
X-2603077D01*
Y-1833943D01*
X-2603078D01*
Y-1833941D01*
X-2603077D01*
Y-1833940D01*
X-2603075D01*
Y-1833941D01*
D02*
G37*
G36*
X-2603035Y-1833940D02*
X-2603034D01*
Y-1833941D01*
X-2603035D01*
Y-1833942D01*
X-2603037D01*
Y-1833941D01*
X-2603038D01*
Y-1833940D01*
X-2603037D01*
Y-1833938D01*
X-2603035D01*
Y-1833940D01*
D02*
G37*
G36*
X-2603118Y-1833939D02*
X-2603117D01*
Y-1833941D01*
X-2603118D01*
Y-1833943D01*
X-2603121D01*
Y-1833941D01*
X-2603122D01*
Y-1833939D01*
X-2603121D01*
Y-1833938D01*
X-2603118D01*
Y-1833939D01*
D02*
G37*
G36*
X-2603127D02*
X-2603126D01*
Y-1833941D01*
X-2603127D01*
Y-1833943D01*
X-2603130D01*
Y-1833941D01*
X-2603131D01*
Y-1833939D01*
X-2603130D01*
Y-1833938D01*
X-2603127D01*
Y-1833939D01*
D02*
G37*
G36*
X-2603115Y-1834104D02*
X-2603114D01*
Y-1834106D01*
X-2603115D01*
Y-1834107D01*
X-2603116D01*
Y-1834106D01*
X-2603118D01*
Y-1834104D01*
X-2603116D01*
Y-1834103D01*
X-2603115D01*
Y-1834104D01*
D02*
G37*
G36*
X-2603124Y-1834104D02*
X-2603123D01*
Y-1834106D01*
X-2603124D01*
Y-1834107D01*
X-2603126D01*
Y-1834106D01*
X-2603127D01*
Y-1834104D01*
X-2603126D01*
Y-1834103D01*
X-2603124D01*
Y-1834104D01*
D02*
G37*
G36*
X-2603119D02*
X-2603118D01*
Y-1834106D01*
X-2603119D01*
Y-1834107D01*
X-2603121D01*
Y-1834106D01*
X-2603122D01*
Y-1834104D01*
X-2603121D01*
Y-1834103D01*
X-2603119D01*
Y-1834104D01*
D02*
G37*
G36*
X-2603100Y-1834104D02*
X-2603099D01*
Y-1834106D01*
X-2603100D01*
Y-1834107D01*
X-2603102D01*
Y-1834106D01*
X-2603103D01*
Y-1834104D01*
X-2603102D01*
Y-1834103D01*
X-2603100D01*
Y-1834104D01*
D02*
G37*
G36*
X-2603105D02*
X-2603104D01*
Y-1834106D01*
X-2603105D01*
Y-1834107D01*
X-2603107D01*
Y-1834106D01*
X-2603108D01*
Y-1834104D01*
X-2603107D01*
Y-1834103D01*
X-2603105D01*
Y-1834104D01*
D02*
G37*
G36*
X-2603110D02*
X-2603109D01*
Y-1834106D01*
X-2603110D01*
Y-1834107D01*
X-2603112D01*
Y-1834106D01*
X-2603113D01*
Y-1834104D01*
X-2603112D01*
Y-1834103D01*
X-2603110D01*
Y-1834104D01*
D02*
G37*
G36*
X-2603129Y-1834104D02*
X-2603128D01*
Y-1834106D01*
X-2603129D01*
Y-1834107D01*
X-2603131D01*
Y-1834106D01*
X-2603132D01*
Y-1834104D01*
X-2603131D01*
Y-1834103D01*
X-2603129D01*
Y-1834104D01*
D02*
G37*
G36*
X-2603143Y-1834107D02*
X-2603142D01*
Y-1834109D01*
X-2603143D01*
Y-1834110D01*
X-2603144D01*
Y-1834109D01*
X-2603145D01*
Y-1834107D01*
X-2603144D01*
Y-1834106D01*
X-2603143D01*
Y-1834107D01*
D02*
G37*
G36*
X-2603029Y-1834108D02*
X-2603028D01*
Y-1834109D01*
X-2603029D01*
Y-1834110D01*
X-2603031D01*
Y-1834109D01*
X-2603032D01*
Y-1834108D01*
X-2603031D01*
Y-1834108D01*
X-2603029D01*
Y-1834108D01*
D02*
G37*
G36*
X-2603090Y-1834109D02*
X-2603089D01*
Y-1834111D01*
X-2603090D01*
Y-1834112D01*
X-2603092D01*
Y-1834111D01*
X-2603093D01*
Y-1834109D01*
X-2603092D01*
Y-1834108D01*
X-2603090D01*
Y-1834109D01*
D02*
G37*
G36*
X-2603220Y-1834108D02*
X-2603226D01*
Y-1834101D01*
X-2603220D01*
Y-1834108D01*
D02*
G37*
G36*
X-2603035Y-1834107D02*
X-2603034D01*
Y-1834108D01*
X-2603035D01*
Y-1834109D01*
X-2603037D01*
Y-1834108D01*
X-2603038D01*
Y-1834107D01*
X-2603037D01*
Y-1834105D01*
X-2603035D01*
Y-1834107D01*
D02*
G37*
G36*
X-2603201Y-1834107D02*
X-2603200D01*
Y-1834109D01*
X-2603201D01*
Y-1834110D01*
X-2603203D01*
Y-1834109D01*
X-2603204D01*
Y-1834107D01*
X-2603203D01*
Y-1834106D01*
X-2603201D01*
Y-1834107D01*
D02*
G37*
G36*
X-2603115Y-1834097D02*
X-2603114D01*
Y-1834099D01*
X-2603115D01*
Y-1834100D01*
X-2603116D01*
Y-1834099D01*
X-2603118D01*
Y-1834097D01*
X-2603116D01*
Y-1834096D01*
X-2603115D01*
Y-1834097D01*
D02*
G37*
G36*
X-2603119Y-1834097D02*
X-2603118D01*
Y-1834099D01*
X-2603119D01*
Y-1834100D01*
X-2603121D01*
Y-1834099D01*
X-2603122D01*
Y-1834097D01*
X-2603121D01*
Y-1834096D01*
X-2603119D01*
Y-1834097D01*
D02*
G37*
G36*
X-2603124D02*
X-2603123D01*
Y-1834099D01*
X-2603124D01*
Y-1834100D01*
X-2603126D01*
Y-1834099D01*
X-2603127D01*
Y-1834097D01*
X-2603126D01*
Y-1834096D01*
X-2603124D01*
Y-1834097D01*
D02*
G37*
G36*
X-2603100Y-1834097D02*
X-2603099D01*
Y-1834099D01*
X-2603100D01*
Y-1834100D01*
X-2603102D01*
Y-1834099D01*
X-2603103D01*
Y-1834097D01*
X-2603102D01*
Y-1834096D01*
X-2603100D01*
Y-1834097D01*
D02*
G37*
G36*
X-2603105D02*
X-2603104D01*
Y-1834099D01*
X-2603105D01*
Y-1834100D01*
X-2603107D01*
Y-1834099D01*
X-2603108D01*
Y-1834097D01*
X-2603107D01*
Y-1834096D01*
X-2603105D01*
Y-1834097D01*
D02*
G37*
G36*
X-2603110D02*
X-2603109D01*
Y-1834099D01*
X-2603110D01*
Y-1834100D01*
X-2603112D01*
Y-1834099D01*
X-2603113D01*
Y-1834097D01*
X-2603112D01*
Y-1834096D01*
X-2603110D01*
Y-1834097D01*
D02*
G37*
G36*
X-2603129Y-1834097D02*
X-2603128D01*
Y-1834099D01*
X-2603129D01*
Y-1834100D01*
X-2603131D01*
Y-1834099D01*
X-2603132D01*
Y-1834097D01*
X-2603131D01*
Y-1834096D01*
X-2603129D01*
Y-1834097D01*
D02*
G37*
G36*
X-2603213Y-1834100D02*
X-2603212D01*
Y-1834102D01*
X-2603213D01*
Y-1834103D01*
X-2603214D01*
Y-1834102D01*
X-2603216D01*
Y-1834100D01*
X-2603214D01*
Y-1834099D01*
X-2603213D01*
Y-1834100D01*
D02*
G37*
G36*
X-2603016Y-1834101D02*
X-2603014D01*
Y-1834105D01*
X-2603016D01*
Y-1834106D01*
X-2603019D01*
Y-1834105D01*
X-2603020D01*
Y-1834101D01*
X-2603019D01*
Y-1834100D01*
X-2603016D01*
Y-1834101D01*
D02*
G37*
G36*
X-2603095Y-1834104D02*
X-2603094D01*
Y-1834106D01*
X-2603095D01*
Y-1834107D01*
X-2603097D01*
Y-1834106D01*
X-2603098D01*
Y-1834104D01*
X-2603097D01*
Y-1834103D01*
X-2603095D01*
Y-1834104D01*
D02*
G37*
G36*
X-2603147Y-1834103D02*
X-2603155D01*
Y-1834098D01*
X-2603147D01*
Y-1834103D01*
D02*
G37*
G36*
X-2603201Y-1834100D02*
X-2603200D01*
Y-1834102D01*
X-2603201D01*
Y-1834103D01*
X-2603203D01*
Y-1834102D01*
X-2603204D01*
Y-1834100D01*
X-2603203D01*
Y-1834099D01*
X-2603201D01*
Y-1834100D01*
D02*
G37*
G36*
X-2603206Y-1834100D02*
X-2603205D01*
Y-1834102D01*
X-2603206D01*
Y-1834103D01*
X-2603208D01*
Y-1834102D01*
X-2603209D01*
Y-1834100D01*
X-2603208D01*
Y-1834099D01*
X-2603206D01*
Y-1834100D01*
D02*
G37*
G36*
X-2603065Y-1834120D02*
X-2603064D01*
Y-1834122D01*
X-2603065D01*
Y-1834123D01*
X-2603067D01*
Y-1834122D01*
X-2603068D01*
Y-1834120D01*
X-2603067D01*
Y-1834119D01*
X-2603065D01*
Y-1834120D01*
D02*
G37*
G36*
X-2603086D02*
X-2603085D01*
Y-1834122D01*
X-2603086D01*
Y-1834123D01*
X-2603088D01*
Y-1834122D01*
X-2603089D01*
Y-1834120D01*
X-2603088D01*
Y-1834119D01*
X-2603086D01*
Y-1834120D01*
D02*
G37*
G36*
X-2603186Y-1834124D02*
X-2603193D01*
Y-1834119D01*
X-2603186D01*
Y-1834124D01*
D02*
G37*
G36*
X-2603009Y-1834117D02*
X-2603008D01*
Y-1834119D01*
X-2603009D01*
Y-1834120D01*
X-2603011D01*
Y-1834119D01*
X-2603012D01*
Y-1834117D01*
X-2603011D01*
Y-1834116D01*
X-2603009D01*
Y-1834117D01*
D02*
G37*
G36*
X-2603016Y-1834116D02*
X-2603014D01*
Y-1834120D01*
X-2603016D01*
Y-1834121D01*
X-2603019D01*
Y-1834120D01*
X-2603020D01*
Y-1834116D01*
X-2603019D01*
Y-1834115D01*
X-2603016D01*
Y-1834116D01*
D02*
G37*
G36*
X-2603180Y-1834118D02*
X-2603179D01*
Y-1834120D01*
X-2603180D01*
Y-1834121D01*
X-2603182D01*
Y-1834120D01*
X-2603183D01*
Y-1834118D01*
X-2603182D01*
Y-1834117D01*
X-2603180D01*
Y-1834118D01*
D02*
G37*
G36*
X-2603171Y-1834121D02*
X-2603170D01*
Y-1834123D01*
X-2603171D01*
Y-1834124D01*
X-2603173D01*
Y-1834123D01*
X-2603174D01*
Y-1834121D01*
X-2603173D01*
Y-1834120D01*
X-2603171D01*
Y-1834121D01*
D02*
G37*
G36*
X-2603186Y-1834134D02*
X-2603193D01*
Y-1834130D01*
X-2603186D01*
Y-1834134D01*
D02*
G37*
G36*
X-2603212Y-1834133D02*
X-2603211D01*
Y-1834135D01*
X-2603212D01*
Y-1834136D01*
X-2603214D01*
Y-1834135D01*
X-2603215D01*
Y-1834133D01*
X-2603214D01*
Y-1834132D01*
X-2603212D01*
Y-1834133D01*
D02*
G37*
G36*
X-2603206Y-1834139D02*
X-2603205D01*
Y-1834141D01*
X-2603206D01*
Y-1834142D01*
X-2603207D01*
Y-1834141D01*
X-2603208D01*
Y-1834139D01*
X-2603207D01*
Y-1834138D01*
X-2603206D01*
Y-1834139D01*
D02*
G37*
G36*
X-2603180Y-1834125D02*
X-2603179D01*
Y-1834126D01*
X-2603180D01*
Y-1834127D01*
X-2603182D01*
Y-1834126D01*
X-2603183D01*
Y-1834125D01*
X-2603182D01*
Y-1834123D01*
X-2603180D01*
Y-1834125D01*
D02*
G37*
G36*
X-2603212Y-1834126D02*
X-2603211D01*
Y-1834128D01*
X-2603212D01*
Y-1834129D01*
X-2603214D01*
Y-1834128D01*
X-2603215D01*
Y-1834126D01*
X-2603214D01*
Y-1834125D01*
X-2603212D01*
Y-1834126D01*
D02*
G37*
G36*
X-2603171Y-1834128D02*
X-2603170D01*
Y-1834130D01*
X-2603171D01*
Y-1834131D01*
X-2603173D01*
Y-1834130D01*
X-2603174D01*
Y-1834128D01*
X-2603173D01*
Y-1834127D01*
X-2603171D01*
Y-1834128D01*
D02*
G37*
G36*
X-2603147Y-1834113D02*
X-2603155D01*
Y-1834109D01*
X-2603147D01*
Y-1834113D01*
D02*
G37*
G36*
X-2603029Y-1834112D02*
X-2603028D01*
Y-1834113D01*
X-2603029D01*
Y-1834114D01*
X-2603031D01*
Y-1834113D01*
X-2603032D01*
Y-1834112D01*
X-2603031D01*
Y-1834112D01*
X-2603029D01*
Y-1834112D01*
D02*
G37*
G36*
X-2603065Y-1834113D02*
X-2603064D01*
Y-1834115D01*
X-2603065D01*
Y-1834116D01*
X-2603067D01*
Y-1834115D01*
X-2603068D01*
Y-1834113D01*
X-2603067D01*
Y-1834112D01*
X-2603065D01*
Y-1834113D01*
D02*
G37*
G36*
X-2603022Y-1834110D02*
X-2603021D01*
Y-1834111D01*
X-2603022D01*
Y-1834112D01*
X-2603024D01*
Y-1834111D01*
X-2603025D01*
Y-1834110D01*
X-2603024D01*
Y-1834110D01*
X-2603022D01*
Y-1834110D01*
D02*
G37*
G36*
X-2603004Y-1834110D02*
X-2603003D01*
Y-1834112D01*
X-2603004D01*
Y-1834113D01*
X-2603006D01*
Y-1834112D01*
X-2603007D01*
Y-1834110D01*
X-2603006D01*
Y-1834109D01*
X-2603004D01*
Y-1834110D01*
D02*
G37*
G36*
X-2603009D02*
X-2603008D01*
Y-1834112D01*
X-2603009D01*
Y-1834113D01*
X-2603011D01*
Y-1834112D01*
X-2603012D01*
Y-1834110D01*
X-2603011D01*
Y-1834109D01*
X-2603009D01*
Y-1834110D01*
D02*
G37*
G36*
X-2603086Y-1834113D02*
X-2603085D01*
Y-1834115D01*
X-2603086D01*
Y-1834116D01*
X-2603088D01*
Y-1834115D01*
X-2603089D01*
Y-1834113D01*
X-2603088D01*
Y-1834112D01*
X-2603086D01*
Y-1834113D01*
D02*
G37*
G36*
X-2603080Y-1834111D02*
X-2603079D01*
Y-1834116D01*
X-2603080D01*
Y-1834117D01*
X-2603082D01*
Y-1834116D01*
X-2603084D01*
Y-1834111D01*
X-2603082D01*
Y-1834109D01*
X-2603080D01*
Y-1834111D01*
D02*
G37*
G36*
X-2603090Y-1834116D02*
X-2603089D01*
Y-1834117D01*
X-2603090D01*
Y-1834118D01*
X-2603092D01*
Y-1834117D01*
X-2603093D01*
Y-1834116D01*
X-2603092D01*
Y-1834115D01*
X-2603090D01*
Y-1834116D01*
D02*
G37*
G36*
X-2603004Y-1834117D02*
X-2603003D01*
Y-1834119D01*
X-2603004D01*
Y-1834120D01*
X-2603006D01*
Y-1834119D01*
X-2603007D01*
Y-1834117D01*
X-2603006D01*
Y-1834116D01*
X-2603004D01*
Y-1834117D01*
D02*
G37*
G36*
X-2603035Y-1834113D02*
X-2603034D01*
Y-1834115D01*
X-2603035D01*
Y-1834116D01*
X-2603037D01*
Y-1834115D01*
X-2603038D01*
Y-1834113D01*
X-2603037D01*
Y-1834112D01*
X-2603035D01*
Y-1834113D01*
D02*
G37*
G36*
X-2603143Y-1834114D02*
X-2603142D01*
Y-1834115D01*
X-2603143D01*
Y-1834117D01*
X-2603144D01*
Y-1834115D01*
X-2603145D01*
Y-1834114D01*
X-2603144D01*
Y-1834113D01*
X-2603143D01*
Y-1834114D01*
D02*
G37*
G36*
X-2603070Y-1834111D02*
X-2603069D01*
Y-1834116D01*
X-2603070D01*
Y-1834117D01*
X-2603073D01*
Y-1834116D01*
X-2603074D01*
Y-1834111D01*
X-2603073D01*
Y-1834109D01*
X-2603070D01*
Y-1834111D01*
D02*
G37*
G36*
X-2603104Y-1834041D02*
X-2603103D01*
Y-1834043D01*
X-2603104D01*
Y-1834044D01*
X-2603106D01*
Y-1834043D01*
X-2603107D01*
Y-1834041D01*
X-2603106D01*
Y-1834040D01*
X-2603104D01*
Y-1834041D01*
D02*
G37*
G36*
X-2603084Y-1834043D02*
X-2603083D01*
Y-1834045D01*
X-2603084D01*
Y-1834046D01*
X-2603086D01*
Y-1834045D01*
X-2603087D01*
Y-1834043D01*
X-2603086D01*
Y-1834042D01*
X-2603084D01*
Y-1834043D01*
D02*
G37*
G36*
X-2603088Y-1834045D02*
X-2603087D01*
Y-1834047D01*
X-2603088D01*
Y-1834048D01*
X-2603090D01*
Y-1834047D01*
X-2603091D01*
Y-1834045D01*
X-2603090D01*
Y-1834044D01*
X-2603088D01*
Y-1834045D01*
D02*
G37*
G36*
X-2603104Y-1834035D02*
X-2603103D01*
Y-1834037D01*
X-2603104D01*
Y-1834038D01*
X-2603106D01*
Y-1834037D01*
X-2603107D01*
Y-1834035D01*
X-2603106D01*
Y-1834034D01*
X-2603104D01*
Y-1834035D01*
D02*
G37*
G36*
X-2603084Y-1834036D02*
X-2603083D01*
Y-1834038D01*
X-2603084D01*
Y-1834039D01*
X-2603086D01*
Y-1834038D01*
X-2603087D01*
Y-1834036D01*
X-2603086D01*
Y-1834035D01*
X-2603084D01*
Y-1834036D01*
D02*
G37*
G36*
X-2603098Y-1834041D02*
X-2603096D01*
Y-1834043D01*
X-2603098D01*
Y-1834044D01*
X-2603099D01*
Y-1834043D01*
X-2603100D01*
Y-1834041D01*
X-2603099D01*
Y-1834040D01*
X-2603098D01*
Y-1834041D01*
D02*
G37*
G36*
X-2603080Y-1834047D02*
X-2603079D01*
Y-1834048D01*
X-2603080D01*
Y-1834050D01*
X-2603082D01*
Y-1834048D01*
X-2603083D01*
Y-1834047D01*
X-2603082D01*
Y-1834046D01*
X-2603080D01*
Y-1834047D01*
D02*
G37*
G36*
X-2603005Y-1834069D02*
X-2603004D01*
Y-1834071D01*
X-2603005D01*
Y-1834072D01*
X-2603012D01*
Y-1834071D01*
X-2603013D01*
Y-1834069D01*
X-2603012D01*
Y-1834068D01*
X-2603005D01*
Y-1834069D01*
D02*
G37*
G36*
X-2603020D02*
X-2603020D01*
Y-1834071D01*
X-2603020D01*
Y-1834072D01*
X-2603027D01*
Y-1834071D01*
X-2603028D01*
Y-1834069D01*
X-2603027D01*
Y-1834068D01*
X-2603020D01*
Y-1834069D01*
D02*
G37*
G36*
X-2603105Y-1834071D02*
X-2603103D01*
Y-1834073D01*
X-2603105D01*
Y-1834074D01*
X-2603106D01*
Y-1834073D01*
X-2603107D01*
Y-1834071D01*
X-2603106D01*
Y-1834070D01*
X-2603105D01*
Y-1834071D01*
D02*
G37*
G36*
X-2603088Y-1834052D02*
X-2603087D01*
Y-1834054D01*
X-2603088D01*
Y-1834055D01*
X-2603090D01*
Y-1834054D01*
X-2603091D01*
Y-1834052D01*
X-2603090D01*
Y-1834051D01*
X-2603088D01*
Y-1834052D01*
D02*
G37*
G36*
X-2603080Y-1834053D02*
X-2603079D01*
Y-1834055D01*
X-2603080D01*
Y-1834056D01*
X-2603082D01*
Y-1834055D01*
X-2603083D01*
Y-1834053D01*
X-2603082D01*
Y-1834052D01*
X-2603080D01*
Y-1834053D01*
D02*
G37*
G36*
X-2603105Y-1834064D02*
X-2603103D01*
Y-1834066D01*
X-2603105D01*
Y-1834067D01*
X-2603106D01*
Y-1834066D01*
X-2603107D01*
Y-1834064D01*
X-2603106D01*
Y-1834063D01*
X-2603105D01*
Y-1834064D01*
D02*
G37*
G36*
X-2603136Y-1833997D02*
X-2603135D01*
Y-1833998D01*
X-2603136D01*
Y-1833999D01*
X-2603138D01*
Y-1833998D01*
X-2603139D01*
Y-1833997D01*
X-2603138D01*
Y-1833995D01*
X-2603136D01*
Y-1833997D01*
D02*
G37*
G36*
X-2603131Y-1834015D02*
X-2603130D01*
Y-1834017D01*
X-2603131D01*
Y-1834018D01*
X-2603133D01*
Y-1834017D01*
X-2603134D01*
Y-1834015D01*
X-2603133D01*
Y-1834014D01*
X-2603131D01*
Y-1834015D01*
D02*
G37*
G36*
X-2603136Y-1834016D02*
X-2603135D01*
Y-1834017D01*
X-2603136D01*
Y-1834018D01*
X-2603138D01*
Y-1834017D01*
X-2603139D01*
Y-1834016D01*
X-2603138D01*
Y-1834015D01*
X-2603136D01*
Y-1834016D01*
D02*
G37*
G36*
X-2603135Y-1833979D02*
X-2603134D01*
Y-1833980D01*
X-2603135D01*
Y-1833981D01*
X-2603137D01*
Y-1833980D01*
X-2603138D01*
Y-1833979D01*
X-2603137D01*
Y-1833978D01*
X-2603135D01*
Y-1833979D01*
D02*
G37*
G36*
Y-1833985D02*
X-2603134D01*
Y-1833987D01*
X-2603135D01*
Y-1833988D01*
X-2603137D01*
Y-1833987D01*
X-2603138D01*
Y-1833985D01*
X-2603137D01*
Y-1833984D01*
X-2603135D01*
Y-1833985D01*
D02*
G37*
G36*
X-2603136Y-1833990D02*
X-2603135D01*
Y-1833992D01*
X-2603136D01*
Y-1833993D01*
X-2603138D01*
Y-1833992D01*
X-2603139D01*
Y-1833990D01*
X-2603138D01*
Y-1833989D01*
X-2603136D01*
Y-1833990D01*
D02*
G37*
G36*
X-2603222Y-1834020D02*
X-2603221D01*
Y-1834022D01*
X-2603222D01*
Y-1834023D01*
X-2603224D01*
Y-1834022D01*
X-2603225D01*
Y-1834020D01*
X-2603224D01*
Y-1834019D01*
X-2603222D01*
Y-1834020D01*
D02*
G37*
G36*
X-2603080Y-1834025D02*
X-2603079D01*
Y-1834026D01*
X-2603080D01*
Y-1834027D01*
X-2603082D01*
Y-1834026D01*
X-2603083D01*
Y-1834025D01*
X-2603082D01*
Y-1834023D01*
X-2603080D01*
Y-1834025D01*
D02*
G37*
G36*
Y-1834031D02*
X-2603079D01*
Y-1834033D01*
X-2603080D01*
Y-1834034D01*
X-2603082D01*
Y-1834033D01*
X-2603083D01*
Y-1834031D01*
X-2603082D01*
Y-1834030D01*
X-2603080D01*
Y-1834031D01*
D02*
G37*
G36*
X-2603098Y-1834035D02*
X-2603096D01*
Y-1834037D01*
X-2603098D01*
Y-1834038D01*
X-2603099D01*
Y-1834037D01*
X-2603100D01*
Y-1834035D01*
X-2603099D01*
Y-1834034D01*
X-2603098D01*
Y-1834035D01*
D02*
G37*
G36*
X-2603229Y-1834020D02*
X-2603228D01*
Y-1834022D01*
X-2603229D01*
Y-1834023D01*
X-2603231D01*
Y-1834022D01*
X-2603232D01*
Y-1834020D01*
X-2603231D01*
Y-1834019D01*
X-2603229D01*
Y-1834020D01*
D02*
G37*
G36*
X-2603131Y-1834022D02*
X-2603130D01*
Y-1834024D01*
X-2603131D01*
Y-1834025D01*
X-2603133D01*
Y-1834024D01*
X-2603134D01*
Y-1834022D01*
X-2603133D01*
Y-1834021D01*
X-2603131D01*
Y-1834022D01*
D02*
G37*
G36*
X-2603136Y-1834022D02*
X-2603135D01*
Y-1834024D01*
X-2603136D01*
Y-1834025D01*
X-2603138D01*
Y-1834024D01*
X-2603139D01*
Y-1834022D01*
X-2603138D01*
Y-1834021D01*
X-2603136D01*
Y-1834022D01*
D02*
G37*
G36*
X-2603105Y-1834088D02*
X-2603104D01*
Y-1834090D01*
X-2603105D01*
Y-1834091D01*
X-2603107D01*
Y-1834090D01*
X-2603108D01*
Y-1834088D01*
X-2603107D01*
Y-1834087D01*
X-2603105D01*
Y-1834088D01*
D02*
G37*
G36*
X-2603005Y-1834089D02*
X-2603004D01*
Y-1834091D01*
X-2603005D01*
Y-1834092D01*
X-2603012D01*
Y-1834091D01*
X-2603013D01*
Y-1834089D01*
X-2603012D01*
Y-1834088D01*
X-2603005D01*
Y-1834089D01*
D02*
G37*
G36*
X-2603020D02*
X-2603020D01*
Y-1834091D01*
X-2603020D01*
Y-1834092D01*
X-2603027D01*
Y-1834091D01*
X-2603028D01*
Y-1834089D01*
X-2603027D01*
Y-1834088D01*
X-2603020D01*
Y-1834089D01*
D02*
G37*
G36*
Y-1834084D02*
X-2603020D01*
Y-1834086D01*
X-2603020D01*
Y-1834087D01*
X-2603027D01*
Y-1834086D01*
X-2603028D01*
Y-1834084D01*
X-2603027D01*
Y-1834083D01*
X-2603020D01*
Y-1834084D01*
D02*
G37*
G36*
X-2603158Y-1834088D02*
X-2603157D01*
Y-1834089D01*
X-2603158D01*
Y-1834090D01*
X-2603160D01*
Y-1834089D01*
X-2603161D01*
Y-1834088D01*
X-2603160D01*
Y-1834086D01*
X-2603158D01*
Y-1834088D01*
D02*
G37*
G36*
X-2603098Y-1834088D02*
X-2603097D01*
Y-1834090D01*
X-2603098D01*
Y-1834091D01*
X-2603100D01*
Y-1834090D01*
X-2603101D01*
Y-1834088D01*
X-2603100D01*
Y-1834087D01*
X-2603098D01*
Y-1834088D01*
D02*
G37*
G36*
X-2603065Y-1834094D02*
X-2603082D01*
Y-1834077D01*
X-2603065D01*
Y-1834094D01*
D02*
G37*
G36*
X-2603208Y-1834094D02*
X-2603207D01*
Y-1834096D01*
X-2603208D01*
Y-1834097D01*
X-2603209D01*
Y-1834096D01*
X-2603211D01*
Y-1834094D01*
X-2603209D01*
Y-1834093D01*
X-2603208D01*
Y-1834094D01*
D02*
G37*
G36*
X-2603158Y-1834094D02*
X-2603157D01*
Y-1834096D01*
X-2603158D01*
Y-1834097D01*
X-2603160D01*
Y-1834096D01*
X-2603161D01*
Y-1834094D01*
X-2603160D01*
Y-1834093D01*
X-2603158D01*
Y-1834094D01*
D02*
G37*
G36*
X-2603095Y-1834097D02*
X-2603094D01*
Y-1834099D01*
X-2603095D01*
Y-1834100D01*
X-2603097D01*
Y-1834099D01*
X-2603098D01*
Y-1834097D01*
X-2603097D01*
Y-1834096D01*
X-2603095D01*
Y-1834097D01*
D02*
G37*
G36*
X-2603098Y-1834093D02*
X-2603097D01*
Y-1834095D01*
X-2603098D01*
Y-1834096D01*
X-2603100D01*
Y-1834095D01*
X-2603101D01*
Y-1834093D01*
X-2603100D01*
Y-1834092D01*
X-2603098D01*
Y-1834093D01*
D02*
G37*
G36*
X-2603105D02*
X-2603104D01*
Y-1834095D01*
X-2603105D01*
Y-1834096D01*
X-2603107D01*
Y-1834095D01*
X-2603108D01*
Y-1834093D01*
X-2603107D01*
Y-1834092D01*
X-2603105D01*
Y-1834093D01*
D02*
G37*
G36*
X-2603201Y-1834094D02*
X-2603200D01*
Y-1834096D01*
X-2603201D01*
Y-1834097D01*
X-2603203D01*
Y-1834096D01*
X-2603204D01*
Y-1834094D01*
X-2603203D01*
Y-1834093D01*
X-2603201D01*
Y-1834094D01*
D02*
G37*
G36*
X-2603005Y-1834074D02*
X-2603004D01*
Y-1834076D01*
X-2603005D01*
Y-1834077D01*
X-2603012D01*
Y-1834076D01*
X-2603013D01*
Y-1834074D01*
X-2603012D01*
Y-1834073D01*
X-2603005D01*
Y-1834074D01*
D02*
G37*
G36*
X-2603020D02*
X-2603020D01*
Y-1834076D01*
X-2603020D01*
Y-1834077D01*
X-2603027D01*
Y-1834076D01*
X-2603028D01*
Y-1834074D01*
X-2603027D01*
Y-1834073D01*
X-2603020D01*
Y-1834074D01*
D02*
G37*
G36*
X-2603050Y-1834076D02*
X-2603049D01*
Y-1834078D01*
X-2603050D01*
Y-1834079D01*
X-2603052D01*
Y-1834078D01*
X-2603053D01*
Y-1834076D01*
X-2603052D01*
Y-1834075D01*
X-2603050D01*
Y-1834076D01*
D02*
G37*
G36*
X-2603198Y-1834073D02*
X-2603197D01*
Y-1834075D01*
X-2603198D01*
Y-1834076D01*
X-2603200D01*
Y-1834075D01*
X-2603201D01*
Y-1834073D01*
X-2603200D01*
Y-1834072D01*
X-2603198D01*
Y-1834073D01*
D02*
G37*
G36*
X-2603204Y-1834073D02*
X-2603203D01*
Y-1834075D01*
X-2603204D01*
Y-1834076D01*
X-2603206D01*
Y-1834075D01*
X-2603207D01*
Y-1834073D01*
X-2603206D01*
Y-1834072D01*
X-2603204D01*
Y-1834073D01*
D02*
G37*
G36*
X-2603211D02*
X-2603209D01*
Y-1834075D01*
X-2603211D01*
Y-1834076D01*
X-2603212D01*
Y-1834075D01*
X-2603214D01*
Y-1834073D01*
X-2603212D01*
Y-1834072D01*
X-2603211D01*
Y-1834073D01*
D02*
G37*
G36*
X-2603168Y-1834077D02*
X-2603167D01*
Y-1834079D01*
X-2603168D01*
Y-1834080D01*
X-2603169D01*
Y-1834079D01*
X-2603171D01*
Y-1834077D01*
X-2603169D01*
Y-1834076D01*
X-2603168D01*
Y-1834077D01*
D02*
G37*
G36*
X-2603198Y-1834080D02*
X-2603197D01*
Y-1834082D01*
X-2603198D01*
Y-1834083D01*
X-2603200D01*
Y-1834082D01*
X-2603201D01*
Y-1834080D01*
X-2603200D01*
Y-1834079D01*
X-2603198D01*
Y-1834080D01*
D02*
G37*
G36*
X-2603050Y-1834083D02*
X-2603049D01*
Y-1834084D01*
X-2603050D01*
Y-1834085D01*
X-2603052D01*
Y-1834084D01*
X-2603053D01*
Y-1834083D01*
X-2603052D01*
Y-1834081D01*
X-2603050D01*
Y-1834083D01*
D02*
G37*
G36*
X-2603005Y-1834084D02*
X-2603004D01*
Y-1834086D01*
X-2603005D01*
Y-1834087D01*
X-2603012D01*
Y-1834086D01*
X-2603013D01*
Y-1834084D01*
X-2603012D01*
Y-1834083D01*
X-2603005D01*
Y-1834084D01*
D02*
G37*
G36*
X-2603174Y-1834077D02*
X-2603173D01*
Y-1834079D01*
X-2603174D01*
Y-1834080D01*
X-2603176D01*
Y-1834079D01*
X-2603177D01*
Y-1834077D01*
X-2603176D01*
Y-1834076D01*
X-2603174D01*
Y-1834077D01*
D02*
G37*
G36*
X-2603005Y-1834079D02*
X-2603004D01*
Y-1834081D01*
X-2603005D01*
Y-1834082D01*
X-2603012D01*
Y-1834081D01*
X-2603013D01*
Y-1834079D01*
X-2603012D01*
Y-1834078D01*
X-2603005D01*
Y-1834079D01*
D02*
G37*
G36*
X-2603020D02*
X-2603020D01*
Y-1834081D01*
X-2603020D01*
Y-1834082D01*
X-2603027D01*
Y-1834081D01*
X-2603028D01*
Y-1834079D01*
X-2603027D01*
Y-1834078D01*
X-2603020D01*
Y-1834079D01*
D02*
G37*
D188*
X-2602904Y-1834362D02*
G03*
X-2602907Y-1834362I-2J0D01*
G01*
D02*
G03*
X-2602904Y-1834362I2J0D01*
G01*
X-2603226Y-1834204D02*
G03*
X-2603226Y-1834208I0J-2D01*
G01*
D02*
G03*
X-2603226Y-1834204I0J2D01*
G01*
X-2603223Y-1834174D02*
G03*
X-2603223Y-1834171I0J2D01*
G01*
D02*
G03*
X-2603223Y-1834174I0J-2D01*
G01*
Y-1834164D02*
G03*
X-2603223Y-1834160I0J2D01*
G01*
D02*
G03*
X-2603223Y-1834164I0J-2D01*
G01*
Y-1834154D02*
G03*
X-2603223Y-1834151I0J2D01*
G01*
D02*
G03*
X-2603223Y-1834154I0J-2D01*
G01*
X-2603223Y-1834093D02*
G03*
X-2603223Y-1834096I0J-2D01*
G01*
D02*
G03*
X-2603223Y-1834093I0J2D01*
G01*
X-2603198Y-1834051D02*
X-2603191D01*
X-2603198Y-1834046D02*
X-2603191D01*
X-2603198Y-1834041D02*
X-2603191D01*
X-2603198Y-1834036D02*
X-2603191D01*
X-2603198Y-1834031D02*
X-2603191D01*
X-2603198Y-1834026D02*
X-2603191D01*
X-2603198Y-1834021D02*
X-2603191D01*
X-2603217Y-1834051D02*
X-2603210D01*
X-2603217Y-1834046D02*
X-2603210D01*
X-2603217Y-1834041D02*
X-2603210D01*
X-2603217Y-1834036D02*
X-2603210D01*
X-2603217Y-1834031D02*
X-2603210D01*
X-2603217Y-1834026D02*
X-2603210D01*
X-2603217Y-1834021D02*
X-2603210D01*
D189*
X-2603192Y-1834086D02*
X-2603185D01*
X-2603192Y-1834091D02*
X-2603185D01*
X-2603192Y-1834096D02*
X-2603185D01*
X-2603192Y-1834101D02*
X-2603185D01*
X-2603173Y-1834086D02*
X-2603167D01*
X-2603173Y-1834091D02*
X-2603167D01*
X-2603173Y-1834096D02*
X-2603167D01*
X-2603173Y-1834101D02*
X-2603167D01*
D193*
X-2603206Y-1834154D02*
G03*
X-2603207Y-1834154I-0J0D01*
G01*
D02*
G03*
X-2603206Y-1834154I0J0D01*
G01*
Y-1834152D02*
G03*
X-2603207Y-1834152I-0J0D01*
G01*
D02*
G03*
X-2603206Y-1834152I0J0D01*
G01*
Y-1834156D02*
G03*
X-2603207Y-1834156I-0J0D01*
G01*
D02*
G03*
X-2603206Y-1834156I0J0D01*
G01*
Y-1834155D02*
G03*
X-2603207Y-1834155I-0J0D01*
G01*
D02*
G03*
X-2603206Y-1834155I0J0D01*
G01*
Y-1834159D02*
G03*
X-2603207Y-1834159I-0J0D01*
G01*
D02*
G03*
X-2603206Y-1834159I0J0D01*
G01*
Y-1834157D02*
G03*
X-2603207Y-1834157I-0J0D01*
G01*
D02*
G03*
X-2603206Y-1834157I0J0D01*
G01*
Y-1834161D02*
G03*
X-2603207Y-1834161I-0J0D01*
G01*
D02*
G03*
X-2603206Y-1834161I0J0D01*
G01*
Y-1834160D02*
G03*
X-2603207Y-1834160I-0J0D01*
G01*
D02*
G03*
X-2603206Y-1834160I0J0D01*
G01*
X-2603194Y-1834154D02*
G03*
X-2603194Y-1834154I-0J0D01*
G01*
D02*
G03*
X-2603194Y-1834154I0J0D01*
G01*
Y-1834152D02*
G03*
X-2603194Y-1834152I-0J0D01*
G01*
D02*
G03*
X-2603194Y-1834152I0J0D01*
G01*
Y-1834156D02*
G03*
X-2603194Y-1834156I-0J0D01*
G01*
D02*
G03*
X-2603194Y-1834156I0J0D01*
G01*
Y-1834155D02*
G03*
X-2603194Y-1834155I-0J0D01*
G01*
D02*
G03*
X-2603194Y-1834155I0J0D01*
G01*
Y-1834159D02*
G03*
X-2603194Y-1834159I-0J0D01*
G01*
D02*
G03*
X-2603194Y-1834159I0J0D01*
G01*
Y-1834157D02*
G03*
X-2603194Y-1834157I-0J0D01*
G01*
D02*
G03*
X-2603194Y-1834157I0J0D01*
G01*
Y-1834161D02*
G03*
X-2603194Y-1834161I-0J0D01*
G01*
D02*
G03*
X-2603194Y-1834161I0J0D01*
G01*
Y-1834160D02*
G03*
X-2603194Y-1834160I-0J0D01*
G01*
D02*
G03*
X-2603194Y-1834160I0J0D01*
G01*
D198*
X-2603122Y-1834297D02*
D03*
X-2603130Y-1834147D02*
D03*
X-2603097Y-1834243D02*
D03*
X-2603033Y-1834145D02*
D03*
X-2603049Y-1833915D02*
D03*
X-2603142Y-1834288D02*
D03*
X-2603175Y-1834032D02*
D03*
X-2603206Y-1834083D02*
D03*
X-2603060Y-1834122D02*
D03*
X-2603155Y-1833942D02*
D03*
X-2603106Y-1833995D02*
D03*
X-2603049Y-1834279D02*
D03*
X-2603070Y-1834053D02*
D03*
X-2603072Y-1834063D02*
D03*
X-2603036Y-1834057D02*
D03*
X-2603049Y-1834057D02*
D03*
X-2603007Y-1834057D02*
D03*
X-2603010Y-1834223D02*
D03*
X-2603205Y-1834066D02*
D03*
X-2603209Y-1834113D02*
D03*
D200*
X-2603147Y-1834227D02*
D03*
X-2603154D02*
D03*
Y-1834222D02*
D03*
X-2603147D02*
D03*
X-2603055Y-1834230D02*
D03*
X-2603062D02*
D03*
Y-1834225D02*
D03*
X-2603055D02*
D03*
D205*
X-2603106Y-1833954D02*
D03*
X-2603104D02*
D03*
X-2603102D02*
D03*
X-2603100D02*
D03*
X-2603098D02*
D03*
X-2603096D02*
D03*
X-2603094D02*
D03*
X-2603092D02*
D03*
X-2603088Y-1833953D02*
D03*
X-2603090D02*
D03*
X-2603088Y-1833951D02*
D03*
X-2603090D02*
D03*
X-2603088Y-1833949D02*
D03*
X-2603090D02*
D03*
X-2603088Y-1833943D02*
D03*
X-2603090D02*
D03*
X-2603088Y-1833941D02*
D03*
X-2603090D02*
D03*
X-2603088Y-1833939D02*
D03*
X-2603090D02*
D03*
X-2603092Y-1833937D02*
D03*
X-2603094D02*
D03*
X-2603096D02*
D03*
X-2603098D02*
D03*
X-2603100D02*
D03*
X-2603102D02*
D03*
X-2603104D02*
D03*
X-2603106D02*
D03*
X-2603108Y-1833939D02*
D03*
X-2603110D02*
D03*
X-2603108Y-1833941D02*
D03*
X-2603110D02*
D03*
X-2603108Y-1833943D02*
D03*
X-2603110D02*
D03*
X-2603108Y-1833949D02*
D03*
X-2603110D02*
D03*
X-2603108Y-1833951D02*
D03*
X-2603110D02*
D03*
X-2603108Y-1833953D02*
D03*
X-2603110D02*
D03*
D206*
X-2603106Y-1833957D02*
D03*
X-2603104D02*
D03*
X-2603102D02*
D03*
X-2603100D02*
D03*
X-2603098D02*
D03*
X-2603096D02*
D03*
X-2603094D02*
D03*
X-2603092D02*
D03*
X-2603088Y-1833947D02*
D03*
X-2603090D02*
D03*
X-2603088Y-1833945D02*
D03*
X-2603090D02*
D03*
X-2603092Y-1833935D02*
D03*
X-2603094D02*
D03*
X-2603096D02*
D03*
X-2603098D02*
D03*
X-2603100D02*
D03*
X-2603102D02*
D03*
X-2603104D02*
D03*
X-2603106D02*
D03*
X-2603108Y-1833945D02*
D03*
X-2603110D02*
D03*
X-2603108Y-1833947D02*
D03*
X-2603110D02*
D03*
D213*
X-2603106Y-1833957D02*
Y-1833954D01*
X-2603104Y-1833957D02*
Y-1833954D01*
X-2603102Y-1833957D02*
Y-1833954D01*
X-2603100Y-1833957D02*
Y-1833954D01*
X-2603098Y-1833957D02*
Y-1833954D01*
X-2603096Y-1833957D02*
Y-1833954D01*
X-2603094Y-1833957D02*
Y-1833954D01*
X-2603092Y-1833957D02*
Y-1833954D01*
X-2603090Y-1833953D02*
X-2603088D01*
X-2603090Y-1833951D02*
X-2603088D01*
X-2603090Y-1833949D02*
X-2603088D01*
X-2603090Y-1833947D02*
X-2603088D01*
X-2603090Y-1833945D02*
X-2603088D01*
X-2603090Y-1833943D02*
X-2603088D01*
X-2603090Y-1833941D02*
X-2603088D01*
X-2603090Y-1833939D02*
X-2603088D01*
X-2603092Y-1833937D02*
Y-1833935D01*
X-2603094Y-1833937D02*
Y-1833935D01*
X-2603096Y-1833937D02*
Y-1833935D01*
X-2603098Y-1833937D02*
Y-1833935D01*
X-2603100Y-1833937D02*
Y-1833935D01*
X-2603102Y-1833937D02*
Y-1833935D01*
X-2603104Y-1833937D02*
Y-1833935D01*
X-2603106Y-1833937D02*
Y-1833935D01*
X-2603110Y-1833939D02*
X-2603108D01*
X-2603110Y-1833941D02*
X-2603108D01*
X-2603110Y-1833943D02*
X-2603108D01*
X-2603110Y-1833945D02*
X-2603108D01*
X-2603110Y-1833947D02*
X-2603108D01*
X-2603110Y-1833949D02*
X-2603108D01*
X-2603110Y-1833951D02*
X-2603108D01*
X-2603110Y-1833953D02*
X-2603108D01*
D215*
X-2603157Y-1834232D02*
G03*
X-2603157Y-1834233I0J-0D01*
G01*
D02*
G03*
X-2603157Y-1834232I0J0D01*
G01*
X-2603159D02*
G03*
X-2603159Y-1834233I0J-0D01*
G01*
D02*
G03*
X-2603159Y-1834232I0J0D01*
G01*
X-2603152D02*
G03*
X-2603152Y-1834233I0J-0D01*
G01*
D02*
G03*
X-2603152Y-1834232I0J0D01*
G01*
X-2603153D02*
G03*
X-2603153Y-1834233I0J-0D01*
G01*
D02*
G03*
X-2603153Y-1834232I0J0D01*
G01*
X-2603147D02*
G03*
X-2603147Y-1834233I0J-0D01*
G01*
D02*
G03*
X-2603147Y-1834232I0J0D01*
G01*
X-2603148D02*
G03*
X-2603148Y-1834233I0J-0D01*
G01*
D02*
G03*
X-2603148Y-1834232I0J0D01*
G01*
X-2603142D02*
G03*
X-2603142Y-1834233I0J-0D01*
G01*
D02*
G03*
X-2603142Y-1834232I0J0D01*
G01*
X-2603143D02*
G03*
X-2603143Y-1834233I0J-0D01*
G01*
D02*
G03*
X-2603143Y-1834232I0J0D01*
G01*
X-2603157Y-1834215D02*
G03*
X-2603157Y-1834216I0J-0D01*
G01*
D02*
G03*
X-2603157Y-1834215I0J0D01*
G01*
X-2603159D02*
G03*
X-2603159Y-1834216I0J-0D01*
G01*
D02*
G03*
X-2603159Y-1834215I0J0D01*
G01*
X-2603152D02*
G03*
X-2603152Y-1834216I0J-0D01*
G01*
D02*
G03*
X-2603152Y-1834215I0J0D01*
G01*
X-2603153D02*
G03*
X-2603153Y-1834216I0J-0D01*
G01*
D02*
G03*
X-2603153Y-1834215I0J0D01*
G01*
X-2603147D02*
G03*
X-2603147Y-1834216I0J-0D01*
G01*
D02*
G03*
X-2603147Y-1834215I0J0D01*
G01*
X-2603148D02*
G03*
X-2603148Y-1834216I0J-0D01*
G01*
D02*
G03*
X-2603148Y-1834215I0J0D01*
G01*
X-2603142D02*
G03*
X-2603142Y-1834216I0J-0D01*
G01*
D02*
G03*
X-2603142Y-1834215I0J0D01*
G01*
X-2603143D02*
G03*
X-2603143Y-1834216I0J-0D01*
G01*
D02*
G03*
X-2603143Y-1834215I0J0D01*
G01*
X-2603050Y-1834219D02*
G03*
X-2603050Y-1834220I0J-0D01*
G01*
D02*
G03*
X-2603050Y-1834219I0J0D01*
G01*
X-2603052D02*
G03*
X-2603052Y-1834220I0J-0D01*
G01*
D02*
G03*
X-2603052Y-1834219I0J0D01*
G01*
X-2603055D02*
G03*
X-2603055Y-1834220I0J-0D01*
G01*
D02*
G03*
X-2603055Y-1834219I0J0D01*
G01*
X-2603057D02*
G03*
X-2603057Y-1834220I0J-0D01*
G01*
D02*
G03*
X-2603057Y-1834219I0J0D01*
G01*
X-2603060D02*
G03*
X-2603060Y-1834220I0J-0D01*
G01*
D02*
G03*
X-2603060Y-1834219I0J0D01*
G01*
X-2603061D02*
G03*
X-2603061Y-1834220I0J-0D01*
G01*
D02*
G03*
X-2603061Y-1834219I0J0D01*
G01*
X-2603065D02*
G03*
X-2603065Y-1834220I0J-0D01*
G01*
D02*
G03*
X-2603065Y-1834219I0J0D01*
G01*
X-2603066D02*
G03*
X-2603066Y-1834220I0J-0D01*
G01*
D02*
G03*
X-2603066Y-1834219I0J0D01*
G01*
X-2603050Y-1834236D02*
G03*
X-2603050Y-1834237I0J-0D01*
G01*
D02*
G03*
X-2603050Y-1834236I0J0D01*
G01*
X-2603052D02*
G03*
X-2603052Y-1834237I0J-0D01*
G01*
D02*
G03*
X-2603052Y-1834236I0J0D01*
G01*
X-2603055D02*
G03*
X-2603055Y-1834237I0J-0D01*
G01*
D02*
G03*
X-2603055Y-1834236I0J0D01*
G01*
X-2603057D02*
G03*
X-2603057Y-1834237I0J-0D01*
G01*
D02*
G03*
X-2603057Y-1834236I0J0D01*
G01*
X-2603060D02*
G03*
X-2603060Y-1834237I0J-0D01*
G01*
D02*
G03*
X-2603060Y-1834236I0J0D01*
G01*
X-2603061D02*
G03*
X-2603061Y-1834237I0J-0D01*
G01*
D02*
G03*
X-2603061Y-1834236I0J0D01*
G01*
X-2603065D02*
G03*
X-2603065Y-1834237I0J-0D01*
G01*
D02*
G03*
X-2603065Y-1834236I0J0D01*
G01*
X-2603066D02*
G03*
X-2603066Y-1834237I0J-0D01*
G01*
D02*
G03*
X-2603066Y-1834236I0J0D01*
G01*
D236*
X-2603194Y-1833954D02*
D03*
X-2603201Y-1833950D02*
D03*
X-2603194Y-1833946D02*
D03*
X-2603201Y-1833942D02*
D03*
X-2603194Y-1833938D02*
D03*
X-2603201Y-1833934D02*
D03*
X-2603194Y-1833930D02*
D03*
X-2603175Y-1833962D02*
D03*
Y-1833926D02*
D03*
Y-1833917D02*
D03*
Y-1833971D02*
D03*
D260*
X-2603089Y-1834104D02*
G03*
X-2603089Y-1834105I0J-0D01*
G01*
D02*
G03*
X-2603089Y-1834104I0J0D01*
G01*
X-2603087D02*
G03*
X-2603087Y-1834105I0J-0D01*
G01*
D02*
G03*
X-2603087Y-1834104I0J0D01*
G01*
X-2603085D02*
G03*
X-2603085Y-1834105I0J-0D01*
G01*
D02*
G03*
X-2603085Y-1834104I0J0D01*
G01*
X-2603083D02*
G03*
X-2603083Y-1834105I0J-0D01*
G01*
D02*
G03*
X-2603083Y-1834104I0J0D01*
G01*
X-2603081D02*
G03*
X-2603081Y-1834105I0J-0D01*
G01*
D02*
G03*
X-2603081Y-1834104I0J0D01*
G01*
X-2603079D02*
G03*
X-2603079Y-1834105I0J-0D01*
G01*
D02*
G03*
X-2603079Y-1834104I0J0D01*
G01*
X-2603077D02*
G03*
X-2603077Y-1834105I0J-0D01*
G01*
D02*
G03*
X-2603077Y-1834104I0J0D01*
G01*
X-2603075D02*
G03*
X-2603075Y-1834105I0J-0D01*
G01*
D02*
G03*
X-2603075Y-1834104I0J0D01*
G01*
X-2603073D02*
G03*
X-2603073Y-1834105I0J-0D01*
G01*
D02*
G03*
X-2603073Y-1834104I0J0D01*
G01*
X-2603071D02*
G03*
X-2603071Y-1834105I0J-0D01*
G01*
D02*
G03*
X-2603071Y-1834104I0J0D01*
G01*
X-2603069D02*
G03*
X-2603069Y-1834105I0J-0D01*
G01*
D02*
G03*
X-2603069Y-1834104I0J0D01*
G01*
X-2603067D02*
G03*
X-2603067Y-1834105I0J-0D01*
G01*
D02*
G03*
X-2603067Y-1834104I0J0D01*
G01*
X-2603065D02*
G03*
X-2603065Y-1834105I0J-0D01*
G01*
D02*
G03*
X-2603065Y-1834104I0J0D01*
G01*
X-2603063D02*
G03*
X-2603063Y-1834105I0J-0D01*
G01*
D02*
G03*
X-2603063Y-1834104I0J0D01*
G01*
X-2603061D02*
G03*
X-2603061Y-1834105I0J-0D01*
G01*
D02*
G03*
X-2603061Y-1834104I0J0D01*
G01*
X-2603059D02*
G03*
X-2603059Y-1834105I0J-0D01*
G01*
D02*
G03*
X-2603059Y-1834104I0J0D01*
G01*
X-2603055Y-1834098D02*
G03*
X-2603055Y-1834099I0J-0D01*
G01*
D02*
G03*
X-2603055Y-1834098I0J0D01*
G01*
X-2603057D02*
G03*
X-2603057Y-1834099I0J-0D01*
G01*
D02*
G03*
X-2603057Y-1834098I0J0D01*
G01*
X-2603055Y-1834092D02*
G03*
X-2603055Y-1834093I0J-0D01*
G01*
D02*
G03*
X-2603055Y-1834092I0J0D01*
G01*
X-2603057D02*
G03*
X-2603057Y-1834093I0J-0D01*
G01*
D02*
G03*
X-2603057Y-1834092I0J0D01*
G01*
X-2603055Y-1834090D02*
G03*
X-2603055Y-1834091I0J-0D01*
G01*
D02*
G03*
X-2603055Y-1834090I0J0D01*
G01*
X-2603057D02*
G03*
X-2603057Y-1834091I0J-0D01*
G01*
D02*
G03*
X-2603057Y-1834090I0J0D01*
G01*
X-2603055Y-1834088D02*
G03*
X-2603055Y-1834089I0J-0D01*
G01*
D02*
G03*
X-2603055Y-1834088I0J0D01*
G01*
X-2603057D02*
G03*
X-2603057Y-1834089I0J-0D01*
G01*
D02*
G03*
X-2603057Y-1834088I0J0D01*
G01*
X-2603055Y-1834082D02*
G03*
X-2603055Y-1834083I0J-0D01*
G01*
D02*
G03*
X-2603055Y-1834082I0J0D01*
G01*
X-2603057D02*
G03*
X-2603057Y-1834083I0J-0D01*
G01*
D02*
G03*
X-2603057Y-1834082I0J0D01*
G01*
X-2603055Y-1834080D02*
G03*
X-2603055Y-1834081I0J-0D01*
G01*
D02*
G03*
X-2603055Y-1834080I0J0D01*
G01*
X-2603057D02*
G03*
X-2603057Y-1834081I0J-0D01*
G01*
D02*
G03*
X-2603057Y-1834080I0J0D01*
G01*
X-2603055Y-1834078D02*
G03*
X-2603055Y-1834079I0J-0D01*
G01*
D02*
G03*
X-2603055Y-1834078I0J0D01*
G01*
X-2603057D02*
G03*
X-2603057Y-1834079I0J-0D01*
G01*
D02*
G03*
X-2603057Y-1834078I0J0D01*
G01*
X-2603055Y-1834072D02*
G03*
X-2603055Y-1834073I0J-0D01*
G01*
D02*
G03*
X-2603055Y-1834072I0J0D01*
G01*
X-2603057D02*
G03*
X-2603057Y-1834073I0J-0D01*
G01*
D02*
G03*
X-2603057Y-1834072I0J0D01*
G01*
X-2603059Y-1834066D02*
G03*
X-2603059Y-1834067I0J-0D01*
G01*
D02*
G03*
X-2603059Y-1834066I0J0D01*
G01*
X-2603061D02*
G03*
X-2603061Y-1834067I0J-0D01*
G01*
D02*
G03*
X-2603061Y-1834066I0J0D01*
G01*
X-2603063D02*
G03*
X-2603063Y-1834067I0J-0D01*
G01*
D02*
G03*
X-2603063Y-1834066I0J0D01*
G01*
X-2603065D02*
G03*
X-2603065Y-1834067I0J-0D01*
G01*
D02*
G03*
X-2603065Y-1834066I0J0D01*
G01*
X-2603067D02*
G03*
X-2603067Y-1834067I0J-0D01*
G01*
D02*
G03*
X-2603067Y-1834066I0J0D01*
G01*
X-2603069D02*
G03*
X-2603069Y-1834067I0J-0D01*
G01*
D02*
G03*
X-2603069Y-1834066I0J0D01*
G01*
X-2603071D02*
G03*
X-2603071Y-1834067I0J-0D01*
G01*
D02*
G03*
X-2603071Y-1834066I0J0D01*
G01*
X-2603073D02*
G03*
X-2603073Y-1834067I0J-0D01*
G01*
D02*
G03*
X-2603073Y-1834066I0J0D01*
G01*
X-2603075D02*
G03*
X-2603075Y-1834067I0J-0D01*
G01*
D02*
G03*
X-2603075Y-1834066I0J0D01*
G01*
X-2603077D02*
G03*
X-2603077Y-1834067I0J-0D01*
G01*
D02*
G03*
X-2603077Y-1834066I0J0D01*
G01*
X-2603079D02*
G03*
X-2603079Y-1834067I0J-0D01*
G01*
D02*
G03*
X-2603079Y-1834066I0J0D01*
G01*
X-2603081D02*
G03*
X-2603081Y-1834067I0J-0D01*
G01*
D02*
G03*
X-2603081Y-1834066I0J0D01*
G01*
X-2603083D02*
G03*
X-2603083Y-1834067I0J-0D01*
G01*
D02*
G03*
X-2603083Y-1834066I0J0D01*
G01*
X-2603085D02*
G03*
X-2603085Y-1834067I0J-0D01*
G01*
D02*
G03*
X-2603085Y-1834066I0J0D01*
G01*
X-2603087D02*
G03*
X-2603087Y-1834067I0J-0D01*
G01*
D02*
G03*
X-2603087Y-1834066I0J0D01*
G01*
X-2603089D02*
G03*
X-2603089Y-1834067I0J-0D01*
G01*
D02*
G03*
X-2603089Y-1834066I0J0D01*
G01*
X-2603090Y-1834072D02*
G03*
X-2603090Y-1834073I0J-0D01*
G01*
D02*
G03*
X-2603090Y-1834072I0J0D01*
G01*
X-2603093D02*
G03*
X-2603093Y-1834073I0J-0D01*
G01*
D02*
G03*
X-2603093Y-1834072I0J0D01*
G01*
X-2603090Y-1834078D02*
G03*
X-2603090Y-1834079I0J-0D01*
G01*
D02*
G03*
X-2603090Y-1834078I0J0D01*
G01*
X-2603093D02*
G03*
X-2603093Y-1834079I0J-0D01*
G01*
D02*
G03*
X-2603093Y-1834078I0J0D01*
G01*
X-2603090Y-1834080D02*
G03*
X-2603090Y-1834081I0J-0D01*
G01*
D02*
G03*
X-2603090Y-1834080I0J0D01*
G01*
X-2603093D02*
G03*
X-2603093Y-1834081I0J-0D01*
G01*
D02*
G03*
X-2603093Y-1834080I0J0D01*
G01*
X-2603090Y-1834082D02*
G03*
X-2603090Y-1834083I0J-0D01*
G01*
D02*
G03*
X-2603090Y-1834082I0J0D01*
G01*
X-2603093D02*
G03*
X-2603093Y-1834083I0J-0D01*
G01*
D02*
G03*
X-2603093Y-1834082I0J0D01*
G01*
X-2603090Y-1834088D02*
G03*
X-2603090Y-1834089I0J-0D01*
G01*
D02*
G03*
X-2603090Y-1834088I0J0D01*
G01*
X-2603093D02*
G03*
X-2603093Y-1834089I0J-0D01*
G01*
D02*
G03*
X-2603093Y-1834088I0J0D01*
G01*
X-2603090Y-1834090D02*
G03*
X-2603090Y-1834091I0J-0D01*
G01*
D02*
G03*
X-2603090Y-1834090I0J0D01*
G01*
X-2603093D02*
G03*
X-2603093Y-1834091I0J-0D01*
G01*
D02*
G03*
X-2603093Y-1834090I0J0D01*
G01*
X-2603090Y-1834092D02*
G03*
X-2603090Y-1834093I0J-0D01*
G01*
D02*
G03*
X-2603090Y-1834092I0J0D01*
G01*
X-2603093D02*
G03*
X-2603093Y-1834093I0J-0D01*
G01*
D02*
G03*
X-2603093Y-1834092I0J0D01*
G01*
X-2603090Y-1834098D02*
G03*
X-2603090Y-1834099I0J-0D01*
G01*
D02*
G03*
X-2603090Y-1834098I0J0D01*
G01*
X-2603093D02*
G03*
X-2603093Y-1834099I0J-0D01*
G01*
D02*
G03*
X-2603093Y-1834098I0J0D01*
G01*
D264*
X-2603029Y-1834109D02*
D03*
X-2603031D02*
D03*
Y-1834108D02*
D03*
X-2603029D02*
D03*
Y-1834113D02*
D03*
X-2603031D02*
D03*
Y-1834112D02*
D03*
X-2603029D02*
D03*
X-2603022Y-1834111D02*
D03*
X-2603024D02*
D03*
Y-1834110D02*
D03*
X-2603022D02*
D03*
D265*
X-2603158Y-1834089D02*
D03*
X-2603160D02*
D03*
Y-1834088D02*
D03*
X-2603158D02*
D03*
Y-1834096D02*
D03*
X-2603160D02*
D03*
Y-1834094D02*
D03*
X-2603158D02*
D03*
X-2603143Y-1834109D02*
D03*
X-2603144D02*
D03*
Y-1834107D02*
D03*
X-2603143D02*
D03*
Y-1834115D02*
D03*
X-2603144D02*
D03*
Y-1834114D02*
D03*
X-2603143D02*
D03*
X-2602985Y-1834358D02*
D03*
X-2602987D02*
D03*
Y-1834356D02*
D03*
X-2602985D02*
D03*
Y-1834365D02*
D03*
X-2602987D02*
D03*
Y-1834363D02*
D03*
X-2602985D02*
D03*
X-2603180Y-1834120D02*
D03*
X-2603182D02*
D03*
Y-1834118D02*
D03*
X-2603180D02*
D03*
Y-1834126D02*
D03*
X-2603182D02*
D03*
Y-1834125D02*
D03*
X-2603180D02*
D03*
X-2603171Y-1834123D02*
D03*
X-2603173D02*
D03*
Y-1834121D02*
D03*
X-2603171D02*
D03*
Y-1834130D02*
D03*
X-2603173D02*
D03*
Y-1834128D02*
D03*
X-2603171D02*
D03*
X-2602925Y-1834365D02*
D03*
X-2602927D02*
D03*
Y-1834363D02*
D03*
X-2602925D02*
D03*
Y-1834358D02*
D03*
X-2602927D02*
D03*
Y-1834356D02*
D03*
X-2602925D02*
D03*
X-2602962Y-1834362D02*
D03*
Y-1834361D02*
D03*
X-2602960D02*
D03*
Y-1834362D02*
D03*
X-2602968D02*
D03*
Y-1834361D02*
D03*
X-2602967D02*
D03*
Y-1834362D02*
D03*
X-2602941Y-1834362D02*
D03*
X-2602943D02*
D03*
Y-1834361D02*
D03*
X-2602941D02*
D03*
Y-1834356D02*
D03*
X-2602943D02*
D03*
Y-1834354D02*
D03*
X-2602941D02*
D03*
X-2602949Y-1834260D02*
D03*
X-2602950D02*
D03*
Y-1834258D02*
D03*
X-2602949D02*
D03*
Y-1834254D02*
D03*
X-2602950D02*
D03*
Y-1834252D02*
D03*
X-2602949D02*
D03*
X-2603176Y-1834079D02*
D03*
Y-1834077D02*
D03*
X-2603174D02*
D03*
Y-1834079D02*
D03*
X-2603169D02*
D03*
Y-1834077D02*
D03*
X-2603168D02*
D03*
Y-1834079D02*
D03*
X-2603041Y-1833964D02*
D03*
X-2603043D02*
D03*
Y-1833962D02*
D03*
X-2603041D02*
D03*
Y-1833971D02*
D03*
X-2603043D02*
D03*
Y-1833969D02*
D03*
X-2603041D02*
D03*
X-2603100Y-1834090D02*
D03*
Y-1834088D02*
D03*
X-2603098D02*
D03*
Y-1834090D02*
D03*
X-2603107D02*
D03*
Y-1834088D02*
D03*
X-2603105D02*
D03*
Y-1834090D02*
D03*
X-2603221Y-1834181D02*
D03*
Y-1834180D02*
D03*
X-2603219D02*
D03*
Y-1834181D02*
D03*
X-2603221Y-1834188D02*
D03*
Y-1834186D02*
D03*
X-2603219D02*
D03*
Y-1834188D02*
D03*
X-2603198Y-1834082D02*
D03*
X-2603200D02*
D03*
Y-1834080D02*
D03*
X-2603198D02*
D03*
Y-1834075D02*
D03*
X-2603200D02*
D03*
Y-1834073D02*
D03*
X-2603198D02*
D03*
X-2603090Y-1834117D02*
D03*
X-2603092D02*
D03*
Y-1834116D02*
D03*
X-2603090D02*
D03*
Y-1834111D02*
D03*
X-2603092D02*
D03*
Y-1834109D02*
D03*
X-2603090D02*
D03*
X-2603204Y-1834073D02*
D03*
Y-1834075D02*
D03*
X-2603206D02*
D03*
Y-1834073D02*
D03*
X-2603211D02*
D03*
Y-1834075D02*
D03*
X-2603212D02*
D03*
Y-1834073D02*
D03*
X-2603032Y-1834245D02*
D03*
X-2603034D02*
D03*
Y-1834244D02*
D03*
X-2603032D02*
D03*
Y-1834239D02*
D03*
X-2603034D02*
D03*
Y-1834237D02*
D03*
X-2603032D02*
D03*
X-2603141Y-1834249D02*
D03*
X-2603143D02*
D03*
Y-1834248D02*
D03*
X-2603141D02*
D03*
Y-1834242D02*
D03*
X-2603143D02*
D03*
Y-1834241D02*
D03*
X-2603141D02*
D03*
X-2603084Y-1834038D02*
D03*
X-2603086D02*
D03*
Y-1834036D02*
D03*
X-2603084D02*
D03*
Y-1834045D02*
D03*
X-2603086D02*
D03*
Y-1834043D02*
D03*
X-2603084D02*
D03*
X-2603088Y-1834047D02*
D03*
X-2603090D02*
D03*
Y-1834045D02*
D03*
X-2603088D02*
D03*
Y-1834054D02*
D03*
X-2603090D02*
D03*
Y-1834052D02*
D03*
X-2603088D02*
D03*
X-2603080Y-1834048D02*
D03*
X-2603082D02*
D03*
Y-1834047D02*
D03*
X-2603080D02*
D03*
Y-1834055D02*
D03*
X-2603082D02*
D03*
Y-1834053D02*
D03*
X-2603080D02*
D03*
X-2603098Y-1834041D02*
D03*
Y-1834043D02*
D03*
X-2603099D02*
D03*
Y-1834041D02*
D03*
X-2603104D02*
D03*
Y-1834043D02*
D03*
X-2603106D02*
D03*
Y-1834041D02*
D03*
X-2603098Y-1834035D02*
D03*
Y-1834037D02*
D03*
X-2603099D02*
D03*
Y-1834035D02*
D03*
X-2603104D02*
D03*
Y-1834037D02*
D03*
X-2603106D02*
D03*
Y-1834035D02*
D03*
X-2603080Y-1834033D02*
D03*
X-2603082D02*
D03*
Y-1834031D02*
D03*
X-2603080D02*
D03*
Y-1834026D02*
D03*
X-2603082D02*
D03*
Y-1834025D02*
D03*
X-2603080D02*
D03*
X-2603137Y-1833979D02*
D03*
X-2603135D02*
D03*
Y-1833980D02*
D03*
X-2603137D02*
D03*
Y-1833985D02*
D03*
X-2603135D02*
D03*
Y-1833987D02*
D03*
X-2603137D02*
D03*
X-2603138Y-1833990D02*
D03*
X-2603136D02*
D03*
Y-1833992D02*
D03*
X-2603138D02*
D03*
Y-1833997D02*
D03*
X-2603136D02*
D03*
Y-1833998D02*
D03*
X-2603138D02*
D03*
X-2603127Y-1833918D02*
D03*
X-2603125D02*
D03*
Y-1833920D02*
D03*
X-2603127D02*
D03*
Y-1833925D02*
D03*
X-2603125D02*
D03*
Y-1833926D02*
D03*
X-2603127D02*
D03*
X-2603050Y-1834084D02*
D03*
X-2603052D02*
D03*
Y-1834083D02*
D03*
X-2603050D02*
D03*
Y-1834078D02*
D03*
X-2603052D02*
D03*
Y-1834076D02*
D03*
X-2603050D02*
D03*
X-2603081Y-1833938D02*
D03*
Y-1833936D02*
D03*
X-2603079D02*
D03*
Y-1833938D02*
D03*
X-2603074D02*
D03*
Y-1833936D02*
D03*
X-2603072D02*
D03*
Y-1833938D02*
D03*
X-2603077Y-1833943D02*
D03*
Y-1833941D02*
D03*
X-2603075D02*
D03*
Y-1833943D02*
D03*
X-2603070D02*
D03*
Y-1833941D02*
D03*
X-2603069D02*
D03*
Y-1833943D02*
D03*
X-2603105Y-1833929D02*
D03*
X-2603106D02*
D03*
Y-1833928D02*
D03*
X-2603105D02*
D03*
Y-1833923D02*
D03*
X-2603106D02*
D03*
Y-1833921D02*
D03*
X-2603105D02*
D03*
X-2603119Y-1833925D02*
D03*
X-2603120D02*
D03*
Y-1833923D02*
D03*
X-2603119D02*
D03*
Y-1833932D02*
D03*
X-2603120D02*
D03*
Y-1833930D02*
D03*
X-2603119D02*
D03*
X-2603105Y-1834073D02*
D03*
X-2603106D02*
D03*
Y-1834071D02*
D03*
X-2603105D02*
D03*
Y-1834066D02*
D03*
X-2603106D02*
D03*
Y-1834064D02*
D03*
X-2603105D02*
D03*
X-2603167Y-1834256D02*
D03*
Y-1834258D02*
D03*
X-2603169D02*
D03*
Y-1834256D02*
D03*
X-2603174D02*
D03*
Y-1834258D02*
D03*
X-2603175D02*
D03*
Y-1834256D02*
D03*
X-2603190Y-1834226D02*
D03*
X-2603189D02*
D03*
Y-1834228D02*
D03*
X-2603190D02*
D03*
Y-1834219D02*
D03*
X-2603189D02*
D03*
Y-1834221D02*
D03*
X-2603190D02*
D03*
X-2603098Y-1834262D02*
D03*
Y-1834263D02*
D03*
X-2603100D02*
D03*
Y-1834262D02*
D03*
X-2603092D02*
D03*
Y-1834263D02*
D03*
X-2603094D02*
D03*
Y-1834262D02*
D03*
X-2603074Y-1834254D02*
D03*
X-2603073D02*
D03*
Y-1834256D02*
D03*
X-2603074D02*
D03*
Y-1834247D02*
D03*
X-2603073D02*
D03*
Y-1834249D02*
D03*
X-2603074D02*
D03*
X-2603094Y-1834311D02*
D03*
X-2603096D02*
D03*
Y-1834309D02*
D03*
X-2603094D02*
D03*
Y-1834318D02*
D03*
X-2603096D02*
D03*
Y-1834316D02*
D03*
X-2603094D02*
D03*
X-2603128Y-1834226D02*
D03*
X-2603127D02*
D03*
Y-1834228D02*
D03*
X-2603128D02*
D03*
Y-1834219D02*
D03*
X-2603127D02*
D03*
Y-1834221D02*
D03*
X-2603128D02*
D03*
X-2603133Y-1834214D02*
D03*
Y-1834216D02*
D03*
X-2603135D02*
D03*
Y-1834214D02*
D03*
X-2603127D02*
D03*
Y-1834216D02*
D03*
X-2603128D02*
D03*
Y-1834214D02*
D03*
X-2603133Y-1834231D02*
D03*
Y-1834233D02*
D03*
X-2603135D02*
D03*
Y-1834231D02*
D03*
X-2603127D02*
D03*
Y-1834233D02*
D03*
X-2603128D02*
D03*
Y-1834231D02*
D03*
X-2603098Y-1834227D02*
D03*
X-2603096D02*
D03*
Y-1834229D02*
D03*
X-2603098D02*
D03*
Y-1834221D02*
D03*
X-2603096D02*
D03*
Y-1834222D02*
D03*
X-2603098D02*
D03*
X-2603033Y-1834216D02*
D03*
Y-1834218D02*
D03*
X-2603035D02*
D03*
Y-1834216D02*
D03*
X-2603026D02*
D03*
Y-1834218D02*
D03*
X-2603028D02*
D03*
Y-1834216D02*
D03*
Y-1834230D02*
D03*
Y-1834228D02*
D03*
X-2603026D02*
D03*
Y-1834230D02*
D03*
X-2603035D02*
D03*
Y-1834228D02*
D03*
X-2603033D02*
D03*
Y-1834230D02*
D03*
X-2603045Y-1834232D02*
D03*
X-2603044D02*
D03*
Y-1834233D02*
D03*
X-2603045D02*
D03*
Y-1834225D02*
D03*
X-2603044D02*
D03*
Y-1834227D02*
D03*
X-2603045D02*
D03*
X-2603166Y-1834233D02*
D03*
X-2603164D02*
D03*
Y-1834235D02*
D03*
X-2603166D02*
D03*
Y-1834227D02*
D03*
X-2603164D02*
D03*
Y-1834228D02*
D03*
X-2603166D02*
D03*
X-2603152Y-1834192D02*
D03*
X-2603153D02*
D03*
Y-1834191D02*
D03*
X-2603152D02*
D03*
Y-1834199D02*
D03*
X-2603153D02*
D03*
Y-1834197D02*
D03*
X-2603152D02*
D03*
X-2603147Y-1834192D02*
D03*
X-2603149D02*
D03*
Y-1834191D02*
D03*
X-2603147D02*
D03*
Y-1834199D02*
D03*
X-2603149D02*
D03*
Y-1834197D02*
D03*
X-2603147D02*
D03*
X-2603133Y-1834204D02*
D03*
Y-1834205D02*
D03*
X-2603135D02*
D03*
Y-1834204D02*
D03*
X-2603126D02*
D03*
Y-1834205D02*
D03*
X-2603128D02*
D03*
Y-1834204D02*
D03*
X-2603059Y-1834195D02*
D03*
X-2603061D02*
D03*
Y-1834193D02*
D03*
X-2603059D02*
D03*
Y-1834201D02*
D03*
X-2603061D02*
D03*
Y-1834199D02*
D03*
X-2603059D02*
D03*
X-2603054Y-1834195D02*
D03*
X-2603056D02*
D03*
Y-1834193D02*
D03*
X-2603054D02*
D03*
Y-1834201D02*
D03*
X-2603056D02*
D03*
Y-1834199D02*
D03*
X-2603054D02*
D03*
X-2603041Y-1834203D02*
D03*
Y-1834205D02*
D03*
X-2603043D02*
D03*
Y-1834203D02*
D03*
X-2603035D02*
D03*
Y-1834205D02*
D03*
X-2603036D02*
D03*
Y-1834203D02*
D03*
X-2603131Y-1834104D02*
D03*
X-2603129D02*
D03*
Y-1834106D02*
D03*
X-2603131D02*
D03*
Y-1834097D02*
D03*
X-2603129D02*
D03*
Y-1834099D02*
D03*
X-2603131D02*
D03*
X-2603121Y-1834104D02*
D03*
X-2603119D02*
D03*
Y-1834106D02*
D03*
X-2603121D02*
D03*
Y-1834097D02*
D03*
X-2603119D02*
D03*
Y-1834099D02*
D03*
X-2603121D02*
D03*
X-2603116Y-1834104D02*
D03*
X-2603115D02*
D03*
Y-1834106D02*
D03*
X-2603116D02*
D03*
Y-1834097D02*
D03*
X-2603115D02*
D03*
Y-1834099D02*
D03*
X-2603116D02*
D03*
X-2603100Y-1834095D02*
D03*
Y-1834093D02*
D03*
X-2603098D02*
D03*
Y-1834095D02*
D03*
X-2603107D02*
D03*
Y-1834093D02*
D03*
X-2603105D02*
D03*
Y-1834095D02*
D03*
X-2603102Y-1834104D02*
D03*
X-2603100D02*
D03*
Y-1834106D02*
D03*
X-2603102D02*
D03*
Y-1834097D02*
D03*
X-2603100D02*
D03*
Y-1834099D02*
D03*
X-2603102D02*
D03*
X-2603107Y-1834104D02*
D03*
X-2603105D02*
D03*
Y-1834106D02*
D03*
X-2603107D02*
D03*
Y-1834097D02*
D03*
X-2603105D02*
D03*
Y-1834099D02*
D03*
X-2603107D02*
D03*
X-2603097Y-1834104D02*
D03*
X-2603095D02*
D03*
Y-1834106D02*
D03*
X-2603097D02*
D03*
Y-1834097D02*
D03*
X-2603095D02*
D03*
Y-1834099D02*
D03*
X-2603097D02*
D03*
X-2603086Y-1834122D02*
D03*
X-2603088D02*
D03*
Y-1834120D02*
D03*
X-2603086D02*
D03*
Y-1834115D02*
D03*
X-2603088D02*
D03*
Y-1834113D02*
D03*
X-2603086D02*
D03*
X-2603065Y-1834122D02*
D03*
X-2603067D02*
D03*
Y-1834120D02*
D03*
X-2603065D02*
D03*
Y-1834115D02*
D03*
X-2603067D02*
D03*
Y-1834113D02*
D03*
X-2603065D02*
D03*
X-2603135Y-1833947D02*
D03*
X-2603133D02*
D03*
Y-1833948D02*
D03*
X-2603135D02*
D03*
Y-1833940D02*
D03*
X-2603133D02*
D03*
Y-1833942D02*
D03*
X-2603135D02*
D03*
X-2603120Y-1833937D02*
D03*
Y-1833935D02*
D03*
X-2603118D02*
D03*
Y-1833937D02*
D03*
X-2603127D02*
D03*
Y-1833935D02*
D03*
X-2603125D02*
D03*
Y-1833937D02*
D03*
X-2603097Y-1833928D02*
D03*
X-2603095D02*
D03*
Y-1833929D02*
D03*
X-2603097D02*
D03*
Y-1833921D02*
D03*
X-2603095D02*
D03*
Y-1833923D02*
D03*
X-2603097D02*
D03*
X-2603092Y-1833928D02*
D03*
X-2603090D02*
D03*
Y-1833929D02*
D03*
X-2603092D02*
D03*
Y-1833921D02*
D03*
X-2603090D02*
D03*
Y-1833923D02*
D03*
X-2603092D02*
D03*
X-2603120Y-1833955D02*
D03*
Y-1833953D02*
D03*
X-2603118D02*
D03*
Y-1833955D02*
D03*
X-2603126D02*
D03*
Y-1833953D02*
D03*
X-2603124D02*
D03*
Y-1833955D02*
D03*
X-2603131Y-1833962D02*
D03*
Y-1833961D02*
D03*
X-2603129D02*
D03*
Y-1833962D02*
D03*
X-2603138D02*
D03*
Y-1833961D02*
D03*
X-2603136D02*
D03*
Y-1833962D02*
D03*
X-2603131Y-1833957D02*
D03*
Y-1833956D02*
D03*
X-2603129D02*
D03*
Y-1833957D02*
D03*
X-2603138D02*
D03*
Y-1833956D02*
D03*
X-2603136D02*
D03*
Y-1833957D02*
D03*
X-2603120Y-1833960D02*
D03*
Y-1833958D02*
D03*
X-2603118D02*
D03*
Y-1833960D02*
D03*
X-2603126D02*
D03*
Y-1833958D02*
D03*
X-2603125D02*
D03*
Y-1833960D02*
D03*
X-2603106Y-1833968D02*
D03*
X-2603108D02*
D03*
Y-1833966D02*
D03*
X-2603106D02*
D03*
Y-1833975D02*
D03*
X-2603108D02*
D03*
Y-1833973D02*
D03*
X-2603106D02*
D03*
X-2603117Y-1833968D02*
D03*
X-2603119D02*
D03*
Y-1833966D02*
D03*
X-2603117D02*
D03*
Y-1833975D02*
D03*
X-2603119D02*
D03*
Y-1833973D02*
D03*
X-2603117D02*
D03*
X-2603113Y-1833968D02*
D03*
X-2603114D02*
D03*
Y-1833966D02*
D03*
X-2603113D02*
D03*
Y-1833975D02*
D03*
X-2603114D02*
D03*
Y-1833973D02*
D03*
X-2603113D02*
D03*
X-2603102Y-1833968D02*
D03*
X-2603103D02*
D03*
Y-1833966D02*
D03*
X-2603102D02*
D03*
Y-1833975D02*
D03*
X-2603103D02*
D03*
Y-1833973D02*
D03*
X-2603102D02*
D03*
X-2603097Y-1833972D02*
D03*
Y-1833974D02*
D03*
X-2603098D02*
D03*
Y-1833972D02*
D03*
X-2603090D02*
D03*
Y-1833974D02*
D03*
X-2603092D02*
D03*
Y-1833972D02*
D03*
X-2603097Y-1833966D02*
D03*
Y-1833968D02*
D03*
X-2603098D02*
D03*
Y-1833966D02*
D03*
X-2603090D02*
D03*
Y-1833968D02*
D03*
X-2603092D02*
D03*
Y-1833966D02*
D03*
X-2603077Y-1833963D02*
D03*
Y-1833961D02*
D03*
X-2603075D02*
D03*
Y-1833963D02*
D03*
X-2603083D02*
D03*
Y-1833961D02*
D03*
X-2603082D02*
D03*
Y-1833963D02*
D03*
X-2603088Y-1833963D02*
D03*
Y-1833961D02*
D03*
X-2603086D02*
D03*
Y-1833963D02*
D03*
X-2603095D02*
D03*
Y-1833961D02*
D03*
X-2603093D02*
D03*
Y-1833963D02*
D03*
X-2603079Y-1833951D02*
D03*
Y-1833953D02*
D03*
X-2603081D02*
D03*
Y-1833951D02*
D03*
X-2603072D02*
D03*
Y-1833953D02*
D03*
X-2603074D02*
D03*
Y-1833951D02*
D03*
X-2603079Y-1833946D02*
D03*
Y-1833948D02*
D03*
X-2603081D02*
D03*
Y-1833946D02*
D03*
X-2603072D02*
D03*
Y-1833948D02*
D03*
X-2603074D02*
D03*
Y-1833946D02*
D03*
X-2603067Y-1833971D02*
D03*
X-2603069D02*
D03*
Y-1833969D02*
D03*
X-2603067D02*
D03*
Y-1833978D02*
D03*
X-2603069D02*
D03*
Y-1833976D02*
D03*
X-2603067D02*
D03*
X-2603072Y-1833971D02*
D03*
X-2603074D02*
D03*
Y-1833969D02*
D03*
X-2603072D02*
D03*
Y-1833978D02*
D03*
X-2603074D02*
D03*
Y-1833976D02*
D03*
X-2603072D02*
D03*
X-2603051Y-1833964D02*
D03*
X-2603053D02*
D03*
Y-1833962D02*
D03*
X-2603051D02*
D03*
Y-1833971D02*
D03*
X-2603053D02*
D03*
Y-1833969D02*
D03*
X-2603051D02*
D03*
X-2603068Y-1833955D02*
D03*
X-2603067D02*
D03*
Y-1833957D02*
D03*
X-2603068D02*
D03*
Y-1833961D02*
D03*
X-2603067D02*
D03*
Y-1833963D02*
D03*
X-2603068D02*
D03*
X-2603062Y-1833955D02*
D03*
Y-1833957D02*
D03*
X-2603064D02*
D03*
Y-1833955D02*
D03*
X-2603055D02*
D03*
Y-1833957D02*
D03*
X-2603057D02*
D03*
Y-1833955D02*
D03*
X-2603046Y-1833964D02*
D03*
X-2603048D02*
D03*
Y-1833963D02*
D03*
X-2603046D02*
D03*
Y-1833971D02*
D03*
X-2603048D02*
D03*
Y-1833969D02*
D03*
X-2603046D02*
D03*
X-2603043Y-1833951D02*
D03*
X-2603042D02*
D03*
Y-1833953D02*
D03*
X-2603043D02*
D03*
Y-1833944D02*
D03*
X-2603042D02*
D03*
Y-1833946D02*
D03*
X-2603043D02*
D03*
X-2603129Y-1833978D02*
D03*
Y-1833980D02*
D03*
X-2603131D02*
D03*
Y-1833978D02*
D03*
X-2603122D02*
D03*
Y-1833980D02*
D03*
X-2603124D02*
D03*
Y-1833978D02*
D03*
X-2603123Y-1833968D02*
D03*
X-2603124D02*
D03*
Y-1833966D02*
D03*
X-2603123D02*
D03*
Y-1833975D02*
D03*
X-2603124D02*
D03*
Y-1833973D02*
D03*
X-2603123D02*
D03*
X-2603085Y-1833932D02*
D03*
Y-1833934D02*
D03*
X-2603087D02*
D03*
Y-1833932D02*
D03*
X-2603078D02*
D03*
Y-1833934D02*
D03*
X-2603080D02*
D03*
Y-1833932D02*
D03*
X-2603135Y-1834201D02*
D03*
Y-1834199D02*
D03*
X-2603133D02*
D03*
Y-1834201D02*
D03*
X-2603128D02*
D03*
Y-1834199D02*
D03*
X-2603127D02*
D03*
Y-1834201D02*
D03*
X-2603135Y-1834219D02*
D03*
X-2603133D02*
D03*
Y-1834221D02*
D03*
X-2603135D02*
D03*
Y-1834226D02*
D03*
X-2603133D02*
D03*
Y-1834228D02*
D03*
X-2603135D02*
D03*
X-2603127Y-1834209D02*
D03*
Y-1834210D02*
D03*
X-2603128D02*
D03*
Y-1834209D02*
D03*
X-2603133D02*
D03*
Y-1834210D02*
D03*
X-2603135D02*
D03*
Y-1834209D02*
D03*
X-2603043Y-1834199D02*
D03*
Y-1834197D02*
D03*
X-2603041D02*
D03*
Y-1834199D02*
D03*
X-2603037D02*
D03*
Y-1834197D02*
D03*
X-2603035D02*
D03*
Y-1834199D02*
D03*
X-2603026Y-1834222D02*
D03*
Y-1834224D02*
D03*
X-2603028D02*
D03*
Y-1834222D02*
D03*
X-2603033D02*
D03*
Y-1834224D02*
D03*
X-2603035D02*
D03*
Y-1834222D02*
D03*
X-2603135Y-1834243D02*
D03*
Y-1834241D02*
D03*
X-2603133D02*
D03*
Y-1834243D02*
D03*
X-2603128D02*
D03*
Y-1834241D02*
D03*
X-2603127D02*
D03*
Y-1834243D02*
D03*
Y-1834236D02*
D03*
Y-1834238D02*
D03*
X-2603128D02*
D03*
Y-1834236D02*
D03*
X-2603133D02*
D03*
Y-1834238D02*
D03*
X-2603135D02*
D03*
Y-1834236D02*
D03*
X-2603040Y-1834237D02*
D03*
X-2603038D02*
D03*
Y-1834239D02*
D03*
X-2603040D02*
D03*
Y-1834244D02*
D03*
X-2603038D02*
D03*
Y-1834245D02*
D03*
X-2603040D02*
D03*
X-2603027Y-1834245D02*
D03*
X-2603029D02*
D03*
Y-1834244D02*
D03*
X-2603027D02*
D03*
Y-1834239D02*
D03*
X-2603029D02*
D03*
Y-1834237D02*
D03*
X-2603027D02*
D03*
X-2603149Y-1834161D02*
D03*
Y-1834160D02*
D03*
X-2603148D02*
D03*
Y-1834161D02*
D03*
X-2603143D02*
D03*
Y-1834160D02*
D03*
X-2603141D02*
D03*
Y-1834161D02*
D03*
X-2603057Y-1834162D02*
D03*
X-2603058D02*
D03*
Y-1834160D02*
D03*
X-2603057D02*
D03*
Y-1834155D02*
D03*
X-2603058D02*
D03*
Y-1834153D02*
D03*
X-2603057D02*
D03*
X-2603116Y-1833928D02*
D03*
X-2603114D02*
D03*
Y-1833930D02*
D03*
X-2603116D02*
D03*
Y-1833935D02*
D03*
X-2603114D02*
D03*
Y-1833936D02*
D03*
X-2603116D02*
D03*
X-2603132Y-1833935D02*
D03*
Y-1833936D02*
D03*
X-2603134D02*
D03*
Y-1833935D02*
D03*
X-2603139D02*
D03*
Y-1833936D02*
D03*
X-2603141D02*
D03*
Y-1833935D02*
D03*
X-2603101Y-1833962D02*
D03*
Y-1833964D02*
D03*
X-2603102D02*
D03*
Y-1833962D02*
D03*
X-2603107D02*
D03*
Y-1833964D02*
D03*
X-2603109D02*
D03*
Y-1833962D02*
D03*
X-2603036Y-1833964D02*
D03*
X-2603038D02*
D03*
Y-1833963D02*
D03*
X-2603036D02*
D03*
Y-1833958D02*
D03*
X-2603038D02*
D03*
Y-1833956D02*
D03*
X-2603036D02*
D03*
X-2603032Y-1833959D02*
D03*
X-2603033D02*
D03*
Y-1833957D02*
D03*
X-2603032D02*
D03*
Y-1833952D02*
D03*
X-2603033D02*
D03*
Y-1833950D02*
D03*
X-2603032D02*
D03*
X-2602999Y-1834355D02*
D03*
X-2603000D02*
D03*
Y-1834353D02*
D03*
X-2602999D02*
D03*
Y-1834348D02*
D03*
X-2603000D02*
D03*
Y-1834346D02*
D03*
X-2602999D02*
D03*
X-2603041Y-1833932D02*
D03*
Y-1833930D02*
D03*
X-2603039D02*
D03*
Y-1833932D02*
D03*
X-2603034D02*
D03*
Y-1833930D02*
D03*
X-2603032D02*
D03*
Y-1833932D02*
D03*
X-2603141Y-1833922D02*
D03*
X-2603139D02*
D03*
Y-1833924D02*
D03*
X-2603141D02*
D03*
Y-1833929D02*
D03*
X-2603139D02*
D03*
Y-1833931D02*
D03*
X-2603141D02*
D03*
X-2603138Y-1834016D02*
D03*
X-2603136D02*
D03*
Y-1834017D02*
D03*
X-2603138D02*
D03*
Y-1834022D02*
D03*
X-2603136D02*
D03*
Y-1834024D02*
D03*
X-2603138D02*
D03*
X-2603133Y-1834015D02*
D03*
X-2603131D02*
D03*
Y-1834017D02*
D03*
X-2603133D02*
D03*
Y-1834022D02*
D03*
X-2603131D02*
D03*
Y-1834024D02*
D03*
X-2603133D02*
D03*
X-2603124Y-1834104D02*
D03*
Y-1834106D02*
D03*
X-2603126D02*
D03*
Y-1834104D02*
D03*
X-2603124Y-1834097D02*
D03*
Y-1834099D02*
D03*
X-2603126D02*
D03*
Y-1834097D02*
D03*
X-2603102Y-1833923D02*
D03*
Y-1833921D02*
D03*
X-2603100D02*
D03*
Y-1833923D02*
D03*
X-2603102Y-1833929D02*
D03*
Y-1833928D02*
D03*
X-2603100D02*
D03*
Y-1833929D02*
D03*
X-2603129Y-1833973D02*
D03*
Y-1833975D02*
D03*
X-2603131D02*
D03*
Y-1833973D02*
D03*
X-2603129Y-1833966D02*
D03*
Y-1833968D02*
D03*
X-2603131D02*
D03*
Y-1833966D02*
D03*
X-2603231Y-1834022D02*
D03*
Y-1834020D02*
D03*
X-2603229D02*
D03*
Y-1834022D02*
D03*
X-2603224D02*
D03*
Y-1834020D02*
D03*
X-2603222D02*
D03*
Y-1834022D02*
D03*
X-2603087Y-1834304D02*
D03*
Y-1834305D02*
D03*
X-2603089D02*
D03*
Y-1834304D02*
D03*
X-2603094D02*
D03*
Y-1834305D02*
D03*
X-2603095D02*
D03*
Y-1834304D02*
D03*
X-2603203Y-1834222D02*
D03*
X-2603201D02*
D03*
Y-1834224D02*
D03*
X-2603203D02*
D03*
Y-1834229D02*
D03*
X-2603201D02*
D03*
Y-1834231D02*
D03*
X-2603203D02*
D03*
X-2603196Y-1834222D02*
D03*
X-2603194D02*
D03*
Y-1834224D02*
D03*
X-2603196D02*
D03*
Y-1834229D02*
D03*
X-2603194D02*
D03*
Y-1834231D02*
D03*
X-2603196D02*
D03*
X-2603201Y-1834109D02*
D03*
X-2603203D02*
D03*
Y-1834107D02*
D03*
X-2603201D02*
D03*
Y-1834102D02*
D03*
X-2603203D02*
D03*
Y-1834100D02*
D03*
X-2603201D02*
D03*
X-2603214Y-1834126D02*
D03*
X-2603212D02*
D03*
Y-1834128D02*
D03*
X-2603214D02*
D03*
Y-1834133D02*
D03*
X-2603212D02*
D03*
Y-1834135D02*
D03*
X-2603214D02*
D03*
X-2603197Y-1834170D02*
D03*
Y-1834172D02*
D03*
X-2603198D02*
D03*
Y-1834170D02*
D03*
X-2603203D02*
D03*
Y-1834172D02*
D03*
X-2603205D02*
D03*
Y-1834170D02*
D03*
X-2603180Y-1834164D02*
D03*
X-2603178D02*
D03*
Y-1834166D02*
D03*
X-2603180D02*
D03*
Y-1834170D02*
D03*
X-2603178D02*
D03*
Y-1834172D02*
D03*
X-2603180D02*
D03*
X-2603112Y-1834097D02*
D03*
X-2603110D02*
D03*
Y-1834099D02*
D03*
X-2603112D02*
D03*
Y-1834104D02*
D03*
X-2603110D02*
D03*
Y-1834106D02*
D03*
X-2603112D02*
D03*
X-2603167Y-1834278D02*
D03*
Y-1834279D02*
D03*
X-2603169D02*
D03*
Y-1834278D02*
D03*
X-2603174D02*
D03*
Y-1834279D02*
D03*
X-2603175D02*
D03*
Y-1834278D02*
D03*
X-2603167Y-1834273D02*
D03*
Y-1834274D02*
D03*
X-2603169D02*
D03*
Y-1834273D02*
D03*
X-2603174D02*
D03*
Y-1834274D02*
D03*
X-2603175D02*
D03*
Y-1834273D02*
D03*
X-2603167Y-1834267D02*
D03*
Y-1834269D02*
D03*
X-2603169D02*
D03*
Y-1834267D02*
D03*
X-2603174D02*
D03*
Y-1834269D02*
D03*
X-2603175D02*
D03*
Y-1834267D02*
D03*
X-2603167Y-1834262D02*
D03*
Y-1834264D02*
D03*
X-2603169D02*
D03*
Y-1834262D02*
D03*
X-2603174D02*
D03*
Y-1834264D02*
D03*
X-2603175D02*
D03*
Y-1834262D02*
D03*
X-2603043Y-1834257D02*
D03*
X-2603045D02*
D03*
Y-1834255D02*
D03*
X-2603043D02*
D03*
Y-1834250D02*
D03*
X-2603045D02*
D03*
Y-1834248D02*
D03*
X-2603043D02*
D03*
X-2603117Y-1833915D02*
D03*
Y-1833913D02*
D03*
X-2603115D02*
D03*
Y-1833915D02*
D03*
X-2603110D02*
D03*
Y-1833913D02*
D03*
X-2603108D02*
D03*
Y-1833915D02*
D03*
X-2603004Y-1834119D02*
D03*
X-2603006D02*
D03*
Y-1834117D02*
D03*
X-2603004D02*
D03*
Y-1834112D02*
D03*
X-2603006D02*
D03*
Y-1834110D02*
D03*
X-2603004D02*
D03*
X-2603037Y-1833941D02*
D03*
Y-1833940D02*
D03*
X-2603035D02*
D03*
Y-1833941D02*
D03*
X-2603030D02*
D03*
Y-1833940D02*
D03*
X-2603028D02*
D03*
Y-1833941D02*
D03*
X-2603209Y-1834212D02*
D03*
X-2603207D02*
D03*
Y-1834214D02*
D03*
X-2603209D02*
D03*
X-2603216Y-1834212D02*
D03*
X-2603214D02*
D03*
Y-1834214D02*
D03*
X-2603216D02*
D03*
X-2603213Y-1834102D02*
D03*
X-2603214D02*
D03*
Y-1834100D02*
D03*
X-2603213D02*
D03*
X-2603206Y-1834102D02*
D03*
X-2603208D02*
D03*
Y-1834100D02*
D03*
X-2603206D02*
D03*
X-2603207Y-1834139D02*
D03*
X-2603206D02*
D03*
Y-1834141D02*
D03*
X-2603207D02*
D03*
X-2603214Y-1834139D02*
D03*
X-2603212D02*
D03*
Y-1834141D02*
D03*
X-2603214D02*
D03*
X-2603198Y-1834185D02*
D03*
X-2603200D02*
D03*
Y-1834184D02*
D03*
X-2603198D02*
D03*
Y-1834192D02*
D03*
X-2603200D02*
D03*
Y-1834190D02*
D03*
X-2603198D02*
D03*
X-2603201Y-1834217D02*
D03*
Y-1834219D02*
D03*
X-2603203D02*
D03*
Y-1834217D02*
D03*
X-2603194D02*
D03*
Y-1834219D02*
D03*
X-2603196D02*
D03*
Y-1834217D02*
D03*
X-2603196Y-1834214D02*
D03*
Y-1834212D02*
D03*
X-2603194D02*
D03*
Y-1834214D02*
D03*
X-2603203D02*
D03*
Y-1834212D02*
D03*
X-2603201D02*
D03*
Y-1834214D02*
D03*
X-2603203Y-1834096D02*
D03*
Y-1834094D02*
D03*
X-2603201D02*
D03*
Y-1834096D02*
D03*
X-2603209D02*
D03*
Y-1834094D02*
D03*
X-2603208D02*
D03*
Y-1834096D02*
D03*
X-2603197Y-1834147D02*
D03*
Y-1834146D02*
D03*
X-2603195D02*
D03*
Y-1834147D02*
D03*
X-2603203D02*
D03*
Y-1834146D02*
D03*
X-2603201D02*
D03*
Y-1834147D02*
D03*
X-2603180Y-1834159D02*
D03*
Y-1834157D02*
D03*
X-2603178D02*
D03*
Y-1834159D02*
D03*
X-2603186D02*
D03*
Y-1834157D02*
D03*
X-2603185D02*
D03*
Y-1834159D02*
D03*
X-2603198Y-1834167D02*
D03*
Y-1834166D02*
D03*
X-2603197D02*
D03*
Y-1834167D02*
D03*
X-2603205D02*
D03*
Y-1834166D02*
D03*
X-2603203D02*
D03*
Y-1834167D02*
D03*
X-2603048Y-1834198D02*
D03*
X-2603050D02*
D03*
Y-1834197D02*
D03*
X-2603048D02*
D03*
Y-1834205D02*
D03*
X-2603050D02*
D03*
Y-1834203D02*
D03*
X-2603048D02*
D03*
X-2603009Y-1834112D02*
D03*
X-2603011D02*
D03*
Y-1834110D02*
D03*
X-2603009D02*
D03*
Y-1834119D02*
D03*
X-2603011D02*
D03*
Y-1834117D02*
D03*
X-2603009D02*
D03*
X-2603035Y-1834108D02*
D03*
X-2603037D02*
D03*
Y-1834107D02*
D03*
X-2603035D02*
D03*
Y-1834115D02*
D03*
X-2603037D02*
D03*
Y-1834113D02*
D03*
X-2603035D02*
D03*
X-2603039Y-1833918D02*
D03*
Y-1833920D02*
D03*
X-2603041D02*
D03*
Y-1833918D02*
D03*
X-2603032D02*
D03*
Y-1833920D02*
D03*
X-2603034D02*
D03*
Y-1833918D02*
D03*
X-2603039Y-1833911D02*
D03*
Y-1833913D02*
D03*
X-2603041D02*
D03*
Y-1833911D02*
D03*
X-2603032D02*
D03*
Y-1833913D02*
D03*
X-2603034D02*
D03*
Y-1833911D02*
D03*
D268*
X-2603185Y-1834086D02*
D03*
X-2603192D02*
D03*
X-2603185Y-1834091D02*
D03*
X-2603192D02*
D03*
X-2603185Y-1834096D02*
D03*
X-2603192D02*
D03*
X-2603185Y-1834101D02*
D03*
X-2603192D02*
D03*
X-2603167Y-1834086D02*
D03*
X-2603173D02*
D03*
X-2603167Y-1834091D02*
D03*
X-2603173D02*
D03*
X-2603167Y-1834096D02*
D03*
X-2603173D02*
D03*
X-2603167Y-1834101D02*
D03*
X-2603173D02*
D03*
X-2603095Y-1833950D02*
D03*
Y-1833942D02*
D03*
X-2603103D02*
D03*
X-2603099Y-1833946D02*
D03*
X-2603103Y-1833950D02*
D03*
D271*
X-2602950Y-1834340D02*
G03*
X-2602950Y-1834344I0J-2D01*
G01*
D02*
G03*
X-2602950Y-1834340I0J2D01*
G01*
X-2602955Y-1834325D02*
G03*
X-2602955Y-1834329I0J-2D01*
G01*
D02*
G03*
X-2602955Y-1834325I0J2D01*
G01*
X-2602960Y-1834340D02*
G03*
X-2602960Y-1834344I0J-2D01*
G01*
D02*
G03*
X-2602960Y-1834340I0J2D01*
G01*
X-2602965Y-1834325D02*
G03*
X-2602965Y-1834329I0J-2D01*
G01*
D02*
G03*
X-2602965Y-1834325I0J2D01*
G01*
X-2602970Y-1834340D02*
G03*
X-2602970Y-1834344I0J-2D01*
G01*
D02*
G03*
X-2602970Y-1834340I0J2D01*
G01*
X-2602975Y-1834325D02*
G03*
X-2602975Y-1834329I0J-2D01*
G01*
D02*
G03*
X-2602975Y-1834325I0J2D01*
G01*
D272*
X-2602936Y-1834260D02*
G03*
X-2602938Y-1834260I-1J0D01*
G01*
D02*
G03*
X-2602936Y-1834260I1J0D01*
G01*
Y-1834256D02*
G03*
X-2602938Y-1834256I-1J0D01*
G01*
D02*
G03*
X-2602936Y-1834256I1J0D01*
G01*
X-2602922Y-1834260D02*
G03*
X-2602924Y-1834260I-1J0D01*
G01*
D02*
G03*
X-2602922Y-1834260I1J0D01*
G01*
Y-1834256D02*
G03*
X-2602924Y-1834256I-1J0D01*
G01*
D02*
G03*
X-2602922Y-1834256I1J0D01*
G01*
X-2602972Y-1834235D02*
G03*
X-2602973Y-1834235I-1J0D01*
G01*
D02*
G03*
X-2602972Y-1834235I1J0D01*
G01*
Y-1834231D02*
G03*
X-2602973Y-1834231I-1J0D01*
G01*
D02*
G03*
X-2602972Y-1834231I1J0D01*
G01*
X-2602958Y-1834235D02*
G03*
X-2602959Y-1834235I-1J0D01*
G01*
D02*
G03*
X-2602958Y-1834235I1J0D01*
G01*
Y-1834231D02*
G03*
X-2602959Y-1834231I-1J0D01*
G01*
D02*
G03*
X-2602958Y-1834231I1J0D01*
G01*
X-2603111Y-1834293D02*
G03*
X-2603111Y-1834295I0J-1D01*
G01*
D02*
G03*
X-2603111Y-1834293I0J1D01*
G01*
X-2603115D02*
G03*
X-2603115Y-1834295I0J-1D01*
G01*
D02*
G03*
X-2603115Y-1834293I0J1D01*
G01*
X-2603111Y-1834279D02*
G03*
X-2603111Y-1834281I0J-1D01*
G01*
D02*
G03*
X-2603111Y-1834279I0J1D01*
G01*
X-2603115D02*
G03*
X-2603115Y-1834281I0J-1D01*
G01*
D02*
G03*
X-2603115Y-1834279I0J1D01*
G01*
X-2603077Y-1834293D02*
G03*
X-2603077Y-1834295I0J-1D01*
G01*
D02*
G03*
X-2603077Y-1834293I0J1D01*
G01*
X-2603081D02*
G03*
X-2603081Y-1834295I0J-1D01*
G01*
D02*
G03*
X-2603081Y-1834293I0J1D01*
G01*
X-2603077Y-1834279D02*
G03*
X-2603077Y-1834280I0J-1D01*
G01*
D02*
G03*
X-2603077Y-1834279I0J1D01*
G01*
X-2603081D02*
G03*
X-2603081Y-1834280I0J-1D01*
G01*
D02*
G03*
X-2603081Y-1834279I0J1D01*
G01*
D273*
X-2602989Y-1834248D02*
G03*
X-2602991Y-1834248I-1J0D01*
G01*
D02*
G03*
X-2602989Y-1834248I1J0D01*
G01*
Y-1834245D02*
G03*
X-2602991Y-1834245I-1J0D01*
G01*
D02*
G03*
X-2602989Y-1834245I1J0D01*
G01*
X-2602982D02*
G03*
X-2602984Y-1834245I-1J0D01*
G01*
D02*
G03*
X-2602982Y-1834245I1J0D01*
G01*
Y-1834248D02*
G03*
X-2602984Y-1834248I-1J0D01*
G01*
D02*
G03*
X-2602982Y-1834248I1J0D01*
G01*
X-2602989Y-1834260D02*
G03*
X-2602991Y-1834260I-1J0D01*
G01*
D02*
G03*
X-2602989Y-1834260I1J0D01*
G01*
Y-1834257D02*
G03*
X-2602991Y-1834257I-1J0D01*
G01*
D02*
G03*
X-2602989Y-1834257I1J0D01*
G01*
X-2602982D02*
G03*
X-2602984Y-1834257I-1J0D01*
G01*
D02*
G03*
X-2602982Y-1834257I1J0D01*
G01*
Y-1834260D02*
G03*
X-2602984Y-1834260I-1J0D01*
G01*
D02*
G03*
X-2602982Y-1834260I1J0D01*
G01*
X-2602957Y-1834257D02*
G03*
X-2602959Y-1834257I-1J0D01*
G01*
D02*
G03*
X-2602957Y-1834257I1J0D01*
G01*
Y-1834260D02*
G03*
X-2602959Y-1834260I-1J0D01*
G01*
D02*
G03*
X-2602957Y-1834260I1J0D01*
G01*
X-2602964D02*
G03*
X-2602966Y-1834260I-1J0D01*
G01*
D02*
G03*
X-2602964Y-1834260I1J0D01*
G01*
Y-1834257D02*
G03*
X-2602966Y-1834257I-1J0D01*
G01*
D02*
G03*
X-2602964Y-1834257I1J0D01*
G01*
X-2602957Y-1834245D02*
G03*
X-2602959Y-1834245I-1J0D01*
G01*
D02*
G03*
X-2602957Y-1834245I1J0D01*
G01*
Y-1834248D02*
G03*
X-2602959Y-1834248I-1J0D01*
G01*
D02*
G03*
X-2602957Y-1834248I1J0D01*
G01*
X-2602964D02*
G03*
X-2602966Y-1834248I-1J0D01*
G01*
D02*
G03*
X-2602964Y-1834248I1J0D01*
G01*
Y-1834245D02*
G03*
X-2602966Y-1834245I-1J0D01*
G01*
D02*
G03*
X-2602964Y-1834245I1J0D01*
G01*
X-2603104Y-1834266D02*
G03*
X-2603104Y-1834268I0J-1D01*
G01*
D02*
G03*
X-2603104Y-1834266I0J1D01*
G01*
X-2603100D02*
G03*
X-2603100Y-1834268I0J-1D01*
G01*
D02*
G03*
X-2603100Y-1834266I0J1D01*
G01*
Y-1834273D02*
G03*
X-2603100Y-1834275I0J-1D01*
G01*
D02*
G03*
X-2603100Y-1834273I0J1D01*
G01*
X-2603104D02*
G03*
X-2603104Y-1834275I0J-1D01*
G01*
D02*
G03*
X-2603104Y-1834273I0J1D01*
G01*
X-2603092Y-1834266D02*
G03*
X-2603092Y-1834268I0J-1D01*
G01*
D02*
G03*
X-2603092Y-1834266I0J1D01*
G01*
X-2603089D02*
G03*
X-2603089Y-1834268I0J-1D01*
G01*
D02*
G03*
X-2603089Y-1834266I0J1D01*
G01*
Y-1834273D02*
G03*
X-2603089Y-1834275I0J-1D01*
G01*
D02*
G03*
X-2603089Y-1834273I0J1D01*
G01*
X-2603092D02*
G03*
X-2603092Y-1834275I0J-1D01*
G01*
D02*
G03*
X-2603092Y-1834273I0J1D01*
G01*
X-2603089Y-1834298D02*
G03*
X-2603089Y-1834300I0J-1D01*
G01*
D02*
G03*
X-2603089Y-1834298I0J1D01*
G01*
X-2603092D02*
G03*
X-2603092Y-1834300I0J-1D01*
G01*
D02*
G03*
X-2603092Y-1834298I0J1D01*
G01*
Y-1834291D02*
G03*
X-2603092Y-1834293I0J-1D01*
G01*
D02*
G03*
X-2603092Y-1834291I0J1D01*
G01*
X-2603089D02*
G03*
X-2603089Y-1834293I0J-1D01*
G01*
D02*
G03*
X-2603089Y-1834291I0J1D01*
G01*
X-2603100Y-1834298D02*
G03*
X-2603100Y-1834300I0J-1D01*
G01*
D02*
G03*
X-2603100Y-1834298I0J1D01*
G01*
X-2603104D02*
G03*
X-2603104Y-1834300I0J-1D01*
G01*
D02*
G03*
X-2603104Y-1834298I0J1D01*
G01*
Y-1834291D02*
G03*
X-2603104Y-1834293I0J-1D01*
G01*
D02*
G03*
X-2603104Y-1834291I0J1D01*
G01*
X-2603100D02*
G03*
X-2603100Y-1834293I0J-1D01*
G01*
D02*
G03*
X-2603100Y-1834291I0J1D01*
G01*
D274*
X-2603025Y-1833688D02*
G03*
X-2603034Y-1833688I-5J0D01*
G01*
D02*
G03*
X-2603025Y-1833688I5J0D01*
G01*
Y-1834355D02*
G03*
X-2603034Y-1834355I-5J0D01*
G01*
D02*
G03*
X-2603025Y-1834355I5J0D01*
G01*
X-2603198Y-1833688D02*
G03*
X-2603207Y-1833688I-5J0D01*
G01*
D02*
G03*
X-2603198Y-1833688I5J0D01*
G01*
D275*
X-2603204Y-1834218D02*
G03*
X-2603205Y-1834218I-1J0D01*
G01*
D02*
G03*
X-2603204Y-1834218I1J0D01*
G01*
X-2603013Y-1834085D02*
G03*
X-2603014Y-1834085I-1J0D01*
G01*
D02*
G03*
X-2603013Y-1834085I1J0D01*
G01*
X-2603095Y-1834077D02*
G03*
X-2603096Y-1834077I-1J0D01*
G01*
D02*
G03*
X-2603095Y-1834077I1J0D01*
G01*
X-2603059Y-1834117D02*
G03*
X-2603061Y-1834117I-1J0D01*
G01*
D02*
G03*
X-2603059Y-1834117I1J0D01*
G01*
X-2603098Y-1834024D02*
G03*
X-2603099Y-1834024I-1J0D01*
G01*
D02*
G03*
X-2603098Y-1834024I1J0D01*
G01*
Y-1833993D02*
G03*
X-2603099Y-1833993I-1J0D01*
G01*
D02*
G03*
X-2603098Y-1833993I1J0D01*
G01*
Y-1834061D02*
G03*
X-2603099Y-1834061I-1J0D01*
G01*
D02*
G03*
X-2603098Y-1834061I1J0D01*
G01*
X-2603114Y-1834029D02*
G03*
X-2603115Y-1834029I-1J0D01*
G01*
D02*
G03*
X-2603114Y-1834029I1J0D01*
G01*
X-2603086Y-1834139D02*
G03*
X-2603087Y-1834139I-1J0D01*
G01*
D02*
G03*
X-2603086Y-1834139I1J0D01*
G01*
X-2603105Y-1834132D02*
G03*
X-2603106Y-1834132I-1J0D01*
G01*
D02*
G03*
X-2603105Y-1834132I1J0D01*
G01*
X-2603118Y-1834086D02*
G03*
X-2603119Y-1834086I-1J0D01*
G01*
D02*
G03*
X-2603118Y-1834086I1J0D01*
G01*
D276*
X-2603205Y-1833994D02*
G03*
X-2603206Y-1833994I-1J0D01*
G01*
D02*
G03*
X-2603205Y-1833994I1J0D01*
G01*
D277*
X-2602916Y-1834306D02*
D03*
X-2603016D02*
D03*
D278*
X-2603132Y-1834176D02*
D03*
X-2603136D02*
D03*
Y-1834174D02*
D03*
X-2603132D02*
D03*
Y-1834184D02*
D03*
X-2603136D02*
D03*
Y-1834181D02*
D03*
X-2603132D02*
D03*
X-2603139Y-1834176D02*
D03*
X-2603143D02*
D03*
Y-1834174D02*
D03*
X-2603139D02*
D03*
Y-1834184D02*
D03*
X-2603143D02*
D03*
Y-1834181D02*
D03*
X-2603139D02*
D03*
X-2603039Y-1834179D02*
D03*
X-2603043D02*
D03*
Y-1834176D02*
D03*
X-2603039D02*
D03*
Y-1834187D02*
D03*
X-2603043D02*
D03*
Y-1834184D02*
D03*
X-2603039D02*
D03*
X-2603137Y-1834295D02*
D03*
Y-1834299D02*
D03*
X-2603140D02*
D03*
Y-1834295D02*
D03*
X-2603129D02*
D03*
Y-1834299D02*
D03*
X-2603132D02*
D03*
Y-1834295D02*
D03*
D279*
X-2603079Y-1833974D02*
D03*
Y-1833966D02*
D03*
X-2603078D02*
D03*
Y-1833974D02*
D03*
X-2603086D02*
D03*
Y-1833966D02*
D03*
X-2603085D02*
D03*
Y-1833974D02*
D03*
X-2603056Y-1833964D02*
D03*
X-2603064D02*
D03*
Y-1833962D02*
D03*
X-2603056D02*
D03*
Y-1833971D02*
D03*
X-2603064D02*
D03*
Y-1833970D02*
D03*
X-2603056D02*
D03*
X-2603201Y-1834198D02*
D03*
X-2603204D02*
D03*
Y-1834196D02*
D03*
X-2603201D02*
D03*
X-2603209Y-1834201D02*
D03*
X-2603213D02*
D03*
Y-1834200D02*
D03*
X-2603209D02*
D03*
Y-1834194D02*
D03*
X-2603213D02*
D03*
Y-1834193D02*
D03*
X-2603209D02*
D03*
D280*
X-2603073Y-1834116D02*
D03*
Y-1834111D02*
D03*
X-2603070D02*
D03*
Y-1834116D02*
D03*
X-2603082D02*
D03*
Y-1834111D02*
D03*
X-2603080D02*
D03*
Y-1834116D02*
D03*
D281*
X-2603012Y-1834071D02*
D03*
Y-1834069D02*
D03*
X-2603005D02*
D03*
Y-1834071D02*
D03*
X-2603012Y-1834081D02*
D03*
Y-1834079D02*
D03*
X-2603005D02*
D03*
Y-1834081D02*
D03*
X-2603012Y-1834076D02*
D03*
Y-1834074D02*
D03*
X-2603005D02*
D03*
Y-1834076D02*
D03*
X-2603012Y-1834086D02*
D03*
Y-1834084D02*
D03*
X-2603005D02*
D03*
Y-1834086D02*
D03*
X-2603012Y-1834091D02*
D03*
Y-1834089D02*
D03*
X-2603005D02*
D03*
Y-1834091D02*
D03*
X-2603020Y-1834069D02*
D03*
Y-1834071D02*
D03*
X-2603027D02*
D03*
Y-1834069D02*
D03*
X-2603020Y-1834074D02*
D03*
Y-1834076D02*
D03*
X-2603027D02*
D03*
Y-1834074D02*
D03*
X-2603020Y-1834084D02*
D03*
Y-1834086D02*
D03*
X-2603027D02*
D03*
Y-1834084D02*
D03*
X-2603020Y-1834079D02*
D03*
Y-1834081D02*
D03*
X-2603027D02*
D03*
Y-1834079D02*
D03*
X-2603020Y-1834089D02*
D03*
Y-1834091D02*
D03*
X-2603027D02*
D03*
Y-1834089D02*
D03*
D282*
X-2603016Y-1834116D02*
D03*
Y-1834120D02*
D03*
X-2603019D02*
D03*
Y-1834116D02*
D03*
X-2603016Y-1834101D02*
D03*
Y-1834105D02*
D03*
X-2603019D02*
D03*
Y-1834101D02*
D03*
D283*
X-2603203Y-1834355D02*
D03*
D284*
X-2603202Y-1834221D02*
D03*
X-2603207Y-1834090D02*
D03*
X-2603172Y-1834154D02*
D03*
X-2603126Y-1834132D02*
D03*
X-2603218Y-1834127D02*
D03*
X-2603112Y-1833947D02*
D03*
X-2603015Y-1834072D02*
D03*
X-2603015Y-1834075D02*
D03*
X-2603014Y-1834080D02*
D03*
X-2603051Y-1834095D02*
D03*
X-2603187Y-1834022D02*
D03*
X-2603188Y-1834046D02*
D03*
X-2603207Y-1834026D02*
D03*
X-2603063Y-1834062D02*
D03*
X-2603187Y-1834041D02*
D03*
X-2603093Y-1834029D02*
D03*
X-2603079Y-1834037D02*
D03*
X-2603200Y-1833994D02*
D03*
X-2603096Y-1834064D02*
D03*
X-2603096Y-1833986D02*
D03*
X-2603101Y-1834057D02*
D03*
X-2603192Y-1833985D02*
D03*
X-2603139Y-1834292D02*
D03*
X-2603182Y-1834023D02*
D03*
X-2603200Y-1834021D02*
D03*
X-2603207Y-1834021D02*
D03*
X-2603096Y-1834081D02*
D03*
X-2603054Y-1834073D02*
D03*
X-2603059Y-1834061D02*
D03*
X-2603062Y-1834072D02*
D03*
Y-1834075D02*
D03*
X-2603119Y-1834057D02*
D03*
Y-1834053D02*
D03*
X-2603216Y-1834086D02*
D03*
Y-1834097D02*
D03*
X-2603196Y-1834204D02*
D03*
X-2603103Y-1834061D02*
D03*
X-2603010Y-1834121D02*
D03*
X-2603077Y-1834029D02*
D03*
X-2603096Y-1834021D02*
D03*
X-2603101Y-1834020D02*
D03*
X-2603103Y-1834020D02*
D03*
X-2603095Y-1834089D02*
D03*
X-2603089Y-1834090D02*
D03*
X-2603095Y-1834094D02*
D03*
X-2603113Y-1834110D02*
D03*
X-2603032Y-1834109D02*
D03*
X-2603051Y-1834089D02*
D03*
X-2603199Y-1834098D02*
D03*
X-2603199Y-1834106D02*
D03*
X-2603212Y-1834078D02*
D03*
D285*
X-2603214Y-1834006D02*
D03*
X-2603215Y-1834175D02*
D03*
X-2603206Y-1834182D02*
D03*
X-2603200Y-1834239D02*
D03*
D286*
X-2603089Y-1834104D02*
Y-1834102D01*
X-2603087Y-1834104D02*
Y-1834102D01*
X-2603085Y-1834104D02*
Y-1834102D01*
X-2603083Y-1834104D02*
Y-1834102D01*
X-2603081Y-1834104D02*
Y-1834102D01*
X-2603079Y-1834104D02*
Y-1834102D01*
X-2603077Y-1834104D02*
Y-1834102D01*
X-2603075Y-1834104D02*
Y-1834102D01*
X-2603073Y-1834104D02*
Y-1834102D01*
X-2603071Y-1834104D02*
Y-1834102D01*
X-2603069Y-1834104D02*
Y-1834102D01*
X-2603067Y-1834104D02*
Y-1834102D01*
X-2603065Y-1834104D02*
Y-1834102D01*
X-2603063Y-1834104D02*
Y-1834102D01*
X-2603061Y-1834104D02*
Y-1834102D01*
X-2603059Y-1834104D02*
Y-1834102D01*
X-2603057Y-1834100D02*
X-2603055D01*
X-2603057Y-1834098D02*
X-2603055D01*
X-2603057Y-1834096D02*
X-2603055D01*
X-2603057Y-1834094D02*
X-2603055D01*
X-2603057Y-1834092D02*
X-2603055D01*
X-2603057Y-1834090D02*
X-2603055D01*
X-2603057Y-1834089D02*
X-2603055D01*
X-2603057Y-1834086D02*
X-2603055D01*
X-2603057Y-1834085D02*
X-2603055D01*
X-2603057Y-1834083D02*
X-2603055D01*
X-2603057Y-1834081D02*
X-2603055D01*
X-2603057Y-1834079D02*
X-2603055D01*
X-2603057Y-1834077D02*
X-2603055D01*
X-2603057Y-1834075D02*
X-2603055D01*
X-2603057Y-1834073D02*
X-2603055D01*
X-2603057Y-1834071D02*
X-2603055D01*
X-2603059Y-1834069D02*
Y-1834067D01*
X-2603061Y-1834069D02*
Y-1834067D01*
X-2603063Y-1834069D02*
Y-1834067D01*
X-2603065Y-1834069D02*
Y-1834067D01*
X-2603067Y-1834069D02*
Y-1834067D01*
X-2603069Y-1834069D02*
Y-1834067D01*
X-2603071Y-1834069D02*
Y-1834067D01*
X-2603073Y-1834069D02*
Y-1834067D01*
X-2603075Y-1834069D02*
Y-1834067D01*
X-2603077Y-1834069D02*
Y-1834067D01*
X-2603079Y-1834069D02*
Y-1834067D01*
X-2603081Y-1834069D02*
Y-1834067D01*
X-2603083Y-1834069D02*
Y-1834067D01*
X-2603085Y-1834069D02*
Y-1834067D01*
X-2603087Y-1834069D02*
Y-1834067D01*
X-2603089Y-1834069D02*
Y-1834067D01*
X-2603093Y-1834071D02*
X-2603090D01*
X-2603093Y-1834073D02*
X-2603090D01*
X-2603093Y-1834075D02*
X-2603090D01*
X-2603093Y-1834077D02*
X-2603090D01*
X-2603093Y-1834079D02*
X-2603090D01*
X-2603093Y-1834081D02*
X-2603090D01*
X-2603093Y-1834083D02*
X-2603090D01*
X-2603093Y-1834085D02*
X-2603090D01*
X-2603093Y-1834086D02*
X-2603090D01*
X-2603093Y-1834089D02*
X-2603090D01*
X-2603093Y-1834090D02*
X-2603090D01*
X-2603093Y-1834092D02*
X-2603090D01*
X-2603093Y-1834094D02*
X-2603090D01*
X-2603093Y-1834096D02*
X-2603090D01*
X-2603093Y-1834098D02*
X-2603090D01*
X-2603093Y-1834100D02*
X-2603090D01*
M02*
