G04 Layer_Color=32896*
%FSLAX25Y25*%
%MOIN*%
G70*
G01*
G75*
%ADD62C,0.00787*%
%ADD74C,0.01000*%
%ADD117C,0.00600*%
%ADD120C,0.00591*%
D62*
X169030Y307774D02*
X170342D01*
X169686D01*
Y304495D01*
X170342Y303839D01*
X170998D01*
X171653Y304495D01*
X167718Y307118D02*
X167062Y307774D01*
X165750D01*
X165094Y307118D01*
Y306462D01*
X165750Y305806D01*
X166406D01*
X165750D01*
X165094Y305151D01*
Y304495D01*
X165750Y303839D01*
X167062D01*
X167718Y304495D01*
X157222Y307118D02*
X157878Y307774D01*
X159190D01*
X159846Y307118D01*
Y306462D01*
X159190Y305806D01*
X157878D01*
X157222Y305151D01*
Y304495D01*
X157878Y303839D01*
X159190D01*
X159846Y304495D01*
X155911Y307774D02*
Y303839D01*
X154599Y305151D01*
X153287Y303839D01*
Y307774D01*
X285860Y307873D02*
X287172D01*
X286516D01*
Y304593D01*
X287172Y303937D01*
X287828D01*
X288484Y304593D01*
X281925Y303937D02*
X284548D01*
X281925Y306561D01*
Y307217D01*
X282581Y307873D01*
X283892D01*
X284548Y307217D01*
X276677Y307873D02*
Y303937D01*
X274053D01*
X272085D02*
X270773D01*
X270117Y304593D01*
Y305905D01*
X270773Y306561D01*
X272085D01*
X272741Y305905D01*
Y304593D01*
X272085Y303937D01*
X268150Y306561D02*
X266838D01*
X266182Y305905D01*
Y303937D01*
X268150D01*
X268806Y304593D01*
X268150Y305249D01*
X266182D01*
X262246Y307873D02*
Y303937D01*
X264214D01*
X264870Y304593D01*
Y305905D01*
X264214Y306561D01*
X262246D01*
X254375Y307217D02*
X255030Y307873D01*
X256342D01*
X256998Y307217D01*
Y304593D01*
X256342Y303937D01*
X255030D01*
X254375Y304593D01*
X251095Y303937D02*
X252407D01*
X253063Y304593D01*
Y305905D01*
X252407Y306561D01*
X251095D01*
X250439Y305905D01*
Y305249D01*
X253063D01*
X249127Y303937D02*
X247815D01*
X248471D01*
Y307873D01*
X249127D01*
X245847Y303937D02*
X244535D01*
X245191D01*
Y307873D01*
X245847D01*
X371097Y299900D02*
X372409D01*
X371753D01*
Y296620D01*
X372409Y295965D01*
X373064D01*
X373721Y296620D01*
X369785Y295965D02*
X368473D01*
X369129D01*
Y299900D01*
X369785Y299244D01*
X359945D02*
X360601Y299900D01*
X361913D01*
X362569Y299244D01*
Y296620D01*
X361913Y295965D01*
X360601D01*
X359945Y296620D01*
X356666Y299900D02*
X357978D01*
X358633Y299244D01*
Y296620D01*
X357978Y295965D01*
X356666D01*
X356010Y296620D01*
Y299244D01*
X356666Y299900D01*
X354698Y295965D02*
Y299900D01*
X353386Y298588D01*
X352074Y299900D01*
Y295965D01*
X350762D02*
Y299900D01*
X349450Y298588D01*
X348138Y299900D01*
Y295965D01*
X344202Y299244D02*
X344858Y299900D01*
X346170D01*
X346826Y299244D01*
Y298588D01*
X346170Y297932D01*
X344858D01*
X344202Y297276D01*
Y296620D01*
X344858Y295965D01*
X346170D01*
X346826Y296620D01*
X440978Y300294D02*
X442290D01*
X441635D01*
Y297014D01*
X442290Y296358D01*
X442946D01*
X443602Y297014D01*
X437699Y296358D02*
Y300294D01*
X439667Y298326D01*
X437043D01*
X550132Y302262D02*
X551444D01*
X550788D01*
Y298983D01*
X551444Y298327D01*
X552100D01*
X552756Y298983D01*
X546196Y302262D02*
X547508Y301607D01*
X548820Y300295D01*
Y298983D01*
X548164Y298327D01*
X546852D01*
X546196Y298983D01*
Y299639D01*
X546852Y300295D01*
X548820D01*
X540949Y298327D02*
Y302262D01*
X538981D01*
X538325Y301607D01*
Y300295D01*
X538981Y299639D01*
X540949D01*
X537013Y300951D02*
Y298983D01*
X536357Y298327D01*
X534389D01*
Y300951D01*
X533077Y298327D02*
Y300951D01*
X532421D01*
X531765Y300295D01*
Y298327D01*
Y300295D01*
X531109Y300951D01*
X530453Y300295D01*
Y298327D01*
X529142Y297015D02*
Y300951D01*
X527174D01*
X526518Y300295D01*
Y298983D01*
X527174Y298327D01*
X529142D01*
D74*
X414289Y910906D02*
Y914904D01*
X412290Y916904D01*
X410291Y914904D01*
Y910906D01*
Y913905D01*
X414289D01*
X408291Y910906D02*
Y916904D01*
X404293Y910906D01*
Y916904D01*
X402293D02*
X398295D01*
X400294D01*
Y910906D01*
X396295D02*
X394296D01*
X395296D01*
Y916904D01*
X396295Y915904D01*
D117*
X515751Y721011D02*
X513752D01*
X514751D01*
Y718012D01*
X512752D02*
Y721011D01*
X511253D01*
X510753Y720511D01*
Y719511D01*
X511253Y719011D01*
X512752D01*
X509753Y718012D02*
X508753D01*
X509253D01*
Y721011D01*
X509753Y720511D01*
X507254D02*
X506754Y721011D01*
X505754D01*
X505255Y720511D01*
Y718512D01*
X505754Y718012D01*
X506754D01*
X507254Y718512D01*
Y720511D01*
X504255D02*
X503755Y721011D01*
X502755D01*
X502256Y720511D01*
Y718512D01*
X502755Y718012D01*
X503755D01*
X504255Y718512D01*
Y720511D01*
X294084Y407378D02*
X292084D01*
X293084D01*
Y404379D01*
X291085D02*
Y407378D01*
X289585D01*
X289085Y406878D01*
Y405878D01*
X289585Y405378D01*
X291085D01*
X286086Y407378D02*
X288086D01*
Y405878D01*
X287086Y406378D01*
X286586D01*
X286086Y405878D01*
Y404879D01*
X286586Y404379D01*
X287586D01*
X288086Y404879D01*
X285087Y407378D02*
X283087D01*
Y406878D01*
X285087Y404879D01*
Y404379D01*
X233848Y463972D02*
X231848D01*
X232848D01*
Y460973D01*
X230849D02*
Y463972D01*
X229349D01*
X228849Y463473D01*
Y462473D01*
X229349Y461973D01*
X230849D01*
X225850Y463972D02*
X227850D01*
Y462473D01*
X226850Y462973D01*
X226350D01*
X225850Y462473D01*
Y461473D01*
X226350Y460973D01*
X227350D01*
X227850Y461473D01*
X223351Y460973D02*
Y463972D01*
X224851Y462473D01*
X222851D01*
X253828Y437005D02*
X251828D01*
X252828D01*
Y434006D01*
X250829D02*
Y437005D01*
X249329D01*
X248829Y436505D01*
Y435505D01*
X249329Y435005D01*
X250829D01*
X245830Y437005D02*
X247830D01*
Y435505D01*
X246830Y436005D01*
X246330D01*
X245830Y435505D01*
Y434506D01*
X246330Y434006D01*
X247330D01*
X247830Y434506D01*
X244830D02*
X244331Y434006D01*
X243331D01*
X242831Y434506D01*
Y436505D01*
X243331Y437005D01*
X244331D01*
X244830Y436505D01*
Y436005D01*
X244331Y435505D01*
X242831D01*
X246361Y522389D02*
X244362D01*
X245362D01*
Y519390D01*
X243362D02*
Y522389D01*
X241863D01*
X241363Y521889D01*
Y520889D01*
X241863Y520390D01*
X243362D01*
X238364Y522389D02*
X239364Y521889D01*
X240363Y520889D01*
Y519890D01*
X239863Y519390D01*
X238864D01*
X238364Y519890D01*
Y520390D01*
X238864Y520889D01*
X240363D01*
X237364Y521889D02*
X236864Y522389D01*
X235865D01*
X235365Y521889D01*
Y519890D01*
X235865Y519390D01*
X236864D01*
X237364Y519890D01*
Y521889D01*
X284143Y528933D02*
X282143D01*
X283143D01*
Y525934D01*
X281144D02*
Y528933D01*
X279644D01*
X279145Y528433D01*
Y527433D01*
X279644Y526934D01*
X281144D01*
X276145Y528933D02*
X278145D01*
Y527433D01*
X277145Y527933D01*
X276645D01*
X276145Y527433D01*
Y526434D01*
X276645Y525934D01*
X277645D01*
X278145Y526434D01*
X273146Y528933D02*
X275146D01*
Y527433D01*
X274146Y527933D01*
X273646D01*
X273146Y527433D01*
Y526434D01*
X273646Y525934D01*
X274646D01*
X275146Y526434D01*
X284635Y467909D02*
X282636D01*
X283635D01*
Y464910D01*
X281636D02*
Y467909D01*
X280136D01*
X279637Y467410D01*
Y466410D01*
X280136Y465910D01*
X281636D01*
X276638Y467909D02*
X277637Y467410D01*
X278637Y466410D01*
Y465410D01*
X278137Y464910D01*
X277137D01*
X276638Y465410D01*
Y465910D01*
X277137Y466410D01*
X278637D01*
X274138Y464910D02*
Y467909D01*
X275638Y466410D01*
X273639D01*
X256879Y487987D02*
X254880D01*
X255880D01*
Y484988D01*
X253880D02*
Y487987D01*
X252381D01*
X251881Y487487D01*
Y486488D01*
X252381Y485988D01*
X253880D01*
X248882Y487987D02*
X249882Y487487D01*
X250881Y486488D01*
Y485488D01*
X250381Y484988D01*
X249382D01*
X248882Y485488D01*
Y485988D01*
X249382Y486488D01*
X250881D01*
X245883Y487987D02*
X247882D01*
Y486488D01*
X246883Y486987D01*
X246383D01*
X245883Y486488D01*
Y485488D01*
X246383Y484988D01*
X247382D01*
X247882Y485488D01*
X331190Y523913D02*
X329191D01*
X330190D01*
Y520914D01*
X328191D02*
Y523913D01*
X326692D01*
X326192Y523413D01*
Y522414D01*
X326692Y521914D01*
X328191D01*
X325192Y523913D02*
X323193D01*
Y523413D01*
X325192Y521414D01*
Y520914D01*
X320194D02*
X322193D01*
X320194Y522914D01*
Y523413D01*
X320693Y523913D01*
X321693D01*
X322193Y523413D01*
X372713Y565362D02*
X370714D01*
X371714D01*
Y562363D01*
X369714D02*
Y565362D01*
X368215D01*
X367715Y564862D01*
Y563862D01*
X368215Y563362D01*
X369714D01*
X366715Y565362D02*
X364716D01*
Y564862D01*
X366715Y562862D01*
Y562363D01*
X363716Y564862D02*
X363216Y565362D01*
X362217D01*
X361717Y564862D01*
Y562862D01*
X362217Y562363D01*
X363216D01*
X363716Y562862D01*
Y564862D01*
X376567Y482871D02*
X374567D01*
X375567D01*
Y479872D01*
X373568D02*
Y482871D01*
X372068D01*
X371568Y482371D01*
Y481372D01*
X372068Y480872D01*
X373568D01*
X370569Y482871D02*
X368569D01*
Y482371D01*
X370569Y480372D01*
Y479872D01*
X365570Y482871D02*
X366570Y482371D01*
X367569Y481372D01*
Y480372D01*
X367070Y479872D01*
X366070D01*
X365570Y480372D01*
Y480872D01*
X366070Y481372D01*
X367569D01*
X384143Y501079D02*
X382143D01*
X383143D01*
Y498080D01*
X381144D02*
Y501079D01*
X379644D01*
X379145Y500579D01*
Y499579D01*
X379644Y499079D01*
X381144D01*
X378145Y501079D02*
X376145D01*
Y500579D01*
X378145Y498579D01*
Y498080D01*
X375146Y500579D02*
X374646Y501079D01*
X373646D01*
X373146Y500579D01*
Y500079D01*
X373646Y499579D01*
X373146Y499079D01*
Y498579D01*
X373646Y498080D01*
X374646D01*
X375146Y498579D01*
Y499079D01*
X374646Y499579D01*
X375146Y500079D01*
Y500579D01*
X374646Y499579D02*
X373646D01*
X289655Y419878D02*
X287655D01*
X288655D01*
Y416879D01*
X286656D02*
Y419878D01*
X285156D01*
X284656Y419378D01*
Y418378D01*
X285156Y417878D01*
X286656D01*
X281657Y419878D02*
X283657D01*
Y418378D01*
X282657Y418878D01*
X282157D01*
X281657Y418378D01*
Y417379D01*
X282157Y416879D01*
X283157D01*
X283657Y417379D01*
X278658Y419878D02*
X279658Y419378D01*
X280658Y418378D01*
Y417379D01*
X280158Y416879D01*
X279158D01*
X278658Y417379D01*
Y417878D01*
X279158Y418378D01*
X280658D01*
X271151Y446550D02*
X269152D01*
X270151D01*
Y443551D01*
X268152D02*
Y446550D01*
X266652D01*
X266153Y446050D01*
Y445051D01*
X266652Y444551D01*
X268152D01*
X263154Y446550D02*
X264153Y446050D01*
X265153Y445051D01*
Y444051D01*
X264653Y443551D01*
X263653D01*
X263154Y444051D01*
Y444551D01*
X263653Y445051D01*
X265153D01*
X262154Y446050D02*
X261654Y446550D01*
X260654D01*
X260155Y446050D01*
Y445550D01*
X260654Y445051D01*
X261154D01*
X260654D01*
X260155Y444551D01*
Y444051D01*
X260654Y443551D01*
X261654D01*
X262154Y444051D01*
X393001Y457476D02*
X391002D01*
X392001D01*
Y454477D01*
X390002D02*
Y457476D01*
X388503D01*
X388003Y456976D01*
Y455977D01*
X388503Y455477D01*
X390002D01*
X387003Y457476D02*
X385004D01*
Y456976D01*
X387003Y454977D01*
Y454477D01*
X382005Y457476D02*
X384004D01*
Y455977D01*
X383004Y456477D01*
X382505D01*
X382005Y455977D01*
Y454977D01*
X382505Y454477D01*
X383504D01*
X384004Y454977D01*
X265147Y529228D02*
X263147D01*
X264147D01*
Y526229D01*
X262148D02*
Y529228D01*
X260648D01*
X260148Y528728D01*
Y527729D01*
X260648Y527229D01*
X262148D01*
X257149Y529228D02*
X258149Y528728D01*
X259149Y527729D01*
Y526729D01*
X258649Y526229D01*
X257649D01*
X257149Y526729D01*
Y527229D01*
X257649Y527729D01*
X259149D01*
X256150Y526229D02*
X255150D01*
X255650D01*
Y529228D01*
X256150Y528728D01*
X266033Y457475D02*
X264034D01*
X265033D01*
Y454476D01*
X263034D02*
Y457475D01*
X261534D01*
X261034Y456975D01*
Y455976D01*
X261534Y455476D01*
X263034D01*
X258035Y457475D02*
X259035Y456975D01*
X260035Y455976D01*
Y454976D01*
X259535Y454476D01*
X258535D01*
X258035Y454976D01*
Y455476D01*
X258535Y455976D01*
X260035D01*
X257036Y457475D02*
X255036D01*
Y456975D01*
X257036Y454976D01*
Y454476D01*
X266427Y479227D02*
X264427D01*
X265427D01*
Y476228D01*
X263428D02*
Y479227D01*
X261928D01*
X261428Y478727D01*
Y477728D01*
X261928Y477228D01*
X263428D01*
X258429Y479227D02*
X259429Y478727D01*
X260429Y477728D01*
Y476728D01*
X259929Y476228D01*
X258929D01*
X258429Y476728D01*
Y477228D01*
X258929Y477728D01*
X260429D01*
X257430Y478727D02*
X256930Y479227D01*
X255930D01*
X255430Y478727D01*
Y478228D01*
X255930Y477728D01*
X255430Y477228D01*
Y476728D01*
X255930Y476228D01*
X256930D01*
X257430Y476728D01*
Y477228D01*
X256930Y477728D01*
X257430Y478228D01*
Y478727D01*
X256930Y477728D02*
X255930D01*
X338375Y472043D02*
X336376D01*
X337375D01*
Y469044D01*
X335376D02*
Y472043D01*
X333877D01*
X333377Y471543D01*
Y470544D01*
X333877Y470044D01*
X335376D01*
X330378Y472043D02*
X331377Y471543D01*
X332377Y470544D01*
Y469544D01*
X331877Y469044D01*
X330877D01*
X330378Y469544D01*
Y470044D01*
X330877Y470544D01*
X332377D01*
X329378Y469544D02*
X328878Y469044D01*
X327878D01*
X327379Y469544D01*
Y471543D01*
X327878Y472043D01*
X328878D01*
X329378Y471543D01*
Y471043D01*
X328878Y470544D01*
X327379D01*
X368297Y532278D02*
X366297D01*
X367297D01*
Y529279D01*
X365298D02*
Y532278D01*
X363798D01*
X363298Y531779D01*
Y530779D01*
X363798Y530279D01*
X365298D01*
X362299Y532278D02*
X360299D01*
Y531779D01*
X362299Y529779D01*
Y529279D01*
X359300Y531779D02*
X358800Y532278D01*
X357800D01*
X357300Y531779D01*
Y531279D01*
X357800Y530779D01*
X358300D01*
X357800D01*
X357300Y530279D01*
Y529779D01*
X357800Y529279D01*
X358800D01*
X359300Y529779D01*
X357568Y453441D02*
X355569D01*
X356568D01*
Y450442D01*
X354569D02*
Y453441D01*
X353069D01*
X352570Y452941D01*
Y451941D01*
X353069Y451441D01*
X354569D01*
X351570Y453441D02*
X349571D01*
Y452941D01*
X351570Y450942D01*
Y450442D01*
X348571Y453441D02*
X346572D01*
Y452941D01*
X348571Y450942D01*
Y450442D01*
X489865Y711562D02*
X487866D01*
X488866D01*
Y708563D01*
X486866D02*
Y711562D01*
X485367D01*
X484867Y711062D01*
Y710063D01*
X485367Y709563D01*
X486866D01*
X483867Y711062D02*
X483367Y711562D01*
X482368D01*
X481868Y711062D01*
Y710562D01*
X482368Y710063D01*
X481868Y709563D01*
Y709063D01*
X482368Y708563D01*
X483367D01*
X483867Y709063D01*
Y709563D01*
X483367Y710063D01*
X483867Y710562D01*
Y711062D01*
X483367Y710063D02*
X482368D01*
X480868Y711062D02*
X480369Y711562D01*
X479369D01*
X478869Y711062D01*
Y709063D01*
X479369Y708563D01*
X480369D01*
X480868Y709063D01*
Y711062D01*
X446264Y698618D02*
X444264D01*
X445264D01*
Y695619D01*
X443264D02*
Y698618D01*
X441765D01*
X441265Y698118D01*
Y697118D01*
X441765Y696618D01*
X443264D01*
X440265Y698118D02*
X439766Y698618D01*
X438766D01*
X438266Y698118D01*
Y697618D01*
X438766Y697118D01*
X438266Y696618D01*
Y696118D01*
X438766Y695619D01*
X439766D01*
X440265Y696118D01*
Y696618D01*
X439766Y697118D01*
X440265Y697618D01*
Y698118D01*
X439766Y697118D02*
X438766D01*
X437266Y695619D02*
X436267D01*
X436766D01*
Y698618D01*
X437266Y698118D01*
X424708Y690105D02*
X422709D01*
X423708D01*
Y687106D01*
X421709D02*
Y690105D01*
X420209D01*
X419709Y689606D01*
Y688606D01*
X420209Y688106D01*
X421709D01*
X418710Y689606D02*
X418210Y690105D01*
X417210D01*
X416711Y689606D01*
Y689106D01*
X417210Y688606D01*
X416711Y688106D01*
Y687606D01*
X417210Y687106D01*
X418210D01*
X418710Y687606D01*
Y688106D01*
X418210Y688606D01*
X418710Y689106D01*
Y689606D01*
X418210Y688606D02*
X417210D01*
X413712Y687106D02*
X415711D01*
X413712Y689106D01*
Y689606D01*
X414211Y690105D01*
X415211D01*
X415711Y689606D01*
X441721Y686974D02*
X439722D01*
X440722D01*
Y683975D01*
X438722D02*
Y686974D01*
X437223D01*
X436723Y686474D01*
Y685474D01*
X437223Y684975D01*
X438722D01*
X435723Y686474D02*
X435223Y686974D01*
X434224D01*
X433724Y686474D01*
Y685974D01*
X434224Y685474D01*
X433724Y684975D01*
Y684475D01*
X434224Y683975D01*
X435223D01*
X435723Y684475D01*
Y684975D01*
X435223Y685474D01*
X435723Y685974D01*
Y686474D01*
X435223Y685474D02*
X434224D01*
X432724Y686474D02*
X432224Y686974D01*
X431225D01*
X430725Y686474D01*
Y685974D01*
X431225Y685474D01*
X431725D01*
X431225D01*
X430725Y684975D01*
Y684475D01*
X431225Y683975D01*
X432224D01*
X432724Y684475D01*
X418310Y669338D02*
X416311D01*
X417311D01*
Y666339D01*
X415311D02*
Y669338D01*
X413812D01*
X413312Y668838D01*
Y667838D01*
X413812Y667338D01*
X415311D01*
X412312Y668838D02*
X411812Y669338D01*
X410813D01*
X410313Y668838D01*
Y668338D01*
X410813Y667838D01*
X410313Y667338D01*
Y666838D01*
X410813Y666339D01*
X411812D01*
X412312Y666838D01*
Y667338D01*
X411812Y667838D01*
X412312Y668338D01*
Y668838D01*
X411812Y667838D02*
X410813D01*
X407814Y666339D02*
Y669338D01*
X409313Y667838D01*
X407314D01*
X429531Y723520D02*
X427531D01*
X428531D01*
Y720520D01*
X426532D02*
Y723520D01*
X425032D01*
X424532Y723020D01*
Y722020D01*
X425032Y721520D01*
X426532D01*
X423533Y723020D02*
X423033Y723520D01*
X422033D01*
X421533Y723020D01*
Y722520D01*
X422033Y722020D01*
X421533Y721520D01*
Y721020D01*
X422033Y720520D01*
X423033D01*
X423533Y721020D01*
Y721520D01*
X423033Y722020D01*
X423533Y722520D01*
Y723020D01*
X423033Y722020D02*
X422033D01*
X418534Y723520D02*
X420534D01*
Y722020D01*
X419534Y722520D01*
X419034D01*
X418534Y722020D01*
Y721020D01*
X419034Y720520D01*
X420034D01*
X420534Y721020D01*
X442621Y708413D02*
X440622D01*
X441621D01*
Y705414D01*
X439622D02*
Y708413D01*
X438122D01*
X437623Y707913D01*
Y706913D01*
X438122Y706413D01*
X439622D01*
X436623Y707913D02*
X436123Y708413D01*
X435123D01*
X434624Y707913D01*
Y707413D01*
X435123Y706913D01*
X434624Y706413D01*
Y705914D01*
X435123Y705414D01*
X436123D01*
X436623Y705914D01*
Y706413D01*
X436123Y706913D01*
X436623Y707413D01*
Y707913D01*
X436123Y706913D02*
X435123D01*
X431625Y708413D02*
X432624Y707913D01*
X433624Y706913D01*
Y705914D01*
X433124Y705414D01*
X432124D01*
X431625Y705914D01*
Y706413D01*
X432124Y706913D01*
X433624D01*
X416440Y652605D02*
X414441D01*
X415441D01*
Y649606D01*
X413441D02*
Y652605D01*
X411942D01*
X411442Y652106D01*
Y651106D01*
X411942Y650606D01*
X413441D01*
X410442Y652106D02*
X409942Y652605D01*
X408943D01*
X408443Y652106D01*
Y651606D01*
X408943Y651106D01*
X408443Y650606D01*
Y650106D01*
X408943Y649606D01*
X409942D01*
X410442Y650106D01*
Y650606D01*
X409942Y651106D01*
X410442Y651606D01*
Y652106D01*
X409942Y651106D02*
X408943D01*
X407443Y652605D02*
X405444D01*
Y652106D01*
X407443Y650106D01*
Y649606D01*
X444295Y669386D02*
X442295D01*
X443295D01*
Y666387D01*
X441295D02*
Y669386D01*
X439796D01*
X439296Y668886D01*
Y667886D01*
X439796Y667386D01*
X441295D01*
X438297Y668886D02*
X437797Y669386D01*
X436797D01*
X436297Y668886D01*
Y668386D01*
X436797Y667886D01*
X436297Y667386D01*
Y666887D01*
X436797Y666387D01*
X437797D01*
X438297Y666887D01*
Y667386D01*
X437797Y667886D01*
X438297Y668386D01*
Y668886D01*
X437797Y667886D02*
X436797D01*
X435297Y668886D02*
X434798Y669386D01*
X433798D01*
X433298Y668886D01*
Y668386D01*
X433798Y667886D01*
X433298Y667386D01*
Y666887D01*
X433798Y666387D01*
X434798D01*
X435297Y666887D01*
Y667386D01*
X434798Y667886D01*
X435297Y668386D01*
Y668886D01*
X434798Y667886D02*
X433798D01*
X449216Y656689D02*
X447216D01*
X448216D01*
Y653690D01*
X446217D02*
Y656689D01*
X444717D01*
X444217Y656189D01*
Y655189D01*
X444717Y654690D01*
X446217D01*
X443218Y656189D02*
X442718Y656689D01*
X441718D01*
X441218Y656189D01*
Y655689D01*
X441718Y655189D01*
X441218Y654690D01*
Y654190D01*
X441718Y653690D01*
X442718D01*
X443218Y654190D01*
Y654690D01*
X442718Y655189D01*
X443218Y655689D01*
Y656189D01*
X442718Y655189D02*
X441718D01*
X440219Y654190D02*
X439719Y653690D01*
X438719D01*
X438219Y654190D01*
Y656189D01*
X438719Y656689D01*
X439719D01*
X440219Y656189D01*
Y655689D01*
X439719Y655189D01*
X438219D01*
X469543Y662944D02*
Y660945D01*
Y661944D01*
X472542D01*
Y659945D02*
X469543D01*
Y658446D01*
X470043Y657946D01*
X471043D01*
X471543Y658446D01*
Y659945D01*
X472043Y656946D02*
X472542Y656446D01*
Y655447D01*
X472043Y654947D01*
X470043D01*
X469543Y655447D01*
Y656446D01*
X470043Y656946D01*
X470543D01*
X471043Y656446D01*
Y654947D01*
X470043Y653947D02*
X469543Y653447D01*
Y652448D01*
X470043Y651948D01*
X472043D01*
X472542Y652448D01*
Y653447D01*
X472043Y653947D01*
X470043D01*
X488094Y651326D02*
X486094D01*
X487094D01*
Y648327D01*
X485095D02*
Y651326D01*
X483595D01*
X483095Y650826D01*
Y649826D01*
X483595Y649327D01*
X485095D01*
X482096Y648827D02*
X481596Y648327D01*
X480596D01*
X480096Y648827D01*
Y650826D01*
X480596Y651326D01*
X481596D01*
X482096Y650826D01*
Y650326D01*
X481596Y649826D01*
X480096D01*
X479097Y648327D02*
X478097D01*
X478597D01*
Y651326D01*
X479097Y650826D01*
X485535Y703244D02*
X483535D01*
X484535D01*
Y700245D01*
X482536D02*
Y703244D01*
X481036D01*
X480536Y702744D01*
Y701744D01*
X481036Y701245D01*
X482536D01*
X479537Y700745D02*
X479037Y700245D01*
X478037D01*
X477537Y700745D01*
Y702744D01*
X478037Y703244D01*
X479037D01*
X479537Y702744D01*
Y702244D01*
X479037Y701744D01*
X477537D01*
X476538Y702744D02*
X476038Y703244D01*
X475038D01*
X474538Y702744D01*
Y702244D01*
X475038Y701744D01*
X475538D01*
X475038D01*
X474538Y701245D01*
Y700745D01*
X475038Y700245D01*
X476038D01*
X476538Y700745D01*
X503842Y667516D02*
X501842D01*
X502842D01*
Y664517D01*
X500843D02*
Y667516D01*
X499343D01*
X498843Y667016D01*
Y666016D01*
X499343Y665516D01*
X500843D01*
X497844Y665016D02*
X497344Y664517D01*
X496344D01*
X495844Y665016D01*
Y667016D01*
X496344Y667516D01*
X497344D01*
X497844Y667016D01*
Y666516D01*
X497344Y666016D01*
X495844D01*
X493345Y664517D02*
Y667516D01*
X494845Y666016D01*
X492845D01*
X499609Y692665D02*
X497610D01*
X498609D01*
Y689666D01*
X496610D02*
Y692665D01*
X495110D01*
X494611Y692165D01*
Y691165D01*
X495110Y690665D01*
X496610D01*
X493611Y690165D02*
X493111Y689666D01*
X492111D01*
X491611Y690165D01*
Y692165D01*
X492111Y692665D01*
X493111D01*
X493611Y692165D01*
Y691665D01*
X493111Y691165D01*
X491611D01*
X488613Y692665D02*
X489612Y692165D01*
X490612Y691165D01*
Y690165D01*
X490112Y689666D01*
X489112D01*
X488613Y690165D01*
Y690665D01*
X489112Y691165D01*
X490612D01*
X518310Y669583D02*
X516311D01*
X517311D01*
Y666583D01*
X515311D02*
Y669583D01*
X513812D01*
X513312Y669083D01*
Y668083D01*
X513812Y667583D01*
X515311D01*
X512312Y667083D02*
X511812Y666583D01*
X510813D01*
X510313Y667083D01*
Y669083D01*
X510813Y669583D01*
X511812D01*
X512312Y669083D01*
Y668583D01*
X511812Y668083D01*
X510313D01*
X509313Y669583D02*
X507314D01*
Y669083D01*
X509313Y667083D01*
Y666583D01*
X527857Y705066D02*
X525858D01*
X526858D01*
Y702067D01*
X524859D02*
Y705066D01*
X523359D01*
X522859Y704566D01*
Y703567D01*
X523359Y703067D01*
X524859D01*
X521860Y702567D02*
X521360Y702067D01*
X520360D01*
X519860Y702567D01*
Y704566D01*
X520360Y705066D01*
X521360D01*
X521860Y704566D01*
Y704066D01*
X521360Y703567D01*
X519860D01*
X518860Y704566D02*
X518361Y705066D01*
X517361D01*
X516861Y704566D01*
Y704066D01*
X517361Y703567D01*
X516861Y703067D01*
Y702567D01*
X517361Y702067D01*
X518361D01*
X518860Y702567D01*
Y703067D01*
X518361Y703567D01*
X518860Y704066D01*
Y704566D01*
X518361Y703567D02*
X517361D01*
X530220Y695862D02*
X528220D01*
X529220D01*
Y692863D01*
X527221D02*
Y695862D01*
X525721D01*
X525221Y695362D01*
Y694363D01*
X525721Y693863D01*
X527221D01*
X524222Y693363D02*
X523722Y692863D01*
X522722D01*
X522222Y693363D01*
Y695362D01*
X522722Y695862D01*
X523722D01*
X524222Y695362D01*
Y694862D01*
X523722Y694363D01*
X522222D01*
X521223Y693363D02*
X520723Y692863D01*
X519723D01*
X519223Y693363D01*
Y695362D01*
X519723Y695862D01*
X520723D01*
X521223Y695362D01*
Y694862D01*
X520723Y694363D01*
X519223D01*
X475200Y725440D02*
X473201D01*
X474200D01*
Y722441D01*
X472201D02*
Y725440D01*
X470702D01*
X470202Y724940D01*
Y723941D01*
X470702Y723441D01*
X472201D01*
X469202Y722441D02*
X468202D01*
X468702D01*
Y725440D01*
X469202Y724940D01*
X466703D02*
X466203Y725440D01*
X465203D01*
X464703Y724940D01*
Y722941D01*
X465203Y722441D01*
X466203D01*
X466703Y722941D01*
Y724940D01*
X461704Y722441D02*
X463704D01*
X461704Y724440D01*
Y724940D01*
X462204Y725440D01*
X463204D01*
X463704Y724940D01*
X343409Y370026D02*
X341409D01*
X342409D01*
Y367027D01*
X340410D02*
Y370026D01*
X338910D01*
X338410Y369527D01*
Y368527D01*
X338910Y368027D01*
X340410D01*
X335911Y367027D02*
Y370026D01*
X337411Y368527D01*
X335411D01*
X348625Y396503D02*
X346626D01*
X347626D01*
Y393504D01*
X345626D02*
Y396503D01*
X344127D01*
X343627Y396003D01*
Y395004D01*
X344127Y394504D01*
X345626D01*
X340628Y396503D02*
X342627D01*
Y395004D01*
X341628Y395503D01*
X341128D01*
X340628Y395004D01*
Y394004D01*
X341128Y393504D01*
X342127D01*
X342627Y394004D01*
X397543Y387153D02*
X395543D01*
X396543D01*
Y384154D01*
X394544D02*
Y387153D01*
X393044D01*
X392544Y386653D01*
Y385653D01*
X393044Y385153D01*
X394544D01*
X391545Y384653D02*
X391045Y384154D01*
X390045D01*
X389545Y384653D01*
Y386653D01*
X390045Y387153D01*
X391045D01*
X391545Y386653D01*
Y386153D01*
X391045Y385653D01*
X389545D01*
X389472Y368649D02*
X387472D01*
X388472D01*
Y365650D01*
X386473D02*
Y368649D01*
X384973D01*
X384473Y368149D01*
Y367149D01*
X384973Y366649D01*
X386473D01*
X383473Y365650D02*
X382474D01*
X382974D01*
Y368649D01*
X383473Y368149D01*
X380974D02*
X380474Y368649D01*
X379475D01*
X378975Y368149D01*
Y366149D01*
X379475Y365650D01*
X380474D01*
X380974Y366149D01*
Y368149D01*
X384747Y356739D02*
X382748D01*
X383748D01*
Y353740D01*
X381748D02*
Y356739D01*
X380249D01*
X379749Y356239D01*
Y355240D01*
X380249Y354740D01*
X381748D01*
X378749Y353740D02*
X377749D01*
X378249D01*
Y356739D01*
X378749Y356239D01*
X376250Y353740D02*
X375250D01*
X375750D01*
Y356739D01*
X376250Y356239D01*
X191033Y469484D02*
X189033D01*
X190033D01*
Y466485D01*
X188034D02*
Y469484D01*
X186534D01*
X186034Y468984D01*
Y467985D01*
X186534Y467485D01*
X188034D01*
X185035Y466485D02*
X184035D01*
X184535D01*
Y469484D01*
X185035Y468984D01*
X180536Y466485D02*
X182535D01*
X180536Y468484D01*
Y468984D01*
X181036Y469484D01*
X182036D01*
X182535Y468984D01*
X345180Y555361D02*
X343181D01*
X344181D01*
Y552362D01*
X342181D02*
Y555361D01*
X340682D01*
X340182Y554861D01*
Y553862D01*
X340682Y553362D01*
X342181D01*
X339182Y552362D02*
X338183D01*
X338683D01*
Y555361D01*
X339182Y554861D01*
X336683D02*
X336183Y555361D01*
X335184D01*
X334684Y554861D01*
Y554362D01*
X335184Y553862D01*
X335683D01*
X335184D01*
X334684Y553362D01*
Y552862D01*
X335184Y552362D01*
X336183D01*
X336683Y552862D01*
X220954Y503539D02*
X218954D01*
X219954D01*
Y500540D01*
X217955D02*
Y503539D01*
X216455D01*
X215955Y503039D01*
Y502040D01*
X216455Y501540D01*
X217955D01*
X214956Y500540D02*
X213956D01*
X214456D01*
Y503539D01*
X214956Y503039D01*
X210957Y500540D02*
Y503539D01*
X212457Y502040D01*
X210457D01*
X434996Y648721D02*
Y646721D01*
Y647721D01*
X437995D01*
Y645721D02*
X434996D01*
Y644222D01*
X435496Y643722D01*
X436496D01*
X436996Y644222D01*
Y645721D01*
X437995Y642722D02*
Y641723D01*
Y642223D01*
X434996D01*
X435496Y642722D01*
Y640223D02*
X434996Y639723D01*
Y638724D01*
X435496Y638224D01*
X435996D01*
X436496Y638724D01*
X436996Y638224D01*
X437496D01*
X437995Y638724D01*
Y639723D01*
X437496Y640223D01*
X436996D01*
X436496Y639723D01*
X435996Y640223D01*
X435496D01*
X436496Y639723D02*
Y638724D01*
X400200Y663235D02*
X398201D01*
X399200D01*
Y660236D01*
X397201D02*
Y663235D01*
X395702D01*
X395202Y662735D01*
Y661736D01*
X395702Y661236D01*
X397201D01*
X394202Y660236D02*
X393202D01*
X393702D01*
Y663235D01*
X394202Y662735D01*
X391703Y660736D02*
X391203Y660236D01*
X390203D01*
X389703Y660736D01*
Y662735D01*
X390203Y663235D01*
X391203D01*
X391703Y662735D01*
Y662236D01*
X391203Y661736D01*
X389703D01*
X408763Y643255D02*
X406764D01*
X407763D01*
Y640256D01*
X405764D02*
Y643255D01*
X404264D01*
X403765Y642755D01*
Y641755D01*
X404264Y641256D01*
X405764D01*
X400766Y640256D02*
X402765D01*
X400766Y642255D01*
Y642755D01*
X401265Y643255D01*
X402265D01*
X402765Y642755D01*
X399766Y640256D02*
X398766D01*
X399266D01*
Y643255D01*
X399766Y642755D01*
X302267Y571011D02*
X300268D01*
X301267D01*
Y568012D01*
X299268D02*
Y571011D01*
X297768D01*
X297269Y570511D01*
Y569511D01*
X297768Y569011D01*
X299268D01*
X296269Y570511D02*
X295769Y571011D01*
X294769D01*
X294269Y570511D01*
Y570011D01*
X294769Y569511D01*
X295269D01*
X294769D01*
X294269Y569011D01*
Y568512D01*
X294769Y568012D01*
X295769D01*
X296269Y568512D01*
X291270Y571011D02*
X293270D01*
Y569511D01*
X292270Y570011D01*
X291770D01*
X291270Y569511D01*
Y568512D01*
X291770Y568012D01*
X292770D01*
X293270Y568512D01*
X402661Y608216D02*
X400661D01*
X401661D01*
Y605217D01*
X399662D02*
Y608216D01*
X398162D01*
X397662Y607716D01*
Y606716D01*
X398162Y606216D01*
X399662D01*
X395163Y605217D02*
Y608216D01*
X396663Y606716D01*
X394663D01*
X393664Y605716D02*
X393164Y605217D01*
X392164D01*
X391664Y605716D01*
Y607716D01*
X392164Y608216D01*
X393164D01*
X393664Y607716D01*
Y607216D01*
X393164Y606716D01*
X391664D01*
X397346Y621306D02*
X395346D01*
X396346D01*
Y618307D01*
X394347D02*
Y621306D01*
X392847D01*
X392347Y620806D01*
Y619807D01*
X392847Y619307D01*
X394347D01*
X389348Y621306D02*
X391348D01*
Y619807D01*
X390348Y620306D01*
X389848D01*
X389348Y619807D01*
Y618807D01*
X389848Y618307D01*
X390848D01*
X391348Y618807D01*
X388349Y618307D02*
X387349D01*
X387849D01*
Y621306D01*
X388349Y620806D01*
X408074Y632034D02*
X406075D01*
X407074D01*
Y629035D01*
X405075D02*
Y632034D01*
X403576D01*
X403076Y631535D01*
Y630535D01*
X403576Y630035D01*
X405075D01*
X400077Y632034D02*
X402076D01*
Y630535D01*
X401076Y631035D01*
X400576D01*
X400077Y630535D01*
Y629535D01*
X400576Y629035D01*
X401576D01*
X402076Y629535D01*
X397078Y629035D02*
X399077D01*
X397078Y631035D01*
Y631535D01*
X397577Y632034D01*
X398577D01*
X399077Y631535D01*
X388783Y609987D02*
X386783D01*
X387783D01*
Y606988D01*
X385784D02*
Y609987D01*
X384284D01*
X383784Y609487D01*
Y608488D01*
X384284Y607988D01*
X385784D01*
X380785Y609987D02*
X382785D01*
Y608488D01*
X381785Y608988D01*
X381285D01*
X380785Y608488D01*
Y607488D01*
X381285Y606988D01*
X382285D01*
X382785Y607488D01*
X379786Y609487D02*
X379286Y609987D01*
X378286D01*
X377786Y609487D01*
Y608988D01*
X378286Y608488D01*
X378786D01*
X378286D01*
X377786Y607988D01*
Y607488D01*
X378286Y606988D01*
X379286D01*
X379786Y607488D01*
X295659Y501177D02*
X293659D01*
X294659D01*
Y498178D01*
X292659D02*
Y501177D01*
X291160D01*
X290660Y500677D01*
Y499678D01*
X291160Y499178D01*
X292659D01*
X287661Y501177D02*
X288661Y500677D01*
X289661Y499678D01*
Y498678D01*
X289161Y498178D01*
X288161D01*
X287661Y498678D01*
Y499178D01*
X288161Y499678D01*
X289661D01*
X284662Y501177D02*
X285662Y500677D01*
X286662Y499678D01*
Y498678D01*
X286162Y498178D01*
X285162D01*
X284662Y498678D01*
Y499178D01*
X285162Y499678D01*
X286662D01*
X485436Y686562D02*
X483437D01*
X484437D01*
Y683563D01*
X482437D02*
Y686562D01*
X480938D01*
X480438Y686062D01*
Y685063D01*
X480938Y684563D01*
X482437D01*
X479438Y684063D02*
X478938Y683563D01*
X477939D01*
X477439Y684063D01*
Y686062D01*
X477939Y686562D01*
X478938D01*
X479438Y686062D01*
Y685562D01*
X478938Y685063D01*
X477439D01*
X474440Y683563D02*
X476439D01*
X474440Y685562D01*
Y686062D01*
X474940Y686562D01*
X475939D01*
X476439Y686062D01*
X397726Y559937D02*
X395726D01*
X396726D01*
Y556938D01*
X394726D02*
Y559937D01*
X393227D01*
X392727Y559437D01*
Y558437D01*
X393227Y557937D01*
X394726D01*
X391727Y557438D02*
X391228Y556938D01*
X390228D01*
X389728Y557438D01*
Y559437D01*
X390228Y559937D01*
X391228D01*
X391727Y559437D01*
Y558937D01*
X391228Y558437D01*
X389728D01*
X386729Y559937D02*
X388728D01*
Y558437D01*
X387729Y558937D01*
X387229D01*
X386729Y558437D01*
Y557438D01*
X387229Y556938D01*
X388229D01*
X388728Y557438D01*
X255613Y564318D02*
X253614D01*
X254614D01*
Y561319D01*
X252614D02*
Y564318D01*
X251115D01*
X250615Y563818D01*
Y562818D01*
X251115Y562319D01*
X252614D01*
X249615Y561319D02*
X248616D01*
X249115D01*
Y564318D01*
X249615Y563818D01*
X247116D02*
X246616Y564318D01*
X245617D01*
X245117Y563818D01*
Y561819D01*
X245617Y561319D01*
X246616D01*
X247116Y561819D01*
Y563818D01*
X242118Y564318D02*
X244117D01*
Y562818D01*
X243117Y563318D01*
X242618D01*
X242118Y562818D01*
Y561819D01*
X242618Y561319D01*
X243617D01*
X244117Y561819D01*
X236125Y331641D02*
X234126D01*
X235126D01*
Y328642D01*
X233126D02*
Y331641D01*
X231627D01*
X231127Y331141D01*
Y330141D01*
X231627Y329641D01*
X233126D01*
X230127Y328642D02*
X229128D01*
X229627D01*
Y331641D01*
X230127Y331141D01*
X227628D02*
X227128Y331641D01*
X226129D01*
X225629Y331141D01*
Y329142D01*
X226129Y328642D01*
X227128D01*
X227628Y329142D01*
Y331141D01*
X224629Y331641D02*
X222630D01*
Y331141D01*
X224629Y329142D01*
Y328642D01*
X457385Y633806D02*
X455386D01*
X456385D01*
Y630807D01*
X454386D02*
Y633806D01*
X452886D01*
X452387Y633306D01*
Y632306D01*
X452886Y631807D01*
X454386D01*
X449388Y630807D02*
X451387D01*
X449388Y632806D01*
Y633306D01*
X449887Y633806D01*
X450887D01*
X451387Y633306D01*
X448388D02*
X447888Y633806D01*
X446888D01*
X446388Y633306D01*
Y632806D01*
X446888Y632306D01*
X446388Y631807D01*
Y631307D01*
X446888Y630807D01*
X447888D01*
X448388Y631307D01*
Y631807D01*
X447888Y632306D01*
X448388Y632806D01*
Y633306D01*
X447888Y632306D02*
X446888D01*
X460685Y643110D02*
Y641111D01*
Y642111D01*
X463684D01*
Y640111D02*
X460685D01*
Y638612D01*
X461185Y638112D01*
X462185D01*
X462685Y638612D01*
Y640111D01*
X463684Y635113D02*
Y637112D01*
X461685Y635113D01*
X461185D01*
X460685Y635613D01*
Y636612D01*
X461185Y637112D01*
X460685Y632114D02*
X461185Y633113D01*
X462185Y634113D01*
X463184D01*
X463684Y633613D01*
Y632614D01*
X463184Y632114D01*
X462685D01*
X462185Y632614D01*
Y634113D01*
D120*
X492719Y734103D02*
X490720D01*
X491719D01*
Y731104D01*
X489720D02*
Y734103D01*
X488221D01*
X487721Y733603D01*
Y732603D01*
X488221Y732103D01*
X489720D01*
X486721Y731104D02*
X485721D01*
X486221D01*
Y734103D01*
X486721Y733603D01*
X484222D02*
X483722Y734103D01*
X482722D01*
X482223Y733603D01*
Y731604D01*
X482722Y731104D01*
X483722D01*
X484222Y731604D01*
Y733603D01*
X481223Y731104D02*
X480223D01*
X480723D01*
Y734103D01*
X481223Y733603D01*
M02*
