G04 Layer_Color=16711935*
%FSLAX25Y25*%
%MOIN*%
G70*
G01*
G75*
%ADD215C,0.00001*%
D215*
X-2603024Y-1833926D02*
G03*
X-2603024Y-1833927I0J-0D01*
G01*
D02*
G03*
X-2603024Y-1833926I0J0D01*
G01*
X-2603123Y-1834297D02*
G03*
X-2603122Y-1834297I0J0D01*
G01*
D02*
G03*
X-2603123Y-1834297I-0J0D01*
G01*
X-2603181Y-1834227D02*
G03*
X-2603181Y-1834227I-0J0D01*
G01*
D02*
G03*
X-2603181Y-1834227I0J0D01*
G01*
X-2603151Y-1834255D02*
G03*
X-2603151Y-1834255I0J0D01*
G01*
D02*
G03*
X-2603151Y-1834255I0J-0D01*
G01*
X-2603156Y-1834173D02*
G03*
X-2603157Y-1834173I-0J0D01*
G01*
D02*
G03*
X-2603156Y-1834173I0J0D01*
G01*
X-2603131Y-1834161D02*
G03*
X-2603130Y-1834161I0J0D01*
G01*
D02*
G03*
X-2603131Y-1834161I-0J0D01*
G01*
X-2603139Y-1834228D02*
G03*
X-2603138Y-1834228I0J0D01*
G01*
D02*
G03*
X-2603139Y-1834228I-0J0D01*
G01*
X-2603148Y-1834207D02*
G03*
X-2603148Y-1834207I0J0D01*
G01*
D02*
G03*
X-2603148Y-1834207I-0J0D01*
G01*
X-2603085Y-1834177D02*
G03*
X-2603084Y-1834177I0J0D01*
G01*
D02*
G03*
X-2603085Y-1834177I-0J0D01*
G01*
X-2603033Y-1834131D02*
G03*
X-2603033Y-1834131I0J0D01*
G01*
D02*
G03*
X-2603033Y-1834131I-0J0D01*
G01*
X-2603027Y-1834213D02*
G03*
X-2603028Y-1834213I-0J0D01*
G01*
D02*
G03*
X-2603027Y-1834213I0J0D01*
G01*
X-2603040Y-1834194D02*
G03*
X-2603039Y-1834194I0J0D01*
G01*
D02*
G03*
X-2603040Y-1834194I-0J0D01*
G01*
X-2603125Y-1834282D02*
G03*
X-2603125Y-1834281I0J0D01*
G01*
D02*
G03*
X-2603125Y-1834282I0J-0D01*
G01*
X-2603135Y-1834249D02*
G03*
X-2603134Y-1834249I0J0D01*
G01*
D02*
G03*
X-2603135Y-1834249I-0J0D01*
G01*
X-2603031Y-1834237D02*
G03*
X-2603032Y-1834237I-0J0D01*
G01*
D02*
G03*
X-2603031Y-1834237I0J0D01*
G01*
X-2603142Y-1834167D02*
G03*
X-2603141Y-1834167I0J0D01*
G01*
D02*
G03*
X-2603142Y-1834167I-0J0D01*
G01*
X-2603139Y-1834238D02*
G03*
X-2603138Y-1834238I0J0D01*
G01*
D02*
G03*
X-2603139Y-1834238I-0J0D01*
G01*
Y-1834216D02*
G03*
X-2603138Y-1834216I0J0D01*
G01*
D02*
G03*
X-2603139Y-1834216I-0J0D01*
G01*
X-2603049Y-1834170D02*
G03*
X-2603048Y-1834170I0J0D01*
G01*
D02*
G03*
X-2603049Y-1834170I-0J0D01*
G01*
X-2603048Y-1834242D02*
G03*
X-2603047Y-1834242I0J0D01*
G01*
D02*
G03*
X-2603048Y-1834242I-0J0D01*
G01*
X-2603083Y-1833924D02*
G03*
X-2603083Y-1833925I0J-0D01*
G01*
D02*
G03*
X-2603083Y-1833924I0J0D01*
G01*
X-2603115Y-1833955D02*
G03*
X-2603114Y-1833955I0J0D01*
G01*
D02*
G03*
X-2603115Y-1833955I-0J0D01*
G01*
X-2603133Y-1833919D02*
G03*
X-2603133Y-1833920I0J-0D01*
G01*
D02*
G03*
X-2603133Y-1833919I0J0D01*
G01*
X-2603111Y-1833930D02*
G03*
X-2603110Y-1833930I0J0D01*
G01*
D02*
G03*
X-2603111Y-1833930I-0J0D01*
G01*
X-2603140Y-1833990D02*
G03*
X-2603140Y-1833990I0J-0D01*
G01*
D02*
G03*
X-2603140Y-1833990I0J0D01*
G01*
X-2603110Y-1833967D02*
G03*
X-2603110Y-1833968I0J-0D01*
G01*
D02*
G03*
X-2603110Y-1833967I0J0D01*
G01*
X-2603081Y-1833979D02*
G03*
X-2603081Y-1833980I0J-0D01*
G01*
D02*
G03*
X-2603081Y-1833979I0J0D01*
G01*
X-2603080Y-1833939D02*
G03*
X-2603080Y-1833940I0J-0D01*
G01*
D02*
G03*
X-2603080Y-1833939I0J0D01*
G01*
X-2603060Y-1833977D02*
G03*
X-2603060Y-1833978I0J-0D01*
G01*
D02*
G03*
X-2603060Y-1833977I0J0D01*
G01*
X-2603063Y-1833948D02*
G03*
X-2603063Y-1833949I0J-0D01*
G01*
D02*
G03*
X-2603063Y-1833948I0J0D01*
G01*
X-2603037Y-1833970D02*
G03*
X-2603037Y-1833971I0J-0D01*
G01*
D02*
G03*
X-2603037Y-1833970I0J0D01*
G01*
X-2603025Y-1833947D02*
G03*
X-2603025Y-1833948I0J-0D01*
G01*
D02*
G03*
X-2603025Y-1833947I0J0D01*
G01*
X-2603025Y-1833958D02*
G03*
X-2603025Y-1833958I0J-0D01*
G01*
D02*
G03*
X-2603025Y-1833958I0J0D01*
G01*
X-2603049Y-1833926D02*
G03*
X-2603049Y-1833927I0J-0D01*
G01*
D02*
G03*
X-2603049Y-1833926I0J0D01*
G01*
X-2603024Y-1833915D02*
G03*
X-2603024Y-1833916I0J-0D01*
G01*
D02*
G03*
X-2603024Y-1833915I0J0D01*
G01*
X-2603044Y-1834071D02*
G03*
X-2603043Y-1834071I0J0D01*
G01*
D02*
G03*
X-2603044Y-1834071I-0J0D01*
G01*
X-2603169Y-1834018D02*
G03*
X-2603169Y-1834018I0J0D01*
G01*
D02*
G03*
X-2603169Y-1834018I-0J0D01*
G01*
X-2603177Y-1833994D02*
G03*
X-2603177Y-1833994I0J0D01*
G01*
D02*
G03*
X-2603177Y-1833994I-0J0D01*
G01*
X-2603187Y-1834029D02*
G03*
X-2603187Y-1834030I0J-0D01*
G01*
D02*
G03*
X-2603187Y-1834029I0J0D01*
G01*
X-2603181Y-1834055D02*
G03*
X-2603181Y-1834056I0J-0D01*
G01*
D02*
G03*
X-2603181Y-1834055I0J0D01*
G01*
X-2603223Y-1834221D02*
G03*
X-2603223Y-1834222I0J-0D01*
G01*
D02*
G03*
X-2603223Y-1834221I0J0D01*
G01*
X-2603193Y-1834198D02*
G03*
X-2603193Y-1834199I0J-0D01*
G01*
D02*
G03*
X-2603193Y-1834198I0J0D01*
G01*
X-2603029Y-1834099D02*
G03*
X-2603029Y-1834100I0J-0D01*
G01*
D02*
G03*
X-2603029Y-1834099I0J0D01*
G01*
X-2603128Y-1833992D02*
G03*
X-2603128Y-1833992I0J-0D01*
G01*
D02*
G03*
X-2603128Y-1833992I0J0D01*
G01*
X-2603073Y-1834025D02*
G03*
X-2603073Y-1834026I0J-0D01*
G01*
D02*
G03*
X-2603073Y-1834025I0J0D01*
G01*
X-2603121Y-1834034D02*
G03*
X-2603121Y-1834034I0J-0D01*
G01*
D02*
G03*
X-2603121Y-1834034I0J0D01*
G01*
X-2603108Y-1834050D02*
G03*
X-2603108Y-1834051I0J-0D01*
G01*
D02*
G03*
X-2603108Y-1834050I0J0D01*
G01*
X-2603101Y-1834122D02*
G03*
X-2603101Y-1834123I0J-0D01*
G01*
D02*
G03*
X-2603101Y-1834122I0J0D01*
G01*
X-2603056Y-1834038D02*
G03*
X-2603056Y-1834038I0J-0D01*
G01*
D02*
G03*
X-2603056Y-1834038I0J0D01*
G01*
X-2603020Y-1834056D02*
G03*
X-2603020Y-1834057I0J-0D01*
G01*
D02*
G03*
X-2603020Y-1834056I0J0D01*
G01*
X-2603117Y-1834068D02*
G03*
X-2603117Y-1834068I0J-0D01*
G01*
D02*
G03*
X-2603117Y-1834068I0J0D01*
G01*
X-2603115Y-1834079D02*
G03*
X-2603115Y-1834080I0J-0D01*
G01*
D02*
G03*
X-2603115Y-1834079I0J0D01*
G01*
X-2603047Y-1834099D02*
G03*
X-2603047Y-1834100I0J-0D01*
G01*
D02*
G03*
X-2603047Y-1834099I0J0D01*
G01*
X-2603131Y-1834194D02*
G03*
X-2603131Y-1834195I0J-0D01*
G01*
D02*
G03*
X-2603131Y-1834194I0J0D01*
G01*
X-2603078Y-1833955D02*
G03*
X-2603078Y-1833956I0J-0D01*
G01*
D02*
G03*
X-2603078Y-1833955I0J0D01*
G01*
X-2603017Y-1834130D02*
G03*
X-2603017Y-1834131I0J-0D01*
G01*
D02*
G03*
X-2603017Y-1834130I0J0D01*
G01*
X-2603149Y-1834132D02*
G03*
X-2603149Y-1834133I0J-0D01*
G01*
D02*
G03*
X-2603149Y-1834132I0J0D01*
G01*
X-2603224Y-1834127D02*
G03*
X-2603223Y-1834127I0J0D01*
G01*
D02*
G03*
X-2603224Y-1834127I-0J0D01*
G01*
M02*
