G04 Layer_Color=16711935*
%FSLAX25Y25*%
%MOIN*%
G70*
G01*
G75*
%ADD22C,0.05512*%
%ADD58C,0.04724*%
%ADD98C,0.02362*%
%ADD113C,0.05118*%
%ADD172C,0.08661*%
%ADD173C,0.06312*%
%ADD174R,0.06312X0.06312*%
%ADD175C,0.18110*%
%ADD176R,0.07480X0.10236*%
%ADD177O,0.07480X0.10236*%
%ADD178C,0.00394*%
%ADD179C,0.11024*%
%ADD180C,0.35827*%
%ADD181C,0.03194*%
%ADD182C,0.02394*%
%ADD183C,0.02756*%
D22*
X230416Y323032D02*
D03*
X260226Y561859D02*
D03*
X392115Y563434D02*
D03*
X278533Y499358D02*
D03*
X382385Y601279D02*
D03*
X397936Y625591D02*
D03*
X383369Y620669D02*
D03*
X397247Y601279D02*
D03*
X294295Y574902D02*
D03*
X403546Y646161D02*
D03*
X393409Y657185D02*
D03*
X429629Y643946D02*
D03*
X216525Y495619D02*
D03*
X185521Y472686D02*
D03*
X390653Y356299D02*
D03*
X395180Y367421D02*
D03*
X395672Y378445D02*
D03*
X338291Y389567D02*
D03*
X339373Y362500D02*
D03*
X498428Y729430D02*
D03*
X473133Y718800D02*
D03*
X513685Y692272D02*
D03*
X513586Y702705D02*
D03*
X494983Y686516D02*
D03*
X497838Y658512D02*
D03*
X477937Y696505D02*
D03*
X477071Y656642D02*
D03*
X447838Y668060D02*
D03*
X417326Y646260D02*
D03*
X445968Y706595D02*
D03*
X424807Y716682D02*
D03*
X443409Y681052D02*
D03*
X475102Y711367D02*
D03*
X361505Y452016D02*
D03*
X360816Y524063D02*
D03*
X270265Y477606D02*
D03*
Y455559D02*
D03*
X267706Y526524D02*
D03*
X377254Y457134D02*
D03*
X274694Y445323D02*
D03*
X284045Y412842D02*
D03*
X369773Y500047D02*
D03*
X381683Y481248D02*
D03*
X375974Y563236D02*
D03*
X324301Y517173D02*
D03*
X260915Y486661D02*
D03*
X270265Y466583D02*
D03*
X278926Y532823D02*
D03*
X252352Y521405D02*
D03*
X257666Y439123D02*
D03*
X227942Y467468D02*
D03*
X286761Y397370D02*
D03*
X498428Y718899D02*
D03*
X521165Y665304D02*
D03*
X479531Y680757D02*
D03*
X452070Y638779D02*
D03*
D58*
X331092Y558611D02*
D03*
X452071Y655166D02*
D03*
X421362Y668552D02*
D03*
X423035Y684398D02*
D03*
X441539Y693158D02*
D03*
X334537Y465501D02*
D03*
X457877Y647342D02*
D03*
D98*
X262982Y471996D02*
D03*
Y467665D02*
D03*
X254320Y471996D02*
D03*
Y467665D02*
D03*
X258651D02*
D03*
Y471996D02*
D03*
X346249Y464122D02*
D03*
Y468453D02*
D03*
X350580Y464122D02*
D03*
Y468453D02*
D03*
X354911Y464122D02*
D03*
Y468453D02*
D03*
D113*
X462405Y656299D02*
D03*
D172*
X327542Y322480D02*
D03*
X391558D02*
D03*
D173*
X386558Y345000D02*
D03*
X332542D02*
D03*
X341558D02*
D03*
X377542D02*
D03*
X345456Y325984D02*
D03*
X349472Y318976D02*
D03*
X353487Y325984D02*
D03*
X357503Y318976D02*
D03*
X361519Y325984D02*
D03*
X365535Y318976D02*
D03*
X369550Y325984D02*
D03*
D174*
X373566Y318976D02*
D03*
D175*
X531893Y1018898D02*
D03*
X118507D02*
D03*
X117917Y330807D02*
D03*
D176*
X157385Y324016D02*
D03*
X435928Y322835D02*
D03*
X251775D02*
D03*
X533960Y323031D02*
D03*
D177*
X167228Y324016D02*
D03*
X445771Y322835D02*
D03*
X261617D02*
D03*
X271460D02*
D03*
X281302D02*
D03*
X543802Y323031D02*
D03*
D178*
X162385Y298516D02*
D03*
X440928Y297335D02*
D03*
X538960Y297532D02*
D03*
D179*
X266539Y297933D02*
D03*
D180*
X497346Y330610D02*
D03*
D181*
X523822Y368012D02*
D03*
X523625Y381693D02*
D03*
X528546Y416536D02*
D03*
X400397Y737795D02*
D03*
X413684Y728543D02*
D03*
X511420Y396555D02*
D03*
X429432Y387500D02*
D03*
X429629Y398327D02*
D03*
X540653Y435433D02*
D03*
X491972Y437008D02*
D03*
X259255Y362992D02*
D03*
D182*
X534058Y388799D02*
D03*
X532365Y384154D02*
D03*
X507779Y385925D02*
D03*
X477365Y399705D02*
D03*
X439428Y387763D02*
D03*
X389865Y389665D02*
D03*
X386519Y401523D02*
D03*
X399117Y533957D02*
D03*
X368409Y596063D02*
D03*
X376662Y585186D02*
D03*
X535043Y369193D02*
D03*
X338854Y397370D02*
D03*
X401972Y638484D02*
D03*
X297346Y589272D02*
D03*
X304743Y596177D02*
D03*
X348282Y575568D02*
D03*
X463437Y649851D02*
D03*
X313881Y597835D02*
D03*
X307976Y556201D02*
D03*
X311027Y555905D02*
D03*
X315209Y600175D02*
D03*
X237095Y539812D02*
D03*
X283454Y561859D02*
D03*
X445762Y689112D02*
D03*
X270560Y402312D02*
D03*
X213375Y489812D02*
D03*
X398710Y573276D02*
D03*
X301495Y583906D02*
D03*
X452745Y367568D02*
D03*
X452647Y360481D02*
D03*
X392720Y616831D02*
D03*
X403251Y611516D02*
D03*
X385239Y613681D02*
D03*
X404236Y626575D02*
D03*
X431598D02*
D03*
X404334Y608957D02*
D03*
X344984Y387697D02*
D03*
X481972Y424823D02*
D03*
X504826Y420374D02*
D03*
X357484Y353248D02*
D03*
X362572Y379990D02*
D03*
X364570Y371063D02*
D03*
X359944Y358661D02*
D03*
X365161Y345965D02*
D03*
X344688Y372638D02*
D03*
X186407Y478099D02*
D03*
X204223Y476008D02*
D03*
X206978Y473572D02*
D03*
X355023Y577756D02*
D03*
X352267Y575886D02*
D03*
X506972Y439488D02*
D03*
X368999Y560138D02*
D03*
Y547441D02*
D03*
X331598Y551968D02*
D03*
X398330Y543996D02*
D03*
X323970Y551230D02*
D03*
X400299Y537402D02*
D03*
X415850Y433760D02*
D03*
X433271Y423425D02*
D03*
X319491Y594685D02*
D03*
X472697Y686794D02*
D03*
X471952Y650591D02*
D03*
X467769Y646408D02*
D03*
X365357Y599606D02*
D03*
X390751Y608957D02*
D03*
X403350Y621358D02*
D03*
X416440Y629035D02*
D03*
X393507Y653248D02*
D03*
X446066Y626673D02*
D03*
X458960Y641043D02*
D03*
X449314Y628248D02*
D03*
X413291Y607185D02*
D03*
X429517Y606904D02*
D03*
X408369Y601772D02*
D03*
X419787Y607087D02*
D03*
X464964Y640699D02*
D03*
X222543Y526575D02*
D03*
X193113Y535973D02*
D03*
X189767Y538532D02*
D03*
X196854Y454528D02*
D03*
X194393Y456004D02*
D03*
X199413Y419783D02*
D03*
X379728Y569980D02*
D03*
X439767Y602067D02*
D03*
X426972Y439567D02*
D03*
X320771Y628248D02*
D03*
X324511Y628642D02*
D03*
X321854Y615354D02*
D03*
X319737Y613069D02*
D03*
X320152Y610433D02*
D03*
X314570Y607874D02*
D03*
X393212Y649114D02*
D03*
X333172Y639272D02*
D03*
X435043Y409842D02*
D03*
X434747Y418701D02*
D03*
X334157Y572146D02*
D03*
X444491Y376279D02*
D03*
X386125Y487992D02*
D03*
X318901Y555610D02*
D03*
X314767Y563386D02*
D03*
X435141Y399508D02*
D03*
X427857Y659547D02*
D03*
X397989Y549681D02*
D03*
X443015Y613189D02*
D03*
X309944Y568209D02*
D03*
X312700Y565650D02*
D03*
X386716Y525787D02*
D03*
X436420Y636811D02*
D03*
X377857Y392618D02*
D03*
X221209Y538558D02*
D03*
X416145Y631791D02*
D03*
X442115Y357874D02*
D03*
X452365Y351969D02*
D03*
X465751Y350787D02*
D03*
X476184Y361221D02*
D03*
D183*
X462503Y685776D02*
D03*
Y693847D02*
D03*
X455023D02*
D03*
X458763Y689812D02*
D03*
X454925Y685678D02*
D03*
M02*
